<svg xmlns="http://www.w3.org/2000/svg" width="337" height="217" viewBox="0 0 337 217">
  <g id="Grupo_974137" data-name="Grupo 974137" transform="translate(1501 6836)">
    <g id="Grupo_974136" data-name="Grupo 974136" transform="translate(102 69)">
      <g id="Rectángulo_339706" data-name="Rectángulo 339706" transform="translate(-1603 -6905)" fill="#ecebe0" stroke="#707070" stroke-width="1">
        <rect width="337" height="217" rx="7" stroke="none"/>
        <rect x="0.5" y="0.5" width="336" height="216" rx="6.5" fill="none"/>
      </g>
      <g id="Grupo_974118" data-name="Grupo 974118" transform="translate(-1591.118 -6898.932)">
        <path id="Trazado_704961" data-name="Trazado 704961" d="M410-10071.5H729.8" transform="translate(-410 10071.5)" fill="none" stroke="#b8b8b8" stroke-linecap="round" stroke-width="1" stroke-dasharray="0.1 6"/>
        <path id="Trazado_704967" data-name="Trazado 704967" d="M410-10071.5H729.8" transform="translate(-410 10111.199)" fill="none" stroke="#b8b8b8" stroke-linecap="round" stroke-width="1" stroke-dasharray="0.1 6"/>
        <path id="Trazado_704958" data-name="Trazado 704958" d="M410-10071.5H729.8" transform="translate(-410 10091.351)" fill="none" stroke="#b8b8b8" stroke-linecap="round" stroke-width="1" stroke-dasharray="0.1 6"/>
        <path id="Trazado_704964" data-name="Trazado 704964" d="M410-10071.5H729.8" transform="translate(-410 10131.05)" fill="none" stroke="#b8b8b8" stroke-linecap="round" stroke-width="1" stroke-dasharray="0.1 6"/>
        <path id="Trazado_704960" data-name="Trazado 704960" d="M410-10071.5H729.8" transform="translate(-410 10077.545)" fill="none" stroke="#b8b8b8" stroke-linecap="round" stroke-width="1" stroke-dasharray="0.1 6"/>
        <path id="Trazado_704966" data-name="Trazado 704966" d="M410-10071.5H729.8" transform="translate(-410 10117.244)" fill="none" stroke="#b8b8b8" stroke-linecap="round" stroke-width="1" stroke-dasharray="0.1 6"/>
        <path id="Trazado_704957" data-name="Trazado 704957" d="M410-10071.5H729.8" transform="translate(-410 10097.396)" fill="none" stroke="#b8b8b8" stroke-linecap="round" stroke-width="1" stroke-dasharray="0.1 6"/>
        <path id="Trazado_704963" data-name="Trazado 704963" d="M410-10071.5H729.8" transform="translate(-410 10137.095)" fill="none" stroke="#b8b8b8" stroke-linecap="round" stroke-width="1" stroke-dasharray="0.1 6"/>
        <path id="Trazado_704959" data-name="Trazado 704959" d="M410-10071.5H729.8" transform="translate(-410 10083.592)" fill="none" stroke="#b8b8b8" stroke-linecap="round" stroke-width="1" stroke-dasharray="0.1 6"/>
        <path id="Trazado_704965" data-name="Trazado 704965" d="M410-10071.5H729.8" transform="translate(-410 10123.291)" fill="none" stroke="#b8b8b8" stroke-linecap="round" stroke-width="1" stroke-dasharray="0.1 6"/>
        <path id="Trazado_704956" data-name="Trazado 704956" d="M410-10071.5H729.8" transform="translate(-410 10103.44)" fill="none" stroke="#b8b8b8" stroke-linecap="round" stroke-width="1" stroke-dasharray="0.1 6"/>
        <path id="Trazado_704962" data-name="Trazado 704962" d="M410-10071.5H729.8" transform="translate(-410 10143.14)" fill="none" stroke="#b8b8b8" stroke-linecap="round" stroke-width="1" stroke-dasharray="0.1 6"/>
      </g>
      <g id="Grupo_974121" data-name="Grupo 974121" transform="translate(-1591.118 -6741.75)">
        <path id="Trazado_704961-2" data-name="Trazado 704961" d="M410-10071.5H729.8" transform="translate(-410 10071.5)" fill="none" stroke="#b8b8b8" stroke-linecap="round" stroke-width="1" stroke-dasharray="0.1 6"/>
        <path id="Trazado_704967-2" data-name="Trazado 704967" d="M410-10071.5H729.8" transform="translate(-410 10111.199)" fill="none" stroke="#b8b8b8" stroke-linecap="round" stroke-width="1" stroke-dasharray="0.1 6"/>
        <path id="Trazado_704958-2" data-name="Trazado 704958" d="M410-10071.5H729.8" transform="translate(-410 10091.351)" fill="none" stroke="#b8b8b8" stroke-linecap="round" stroke-width="1" stroke-dasharray="0.1 6"/>
        <path id="Trazado_704960-2" data-name="Trazado 704960" d="M410-10071.5H729.8" transform="translate(-410 10077.545)" fill="none" stroke="#b8b8b8" stroke-linecap="round" stroke-width="1" stroke-dasharray="0.1 6"/>
        <path id="Trazado_704957-2" data-name="Trazado 704957" d="M410-10071.5H729.8" transform="translate(-410 10097.396)" fill="none" stroke="#b8b8b8" stroke-linecap="round" stroke-width="1" stroke-dasharray="0.1 6"/>
        <path id="Trazado_704959-2" data-name="Trazado 704959" d="M410-10071.5H729.8" transform="translate(-410 10083.592)" fill="none" stroke="#b8b8b8" stroke-linecap="round" stroke-width="1" stroke-dasharray="0.1 6"/>
        <path id="Trazado_704956-2" data-name="Trazado 704956" d="M410-10071.5H729.8" transform="translate(-410 10103.44)" fill="none" stroke="#b8b8b8" stroke-linecap="round" stroke-width="1" stroke-dasharray="0.1 6"/>
      </g>
      <g id="Grupo_974119" data-name="Grupo 974119" transform="translate(-1591.118 -6820.342)">
        <path id="Trazado_704961-3" data-name="Trazado 704961" d="M410-10071.5H729.8" transform="translate(-410 10071.5)" fill="none" stroke="#b8b8b8" stroke-linecap="round" stroke-width="1" stroke-dasharray="0.1 6"/>
        <path id="Trazado_704967-3" data-name="Trazado 704967" d="M410-10071.5H729.8" transform="translate(-410 10111.199)" fill="none" stroke="#b8b8b8" stroke-linecap="round" stroke-width="1" stroke-dasharray="0.1 6"/>
        <path id="Trazado_704958-3" data-name="Trazado 704958" d="M410-10071.5H729.8" transform="translate(-410 10091.351)" fill="none" stroke="#b8b8b8" stroke-linecap="round" stroke-width="1" stroke-dasharray="0.1 6"/>
        <path id="Trazado_704964-2" data-name="Trazado 704964" d="M410-10071.5H729.8" transform="translate(-410 10131.05)" fill="none" stroke="#b8b8b8" stroke-linecap="round" stroke-width="1" stroke-dasharray="0.1 6"/>
        <path id="Trazado_704960-3" data-name="Trazado 704960" d="M410-10071.5H729.8" transform="translate(-410 10077.545)" fill="none" stroke="#b8b8b8" stroke-linecap="round" stroke-width="1" stroke-dasharray="0.1 6"/>
        <path id="Trazado_704966-2" data-name="Trazado 704966" d="M410-10071.5H729.8" transform="translate(-410 10117.244)" fill="none" stroke="#b8b8b8" stroke-linecap="round" stroke-width="1" stroke-dasharray="0.1 6"/>
        <path id="Trazado_704957-3" data-name="Trazado 704957" d="M410-10071.5H729.8" transform="translate(-410 10097.396)" fill="none" stroke="#b8b8b8" stroke-linecap="round" stroke-width="1" stroke-dasharray="0.1 6"/>
        <path id="Trazado_704963-2" data-name="Trazado 704963" d="M410-10071.5H729.8" transform="translate(-410 10137.095)" fill="none" stroke="#b8b8b8" stroke-linecap="round" stroke-width="1" stroke-dasharray="0.1 6"/>
        <path id="Trazado_704959-3" data-name="Trazado 704959" d="M410-10071.5H729.8" transform="translate(-410 10083.592)" fill="none" stroke="#b8b8b8" stroke-linecap="round" stroke-width="1" stroke-dasharray="0.1 6"/>
        <path id="Trazado_704965-2" data-name="Trazado 704965" d="M410-10071.5H729.8" transform="translate(-410 10123.291)" fill="none" stroke="#b8b8b8" stroke-linecap="round" stroke-width="1" stroke-dasharray="0.1 6"/>
        <path id="Trazado_704956-3" data-name="Trazado 704956" d="M410-10071.5H729.8" transform="translate(-410 10103.44)" fill="none" stroke="#b8b8b8" stroke-linecap="round" stroke-width="1" stroke-dasharray="0.1 6"/>
        <path id="Trazado_704962-2" data-name="Trazado 704962" d="M410-10071.5H729.8" transform="translate(-410 10143.14)" fill="none" stroke="#b8b8b8" stroke-linecap="round" stroke-width="1" stroke-dasharray="0.1 6"/>
      </g>
      <g id="Grupo_974122" data-name="Grupo 974122" transform="translate(-1572.773 -6874.693)">
        <g id="Grupo_974117" data-name="Grupo 974117" transform="translate(0 27.646)">
          <g id="Elipse_4232" data-name="Elipse 4232" transform="translate(0.5 17.773)" fill="#fff" stroke="red" stroke-width="1">
            <circle cx="17.773" cy="17.773" r="17.773" stroke="none"/>
            <circle cx="17.773" cy="17.773" r="17.273" fill="none"/>
          </g>
          <path id="Trazado_704944" data-name="Trazado 704944" d="M453-9891v9.479" transform="translate(-434.727 9943.133)" fill="none" stroke="red" stroke-width="1"/>
          <path id="Trazado_704945" data-name="Trazado 704945" d="M453-9891v9.479" transform="translate(-434.727 9899.292)" fill="none" stroke="red" stroke-width="1"/>
          <path id="Trazado_704946" data-name="Trazado 704946" d="M436.333-9985.876a4.569,4.569,0,0,1,5.095-4.1c4.739.226,3.989,4.1,3.989,4.1s-1.382,5.343,4.068,4.895,4.621-4.895,4.621-4.895" transform="translate(-426.947 10020.323)" fill="none" stroke="red" stroke-width="1"/>
        </g>
        <g id="Trazado_705054" data-name="Trazado 705054" transform="translate(76.831 99.924)" fill="#272121">
          <path d="M 29.12162208557129 7.794057846069336 L 0.500002920627594 7.794057846069336 L 0.500002920627594 0.4999979734420776 L 29.12162208557129 0.4999979734420776 L 29.12162208557129 7.794057846069336 Z" stroke="none"/>
          <path d="M 1.000003814697266 0.9999980926513672 L 1.000003814697266 7.294057846069336 L 28.62162208557129 7.294057846069336 L 28.62162208557129 0.9999980926513672 L 1.000003814697266 0.9999980926513672 M 3.814697265625e-06 -1.9073486328125e-06 L 29.62162208557129 -1.9073486328125e-06 L 29.62162208557129 8.294057846069336 L 3.814697265625e-06 8.294057846069336 L 3.814697265625e-06 -1.9073486328125e-06 Z" stroke="none" fill="red"/>
        </g>
        <g id="Trazado_705055" data-name="Trazado 705055" transform="translate(106.453 123.325) rotate(180)" fill="#272121">
          <path d="M 29.12162208557129 7.794057846069336 L 0.500002920627594 7.794057846069336 L 0.500002920627594 0.4999979734420776 L 29.12162208557129 0.4999979734420776 L 29.12162208557129 7.794057846069336 Z" stroke="none"/>
          <path d="M 1.000003814697266 0.9999980926513672 L 1.000003814697266 7.294057846069336 L 28.62162208557129 7.294057846069336 L 28.62162208557129 0.9999980926513672 L 1.000003814697266 0.9999980926513672 M 3.814697265625e-06 -1.9073486328125e-06 L 29.62162208557129 -1.9073486328125e-06 L 29.62162208557129 8.294057846069336 L 3.814697265625e-06 8.294057846069336 L 3.814697265625e-06 -1.9073486328125e-06 Z" stroke="none" fill="red"/>
        </g>
        <path id="Trazado_705056" data-name="Trazado 705056" d="M0,0V15.4" transform="translate(91.642 85.112)" fill="none" stroke="red" stroke-width="1"/>
        <path id="Trazado_705057" data-name="Trazado 705057" d="M0,0V15.4" transform="translate(91.642 138.135) rotate(180)" fill="none" stroke="red" stroke-width="1"/>
        <path id="Trazado_704947" data-name="Trazado 704947" d="M505.147-10038.666v7.108l4.937,3.555-9.084,3.161,9.084,4.344-9.084,3.159,9.084,3.95-9.084,3.556,4.147,2.764v9.085" transform="translate(-413.505 10039.455)" fill="none" stroke="#c82525" stroke-width="1"/>
        <path id="Trazado_704948" data-name="Trazado 704948" d="M505.675-10039.295v7.9l4.409,3.517-9.084,3.161,9.084,4.344-9.084,3.16,9.084,3.949-9.084,3.555,5.634,2.925v9.085" transform="translate(-311.237 10039.332)" fill="none" stroke="#c82525" stroke-width="1"/>
        <path id="Trazado_705058" data-name="Trazado 705058" d="M4.247,8.617H2.729V12H.825V2.758H4.259a3.882,3.882,0,0,1,2.526.73,2.519,2.519,0,0,1,.889,2.063,2.843,2.843,0,0,1-.409,1.577A2.792,2.792,0,0,1,6.024,8.134l2,3.777V12H5.979ZM2.729,7.074H4.266a1.573,1.573,0,0,0,1.111-.365A1.3,1.3,0,0,0,5.77,5.7,1.4,1.4,0,0,0,5.4,4.675,1.543,1.543,0,0,0,4.259,4.3H2.729ZM13.381,12H11.546V4.929l-2.19.679V4.116l3.828-1.371h.2Z" transform="translate(101.823 9.114)" fill="#12263f"/>
        <path id="Trazado_705059" data-name="Trazado 705059" d="M6.386,8.223H2.729V12H.825V2.758H6.843V4.3H2.729V6.687H6.386Zm4.977,1.485,2.095-6.951h2.12L12.359,12H10.372L7.167,2.758H9.28Zm9.826.387H17.85L17.215,12H15.19l3.44-9.242H20.4L23.854,12H21.83ZM18.364,8.553h2.311L19.513,5.094Zm13.476.368a3.27,3.27,0,0,1-1.1,2.349,3.868,3.868,0,0,1-2.618.857,3.478,3.478,0,0,1-2.8-1.2,4.906,4.906,0,0,1-1.019-3.285V7.081a5.54,5.54,0,0,1,.47-2.349,3.52,3.52,0,0,1,1.343-1.558,4.2,4.2,0,0,1,4.605.314,3.515,3.515,0,0,1,1.13,2.406h-1.9a1.93,1.93,0,0,0-.5-1.3,1.845,1.845,0,0,0-1.3-.4,1.618,1.618,0,0,0-1.425.682,3.824,3.824,0,0,0-.486,2.117v.7a4.093,4.093,0,0,0,.454,2.19,1.588,1.588,0,0,0,1.431.692,1.88,1.88,0,0,0,1.317-.4,1.821,1.821,0,0,0,.5-1.247Z" transform="translate(44.823 51.582)" fill="#12263f"/>
        <path id="Trazado_705060" data-name="Trazado 705060" d="M2.738,7H1.75V3.192L.571,3.558v-.8l2.061-.738h.106ZM7.7,4.942a2.521,2.521,0,0,1-.427,1.579,1.491,1.491,0,0,1-1.251.547,1.5,1.5,0,0,1-1.244-.537,2.447,2.447,0,0,1-.441-1.538V4.078A2.488,2.488,0,0,1,4.773,2.5a1.5,1.5,0,0,1,1.246-.54,1.5,1.5,0,0,1,1.244.535A2.44,2.44,0,0,1,7.7,4.026ZM6.716,3.935a1.822,1.822,0,0,0-.169-.9.572.572,0,0,0-.528-.282A.562.562,0,0,0,5.5,3.02a1.705,1.705,0,0,0-.176.84V5.071a1.913,1.913,0,0,0,.166.9.564.564,0,0,0,.531.3.555.555,0,0,0,.523-.284,1.867,1.867,0,0,0,.167-.869Zm5,1.007a2.521,2.521,0,0,1-.427,1.579,1.491,1.491,0,0,1-1.251.547A1.5,1.5,0,0,1,8.8,6.532a2.447,2.447,0,0,1-.441-1.538V4.078A2.488,2.488,0,0,1,8.789,2.5a1.5,1.5,0,0,1,1.246-.54,1.5,1.5,0,0,1,1.244.535,2.44,2.44,0,0,1,.441,1.536Zm-.988-1.007a1.822,1.822,0,0,0-.169-.9.572.572,0,0,0-.528-.282.562.562,0,0,0-.514.269,1.705,1.705,0,0,0-.176.84V5.071a1.913,1.913,0,0,0,.166.9.564.564,0,0,0,.531.3.555.555,0,0,0,.523-.284,1.867,1.867,0,0,0,.167-.869Z" transform="translate(101.823 22.147)" fill="#12263f"/>
        <path id="Trazado_705061" data-name="Trazado 705061" d="M2.738,7H1.75V3.192L.571,3.558v-.8l2.061-.738h.106ZM7.766,7H4.354V6.323l1.61-1.716a3.972,3.972,0,0,0,.49-.632,1.016,1.016,0,0,0,.159-.513.76.76,0,0,0-.167-.521.6.6,0,0,0-.479-.19.652.652,0,0,0-.528.231.914.914,0,0,0-.193.607H4.255a1.631,1.631,0,0,1,.217-.831,1.53,1.53,0,0,1,.614-.59,1.865,1.865,0,0,1,.9-.214,1.766,1.766,0,0,1,1.195.369A1.306,1.306,0,0,1,7.6,3.367a1.673,1.673,0,0,1-.191.752,4.179,4.179,0,0,1-.656.892L5.626,6.2h2.14ZM11.72,4.942a2.521,2.521,0,0,1-.427,1.579,1.491,1.491,0,0,1-1.251.547A1.5,1.5,0,0,1,8.8,6.532a2.447,2.447,0,0,1-.441-1.538V4.078A2.488,2.488,0,0,1,8.789,2.5a1.5,1.5,0,0,1,1.246-.54,1.5,1.5,0,0,1,1.244.535,2.44,2.44,0,0,1,.441,1.536Zm-.988-1.007a1.822,1.822,0,0,0-.169-.9.572.572,0,0,0-.528-.282.562.562,0,0,0-.514.269,1.705,1.705,0,0,0-.176.84V5.071a1.913,1.913,0,0,0,.166.9.564.564,0,0,0,.531.3.555.555,0,0,0,.523-.284,1.867,1.867,0,0,0,.167-.869Zm5.342,1.831L17.2,2.023h1.142L16.611,7h-1.07L13.815,2.023h1.138Zm5.291.208h-1.8L19.226,7h-1.09l1.853-4.977h.95L22.8,7h-1.09Zm-1.521-.831h1.244l-.625-1.863Zm7.256.2a1.761,1.761,0,0,1-.593,1.265,2.083,2.083,0,0,1-1.41.461,1.873,1.873,0,0,1-1.506-.644,2.642,2.642,0,0,1-.549-1.769v-.3A2.983,2.983,0,0,1,23.3,3.086a1.9,1.9,0,0,1,.723-.839,2.259,2.259,0,0,1,2.48.169,1.892,1.892,0,0,1,.608,1.3H26.083a1.039,1.039,0,0,0-.268-.7.994.994,0,0,0-.7-.217.871.871,0,0,0-.767.367,2.059,2.059,0,0,0-.261,1.14v.376a2.2,2.2,0,0,0,.244,1.179.855.855,0,0,0,.771.373,1.012,1.012,0,0,0,.709-.217.98.98,0,0,0,.268-.672Z" transform="translate(44.823 64.616)" fill="#12263f"/>
        <path id="Trazado_705062" data-name="Trazado 705062" d="M2.738,7H1.75V3.192L.571,3.558v-.8l2.061-.738h.106ZM7.7,4.942a2.521,2.521,0,0,1-.427,1.579,1.491,1.491,0,0,1-1.251.547,1.5,1.5,0,0,1-1.244-.537,2.447,2.447,0,0,1-.441-1.538V4.078A2.488,2.488,0,0,1,4.773,2.5a1.5,1.5,0,0,1,1.246-.54,1.5,1.5,0,0,1,1.244.535A2.44,2.44,0,0,1,7.7,4.026ZM6.716,3.935a1.822,1.822,0,0,0-.169-.9.572.572,0,0,0-.528-.282A.562.562,0,0,0,5.5,3.02a1.705,1.705,0,0,0-.176.84V5.071a1.913,1.913,0,0,0,.166.9.564.564,0,0,0,.531.3.555.555,0,0,0,.523-.284,1.867,1.867,0,0,0,.167-.869Zm2.6-.633.031.427a1.291,1.291,0,0,1,1.063-.5,1.073,1.073,0,0,1,.875.345,1.611,1.611,0,0,1,.294,1.032V7H10.6V4.635a.641.641,0,0,0-.137-.456A.612.612,0,0,0,10,4.037a.68.68,0,0,0-.625.355V7H8.391V3.3Z" transform="translate(109.823 111.748)" fill="#12263f"/>
        <path id="Trazado_705063" data-name="Trazado 705063" d="M3.75,7H.338V6.323l1.61-1.716a3.972,3.972,0,0,0,.49-.632A1.016,1.016,0,0,0,2.6,3.462a.76.76,0,0,0-.167-.521.6.6,0,0,0-.479-.19.652.652,0,0,0-.528.231.914.914,0,0,0-.193.607H.239a1.631,1.631,0,0,1,.217-.831,1.53,1.53,0,0,1,.614-.59,1.865,1.865,0,0,1,.9-.214,1.766,1.766,0,0,1,1.195.369,1.306,1.306,0,0,1,.426,1.042,1.673,1.673,0,0,1-.191.752,4.179,4.179,0,0,1-.656.892L1.61,6.2H3.75ZM7.7,4.942a2.521,2.521,0,0,1-.427,1.579,1.491,1.491,0,0,1-1.251.547,1.5,1.5,0,0,1-1.244-.537,2.447,2.447,0,0,1-.441-1.538V4.078A2.488,2.488,0,0,1,4.773,2.5a1.5,1.5,0,0,1,1.246-.54,1.5,1.5,0,0,1,1.244.535A2.44,2.44,0,0,1,7.7,4.026ZM6.716,3.935a1.822,1.822,0,0,0-.169-.9.572.572,0,0,0-.528-.282A.562.562,0,0,0,5.5,3.02a1.705,1.705,0,0,0-.176.84V5.071a1.913,1.913,0,0,0,.166.9.564.564,0,0,0,.531.3.555.555,0,0,0,.523-.284,1.867,1.867,0,0,0,.167-.869Zm5,1.007a2.521,2.521,0,0,1-.427,1.579,1.491,1.491,0,0,1-1.251.547A1.5,1.5,0,0,1,8.8,6.532a2.447,2.447,0,0,1-.441-1.538V4.078A2.488,2.488,0,0,1,8.789,2.5a1.5,1.5,0,0,1,1.246-.54,1.5,1.5,0,0,1,1.244.535,2.44,2.44,0,0,1,.441,1.536Zm-.988-1.007a1.822,1.822,0,0,0-.169-.9.572.572,0,0,0-.528-.282.562.562,0,0,0-.514.269,1.705,1.705,0,0,0-.176.84V5.071a1.913,1.913,0,0,0,.166.9.564.564,0,0,0,.531.3.555.555,0,0,0,.523-.284,1.867,1.867,0,0,0,.167-.869Z" transform="translate(204.612 22.147)" fill="#12263f"/>
        <path id="Trazado_705064" data-name="Trazado 705064" d="M2.738,7H1.75V3.192L.571,3.558v-.8l2.061-.738h.106ZM5.322,3.3l.031.414a1.3,1.3,0,0,1,1.063-.482A.986.986,0,0,1,7.4,3.8a1.27,1.27,0,0,1,1.111-.564,1.1,1.1,0,0,1,.9.35A1.61,1.61,0,0,1,9.7,4.638V7H8.706V4.642a.7.7,0,0,0-.123-.46.545.545,0,0,0-.434-.145.617.617,0,0,0-.615.424l0,2.54H6.549V4.645a.7.7,0,0,0-.126-.465.551.551,0,0,0-.431-.144.64.64,0,0,0-.608.349V7H4.4V3.3ZM14.571,7H13.545V4.867h-2V7H10.521V2.023h1.025V4.04h2V2.023h1.025Z" transform="translate(202.612 112.933)" fill="#12263f"/>
        <path id="Trazado_705065" data-name="Trazado 705065" d="M8.081,8.921a3.27,3.27,0,0,1-1.1,2.349,3.868,3.868,0,0,1-2.618.857,3.478,3.478,0,0,1-2.8-1.2A4.906,4.906,0,0,1,.546,7.646V7.081a5.54,5.54,0,0,1,.47-2.349A3.52,3.52,0,0,1,2.358,3.174a3.761,3.761,0,0,1,2.028-.543,3.768,3.768,0,0,1,2.577.857,3.515,3.515,0,0,1,1.13,2.406h-1.9a1.93,1.93,0,0,0-.5-1.3,1.845,1.845,0,0,0-1.3-.4,1.618,1.618,0,0,0-1.425.682,3.824,3.824,0,0,0-.486,2.117v.7a4.093,4.093,0,0,0,.454,2.19,1.588,1.588,0,0,0,1.431.692,1.88,1.88,0,0,0,1.317-.4,1.821,1.821,0,0,0,.5-1.247ZM13.59,12H11.756V4.929l-2.19.679V4.116l3.828-1.371h.2Z" transform="translate(109.823 99.924)" fill="#12263f"/>
        <path id="Trazado_705066" data-name="Trazado 705066" d="M2.729,10.47H6.773V12H.825V2.758h1.9ZM12.124,12H10.29V4.929L8.1,5.608V4.116l3.828-1.371h.2Z" transform="translate(202.612 99.924)" fill="#12263f"/>
        <path id="Trazado_705067" data-name="Trazado 705067" d="M3.593,7.137H2.31V10H.7V2.18H3.6A3.285,3.285,0,0,1,5.742,2.8a2.132,2.132,0,0,1,.752,1.746,2.406,2.406,0,0,1-.346,1.335,2.363,2.363,0,0,1-1.05.851l1.692,3.2V10H5.06ZM2.31,5.832h1.3a1.331,1.331,0,0,0,.94-.309,1.1,1.1,0,0,0,.333-.851,1.182,1.182,0,0,0-.314-.87A1.306,1.306,0,0,0,3.6,3.485H2.31ZM12.912,10H7.552V8.937l2.53-2.7a6.241,6.241,0,0,0,.771-.994,1.6,1.6,0,0,0,.25-.806,1.2,1.2,0,0,0-.263-.819.95.95,0,0,0-.752-.3,1.025,1.025,0,0,0-.83.363,1.436,1.436,0,0,0-.3.953H7.4a2.564,2.564,0,0,1,.341-1.305A2.4,2.4,0,0,1,8.7,2.408a2.93,2.93,0,0,1,1.413-.336,2.775,2.775,0,0,1,1.877.58,2.052,2.052,0,0,1,.669,1.638,2.629,2.629,0,0,1-.3,1.182,6.567,6.567,0,0,1-1.031,1.4L9.55,8.749h3.362Z" transform="translate(204.612 10.323)" fill="#12263f"/>
        <path id="Trazado_704949" data-name="Trazado 704949" d="M593.223-9965.891v9s-6.8-.62-6.817,3.685,6.537,3.792,6.537,3.792-6.842-.03-6.943,3.979,5.555,3.84,6.943,3.84-7.045-.4-6.943,4.02,6.943,4.275,6.943,4.275-7.2.276-6.943,4.127,6.943,4.167,6.943,4.167v8.059" transform="translate(-397.793 10051.889)" fill="none" stroke="#c82525" stroke-width="1"/>
      </g>
      <g id="Grupo_974130" data-name="Grupo 974130" transform="translate(0 1136)">
        <path id="Trazado_704970" data-name="Trazado 704970" d="M-1481-8820v-13l-73.485.125v49" transform="translate(0 810)" fill="none" stroke="#029e1c" stroke-width="1"/>
        <path id="Trazado_704971" data-name="Trazado 704971" d="M0,0V44.167" transform="translate(-1481 -7969.5)" fill="none" stroke="#029e1c" stroke-width="1"/>
        <path id="Trazado_704975" data-name="Trazado 704975" d="M0,0V34" transform="translate(-1481 -7872.667)" fill="none" stroke="#029e1c" stroke-width="1"/>
      </g>
      <path id="Trazado_704972" data-name="Trazado 704972" d="M-1554.667-7530.5v50" transform="translate(0.181 745)" fill="#3cb14d" stroke="#3cb14d" stroke-width="1"/>
      <path id="Trazado_704973" data-name="Trazado 704973" d="M-1378.286-6860.571v-12l-103.048-.1" transform="translate(0 -14)" fill="none" stroke="#029e1c" stroke-width="1"/>
      <path id="Trazado_704974" data-name="Trazado 704974" d="M-1377.333-6819.333v46" transform="translate(0 -15)" fill="none" stroke="#029e1c" stroke-width="1"/>
      <path id="Trazado_704976" data-name="Trazado 704976" d="M-1556-6736.667v25.333h177.152v-29.333" transform="translate(1.515)" fill="none" stroke="#029e1c" stroke-width="1"/>
      <circle id="Elipse_4236" data-name="Elipse 4236" cx="2.5" cy="2.5" r="2.5" transform="translate(-1566 -6814)" fill="red"/>
      <path id="Trazado_704977" data-name="Trazado 704977" d="M-1377.333-6820.342h24.5" fill="none" stroke="#029e1c" stroke-width="1"/>
      <g id="Rectángulo_339707" data-name="Rectángulo 339707" transform="translate(-1342 -6827)" fill="#c8c8aa" stroke="red" stroke-width="1">
        <rect width="63" height="54" stroke="none"/>
        <rect x="0.5" y="0.5" width="62" height="53" fill="none"/>
      </g>
      <g id="Rectángulo_339708" data-name="Rectángulo 339708" transform="translate(-1327 -6827)" fill="#272121" stroke="red" stroke-width="1">
        <rect width="48" height="54" stroke="none"/>
        <rect x="0.5" y="0.5" width="47" height="53" fill="none"/>
      </g>
      <path id="Trazado_704978" data-name="Trazado 704978" d="M-1342-6820.342h-11.167" fill="none" stroke="red" stroke-width="1"/>
      <path id="Trazado_704979" data-name="Trazado 704979" d="M-1342-6820.342h-11.167" transform="translate(0 11.842)" fill="none" stroke="red" stroke-width="1"/>
      <path id="Trazado_704980" data-name="Trazado 704980" d="M-1342-6820.342h-11.167" transform="translate(0 25.842)" fill="none" stroke="red" stroke-width="1"/>
      <path id="Trazado_704981" data-name="Trazado 704981" d="M-1342-6820.342h-11.167" transform="translate(0 39.842)" fill="none" stroke="red" stroke-width="1"/>
      <path id="Trazado_704982" data-name="Trazado 704982" d="M-1530.5-6762.634l3.085-3.366,3.086,3.366" transform="matrix(-0.07, -0.998, 0.998, -0.07, 5125.444, -8706.883)" fill="none" stroke="#029e1c" stroke-width="1"/>
      <path id="Trazado_704986" data-name="Trazado 704986" d="M-1530.5-6762.634l3.085-3.366,3.086,3.366" transform="matrix(-0.07, -0.998, 0.998, -0.07, 5213.444, -8882.658)" fill="none" stroke="#029e1c" stroke-width="1"/>
      <path id="Trazado_704983" data-name="Trazado 704983" d="M-1530.5-6762.634l3.085-3.366,3.086,3.366" transform="translate(-27.071 15.615)" fill="none" stroke="#029e1c" stroke-width="1"/>
      <path id="Trazado_704988" data-name="Trazado 704988" d="M-1530.5-6762.634l3.085-3.366,3.086,3.366" transform="translate(150.081 40)" fill="none" stroke="#029e1c" stroke-width="1"/>
      <path id="Trazado_704989" data-name="Trazado 704989" d="M-1530.5-6762.634l3.085-3.366,3.086,3.366" transform="translate(150.081 -47.183)" fill="none" stroke="#029e1c" stroke-width="1"/>
      <path id="Trazado_704990" data-name="Trazado 704990" d="M-1530.5-6762.634l3.085-3.366,3.086,3.366" transform="translate(150.081 -62.292)" fill="none" stroke="#029e1c" stroke-width="1"/>
      <path id="Trazado_704984" data-name="Trazado 704984" d="M-1530.5-6762.634l3.085-3.366,3.086,3.366" transform="translate(-27.071 -97.112)" fill="none" stroke="#029e1c" stroke-width="1"/>
      <path id="Trazado_704985" data-name="Trazado 704985" d="M-1530.5-6762.634l3.085-3.366,3.086,3.366" transform="translate(-8283.251 -5359.585) rotate(90)" fill="none" stroke="#029e1c" stroke-width="1"/>
      <path id="Trazado_704987" data-name="Trazado 704987" d="M-1530.5-6762.634l3.085-3.366,3.086,3.366" transform="translate(-8192.377 -5184.029) rotate(90)" fill="none" stroke="#029e1c" stroke-width="1"/>
      <circle id="Elipse_4237" data-name="Elipse 4237" cx="3" cy="3" r="3" transform="translate(-1484 -6714)" fill="#029e1c"/>
      <circle id="Elipse_4238" data-name="Elipse 4238" cx="3" cy="3" r="3" transform="translate(-1484 -6890)" fill="#029e1c"/>
      <circle id="Elipse_4239" data-name="Elipse 4239" cx="3" cy="3" r="3" transform="translate(-1380 -6823)" fill="#029e1c"/>
      <text id="A" transform="translate(-1339 -6824.926)" fill="#12263f" font-size="7" font-family="Roboto-Bold, Roboto" font-weight="700"><tspan x="0" y="7">A</tspan></text>
      <text id="B" transform="translate(-1339 -6813.5)" fill="#12263f" font-size="7" font-family="Roboto-Bold, Roboto" font-weight="700"><tspan x="0" y="7">B</tspan></text>
      <text id="C" transform="translate(-1339 -6800)" fill="#12263f" font-size="7" font-family="Roboto-Bold, Roboto" font-weight="700"><tspan x="0" y="7">C</tspan></text>
      <text id="D" transform="translate(-1339 -6786)" fill="#12263f" font-size="7" font-family="Roboto-Bold, Roboto" font-weight="700"><tspan x="0" y="7">D</tspan></text>
      <g id="Grupo_974132" data-name="Grupo 974132" transform="translate(0.867 -0.683)">
        <path id="Trazado_704991" data-name="Trazado 704991" d="M-1103.286-6805.964h5.125v-4.893h3.727v4.893h3.495v-4.893h3.96v4.893h3.728v-4.893h3.495v4.893h4.193v-4.893h3.728v4.893h3.96v-4.893h4.194v4.893h3.261" transform="translate(-222.173 -1.644)" fill="none" stroke="#fff700" stroke-width="1"/>
        <path id="Trazado_704993" data-name="Trazado 704993" d="M-1103.286-6805.964h5.125v-4.893h3.727v4.893h3.495v-4.893h3.96v4.893h3.728v-4.893h3.495v4.893h4.193v-4.893h3.728v4.893h3.96v-4.893h4.194v4.893h3.261" transform="translate(-222.406 16.062)" fill="none" stroke="red" stroke-width="1"/>
        <path id="Trazado_704992" data-name="Trazado 704992" d="M-1103.286-6800.859s2.8-4.427,3.728-4.427,3.96,4.427,3.96,4.427l3.262-4.427,3.727,4.427,2.8-4.427,3.029,4.427,3.495-4.427,3.029,4.427,2.8-4.427,2.8,4.427,3.029-4.427,2.563,4.427,2.1-4.427,2.33,3.263" transform="translate(-222.173 1.872)" fill="none" stroke="#0019ff" stroke-width="1"/>
        <path id="Trazado_704994" data-name="Trazado 704994" d="M-1103.286-6791.294l2.563-2.562,2.8,3.959,3.961-3.959,2.329,3.959,3.262-3.959,2.8,3.959,3.029-3.959,3.029,3.959,3.028-3.959,2.8,3.959,3.029-3.959,3.495,3.959,2.563-3.959,2.563,3.959,2.563-2.8" transform="translate(-222.173 9.079)" fill="none" stroke="#00b41e" stroke-width="1"/>
      </g>
    </g>
  </g>
</svg>
