<svg xmlns="http://www.w3.org/2000/svg" width="337" height="217" viewBox="0 0 337 217">
  <g id="Grupo_974143" data-name="Grupo 974143" transform="translate(1602 8855)">
    <g id="Grupo_974125" data-name="Grupo 974125" transform="translate(119 1164)">
      <g id="Rectángulo_339706" data-name="Rectángulo 339706" transform="translate(-1721 -10019)" fill="#ecebe0" stroke="#707070" stroke-width="1">
        <rect width="337" height="217" rx="7" stroke="none"/>
        <rect x="0.5" y="0.5" width="336" height="216" rx="6.5" fill="none"/>
      </g>
      <g id="Grupo_974118" data-name="Grupo 974118" transform="translate(-1710.118 -10009.932)">
        <path id="Trazado_704961" data-name="Trazado 704961" d="M410-10071.5H729.8" transform="translate(-410 10071.5)" fill="none" stroke="#b8b8b8" stroke-linecap="round" stroke-width="1" stroke-dasharray="0.1 6"/>
        <path id="Trazado_704967" data-name="Trazado 704967" d="M410-10071.5H729.8" transform="translate(-410 10111.199)" fill="none" stroke="#b8b8b8" stroke-linecap="round" stroke-width="1" stroke-dasharray="0.1 6"/>
        <path id="Trazado_704958" data-name="Trazado 704958" d="M410-10071.5H729.8" transform="translate(-410 10091.351)" fill="none" stroke="#b8b8b8" stroke-linecap="round" stroke-width="1" stroke-dasharray="0.1 6"/>
        <path id="Trazado_704964" data-name="Trazado 704964" d="M410-10071.5H729.8" transform="translate(-410 10131.05)" fill="none" stroke="#b8b8b8" stroke-linecap="round" stroke-width="1" stroke-dasharray="0.1 6"/>
        <path id="Trazado_704960" data-name="Trazado 704960" d="M410-10071.5H729.8" transform="translate(-410 10077.545)" fill="none" stroke="#b8b8b8" stroke-linecap="round" stroke-width="1" stroke-dasharray="0.1 6"/>
        <path id="Trazado_704966" data-name="Trazado 704966" d="M410-10071.5H729.8" transform="translate(-410 10117.244)" fill="none" stroke="#b8b8b8" stroke-linecap="round" stroke-width="1" stroke-dasharray="0.1 6"/>
        <path id="Trazado_704957" data-name="Trazado 704957" d="M410-10071.5H729.8" transform="translate(-410 10097.396)" fill="none" stroke="#b8b8b8" stroke-linecap="round" stroke-width="1" stroke-dasharray="0.1 6"/>
        <path id="Trazado_704963" data-name="Trazado 704963" d="M410-10071.5H729.8" transform="translate(-410 10137.095)" fill="none" stroke="#b8b8b8" stroke-linecap="round" stroke-width="1" stroke-dasharray="0.1 6"/>
        <path id="Trazado_704959" data-name="Trazado 704959" d="M410-10071.5H729.8" transform="translate(-410 10083.592)" fill="none" stroke="#b8b8b8" stroke-linecap="round" stroke-width="1" stroke-dasharray="0.1 6"/>
        <path id="Trazado_704965" data-name="Trazado 704965" d="M410-10071.5H729.8" transform="translate(-410 10123.291)" fill="none" stroke="#b8b8b8" stroke-linecap="round" stroke-width="1" stroke-dasharray="0.1 6"/>
        <path id="Trazado_704956" data-name="Trazado 704956" d="M410-10071.5H729.8" transform="translate(-410 10103.44)" fill="none" stroke="#b8b8b8" stroke-linecap="round" stroke-width="1" stroke-dasharray="0.1 6"/>
        <path id="Trazado_704962" data-name="Trazado 704962" d="M410-10071.5H729.8" transform="translate(-410 10143.14)" fill="none" stroke="#b8b8b8" stroke-linecap="round" stroke-width="1" stroke-dasharray="0.1 6"/>
      </g>
      <g id="Grupo_974121" data-name="Grupo 974121" transform="translate(-1710.118 -9852.75)">
        <path id="Trazado_704961-2" data-name="Trazado 704961" d="M410-10071.5H729.8" transform="translate(-410 10071.5)" fill="none" stroke="#b8b8b8" stroke-linecap="round" stroke-width="1" stroke-dasharray="0.1 6"/>
        <path id="Trazado_704967-2" data-name="Trazado 704967" d="M410-10071.5H729.8" transform="translate(-410 10111.199)" fill="none" stroke="#b8b8b8" stroke-linecap="round" stroke-width="1" stroke-dasharray="0.1 6"/>
        <path id="Trazado_704958-2" data-name="Trazado 704958" d="M410-10071.5H729.8" transform="translate(-410 10091.351)" fill="none" stroke="#b8b8b8" stroke-linecap="round" stroke-width="1" stroke-dasharray="0.1 6"/>
        <path id="Trazado_704960-2" data-name="Trazado 704960" d="M410-10071.5H729.8" transform="translate(-410 10077.545)" fill="none" stroke="#b8b8b8" stroke-linecap="round" stroke-width="1" stroke-dasharray="0.1 6"/>
        <path id="Trazado_704957-2" data-name="Trazado 704957" d="M410-10071.5H729.8" transform="translate(-410 10097.396)" fill="none" stroke="#b8b8b8" stroke-linecap="round" stroke-width="1" stroke-dasharray="0.1 6"/>
        <path id="Trazado_704959-2" data-name="Trazado 704959" d="M410-10071.5H729.8" transform="translate(-410 10083.592)" fill="none" stroke="#b8b8b8" stroke-linecap="round" stroke-width="1" stroke-dasharray="0.1 6"/>
        <path id="Trazado_704956-2" data-name="Trazado 704956" d="M410-10071.5H729.8" transform="translate(-410 10103.44)" fill="none" stroke="#b8b8b8" stroke-linecap="round" stroke-width="1" stroke-dasharray="0.1 6"/>
      </g>
      <g id="Grupo_974119" data-name="Grupo 974119" transform="translate(-1710.118 -9931.342)">
        <path id="Trazado_704961-3" data-name="Trazado 704961" d="M410-10071.5H729.8" transform="translate(-410 10071.5)" fill="none" stroke="#b8b8b8" stroke-linecap="round" stroke-width="1" stroke-dasharray="0.1 6"/>
        <path id="Trazado_704967-3" data-name="Trazado 704967" d="M410-10071.5H729.8" transform="translate(-410 10111.199)" fill="none" stroke="#b8b8b8" stroke-linecap="round" stroke-width="1" stroke-dasharray="0.1 6"/>
        <path id="Trazado_704958-3" data-name="Trazado 704958" d="M410-10071.5H729.8" transform="translate(-410 10091.351)" fill="none" stroke="#b8b8b8" stroke-linecap="round" stroke-width="1" stroke-dasharray="0.1 6"/>
        <path id="Trazado_704964-2" data-name="Trazado 704964" d="M410-10071.5H729.8" transform="translate(-410 10131.05)" fill="none" stroke="#b8b8b8" stroke-linecap="round" stroke-width="1" stroke-dasharray="0.1 6"/>
        <path id="Trazado_704960-3" data-name="Trazado 704960" d="M410-10071.5H729.8" transform="translate(-410 10077.545)" fill="none" stroke="#b8b8b8" stroke-linecap="round" stroke-width="1" stroke-dasharray="0.1 6"/>
        <path id="Trazado_704966-2" data-name="Trazado 704966" d="M410-10071.5H729.8" transform="translate(-410 10117.244)" fill="none" stroke="#b8b8b8" stroke-linecap="round" stroke-width="1" stroke-dasharray="0.1 6"/>
        <path id="Trazado_704957-3" data-name="Trazado 704957" d="M410-10071.5H729.8" transform="translate(-410 10097.396)" fill="none" stroke="#b8b8b8" stroke-linecap="round" stroke-width="1" stroke-dasharray="0.1 6"/>
        <path id="Trazado_704963-2" data-name="Trazado 704963" d="M410-10071.5H729.8" transform="translate(-410 10137.095)" fill="none" stroke="#b8b8b8" stroke-linecap="round" stroke-width="1" stroke-dasharray="0.1 6"/>
        <path id="Trazado_704959-3" data-name="Trazado 704959" d="M410-10071.5H729.8" transform="translate(-410 10083.592)" fill="none" stroke="#b8b8b8" stroke-linecap="round" stroke-width="1" stroke-dasharray="0.1 6"/>
        <path id="Trazado_704965-2" data-name="Trazado 704965" d="M410-10071.5H729.8" transform="translate(-410 10123.291)" fill="none" stroke="#b8b8b8" stroke-linecap="round" stroke-width="1" stroke-dasharray="0.1 6"/>
        <path id="Trazado_704956-3" data-name="Trazado 704956" d="M410-10071.5H729.8" transform="translate(-410 10103.44)" fill="none" stroke="#b8b8b8" stroke-linecap="round" stroke-width="1" stroke-dasharray="0.1 6"/>
        <path id="Trazado_704962-2" data-name="Trazado 704962" d="M410-10071.5H729.8" transform="translate(-410 10143.14)" fill="none" stroke="#b8b8b8" stroke-linecap="round" stroke-width="1" stroke-dasharray="0.1 6"/>
      </g>
      <g id="Grupo_974122" data-name="Grupo 974122" transform="translate(-1690.773 -9971.693)">
        <g id="Grupo_974117" data-name="Grupo 974117" transform="translate(0 27.646)">
          <g id="Elipse_4232" data-name="Elipse 4232" transform="translate(-0.5 17.773)" fill="#fff" stroke="red" stroke-width="1">
            <circle cx="17.773" cy="17.773" r="17.773" stroke="none"/>
            <circle cx="17.773" cy="17.773" r="17.273" fill="none"/>
          </g>
          <path id="Trazado_704944" data-name="Trazado 704944" d="M453-9891v9.479" transform="translate(-435.727 9943.133)" fill="none" stroke="red" stroke-width="1"/>
          <path id="Trazado_704945" data-name="Trazado 704945" d="M453-9891v9.479" transform="translate(-435.727 9899.292)" fill="none" stroke="red" stroke-width="1"/>
          <path id="Trazado_704946" data-name="Trazado 704946" d="M436.333-9985.876a4.569,4.569,0,0,1,5.095-4.1c4.739.226,3.989,4.1,3.989,4.1s-1.382,5.343,4.068,4.895,4.621-4.895,4.621-4.895" transform="translate(-427.947 10020.323)" fill="none" stroke="red" stroke-width="1"/>
        </g>
        <g id="Trazado_705030" data-name="Trazado 705030" transform="translate(75.831 99.924)" fill="#fff">
          <path d="M 29.12162208557129 7.794057846069336 L 0.500002920627594 7.794057846069336 L 0.500002920627594 0.4999979734420776 L 29.12162208557129 0.4999979734420776 L 29.12162208557129 7.794057846069336 Z" stroke="none"/>
          <path d="M 1.000003814697266 0.9999980926513672 L 1.000003814697266 7.294057846069336 L 28.62162208557129 7.294057846069336 L 28.62162208557129 0.9999980926513672 L 1.000003814697266 0.9999980926513672 M 3.814697265625e-06 -1.9073486328125e-06 L 29.62162208557129 -1.9073486328125e-06 L 29.62162208557129 8.294057846069336 L 3.814697265625e-06 8.294057846069336 L 3.814697265625e-06 -1.9073486328125e-06 Z" stroke="none" fill="red"/>
        </g>
        <g id="Trazado_705031" data-name="Trazado 705031" transform="translate(105.453 123.325) rotate(180)" fill="#fff">
          <path d="M 29.12162208557129 7.794057846069336 L 0.500002920627594 7.794057846069336 L 0.500002920627594 0.4999979734420776 L 29.12162208557129 0.4999979734420776 L 29.12162208557129 7.794057846069336 Z" stroke="none"/>
          <path d="M 1.000003814697266 0.9999980926513672 L 1.000003814697266 7.294057846069336 L 28.62162208557129 7.294057846069336 L 28.62162208557129 0.9999980926513672 L 1.000003814697266 0.9999980926513672 M 3.814697265625e-06 -1.9073486328125e-06 L 29.62162208557129 -1.9073486328125e-06 L 29.62162208557129 8.294057846069336 L 3.814697265625e-06 8.294057846069336 L 3.814697265625e-06 -1.9073486328125e-06 Z" stroke="none" fill="red"/>
        </g>
        <path id="Trazado_705032" data-name="Trazado 705032" d="M0,0V15.4" transform="translate(90.642 85.112)" fill="none" stroke="red" stroke-width="1"/>
        <path id="Trazado_705033" data-name="Trazado 705033" d="M0,0V15.4" transform="translate(90.642 138.135) rotate(180)" fill="none" stroke="red" stroke-width="1"/>
        <path id="Trazado_704947" data-name="Trazado 704947" d="M505.147-10038.666v7.108l4.937,3.555-9.084,3.161,9.084,4.344-9.084,3.159,9.084,3.95-9.084,3.556,4.147,2.764v9.085" transform="translate(-414.505 10039.455)" fill="none" stroke="#c82525" stroke-width="1"/>
        <path id="Trazado_704948" data-name="Trazado 704948" d="M505.147-10039.332v7.9l4.937,3.554-9.084,3.161,9.084,4.344-9.084,3.16,9.084,3.949-9.084,3.555,4.147,2.765v9.085" transform="translate(-310.237 10039.332)" fill="none" stroke="#c82525" stroke-width="1"/>
        <path id="Trazado_705034" data-name="Trazado 705034" d="M4.247,8.617H2.729V12H.825V2.758H4.259a3.882,3.882,0,0,1,2.526.73,2.519,2.519,0,0,1,.889,2.063,2.843,2.843,0,0,1-.409,1.577A2.792,2.792,0,0,1,6.024,8.134l2,3.777V12H5.979ZM2.729,7.074H4.266a1.573,1.573,0,0,0,1.111-.365A1.3,1.3,0,0,0,5.77,5.7,1.4,1.4,0,0,0,5.4,4.675,1.543,1.543,0,0,0,4.259,4.3H2.729ZM13.381,12H11.546V4.929l-2.19.679V4.116l3.828-1.371h.2Z" transform="translate(101.823 9.114)" fill="#12263f"/>
        <path id="Trazado_705035" data-name="Trazado 705035" d="M2.738,7H1.75V3.192L.571,3.558v-.8l2.061-.738h.106ZM7.7,4.942a2.521,2.521,0,0,1-.427,1.579,1.491,1.491,0,0,1-1.251.547,1.5,1.5,0,0,1-1.244-.537,2.447,2.447,0,0,1-.441-1.538V4.078A2.488,2.488,0,0,1,4.773,2.5a1.5,1.5,0,0,1,1.246-.54,1.5,1.5,0,0,1,1.244.535A2.44,2.44,0,0,1,7.7,4.026ZM6.716,3.935a1.822,1.822,0,0,0-.169-.9.572.572,0,0,0-.528-.282A.562.562,0,0,0,5.5,3.02a1.705,1.705,0,0,0-.176.84V5.071a1.913,1.913,0,0,0,.166.9.564.564,0,0,0,.531.3.555.555,0,0,0,.523-.284,1.867,1.867,0,0,0,.167-.869ZM10.035,5,9.5,5.578V7H8.477V2.023H9.5V4.279l.451-.619,1.268-1.637h1.261L10.715,4.235,12.534,7h-1.22Z" transform="translate(101.823 22.147)" fill="#12263f"/>
        <path id="Trazado_705036" data-name="Trazado 705036" d="M2.738,7H1.75V3.192L.571,3.558v-.8l2.061-.738h.106ZM7.7,4.942a2.521,2.521,0,0,1-.427,1.579,1.491,1.491,0,0,1-1.251.547,1.5,1.5,0,0,1-1.244-.537,2.447,2.447,0,0,1-.441-1.538V4.078A2.488,2.488,0,0,1,4.773,2.5a1.5,1.5,0,0,1,1.246-.54,1.5,1.5,0,0,1,1.244.535A2.44,2.44,0,0,1,7.7,4.026ZM6.716,3.935a1.822,1.822,0,0,0-.169-.9.572.572,0,0,0-.528-.282A.562.562,0,0,0,5.5,3.02a1.705,1.705,0,0,0-.176.84V5.071a1.913,1.913,0,0,0,.166.9.564.564,0,0,0,.531.3.555.555,0,0,0,.523-.284,1.867,1.867,0,0,0,.167-.869Zm5,1.007a2.521,2.521,0,0,1-.427,1.579,1.491,1.491,0,0,1-1.251.547A1.5,1.5,0,0,1,8.8,6.532a2.447,2.447,0,0,1-.441-1.538V4.078A2.488,2.488,0,0,1,8.789,2.5a1.5,1.5,0,0,1,1.246-.54,1.5,1.5,0,0,1,1.244.535,2.44,2.44,0,0,1,.441,1.536Zm-.988-1.007a1.822,1.822,0,0,0-.169-.9.572.572,0,0,0-.528-.282.562.562,0,0,0-.514.269,1.705,1.705,0,0,0-.176.84V5.071a1.913,1.913,0,0,0,.166.9.564.564,0,0,0,.531.3.555.555,0,0,0,.523-.284,1.867,1.867,0,0,0,.167-.869Zm5,1.007a2.521,2.521,0,0,1-.427,1.579,1.491,1.491,0,0,1-1.251.547,1.5,1.5,0,0,1-1.244-.537,2.447,2.447,0,0,1-.441-1.538V4.078A2.488,2.488,0,0,1,12.805,2.5a1.5,1.5,0,0,1,1.246-.54A1.5,1.5,0,0,1,15.3,2.49a2.44,2.44,0,0,1,.441,1.536Zm-.988-1.007a1.822,1.822,0,0,0-.169-.9.572.572,0,0,0-.528-.282.562.562,0,0,0-.514.269,1.705,1.705,0,0,0-.176.84V5.071a1.913,1.913,0,0,0,.166.9.564.564,0,0,0,.531.3.555.555,0,0,0,.523-.284,1.867,1.867,0,0,0,.167-.869Zm3.91,2.689a1.239,1.239,0,0,1-1.012.444,1.168,1.168,0,0,1-.907-.342,1.459,1.459,0,0,1-.32-1V3.3h.988V5.694q0,.578.526.578a.713.713,0,0,0,.69-.349V3.3h.991V7h-.93Z" transform="translate(109.823 111.748)" fill="#12263f"/>
        <path id="Trazado_705037" data-name="Trazado 705037" d="M2.738,7H1.75V3.192L.571,3.558v-.8l2.061-.738h.106ZM7.7,4.942a2.521,2.521,0,0,1-.427,1.579,1.491,1.491,0,0,1-1.251.547,1.5,1.5,0,0,1-1.244-.537,2.447,2.447,0,0,1-.441-1.538V4.078A2.488,2.488,0,0,1,4.773,2.5a1.5,1.5,0,0,1,1.246-.54,1.5,1.5,0,0,1,1.244.535A2.44,2.44,0,0,1,7.7,4.026ZM6.716,3.935a1.822,1.822,0,0,0-.169-.9.572.572,0,0,0-.528-.282A.562.562,0,0,0,5.5,3.02a1.705,1.705,0,0,0-.176.84V5.071a1.913,1.913,0,0,0,.166.9.564.564,0,0,0,.531.3.555.555,0,0,0,.523-.284,1.867,1.867,0,0,0,.167-.869ZM10.035,5,9.5,5.578V7H8.477V2.023H9.5V4.279l.451-.619,1.268-1.637h1.261L10.715,4.235,12.534,7h-1.22Z" transform="translate(204.612 22.147)" fill="#12263f"/>
        <path id="Trazado_705038" data-name="Trazado 705038" d="M2.738,7H1.75V3.192L.571,3.558v-.8l2.061-.738h.106ZM5.322,3.3l.031.414a1.3,1.3,0,0,1,1.063-.482A.986.986,0,0,1,7.4,3.8a1.27,1.27,0,0,1,1.111-.564,1.1,1.1,0,0,1,.9.35A1.61,1.61,0,0,1,9.7,4.638V7H8.706V4.642a.7.7,0,0,0-.123-.46.545.545,0,0,0-.434-.145.617.617,0,0,0-.615.424l0,2.54H6.549V4.645a.7.7,0,0,0-.126-.465.551.551,0,0,0-.431-.144.64.64,0,0,0-.608.349V7H4.4V3.3ZM14.571,7H13.545V4.867h-2V7H10.521V2.023h1.025V4.04h2V2.023h1.025Z" transform="translate(202.612 112.933)" fill="#12263f"/>
        <path id="Trazado_705039" data-name="Trazado 705039" d="M8.081,8.921a3.27,3.27,0,0,1-1.1,2.349,3.868,3.868,0,0,1-2.618.857,3.478,3.478,0,0,1-2.8-1.2A4.906,4.906,0,0,1,.546,7.646V7.081a5.54,5.54,0,0,1,.47-2.349A3.52,3.52,0,0,1,2.358,3.174a3.761,3.761,0,0,1,2.028-.543,3.768,3.768,0,0,1,2.577.857,3.515,3.515,0,0,1,1.13,2.406h-1.9a1.93,1.93,0,0,0-.5-1.3,1.845,1.845,0,0,0-1.3-.4,1.618,1.618,0,0,0-1.425.682,3.824,3.824,0,0,0-.486,2.117v.7a4.093,4.093,0,0,0,.454,2.19,1.588,1.588,0,0,0,1.431.692,1.88,1.88,0,0,0,1.317-.4,1.821,1.821,0,0,0,.5-1.247ZM13.59,12H11.756V4.929l-2.19.679V4.116l3.828-1.371h.2Z" transform="translate(109.823 99.924)" fill="#12263f"/>
        <path id="Trazado_705040" data-name="Trazado 705040" d="M2.729,10.47H6.773V12H.825V2.758h1.9ZM12.124,12H10.29V4.929L8.1,5.608V4.116l3.828-1.371h.2Z" transform="translate(202.612 99.924)" fill="#12263f"/>
        <path id="Trazado_705041" data-name="Trazado 705041" d="M3.593,7.137H2.31V10H.7V2.18H3.6A3.285,3.285,0,0,1,5.742,2.8a2.132,2.132,0,0,1,.752,1.746,2.406,2.406,0,0,1-.346,1.335,2.363,2.363,0,0,1-1.05.851l1.692,3.2V10H5.06ZM2.31,5.832h1.3a1.331,1.331,0,0,0,.94-.309,1.1,1.1,0,0,0,.333-.851,1.182,1.182,0,0,0-.314-.87A1.306,1.306,0,0,0,3.6,3.485H2.31ZM12.912,10H7.552V8.937l2.53-2.7a6.241,6.241,0,0,0,.771-.994,1.6,1.6,0,0,0,.25-.806,1.2,1.2,0,0,0-.263-.819.95.95,0,0,0-.752-.3,1.025,1.025,0,0,0-.83.363,1.436,1.436,0,0,0-.3.953H7.4a2.564,2.564,0,0,1,.341-1.305A2.4,2.4,0,0,1,8.7,2.408a2.93,2.93,0,0,1,1.413-.336,2.775,2.775,0,0,1,1.877.58,2.052,2.052,0,0,1,.669,1.638,2.629,2.629,0,0,1-.3,1.182,6.567,6.567,0,0,1-1.031,1.4L9.55,8.749h3.362Z" transform="translate(204.612 10.323)" fill="#12263f"/>
        <path id="Trazado_704949" data-name="Trazado 704949" d="M594.1-9966v9s-7.6-.512-7.622,3.793,7.622,3.792,7.622,3.792-7.978-.03-8.1,3.979,6.477,3.84,8.1,3.84-8.215-.4-8.1,4.02,8.1,4.275,8.1,4.275-8.393.276-8.1,4.127,8.1,4.167,8.1,4.167v8.059" transform="translate(-398.793 10052.889)" fill="none" stroke="#c82525" stroke-width="1"/>
      </g>
    </g>
    <path id="Trazado_704968" data-name="Trazado 704968" d="M-1481-8820v-13h-73.667v49" transform="translate(0 13)" fill="none" stroke="#2e9e00" stroke-width="1"/>
  </g>
</svg>
