<?xml version="1.0" encoding="utf-8"?>
<!-- Generator: Adobe Illustrator 25.3.1, SVG Export Plug-In . SVG Version: 6.00 Build 0)  -->
<svg version="1.1" id="Capa_1" xmlns="http://www.w3.org/2000/svg" xmlns:xlink="http://www.w3.org/1999/xlink" x="0px" y="0px"
	 viewBox="0 0 598 255.7" style="enable-background:new 0 0 598 255.7;" xml:space="preserve">
<style type="text/css">
	.st0{fill:#12263F;}
	.st1{font-family:'Roboto-Bold';}
	.st2{font-size:16px;}
	.st3{fill:#F4CD8A;}
	.st4{fill:#EEB865;}
	.st5{fill:#FFA200;}
	.st6{fill:#FFFFFF;}
	.st7{fill:#FFEE00;}
	.st8{fill:url(#Rectángulo_5232_1_);}
	.st9{fill:#B4100A;}
	.st10{fill:url(#Rectángulo_5232-2_1_);}
	.st11{fill:#FCB89D;}
	.st12{fill:url(#Rectángulo_5232-3_1_);}
	.st13{fill:none;stroke:#3C4FA1;stroke-width:4;stroke-linejoin:bevel;}
	.st14{fill:#303C42;}
	.st15{fill:#F2F2F2;}
	.st16{fill:#E6E6E6;}
	.st17{opacity:0.7;fill:#FFFFFF;enable-background:new    ;}
	.st18{opacity:0.2;enable-background:new    ;}
	.st19{fill:url(#Trazado_105754_1_);}
	.st20{fill:url(#Trazado_105755_1_);stroke:#000000;}
	.st21{fill:#AFAFAF;}
	.st22{fill:#8A8A8A;}
	.st23{fill:#4A4A4A;}
	.st24{fill:#F39E1D;}
	.st25{fill:#3D3D3D;}
	.st26{fill:#EA5C23;}
	.st27{font-size:20px;}
	.st28{fill:#FFD500;}
	.st29{fill:none;stroke:#2A2A2A;stroke-width:3;}
	.st30{font-size:13px;}
</style>
<g id="Grupo_54891" transform="translate(-529 -4166.771)">
	<text transform="matrix(1 0 0 1 775.503 4189.271)" class="st0 st1 st2">100 Ω</text>
	<text transform="matrix(1 0 0 1 895.0029 4189.271)" class="st0 st1 st2">300 Ω</text>
	<text transform="matrix(1 0 0 1 1014.5029 4189.271)" class="st0 st1 st2">200 Ω</text>
	<g id="Grupo_54889" transform="translate(5 -1)">
		<g id="Grupo_54883" transform="translate(169.798 5.03)">
			<g id="Grupo_54846" transform="translate(598.365 4213.757) rotate(-90)">
				<path id="Trazado_105709" class="st3" d="M17.6,38.9v-0.1c0-0.9-0.2-1.7-0.7-2.5l-0.3-0.1l-1.5-0.3l-0.2-1.4l0.8-0.7v-3.2
					l-0.8-0.6v-1.3L16,28v-5.6L15.5,22v-1.8l0.5-0.4V17l-0.5-0.4l-0.4-0.7l0.5-1l1.2-0.5c0.5-0.8,0.8-1.7,0.9-2.6l-0.7-0.5L17,9.8
					l0.6-0.6c-0.2-1.8-1.3-3.4-3-4.2l-3.1-1.4V0.8c0-0.5-0.4-0.8-0.8-0.8H6.9C6.5,0,6.1,0.4,6.1,0.8c0,0,0,0,0,0v2.8l-2.2,1L3.3,9.9
					l2,7.1l-2.1,17l0.7,11.7l2.2,1v2.8c0,0.5,0.4,0.8,0.8,0.8c0,0,0,0,0,0h3.8c0.5,0,0.8-0.4,0.8-0.8v-2.8l3.1-1.4
					c1.6-0.7,2.6-2.2,2.9-3.8l-0.2-0.2L17,40.9l0.1-1.3L17.6,38.9z"/>
				<path id="Trazado_105710" class="st4" d="M7,41.2v-1.9c0-1.3,0.5-2.6,1.4-3.6l0.1-0.2c0.1-0.2,0.2-0.3,0.2-0.6V15.5
					c0-0.2-0.1-0.4-0.2-0.6l-0.1-0.2c-0.9-1-1.4-2.2-1.4-3.6V9.3c0-2.1,1.2-3.9,3-4.8l1.7-0.8l-0.1,0V0.8c0-0.5-0.4-0.8-0.8-0.8H6.9
					C6.5,0,6.1,0.4,6.1,0.8c0,0,0,0,0,0v2.8L3,5.1C1.3,5.8,0.2,7.4,0,9.3l0.4,0.2l0,1.8L0,11.8c0,0.9,0.3,1.9,0.9,2.6l1.4,0.4
					c0,0,0.4,1.5,0.4,1.5L2,16.8L1.7,17v2.8L2,20.2c0,0,0,1.8,0,1.8s-0.3,0.4-0.3,0.4V28L2,28.3v2l-0.4,0.2v3.2l0.7,0.4
					c0,0-0.1,1.7-0.1,1.7S1,36.1,1,36.1l-0.3,0.2C0.2,37,0,37.9,0,38.8v0.1c0,0,0.5,0.5,0.5,0.5s0,1.7,0,1.7l-0.4,0.4
					c0.3,1.7,1.4,3.1,2.9,3.8l3.1,1.4v2.8c0,0.5,0.4,0.8,0.8,0.8c0,0,0,0,0,0h3.8c0.5,0,0.8-0.4,0.8-0.8v-2.8h0L10,46
					C8.1,45.1,7,43.3,7,41.2z"/>
			</g>
			<g id="Grupo_54882" transform="translate(0 25.04)">
				<path id="Rectángulo_5229" class="st5" d="M611.5,4171L611.5,4171c1.4,0,2.5,1.1,2.5,2.5v13c0,1.4-1.1,2.5-2.5,2.5l0,0
					c-1.4,0-2.5-1.1-2.5-2.5v-13C609,4172.1,610.1,4171,611.5,4171z"/>
				<path id="Rectángulo_5230" class="st6" d="M616,4173h3c0.6,0,1,0.4,1,1v12c0,0.6-0.4,1-1,1h-3c-0.6,0-1-0.4-1-1v-12
					C615,4173.4,615.4,4173,616,4173z"/>
				<path id="Rectángulo_5231" class="st7" d="M629,4173h3c0.6,0,1,0.4,1,1v12c0,0.6-0.4,1-1,1h-3c-0.6,0-1-0.4-1-1v-12
					C628,4173.4,628.4,4173,629,4173z"/>
				
					<linearGradient id="Rectángulo_5232_1_" gradientUnits="userSpaceOnUse" x1="-173.298" y1="4783.8677" x2="-173.298" y2="4782.8677" gradientTransform="matrix(5 0 0 -18 1502.99 90280.6172)">
					<stop  offset="0" style="stop-color:#8E8E8E"/>
					<stop  offset="0.498" style="stop-color:#F1F1F1"/>
					<stop  offset="1" style="stop-color:#919090"/>
				</linearGradient>
				<path id="Rectángulo_5232" class="st8" d="M636.5,4171L636.5,4171c1.4,0,2.5,1.1,2.5,2.5v13c0,1.4-1.1,2.5-2.5,2.5l0,0
					c-1.4,0-2.5-1.1-2.5-2.5v-13C634,4172.1,635.1,4171,636.5,4171z"/>
				<path id="Trazado_105714" d="M622.2,4172.8c0-0.7-0.6-1.3-1.3-1.3h-6.5l0,0c-1.2-1.1-2.7-1.7-4.3-1.7h-1.9
					c-2.5,0-4.8,1.5-5.8,3.7l-1.1,2.4h-2c-1.2,0-2.1,0.9-2.1,2.1l0,0v0.6h-16c-0.7,0-1.3,0.6-1.2,1.3c0,0.7,0.6,1.2,1.2,1.2h16v0.6
					c0,1.2,0.9,2.1,2.1,2.1c0,0,0,0,0,0h2l1.1,2.4c1,2.3,3.3,3.7,5.8,3.7h1.9c1.6,0,3.1-0.6,4.3-1.7l0,0H633l0,0
					c1.2,1.1,2.7,1.7,4.3,1.7h1.9c2.5,0,4.8-1.5,5.8-3.7l1.1-2.4h2c1.2,0,2.1-0.9,2.1-2.1l0,0v-0.6h16c0.7,0,1.3-0.6,1.2-1.3
					c0-0.7-0.6-1.2-1.2-1.2h-16v-0.6c0-1.2-0.9-2.1-2.1-2.1c0,0,0,0,0,0h-2l-1.1-2.4c-1-2.3-3.3-3.7-5.8-3.7h-1.9
					c-1.6,0-3.1,0.6-4.3,1.7l0,0h-6.5c-0.7,0-1.3,0.5-1.3,1.2c0,0.7,0.5,1.3,1.2,1.3c0,0,0,0,0.1,0h0v11.7h-5.6V4174h0.1
					C621.7,4174,622.2,4173.5,622.2,4172.8L622.2,4172.8L622.2,4172.8z M604.7,4185.2l-1.4-3.1c-0.2-0.5-0.7-0.7-1.2-0.7h-2.4v-2.9
					h2.4c0.5,0,1-0.3,1.2-0.7l1.4-3.1c0.6-1.2,1.7-2,3-2.2v4.8c0,0.7,0.6,1.3,1.3,1.2c0.7,0,1.2-0.6,1.2-1.2v-4.8
					c0.9,0,1.7,0.4,2.4,1l0.2,0.1c0,0,0.1,0.1,0.1,0.1v12.6c0,0-0.1,0.1-0.1,0.1l-0.2,0.1c-0.7,0.6-1.5,0.9-2.4,1v-4.8
					c0-0.7-0.5-1.3-1.2-1.3c-0.7,0-1.3,0.5-1.3,1.2c0,0,0,0,0,0.1v4.7C606.4,4187.2,605.3,4186.4,604.7,4185.2L604.7,4185.2z
					 M634.8,4173.3c0.7-0.6,1.6-0.9,2.5-0.9h0.1v15.1h-0.1c-0.9,0-1.8-0.3-2.5-0.9V4173.3z M642.6,4174.6l1.4,3.1
					c0.2,0.5,0.7,0.7,1.2,0.7h2.4v2.9h-2.4c-0.5,0-1,0.3-1.2,0.7l-1.4,3.1c-0.5,1.1-1.5,1.9-2.7,2.1v-14.9
					C641.1,4172.7,642.1,4173.5,642.6,4174.6L642.6,4174.6z M629,4174h3.2v11.7H629L629,4174z M618.3,4185.8h-2.8V4174h2.8
					L618.3,4185.8z"/>
			</g>
		</g>
	</g>
	<g id="Grupo_54888" transform="translate(0 -1)">
		<g id="Grupo_54885" transform="translate(414.298 5.03)">
			<g id="Grupo_54846-2" transform="translate(598.365 4213.757) rotate(-90)">
				<path id="Trazado_105709-2" class="st3" d="M17.6,38.9v-0.1c0-0.9-0.2-1.7-0.7-2.5l-0.3-0.1l-1.5-0.3l-0.2-1.4l0.8-0.7v-3.2
					l-0.8-0.6v-1.3L16,28v-5.6L15.5,22v-1.8l0.5-0.4V17l-0.5-0.4l-0.4-0.7l0.5-1l1.2-0.5c0.5-0.8,0.8-1.7,0.9-2.6l-0.7-0.5L17,9.8
					l0.6-0.6c-0.2-1.8-1.3-3.4-3-4.2l-3.1-1.4V0.8c0-0.5-0.4-0.8-0.8-0.8H6.9C6.5,0,6.1,0.4,6.1,0.8c0,0,0,0,0,0v2.8l-2.2,1L3.3,9.9
					l2,7.1l-2.1,17l0.7,11.7l2.2,1v2.8c0,0.5,0.4,0.8,0.8,0.8c0,0,0,0,0,0h3.8c0.5,0,0.8-0.4,0.8-0.8v-2.8l3.1-1.4
					c1.6-0.7,2.6-2.2,2.9-3.8l-0.2-0.2L17,40.9l0.1-1.3L17.6,38.9z"/>
				<path id="Trazado_105710-2" class="st4" d="M7,41.2v-1.9c0-1.3,0.5-2.6,1.4-3.6l0.1-0.2c0.1-0.2,0.2-0.3,0.2-0.6V15.5
					c0-0.2-0.1-0.4-0.2-0.6l-0.1-0.2c-0.9-1-1.4-2.2-1.4-3.6V9.3c0-2.1,1.2-3.9,3-4.8l1.7-0.8l-0.1,0V0.8c0-0.5-0.4-0.8-0.8-0.8H6.9
					C6.5,0,6.1,0.4,6.1,0.8c0,0,0,0,0,0v2.8L3,5.1C1.3,5.8,0.2,7.4,0,9.3l0.4,0.2l0,1.8L0,11.8c0,0.9,0.3,1.9,0.9,2.6l1.4,0.4
					c0,0,0.4,1.5,0.4,1.5L2,16.8L1.7,17v2.8L2,20.2c0,0,0,1.8,0,1.8s-0.3,0.4-0.3,0.4V28L2,28.3v2l-0.4,0.2v3.2l0.7,0.4
					c0,0-0.1,1.7-0.1,1.7S1,36.1,1,36.1l-0.3,0.2C0.2,37,0,37.9,0,38.8v0.1c0,0,0.5,0.5,0.5,0.5s0,1.7,0,1.7l-0.4,0.4
					c0.3,1.7,1.4,3.1,2.9,3.8l3.1,1.4v2.8c0,0.5,0.4,0.8,0.8,0.8c0,0,0,0,0,0h3.8c0.5,0,0.8-0.4,0.8-0.8v-2.8h0L10,46
					C8.1,45.1,7,43.3,7,41.2z"/>
			</g>
			<g id="Grupo_54882-2" transform="translate(0 25.04)">
				<path id="Rectángulo_5229-2" class="st5" d="M611.5,4171L611.5,4171c1.4,0,2.5,1.1,2.5,2.5v13c0,1.4-1.1,2.5-2.5,2.5l0,0
					c-1.4,0-2.5-1.1-2.5-2.5v-13C609,4172.1,610.1,4171,611.5,4171z"/>
				<path id="Rectángulo_5230-2" class="st6" d="M616,4173h3c0.6,0,1,0.4,1,1v12c0,0.6-0.4,1-1,1h-3c-0.6,0-1-0.4-1-1v-12
					C615,4173.4,615.4,4173,616,4173z"/>
				<path id="Rectángulo_5231-2" class="st9" d="M629,4173h3c0.6,0,1,0.4,1,1v12c0,0.6-0.4,1-1,1h-3c-0.6,0-1-0.4-1-1v-12
					C628,4173.4,628.4,4173,629,4173z"/>
				
					<linearGradient id="Rectángulo_5232-2_1_" gradientUnits="userSpaceOnUse" x1="-412.798" y1="4783.8677" x2="-412.798" y2="4782.8677" gradientTransform="matrix(5 0 0 -18 2700.49 90280.6172)">
					<stop  offset="0" style="stop-color:#8E8E8E"/>
					<stop  offset="0.498" style="stop-color:#F1F1F1"/>
					<stop  offset="1" style="stop-color:#919090"/>
				</linearGradient>
				<path id="Rectángulo_5232-2" class="st10" d="M636.5,4171L636.5,4171c1.4,0,2.5,1.1,2.5,2.5v13c0,1.4-1.1,2.5-2.5,2.5l0,0
					c-1.4,0-2.5-1.1-2.5-2.5v-13C634,4172.1,635.1,4171,636.5,4171z"/>
				<path id="Trazado_105714-2" d="M622.2,4172.8c0-0.7-0.6-1.3-1.3-1.3h-6.5l0,0c-1.2-1.1-2.7-1.7-4.3-1.7h-1.9
					c-2.5,0-4.8,1.5-5.8,3.7l-1.1,2.4h-2c-1.2,0-2.1,0.9-2.1,2.1l0,0v0.6h-16c-0.7,0-1.3,0.6-1.2,1.3c0,0.7,0.6,1.2,1.2,1.2h16v0.6
					c0,1.2,0.9,2.1,2.1,2.1c0,0,0,0,0,0h2l1.1,2.4c1,2.3,3.3,3.7,5.8,3.7h1.9c1.6,0,3.1-0.6,4.3-1.7l0,0H633l0,0
					c1.2,1.1,2.7,1.7,4.3,1.7h1.9c2.5,0,4.8-1.5,5.8-3.7l1.1-2.4h2c1.2,0,2.1-0.9,2.1-2.1l0,0v-0.6h16c0.7,0,1.3-0.6,1.2-1.3
					c0-0.7-0.6-1.2-1.2-1.2h-16v-0.6c0-1.2-0.9-2.1-2.1-2.1c0,0,0,0,0,0h-2l-1.1-2.4c-1-2.3-3.3-3.7-5.8-3.7h-1.9
					c-1.6,0-3.1,0.6-4.3,1.7l0,0h-6.5c-0.7,0-1.3,0.5-1.3,1.2c0,0.7,0.5,1.3,1.2,1.3c0,0,0,0,0.1,0h0v11.7h-5.6V4174h0.1
					C621.7,4174,622.2,4173.5,622.2,4172.8L622.2,4172.8L622.2,4172.8z M604.7,4185.2l-1.4-3.1c-0.2-0.5-0.7-0.7-1.2-0.7h-2.4v-2.9
					h2.4c0.5,0,1-0.3,1.2-0.7l1.4-3.1c0.6-1.2,1.7-2,3-2.2v4.8c0,0.7,0.6,1.3,1.3,1.2c0.7,0,1.2-0.6,1.2-1.2v-4.8
					c0.9,0,1.7,0.4,2.4,1l0.2,0.1c0,0,0.1,0.1,0.1,0.1v12.6c0,0-0.1,0.1-0.1,0.1l-0.2,0.1c-0.7,0.6-1.5,0.9-2.4,1v-4.8
					c0-0.7-0.5-1.3-1.2-1.3c-0.7,0-1.3,0.5-1.3,1.2c0,0,0,0,0,0.1v4.7C606.4,4187.2,605.3,4186.4,604.7,4185.2L604.7,4185.2z
					 M634.8,4173.3c0.7-0.6,1.6-0.9,2.5-0.9h0.1v15.1h-0.1c-0.9,0-1.8-0.3-2.5-0.9V4173.3z M642.6,4174.6l1.4,3.1
					c0.2,0.5,0.7,0.7,1.2,0.7h2.4v2.9h-2.4c-0.5,0-1,0.3-1.2,0.7l-1.4,3.1c-0.5,1.1-1.5,1.9-2.7,2.1v-14.9
					C641.1,4172.7,642.1,4173.5,642.6,4174.6L642.6,4174.6z M629,4174h3.2v11.7H629L629,4174z M618.3,4185.8h-2.8V4174h2.8
					L618.3,4185.8z"/>
			</g>
		</g>
	</g>
	<g id="Grupo_54890" transform="translate(0 -1)">
		<g id="Grupo_54886" transform="translate(162.253 5.03)">
			<g id="Grupo_54884" transform="translate(132.545)">
				<g id="Grupo_54846-3" transform="translate(598.365 4213.757) rotate(-90)">
					<path id="Trazado_105709-3" class="st3" d="M17.6,38.9v-0.1c0-0.9-0.2-1.7-0.7-2.5l-0.3-0.1l-1.5-0.3l-0.2-1.4l0.8-0.7v-3.2
						l-0.8-0.6v-1.3L16,28v-5.6L15.5,22v-1.8l0.5-0.4V17l-0.5-0.4l-0.4-0.7l0.5-1l1.2-0.5c0.5-0.8,0.8-1.7,0.9-2.6l-0.7-0.5L17,9.8
						l0.6-0.6c-0.2-1.8-1.3-3.4-3-4.2l-3.1-1.4V0.8c0-0.5-0.4-0.8-0.8-0.8H6.9C6.5,0,6.1,0.4,6.1,0.8c0,0,0,0,0,0v2.8l-2.2,1
						L3.3,9.9l2,7.1l-2.1,17l0.7,11.7l2.2,1v2.8c0,0.5,0.4,0.8,0.8,0.8c0,0,0,0,0,0h3.8c0.5,0,0.8-0.4,0.8-0.8v-2.8l3.1-1.4
						c1.6-0.7,2.6-2.2,2.9-3.8l-0.2-0.2L17,40.9l0.1-1.3L17.6,38.9z"/>
					<path id="Trazado_105710-3" class="st4" d="M7,41.2v-1.9c0-1.3,0.5-2.6,1.4-3.6l0.1-0.2c0.1-0.2,0.2-0.3,0.2-0.6V15.5
						c0-0.2-0.1-0.4-0.2-0.6l-0.1-0.2c-0.9-1-1.4-2.2-1.4-3.6V9.3c0-2.1,1.2-3.9,3-4.8l1.7-0.8l-0.1,0V0.8c0-0.5-0.4-0.8-0.8-0.8
						H6.9C6.5,0,6.1,0.4,6.1,0.8c0,0,0,0,0,0v2.8L3,5.1C1.3,5.8,0.2,7.4,0,9.3l0.4,0.2l0,1.8L0,11.8c0,0.9,0.3,1.9,0.9,2.6l1.4,0.4
						c0,0,0.4,1.5,0.4,1.5L2,16.8L1.7,17v2.8L2,20.2c0,0,0,1.8,0,1.8s-0.3,0.4-0.3,0.4V28L2,28.3v2l-0.4,0.2v3.2l0.7,0.4
						c0,0-0.1,1.7-0.1,1.7S1,36.1,1,36.1l-0.3,0.2C0.2,37,0,37.9,0,38.8v0.1c0,0,0.5,0.5,0.5,0.5s0,1.7,0,1.7l-0.4,0.4
						c0.3,1.7,1.4,3.1,2.9,3.8l3.1,1.4v2.8c0,0.5,0.4,0.8,0.8,0.8c0,0,0,0,0,0h3.8c0.5,0,0.8-0.4,0.8-0.8v-2.8h0L10,46
						C8.1,45.1,7,43.3,7,41.2z"/>
				</g>
				<g id="Grupo_54882-3" transform="translate(0 25.04)">
					<path id="Rectángulo_5229-3" class="st5" d="M611.5,4171L611.5,4171c1.4,0,2.5,1.1,2.5,2.5v13c0,1.4-1.1,2.5-2.5,2.5l0,0
						c-1.4,0-2.5-1.1-2.5-2.5v-13C609,4172.1,610.1,4171,611.5,4171z"/>
					<path id="Rectángulo_5230-3" class="st6" d="M616,4173h3c0.6,0,1,0.4,1,1v12c0,0.6-0.4,1-1,1h-3c-0.6,0-1-0.4-1-1v-12
						C615,4173.4,615.4,4173,616,4173z"/>
					<path id="Rectángulo_5231-3" class="st11" d="M629,4173h3c0.6,0,1,0.4,1,1v12c0,0.6-0.4,1-1,1h-3c-0.6,0-1-0.4-1-1v-12
						C628,4173.4,628.4,4173,629,4173z"/>
					
						<linearGradient id="Rectángulo_5232-3_1_" gradientUnits="userSpaceOnUse" x1="-293.298" y1="4783.8677" x2="-293.298" y2="4782.8677" gradientTransform="matrix(5 0 0 -18 2102.99 90280.6172)">
						<stop  offset="0" style="stop-color:#8E8E8E"/>
						<stop  offset="0.498" style="stop-color:#F1F1F1"/>
						<stop  offset="1" style="stop-color:#919090"/>
					</linearGradient>
					<path id="Rectángulo_5232-3" class="st12" d="M636.5,4171L636.5,4171c1.4,0,2.5,1.1,2.5,2.5v13c0,1.4-1.1,2.5-2.5,2.5l0,0
						c-1.4,0-2.5-1.1-2.5-2.5v-13C634,4172.1,635.1,4171,636.5,4171z"/>
					<path id="Trazado_105714-3" d="M622.2,4172.8c0-0.7-0.6-1.3-1.3-1.3h-6.5l0,0c-1.2-1.1-2.7-1.7-4.3-1.7h-1.9
						c-2.5,0-4.8,1.5-5.8,3.7l-1.1,2.4h-2c-1.2,0-2.1,0.9-2.1,2.1l0,0v0.6h-16c-0.7,0-1.3,0.6-1.2,1.3c0,0.7,0.6,1.2,1.2,1.2h16v0.6
						c0,1.2,0.9,2.1,2.1,2.1c0,0,0,0,0,0h2l1.1,2.4c1,2.3,3.3,3.7,5.8,3.7h1.9c1.6,0,3.1-0.6,4.3-1.7l0,0H633l0,0
						c1.2,1.1,2.7,1.7,4.3,1.7h1.9c2.5,0,4.8-1.5,5.8-3.7l1.1-2.4h2c1.2,0,2.1-0.9,2.1-2.1l0,0v-0.6h16c0.7,0,1.3-0.6,1.2-1.3
						c0-0.7-0.6-1.2-1.2-1.2h-16v-0.6c0-1.2-0.9-2.1-2.1-2.1c0,0,0,0,0,0h-2l-1.1-2.4c-1-2.3-3.3-3.7-5.8-3.7h-1.9
						c-1.6,0-3.1,0.6-4.3,1.7l0,0h-6.5c-0.7,0-1.3,0.5-1.3,1.2c0,0.7,0.5,1.3,1.2,1.3c0,0,0,0,0.1,0h0v11.7h-5.6V4174h0.1
						C621.7,4174,622.2,4173.5,622.2,4172.8L622.2,4172.8L622.2,4172.8z M604.7,4185.2l-1.4-3.1c-0.2-0.5-0.7-0.7-1.2-0.7h-2.4v-2.9
						h2.4c0.5,0,1-0.3,1.2-0.7l1.4-3.1c0.6-1.2,1.7-2,3-2.2v4.8c0,0.7,0.6,1.3,1.3,1.2c0.7,0,1.2-0.6,1.2-1.2v-4.8
						c0.9,0,1.7,0.4,2.4,1l0.2,0.1c0,0,0.1,0.1,0.1,0.1v12.6c0,0-0.1,0.1-0.1,0.1l-0.2,0.1c-0.7,0.6-1.5,0.9-2.4,1v-4.8
						c0-0.7-0.5-1.3-1.2-1.3c-0.7,0-1.3,0.5-1.3,1.2c0,0,0,0,0,0.1v4.7C606.4,4187.2,605.3,4186.4,604.7,4185.2L604.7,4185.2z
						 M634.8,4173.3c0.7-0.6,1.6-0.9,2.5-0.9h0.1v15.1h-0.1c-0.9,0-1.8-0.3-2.5-0.9V4173.3z M642.6,4174.6l1.4,3.1
						c0.2,0.5,0.7,0.7,1.2,0.7h2.4v2.9h-2.4c-0.5,0-1,0.3-1.2,0.7l-1.4,3.1c-0.5,1.1-1.5,1.9-2.7,2.1v-14.9
						C641.1,4172.7,642.1,4173.5,642.6,4174.6L642.6,4174.6z M629,4174h3.2v11.7H629L629,4174z M618.3,4185.8h-2.8V4174h2.8
						L618.3,4185.8z"/>
				</g>
			</g>
		</g>
	</g>
	<text transform="matrix(1 0 0 1 535 4359.2402)" class="st0 st1 st2">9V</text>
	<path id="Trazado_105756" class="st13" d="M762.5,4275.2v-65.6H588v210.9h537v-210.9h-48.9v65.6h-75.7v-65.6h-45.8v65.6h-73.6
		v-65.6h-45.8v65.6H762.5z"/>
	<g id="switch" transform="translate(586.025 4167.271)">
		<path id="Trazado_105746" class="st14" d="M110.6,0H69.8C66.6,0,64,2.6,64,5.8v58.3c0,3.2,2.6,5.8,5.8,5.8h40.8
			c3.2,0,5.8-2.6,5.8-5.8V5.8C116.5,2.6,113.9,0,110.6,0z"/>
		<path id="Trazado_105747" class="st15" d="M113.6,64.1c0,1.6-1.3,2.9-2.9,2.9H69.8c-1.6,0-2.9-1.3-2.9-2.9V5.8
			c0-1.6,1.3-2.9,2.9-2.9h40.8c1.6,0,2.9,1.3,2.9,2.9V64.1z"/>
		<path id="Trazado_105748" class="st14" d="M99,33.3V18.9c0-0.8-0.7-1.5-1.5-1.5c0,0,0,0,0,0H82.9c-0.8,0-1.5,0.7-1.5,1.5
			c0,0,0,0,0,0v29.2c0,0.8,0.7,1.5,1.5,1.5c0,0,0,0,0,0h13.1c0.5,0,0.9-0.2,1.2-0.6l4.4-5.8c0.3-0.4,0.4-0.9,0.2-1.3L99,33.3z"/>
		<path id="Trazado_105749" class="st16" d="M98.4,40.8H88.2L85.3,35h11.2L98.4,40.8z"/>
		<path id="Trazado_105750" class="st15" d="M84.4,43.7v-4l1.2,2.4L84.4,43.7z"/>
		<path id="Trazado_105751" class="st17" d="M84.4,43.7v-4l1.2,2.4L84.4,43.7z"/>
		<g id="Grupo_54887" transform="translate(84.408 20.408)">
			<rect id="Rectángulo_5233" x="0" y="0" class="st16" width="11.7" height="11.7"/>
			<path id="Trazado_105752" class="st16" d="M10.9,26.2H1.5l2.2-2.9h9.5L10.9,26.2z"/>
		</g>
		<path id="Trazado_105753" class="st18" d="M95.3,46.6h-9.5l2.2-2.9h9.5L95.3,46.6z"/>
		<circle id="Elipse_4071" class="st14" cx="90.2" cy="8.7" r="2.9"/>
		
			<linearGradient id="Trazado_105754_1_" gradientUnits="userSpaceOnUse" x1="-696.7913" y1="654.462" x2="-696.7563" y2="654.495" gradientTransform="matrix(31.489 0 0 -33.768 22000.4609 22196.2188)">
			<stop  offset="0" style="stop-color:#000000;stop-opacity:0.102"/>
			<stop  offset="1" style="stop-color:#000000;stop-opacity:0"/>
		</linearGradient>
		<path id="Trazado_105754" class="st19" d="M99,33.3l2.8,8.5c0.2,0.5,0.1,1-0.2,1.3L97.2,49c-0.3,0.4-0.7,0.6-1.2,0.6H83
			c-0.3,0-0.6-0.1-0.9-0.3l17.8,17.8h10.8c1.6,0,2.9-1.3,2.9-2.9V47.9L99,33.3z"/>
		<circle id="Elipse_4072" class="st14" cx="90.2" cy="61.2" r="2.9"/>
		
			<linearGradient id="Trazado_105755_1_" gradientUnits="userSpaceOnUse" x1="-704.8833" y1="661.7988" x2="-704.8233" y2="661.8198" gradientTransform="matrix(52.478 0 0 -69.97 37032.043 46363.9453)">
			<stop  offset="0" style="stop-color:#FFFFFF;stop-opacity:0.2"/>
			<stop  offset="1" style="stop-color:#FFFFFF;stop-opacity:0"/>
		</linearGradient>
		<path id="Trazado_105755" class="st20" d="M110.6,0H69.8C66.6,0,64,2.6,64,5.8v58.3c0,3.2,2.6,5.8,5.8,5.8h40.8
			c3.2,0,5.8-2.6,5.8-5.8V5.8C116.5,2.6,113.9,0,110.6,0z"/>
	</g>
	<g id="Grupo_54881" transform="translate(-110 53)">
		<g id="Grupo_54880" transform="translate(-122.627 3382.74)">
			<g id="battery" transform="translate(688.133 864.186)">
				<path id="Trazado_105683" class="st21" d="M153.4,93.7h-42.4c-3.1,0-5.6-2.5-5.6-5.6c0,0,0,0,0,0V19c0-3.1,2.5-5.6,5.6-5.6h42.4
					c3.1,0,5.6,2.5,5.6,5.6v69.1C159,91.2,156.5,93.7,153.4,93.7z"/>
				<path id="Trazado_105684" class="st22" d="M159,19v69.1c0,3.1-2.5,5.6-5.6,5.6l0,0H146c3.1,0,5.6-2.5,5.6-5.6c0,0,0,0,0,0V19
					c0-3.1-2.5-5.6-5.6-5.6l0,0h7.4C156.5,13.4,159,15.9,159,19z"/>
				<path id="Trazado_105685" class="st23" d="M151.6,53.5v32.7h-38.7V53.5H151.6z"/>
				<path id="Trazado_105744" class="st24" d="M151.6,20.8v32.7h-38.7V20.8H151.6z"/>
				<path id="Trazado_105686" class="st25" d="M144.1,53.5h7.4v32.7h-7.4V53.5z"/>
				<path id="Trazado_105745" class="st26" d="M144.1,20.8h7.4v32.7h-7.4V20.8z"/>
				<path id="Trazado_105687" class="st21" d="M147.1,13.4h-29.7V5.2c0-2.1,1.7-3.7,3.7-3.7h22.3c2.1,0,3.7,1.7,3.7,3.7V13.4z"/>
				<path id="Trazado_105688" class="st22" d="M147.1,5.2v8.2h-7.4V5.2c0-2.1-1.7-3.7-3.7-3.7c0,0,0,0,0,0h7.4
					C145.4,1.5,147.1,3.1,147.1,5.2C147.1,5.2,147.1,5.2,147.1,5.2z"/>
				<path id="Trazado_105690" d="M153.4,11.9h-4.8V5.2c0-2.9-2.3-5.2-5.2-5.2h-22.3c-2.9,0-5.2,2.3-5.2,5.2v6.7h-4.8
					c-3.9,0-7.1,3.2-7.1,7.1v69.1c0,3.9,3.2,7.1,7.1,7.1h42.4c3.9,0,7.1-3.2,7.1-7.1V19C160.5,15.1,157.3,11.9,153.4,11.9z
					 M118.9,5.2c0-1.2,1-2.2,2.2-2.2h22.3c1.2,0,2.2,1,2.2,2.2v6.7h-26.8V5.2z M157.5,88.1c0,2.3-1.8,4.1-4.1,4.1h-42.4
					c-2.3,0-4.1-1.8-4.1-4.1V19c0-2.3,1.8-4.1,4.1-4.1h42.4c2.3,0,4.1,1.8,4.1,4.1V88.1z"/>
				<path id="Trazado_105691" d="M151.6,19.3h-38.7c-0.8,0-1.5,0.7-1.5,1.5v65.4c0,0.8,0.7,1.5,1.5,1.5h38.7c0.8,0,1.5-0.7,1.5-1.5
					V20.8C153.1,20,152.4,19.3,151.6,19.3z M150.1,84.7h-35.7V22.3h35.7L150.1,84.7z"/>
			</g>
			<text transform="matrix(1 0 0 1 809.658 911.759)" class="st1 st27">+</text>
			<text transform="matrix(1 0 0 1 810.503 941)" class="st1 st27">-</text>
		</g>
	</g>
	<g id="Rectángulo_5234" transform="translate(769 4263)">
		<path class="st28" d="M12.5,0h36C55.4,0,61,5.6,61,12.5l0,0C61,19.4,55.4,25,48.5,25h-36C5.6,25,0,19.4,0,12.5l0,0
			C0,5.6,5.6,0,12.5,0z"/>
		<path class="st29" d="M12.5,1.5h36c6.1,0,11,4.9,11,11l0,0c0,6.1-4.9,11-11,11h-36c-6.1,0-11-4.9-11-11l0,0
			C1.5,6.4,6.4,1.5,12.5,1.5z"/>
	</g>
	<g id="Rectángulo_5235" transform="translate(888 4263)">
		<path class="st28" d="M12.5,0h36C55.4,0,61,5.6,61,12.5l0,0C61,19.4,55.4,25,48.5,25h-36C5.6,25,0,19.4,0,12.5l0,0
			C0,5.6,5.6,0,12.5,0z"/>
		<path class="st29" d="M12.5,1.5h36c6.1,0,11,4.9,11,11l0,0c0,6.1-4.9,11-11,11h-36c-6.1,0-11-4.9-11-11l0,0
			C1.5,6.4,6.4,1.5,12.5,1.5z"/>
	</g>
	<g id="Rectángulo_5236" transform="translate(1008 4263)">
		<path class="st28" d="M12.5,0h36C55.4,0,61,5.6,61,12.5l0,0C61,19.4,55.4,25,48.5,25h-36C5.6,25,0,19.4,0,12.5l0,0
			C0,5.6,5.6,0,12.5,0z"/>
		<path class="st29" d="M12.5,1.5h36c6.1,0,11,4.9,11,11l0,0c0,6.1-4.9,11-11,11h-36c-6.1,0-11-4.9-11-11l0,0
			C1.5,6.4,6.4,1.5,12.5,1.5z"/>
	</g>
	<text transform="matrix(1 0 0 1 784.097 4280)" class="st0 st1 st30">1.5 V</text>
	<text transform="matrix(1 0 0 1 903.594 4280)" class="st0 st1 st30">4.5 V</text>
	<text transform="matrix(1 0 0 1 1027.823 4281)" class="st0 st1 st30">3 V</text>
</g>
</svg>
