<svg xmlns="http://www.w3.org/2000/svg" width="558" height="303" viewBox="0 0 558 303"><g transform="translate(2869 2658)"><g transform="translate(2268 -4031)"><rect width="558" height="303" rx="5" transform="translate(-5137 1373)" fill="#fff"/><text transform="translate(-4785.124 1496.299)" fill="#12263f" font-size="20" font-family="Roboto-Black, Roboto" font-weight="800"><tspan x="-6.099" y="21">Z</tspan></text><text transform="translate(-5013.124 1472.299)" fill="#12263f" font-size="20" font-family="Roboto-Black, Roboto" font-weight="800"><tspan x="-6.099" y="21">Z</tspan></text><text transform="translate(-4915.075 1541.61)" fill="#12263f" font-size="20" font-family="Roboto-Black, Roboto" font-weight="800"><tspan x="-6.099" y="21">Z</tspan></text><text transform="translate(-5058.926 1541.61)" fill="#12263f" font-size="20" font-family="Roboto-Black, Roboto" font-weight="800"><tspan x="-6.099" y="21">Z</tspan></text><text transform="translate(-4817.494 1394.159)" fill="#12263f" font-size="20" font-family="Roboto-Black, Roboto" font-weight="800"><tspan x="-6.523" y="21">R</tspan></text><text transform="translate(-4985.059 1394.159)" fill="#12263f" font-size="20" font-family="Roboto-Black, Roboto" font-weight="800"><tspan x="-6.523" y="21">R</tspan></text><text transform="translate(-4728.333 1394.159)" fill="#12263f" font-size="20" font-family="Roboto-Black, Roboto" font-weight="800"><tspan x="-6.26" y="21">S</tspan></text><text transform="translate(-4858 1606.038)" fill="#12263f" font-size="20" font-family="Roboto-Black, Roboto" font-weight="800"><tspan x="-6.26" y="21">S</tspan></text><text transform="translate(-4728.333 1609.76)" fill="#12263f" font-size="20" font-family="Roboto-Black, Roboto" font-weight="800"><tspan x="-7.021" y="21">N</tspan></text><text transform="translate(-4987 1571.288)" fill="#12263f" font-size="20" font-family="Roboto-Black, Roboto" font-weight="800"><tspan x="-7.021" y="21">N</tspan></text><text transform="translate(-4639.173 1395.079)" fill="#12263f" font-size="20" font-family="Roboto-Black, Roboto" font-weight="800"><tspan x="-6.304" y="21">T</tspan></text><text transform="translate(-5116 1604.534)" fill="#12263f" font-size="20" font-family="Roboto-Black, Roboto" font-weight="800"><tspan x="-6.304" y="21">T</tspan></text><text transform="translate(-4698.102 1496.299)" fill="#12263f" font-size="20" font-family="Roboto-Black, Roboto" font-weight="800"><tspan x="-6.099" y="21">Z</tspan></text><text transform="translate(-4614 1496.299)" fill="#12263f" font-size="20" font-family="Roboto-Black, Roboto" font-weight="800"><tspan x="-6.099" y="21">Z</tspan></text><g transform="translate(-22.333 11.299)"><path d="M-4955.333,1403.333v130L-4844.667,1596" fill="none" stroke="#707070" stroke-width="3"/><path d="M-4955.333,1532l-113.333,64.667" fill="none" stroke="#707070" stroke-width="3"/><g transform="translate(-4967.451 1448.313)" fill="#fff" stroke="#707070" stroke-width="3"><rect width="24.235" height="39.706" rx="2" stroke="none"/><rect x="1.5" y="1.5" width="21.235" height="36.706" rx="0.5" fill="none"/></g><g transform="matrix(0.53, -0.848, 0.848, 0.53, -4922.728, 1563.241)" fill="#fff" stroke="#707070" stroke-width="3"><rect width="22.235" height="39.706" rx="2" stroke="none"/><rect x="1.5" y="1.5" width="19.235" height="36.706" rx="0.5" fill="none"/></g><g transform="matrix(-0.53, -0.848, 0.848, -0.53, -5022.945, 1584.282)" fill="#fff" stroke="#707070" stroke-width="3"><rect width="22.236" height="39.706" rx="2" stroke="none"/><rect x="1.5" y="1.5" width="19.236" height="36.706" rx="0.5" fill="none"/></g></g><g transform="translate(-22.333 11.299)"><path d="M-4786.667,1408v173.333h177.333V1408" fill="none" stroke="#707070" stroke-width="3"/><path d="M-4698,1408v173.333" fill="none" stroke="#707070" stroke-width="3"/><g transform="translate(-4798.784 1459.313)" fill="#fff" stroke="#707070" stroke-width="3"><rect width="24.235" height="70.706" rx="2" stroke="none"/><rect x="1.5" y="1.5" width="21.235" height="67.706" rx="0.5" fill="none"/></g><g transform="translate(-4710.118 1459.313)" fill="#fff" stroke="#707070" stroke-width="3"><rect width="24.235" height="70.706" rx="2" stroke="none"/><rect x="1.5" y="1.5" width="21.235" height="67.706" rx="0.5" fill="none"/></g><g transform="translate(-4621.451 1459.313)" fill="#fff" stroke="#707070" stroke-width="3"><rect width="24.235" height="70.706" rx="2" stroke="none"/><rect x="1.5" y="1.5" width="21.235" height="67.706" rx="0.5" fill="none"/></g></g><circle cx="5.059" cy="5.059" r="5.059" transform="translate(-4984.059 1539.17)" fill="#707070"/><circle cx="5.059" cy="5.059" r="5.059" transform="translate(-4725.392 1587.574)" fill="#707070"/></g><g transform="translate(-3190 -6039)"><circle cx="14.5" cy="14.5" r="14.5" transform="translate(464 3637)" fill="#ad84ff"/><text transform="translate(471 3638)" fill="#12263f" font-size="20" font-family="Roboto-Black, Roboto" font-weight="800"><tspan x="-8.33" y="21">a.</tspan></text></g><g transform="translate(-2849 -6039)"><circle cx="14.5" cy="14.5" r="14.5" transform="translate(464 3637)" fill="#ad84ff"/><text transform="translate(469 3638)" fill="#12263f" font-size="20" font-family="Roboto-Black, Roboto" font-weight="800"><tspan x="-8.652" y="21">b.</tspan></text></g></g></svg>