<svg xmlns="http://www.w3.org/2000/svg" width="141.667" height="140.569" viewBox="0 0 141.667 140.569">
  <g id="circuito-electrico_1_" data-name="circuito-electrico (1)" transform="translate(0 -1.984)">
    <g id="Grupo_54949" data-name="Grupo 54949" transform="translate(50.295 4.751)">
      <path id="Trazado_105806" data-name="Trazado 105806" d="M222.844,38.285a25.058,25.058,0,0,1-7.339,17.72l-.215.215H189.276v-.215a25.71,25.71,0,0,1-5.649-8.13,25.492,25.492,0,0,1,2.1-23.18L189.4,19a15.334,15.334,0,0,1,25.766,0L218.84,24.7a25.154,25.154,0,0,1,4,13.589Z" transform="translate(-181.77 -11.983)" fill="#ffe926"/>
    </g>
    <g id="Grupo_54950" data-name="Grupo 54950" transform="translate(57.824 48.988)">
      <path id="Trazado_105807" data-name="Trazado 105807" d="M208.983,171.86V180.9a10.581,10.581,0,0,0,10.581,10.581h4.853A10.581,10.581,0,0,0,235,180.9V171.86Z" transform="translate(-208.983 -171.86)" fill="#bdd3dd"/>
    </g>
    <g id="Grupo_54951" data-name="Grupo 54951" transform="translate(26.75 91.227)">
      <path id="Trazado_105808" data-name="Trazado 105808" d="M96.678,330.852a6.336,6.336,0,0,0,6.335,6.336h75.555a6.335,6.335,0,1,0,0-12.671H103.013A6.335,6.335,0,0,0,96.678,330.852Z" transform="translate(-96.678 -324.517)" fill="#bdd3dd"/>
    </g>
    <g id="Grupo_54952" data-name="Grupo 54952" transform="translate(42.163 80.847)">
      <path id="Trazado_105809" data-name="Trazado 105809" d="M168.042,297.381H152.38v-6.235A4.144,4.144,0,0,1,156.525,287H163.9a4.145,4.145,0,0,1,4.145,4.145v6.235Z" transform="translate(-152.38 -287.001)" fill="#eaf0f0"/>
    </g>
    <g id="Grupo_54953" data-name="Grupo 54953" transform="translate(85.361 80.847)">
      <path id="Trazado_105810" data-name="Trazado 105810" d="M324.167,297.381H308.505v-6.235A4.144,4.144,0,0,1,312.65,287h7.373a4.145,4.145,0,0,1,4.145,4.145v6.235Z" transform="translate(-308.505 -287.001)" fill="#eaf0f0"/>
    </g>
    <g id="Grupo_54954" data-name="Grupo 54954" transform="translate(33.149 103.898)">
      <path id="Trazado_105811" data-name="Trazado 105811" d="M157.486,370.31V406.2H125.229a5.426,5.426,0,0,1-5.426-5.426V370.31Z" transform="translate(-119.803 -370.31)" fill="#ff5c7f"/>
    </g>
    <g id="Grupo_54955" data-name="Grupo 54955" transform="translate(70.831 103.898)">
      <path id="Trazado_105812" data-name="Trazado 105812" d="M293.675,370.31v30.463a5.426,5.426,0,0,1-5.426,5.426H255.992V370.31Z" transform="translate(-255.992 -370.31)" fill="#00d5f5"/>
    </g>
    <g id="Grupo_54956" data-name="Grupo 54956" transform="translate(0 1.984)">
      <path id="Trazado_105813" data-name="Trazado 105813" d="M127.59,65.839H84.069a13.272,13.272,0,0,0,2.536-7.814V50.088A27.829,27.829,0,0,0,89.69,15.963l-3.676-5.7a18.1,18.1,0,0,0-30.416,0l-3.673,5.694A28.2,28.2,0,0,0,49.6,41.7a27.482,27.482,0,0,0,5.462,8.213v8.11a13.272,13.272,0,0,0,2.536,7.814H43.132a2.767,2.767,0,1,0,0,5.534H127.59a8.543,8.543,0,0,1,0,17.087h-23.8V84.991a6.92,6.92,0,0,0-6.912-6.912H89.506a6.919,6.919,0,0,0-6.912,6.912v3.468h-22V84.991A6.919,6.919,0,0,0,53.68,78.08H46.307A6.919,6.919,0,0,0,39.4,84.991v3.468H14.077a8.543,8.543,0,0,1,0-17.087H18.79a2.767,2.767,0,0,0,0-5.534H14.077a14.077,14.077,0,0,0,0,28.154H24.713a9.1,9.1,0,0,0,5.669,12.261v28.106a8.2,8.2,0,0,0,8.193,8.193h64.513a8.2,8.2,0,0,0,8.193-8.193V106.273a9.1,9.1,0,0,0,5.733-12.279H127.59a14.077,14.077,0,0,0,0-28.154ZM56.575,18.963l3.673-5.694a12.567,12.567,0,0,1,21.117,0l3.676,5.7A22.534,22.534,0,0,1,88.6,31.053a22.135,22.135,0,0,1-5.954,15.168H73.6V38.2A11.849,11.849,0,0,0,81.237,32.5a2.767,2.767,0,1,0-4.8-2.754,6.464,6.464,0,0,1-11.212,0,2.767,2.767,0,1,0-4.8,2.754A11.852,11.852,0,0,0,68.064,38.2v8.019H59.178a22.432,22.432,0,0,1-4.471-6.637,22.588,22.588,0,0,1,1.867-20.621Zm11.83,46.876a7.823,7.823,0,0,1-7.814-7.814V51.755h20.48v6.27a7.822,7.822,0,0,1-7.814,7.814H68.405ZM88.128,84.991a1.379,1.379,0,0,1,1.378-1.378h7.373a1.379,1.379,0,0,1,1.378,1.378v3.468H88.128Zm-43.2,0a1.379,1.379,0,0,1,1.378-1.378H53.68a1.379,1.379,0,0,1,1.378,1.378v3.468H44.93Zm-9.014,49.37v-27.7H68.064V137.02H38.575A2.662,2.662,0,0,1,35.916,134.361Zm69.831,0a2.662,2.662,0,0,1-2.659,2.659H73.6V106.665h32.149Zm6.462-36.8a3.573,3.573,0,0,1-3.569,3.569H33.086a3.569,3.569,0,0,1,0-7.137h75.555A3.573,3.573,0,0,1,112.209,97.562Z" transform="translate(0 -1.984)"/>
      <path id="Trazado_105814" data-name="Trazado 105814" d="M170.73,409.415h-3.388v-3.388a2.767,2.767,0,0,0-5.534,0v3.388h-3.388a2.767,2.767,0,1,0,0,5.534h3.388v3.387a2.767,2.767,0,0,0,5.534,0v-3.387h3.388a2.767,2.767,0,0,0,0-5.534Z" transform="translate(-112.585 -292.23)"/>
      <path id="Trazado_105815" data-name="Trazado 105815" d="M297.272,431.038h12.309a2.767,2.767,0,0,0,0-5.534H297.272a2.767,2.767,0,0,0,0,5.534Z" transform="translate(-213.017 -308.319)"/>
      <path id="Trazado_105816" data-name="Trazado 105816" d="M103.206,236.607a2.766,2.766,0,1,0,1.5-3.614,2.793,2.793,0,0,0-1.5,3.614Z" transform="translate(-74.502 -168.926)"/>
    </g>
  </g>
</svg>
