<svg xmlns="http://www.w3.org/2000/svg" xmlns:xlink="http://www.w3.org/1999/xlink" width="497" height="232.52" viewBox="0 0 497 232.52">
  <defs>
    <linearGradient id="linear-gradient" x1="0.5" x2="0.5" y2="1" gradientUnits="objectBoundingBox">
      <stop offset="0" stop-color="#8e8e8e"/>
      <stop offset="0.498" stop-color="#f1f1f1"/>
      <stop offset="1" stop-color="#919090"/>
    </linearGradient>
    <linearGradient id="linear-gradient-4" x1="-1.002" y1="1.574" x2="-0.967" y2="1.541" gradientUnits="objectBoundingBox">
      <stop offset="0" stop-opacity="0.102"/>
      <stop offset="1" stop-opacity="0"/>
    </linearGradient>
    <linearGradient id="linear-gradient-5" x1="-0.287" y1="1.25" x2="-0.227" y2="1.229" gradientUnits="objectBoundingBox">
      <stop offset="0" stop-color="#fff" stop-opacity="0.2"/>
      <stop offset="1" stop-color="#fff" stop-opacity="0"/>
    </linearGradient>
  </defs>
  <g id="Grupo_55663" data-name="Grupo 55663" transform="translate(9928.5 7102.01)">
    <path id="Trazado_107333" data-name="Trazado 107333" d="M5.883,12.6a2.781,2.781,0,0,1-1.906.766A3.078,3.078,0,0,1,1.523,12.32a4.124,4.124,0,0,1-.906-2.8,4.2,4.2,0,0,1,.508-2.031A3.81,3.81,0,0,1,2.551,6.008a3.887,3.887,0,0,1,2.027-.547,3.774,3.774,0,0,1,2.035.566,3.814,3.814,0,0,1,1.418,1.6,5.5,5.5,0,0,1,.523,2.387v1.008a6.838,6.838,0,0,1-.738,3.266,5.1,5.1,0,0,1-2.105,2.125,6.579,6.579,0,0,1-3.187.742H2.359V15.047l.5-.008Q5.578,14.906,5.883,12.6Zm-1.2-1.133a1.282,1.282,0,0,0,1.234-.742V9.633a2.844,2.844,0,0,0-.367-1.617,1.152,1.152,0,0,0-.992-.523,1.088,1.088,0,0,0-.93.594,2.638,2.638,0,0,0-.375,1.438,2.365,2.365,0,0,0,.383,1.418A1.224,1.224,0,0,0,4.688,11.469Zm9.852,2.438L16.8,5.625h3.063L16.039,17h-3L9.242,5.625h3.039Z" transform="translate(-9886.603 -6987.638)" fill="#12263f"/>
    <path id="Trazado_105709" data-name="Trazado 105709" d="M328.951,146.641v-.118a5.118,5.118,0,0,0-.66-2.515l-.261-.135-1.456-.337-.155-1.393.849-.7V138.27l-.817-.626V136.37l.817-.663v-5.564l-.451-.389v-1.808l.451-.367v-2.826l-.464-.4-.351-.683.456-.987,1.172-.493a5.112,5.112,0,0,0,.864-2.632l-.736-.542.1-1.457.62-.564a5.114,5.114,0,0,0-2.956-4.183l-3.117-1.435V108.56a.817.817,0,0,0-.817-.817H318.22a.815.815,0,0,0-.815.817v2.818l-2.156.992-.6,5.261,1.98,7.124L314.567,141.8l.652,11.671,2.185,1.006V157.3a.815.815,0,0,0,.815.817h3.821a.817.817,0,0,0,.817-.817V154.48l3.117-1.435a5.115,5.115,0,0,0,2.911-3.841l-.244-.2-.345-.409.079-1.257Z" transform="translate(-9883.378 -7104.753)" fill="#f4cd8a"/>
    <path id="Trazado_105710" data-name="Trazado 105710" d="M302.471,148.951v-1.936a5.323,5.323,0,0,1,1.364-3.565l.141-.155a.833.833,0,0,0,.213-.554V123.208a.832.832,0,0,0-.213-.554l-.141-.155a5.323,5.323,0,0,1-1.364-3.565V117a5.289,5.289,0,0,1,3.035-4.8l1.653-.771-.1-.048v-2.818a.817.817,0,0,0-.817-.817h-3.821a.815.815,0,0,0-.815.817v2.818l-3.118,1.435A5.115,5.115,0,0,0,295.529,117l.438.2-.027,1.78-.427.58a5.116,5.116,0,0,0,.867,2.633l1.411.445c.021.007.4,1.456.4,1.456l-.7.483-.294.18v2.826l.325.384s-.036,1.825,0,1.789-.325.39-.325.39v5.564l.36.335v1.987l-.36.241v3.175l.667.364s-.084,1.739-.092,1.716-1.3.328-1.3.328l-.3.155a5.118,5.118,0,0,0-.66,2.515v.118s.529.474.511.463,0,1.718,0,1.718l-.446.383a5.114,5.114,0,0,0,2.911,3.841l3.118,1.435V157.3a.815.815,0,0,0,.815.817h3.821a.817.817,0,0,0,.817-.817v-2.818l.009,0-1.557-.726A5.288,5.288,0,0,1,302.471,148.951Z" transform="translate(-9867.575 -7104.753)" fill="#eeb865"/>
    <rect id="Rectángulo_5229" data-name="Rectángulo 5229" width="5" height="18" rx="2.5" transform="translate(-9554.35 -6986.375) rotate(90)" fill="#ffa200"/>
    <rect id="Rectángulo_5230" data-name="Rectángulo 5230" width="5" height="14" rx="1" transform="translate(-9556.35 -6980.375) rotate(90)" fill="#fff"/>
    <rect id="Rectángulo_5231" data-name="Rectángulo 5231" width="5" height="14" rx="1" transform="translate(-9556.35 -6967.375) rotate(90)" fill="#b4100a"/>
    <rect id="Rectángulo_5232" data-name="Rectángulo 5232" width="5" height="18" rx="2.5" transform="translate(-9554.35 -6961.375) rotate(90)" fill="url(#linear-gradient)"/>
    <path id="Trazado_105714" data-name="Trazado 105714" d="M305.479,42.28A1.281,1.281,0,0,0,306.761,41V34.462l.01-.011a6.385,6.385,0,0,0,1.674-4.315V28.261a6.418,6.418,0,0,0-3.722-5.812l-2.372-1.092v-2a2.1,2.1,0,0,0-2.1-2.1h-.629V1.282a1.282,1.282,0,0,0-2.563,0V17.263h-.629a2.1,2.1,0,0,0-2.1,2.1v2l-2.372,1.092a6.418,6.418,0,0,0-3.723,5.812v1.874a6.385,6.385,0,0,0,1.674,4.315l.01.011V53l-.01.011a6.385,6.385,0,0,0-1.674,4.315V59.2a6.418,6.418,0,0,0,3.722,5.812l2.372,1.092v2a2.1,2.1,0,0,0,2.1,2.1h.629V86.218a1.282,1.282,0,0,0,2.563,0V70.2h.629a2.1,2.1,0,0,0,2.1-2.1v-2l2.372-1.092a6.418,6.418,0,0,0,3.722-5.812V57.323a6.385,6.385,0,0,0-1.674-4.315l-.01-.011V46.46a1.282,1.282,0,1,0-2.563,0v.048h-11.71V40.944H304.2V41a1.281,1.281,0,0,0,1.281,1.281Zm-12.444-17.5,3.117-1.435a1.282,1.282,0,0,0,.745-1.164V19.826h2.89v2.352a1.281,1.281,0,0,0,.745,1.164l3.117,1.436a3.847,3.847,0,0,1,2.2,3.019h-4.818a1.282,1.282,0,0,0,0,2.563h4.838a3.822,3.822,0,0,1-.993,2.363l-.138.151c-.035.038-.067.078-.1.119h-12.6c-.032-.04-.064-.081-.1-.119l-.138-.15a3.825,3.825,0,0,1-.993-2.363h4.758a1.282,1.282,0,1,0,0-2.563h-4.737a3.848,3.848,0,0,1,2.2-3.019Zm11.9,30.032a3.824,3.824,0,0,1,.943,2.514v.118H290.8v-.118a3.824,3.824,0,0,1,.943-2.514Zm-1.288,7.873-3.117,1.435a1.282,1.282,0,0,0-.745,1.164v2.352H296.9V65.281a1.281,1.281,0,0,0-.745-1.164l-3.117-1.435A3.849,3.849,0,0,1,290.891,60h14.9A3.85,3.85,0,0,1,303.65,62.682Zm.548-13.611v3.175h-11.71V49.071Zm-11.71-10.69V35.555H304.2v2.826Z" transform="translate(-9861.59 -7015.42)"/>
    <path id="Trazado_107332" data-name="Trazado 107332" d="M6.531,17H3.891V8.594L1.3,9.352v-2L6.289,5.625h.242Zm12.461-2.172a2.282,2.282,0,0,0,.773-1.367,10.8,10.8,0,0,0,.266-2.641V10.2a3.9,3.9,0,0,0-.379-1.934,1.2,1.2,0,0,0-2.125,0,3.9,3.9,0,0,0-.379,1.934v.6a10.8,10.8,0,0,0,.266,2.664,2.208,2.208,0,0,0,.828,1.367V17H14.188V14.859h1.727a5.591,5.591,0,0,1-1.387-1.809,5.09,5.09,0,0,1-.512-2.207v-.633a5.115,5.115,0,0,1,.578-2.449,4.171,4.171,0,0,1,1.621-1.684,4.97,4.97,0,0,1,4.719-.012,4.19,4.19,0,0,1,1.633,1.66,5.027,5.027,0,0,1,.605,2.406V10.8a5.205,5.205,0,0,1-.789,2.766,5.6,5.6,0,0,1-1.1,1.3h1.711V17h-4Z" transform="translate(-9818.5 -6961.17)" fill="#12263f"/>
    <path id="Trazado_107331" data-name="Trazado 107331" d="M8.633,17H.7V15.281l3.656-3.844A4.364,4.364,0,0,0,5.7,8.992a1.7,1.7,0,0,0-.32-1.117,1.144,1.144,0,0,0-.93-.383A1.158,1.158,0,0,0,3.477,8,2.1,2.1,0,0,0,3.1,9.281H.461A3.736,3.736,0,0,1,.984,7.348,3.671,3.671,0,0,1,2.438,5.961a4.317,4.317,0,0,1,2.078-.5,4.246,4.246,0,0,1,2.84.852,3.04,3.04,0,0,1,1,2.445,3.551,3.551,0,0,1-.25,1.309A5.739,5.739,0,0,1,7.324,11.4a19.581,19.581,0,0,1-1.7,1.871l-1.469,1.7H8.633Zm10.359-2.172a2.282,2.282,0,0,0,.773-1.367,10.8,10.8,0,0,0,.266-2.641V10.2a3.9,3.9,0,0,0-.379-1.934,1.2,1.2,0,0,0-2.125,0,3.9,3.9,0,0,0-.379,1.934v.6a10.8,10.8,0,0,0,.266,2.664,2.208,2.208,0,0,0,.828,1.367V17H14.188V14.859h1.727a5.591,5.591,0,0,1-1.387-1.809,5.09,5.09,0,0,1-.512-2.207v-.633a5.115,5.115,0,0,1,.578-2.449,4.171,4.171,0,0,1,1.621-1.684,4.97,4.97,0,0,1,4.719-.012,4.19,4.19,0,0,1,1.633,1.66,5.027,5.027,0,0,1,.605,2.406V10.8a5.205,5.205,0,0,1-.789,2.766,5.6,5.6,0,0,1-1.1,1.3h1.711V17h-4Z" transform="translate(-9737.525 -6961.17)" fill="#12263f"/>
    <path id="Trazado_107330" data-name="Trazado 107330" d="M3.1,10.211H4.344A1.291,1.291,0,0,0,5.82,8.766a1.25,1.25,0,0,0-.352-.918,1.333,1.333,0,0,0-.992-.355,1.427,1.427,0,0,0-.91.3.93.93,0,0,0-.387.758H.547a2.7,2.7,0,0,1,.5-1.6,3.3,3.3,0,0,1,1.387-1.1,4.741,4.741,0,0,1,1.949-.395,4.658,4.658,0,0,1,2.984.867A2.883,2.883,0,0,1,8.453,8.711,2.4,2.4,0,0,1,8,10.1,3.2,3.2,0,0,1,6.7,11.156a3.058,3.058,0,0,1,1.422,1A2.623,2.623,0,0,1,8.633,13.8a2.935,2.935,0,0,1-1.172,2.438,4.864,4.864,0,0,1-3.078.914,5.045,5.045,0,0,1-2.074-.426,3.25,3.25,0,0,1-1.449-1.18,3.067,3.067,0,0,1-.492-1.715H3.016a1.185,1.185,0,0,0,.422.906,1.489,1.489,0,0,0,1.039.383,1.56,1.56,0,0,0,1.109-.387A1.293,1.293,0,0,0,6,13.75a1.511,1.511,0,0,0-.43-1.219,1.8,1.8,0,0,0-1.187-.359H3.1Zm15.891,4.617a2.282,2.282,0,0,0,.773-1.367,10.8,10.8,0,0,0,.266-2.641V10.2a3.9,3.9,0,0,0-.379-1.934,1.2,1.2,0,0,0-2.125,0,3.9,3.9,0,0,0-.379,1.934v.6a10.8,10.8,0,0,0,.266,2.664,2.208,2.208,0,0,0,.828,1.367V17H14.188V14.859h1.727a5.591,5.591,0,0,1-1.387-1.809,5.09,5.09,0,0,1-.512-2.207v-.633a5.115,5.115,0,0,1,.578-2.449,4.171,4.171,0,0,1,1.621-1.684,4.97,4.97,0,0,1,4.719-.012,4.19,4.19,0,0,1,1.633,1.66,5.027,5.027,0,0,1,.605,2.406V10.8a5.205,5.205,0,0,1-.789,2.766,5.6,5.6,0,0,1-1.1,1.3h1.711V17h-4Z" transform="translate(-9602.5 -6980.17)" fill="#12263f"/>
    <path id="Trazado_105709-2" data-name="Trazado 105709" d="M328.951,146.641v-.118a5.118,5.118,0,0,0-.66-2.515l-.261-.135-1.456-.337-.155-1.393.849-.7V138.27l-.817-.626V136.37l.817-.663v-5.564l-.451-.389v-1.808l.451-.367v-2.826l-.464-.4-.351-.683.456-.987,1.172-.493a5.112,5.112,0,0,0,.864-2.632l-.736-.542.1-1.457.62-.564a5.114,5.114,0,0,0-2.956-4.183l-3.117-1.435V108.56a.817.817,0,0,0-.817-.817H318.22a.815.815,0,0,0-.815.817v2.818l-2.156.992-.6,5.261,1.98,7.124L314.567,141.8l.652,11.671,2.185,1.006V157.3a.815.815,0,0,0,.815.817h3.821a.817.817,0,0,0,.817-.817V154.48l3.117-1.435a5.115,5.115,0,0,0,2.911-3.841l-.244-.2-.345-.409.079-1.257Z" transform="translate(-10016.631 -7084.753)" fill="#f4cd8a"/>
    <path id="Trazado_105710-2" data-name="Trazado 105710" d="M302.471,148.951v-1.936a5.323,5.323,0,0,1,1.364-3.565l.141-.155a.833.833,0,0,0,.213-.554V123.208a.832.832,0,0,0-.213-.554l-.141-.155a5.323,5.323,0,0,1-1.364-3.565V117a5.289,5.289,0,0,1,3.035-4.8l1.653-.771-.1-.048v-2.818a.817.817,0,0,0-.817-.817h-3.821a.815.815,0,0,0-.815.817v2.818l-3.118,1.435A5.115,5.115,0,0,0,295.529,117l.438.2-.027,1.78-.427.58a5.116,5.116,0,0,0,.867,2.633l1.411.445c.021.007.4,1.456.4,1.456l-.7.483-.294.18v2.826l.325.384s-.036,1.825,0,1.789-.325.39-.325.39v5.564l.36.335v1.987l-.36.241v3.175l.667.364s-.084,1.739-.092,1.716-1.3.328-1.3.328l-.3.155a5.118,5.118,0,0,0-.66,2.515v.118s.529.474.511.463,0,1.718,0,1.718l-.446.383a5.114,5.114,0,0,0,2.911,3.841l3.118,1.435V157.3a.815.815,0,0,0,.815.817h3.821a.817.817,0,0,0,.817-.817v-2.818l.009,0-1.557-.726A5.288,5.288,0,0,1,302.471,148.951Z" transform="translate(-10000.828 -7084.753)" fill="#eeb865"/>
    <rect id="Rectángulo_5229-2" data-name="Rectángulo 5229" width="5" height="18" rx="2.5" transform="translate(-9687.603 -6966.375) rotate(90)" fill="#ffa200"/>
    <rect id="Rectángulo_5230-2" data-name="Rectángulo 5230" width="5" height="14" rx="1" transform="translate(-9689.603 -6960.375) rotate(90)" fill="#fff"/>
    <rect id="Rectángulo_5231-2" data-name="Rectángulo 5231" width="5" height="14" rx="1" transform="translate(-9689.603 -6947.375) rotate(90)" fill="#fcb89d"/>
    <rect id="Rectángulo_5232-2" data-name="Rectángulo 5232" width="5" height="18" rx="2.5" transform="translate(-9687.603 -6941.375) rotate(90)" fill="url(#linear-gradient)"/>
    <path id="Trazado_105714-2" data-name="Trazado 105714" d="M305.479,42.28A1.281,1.281,0,0,0,306.761,41V34.462l.01-.011a6.385,6.385,0,0,0,1.674-4.315V28.261a6.418,6.418,0,0,0-3.722-5.812l-2.372-1.092v-2a2.1,2.1,0,0,0-2.1-2.1h-.629V1.282a1.282,1.282,0,0,0-2.563,0V17.263h-.629a2.1,2.1,0,0,0-2.1,2.1v2l-2.372,1.092a6.418,6.418,0,0,0-3.723,5.812v1.874a6.385,6.385,0,0,0,1.674,4.315l.01.011V53l-.01.011a6.385,6.385,0,0,0-1.674,4.315V59.2a6.418,6.418,0,0,0,3.722,5.812l2.372,1.092v2a2.1,2.1,0,0,0,2.1,2.1h.629V86.218a1.282,1.282,0,0,0,2.563,0V70.2h.629a2.1,2.1,0,0,0,2.1-2.1v-2l2.372-1.092a6.418,6.418,0,0,0,3.722-5.812V57.323a6.385,6.385,0,0,0-1.674-4.315l-.01-.011V46.46a1.282,1.282,0,1,0-2.563,0v.048h-11.71V40.944H304.2V41a1.281,1.281,0,0,0,1.281,1.281Zm-12.444-17.5,3.117-1.435a1.282,1.282,0,0,0,.745-1.164V19.826h2.89v2.352a1.281,1.281,0,0,0,.745,1.164l3.117,1.436a3.847,3.847,0,0,1,2.2,3.019h-4.818a1.282,1.282,0,0,0,0,2.563h4.838a3.822,3.822,0,0,1-.993,2.363l-.138.151c-.035.038-.067.078-.1.119h-12.6c-.032-.04-.064-.081-.1-.119l-.138-.15a3.825,3.825,0,0,1-.993-2.363h4.758a1.282,1.282,0,1,0,0-2.563h-4.737a3.848,3.848,0,0,1,2.2-3.019Zm11.9,30.032a3.824,3.824,0,0,1,.943,2.514v.118H290.8v-.118a3.824,3.824,0,0,1,.943-2.514Zm-1.288,7.873-3.117,1.435a1.282,1.282,0,0,0-.745,1.164v2.352H296.9V65.281a1.281,1.281,0,0,0-.745-1.164l-3.117-1.435A3.849,3.849,0,0,1,290.891,60h14.9A3.85,3.85,0,0,1,303.65,62.682Zm.548-13.611v3.175h-11.71V49.071Zm-11.71-10.69V35.555H304.2v2.826Z" transform="translate(-9994.843 -6995.42)"/>
    <path id="Trazado_105709-3" data-name="Trazado 105709" d="M328.951,146.641v-.118a5.118,5.118,0,0,0-.66-2.515l-.261-.135-1.456-.337-.155-1.393.849-.7V138.27l-.817-.626V136.37l.817-.663v-5.564l-.451-.389v-1.808l.451-.367v-2.826l-.464-.4-.351-.683.456-.987,1.172-.493a5.112,5.112,0,0,0,.864-2.632l-.736-.542.1-1.457.62-.564a5.114,5.114,0,0,0-2.956-4.183l-3.117-1.435V108.56a.817.817,0,0,0-.817-.817H318.22a.815.815,0,0,0-.815.817v2.818l-2.156.992-.6,5.261,1.98,7.124L314.567,141.8l.652,11.671,2.185,1.006V157.3a.815.815,0,0,0,.815.817h3.821a.817.817,0,0,0,.817-.817V154.48l3.117-1.435a5.115,5.115,0,0,0,2.911-3.841l-.244-.2-.345-.409.079-1.257Z" transform="translate(-10097.732 -7084.753)" fill="#f4cd8a"/>
    <path id="Trazado_105710-3" data-name="Trazado 105710" d="M302.471,148.951v-1.936a5.323,5.323,0,0,1,1.364-3.565l.141-.155a.833.833,0,0,0,.213-.554V123.208a.832.832,0,0,0-.213-.554l-.141-.155a5.323,5.323,0,0,1-1.364-3.565V117a5.289,5.289,0,0,1,3.035-4.8l1.653-.771-.1-.048v-2.818a.817.817,0,0,0-.817-.817h-3.821a.815.815,0,0,0-.815.817v2.818l-3.118,1.435A5.115,5.115,0,0,0,295.529,117l.438.2-.027,1.78-.427.58a5.116,5.116,0,0,0,.867,2.633l1.411.445c.021.007.4,1.456.4,1.456l-.7.483-.294.18v2.826l.325.384s-.036,1.825,0,1.789-.325.39-.325.39v5.564l.36.335v1.987l-.36.241v3.175l.667.364s-.084,1.739-.092,1.716-1.3.328-1.3.328l-.3.155a5.118,5.118,0,0,0-.66,2.515v.118s.529.474.511.463,0,1.718,0,1.718l-.446.383a5.114,5.114,0,0,0,2.911,3.841l3.118,1.435V157.3a.815.815,0,0,0,.815.817h3.821a.817.817,0,0,0,.817-.817v-2.818l.009,0-1.557-.726A5.288,5.288,0,0,1,302.471,148.951Z" transform="translate(-10081.93 -7084.753)" fill="#eeb865"/>
    <rect id="Rectángulo_5229-3" data-name="Rectángulo 5229" width="5" height="18" rx="2.5" transform="translate(-9768.705 -6966.375) rotate(90)" fill="#ffa200"/>
    <rect id="Rectángulo_5230-3" data-name="Rectángulo 5230" width="5" height="14" rx="1" transform="translate(-9770.705 -6960.375) rotate(90)" fill="#fff"/>
    <rect id="Rectángulo_5231-3" data-name="Rectángulo 5231" width="5" height="14" rx="1" transform="translate(-9770.705 -6947.375) rotate(90)" fill="#fcb89d"/>
    <rect id="Rectángulo_5232-3" data-name="Rectángulo 5232" width="5" height="18" rx="2.5" transform="translate(-9768.705 -6941.375) rotate(90)" fill="url(#linear-gradient)"/>
    <path id="Trazado_105714-3" data-name="Trazado 105714" d="M305.479,42.28A1.281,1.281,0,0,0,306.761,41V34.462l.01-.011a6.385,6.385,0,0,0,1.674-4.315V28.261a6.418,6.418,0,0,0-3.722-5.812l-2.372-1.092v-2a2.1,2.1,0,0,0-2.1-2.1h-.629V1.282a1.282,1.282,0,0,0-2.563,0V17.263h-.629a2.1,2.1,0,0,0-2.1,2.1v2l-2.372,1.092a6.418,6.418,0,0,0-3.723,5.812v1.874a6.385,6.385,0,0,0,1.674,4.315l.01.011V53l-.01.011a6.385,6.385,0,0,0-1.674,4.315V59.2a6.418,6.418,0,0,0,3.722,5.812l2.372,1.092v2a2.1,2.1,0,0,0,2.1,2.1h.629V86.218a1.282,1.282,0,0,0,2.563,0V70.2h.629a2.1,2.1,0,0,0,2.1-2.1v-2l2.372-1.092a6.418,6.418,0,0,0,3.722-5.812V57.323a6.385,6.385,0,0,0-1.674-4.315l-.01-.011V46.46a1.282,1.282,0,1,0-2.563,0v.048h-11.71V40.944H304.2V41a1.281,1.281,0,0,0,1.281,1.281Zm-12.444-17.5,3.117-1.435a1.282,1.282,0,0,0,.745-1.164V19.826h2.89v2.352a1.281,1.281,0,0,0,.745,1.164l3.117,1.436a3.847,3.847,0,0,1,2.2,3.019h-4.818a1.282,1.282,0,0,0,0,2.563h4.838a3.822,3.822,0,0,1-.993,2.363l-.138.151c-.035.038-.067.078-.1.119h-12.6c-.032-.04-.064-.081-.1-.119l-.138-.15a3.825,3.825,0,0,1-.993-2.363h4.758a1.282,1.282,0,1,0,0-2.563h-4.737a3.848,3.848,0,0,1,2.2-3.019Zm11.9,30.032a3.824,3.824,0,0,1,.943,2.514v.118H290.8v-.118a3.824,3.824,0,0,1,.943-2.514Zm-1.288,7.873-3.117,1.435a1.282,1.282,0,0,0-.745,1.164v2.352H296.9V65.281a1.281,1.281,0,0,0-.745-1.164l-3.117-1.435A3.849,3.849,0,0,1,290.891,60h14.9A3.85,3.85,0,0,1,303.65,62.682Zm.548-13.611v3.175h-11.71V49.071Zm-11.71-10.69V35.555H304.2v2.826Z" transform="translate(-10075.945 -6995.42)"/>
    <path id="Trazado_105787" data-name="Trazado 105787" d="M-9694.5-6666H-9788v-43h-311v132h51v53h442v-137h-67v46h-21.5Z" transform="translate(172.5 -361.638)" fill="none" stroke="#3c4fa1" stroke-linecap="round" stroke-linejoin="round" stroke-width="4"/>
    <path id="Trazado_105788" data-name="Trazado 105788" d="M-9950.1-6709v75.218" transform="translate(172.5 -361.638)" fill="none" stroke="#3c4fa1" stroke-linecap="round" stroke-width="4"/>
    <path id="Trazado_105789" data-name="Trazado 105789" d="M-9950.1-6709v75.218" transform="translate(253.602 -361.638)" fill="none" stroke="#3c4fa1" stroke-linecap="round" stroke-width="4"/>
    <path id="Trazado_105792" data-name="Trazado 105792" d="M-9950.1-6709v16.5" transform="translate(386.854 -317.138)" fill="none" stroke="#3c4fa1" stroke-linecap="round" stroke-width="4"/>
    <path id="Trazado_105793" data-name="Trazado 105793" d="M-9950.1-6709v48" transform="translate(386.854 -224.638)" fill="none" stroke="#3c4fa1" stroke-linecap="round" stroke-width="4"/>
    <path id="Trazado_105791" data-name="Trazado 105791" d="M-9950.1-6709v22.282" transform="translate(172.5 -198.92)" fill="none" stroke="#3c4fa1" stroke-linecap="round" stroke-width="4"/>
    <path id="Trazado_105790" data-name="Trazado 105790" d="M-9950.1-6709v22.282" transform="translate(253.602 -198.92)" fill="none" stroke="#3c4fa1" stroke-linecap="round" stroke-width="4"/>
    <g id="Rectángulo_5235" data-name="Rectángulo 5235" transform="translate(-9647.5 -7034.638)" fill="#ffd500" stroke="#2a2a2a" stroke-width="3">
      <rect width="61" height="25" rx="12.5" stroke="none"/>
      <rect x="1.5" y="1.5" width="58" height="22" rx="11" fill="none"/>
    </g>
    <g id="Rectángulo_5251" data-name="Rectángulo 5251" transform="translate(-9726.5 -7034.638)" fill="#ffd500" stroke="#2a2a2a" stroke-width="3">
      <rect width="61" height="25" rx="12.5" stroke="none"/>
      <rect x="1.5" y="1.5" width="58" height="22" rx="11" fill="none"/>
    </g>
    <g id="Rectángulo_5252" data-name="Rectángulo 5252" transform="translate(-9808.5 -7034.638)" fill="#ffd500" stroke="#2a2a2a" stroke-width="3">
      <rect width="61" height="25" rx="12.5" stroke="none"/>
      <rect x="1.5" y="1.5" width="58" height="22" rx="11" fill="none"/>
    </g>
    <g id="Rectángulo_5236" data-name="Rectángulo 5236" transform="translate(-9541.5 -6989.638)" fill="#ffd500" stroke="#2a2a2a" stroke-width="3">
      <rect width="61" height="25" rx="12.5" stroke="none"/>
      <rect x="1.5" y="1.5" width="58" height="22" rx="11" fill="none"/>
    </g>
    <path id="Trazado_105746" data-name="Trazado 105746" d="M105.162,0H69.145A5.151,5.151,0,0,0,64,5.145V56.6a5.151,5.151,0,0,0,5.145,5.145h36.017a5.151,5.151,0,0,0,5.145-5.145V5.145A5.151,5.151,0,0,0,105.162,0Z" transform="translate(-9908.808 -7101.51)" fill="#303c42"/>
    <path id="Trazado_105747" data-name="Trazado 105747" d="M126.5,75.359a2.575,2.575,0,0,1-2.573,2.573H87.907a2.575,2.575,0,0,1-2.573-2.573V23.907a2.575,2.575,0,0,1,2.573-2.573h36.017a2.575,2.575,0,0,1,2.573,2.573Z" transform="translate(-9927.569 -7120.271)" fill="#f2f2f2"/>
    <path id="Trazado_105748" data-name="Trazado 105748" d="M207.436,141.941V129.286A1.286,1.286,0,0,0,206.15,128H193.286A1.286,1.286,0,0,0,192,129.286v25.726a1.286,1.286,0,0,0,1.286,1.286h11.577a1.29,1.29,0,0,0,1.03-.515l3.859-5.145a1.292,1.292,0,0,0,.191-1.178Z" transform="translate(-10021.372 -7214.074)" fill="#303c42"/>
    <path id="Trazado_105749" data-name="Trazado 105749" d="M231.487,261.145h-9L219.917,256h9.855Z" transform="translate(-10045.922 -7326.638)" fill="#e6e6e6"/>
    <path id="Trazado_105750" data-name="Trazado 105750" d="M213.333,294.065v-3.558l1.068,2.135Z" transform="translate(-10040.132 -7356.984)" fill="#f2f2f2"/>
    <path id="Trazado_105751" data-name="Trazado 105751" d="M213.333,294.065v-3.558l1.068,2.135Z" transform="translate(-10040.132 -7356.984)" fill="#fff" opacity="0.7"/>
    <rect id="Rectángulo_5233" data-name="Rectángulo 5233" width="10.291" height="10.291" transform="translate(-9826.799 -7083.501)" fill="#e6e6e6"/>
    <path id="Trazado_105752" data-name="Trazado 105752" d="M232.365,322.573h-8.36L225.934,320h8.36Z" transform="translate(-10049.517 -7382.92)" fill="#e6e6e6"/>
    <path id="Trazado_105753" data-name="Trazado 105753" d="M232.365,322.573h-8.36L225.934,320h8.36Z" transform="translate(-10049.518 -7382.92)" opacity="0.2"/>
    <circle id="Elipse_4071" data-name="Elipse 4071" cx="2.573" cy="2.573" r="2.573" transform="translate(-9824.227 -7096.364)" fill="#303c42"/>
    <path id="Trazado_105754" data-name="Trazado 105754" d="M211.169,243.6l2.507,7.519a1.292,1.292,0,0,1-.191,1.178l-3.859,5.145a1.29,1.29,0,0,1-1.03.515H197.019a1.26,1.26,0,0,1-.774-.285L211.966,273.4h9.493a2.575,2.575,0,0,0,2.573-2.573V256.467Z" transform="translate(-10025.104 -7315.737)" fill="url(#linear-gradient-4)"/>
    <circle id="Elipse_4072" data-name="Elipse 4072" cx="2.573" cy="2.573" r="2.573" transform="translate(-9824.227 -7050.057)" fill="#303c42"/>
    <path id="Trazado_105755" data-name="Trazado 105755" d="M105.162,0H69.145A5.151,5.151,0,0,0,64,5.145V56.6a5.151,5.151,0,0,0,5.145,5.145h36.017a5.151,5.151,0,0,0,5.145-5.145V5.145A5.151,5.151,0,0,0,105.162,0Z" transform="translate(-9908.808 -7101.51)" stroke="#000" stroke-width="1" fill="url(#linear-gradient-5)"/>
    <path id="Trazado_105683" data-name="Trazado 105683" d="M159.945,152.281h-42.37A5.575,5.575,0,0,1,112,146.706V77.575A5.575,5.575,0,0,1,117.575,72h42.37a5.575,5.575,0,0,1,5.575,5.575v69.131A5.575,5.575,0,0,1,159.945,152.281Z" transform="translate(-10015.482 -7023.258)" fill="#afafaf"/>
    <path id="Trazado_105684" data-name="Trazado 105684" d="M343.008,77.575v69.131a5.575,5.575,0,0,1-5.575,5.575H330a5.575,5.575,0,0,0,5.575-5.575V77.575A5.575,5.575,0,0,0,330,72h7.433A5.575,5.575,0,0,1,343.008,77.575Z" transform="translate(-10192.97 -7023.258)" fill="#8a8a8a"/>
    <path id="Trazado_105685" data-name="Trazado 105685" d="M0,0H32.707V38.653H0Z" transform="translate(-9857.396 -6911.117) rotate(90)" fill="#4a4a4a"/>
    <path id="Trazado_105744" data-name="Trazado 105744" d="M0,0H32.707V38.653H0Z" transform="translate(-9857.396 -6943.824) rotate(90)" fill="#f39e1d"/>
    <path id="Trazado_105686" data-name="Trazado 105686" d="M320,112h7.433v32.707H320Z" transform="translate(-10184.828 -7023.117)" fill="#3d3d3d"/>
    <path id="Trazado_105745" data-name="Trazado 105745" d="M320,112h7.433v32.707H320Z" transform="translate(-10184.828 -7055.824)" fill="#ea5c23"/>
    <path id="Trazado_105687" data-name="Trazado 105687" d="M205.734,19.893H176V11.717A3.717,3.717,0,0,1,179.717,8h22.3a3.717,3.717,0,0,1,3.717,3.717Z" transform="translate(-10067.589 -6971.151)" fill="#afafaf"/>
    <path id="Trazado_105688" data-name="Trazado 105688" d="M287.15,11.717v8.177h-7.433V11.717A3.716,3.716,0,0,0,276,8h7.433A3.716,3.716,0,0,1,287.15,11.717Z" transform="translate(-10149.005 -6971.151)" fill="#8a8a8a"/>
    <path id="Trazado_105690" data-name="Trazado 105690" d="M153.432,11.893H148.6V5.2A5.209,5.209,0,0,0,143.4,0H121.1a5.209,5.209,0,0,0-5.2,5.2v6.69h-4.832A7.07,7.07,0,0,0,104,18.955V88.086a7.07,7.07,0,0,0,7.062,7.062h42.37a7.07,7.07,0,0,0,7.062-7.062V18.955A7.07,7.07,0,0,0,153.432,11.893ZM118.867,5.2a2.233,2.233,0,0,1,2.23-2.23h22.3a2.233,2.233,0,0,1,2.23,2.23v6.69h-26.76ZM157.52,88.086a4.093,4.093,0,0,1-4.088,4.088h-42.37a4.093,4.093,0,0,1-4.088-4.088V18.955a4.093,4.093,0,0,1,4.088-4.088h42.37a4.093,4.093,0,0,1,4.088,4.088Z" transform="translate(-10008.969 -6964.638)"/>
    <path id="Trazado_105691" data-name="Trazado 105691" d="M184.14,104H145.487A1.487,1.487,0,0,0,144,105.487V170.9a1.487,1.487,0,0,0,1.487,1.487H184.14a1.487,1.487,0,0,0,1.487-1.487V105.487A1.487,1.487,0,0,0,184.14,104Zm-1.487,65.414h-35.68V106.973h35.68Z" transform="translate(-10041.535 -7049.311)"/>
    <path id="Trazado_107334" data-name="Trazado 107334" d="M6.514,12.934h3.33v2.822H6.514v3.818H3.438V15.756H.1V12.934h3.34V9.223H6.514Z" transform="translate(-9882.102 -6938.064)"/>
    <path id="Trazado_107335" data-name="Trazado 107335" d="M7.856,16.146H1.987V13.6H7.856Z" transform="translate(-9882.102 -6908.823)"/>
    <g id="Rectángulo_5253" data-name="Rectángulo 5253" transform="translate(-9918.5 -7082.638)" fill="#ffd500" stroke="#2a2a2a" stroke-width="3">
      <rect width="61" height="25" rx="12.5" stroke="none"/>
      <rect x="1.5" y="1.5" width="58" height="22" rx="11" fill="none"/>
    </g>
    <path id="Trazado_107326" data-name="Trazado 107326" d="M15.469,10.426a2.259,2.259,0,0,1-1.549.622,2.5,2.5,0,0,1-1.993-.851,3.351,3.351,0,0,1-.736-2.272,3.411,3.411,0,0,1,.413-1.65,3.1,3.1,0,0,1,1.158-1.206,3.158,3.158,0,0,1,1.647-.444,3.066,3.066,0,0,1,1.654.46,3.1,3.1,0,0,1,1.152,1.3,4.47,4.47,0,0,1,.425,1.939v.819a5.556,5.556,0,0,1-.6,2.653,4.141,4.141,0,0,1-1.711,1.727,5.345,5.345,0,0,1-2.59.6h-.133V12.413l.406-.006Q15.222,12.3,15.469,10.426Zm-.971-.92a1.041,1.041,0,0,0,1-.6V8.014A2.311,2.311,0,0,0,15.2,6.7a.936.936,0,0,0-.806-.425.884.884,0,0,0-.755.482,2.143,2.143,0,0,0-.3,1.168,1.922,1.922,0,0,0,.311,1.152A1,1,0,0,0,14.5,9.506Zm12.9,2.768H24.35L23.817,14h-2.38l3.39-9.242h2.095L30.336,14H27.943Zm-2.52-1.72H26.87l-1-3.206Z" transform="translate(-9798.5 -7029.42)" fill="#12263f"/>
    <path id="Trazado_107325" data-name="Trazado 107325" d="M6.5,14H4.358V7.17L2.25,7.786V6.161l4.056-1.4h.2Zm7.954-9.375V6.307h-.1a3.212,3.212,0,0,0-1.971.574,2.425,2.425,0,0,0-.949,1.6,2.5,2.5,0,0,1,1.828-.711,2.333,2.333,0,0,1,1.911.876,3.533,3.533,0,0,1,.711,2.3,3.235,3.235,0,0,1-.416,1.619,2.967,2.967,0,0,1-1.162,1.152,3.338,3.338,0,0,1-1.654.416,3.45,3.45,0,0,1-1.758-.448A3.077,3.077,0,0,1,9.7,12.4a4.212,4.212,0,0,1-.444-1.917V9.626a5.335,5.335,0,0,1,.613-2.568,4.441,4.441,0,0,1,1.749-1.787,5,5,0,0,1,2.52-.647ZM12.527,9.4a1.224,1.224,0,0,0-.711.2,1.249,1.249,0,0,0-.425.482v.641q0,1.752,1.212,1.752a.984.984,0,0,0,.816-.438,1.785,1.785,0,0,0,.327-1.1,1.752,1.752,0,0,0-.333-1.108A1.066,1.066,0,0,0,12.527,9.4Zm5.649,2.52a1.218,1.218,0,0,1,.844.3,1.052,1.052,0,0,1,0,1.542,1.332,1.332,0,0,1-1.692,0,1.052,1.052,0,0,1,0-1.536A1.207,1.207,0,0,1,18.177,11.924Zm2.7-2.444.565-4.723h5.4V6.421H23.179l-.209,1.834a2.53,2.53,0,0,1,.6-.235,2.748,2.748,0,0,1,.727-.1,2.711,2.711,0,0,1,2.117.816,3.286,3.286,0,0,1,.74,2.288,3.28,3.28,0,0,1-.4,1.609,2.727,2.727,0,0,1-1.114,1.108,3.517,3.517,0,0,1-1.695.387,3.782,3.782,0,0,1-1.631-.359,2.927,2.927,0,0,1-1.193-.984,2.392,2.392,0,0,1-.425-1.412h2.146a1.217,1.217,0,0,0,.324.806,1.026,1.026,0,0,0,.768.3q1.079,0,1.079-1.6,0-1.479-1.32-1.479a1.316,1.316,0,0,0-1.117.482ZM36.9,12.273H33.843L33.31,14h-2.38l3.39-9.242h2.095L39.829,14H37.436Zm-2.52-1.72h1.987l-1-3.206Z" transform="translate(-9908.87 -7077.138)" fill="#12263f"/>
    <path id="Trazado_107329" data-name="Trazado 107329" d="M15.6,10.426a2.259,2.259,0,0,1-1.549.622,2.5,2.5,0,0,1-1.993-.851,3.351,3.351,0,0,1-.736-2.272,3.411,3.411,0,0,1,.413-1.65A3.1,3.1,0,0,1,12.9,5.069a3.158,3.158,0,0,1,1.647-.444,3.066,3.066,0,0,1,1.654.46,3.1,3.1,0,0,1,1.152,1.3,4.47,4.47,0,0,1,.425,1.939v.819a5.556,5.556,0,0,1-.6,2.653,4.141,4.141,0,0,1-1.711,1.727,5.345,5.345,0,0,1-2.59.6H12.74V12.413l.406-.006Q15.355,12.3,15.6,10.426Zm-.971-.92a1.041,1.041,0,0,0,1-.6V8.014a2.311,2.311,0,0,0-.3-1.314.936.936,0,0,0-.806-.425.884.884,0,0,0-.755.482,2.143,2.143,0,0,0-.3,1.168,1.922,1.922,0,0,0,.311,1.152A1,1,0,0,0,14.632,9.506Zm11.242,1.98,1.841-6.729H30.2L27.092,14H24.655L21.57,4.758h2.469Z" transform="translate(-9531.5 -6983.67)" fill="#12263f"/>
    <path id="Trazado_107327" data-name="Trazado 107327" d="M11.175,10.388h.939v1.65h-.939V14H9.036V12.039H5.462l-.127-1.308,3.7-5.954V4.758h2.139Zm-3.8,0H9.036V7.544L8.9,7.76Zm7.04,1.536a1.218,1.218,0,0,1,.844.3,1.052,1.052,0,0,1,0,1.542,1.332,1.332,0,0,1-1.692,0,1.052,1.052,0,0,1,0-1.536A1.207,1.207,0,0,1,14.413,11.924Zm2.7-2.444.565-4.723h5.4V6.421H19.415l-.209,1.834a2.53,2.53,0,0,1,.6-.235,2.748,2.748,0,0,1,.727-.1,2.711,2.711,0,0,1,2.117.816,3.286,3.286,0,0,1,.74,2.288,3.28,3.28,0,0,1-.4,1.609,2.727,2.727,0,0,1-1.114,1.108,3.517,3.517,0,0,1-1.695.387,3.782,3.782,0,0,1-1.631-.359,2.927,2.927,0,0,1-1.193-.984,2.392,2.392,0,0,1-.425-1.412h2.146a1.217,1.217,0,0,0,.324.806,1.026,1.026,0,0,0,.768.3q1.079,0,1.079-1.6,0-1.479-1.32-1.479a1.316,1.316,0,0,0-1.117.482Zm16.021,2.793H30.079L29.545,14h-2.38l3.39-9.242h2.095L36.064,14H33.671Zm-2.52-1.72H32.6l-1-3.206Z" transform="translate(-9717 -7029.42)" fill="#12263f"/>
    <path id="Trazado_107328" data-name="Trazado 107328" d="M13.21,8.484h1.009a1.049,1.049,0,0,0,1.2-1.174,1.015,1.015,0,0,0-.286-.746,1.083,1.083,0,0,0-.806-.289,1.16,1.16,0,0,0-.74.248.755.755,0,0,0-.314.616H11.134a2.19,2.19,0,0,1,.406-1.3,2.683,2.683,0,0,1,1.127-.892,3.852,3.852,0,0,1,1.584-.321,3.785,3.785,0,0,1,2.425.7,2.342,2.342,0,0,1,.882,1.936,1.952,1.952,0,0,1-.365,1.127,2.6,2.6,0,0,1-1.063.86,2.485,2.485,0,0,1,1.155.809A2.131,2.131,0,0,1,17.7,11.4a2.385,2.385,0,0,1-.952,1.98,3.952,3.952,0,0,1-2.5.743,4.1,4.1,0,0,1-1.685-.346,2.64,2.64,0,0,1-1.177-.958,2.492,2.492,0,0,1-.4-1.393H13.14a.963.963,0,0,0,.343.736,1.21,1.21,0,0,0,.844.311,1.268,1.268,0,0,0,.9-.314,1.05,1.05,0,0,0,.336-.8,1.228,1.228,0,0,0-.349-.99,1.459,1.459,0,0,0-.965-.292H13.21ZM27.4,12.273H24.35L23.817,14h-2.38l3.39-9.242h2.095L30.336,14H27.943Zm-2.52-1.72H26.87l-1-3.206Z" transform="translate(-9637.5 -7029.42)" fill="#12263f"/>
  </g>
</svg>
