<svg xmlns="http://www.w3.org/2000/svg" width="646" height="349" viewBox="0 0 646 349"><g transform="translate(5154 4542)"><rect width="646" height="349" rx="5" transform="translate(-5154 -4542)" fill="#fff"/><g transform="translate(761.058 -110.021)"><path d="M-3822.836-5068.547H-3707.1V-5183" transform="translate(-2033.661 935.944)" fill="none" stroke="#707070" stroke-linecap="round" stroke-linejoin="round" stroke-width="3"/><path d="M-3547.562-5191.761v51.629h-231.459" transform="translate(-2048.269 945.324)" fill="none" stroke="#707070" stroke-linecap="round" stroke-linejoin="round" stroke-width="3"/><g transform="translate(-5742.631 -4370.594)" fill="#fff"><path d="M 145.7227630615234 123.5904846191406 L 2.633391857147217 123.5904846191406 L 74.17807006835938 2.940816164016724 L 145.7227630615234 123.5904846191406 Z" stroke="none"/><path d="M 74.17807006835938 5.88165283203125 L 5.26678466796875 122.0904922485352 L 143.08935546875 122.0904922485352 L 74.17807006835938 5.88165283203125 M 74.17807006835938 -7.62939453125e-06 L 148.3561401367188 125.0904922485352 L 0 125.0904922485352 L 74.17807006835938 -7.62939453125e-06 Z" stroke="none" fill="#707070"/></g><g transform="translate(-5646.507 -4253.901) rotate(90)" fill="#fff" stroke="#707070" stroke-width="3"><rect width="15.972" height="45.446" rx="2" stroke="none"/><rect x="1.5" y="1.5" width="12.972" height="42.446" rx="0.5" fill="none"/></g><g transform="translate(-5702.066 -4328.577) rotate(30)" fill="#fff" stroke="#707070" stroke-width="3"><rect width="15.972" height="45.446" rx="2" stroke="none"/><rect x="1.5" y="1.5" width="12.972" height="42.446" rx="0.5" fill="none"/></g><g transform="translate(-5614.006 -4289.219) rotate(150)" fill="#fff" stroke="#707070" stroke-width="3"><rect width="15.972" height="45.446" rx="2" stroke="none"/><rect x="1.5" y="1.5" width="12.972" height="42.446" rx="0.5" fill="none"/></g><circle cx="4.72" cy="4.72" r="4.72" transform="translate(-5673.173 -4376.256)" fill="#707070"/><circle cx="4.72" cy="4.72" r="4.72" transform="translate(-5600.55 -4250.635)" fill="#707070"/><circle cx="4.72" cy="4.72" r="4.72" transform="translate(-5746.107 -4250.635)" fill="#707070"/><text transform="translate(-5893.17 -4269.675)" fill="#636363" font-size="18" font-family="Roboto-Black, Roboto" font-weight="800"><tspan x="-12.68" y="19">V</tspan><tspan y="19" font-size="10.499" baseline-shift="-5.999400079342301">TR</tspan></text><text transform="translate(-5773.241 -4338.177)" fill="#18821f" font-size="16" font-family="Roboto-Black, Roboto" font-weight="800"><tspan x="-8.227" y="17">V</tspan><tspan y="17" font-size="9.333" baseline-shift="-5.33279994943018">T</tspan><tspan x="-3.044" y="41" font-size="9.333" baseline-shift="-5.33279994943018">R</tspan></text><text transform="translate(-5599.805 -4338.177)" fill="#18821f" font-size="16" font-family="Roboto-Black, Roboto" font-weight="800"><tspan x="-8.329" y="17">V</tspan><tspan y="17" font-size="9.333" baseline-shift="-5.33279994943018">R</tspan><tspan x="-2.921" y="41" font-size="9.333" baseline-shift="-5.33279994943018">S</tspan></text><text transform="translate(-5684.314 -4216.169)" fill="#18821f" font-size="16" font-family="Roboto-Black, Roboto" font-weight="800"><tspan x="-11.148" y="17">V</tspan><tspan y="17" font-size="9.333" baseline-shift="-5.33279994943018">ST</tspan></text><text transform="translate(-5791.589 -4365.009)" fill="#ff3b4e" font-size="16" font-family="Roboto-Black, Roboto" font-weight="800"><tspan x="-5.458" y="17">I</tspan><tspan y="17" font-size="9.333" baseline-shift="-5.33279994943018">R</tspan></text><text transform="translate(-5746.107 -4294.816)" fill="#c82494" font-size="16" font-family="Roboto-Black, Roboto" font-weight="800"><tspan x="-5.356" y="17">I</tspan><tspan y="17" font-size="9.333" baseline-shift="-5.33279994943018">T</tspan><tspan x="-3.044" y="41" font-size="9.333" baseline-shift="-5.33279994943018">R</tspan></text><text transform="translate(-5642.669 -4354.758)" fill="#c82494" font-size="16" font-family="Roboto-Black, Roboto" font-weight="800"><tspan x="-8.379" y="17">I</tspan><tspan y="17" font-size="9.333" baseline-shift="-5.33279994943018">RS</tspan></text><text transform="translate(-5641.227 -4245.791)" fill="#c82494" font-size="16" font-family="Roboto-Black, Roboto" font-weight="800"><tspan x="-8.277" y="17">I</tspan><tspan y="17" font-size="9.333" baseline-shift="-5.33279994943018">ST</tspan></text><text transform="translate(-5678.689 -4172.443)" fill="#ff3b4e" font-size="16" font-family="Roboto-Black, Roboto" font-weight="800"><tspan x="-5.335" y="17">I</tspan><tspan y="17" font-size="9.333" baseline-shift="-5.33279994943018">S</tspan></text><text transform="translate(-5791.589 -4123.357)" fill="#ff3b4e" font-size="16" font-family="Roboto-Black, Roboto" font-weight="800"><tspan x="-5.356" y="17">I</tspan><tspan y="17" font-size="9.333" baseline-shift="-5.33279994943018">T</tspan></text><text transform="translate(-5808.465 -4233.998)" fill="#636363" font-size="18" font-family="Roboto-Black, Roboto" font-weight="800"><tspan x="-12.657" y="19">V</tspan><tspan y="19" font-size="10.499" baseline-shift="-5.999400079342301">RS</tspan></text><text transform="translate(-5808.465 -4181.964)" fill="#636363" font-size="18" font-family="Roboto-Black, Roboto" font-weight="800"><tspan x="-12.541" y="19">V</tspan><tspan y="19" font-size="10.499" baseline-shift="-5.999400079342301">ST</tspan></text><text transform="translate(-5693.402 -4383.575)" fill="#12263f" font-size="13" font-family="Roboto-Black, Roboto" font-weight="800"><tspan x="-4.24" y="14">R</tspan></text><text transform="translate(-5847.195 -4201.298)" fill="#12263f" font-size="13" font-family="Roboto-Black, Roboto" font-weight="800"><tspan x="-4.069" y="14">S</tspan></text><text transform="translate(-5587.558 -4252.688)" fill="#12263f" font-size="13" font-family="Roboto-Black, Roboto" font-weight="800"><tspan x="-4.069" y="14">S</tspan></text><text transform="translate(-5657.918 -4304.905)" fill="#12263f" font-size="18" font-family="Roboto-Black, Roboto" font-weight="800"><tspan x="-5.489" y="19">Z</tspan></text><text transform="translate(-5675.89 -4274.428)" fill="#12263f" font-size="18" font-family="Roboto-Black, Roboto" font-weight="800"><tspan x="-5.489" y="19">Z</tspan></text><text transform="translate(-5690.819 -4305.29)" fill="#12263f" font-size="18" font-family="Roboto-Black, Roboto" font-weight="800"><tspan x="-5.489" y="19">Z</tspan></text><text transform="translate(-5763.289 -4252.688)" fill="#12263f" font-size="13" font-family="Roboto-Black, Roboto" font-weight="800"><tspan x="-4.097" y="14">T</tspan></text><g transform="translate(-5856.498 -4144.364) rotate(-90)"><path d="M0,0V216.6" transform="translate(11.351 4.652) rotate(-90)" fill="none" stroke="#afafaf" stroke-width="2"/><path d="M13.322,5.913l2,3.285-.155.1L7.75,6.356,0,4.651,7.75,2.946,15.165,0l.155.078-2,3.311Z" transform="translate(238.321 9.302) rotate(180)" fill="#afafaf"/><path d="M13.322,5.913l2,3.285-.155.1L7.75,6.356,0,4.651,7.75,2.946,15.165,0l.155.078-2,3.311Z" transform="translate(0 0)" fill="#afafaf"/></g><g transform="translate(-5825.333 -4203.101) rotate(-90)"><path d="M0,0V159.65" transform="translate(10.46 4.652) rotate(-90)" fill="none" stroke="#afafaf" stroke-width="2"/><path d="M13.322,5.913l2,3.285-.155.1L7.75,6.356,0,4.651,7.75,2.946,15.165,0l.155.078-2,3.311Z" transform="translate(180.475 9.302) rotate(180)" fill="#afafaf"/><path d="M13.322,5.913l2,3.285-.155.1L7.75,6.356,0,4.651,7.75,2.946,15.165,0l.155.078-2,3.311Z" transform="translate(0 0)" fill="#afafaf"/></g><g transform="translate(-5724.789 -4223.208)"><path d="M0,0V97.655" transform="translate(10.46 5.341) rotate(-90)" fill="none" stroke="#18821f" stroke-width="2"/><path d="M13.322,6.79l2,3.772-.155.119L7.75,7.3,0,5.34,7.75,3.382,15.165,0l.155.09-2,3.8Z" transform="translate(118.48 10.681) rotate(180)" fill="#18821f"/><path d="M13.322,6.79l2,3.772-.155.119L7.75,7.3,0,5.34,7.75,3.382,15.165,0l.155.09-2,3.8Z" transform="translate(0 0)" fill="#18821f"/></g><g transform="matrix(0.454, -0.891, 0.891, 0.454, -5777.76, -4273.499)"><path d="M0,0V97.655" transform="translate(10.46 5.341) rotate(-90)" fill="none" stroke="#18821f" stroke-width="2"/><path d="M13.322,6.79l2,3.772-.155.119L7.75,7.3,0,5.34,7.75,3.382,15.165,0l.155.09-2,3.8Z" transform="translate(118.48 10.681) rotate(180)" fill="#18821f"/><path d="M13.322,6.79l2,3.772-.155.119L7.75,7.3,0,5.34,7.75,3.382,15.165,0l.155.09-2,3.8Z" transform="translate(0 0)" fill="#18821f"/></g><g transform="matrix(-0.454, -0.891, 0.891, -0.454, -5582.188, -4268.649)"><path d="M0,97.655V0" transform="translate(108.115 5.34) rotate(90)" fill="none" stroke="#18821f" stroke-width="2"/><path d="M13.322,3.891l2-3.772L15.165,0,7.75,3.383,0,5.34,7.75,7.3l7.415,3.382.155-.09-2-3.8Z" transform="translate(118.48 10.681) rotate(180)" fill="#18821f"/><path d="M13.322,3.891l2-3.772L15.165,0,7.75,3.383,0,5.34,7.75,7.3l7.415,3.382.155-.09-2-3.8Z" transform="translate(0 0)" fill="#18821f"/></g><g transform="translate(-5825.333 -4139.447) rotate(-90)"><path d="M0,0V27.906" transform="translate(9.647 4.652) rotate(-90)" fill="none" stroke="#afafaf" stroke-width="2"/><path d="M13.322,5.913l2,3.285-.155.1L7.75,6.356,0,4.651,7.75,2.946,15.165,0l.155.078-2,3.311Z" transform="translate(47.919 9.302) rotate(180)" fill="#afafaf"/><path d="M13.322,5.913l2,3.285-.155.1L7.75,6.356,0,4.651,7.75,2.946,15.165,0l.155.078-2,3.311Z" transform="translate(0 0)" fill="#afafaf"/></g><g transform="translate(-5796.292 -4106.913)"><path d="M0,0V32.63" transform="translate(0 4.652) rotate(-90)" fill="none" stroke="#ff3b4e" stroke-width="2"/><path d="M13.322,5.913l2,3.285-.155.1L7.75,6.356,0,4.651,7.75,2.946,15.165,0l.155.078-2,3.311Z" transform="translate(42.995 9.302) rotate(180)" fill="#ff3b4e"/></g><g transform="translate(-5690.728 -4181.746)"><path d="M0,0V32.63" transform="translate(0 4.652) rotate(-90)" fill="none" stroke="#ff3b4e" stroke-width="2"/><path d="M13.322,5.913l2,3.285-.155.1L7.75,6.356,0,4.651,7.75,2.946,15.165,0l.155.078-2,3.311Z" transform="translate(42.995 9.302) rotate(180)" fill="#ff3b4e"/></g><g transform="translate(-5796.292 -4375.245)"><path d="M0,0V32.63" transform="translate(0 4.652) rotate(-90)" fill="none" stroke="#ff3b4e" stroke-width="2"/><path d="M13.322,5.913l2,3.285-.155.1L7.75,6.356,0,4.651,7.75,2.946,15.165,0l.155.078-2,3.311Z" transform="translate(42.995 9.302) rotate(180)" fill="#ff3b4e"/></g><g transform="translate(-5737.377 -4294.657) rotate(-62)"><path d="M0,0V32.63" transform="translate(0 4.652) rotate(-90)" fill="none" stroke="#c82494" stroke-width="2"/><path d="M13.322,5.913l2,3.285-.155.1L7.75,6.356,0,4.651,7.75,2.946,15.165,0l.155.078-2,3.311Z" transform="translate(42.995 9.302) rotate(180)" fill="#c82494"/></g><g transform="translate(-5621.303 -4332.176) rotate(60)"><path d="M0,32.63V0" transform="translate(32.63 4.651) rotate(90)" fill="none" stroke="#c82494" stroke-width="2"/><path d="M13.322,3.389,15.32.1,15.165,0,7.75,2.946,0,4.651,7.75,6.356,15.165,9.3l.155-.078-2-3.311Z" transform="translate(42.995 9.302) rotate(180)" fill="#c82494"/></g><g transform="translate(-5647.823 -4224.695) rotate(-180)"><path d="M0,32.63V0" transform="translate(32.63 4.651) rotate(90)" fill="none" stroke="#c82494" stroke-width="2"/><path d="M13.322,3.389,15.32.1,15.165,0,7.75,2.946,0,4.651,7.75,6.356,15.165,9.3l.155-.078-2-3.311Z" transform="translate(42.995 9.302) rotate(180)" fill="#c82494"/></g><path d="M-5492.036-4756.074V-4778H-5680" transform="translate(-176.497 385.653)" fill="none" stroke="#707070" stroke-width="3"/><text transform="translate(-5617.56 -4212.527)" fill="#636363" font-size="13" font-family="Roboto-Black, Roboto" font-weight="800"><tspan x="-3.472" y="14">+</tspan></text><text transform="translate(-5844.148 -4178.935)" fill="#636363" font-size="13" font-family="Roboto-Black, Roboto" font-weight="800"><tspan x="-3.472" y="14">+</tspan></text><text transform="translate(-5844.148 -4369.77)" fill="#636363" font-size="13" font-family="Roboto-Black, Roboto" font-weight="800"><tspan x="-3.472" y="14">+</tspan></text></g><g transform="translate(0 -106)"><g transform="translate(-5569.079 -8096.189)"><text transform="translate(889 3794)" fill="#afafaf" font-size="13" font-family="Roboto-Black, Roboto" font-weight="800"><tspan x="0" y="0">φ</tspan></text></g><g transform="translate(-5524.079 -8046.845)"><text transform="translate(889 3794)" fill="#afafaf" font-size="13" font-family="Roboto-Black, Roboto" font-weight="800"><tspan x="0" y="0">φ</tspan></text></g><g transform="translate(-5598.079 -8028.845)"><text transform="translate(889 3794)" fill="#afafaf" font-size="13" font-family="Roboto-Black, Roboto" font-weight="800"><tspan x="0" y="0">φ</tspan></text></g><path d="M-8213.833-436.93a20.4,20.4,0,0,1,14.689,16.518" transform="translate(-4243.149 -12498.333) rotate(-90)" fill="none" stroke="#afafaf" stroke-width="1"/><path d="M-8213.833-436.93a20.4,20.4,0,0,1,14.689,16.518" transform="translate(-5073.491 3946.644) rotate(90)" fill="none" stroke="#afafaf" stroke-width="1"/><path d="M-8213.833-436.93a20.4,20.4,0,0,1,14.689,16.518" transform="translate(-12897.309 -4678.516) rotate(-180)" fill="none" stroke="#afafaf" stroke-width="1"/><g transform="translate(93.825 3)"><path d="M-4829-4382l65.5,112h127" fill="none" stroke="#36653e" stroke-width="2"/><path d="M-4829-4160.5l66-109.5" fill="none" stroke="#36653e" stroke-width="2"/><path d="M15.393,6.833l2.309,3.8-.179.119-8.568-3.4L0,5.374,8.954,3.4,17.522,0,17.7.09,15.389,3.916Z" transform="translate(-4828.591 -4392.347) rotate(61)" fill="#36653e"/><path d="M15.393,6.833l2.309,3.8-.179.119-8.568-3.4L0,5.374,8.954,3.4,17.522,0,17.7.09,15.389,3.916Z" transform="translate(-4624.149 -4264.626) rotate(-180)" fill="#36653e"/><path d="M15.393,6.833l2.309,3.8-.179.119-8.568-3.4L0,5.374,8.954,3.4,17.522,0,17.7.09,15.389,3.916Z" transform="matrix(0.5, -0.866, 0.866, 0.5, -4839.781, -4153.022)" fill="#36653e"/><path d="M-4754-4318l-9,48,32,27.5" fill="none" stroke="#c82494" stroke-width="2"/><path d="M-4809-4255l46.5-15" fill="none" stroke="#c82494" stroke-width="2"/><path d="M15.393,6.833l2.309,3.8-.179.119-8.568-3.4L0,5.374,8.954,3.4,17.522,0,17.7.09,15.389,3.916Z" transform="translate(-4747.171 -4325.783) rotate(100)" fill="#c82494"/><path d="M15.393,6.833l2.309,3.8-.179.119-8.568-3.4L0,5.374,8.954,3.4,17.522,0,17.7.09,15.389,3.916Z" transform="matrix(-0.799, -0.602, 0.602, -0.799, -4725.336, -4231.381)" fill="#c82494"/><path d="M15.393,6.833l2.309,3.8-.179.119-8.568-3.4L0,5.374,8.954,3.4,17.522,0,17.7.09,15.389,3.916Z" transform="translate(-4819.118 -4257.2) rotate(-19)" fill="#c82494"/><text transform="translate(-4864.5 -4387)" fill="#36653e" font-size="16" font-family="Roboto-Black, Roboto" font-weight="800"><tspan x="-11.25" y="17">V</tspan><tspan y="17" font-size="9.333" baseline-shift="-5.33279994943018">RS</tspan></text><text transform="translate(-4816.5 -4166.648)" fill="#36653e" font-size="16" font-family="Roboto-Black, Roboto" font-weight="800"><tspan x="-11.271" y="17">V</tspan><tspan y="17" font-size="9.333" baseline-shift="-5.33279994943018">TR</tspan></text><text transform="translate(-4657.5 -4302.648)" fill="#36653e" font-size="16" font-family="Roboto-Black, Roboto" font-weight="800"><tspan x="-11.148" y="17">V</tspan><tspan y="17" font-size="9.333" baseline-shift="-5.33279994943018">ST</tspan></text><text transform="translate(-4768.993 -4352.648)" fill="#c92296" font-size="16" font-family="Roboto-Black, Roboto" font-weight="800"><tspan x="-8.379" y="17">I</tspan><tspan y="17" font-size="9.333" baseline-shift="-5.33279994943018">RS</tspan></text><text transform="translate(-4843.5 -4255.648)" fill="#c92296" font-size="16" font-family="Roboto-Black, Roboto" font-weight="800"><tspan x="-8.4" y="17">I</tspan><tspan y="17" font-size="9.333" baseline-shift="-5.33279994943018">TR</tspan></text><text transform="translate(-4721.5 -4231.381)" fill="#c92296" font-size="16" font-family="Roboto-Black, Roboto" font-weight="800"><tspan x="-8.277" y="17">I</tspan><tspan y="17" font-size="9.333" baseline-shift="-5.33279994943018">ST</tspan></text></g></g><g transform="translate(-5320 -7882.479)"><circle cx="14.5" cy="14.5" r="14.5" transform="translate(464 3637)" fill="#ad84ff"/><text transform="translate(471 3638)" fill="#12263f" font-size="20" font-family="Roboto-Black, Roboto" font-weight="800"><tspan x="-8.33" y="21">a.</tspan></text></g><g transform="translate(-5069 -7882.479)"><circle cx="14.5" cy="14.5" r="14.5" transform="translate(464 3637)" fill="#ad84ff"/><text transform="translate(469 3638)" fill="#12263f" font-size="20" font-family="Roboto-Black, Roboto" font-weight="800"><tspan x="-8.652" y="21">b.</tspan></text></g></g></svg>