<svg xmlns="http://www.w3.org/2000/svg" width="558" height="306" viewBox="0 0 558 306">
  <g id="Grupo_974118" data-name="Grupo 974118" transform="translate(3390 4265)">
    <g id="Grupo_55640" data-name="Grupo 55640" transform="translate(1747 -5590)">
      <rect id="Rectángulo_5440" data-name="Rectángulo 5440" width="558" height="306" rx="5" transform="translate(-5137 1325)" fill="#fff"/>
    </g>
    <g id="Grupo_974117" data-name="Grupo 974117">
      <g id="Grupo_974110" data-name="Grupo 974110" transform="translate(1747 -5637)">
        <path id="Trazado_704974" data-name="Trazado 704974" d="M6.747,16.363h6.8V19H2.47V17.193L9.247,7.428H2.431V4.781H13.476V6.539Z" transform="translate(-4785.124 1496.299)" fill="#12263f"/>
        <path id="Trazado_704975" data-name="Trazado 704975" d="M6.747,16.363h6.8V19H2.47V17.193L9.247,7.428H2.431V4.781H13.476V6.539Z" transform="translate(-5013.124 1472.299)" fill="#12263f"/>
        <path id="Trazado_704976" data-name="Trazado 704976" d="M6.747,16.363h6.8V19H2.47V17.193L9.247,7.428H2.431V4.781H13.476V6.539Z" transform="translate(-4915.075 1541.61)" fill="#12263f"/>
        <path id="Trazado_704977" data-name="Trazado 704977" d="M6.747,16.363h6.8V19H2.47V17.193L9.247,7.428H2.431V4.781H13.476V6.539Z" transform="translate(-5058.926 1541.61)" fill="#12263f"/>
        <path id="Trazado_704978" data-name="Trazado 704978" d="M7.758,13.971H5.9V19H2.475V4.781h5.6A6.246,6.246,0,0,1,12.025,5.9a3.8,3.8,0,0,1,1.426,3.17,4.616,4.616,0,0,1-.6,2.458,4.263,4.263,0,0,1-1.88,1.58l2.969,5.741V19H10.268ZM5.9,11.334H8.07a1.946,1.946,0,0,0,1.47-.514,1.987,1.987,0,0,0,.493-1.434,2.01,2.01,0,0,0-.5-1.444A1.928,1.928,0,0,0,8.07,7.418H5.9Z" transform="translate(-4817.494 1394.159)" fill="#12263f"/>
        <path id="Trazado_704979" data-name="Trazado 704979" d="M7.758,13.971H5.9V19H2.475V4.781h5.6A6.246,6.246,0,0,1,12.025,5.9a3.8,3.8,0,0,1,1.426,3.17,4.616,4.616,0,0,1-.6,2.458,4.263,4.263,0,0,1-1.88,1.58l2.969,5.741V19H10.268ZM5.9,11.334H8.07a1.946,1.946,0,0,0,1.47-.514,1.987,1.987,0,0,0,.493-1.434,2.01,2.01,0,0,0-.5-1.444A1.928,1.928,0,0,0,8.07,7.418H5.9Z" transform="translate(-4985.059 1394.159)" fill="#12263f"/>
        <path id="Trazado_704980" data-name="Trazado 704980" d="M10.072,15.221a1.408,1.408,0,0,0-.532-1.172,6.615,6.615,0,0,0-1.87-.869,17.942,17.942,0,0,1-2.187-.869Q2.719,10.953,2.719,8.58A3.345,3.345,0,0,1,3.407,6.5,4.453,4.453,0,0,1,5.355,5.089a7.582,7.582,0,0,1,2.832-.5,6.632,6.632,0,0,1,2.749.547,4.352,4.352,0,0,1,1.89,1.558A4.068,4.068,0,0,1,13.5,9H10.082A1.719,1.719,0,0,0,9.55,7.652a2.075,2.075,0,0,0-1.44-.479,2.339,2.339,0,0,0-1.45.405A1.193,1.193,0,0,0,6.713,9.6a7.389,7.389,0,0,0,2.061.918A12.623,12.623,0,0,1,11.2,11.539,4.07,4.07,0,0,1,13.5,15.2a3.472,3.472,0,0,1-1.406,2.93A6.255,6.255,0,0,1,8.236,19.2a7.653,7.653,0,0,1-3.13-.62A4.719,4.719,0,0,1,3,16.876a4.428,4.428,0,0,1-.708-2.485H5.727a2.181,2.181,0,0,0,.591,1.685,2.793,2.793,0,0,0,1.919.542,2.206,2.206,0,0,0,1.343-.366A1.209,1.209,0,0,0,10.072,15.221Z" transform="translate(-4728.333 1394.159)" fill="#12263f"/>
        <path id="Trazado_704981" data-name="Trazado 704981" d="M10.072,15.221a1.408,1.408,0,0,0-.532-1.172,6.615,6.615,0,0,0-1.87-.869,17.942,17.942,0,0,1-2.187-.869Q2.719,10.953,2.719,8.58A3.345,3.345,0,0,1,3.407,6.5,4.453,4.453,0,0,1,5.355,5.089a7.582,7.582,0,0,1,2.832-.5,6.632,6.632,0,0,1,2.749.547,4.352,4.352,0,0,1,1.89,1.558A4.068,4.068,0,0,1,13.5,9H10.082A1.719,1.719,0,0,0,9.55,7.652a2.075,2.075,0,0,0-1.44-.479,2.339,2.339,0,0,0-1.45.405A1.193,1.193,0,0,0,6.713,9.6a7.389,7.389,0,0,0,2.061.918A12.623,12.623,0,0,1,11.2,11.539,4.07,4.07,0,0,1,13.5,15.2a3.472,3.472,0,0,1-1.406,2.93A6.255,6.255,0,0,1,8.236,19.2a7.653,7.653,0,0,1-3.13-.62A4.719,4.719,0,0,1,3,16.876a4.428,4.428,0,0,1-.708-2.485H5.727a2.181,2.181,0,0,0,.591,1.685,2.793,2.793,0,0,0,1.919.542,2.206,2.206,0,0,0,1.343-.366A1.209,1.209,0,0,0,10.072,15.221Z" transform="translate(-4858 1606.038)" fill="#12263f"/>
        <path id="Trazado_704982" data-name="Trazado 704982" d="M13.852,19H10.443L5.4,10.152V19H1.977V4.781H5.4l5.029,8.848V4.781h3.418Z" transform="translate(-4728.333 1609.76)" fill="#12263f"/>
        <path id="Trazado_704983" data-name="Trazado 704983" d="M13.852,19H10.443L5.4,10.152V19H1.977V4.781H5.4l5.029,8.848V4.781h3.418Z" transform="translate(-4987 1571.288)" fill="#12263f"/>
        <path id="Trazado_704984" data-name="Trazado 704984" d="M13.856,7.428H9.589V19H6.161V7.428H1.972V4.781H13.856Z" transform="translate(-4639.173 1395.079)" fill="#12263f"/>
        <path id="Trazado_704985" data-name="Trazado 704985" d="M13.856,7.428H9.589V19H6.161V7.428H1.972V4.781H13.856Z" transform="translate(-5116 1604.534)" fill="#12263f"/>
        <path id="Trazado_704986" data-name="Trazado 704986" d="M6.747,16.363h6.8V19H2.47V17.193L9.247,7.428H2.431V4.781H13.476V6.539Z" transform="translate(-4698.102 1496.299)" fill="#12263f"/>
        <path id="Trazado_704987" data-name="Trazado 704987" d="M6.747,16.363h6.8V19H2.47V17.193L9.247,7.428H2.431V4.781H13.476V6.539Z" transform="translate(-4614 1496.299)" fill="#12263f"/>
        <g id="Grupo_55638" data-name="Grupo 55638" transform="translate(-22.333 11.299)">
          <path id="Trazado_107275" data-name="Trazado 107275" d="M-4955.333,1403.333v130L-4844.667,1596" fill="none" stroke="#707070" stroke-width="3"/>
          <path id="Trazado_107276" data-name="Trazado 107276" d="M-4955.333,1532l-113.333,64.667" fill="none" stroke="#707070" stroke-width="3"/>
          <g id="Rectángulo_5451" data-name="Rectángulo 5451" transform="translate(-4967.451 1448.313)" fill="#fff" stroke="#707070" stroke-width="3">
            <rect width="24.235" height="39.706" rx="2" stroke="none"/>
            <rect x="1.5" y="1.5" width="21.235" height="36.706" rx="0.5" fill="none"/>
          </g>
          <g id="Rectángulo_5452" data-name="Rectángulo 5452" transform="matrix(0.53, -0.848, 0.848, 0.53, -4922.728, 1563.241)" fill="#fff" stroke="#707070" stroke-width="3">
            <rect width="22.235" height="39.706" rx="2" stroke="none"/>
            <rect x="1.5" y="1.5" width="19.235" height="36.706" rx="0.5" fill="none"/>
          </g>
          <g id="Rectángulo_5453" data-name="Rectángulo 5453" transform="matrix(-0.53, -0.848, 0.848, -0.53, -5022.945, 1584.282)" fill="#fff" stroke="#707070" stroke-width="3">
            <rect width="22.236" height="39.706" rx="2" stroke="none"/>
            <rect x="1.5" y="1.5" width="19.236" height="36.706" rx="0.5" fill="none"/>
          </g>
        </g>
        <g id="Grupo_55639" data-name="Grupo 55639" transform="translate(-22.333 11.299)">
          <path id="Trazado_107277" data-name="Trazado 107277" d="M-4786.667,1408v173.333h177.333V1408" fill="none" stroke="#707070" stroke-width="3"/>
          <path id="Trazado_107278" data-name="Trazado 107278" d="M-4698,1408v173.333" fill="none" stroke="#707070" stroke-width="3"/>
          <g id="Rectángulo_5448" data-name="Rectángulo 5448" transform="translate(-4798.784 1459.313)" fill="#fff" stroke="#707070" stroke-width="3">
            <rect width="24.235" height="70.706" rx="2" stroke="none"/>
            <rect x="1.5" y="1.5" width="21.235" height="67.706" rx="0.5" fill="none"/>
          </g>
          <g id="Rectángulo_5449" data-name="Rectángulo 5449" transform="translate(-4710.118 1459.313)" fill="#fff" stroke="#707070" stroke-width="3">
            <rect width="24.235" height="70.706" rx="2" stroke="none"/>
            <rect x="1.5" y="1.5" width="21.235" height="67.706" rx="0.5" fill="none"/>
          </g>
          <g id="Rectángulo_5450" data-name="Rectángulo 5450" transform="translate(-4621.451 1459.313)" fill="#fff" stroke="#707070" stroke-width="3">
            <rect width="24.235" height="70.706" rx="2" stroke="none"/>
            <rect x="1.5" y="1.5" width="21.235" height="67.706" rx="0.5" fill="none"/>
          </g>
        </g>
        <path id="Trazado_704988" data-name="Trazado 704988" d="M5.059,0A5.059,5.059,0,1,1,0,5.059,5.059,5.059,0,0,1,5.059,0Z" transform="translate(-4984.059 1539.17)" fill="#707070"/>
        <path id="Trazado_704989" data-name="Trazado 704989" d="M5.059,0A5.059,5.059,0,1,1,0,5.059,5.059,5.059,0,0,1,5.059,0Z" transform="translate(-4725.392 1587.574)" fill="#707070"/>
      </g>
      <g id="Grupo_55642" data-name="Grupo 55642" transform="translate(-3711 -7641)">
        <circle id="Elipse_4109" data-name="Elipse 4109" cx="14.5" cy="14.5" r="14.5" transform="translate(464 3637)" fill="#ad84ff"/>
        <path id="Trazado_704991" data-name="Trazado 704991" d="M6.932,19a3.716,3.716,0,0,1-.312-.947A3.06,3.06,0,0,1,4.08,19.2a3.749,3.749,0,0,1-2.539-.9A2.875,2.875,0,0,1,.5,16.021a2.955,2.955,0,0,1,1.27-2.6,6.468,6.468,0,0,1,3.691-.879H6.473v-.559q0-1.462-1.26-1.462a1.03,1.03,0,0,0-1.172,1.158H.75a2.95,2.95,0,0,1,1.3-2.487,5.479,5.479,0,0,1,3.325-.956,4.8,4.8,0,0,1,3.193.986,3.429,3.429,0,0,1,1.2,2.705v4.678a4.79,4.79,0,0,0,.449,2.227V19ZM4.871,16.852a1.836,1.836,0,0,0,1.021-.264,1.653,1.653,0,0,0,.581-.6V14.3H5.516Q3.8,14.3,3.8,15.846a.942.942,0,0,0,.3.728A1.1,1.1,0,0,0,4.871,16.852Zm8.76-1.045a1.874,1.874,0,0,1,1.3.464,1.619,1.619,0,0,1,0,2.373,2.049,2.049,0,0,1-2.6,0,1.618,1.618,0,0,1,0-2.363A1.858,1.858,0,0,1,13.631,15.807Z" transform="translate(471 3638)" fill="#12263f"/>
      </g>
      <g id="Grupo_55641" data-name="Grupo 55641" transform="translate(-3370 -7641)">
        <circle id="Elipse_4109-2" data-name="Elipse 4109" cx="14.5" cy="14.5" r="14.5" transform="translate(464 3637)" fill="#ad84ff"/>
        <path id="Trazado_704990" data-name="Trazado 704990" d="M13.08,13.8A6.44,6.44,0,0,1,12.006,17.8a3.6,3.6,0,0,1-3.027,1.4,3.122,3.122,0,0,1-2.6-1.279L6.244,19H3.295V4H6.586V9.283A3.013,3.013,0,0,1,8.959,8.238a3.6,3.6,0,0,1,3.047,1.416,6.473,6.473,0,0,1,1.074,3.984Zm-3.3-.21a4.3,4.3,0,0,0-.405-2.169,1.366,1.366,0,0,0-1.245-.648,1.576,1.576,0,0,0-1.543.848v4.192a1.585,1.585,0,0,0,1.563.838,1.4,1.4,0,0,0,1.475-1.131A8.121,8.121,0,0,0,9.779,13.595Zm6.787,2.212a1.874,1.874,0,0,1,1.3.464,1.619,1.619,0,0,1,0,2.373,2.049,2.049,0,0,1-2.6,0,1.618,1.618,0,0,1,0-2.363A1.858,1.858,0,0,1,16.566,15.807Z" transform="translate(470 3639)" fill="#12263f"/>
      </g>
    </g>
  </g>
</svg>
