<svg xmlns="http://www.w3.org/2000/svg" width="646" height="346" viewBox="0 0 646 346">
  <g id="Grupo_974120" data-name="Grupo 974120" transform="translate(5014 3999)">
    <rect id="Rectángulo_5367" data-name="Rectángulo 5367" width="646" height="346" rx="5" transform="translate(-5014 -3999)" fill="#fff"/>
    <g id="Grupo_55600" data-name="Grupo 55600" transform="translate(901.058 422.979)">
      <path id="Trazado_107214" data-name="Trazado 107214" d="M-3822.836-5068.547H-3707.1V-5183" transform="translate(-2033.661 935.944)" fill="none" stroke="#707070" stroke-linecap="round" stroke-linejoin="round" stroke-width="3"/>
      <path id="Trazado_107215" data-name="Trazado 107215" d="M-3547.562-5191.761v51.629h-231.459" transform="translate(-2048.269 945.324)" fill="none" stroke="#707070" stroke-linecap="round" stroke-linejoin="round" stroke-width="3"/>
      <g id="Polígono_4" data-name="Polígono 4" transform="translate(-5742.631 -4370.594)" fill="#fff">
        <path d="M 145.7227630615234 123.5904846191406 L 2.633391857147217 123.5904846191406 L 74.17807006835938 2.940816164016724 L 145.7227630615234 123.5904846191406 Z" stroke="none"/>
        <path d="M 74.17807006835938 5.88165283203125 L 5.26678466796875 122.0904922485352 L 143.08935546875 122.0904922485352 L 74.17807006835938 5.88165283203125 M 74.17807006835938 -7.62939453125e-06 L 148.3561401367188 125.0904922485352 L 0 125.0904922485352 L 74.17807006835938 -7.62939453125e-06 Z" stroke="none" fill="#707070"/>
      </g>
      <g id="Rectángulo_5363" data-name="Rectángulo 5363" transform="translate(-5646.507 -4253.901) rotate(90)" fill="#fff" stroke="#707070" stroke-width="3">
        <rect width="15.972" height="45.446" rx="2" stroke="none"/>
        <rect x="1.5" y="1.5" width="12.972" height="42.446" rx="0.5" fill="none"/>
      </g>
      <g id="Rectángulo_5365" data-name="Rectángulo 5365" transform="translate(-5702.066 -4328.577) rotate(30)" fill="#fff" stroke="#707070" stroke-width="3">
        <rect width="15.972" height="45.446" rx="2" stroke="none"/>
        <rect x="1.5" y="1.5" width="12.972" height="42.446" rx="0.5" fill="none"/>
      </g>
      <g id="Rectángulo_5437" data-name="Rectángulo 5437" transform="translate(-5614.006 -4289.219) rotate(150)" fill="#fff" stroke="#707070" stroke-width="3">
        <rect width="15.972" height="45.446" rx="2" stroke="none"/>
        <rect x="1.5" y="1.5" width="12.972" height="42.446" rx="0.5" fill="none"/>
      </g>
      <circle id="Elipse_4120" data-name="Elipse 4120" cx="4.72" cy="4.72" r="4.72" transform="translate(-5673.173 -4376.256)" fill="#707070"/>
      <circle id="Elipse_4121" data-name="Elipse 4121" cx="4.72" cy="4.72" r="4.72" transform="translate(-5600.55 -4250.635)" fill="#707070"/>
      <circle id="Elipse_4122" data-name="Elipse 4122" cx="4.72" cy="4.72" r="4.72" transform="translate(-5746.107 -4250.635)" fill="#707070"/>
      <text id="VTR" transform="translate(-5893.17 -4269.675)" fill="#636363" font-size="18" font-family="Roboto-Black, Roboto" font-weight="800"><tspan x="4.376" y="17">V</tspan><tspan y="17" font-size="10.499" baseline-shift="-5.999400079342301">TR</tspan></text>
      <text id="VTR-2" data-name="VTR" transform="translate(-5773.241 -4338.177)" fill="#18821f" font-size="16" font-family="Roboto-Black, Roboto" font-weight="800"><tspan x="1.519" y="15">V</tspan><tspan y="15" font-size="9.333" baseline-shift="-5.33279994943018">T</tspan><tspan x="6.702" y="39" font-size="9.333" baseline-shift="-5.33279994943018">R</tspan></text>
      <text id="VRS" transform="translate(-5599.805 -4338.177)" fill="#18821f" font-size="16" font-family="Roboto-Black, Roboto" font-weight="800"><tspan x="1.417" y="15">V</tspan><tspan y="15" font-size="9.333" baseline-shift="-5.33279994943018">R</tspan><tspan x="6.825" y="39" font-size="9.333" baseline-shift="-5.33279994943018">S</tspan></text>
      <text id="VST" transform="translate(-5684.314 -4216.169)" fill="#18821f" font-size="16" font-family="Roboto-Black, Roboto" font-weight="800"><tspan x="5.907" y="15">V</tspan><tspan y="15" font-size="9.333" baseline-shift="-5.33279994943018">ST</tspan></text>
      <text id="IR" transform="translate(-5791.589 -4365.009)" fill="#ff3b4e" font-size="16" font-family="Roboto-Black, Roboto" font-weight="800"><tspan x="2.826" y="15">I</tspan><tspan y="15" font-size="9.333" baseline-shift="-5.33279994943018">R</tspan></text>
      <text id="ITR" transform="translate(-5746.107 -4294.816)" fill="#c82494" font-size="16" font-family="Roboto-Black, Roboto" font-weight="800"><tspan x="2.928" y="15">I</tspan><tspan y="15" font-size="9.333" baseline-shift="-5.33279994943018">T</tspan><tspan x="5.24" y="39" font-size="9.333" baseline-shift="-5.33279994943018">R</tspan></text>
      <text id="IRS" transform="translate(-5642.669 -4354.758)" fill="#c82494" font-size="16" font-family="Roboto-Black, Roboto" font-weight="800"><tspan x="1.854" y="15">I</tspan><tspan y="15" font-size="9.333" baseline-shift="-5.33279994943018">RS</tspan></text>
      <text id="IST" transform="translate(-5641.227 -4245.791)" fill="#c82494" font-size="16" font-family="Roboto-Black, Roboto" font-weight="800"><tspan x="1.956" y="15">I</tspan><tspan y="15" font-size="9.333" baseline-shift="-5.33279994943018">ST</tspan></text>
      <text id="IS" transform="translate(-5678.689 -4172.443)" fill="#ff3b4e" font-size="16" font-family="Roboto-Black, Roboto" font-weight="800"><tspan x="2.949" y="15">I</tspan><tspan y="15" font-size="9.333" baseline-shift="-5.33279994943018">S</tspan></text>
      <text id="IT" transform="translate(-5791.589 -4123.357)" fill="#ff3b4e" font-size="16" font-family="Roboto-Black, Roboto" font-weight="800"><tspan x="2.928" y="15">I</tspan><tspan y="15" font-size="9.333" baseline-shift="-5.33279994943018">T</tspan></text>
      <text id="VRS-2" data-name="VRS" transform="translate(-5808.465 -4233.998)" fill="#636363" font-size="18" font-family="Roboto-Black, Roboto" font-weight="800"><tspan x="4.399" y="17">V</tspan><tspan y="17" font-size="10.499" baseline-shift="-5.999400079342301">RS</tspan></text>
      <text id="VST-2" data-name="VST" transform="translate(-5808.465 -4181.964)" fill="#636363" font-size="18" font-family="Roboto-Black, Roboto" font-weight="800"><tspan x="4.514" y="17">V</tspan><tspan y="17" font-size="10.499" baseline-shift="-5.999400079342301">ST</tspan></text>
      <text id="R" transform="translate(-5693.402 -4383.575)" fill="#12263f" font-size="13" font-family="Roboto-Black, Roboto" font-weight="800"><tspan x="3.069" y="12">R</tspan></text>
      <text id="S" transform="translate(-5847.195 -4201.298)" fill="#12263f" font-size="13" font-family="Roboto-Black, Roboto" font-weight="800"><tspan x="3.241" y="12">S</tspan></text>
      <text id="S-2" data-name="S" transform="translate(-5587.558 -4252.688)" fill="#12263f" font-size="13" font-family="Roboto-Black, Roboto" font-weight="800"><tspan x="-4.069" y="12">S</tspan></text>
      <text id="Z" transform="translate(-5657.918 -4304.905)" fill="#12263f" font-size="18" font-family="Roboto-Black, Roboto" font-weight="800"><tspan x="1.821" y="17">Z</tspan></text>
      <text id="Z-2" data-name="Z" transform="translate(-5675.89 -4274.428)" fill="#12263f" font-size="18" font-family="Roboto-Black, Roboto" font-weight="800"><tspan x="1.821" y="17">Z</tspan></text>
      <text id="Z-3" data-name="Z" transform="translate(-5690.819 -4305.29)" fill="#12263f" font-size="18" font-family="Roboto-Black, Roboto" font-weight="800"><tspan x="1.821" y="17">Z</tspan></text>
      <text id="T" transform="translate(-5763.289 -4252.688)" fill="#12263f" font-size="13" font-family="Roboto-Black, Roboto" font-weight="800"><tspan x="3.212" y="12">T</tspan></text>
      <g id="Grupo_55509" data-name="Grupo 55509" transform="translate(-5856.498 -4144.364) rotate(-90)">
        <path id="Trazado_107177" data-name="Trazado 107177" d="M0,0V216.6" transform="translate(11.351 4.652) rotate(-90)" fill="none" stroke="#afafaf" stroke-width="2"/>
        <path id="Trazado_107179" data-name="Trazado 107179" d="M13.322,5.913l2,3.285-.155.1L7.75,6.356,0,4.651,7.75,2.946,15.165,0l.155.078-2,3.311Z" transform="translate(238.321 9.302) rotate(180)" fill="#afafaf"/>
        <path id="Trazado_107216" data-name="Trazado 107216" d="M13.322,5.913l2,3.285-.155.1L7.75,6.356,0,4.651,7.75,2.946,15.165,0l.155.078-2,3.311Z" transform="translate(0 0)" fill="#afafaf"/>
      </g>
      <g id="Grupo_55510" data-name="Grupo 55510" transform="translate(-5825.333 -4203.101) rotate(-90)">
        <path id="Trazado_107177-2" data-name="Trazado 107177" d="M0,0V159.65" transform="translate(10.46 4.652) rotate(-90)" fill="none" stroke="#afafaf" stroke-width="2"/>
        <path id="Trazado_107179-2" data-name="Trazado 107179" d="M13.322,5.913l2,3.285-.155.1L7.75,6.356,0,4.651,7.75,2.946,15.165,0l.155.078-2,3.311Z" transform="translate(180.475 9.302) rotate(180)" fill="#afafaf"/>
        <path id="Trazado_107216-2" data-name="Trazado 107216" d="M13.322,5.913l2,3.285-.155.1L7.75,6.356,0,4.651,7.75,2.946,15.165,0l.155.078-2,3.311Z" transform="translate(0 0)" fill="#afafaf"/>
      </g>
      <g id="Grupo_55597" data-name="Grupo 55597" transform="translate(-5724.789 -4223.208)">
        <path id="Trazado_107177-3" data-name="Trazado 107177" d="M0,0V97.655" transform="translate(10.46 5.341) rotate(-90)" fill="none" stroke="#18821f" stroke-width="2"/>
        <path id="Trazado_107179-3" data-name="Trazado 107179" d="M13.322,6.79l2,3.772-.155.119L7.75,7.3,0,5.34,7.75,3.382,15.165,0l.155.09-2,3.8Z" transform="translate(118.48 10.681) rotate(180)" fill="#18821f"/>
        <path id="Trazado_107216-3" data-name="Trazado 107216" d="M13.322,6.79l2,3.772-.155.119L7.75,7.3,0,5.34,7.75,3.382,15.165,0l.155.09-2,3.8Z" transform="translate(0 0)" fill="#18821f"/>
      </g>
      <g id="Grupo_55598" data-name="Grupo 55598" transform="matrix(0.454, -0.891, 0.891, 0.454, -5777.76, -4273.499)">
        <path id="Trazado_107177-4" data-name="Trazado 107177" d="M0,0V97.655" transform="translate(10.46 5.341) rotate(-90)" fill="none" stroke="#18821f" stroke-width="2"/>
        <path id="Trazado_107179-4" data-name="Trazado 107179" d="M13.322,6.79l2,3.772-.155.119L7.75,7.3,0,5.34,7.75,3.382,15.165,0l.155.09-2,3.8Z" transform="translate(118.48 10.681) rotate(180)" fill="#18821f"/>
        <path id="Trazado_107216-4" data-name="Trazado 107216" d="M13.322,6.79l2,3.772-.155.119L7.75,7.3,0,5.34,7.75,3.382,15.165,0l.155.09-2,3.8Z" transform="translate(0 0)" fill="#18821f"/>
      </g>
      <g id="Grupo_55599" data-name="Grupo 55599" transform="matrix(-0.454, -0.891, 0.891, -0.454, -5582.188, -4268.649)">
        <path id="Trazado_107177-5" data-name="Trazado 107177" d="M0,97.655V0" transform="translate(108.115 5.34) rotate(90)" fill="none" stroke="#18821f" stroke-width="2"/>
        <path id="Trazado_107179-5" data-name="Trazado 107179" d="M13.322,3.891l2-3.772L15.165,0,7.75,3.383,0,5.34,7.75,7.3l7.415,3.382.155-.09-2-3.8Z" transform="translate(118.48 10.681) rotate(180)" fill="#18821f"/>
        <path id="Trazado_107216-5" data-name="Trazado 107216" d="M13.322,3.891l2-3.772L15.165,0,7.75,3.383,0,5.34,7.75,7.3l7.415,3.382.155-.09-2-3.8Z" transform="translate(0 0)" fill="#18821f"/>
      </g>
      <g id="Grupo_55511" data-name="Grupo 55511" transform="translate(-5825.333 -4139.447) rotate(-90)">
        <path id="Trazado_107177-6" data-name="Trazado 107177" d="M0,0V27.906" transform="translate(9.647 4.652) rotate(-90)" fill="none" stroke="#afafaf" stroke-width="2"/>
        <path id="Trazado_107179-6" data-name="Trazado 107179" d="M13.322,5.913l2,3.285-.155.1L7.75,6.356,0,4.651,7.75,2.946,15.165,0l.155.078-2,3.311Z" transform="translate(47.919 9.302) rotate(180)" fill="#afafaf"/>
        <path id="Trazado_107216-6" data-name="Trazado 107216" d="M13.322,5.913l2,3.285-.155.1L7.75,6.356,0,4.651,7.75,2.946,15.165,0l.155.078-2,3.311Z" transform="translate(0 0)" fill="#afafaf"/>
      </g>
      <g id="Grupo_55512" data-name="Grupo 55512" transform="translate(-5796.292 -4106.913)">
        <path id="Trazado_107177-7" data-name="Trazado 107177" d="M0,0V32.63" transform="translate(0 4.652) rotate(-90)" fill="none" stroke="#ff3b4e" stroke-width="2"/>
        <path id="Trazado_107179-7" data-name="Trazado 107179" d="M13.322,5.913l2,3.285-.155.1L7.75,6.356,0,4.651,7.75,2.946,15.165,0l.155.078-2,3.311Z" transform="translate(42.995 9.302) rotate(180)" fill="#ff3b4e"/>
      </g>
      <g id="Grupo_55513" data-name="Grupo 55513" transform="translate(-5690.728 -4181.746)">
        <path id="Trazado_107177-8" data-name="Trazado 107177" d="M0,0V32.63" transform="translate(0 4.652) rotate(-90)" fill="none" stroke="#ff3b4e" stroke-width="2"/>
        <path id="Trazado_107179-8" data-name="Trazado 107179" d="M13.322,5.913l2,3.285-.155.1L7.75,6.356,0,4.651,7.75,2.946,15.165,0l.155.078-2,3.311Z" transform="translate(42.995 9.302) rotate(180)" fill="#ff3b4e"/>
      </g>
      <g id="Grupo_55514" data-name="Grupo 55514" transform="translate(-5796.292 -4375.245)">
        <path id="Trazado_107177-9" data-name="Trazado 107177" d="M0,0V32.63" transform="translate(0 4.652) rotate(-90)" fill="none" stroke="#ff3b4e" stroke-width="2"/>
        <path id="Trazado_107179-9" data-name="Trazado 107179" d="M13.322,5.913l2,3.285-.155.1L7.75,6.356,0,4.651,7.75,2.946,15.165,0l.155.078-2,3.311Z" transform="translate(42.995 9.302) rotate(180)" fill="#ff3b4e"/>
      </g>
      <g id="Grupo_55515" data-name="Grupo 55515" transform="translate(-5737.377 -4294.657) rotate(-62)">
        <path id="Trazado_107177-10" data-name="Trazado 107177" d="M0,0V32.63" transform="translate(0 4.652) rotate(-90)" fill="none" stroke="#c82494" stroke-width="2"/>
        <path id="Trazado_107179-10" data-name="Trazado 107179" d="M13.322,5.913l2,3.285-.155.1L7.75,6.356,0,4.651,7.75,2.946,15.165,0l.155.078-2,3.311Z" transform="translate(42.995 9.302) rotate(180)" fill="#c82494"/>
      </g>
      <g id="Grupo_55516" data-name="Grupo 55516" transform="translate(-5621.303 -4332.176) rotate(60)">
        <path id="Trazado_107177-11" data-name="Trazado 107177" d="M0,32.63V0" transform="translate(32.63 4.651) rotate(90)" fill="none" stroke="#c82494" stroke-width="2"/>
        <path id="Trazado_107179-11" data-name="Trazado 107179" d="M13.322,3.389,15.32.1,15.165,0,7.75,2.946,0,4.651,7.75,6.356,15.165,9.3l.155-.078-2-3.311Z" transform="translate(42.995 9.302) rotate(180)" fill="#c82494"/>
      </g>
      <g id="Grupo_55517" data-name="Grupo 55517" transform="translate(-5647.823 -4224.695) rotate(-180)">
        <path id="Trazado_107177-12" data-name="Trazado 107177" d="M0,32.63V0" transform="translate(32.63 4.651) rotate(90)" fill="none" stroke="#c82494" stroke-width="2"/>
        <path id="Trazado_107179-12" data-name="Trazado 107179" d="M13.322,3.389,15.32.1,15.165,0,7.75,2.946,0,4.651,7.75,6.356,15.165,9.3l.155-.078-2-3.311Z" transform="translate(42.995 9.302) rotate(180)" fill="#c82494"/>
      </g>
      <path id="Trazado_107251" data-name="Trazado 107251" d="M-5492.036-4756.074V-4778H-5680" transform="translate(-176.497 385.653)" fill="none" stroke="#707070" stroke-width="3"/>
      <text id="_" data-name="+" transform="translate(-5617.56 -4212.527)" fill="#636363" font-size="13" font-family="Roboto-Black, Roboto" font-weight="800"><tspan x="2.375" y="12">+</tspan></text>
      <text id="_2" data-name="+" transform="translate(-5844.148 -4178.935)" fill="#636363" font-size="13" font-family="Roboto-Black, Roboto" font-weight="800"><tspan x="-3.472" y="12">+</tspan></text>
      <text id="_3" data-name="+" transform="translate(-5844.148 -4369.77)" fill="#636363" font-size="13" font-family="Roboto-Black, Roboto" font-weight="800"><tspan x="-3.472" y="12">+</tspan></text>
    </g>
    <g id="Grupo_55606" data-name="Grupo 55606" transform="translate(140 427)">
      <g id="Grupo_55605" data-name="Grupo 55605">
        <g id="Grupo_55602" data-name="Grupo 55602" transform="translate(-5569.079 -8096.189)">
          <text id="φ" transform="translate(889 3794)" fill="#afafaf" font-size="13" font-family="Roboto-Black, Roboto" font-weight="800"><tspan x="0" y="0">φ</tspan></text>
        </g>
        <g id="Grupo_55603" data-name="Grupo 55603" transform="translate(-5524.079 -8046.845)">
          <text id="φ-2" data-name="φ" transform="translate(889 3794)" fill="#afafaf" font-size="13" font-family="Roboto-Black, Roboto" font-weight="800"><tspan x="0" y="0">φ</tspan></text>
        </g>
        <g id="Grupo_55604" data-name="Grupo 55604" transform="translate(-5598.079 -8028.845)">
          <text id="φ-3" data-name="φ" transform="translate(889 3794)" fill="#afafaf" font-size="13" font-family="Roboto-Black, Roboto" font-weight="800"><tspan x="0" y="0">φ</tspan></text>
        </g>
        <path id="Trazado_107252" data-name="Trazado 107252" d="M-8213.833-436.93a20.4,20.4,0,0,1,14.689,16.518" transform="translate(-4243.149 -12498.333) rotate(-90)" fill="none" stroke="#afafaf" stroke-width="1"/>
        <path id="Trazado_107254" data-name="Trazado 107254" d="M-8213.833-436.93a20.4,20.4,0,0,1,14.689,16.518" transform="translate(-5073.491 3946.644) rotate(90)" fill="none" stroke="#afafaf" stroke-width="1"/>
        <path id="Trazado_107253" data-name="Trazado 107253" d="M-8213.833-436.93a20.4,20.4,0,0,1,14.689,16.518" transform="translate(-12897.309 -4678.516) rotate(-180)" fill="none" stroke="#afafaf" stroke-width="1"/>
      </g>
      <g id="Grupo_55601" data-name="Grupo 55601" transform="translate(93.825 3)">
        <g id="Grupo_55594" data-name="Grupo 55594">
          <path id="Trazado_107241" data-name="Trazado 107241" d="M-4829-4382l65.5,112h127" fill="none" stroke="#36653e" stroke-width="2"/>
          <path id="Trazado_107242" data-name="Trazado 107242" d="M-4829-4160.5l66-109.5" fill="none" stroke="#36653e" stroke-width="2"/>
          <path id="Trazado_107243" data-name="Trazado 107243" d="M15.393,6.833l2.309,3.8-.179.119-8.568-3.4L0,5.374,8.954,3.4,17.522,0,17.7.09,15.389,3.916Z" transform="translate(-4828.591 -4392.347) rotate(61)" fill="#36653e"/>
          <path id="Trazado_107244" data-name="Trazado 107244" d="M15.393,6.833l2.309,3.8-.179.119-8.568-3.4L0,5.374,8.954,3.4,17.522,0,17.7.09,15.389,3.916Z" transform="translate(-4624.149 -4264.626) rotate(-180)" fill="#36653e"/>
          <path id="Trazado_107245" data-name="Trazado 107245" d="M15.393,6.833l2.309,3.8-.179.119-8.568-3.4L0,5.374,8.954,3.4,17.522,0,17.7.09,15.389,3.916Z" transform="matrix(0.5, -0.866, 0.866, 0.5, -4839.781, -4153.022)" fill="#36653e"/>
        </g>
        <g id="Grupo_55596" data-name="Grupo 55596">
          <g id="Grupo_55595" data-name="Grupo 55595">
            <path id="Trazado_107246" data-name="Trazado 107246" d="M-4754-4318l-9,48,32,27.5" fill="none" stroke="#c82494" stroke-width="2"/>
            <path id="Trazado_107247" data-name="Trazado 107247" d="M-4809-4255l46.5-15" fill="none" stroke="#c82494" stroke-width="2"/>
          </g>
          <path id="Trazado_107248" data-name="Trazado 107248" d="M15.393,6.833l2.309,3.8-.179.119-8.568-3.4L0,5.374,8.954,3.4,17.522,0,17.7.09,15.389,3.916Z" transform="translate(-4747.171 -4325.783) rotate(100)" fill="#c82494"/>
          <path id="Trazado_107249" data-name="Trazado 107249" d="M15.393,6.833l2.309,3.8-.179.119-8.568-3.4L0,5.374,8.954,3.4,17.522,0,17.7.09,15.389,3.916Z" transform="matrix(-0.799, -0.602, 0.602, -0.799, -4725.336, -4231.381)" fill="#c82494"/>
          <path id="Trazado_107250" data-name="Trazado 107250" d="M15.393,6.833l2.309,3.8-.179.119-8.568-3.4L0,5.374,8.954,3.4,17.522,0,17.7.09,15.389,3.916Z" transform="translate(-4819.118 -4257.2) rotate(-19)" fill="#c82494"/>
        </g>
        <text id="VRS-3" data-name="VRS" transform="translate(-4864.5 -4387)" fill="#36653e" font-size="16" font-family="Roboto-Black, Roboto" font-weight="800"><tspan x="2.25" y="15">V</tspan><tspan y="15" font-size="9.333" baseline-shift="-5.33279994943018">RS</tspan></text>
        <text id="VTR-3" data-name="VTR" transform="translate(-4816.5 -4166.648)" fill="#36653e" font-size="16" font-family="Roboto-Black, Roboto" font-weight="800"><tspan x="2.229" y="15">V</tspan><tspan y="15" font-size="9.333" baseline-shift="-5.33279994943018">TR</tspan></text>
        <text id="VST-3" data-name="VST" transform="translate(-4657.5 -4302.648)" fill="#36653e" font-size="16" font-family="Roboto-Black, Roboto" font-weight="800"><tspan x="2.352" y="15">V</tspan><tspan y="15" font-size="9.333" baseline-shift="-5.33279994943018">ST</tspan></text>
        <text id="IRS-2" data-name="IRS" transform="translate(-4768.993 -4352.648)" fill="#c92296" font-size="16" font-family="Roboto-Black, Roboto" font-weight="800"><tspan x="5.121" y="15">I</tspan><tspan y="15" font-size="9.333" baseline-shift="-5.33279994943018">RS</tspan></text>
        <text id="ITR-2" data-name="ITR" transform="translate(-4843.5 -4255.648)" fill="#c92296" font-size="16" font-family="Roboto-Black, Roboto" font-weight="800"><tspan x="5.1" y="15">I</tspan><tspan y="15" font-size="9.333" baseline-shift="-5.33279994943018">TR</tspan></text>
        <text id="IST-2" data-name="IST" transform="translate(-4721.5 -4231.381)" fill="#c92296" font-size="16" font-family="Roboto-Black, Roboto" font-weight="800"><tspan x="5.223" y="15">I</tspan><tspan y="15" font-size="9.333" baseline-shift="-5.33279994943018">ST</tspan></text>
      </g>
    </g>
    <g id="Grupo_55607" data-name="Grupo 55607" transform="translate(-5180 -7349.479)">
      <circle id="Elipse_4109" data-name="Elipse 4109" cx="14.5" cy="14.5" r="14.5" transform="translate(464 3637)" fill="#ad84ff"/>
      <path id="Trazado_704996" data-name="Trazado 704996" d="M6.932,19a3.716,3.716,0,0,1-.312-.947A3.06,3.06,0,0,1,4.08,19.2a3.749,3.749,0,0,1-2.539-.9A2.875,2.875,0,0,1,.5,16.021a2.955,2.955,0,0,1,1.27-2.6,6.468,6.468,0,0,1,3.691-.879H6.473v-.559q0-1.462-1.26-1.462a1.03,1.03,0,0,0-1.172,1.158H.75a2.95,2.95,0,0,1,1.3-2.487,5.479,5.479,0,0,1,3.325-.956,4.8,4.8,0,0,1,3.193.986,3.429,3.429,0,0,1,1.2,2.705v4.678a4.79,4.79,0,0,0,.449,2.227V19ZM4.871,16.852a1.836,1.836,0,0,0,1.021-.264,1.653,1.653,0,0,0,.581-.6V14.3H5.516Q3.8,14.3,3.8,15.846a.942.942,0,0,0,.3.728A1.1,1.1,0,0,0,4.871,16.852Zm8.76-1.045a1.874,1.874,0,0,1,1.3.464,1.619,1.619,0,0,1,0,2.373,2.049,2.049,0,0,1-2.6,0,1.618,1.618,0,0,1,0-2.363A1.858,1.858,0,0,1,13.631,15.807Z" transform="translate(471 3638)" fill="#12263f"/>
    </g>
    <g id="Grupo_55608" data-name="Grupo 55608" transform="translate(-4929 -7349.479)">
      <circle id="Elipse_4109-2" data-name="Elipse 4109" cx="14.5" cy="14.5" r="14.5" transform="translate(464 3637)" fill="#ad84ff"/>
      <path id="Trazado_704997" data-name="Trazado 704997" d="M13.08,13.8A6.44,6.44,0,0,1,12.006,17.8a3.6,3.6,0,0,1-3.027,1.4,3.122,3.122,0,0,1-2.6-1.279L6.244,19H3.295V4H6.586V9.283A3.013,3.013,0,0,1,8.959,8.238a3.6,3.6,0,0,1,3.047,1.416,6.473,6.473,0,0,1,1.074,3.984Zm-3.3-.21a4.3,4.3,0,0,0-.405-2.169,1.366,1.366,0,0,0-1.245-.648,1.576,1.576,0,0,0-1.543.848v4.192a1.585,1.585,0,0,0,1.563.838,1.4,1.4,0,0,0,1.475-1.131A8.121,8.121,0,0,0,9.779,13.595Zm6.787,2.212a1.874,1.874,0,0,1,1.3.464,1.619,1.619,0,0,1,0,2.373,2.049,2.049,0,0,1-2.6,0,1.618,1.618,0,0,1,0-2.363A1.858,1.858,0,0,1,16.566,15.807Z" transform="translate(469 3638)" fill="#12263f"/>
    </g>
  </g>
</svg>
