<svg xmlns="http://www.w3.org/2000/svg" width="403" height="260" viewBox="0 0 403 260">
  <g id="Grupo_974138" data-name="Grupo 974138" transform="translate(-234 -5459)">
    <g id="Grupo_974134" data-name="Grupo 974134" transform="translate(234 5459.324)">
      <g id="Rectángulo_339706" data-name="Rectángulo 339706" transform="translate(0 -0.324)" fill="#ecebe0" stroke="#707070" stroke-width="1">
        <rect width="403" height="260" rx="7" stroke="none"/>
        <rect x="0.5" y="0.5" width="402" height="259" rx="6.5" fill="none"/>
      </g>
      <g id="Grupo_974118" data-name="Grupo 974118" transform="translate(14.219 7.262)">
        <path id="Trazado_704961" data-name="Trazado 704961" d="M410-10071.5H792.7" transform="translate(-410 10071.5)" fill="none" stroke="#b8b8b8" stroke-linecap="round" stroke-width="1" stroke-dasharray="0.1 6"/>
        <path id="Trazado_704967" data-name="Trazado 704967" d="M410-10071.5H792.7" transform="translate(-410 10119.007)" fill="none" stroke="#b8b8b8" stroke-linecap="round" stroke-width="1" stroke-dasharray="0.1 6"/>
        <path id="Trazado_704958" data-name="Trazado 704958" d="M410-10071.5H792.7" transform="translate(-410 10095.255)" fill="none" stroke="#b8b8b8" stroke-linecap="round" stroke-width="1" stroke-dasharray="0.1 6"/>
        <path id="Trazado_704964" data-name="Trazado 704964" d="M410-10071.5H792.7" transform="translate(-410 10142.761)" fill="none" stroke="#b8b8b8" stroke-linecap="round" stroke-width="1" stroke-dasharray="0.1 6"/>
        <path id="Trazado_704960" data-name="Trazado 704960" d="M410-10071.5H792.7" transform="translate(-410 10078.733)" fill="none" stroke="#b8b8b8" stroke-linecap="round" stroke-width="1" stroke-dasharray="0.1 6"/>
        <path id="Trazado_704966" data-name="Trazado 704966" d="M410-10071.5H792.7" transform="translate(-410 10126.24)" fill="none" stroke="#b8b8b8" stroke-linecap="round" stroke-width="1" stroke-dasharray="0.1 6"/>
        <path id="Trazado_704957" data-name="Trazado 704957" d="M410-10071.5H792.7" transform="translate(-410 10102.488)" fill="none" stroke="#b8b8b8" stroke-linecap="round" stroke-width="1" stroke-dasharray="0.1 6"/>
        <path id="Trazado_704963" data-name="Trazado 704963" d="M410-10071.5H792.7" transform="translate(-410 10149.995)" fill="none" stroke="#b8b8b8" stroke-linecap="round" stroke-width="1" stroke-dasharray="0.1 6"/>
        <path id="Trazado_704959" data-name="Trazado 704959" d="M410-10071.5H792.7" transform="translate(-410 10085.97)" fill="none" stroke="#b8b8b8" stroke-linecap="round" stroke-width="1" stroke-dasharray="0.1 6"/>
        <path id="Trazado_704965" data-name="Trazado 704965" d="M410-10071.5H792.7" transform="translate(-410 10133.477)" fill="none" stroke="#b8b8b8" stroke-linecap="round" stroke-width="1" stroke-dasharray="0.1 6"/>
        <path id="Trazado_704956" data-name="Trazado 704956" d="M410-10071.5H792.7" transform="translate(-410 10109.722)" fill="none" stroke="#b8b8b8" stroke-linecap="round" stroke-width="1" stroke-dasharray="0.1 6"/>
        <path id="Trazado_704962" data-name="Trazado 704962" d="M410-10071.5H792.7" transform="translate(-410 10157.229)" fill="none" stroke="#b8b8b8" stroke-linecap="round" stroke-width="1" stroke-dasharray="0.1 6"/>
      </g>
      <g id="Grupo_974121" data-name="Grupo 974121" transform="translate(14.219 195.355)">
        <path id="Trazado_704961-2" data-name="Trazado 704961" d="M410-10071.5H792.7" transform="translate(-410 10071.5)" fill="none" stroke="#b8b8b8" stroke-linecap="round" stroke-width="1" stroke-dasharray="0.1 6"/>
        <path id="Trazado_704967-2" data-name="Trazado 704967" d="M410-10071.5H792.7" transform="translate(-410 10119.007)" fill="none" stroke="#b8b8b8" stroke-linecap="round" stroke-width="1" stroke-dasharray="0.1 6"/>
        <path id="Trazado_704958-2" data-name="Trazado 704958" d="M410-10071.5H792.7" transform="translate(-410 10095.255)" fill="none" stroke="#b8b8b8" stroke-linecap="round" stroke-width="1" stroke-dasharray="0.1 6"/>
        <path id="Trazado_704960-2" data-name="Trazado 704960" d="M410-10071.5H792.7" transform="translate(-410 10078.733)" fill="none" stroke="#b8b8b8" stroke-linecap="round" stroke-width="1" stroke-dasharray="0.1 6"/>
        <path id="Trazado_704957-2" data-name="Trazado 704957" d="M410-10071.5H792.7" transform="translate(-410 10102.488)" fill="none" stroke="#b8b8b8" stroke-linecap="round" stroke-width="1" stroke-dasharray="0.1 6"/>
        <path id="Trazado_704959-2" data-name="Trazado 704959" d="M410-10071.5H792.7" transform="translate(-410 10085.97)" fill="none" stroke="#b8b8b8" stroke-linecap="round" stroke-width="1" stroke-dasharray="0.1 6"/>
        <path id="Trazado_704956-2" data-name="Trazado 704956" d="M410-10071.5H792.7" transform="translate(-410 10109.722)" fill="none" stroke="#b8b8b8" stroke-linecap="round" stroke-width="1" stroke-dasharray="0.1 6"/>
      </g>
      <g id="Grupo_974119" data-name="Grupo 974119" transform="translate(14.219 101.307)">
        <path id="Trazado_704961-3" data-name="Trazado 704961" d="M410-10071.5H792.7" transform="translate(-410 10071.5)" fill="none" stroke="#b8b8b8" stroke-linecap="round" stroke-width="1" stroke-dasharray="0.1 6"/>
        <path id="Trazado_704967-3" data-name="Trazado 704967" d="M410-10071.5H792.7" transform="translate(-410 10119.007)" fill="none" stroke="#b8b8b8" stroke-linecap="round" stroke-width="1" stroke-dasharray="0.1 6"/>
        <path id="Trazado_704958-3" data-name="Trazado 704958" d="M410-10071.5H792.7" transform="translate(-410 10095.255)" fill="none" stroke="#b8b8b8" stroke-linecap="round" stroke-width="1" stroke-dasharray="0.1 6"/>
        <path id="Trazado_704964-2" data-name="Trazado 704964" d="M410-10071.5H792.7" transform="translate(-410 10142.761)" fill="none" stroke="#b8b8b8" stroke-linecap="round" stroke-width="1" stroke-dasharray="0.1 6"/>
        <path id="Trazado_704960-3" data-name="Trazado 704960" d="M410-10071.5H792.7" transform="translate(-410 10078.733)" fill="none" stroke="#b8b8b8" stroke-linecap="round" stroke-width="1" stroke-dasharray="0.1 6"/>
        <path id="Trazado_704966-2" data-name="Trazado 704966" d="M410-10071.5H792.7" transform="translate(-410 10126.24)" fill="none" stroke="#b8b8b8" stroke-linecap="round" stroke-width="1" stroke-dasharray="0.1 6"/>
        <path id="Trazado_704957-3" data-name="Trazado 704957" d="M410-10071.5H792.7" transform="translate(-410 10102.488)" fill="none" stroke="#b8b8b8" stroke-linecap="round" stroke-width="1" stroke-dasharray="0.1 6"/>
        <path id="Trazado_704963-2" data-name="Trazado 704963" d="M410-10071.5H792.7" transform="translate(-410 10149.995)" fill="none" stroke="#b8b8b8" stroke-linecap="round" stroke-width="1" stroke-dasharray="0.1 6"/>
        <path id="Trazado_704959-3" data-name="Trazado 704959" d="M410-10071.5H792.7" transform="translate(-410 10085.97)" fill="none" stroke="#b8b8b8" stroke-linecap="round" stroke-width="1" stroke-dasharray="0.1 6"/>
        <path id="Trazado_704965-2" data-name="Trazado 704965" d="M410-10071.5H792.7" transform="translate(-410 10133.477)" fill="none" stroke="#b8b8b8" stroke-linecap="round" stroke-width="1" stroke-dasharray="0.1 6"/>
        <path id="Trazado_704956-3" data-name="Trazado 704956" d="M410-10071.5H792.7" transform="translate(-410 10109.722)" fill="none" stroke="#b8b8b8" stroke-linecap="round" stroke-width="1" stroke-dasharray="0.1 6"/>
        <path id="Trazado_704962-2" data-name="Trazado 704962" d="M410-10071.5H792.7" transform="translate(-410 10157.229)" fill="none" stroke="#b8b8b8" stroke-linecap="round" stroke-width="1" stroke-dasharray="0.1 6"/>
      </g>
      <g id="Grupo_974122" data-name="Grupo 974122" transform="translate(36.77 36.311)">
        <g id="Grupo_974117" data-name="Grupo 974117" transform="translate(0 42.963)">
          <g id="Elipse_4232" data-name="Elipse 4232" transform="translate(0 11.344)" fill="#fff" stroke="red" stroke-width="1">
            <circle cx="21.268" cy="21.268" r="21.268" stroke="none"/>
            <circle cx="21.268" cy="21.268" r="20.768" fill="none"/>
          </g>
          <path id="Trazado_704944" data-name="Trazado 704944" d="M453-9891v11.344" transform="translate(-431.732 9943.462)" fill="none" stroke="red" stroke-width="1"/>
          <path id="Trazado_704945" data-name="Trazado 704945" d="M453-9891v11.344" transform="translate(-431.732 9890.999)" fill="none" stroke="red" stroke-width="1"/>
          <path id="Trazado_704946" data-name="Trazado 704946" d="M436.333-9985.066a5.468,5.468,0,0,1,6.1-4.912c5.672.271,4.773,4.912,4.773,4.912s-1.654,6.394,4.868,5.857,5.53-5.857,5.53-5.857" transform="translate(-425.699 10016.364)" fill="none" stroke="red" stroke-width="1"/>
        </g>
        <g id="Trazado_705164" data-name="Trazado 705164" transform="translate(91.343 119.53)" fill="#272121">
          <path d="M 34.94709396362305 9.425183296203613 L 0.5000050663948059 9.425183296203613 L 0.5000050663948059 0.5000030994415283 L 34.94709396362305 0.5000030994415283 L 34.94709396362305 9.425183296203613 Z" stroke="none"/>
          <path d="M 0.9999961853027344 1.000002861022949 L 0.9999961853027344 8.925183296203613 L 34.44708633422852 8.925183296203613 L 34.44708633422852 1.000002861022949 L 0.9999961853027344 1.000002861022949 M -3.814697265625e-06 2.86102294921875e-06 L 35.44708633422852 2.86102294921875e-06 L 35.44708633422852 9.925183296203613 L -3.814697265625e-06 9.925183296203613 L -3.814697265625e-06 2.86102294921875e-06 Z" stroke="none" fill="red"/>
        </g>
        <g id="Trazado_705165" data-name="Trazado 705165" transform="translate(126.79 147.534) rotate(180)" fill="#272121">
          <path d="M 34.94709396362305 9.425183296203613 L 0.5000050663948059 9.425183296203613 L 0.5000050663948059 0.5000030994415283 L 34.94709396362305 0.5000030994415283 L 34.94709396362305 9.425183296203613 Z" stroke="none"/>
          <path d="M 0.9999961853027344 1.000002861022949 L 0.9999961853027344 8.925183296203613 L 34.44708633422852 8.925183296203613 L 34.44708633422852 1.000002861022949 L 0.9999961853027344 1.000002861022949 M -3.814697265625e-06 2.86102294921875e-06 L 35.44708633422852 2.86102294921875e-06 L 35.44708633422852 9.925183296203613 L -3.814697265625e-06 9.925183296203613 L -3.814697265625e-06 2.86102294921875e-06 Z" stroke="none" fill="red"/>
        </g>
        <path id="Trazado_705166" data-name="Trazado 705166" d="M0,0V18.432" transform="translate(109.067 101.806)" fill="none" stroke="red" stroke-width="1"/>
        <path id="Trazado_705167" data-name="Trazado 705167" d="M0,0V18.432" transform="translate(109.067 165.257) rotate(180)" fill="none" stroke="red" stroke-width="1"/>
        <path id="Trazado_704947" data-name="Trazado 704947" d="M505.963-10038.666v8.506l5.908,4.254-10.87,3.783,10.87,5.2-10.87,3.779,10.87,4.727-10.87,4.256,4.963,3.307v10.871" transform="translate(-396.896 10039.565)" fill="none" stroke="#c82525" stroke-width="1"/>
        <path id="Trazado_704948" data-name="Trazado 704948" d="M506.594-10039.295v9.452l5.276,4.208-10.87,3.783,10.87,5.2-10.87,3.782,10.87,4.726-10.87,4.254,6.742,3.5v10.871" transform="translate(-274.515 10039.295)" fill="none" stroke="#c82525" stroke-width="1"/>
        <path id="Trazado_705168" data-name="Trazado 705168" d="M4.247,8.617H2.729V12H.825V2.758H4.259a3.882,3.882,0,0,1,2.526.73,2.519,2.519,0,0,1,.889,2.063,2.843,2.843,0,0,1-.409,1.577A2.792,2.792,0,0,1,6.024,8.134l2,3.777V12H5.979ZM2.729,7.074H4.266a1.573,1.573,0,0,0,1.111-.365A1.3,1.3,0,0,0,5.77,5.7,1.4,1.4,0,0,0,5.4,4.675,1.543,1.543,0,0,0,4.259,4.3H2.729ZM13.381,12H11.546V4.929l-2.19.679V4.116l3.828-1.371h.2Z" transform="translate(121.249 10.862)" fill="#12263f"/>
        <path id="Trazado_705169" data-name="Trazado 705169" d="M6.386,8.223H2.729V12H.825V2.758H6.843V4.3H2.729V6.687H6.386Zm4.977,1.485,2.095-6.951h2.12L12.359,12H10.372L7.167,2.758H9.28Zm9.826.387H17.85L17.215,12H15.19l3.44-9.242H20.4L23.854,12H21.83ZM18.364,8.553h2.311L19.513,5.094Zm13.476.368a3.27,3.27,0,0,1-1.1,2.349,3.868,3.868,0,0,1-2.618.857,3.478,3.478,0,0,1-2.8-1.2,4.906,4.906,0,0,1-1.019-3.285V7.081a5.54,5.54,0,0,1,.47-2.349,3.52,3.52,0,0,1,1.343-1.558,4.2,4.2,0,0,1,4.605.314,3.515,3.515,0,0,1,1.13,2.406h-1.9a1.93,1.93,0,0,0-.5-1.3,1.845,1.845,0,0,0-1.3-.4,1.618,1.618,0,0,0-1.425.682,3.824,3.824,0,0,0-.486,2.117v.7a4.093,4.093,0,0,0,.454,2.19,1.588,1.588,0,0,0,1.431.692,1.88,1.88,0,0,0,1.317-.4,1.821,1.821,0,0,0,.5-1.247Z" transform="translate(53.04 61.682)" fill="#12263f"/>
        <path id="Trazado_705170" data-name="Trazado 705170" d="M2.738,7H1.75V3.192L.571,3.558v-.8l2.061-.738h.106ZM7.7,4.942a2.521,2.521,0,0,1-.427,1.579,1.491,1.491,0,0,1-1.251.547,1.5,1.5,0,0,1-1.244-.537,2.447,2.447,0,0,1-.441-1.538V4.078A2.488,2.488,0,0,1,4.773,2.5a1.5,1.5,0,0,1,1.246-.54,1.5,1.5,0,0,1,1.244.535A2.44,2.44,0,0,1,7.7,4.026ZM6.716,3.935a1.822,1.822,0,0,0-.169-.9.572.572,0,0,0-.528-.282A.562.562,0,0,0,5.5,3.02a1.705,1.705,0,0,0-.176.84V5.071a1.913,1.913,0,0,0,.166.9.564.564,0,0,0,.531.3.555.555,0,0,0,.523-.284,1.867,1.867,0,0,0,.167-.869Zm5,1.007a2.521,2.521,0,0,1-.427,1.579,1.491,1.491,0,0,1-1.251.547A1.5,1.5,0,0,1,8.8,6.532a2.447,2.447,0,0,1-.441-1.538V4.078A2.488,2.488,0,0,1,8.789,2.5a1.5,1.5,0,0,1,1.246-.54,1.5,1.5,0,0,1,1.244.535,2.44,2.44,0,0,1,.441,1.536Zm-.988-1.007a1.822,1.822,0,0,0-.169-.9.572.572,0,0,0-.528-.282.562.562,0,0,0-.514.269,1.705,1.705,0,0,0-.176.84V5.071a1.913,1.913,0,0,0,.166.9.564.564,0,0,0,.531.3.555.555,0,0,0,.523-.284,1.867,1.867,0,0,0,.167-.869Z" transform="translate(121.249 26.458)" fill="#12263f"/>
        <path id="Trazado_705171" data-name="Trazado 705171" d="M2.738,7H1.75V3.192L.571,3.558v-.8l2.061-.738h.106ZM7.766,7H4.354V6.323l1.61-1.716a3.972,3.972,0,0,0,.49-.632,1.016,1.016,0,0,0,.159-.513.76.76,0,0,0-.167-.521.6.6,0,0,0-.479-.19.652.652,0,0,0-.528.231.914.914,0,0,0-.193.607H4.255a1.631,1.631,0,0,1,.217-.831,1.53,1.53,0,0,1,.614-.59,1.865,1.865,0,0,1,.9-.214,1.766,1.766,0,0,1,1.195.369A1.306,1.306,0,0,1,7.6,3.367a1.673,1.673,0,0,1-.191.752,4.179,4.179,0,0,1-.656.892L5.626,6.2h2.14ZM11.72,4.942a2.521,2.521,0,0,1-.427,1.579,1.491,1.491,0,0,1-1.251.547A1.5,1.5,0,0,1,8.8,6.532a2.447,2.447,0,0,1-.441-1.538V4.078A2.488,2.488,0,0,1,8.789,2.5a1.5,1.5,0,0,1,1.246-.54,1.5,1.5,0,0,1,1.244.535,2.44,2.44,0,0,1,.441,1.536Zm-.988-1.007a1.822,1.822,0,0,0-.169-.9.572.572,0,0,0-.528-.282.562.562,0,0,0-.514.269,1.705,1.705,0,0,0-.176.84V5.071a1.913,1.913,0,0,0,.166.9.564.564,0,0,0,.531.3.555.555,0,0,0,.523-.284,1.867,1.867,0,0,0,.167-.869Zm5.342,1.831L17.2,2.023h1.142L16.611,7h-1.07L13.815,2.023h1.138Zm5.291.208h-1.8L19.226,7h-1.09l1.853-4.977h.95L22.8,7h-1.09Zm-1.521-.831h1.244l-.625-1.863Zm7.256.2a1.761,1.761,0,0,1-.593,1.265,2.083,2.083,0,0,1-1.41.461,1.873,1.873,0,0,1-1.506-.644,2.642,2.642,0,0,1-.549-1.769v-.3A2.983,2.983,0,0,1,23.3,3.086a1.9,1.9,0,0,1,.723-.839,2.259,2.259,0,0,1,2.48.169,1.892,1.892,0,0,1,.608,1.3H26.083a1.039,1.039,0,0,0-.268-.7.994.994,0,0,0-.7-.217.871.871,0,0,0-.767.367,2.059,2.059,0,0,0-.261,1.14v.376a2.2,2.2,0,0,0,.244,1.179.855.855,0,0,0,.771.373,1.012,1.012,0,0,0,.709-.217.98.98,0,0,0,.268-.672Z" transform="translate(53.04 77.279)" fill="#12263f"/>
        <path id="Trazado_705172" data-name="Trazado 705172" d="M2.738,7H1.75V3.192L.571,3.558v-.8l2.061-.738h.106ZM7.7,4.942a2.521,2.521,0,0,1-.427,1.579,1.491,1.491,0,0,1-1.251.547,1.5,1.5,0,0,1-1.244-.537,2.447,2.447,0,0,1-.441-1.538V4.078A2.488,2.488,0,0,1,4.773,2.5a1.5,1.5,0,0,1,1.246-.54,1.5,1.5,0,0,1,1.244.535A2.44,2.44,0,0,1,7.7,4.026ZM6.716,3.935a1.822,1.822,0,0,0-.169-.9.572.572,0,0,0-.528-.282A.562.562,0,0,0,5.5,3.02a1.705,1.705,0,0,0-.176.84V5.071a1.913,1.913,0,0,0,.166.9.564.564,0,0,0,.531.3.555.555,0,0,0,.523-.284,1.867,1.867,0,0,0,.167-.869Zm2.6-.633.031.427a1.291,1.291,0,0,1,1.063-.5,1.073,1.073,0,0,1,.875.345,1.611,1.611,0,0,1,.294,1.032V7H10.6V4.635a.641.641,0,0,0-.137-.456A.612.612,0,0,0,10,4.037a.68.68,0,0,0-.625.355V7H8.391V3.3Z" transform="translate(130.823 133.68)" fill="#12263f"/>
        <path id="Trazado_705173" data-name="Trazado 705173" d="M3.75,7H.338V6.323l1.61-1.716a3.972,3.972,0,0,0,.49-.632A1.016,1.016,0,0,0,2.6,3.462a.76.76,0,0,0-.167-.521.6.6,0,0,0-.479-.19.652.652,0,0,0-.528.231.914.914,0,0,0-.193.607H.239a1.631,1.631,0,0,1,.217-.831,1.53,1.53,0,0,1,.614-.59,1.865,1.865,0,0,1,.9-.214,1.766,1.766,0,0,1,1.195.369,1.306,1.306,0,0,1,.426,1.042,1.673,1.673,0,0,1-.191.752,4.179,4.179,0,0,1-.656.892L1.61,6.2H3.75ZM7.7,4.942a2.521,2.521,0,0,1-.427,1.579,1.491,1.491,0,0,1-1.251.547,1.5,1.5,0,0,1-1.244-.537,2.447,2.447,0,0,1-.441-1.538V4.078A2.488,2.488,0,0,1,4.773,2.5a1.5,1.5,0,0,1,1.246-.54,1.5,1.5,0,0,1,1.244.535A2.44,2.44,0,0,1,7.7,4.026ZM6.716,3.935a1.822,1.822,0,0,0-.169-.9.572.572,0,0,0-.528-.282A.562.562,0,0,0,5.5,3.02a1.705,1.705,0,0,0-.176.84V5.071a1.913,1.913,0,0,0,.166.9.564.564,0,0,0,.531.3.555.555,0,0,0,.523-.284,1.867,1.867,0,0,0,.167-.869Zm5,1.007a2.521,2.521,0,0,1-.427,1.579,1.491,1.491,0,0,1-1.251.547A1.5,1.5,0,0,1,8.8,6.532a2.447,2.447,0,0,1-.441-1.538V4.078A2.488,2.488,0,0,1,8.789,2.5a1.5,1.5,0,0,1,1.246-.54,1.5,1.5,0,0,1,1.244.535,2.44,2.44,0,0,1,.441,1.536Zm-.988-1.007a1.822,1.822,0,0,0-.169-.9.572.572,0,0,0-.528-.282.562.562,0,0,0-.514.269,1.705,1.705,0,0,0-.176.84V5.071a1.913,1.913,0,0,0,.166.9.564.564,0,0,0,.531.3.555.555,0,0,0,.523-.284,1.867,1.867,0,0,0,.167-.869Z" transform="translate(244.253 26.458)" fill="#12263f"/>
        <path id="Trazado_705174" data-name="Trazado 705174" d="M2.738,7H1.75V3.192L.571,3.558v-.8l2.061-.738h.106ZM5.322,3.3l.031.414a1.3,1.3,0,0,1,1.063-.482A.986.986,0,0,1,7.4,3.8a1.27,1.27,0,0,1,1.111-.564,1.1,1.1,0,0,1,.9.35A1.61,1.61,0,0,1,9.7,4.638V7H8.706V4.642a.7.7,0,0,0-.123-.46.545.545,0,0,0-.434-.145.617.617,0,0,0-.615.424l0,2.54H6.549V4.645a.7.7,0,0,0-.126-.465.551.551,0,0,0-.431-.144.64.64,0,0,0-.608.349V7H4.4V3.3ZM14.571,7H13.545V4.867h-2V7H10.521V2.023h1.025V4.04h2V2.023h1.025Z" transform="translate(241.86 135.098)" fill="#12263f"/>
        <path id="Trazado_705175" data-name="Trazado 705175" d="M8.081,8.921a3.27,3.27,0,0,1-1.1,2.349,3.868,3.868,0,0,1-2.618.857,3.478,3.478,0,0,1-2.8-1.2A4.906,4.906,0,0,1,.546,7.646V7.081a5.54,5.54,0,0,1,.47-2.349A3.52,3.52,0,0,1,2.358,3.174a3.761,3.761,0,0,1,2.028-.543,3.768,3.768,0,0,1,2.577.857,3.515,3.515,0,0,1,1.13,2.406h-1.9a1.93,1.93,0,0,0-.5-1.3,1.845,1.845,0,0,0-1.3-.4,1.618,1.618,0,0,0-1.425.682,3.824,3.824,0,0,0-.486,2.117v.7a4.093,4.093,0,0,0,.454,2.19,1.588,1.588,0,0,0,1.431.692,1.88,1.88,0,0,0,1.317-.4,1.821,1.821,0,0,0,.5-1.247ZM13.59,12H11.756V4.929l-2.19.679V4.116l3.828-1.371h.2Z" transform="translate(130.823 119.53)" fill="#12263f"/>
        <path id="Trazado_705176" data-name="Trazado 705176" d="M2.729,10.47H6.773V12H.825V2.758h1.9ZM12.124,12H10.29V4.929L8.1,5.608V4.116l3.828-1.371h.2Z" transform="translate(241.86 119.53)" fill="#12263f"/>
        <path id="Trazado_705177" data-name="Trazado 705177" d="M3.593,7.137H2.31V10H.7V2.18H3.6A3.285,3.285,0,0,1,5.742,2.8a2.132,2.132,0,0,1,.752,1.746,2.406,2.406,0,0,1-.346,1.335,2.363,2.363,0,0,1-1.05.851l1.692,3.2V10H5.06ZM2.31,5.832h1.3a1.331,1.331,0,0,0,.94-.309,1.1,1.1,0,0,0,.333-.851,1.182,1.182,0,0,0-.314-.87A1.306,1.306,0,0,0,3.6,3.485H2.31ZM12.912,10H7.552V8.937l2.53-2.7a6.241,6.241,0,0,0,.771-.994,1.6,1.6,0,0,0,.25-.806,1.2,1.2,0,0,0-.263-.819.95.95,0,0,0-.752-.3,1.025,1.025,0,0,0-.83.363,1.436,1.436,0,0,0-.3.953H7.4a2.564,2.564,0,0,1,.341-1.305A2.4,2.4,0,0,1,8.7,2.408a2.93,2.93,0,0,1,1.413-.336,2.775,2.775,0,0,1,1.877.58,2.052,2.052,0,0,1,.669,1.638,2.629,2.629,0,0,1-.3,1.182,6.567,6.567,0,0,1-1.031,1.4L9.55,8.749h3.362Z" transform="translate(244.253 12.309)" fill="#12263f"/>
        <path id="Trazado_704949" data-name="Trazado 704949" d="M594.645-9965.89v10.774s-8.137-.742-8.157,4.409,7.822,4.537,7.822,4.537-8.187-.036-8.309,4.762,6.647,4.595,8.309,4.595-8.43-.482-8.309,4.81,8.309,5.116,8.309,5.116-8.613.331-8.309,4.938,8.309,4.987,8.309,4.987v9.643" transform="translate(-361.378 10068.756)" fill="none" stroke="#c82525" stroke-width="1"/>
      </g>
      <g id="Grupo_974130" data-name="Grupo 974130" transform="translate(58.056 21.54)">
        <path id="Trazado_704970" data-name="Trazado 704970" d="M-1466.548-8817.443V-8833l-87.937.15v58.637" transform="translate(1554.485 8833)" fill="none" stroke="#029e1c" stroke-width="1"/>
        <path id="Trazado_704971" data-name="Trazado 704971" d="M0,0V52.852" transform="translate(87.937 64.021)" fill="none" stroke="#029e1c" stroke-width="1"/>
        <path id="Trazado_704975" data-name="Trazado 704975" d="M0,0V29.118" transform="translate(87.937 179.898)" fill="none" stroke="#029e1c" stroke-width="1"/>
      </g>
      <path id="Trazado_704972" data-name="Trazado 704972" d="M-1554.667-7530.5v59.834" transform="translate(1612.722 7673.501)" fill="#3cb14d" stroke="#3cb14d" stroke-width="1"/>
      <path id="Trazado_704973" data-name="Trazado 704973" d="M-1358.02-6858.193v-14.359l-123.313-.114" transform="translate(1626.927 6894.605)" fill="none" stroke="#029e1c" stroke-width="1"/>
      <path id="Trazado_704974" data-name="Trazado 704974" d="M-1377.333-6819.333v55.046" transform="translate(1647.38 6903.897)" fill="none" stroke="#029e1c" stroke-width="1"/>
      <path id="Trazado_704976" data-name="Trazado 704976" d="M-1556-6735.88v30.315h211.991v-35.1" transform="translate(1614.056 6937.318)" fill="none" stroke="#029e1c" stroke-width="1"/>
      <circle id="Elipse_4236" data-name="Elipse 4236" cx="3" cy="3" r="3" transform="translate(44 108.676)" fill="red"/>
      <ellipse id="Elipse_4237" data-name="Elipse 4237" cx="4" cy="3.5" rx="4" ry="3.5" transform="translate(142 228.676)" fill="#029e1c"/>
      <ellipse id="Elipse_4238" data-name="Elipse 4238" cx="4" cy="3.5" rx="4" ry="3.5" transform="translate(142 17.676)" fill="#029e1c"/>
    </g>
    <g id="Grupo_974135" data-name="Grupo 974135" transform="translate(490.086 5466.504)">
      <g id="Trazado_705149" data-name="Trazado 705149" transform="translate(-0.086 0.496)" fill="#fff">
        <path d="M 87 136.5 L 2 136.5 C 1.172890901565552 136.5 0.5 135.8271026611328 0.5 135 L 0.5 2 C 0.5 1.172890901565552 1.172890901565552 0.5 2 0.5 L 87 0.5 C 87.82711029052734 0.5 88.5 1.172890901565552 88.5 2 L 88.5 135 C 88.5 135.8271026611328 87.82711029052734 136.5 87 136.5 Z" stroke="none"/>
        <path d="M 2 1 C 1.448600769042969 1 1 1.448593139648438 1 2 L 1 135 C 1 135.5514068603516 1.448600769042969 136 2 136 L 87 136 C 87.55139923095703 136 88 135.5514068603516 88 135 L 88 2 C 88 1.448593139648438 87.55139923095703 1 87 1 L 2 1 M 2 0 L 87 0 C 88.10456085205078 0 89 0.8954315185546875 89 2 L 89 135 C 89 136.1045684814453 88.10456085205078 137 87 137 L 2 137 C 0.8954391479492188 137 0 136.1045684814453 0 135 L 0 2 C 0 0.8954315185546875 0.8954391479492188 0 2 0 Z" stroke="none" fill="#707070"/>
      </g>
      <path id="Trazado_705150" data-name="Trazado 705150" d="M4.19,2.854H2.666V7H1.641V2.854H.137V2.023H4.19ZM7.769,4.843H5.8V6.176H8.111V7H4.775V2.023H8.1v.831H5.8V4.04H7.769Zm2.786.335H9.738V7H8.712V2.023h1.849a2.09,2.09,0,0,1,1.36.393A1.357,1.357,0,0,1,12.4,3.527a1.531,1.531,0,0,1-.22.849,1.5,1.5,0,0,1-.668.542l1.077,2.034V7h-1.1Zm-.817-.831h.827a.847.847,0,0,0,.6-.2.7.7,0,0,0,.212-.542.752.752,0,0,0-.2-.554.831.831,0,0,0-.614-.2H9.738ZM14.52,2.023,15.8,5.633l1.271-3.609h1.347V7H17.387V5.64l.1-2.348L16.146,7h-.7L14.1,3.295l.1,2.345V7H13.18V2.023ZM20.4,7H19.376V2.023H20.4Zm5,0H24.374l-2-3.274V7H21.352V2.023h1.025l2,3.281V2.023H25.4Zm3.767-1.025h-1.8L27.026,7h-1.09l1.853-4.977h.95L30.6,7h-1.09Zm-1.521-.831h1.244l-.625-1.863Zm4.447,1.032h2.177V7h-3.2V2.023h1.025Z" transform="translate(5.914 17.496)" fill="#12263f"/>
      <path id="Trazado_705151" data-name="Trazado 705151" d="M2.287,5.178H1.47V7H.444V2.023H2.293a2.09,2.09,0,0,1,1.36.393,1.357,1.357,0,0,1,.479,1.111,1.531,1.531,0,0,1-.22.849,1.5,1.5,0,0,1-.668.542L4.32,6.952V7H3.22ZM1.47,4.348H2.3a.847.847,0,0,0,.6-.2.7.7,0,0,0,.212-.542.752.752,0,0,0-.2-.554.831.831,0,0,0-.614-.2H1.47ZM8.217,7H4.806V6.323l1.61-1.716a3.972,3.972,0,0,0,.49-.632,1.016,1.016,0,0,0,.159-.513A.76.76,0,0,0,6.9,2.941a.6.6,0,0,0-.479-.19.652.652,0,0,0-.528.231.914.914,0,0,0-.193.607H4.707a1.631,1.631,0,0,1,.217-.831,1.53,1.53,0,0,1,.614-.59,1.865,1.865,0,0,1,.9-.214,1.766,1.766,0,0,1,1.195.369,1.306,1.306,0,0,1,.426,1.042,1.673,1.673,0,0,1-.191.752,4.179,4.179,0,0,1-.656.892L6.077,6.2h2.14Z" transform="translate(5.914 2.496)" fill="#12263f"/>
      <path id="Trazado_705152" data-name="Trazado 705152" d="M2.287,5.178H1.47V7H.444V2.023H2.293a2.09,2.09,0,0,1,1.36.393,1.357,1.357,0,0,1,.479,1.111,1.531,1.531,0,0,1-.22.849,1.5,1.5,0,0,1-.668.542L4.32,6.952V7H3.22ZM1.47,4.348H2.3a.847.847,0,0,0,.6-.2.7.7,0,0,0,.212-.542.752.752,0,0,0-.2-.554.831.831,0,0,0-.614-.2H1.47Zm6.436.5H5.937V6.176H8.248V7H4.912V2.023H8.241v.831h-2.3V4.04H7.906ZM9.875,6.176h2.177V7h-3.2V2.023H9.875Zm5.64-.2h-1.8L13.375,7h-1.09l1.853-4.977h.95L16.95,7h-1.09Zm-1.521-.831h1.244l-.625-1.863Zm6.757-2.29H19.226V7H18.2V2.854H16.7V2.023H20.75ZM22.425,7H21.4V2.023h1.025Zm2.789-1.234,1.128-3.743h1.142L25.751,7h-1.07L22.955,2.023h1.138Zm5.732-.923H28.978V6.176h2.311V7H27.952V2.023h3.329v.831h-2.3V4.04h1.969Z" transform="translate(10.914 59.496)" fill="#12263f"/>
      <path id="Trazado_705153" data-name="Trazado 705153" d="M1.535,7H.509V2.023H1.535Zm5,0H5.506l-2-3.274V7H2.485V2.023H3.51l2,3.281V2.023H6.532Zm3.476-1.306A.526.526,0,0,0,9.8,5.248a2.69,2.69,0,0,0-.738-.328,5.234,5.234,0,0,1-.844-.34,1.379,1.379,0,0,1-.848-1.234A1.2,1.2,0,0,1,7.6,2.627a1.483,1.483,0,0,1,.653-.494,2.457,2.457,0,0,1,.955-.178,2.237,2.237,0,0,1,.95.193,1.513,1.513,0,0,1,.648.545,1.427,1.427,0,0,1,.231.8H10.011A.671.671,0,0,0,9.8,2.962a.885.885,0,0,0-.6-.19.946.946,0,0,0-.584.159A.5.5,0,0,0,8.4,3.35a.48.48,0,0,0,.244.407,2.761,2.761,0,0,0,.719.308,3.109,3.109,0,0,1,1.275.653,1.3,1.3,0,0,1,.4.971A1.2,1.2,0,0,1,10.548,6.7a2.14,2.14,0,0,1-1.316.367,2.541,2.541,0,0,1-1.046-.21,1.655,1.655,0,0,1-.719-.576,1.475,1.475,0,0,1-.248-.848H8.248q0,.824.984.824A.958.958,0,0,0,9.8,6.11.484.484,0,0,0,10.008,5.694Zm5.469-2.84H13.952V7H12.927V2.854h-1.5V2.023h4.054ZM18.46,5.975h-1.8L16.321,7H15.23l1.853-4.977h.95L19.9,7h-1.09Zm-1.521-.831h1.244l-.625-1.863ZM24.408,7H23.382l-2-3.274V7H20.361V2.023h1.025l2,3.281V2.023h1.022Zm4.8-1.658a1.761,1.761,0,0,1-.593,1.265,2.083,2.083,0,0,1-1.41.461A1.873,1.873,0,0,1,25.7,6.424a2.642,2.642,0,0,1-.549-1.769v-.3a2.983,2.983,0,0,1,.253-1.265,1.9,1.9,0,0,1,.723-.839,2.259,2.259,0,0,1,2.48.169,1.892,1.892,0,0,1,.608,1.3H28.191a1.039,1.039,0,0,0-.268-.7.994.994,0,0,0-.7-.217.871.871,0,0,0-.767.367,2.059,2.059,0,0,0-.261,1.14v.376a2.2,2.2,0,0,0,.244,1.179.855.855,0,0,0,.771.373,1.012,1.012,0,0,0,.709-.217.98.98,0,0,0,.268-.672Zm3.667-.5H30.909V6.176h2.311V7H29.883V2.023h3.329v.831h-2.3V4.04h1.969Z" transform="translate(5.914 94.496)" fill="#12263f"/>
      <path id="Trazado_705154" data-name="Trazado 705154" d="M2.738,7H1.75V3.192L.571,3.558v-.8l2.061-.738h.106Z" transform="translate(10.914 32.496)" fill="#12263f"/>
      <path id="Trazado_705155" data-name="Trazado 705155" d="M2.283,5.766,3.411,2.023H4.553L2.82,7H1.75L.024,2.023H1.162Zm2.362-.649a2.193,2.193,0,0,1,.212-.981,1.551,1.551,0,0,1,.61-.667,1.78,1.78,0,0,1,.925-.236,1.684,1.684,0,0,1,1.222.458,1.838,1.838,0,0,1,.528,1.244l.007.253a1.933,1.933,0,0,1-.475,1.365A1.651,1.651,0,0,1,6.4,7.068a1.66,1.66,0,0,1-1.277-.513,1.967,1.967,0,0,1-.477-1.395Zm.988.07a1.382,1.382,0,0,0,.2.806A.712.712,0,0,0,6.959,6a1.513,1.513,0,0,0,.2-.881,1.369,1.369,0,0,0-.2-.8.656.656,0,0,0-.567-.284.645.645,0,0,0-.561.282A1.538,1.538,0,0,0,5.633,5.187ZM9.8,7H8.808V1.75H9.8Zm2-4.607V3.3h.632v.725H11.8V5.872a.441.441,0,0,0,.079.294.4.4,0,0,0,.3.089,1.575,1.575,0,0,0,.291-.024v.749a2.034,2.034,0,0,1-.6.089.943.943,0,0,1-1.06-1.049V4.026h-.54V3.3h.54V2.393ZM15.121,7a1.1,1.1,0,0,1-.1-.332,1.2,1.2,0,0,1-.933.4,1.313,1.313,0,0,1-.9-.314,1.011,1.011,0,0,1-.357-.793,1.045,1.045,0,0,1,.436-.9,2.15,2.15,0,0,1,1.26-.318h.455V4.529a.609.609,0,0,0-.132-.41.518.518,0,0,0-.415-.154.589.589,0,0,0-.391.12.406.406,0,0,0-.142.328h-.988a.992.992,0,0,1,.2-.595,1.31,1.31,0,0,1,.561-.429,2.043,2.043,0,0,1,.813-.156,1.614,1.614,0,0,1,1.085.344,1.2,1.2,0,0,1,.4.966v1.6a1.768,1.768,0,0,0,.147.8V7ZM14.3,6.313a.851.851,0,0,0,.4-.1.64.64,0,0,0,.273-.261V5.318h-.369q-.742,0-.79.513l0,.058a.4.4,0,0,0,.13.3A.5.5,0,0,0,14.3,6.313ZM17.777,3.3V7.2a1.323,1.323,0,0,1-.325.952,1.234,1.234,0,0,1-.937.34,2.008,2.008,0,0,1-.489-.058V7.653a1.854,1.854,0,0,0,.311.031q.448,0,.448-.475V3.3Zm-1.07-.957a.486.486,0,0,1,.149-.366.643.643,0,0,1,.81,0,.486.486,0,0,1,.149.366.485.485,0,0,1-.152.369.634.634,0,0,1-.8,0A.485.485,0,0,1,16.707,2.345Z" transform="translate(10.914 75.496)" fill="#12263f"/>
      <path id="Trazado_705156" data-name="Trazado 705156" d="M4.351,5.342a1.761,1.761,0,0,1-.593,1.265,2.083,2.083,0,0,1-1.41.461A1.873,1.873,0,0,1,.843,6.424,2.642,2.642,0,0,1,.294,4.655v-.3A2.983,2.983,0,0,1,.547,3.086a1.9,1.9,0,0,1,.723-.839,2.025,2.025,0,0,1,1.092-.292,2.029,2.029,0,0,1,1.388.461,1.892,1.892,0,0,1,.608,1.3H3.333a1.039,1.039,0,0,0-.268-.7.994.994,0,0,0-.7-.217.871.871,0,0,0-.767.367A2.059,2.059,0,0,0,1.333,4.3v.376a2.2,2.2,0,0,0,.244,1.179.855.855,0,0,0,.771.373,1.012,1.012,0,0,0,.709-.217.98.98,0,0,0,.268-.672ZM7.174,6.624a1.239,1.239,0,0,1-1.012.444,1.168,1.168,0,0,1-.907-.342,1.459,1.459,0,0,1-.32-1V3.3h.988V5.694q0,.578.526.578a.713.713,0,0,0,.69-.349V3.3h.991V7H7.2Zm3.78-2.4A2.684,2.684,0,0,0,10.6,4.2a.724.724,0,0,0-.735.379V7H8.876V3.3H9.81l.027.441a.915.915,0,0,1,.824-.509,1.035,1.035,0,0,1,.308.044Zm2.553,0a2.684,2.684,0,0,0-.355-.027.724.724,0,0,0-.735.379V7H11.43V3.3h.933l.027.441a.915.915,0,0,1,.824-.509,1.035,1.035,0,0,1,.308.044Zm2.112,2.84a1.816,1.816,0,0,1-1.324-.5,1.774,1.774,0,0,1-.511-1.33v-.1a2.234,2.234,0,0,1,.215-1,1.58,1.58,0,0,1,.61-.677,1.712,1.712,0,0,1,.9-.238,1.535,1.535,0,0,1,1.195.479,1.944,1.944,0,0,1,.436,1.357v.4H14.786a.918.918,0,0,0,.289.581.873.873,0,0,0,.61.219,1.066,1.066,0,0,0,.892-.414l.485.543a1.483,1.483,0,0,1-.6.49A1.974,1.974,0,0,1,15.62,7.068ZM15.507,4.03a.617.617,0,0,0-.477.2,1.031,1.031,0,0,0-.234.57H16.17V4.72a.735.735,0,0,0-.178-.51A.637.637,0,0,0,15.507,4.03Zm3.1-.728.031.427a1.291,1.291,0,0,1,1.063-.5,1.073,1.073,0,0,1,.875.345,1.611,1.611,0,0,1,.294,1.032V7h-.988V4.635a.641.641,0,0,0-.137-.456.612.612,0,0,0-.455-.142.68.68,0,0,0-.625.355V7h-.988V3.3ZM22.8,2.393V3.3h.632v.725H22.8V5.872a.441.441,0,0,0,.079.294.4.4,0,0,0,.3.089,1.575,1.575,0,0,0,.291-.024v.749a2.034,2.034,0,0,1-.6.089.943.943,0,0,1-1.06-1.049V4.026h-.54V3.3h.54V2.393ZM32.881,5.267H30.957v-.8h1.924Z" transform="translate(10.914 110.496)" fill="#12263f"/>
      <path id="Trazado_705157" data-name="Trazado 705157" d="M1.47,5.247V7H.444V2.023H2.386a2.246,2.246,0,0,1,.986.205,1.511,1.511,0,0,1,.655.583,1.625,1.625,0,0,1,.229.86,1.429,1.429,0,0,1-.5,1.154,2.086,2.086,0,0,1-1.386.422Zm0-.831h.916a.9.9,0,0,0,.62-.191.7.7,0,0,0,.214-.547A.821.821,0,0,0,3,3.086a.8.8,0,0,0-.595-.232H1.47Zm3.227.7a2.193,2.193,0,0,1,.212-.981,1.551,1.551,0,0,1,.61-.667,1.78,1.78,0,0,1,.925-.236,1.684,1.684,0,0,1,1.222.458,1.838,1.838,0,0,1,.528,1.244l.007.253a1.933,1.933,0,0,1-.475,1.365,1.651,1.651,0,0,1-1.275.514,1.66,1.66,0,0,1-1.277-.513A1.967,1.967,0,0,1,4.7,5.161Zm.988.07a1.382,1.382,0,0,0,.2.806A.712.712,0,0,0,7.01,6a1.513,1.513,0,0,0,.2-.881,1.369,1.369,0,0,0-.2-.8.656.656,0,0,0-.567-.284.645.645,0,0,0-.561.282A1.538,1.538,0,0,0,5.684,5.187Zm6.34.47L12.51,3.3h.954L12.52,7h-.827l-.7-2.328L10.292,7H9.468L8.524,3.3h.954L9.96,5.653,10.637,3.3h.714Zm3.63,1.412a1.816,1.816,0,0,1-1.324-.5,1.774,1.774,0,0,1-.511-1.33v-.1a2.234,2.234,0,0,1,.215-1,1.58,1.58,0,0,1,.61-.677,1.712,1.712,0,0,1,.9-.238,1.535,1.535,0,0,1,1.195.479,1.944,1.944,0,0,1,.436,1.357v.4H14.82a.918.918,0,0,0,.289.581.873.873,0,0,0,.61.219,1.066,1.066,0,0,0,.892-.414L17.1,6.4a1.483,1.483,0,0,1-.6.49A1.974,1.974,0,0,1,15.654,7.068ZM15.542,4.03a.617.617,0,0,0-.477.2,1.031,1.031,0,0,0-.234.57H16.2V4.72a.735.735,0,0,0-.178-.51A.637.637,0,0,0,15.542,4.03Zm4.272.2a2.684,2.684,0,0,0-.355-.027.724.724,0,0,0-.735.379V7h-.988V3.3h.933l.027.441a.915.915,0,0,1,.824-.509,1.035,1.035,0,0,1,.308.044Z" transform="translate(10.914 122.496)" fill="#12263f"/>
      <path id="Trazado_705158" data-name="Trazado 705158" d="M3.75,7H.338V6.323l1.61-1.716a3.972,3.972,0,0,0,.49-.632A1.016,1.016,0,0,0,2.6,3.462a.76.76,0,0,0-.167-.521.6.6,0,0,0-.479-.19.652.652,0,0,0-.528.231.914.914,0,0,0-.193.607H.239a1.631,1.631,0,0,1,.217-.831,1.53,1.53,0,0,1,.614-.59,1.865,1.865,0,0,1,.9-.214,1.766,1.766,0,0,1,1.195.369,1.306,1.306,0,0,1,.426,1.042,1.673,1.673,0,0,1-.191.752,4.179,4.179,0,0,1-.656.892L1.61,6.2H3.75Z" transform="translate(10.914 45.496)" fill="#12263f"/>
      <path id="Trazado_705159" data-name="Trazado 705159" d="M3.722,2.575,1.8,7H.755L2.683,2.82H.208v-.8H3.722ZM7.277,5.127h.564v.8H7.277V7H6.289V5.923H4.249L4.2,5.3,6.279,2.023h1Zm-2.088,0h1.1V3.37l-.065.113ZM8.463,6.515a.5.5,0,0,1,.159-.383.618.618,0,0,1,.8,0,.5.5,0,0,1,.159.383.491.491,0,0,1-.157.378.628.628,0,0,1-.8,0A.491.491,0,0,1,8.463,6.515Zm4.621-4.542v.813h-.1a1.678,1.678,0,0,0-1.078.349,1.416,1.416,0,0,0-.49.94,1.345,1.345,0,0,1,1-.4,1.268,1.268,0,0,1,1.032.465,1.863,1.863,0,0,1,.383,1.224,1.833,1.833,0,0,1-.21.878,1.508,1.508,0,0,1-.595.612,1.728,1.728,0,0,1-.87.219,1.614,1.614,0,0,1-1.27-.547,2.123,2.123,0,0,1-.484-1.459V4.707a3.2,3.2,0,0,1,.306-1.43,2.243,2.243,0,0,1,.878-.96,2.574,2.574,0,0,1,1.328-.344Zm-.964,2.5a.789.789,0,0,0-.434.125.75.75,0,0,0-.287.329v.3a1.33,1.33,0,0,0,.195.773.63.63,0,0,0,.547.278.623.623,0,0,0,.514-.251,1.023,1.023,0,0,0,.2-.65,1.021,1.021,0,0,0-.2-.655A.646.646,0,0,0,12.12,4.467ZM18.563,7h-.988V3.192L16.4,3.558v-.8l2.061-.738h.106Zm2.584-3.7.031.414a1.3,1.3,0,0,1,1.063-.482.986.986,0,0,1,.981.564,1.27,1.27,0,0,1,1.111-.564,1.1,1.1,0,0,1,.9.35,1.61,1.61,0,0,1,.294,1.054V7h-.991V4.642a.7.7,0,0,0-.123-.46.545.545,0,0,0-.434-.145.617.617,0,0,0-.615.424l0,2.54h-.988V4.645a.7.7,0,0,0-.126-.465.551.551,0,0,0-.431-.144.64.64,0,0,0-.608.349V7h-.988V3.3Zm7.038,2.464,1.128-3.743h1.142L28.721,7h-1.07L25.925,2.023h1.138Z" transform="translate(49.914 32.496)" fill="#027b16"/>
      <path id="Trazado_705160" data-name="Trazado 705160" d="M2.3,5.267H.376v-.8H2.3ZM4.057,4.074h.526a.742.742,0,0,0,.557-.188.689.689,0,0,0,.181-.5.609.609,0,0,0-.179-.468.7.7,0,0,0-.494-.167.729.729,0,0,0-.475.156.5.5,0,0,0-.191.405H2.994a1.215,1.215,0,0,1,.21-.7,1.4,1.4,0,0,1,.588-.484,1.962,1.962,0,0,1,.832-.174,1.861,1.861,0,0,1,1.237.378A1.289,1.289,0,0,1,6.31,3.374,1.047,1.047,0,0,1,6.1,4a1.355,1.355,0,0,1-.547.441,1.237,1.237,0,0,1,.627.451,1.224,1.224,0,0,1,.207.711A1.31,1.31,0,0,1,5.9,6.668a1.945,1.945,0,0,1-1.28.4,1.844,1.844,0,0,1-1.219-.393,1.284,1.284,0,0,1-.473-1.039H3.92a.572.572,0,0,0,.21.458.775.775,0,0,0,.518.178A.778.778,0,0,0,5.2,6.086a.643.643,0,0,0,.2-.494q0-.745-.82-.745H4.057Zm3.158.479L7.5,2.023h2.789v.824H8.313l-.123,1.07a1.566,1.566,0,0,1,.749-.188,1.434,1.434,0,0,1,1.114.441,1.761,1.761,0,0,1,.4,1.234,1.8,1.8,0,0,1-.2.863,1.435,1.435,0,0,1-.583.591,1.819,1.819,0,0,1-.9.21,1.932,1.932,0,0,1-.837-.183,1.485,1.485,0,0,1-.61-.514,1.4,1.4,0,0,1-.238-.755h.978a.73.73,0,0,0,.217.484.688.688,0,0,0,.487.173.607.607,0,0,0,.516-.241,1.116,1.116,0,0,0,.181-.682A.923.923,0,0,0,9.259,4.7a.765.765,0,0,0-.591-.226.855.855,0,0,0-.571.185L8,4.748ZM15.227,7h-.988V3.192l-1.179.366v-.8l2.061-.738h.106Zm5.028,0H16.844V6.323l1.61-1.716a3.971,3.971,0,0,0,.49-.632,1.016,1.016,0,0,0,.159-.513.76.76,0,0,0-.167-.521.6.6,0,0,0-.479-.19.652.652,0,0,0-.528.231.914.914,0,0,0-.193.607h-.991a1.632,1.632,0,0,1,.217-.831,1.53,1.53,0,0,1,.614-.59,1.865,1.865,0,0,1,.9-.214,1.766,1.766,0,0,1,1.195.369,1.306,1.306,0,0,1,.426,1.042,1.673,1.673,0,0,1-.191.752,4.179,4.179,0,0,1-.656.892L18.115,6.2h2.14Zm1.572-3.7.031.414a1.3,1.3,0,0,1,1.063-.482A.986.986,0,0,1,23.9,3.8a1.27,1.27,0,0,1,1.111-.564,1.1,1.1,0,0,1,.9.35A1.61,1.61,0,0,1,26.2,4.638V7h-.991V4.642a.7.7,0,0,0-.123-.46.545.545,0,0,0-.434-.145.617.617,0,0,0-.615.424l0,2.54h-.988V4.645a.7.7,0,0,0-.126-.465.551.551,0,0,0-.431-.144.64.64,0,0,0-.608.349V7H20.9V3.3Zm7.038,2.464,1.128-3.743h1.142L29.4,7h-1.07L26.605,2.023h1.138Z" transform="translate(49.914 75.496)" fill="#027b16"/>
      <path id="Trazado_705161" data-name="Trazado 705161" d="M2.3,5.267H.376v-.8H2.3ZM5.452,7H4.464V3.192l-1.179.366v-.8l2.061-.738h.106ZM9.379,5.011a1.247,1.247,0,0,1-.9.379A1.334,1.334,0,0,1,7.42,4.937a1.79,1.79,0,0,1-.4-1.222,1.906,1.906,0,0,1,.214-.9,1.567,1.567,0,0,1,.6-.636A1.655,1.655,0,0,1,8.7,1.955,1.583,1.583,0,0,1,9.57,2.2a1.618,1.618,0,0,1,.595.708,2.54,2.54,0,0,1,.215,1.056v.366a2.879,2.879,0,0,1-.619,1.955,2.339,2.339,0,0,1-1.753.759l-.243,0V6.224l.219,0A1.263,1.263,0,0,0,9.379,5.011Zm-.66-.376a.691.691,0,0,0,.412-.123.822.822,0,0,0,.261-.3V3.808A1.358,1.358,0,0,0,9.2,3.028a.594.594,0,0,0-.513-.277.577.577,0,0,0-.489.272,1.155,1.155,0,0,0-.191.682,1.124,1.124,0,0,0,.186.668A.607.607,0,0,0,8.719,4.635Zm2.512-.082.287-2.529h2.789v.824H12.329l-.123,1.07a1.566,1.566,0,0,1,.749-.188,1.434,1.434,0,0,1,1.114.441,1.761,1.761,0,0,1,.4,1.234,1.8,1.8,0,0,1-.2.863,1.435,1.435,0,0,1-.583.591,1.819,1.819,0,0,1-.9.21,1.932,1.932,0,0,1-.837-.183,1.485,1.485,0,0,1-.61-.514,1.4,1.4,0,0,1-.238-.755h.978A.73.73,0,0,0,12.3,6.1a.688.688,0,0,0,.487.173.607.607,0,0,0,.516-.241,1.116,1.116,0,0,0,.181-.682.923.923,0,0,0-.208-.649.765.765,0,0,0-.591-.226.855.855,0,0,0-.571.185l-.1.089Zm8.292-2.581v.813h-.1a1.678,1.678,0,0,0-1.078.349,1.416,1.416,0,0,0-.49.94,1.345,1.345,0,0,1,1-.4,1.268,1.268,0,0,1,1.032.465,1.863,1.863,0,0,1,.383,1.224,1.833,1.833,0,0,1-.21.878,1.508,1.508,0,0,1-.595.612,1.728,1.728,0,0,1-.87.219,1.614,1.614,0,0,1-1.27-.547,2.123,2.123,0,0,1-.484-1.459V4.707a3.2,3.2,0,0,1,.306-1.43,2.243,2.243,0,0,1,.878-.96,2.574,2.574,0,0,1,1.328-.344Zm-.964,2.5a.789.789,0,0,0-.434.125.75.75,0,0,0-.287.329v.3a1.33,1.33,0,0,0,.195.773.63.63,0,0,0,.547.278.623.623,0,0,0,.514-.251,1.023,1.023,0,0,0,.2-.65,1.021,1.021,0,0,0-.2-.655A.646.646,0,0,0,18.56,4.467Zm4.556,2.157a1.239,1.239,0,0,1-1.012.444,1.168,1.168,0,0,1-.907-.342,1.459,1.459,0,0,1-.32-1V3.3h.988V5.694q0,.578.526.578a.713.713,0,0,0,.69-.349V3.3h.991V7h-.93Zm4.577-.649h-1.8L25.553,7h-1.09l1.853-4.977h.95L29.128,7h-1.09Zm-1.521-.831h1.244L26.79,3.281Z" transform="translate(49.914 110.496)" fill="#027b16"/>
      <path id="Trazado_705162" data-name="Trazado 705162" d="M2.3,5.267H.376v-.8H2.3ZM9.922,2.575,8,7H6.956L8.883,2.82H6.409v-.8H9.922Zm.725,3.94a.5.5,0,0,1,.159-.383.618.618,0,0,1,.8,0,.5.5,0,0,1,.159.383.491.491,0,0,1-.157.378.628.628,0,0,1-.8,0A.491.491,0,0,1,10.647,6.515Zm4.621-4.542v.813h-.1a1.678,1.678,0,0,0-1.078.349,1.416,1.416,0,0,0-.49.94,1.345,1.345,0,0,1,1-.4,1.268,1.268,0,0,1,1.032.465,1.863,1.863,0,0,1,.383,1.224,1.833,1.833,0,0,1-.21.878,1.508,1.508,0,0,1-.595.612,1.728,1.728,0,0,1-.87.219,1.614,1.614,0,0,1-1.27-.547,2.123,2.123,0,0,1-.484-1.459V4.707a3.2,3.2,0,0,1,.306-1.43,2.243,2.243,0,0,1,.878-.96A2.574,2.574,0,0,1,15.1,1.972Zm-.964,2.5a.789.789,0,0,0-.434.125.75.75,0,0,0-.287.329v.3a1.33,1.33,0,0,0,.195.773.63.63,0,0,0,.547.278.623.623,0,0,0,.514-.251,1.023,1.023,0,0,0,.2-.65,1.021,1.021,0,0,0-.2-.655A.646.646,0,0,0,14.3,4.467Zm2.447.085.287-2.529h2.789v.824H17.849l-.123,1.07a1.566,1.566,0,0,1,.749-.188,1.434,1.434,0,0,1,1.114.441,1.761,1.761,0,0,1,.4,1.234,1.8,1.8,0,0,1-.2.863,1.435,1.435,0,0,1-.583.591,1.819,1.819,0,0,1-.9.21,1.932,1.932,0,0,1-.837-.183,1.485,1.485,0,0,1-.61-.514,1.4,1.4,0,0,1-.238-.755H17.6a.73.73,0,0,0,.217.484.688.688,0,0,0,.487.173.607.607,0,0,0,.516-.241A1.116,1.116,0,0,0,19,5.349.923.923,0,0,0,18.8,4.7a.765.765,0,0,0-.591-.226.855.855,0,0,0-.571.185l-.1.089Zm4.874-.479h.526a.742.742,0,0,0,.557-.188.689.689,0,0,0,.181-.5.609.609,0,0,0-.179-.468.7.7,0,0,0-.494-.167.729.729,0,0,0-.475.156.5.5,0,0,0-.191.405h-.988a1.215,1.215,0,0,1,.21-.7,1.4,1.4,0,0,1,.588-.484,1.962,1.962,0,0,1,.832-.174,1.861,1.861,0,0,1,1.237.378,1.289,1.289,0,0,1,.448,1.041A1.047,1.047,0,0,1,23.669,4a1.355,1.355,0,0,1-.547.441,1.237,1.237,0,0,1,.627.451,1.224,1.224,0,0,1,.207.711,1.31,1.31,0,0,1-.484,1.063,1.945,1.945,0,0,1-1.28.4,1.844,1.844,0,0,1-1.219-.393A1.284,1.284,0,0,1,20.5,5.636h.988a.572.572,0,0,0,.21.458.877.877,0,0,0,1.07-.009.643.643,0,0,0,.2-.494q0-.745-.82-.745h-.523Zm3.158.479.287-2.529H27.86v.824H25.881l-.123,1.07a1.566,1.566,0,0,1,.749-.188,1.434,1.434,0,0,1,1.114.441,1.761,1.761,0,0,1,.4,1.234,1.8,1.8,0,0,1-.2.863,1.435,1.435,0,0,1-.583.591,1.819,1.819,0,0,1-.9.21,1.932,1.932,0,0,1-.837-.183,1.485,1.485,0,0,1-.61-.514,1.4,1.4,0,0,1-.238-.755h.978a.73.73,0,0,0,.217.484.688.688,0,0,0,.487.173.607.607,0,0,0,.516-.241,1.116,1.116,0,0,0,.181-.682.923.923,0,0,0-.208-.649.765.765,0,0,0-.591-.226.855.855,0,0,0-.571.185l-.1.089ZM29,7.427H28.27l1.832-5.4h.735ZM35.25,5.564l.67-3.541h1.022L35.837,7H34.805L34,3.671,33.185,7H32.153l-1.1-4.977h1.022l.673,3.534.82-3.534h.868Z" transform="translate(43.914 122.496)" fill="#027b16"/>
      <path id="Trazado_705163" data-name="Trazado 705163" d="M2.738,7H1.75V3.192L.571,3.558v-.8l2.061-.738h.106ZM6.754,7H5.766V3.192l-1.179.366v-.8l2.061-.738h.106ZM9.375,4.074H9.9a.742.742,0,0,0,.557-.188.689.689,0,0,0,.181-.5.609.609,0,0,0-.179-.468.7.7,0,0,0-.494-.167.729.729,0,0,0-.475.156.5.5,0,0,0-.191.405H8.313a1.215,1.215,0,0,1,.21-.7,1.4,1.4,0,0,1,.588-.484,1.962,1.962,0,0,1,.832-.174,1.861,1.861,0,0,1,1.237.378,1.289,1.289,0,0,1,.448,1.041A1.047,1.047,0,0,1,11.419,4a1.355,1.355,0,0,1-.547.441,1.237,1.237,0,0,1,.627.451,1.224,1.224,0,0,1,.207.711,1.31,1.31,0,0,1-.484,1.063,1.945,1.945,0,0,1-1.28.4,1.844,1.844,0,0,1-1.219-.393,1.284,1.284,0,0,1-.473-1.039h.988a.572.572,0,0,0,.21.458.877.877,0,0,0,1.07-.009.643.643,0,0,0,.2-.494q0-.745-.82-.745H9.375ZM17.541,7H14.13V6.323l1.61-1.716a3.972,3.972,0,0,0,.49-.632,1.016,1.016,0,0,0,.159-.513.76.76,0,0,0-.167-.521.6.6,0,0,0-.479-.19.652.652,0,0,0-.528.231.914.914,0,0,0-.193.607h-.991a1.631,1.631,0,0,1,.217-.831,1.53,1.53,0,0,1,.614-.59,1.865,1.865,0,0,1,.9-.214,1.766,1.766,0,0,1,1.195.369,1.306,1.306,0,0,1,.426,1.042,1.673,1.673,0,0,1-.191.752,4.179,4.179,0,0,1-.656.892L15.4,6.2h2.14Zm1.572-3.7.031.414a1.3,1.3,0,0,1,1.063-.482.986.986,0,0,1,.981.564A1.27,1.27,0,0,1,22.3,3.233a1.1,1.1,0,0,1,.9.35,1.61,1.61,0,0,1,.294,1.054V7H22.5V4.642a.7.7,0,0,0-.123-.46.545.545,0,0,0-.434-.145.617.617,0,0,0-.615.424l0,2.54H20.34V4.645a.7.7,0,0,0-.126-.465.551.551,0,0,0-.431-.144.64.64,0,0,0-.608.349V7h-.988V3.3Zm7.038,2.464,1.128-3.743H28.42L26.688,7h-1.07L23.892,2.023H25.03Z" transform="translate(49.914 45.496)" fill="#027b16"/>
    </g>
  </g>
</svg>
