<svg xmlns="http://www.w3.org/2000/svg" width="181.445" height="54.818" viewBox="0 0 181.445 54.818">
  <g id="Grupo_55440" data-name="Grupo 55440" transform="translate(-736.395 -4888.576)">
    <g id="Grupo_55438" data-name="Grupo 55438" transform="translate(275 -257)">
      <path id="Trazado_704972" data-name="Trazado 704972" d="M20.35,13.336H14.822V19H11.395V4.781h9.512V7.428H14.822V10.7H20.35Zm11.641.459a6.372,6.372,0,0,1-1.108,3.931,3.554,3.554,0,0,1-2.993,1.47A3.046,3.046,0,0,1,25.5,18.131v4.932H22.205V8.434h3.076l.1.977a3.046,3.046,0,0,1,2.49-1.172,3.582,3.582,0,0,1,3.037,1.44,6.45,6.45,0,0,1,1.084,3.96ZM28.7,13.59q0-2.812-1.641-2.812a1.549,1.549,0,0,0-1.562.84v4.16a1.6,1.6,0,0,0,1.582.879q1.572,0,1.621-2.715Zm19.092-1.641H38.748V9.41h9.043Zm0,4.287H38.748V13.7h9.043ZM72.313,19h-3.3V8.492l-3.242.947v-2.5l6.24-2.158h.3Zm10.771-5.5a3.476,3.476,0,0,1-2.383.957,3.847,3.847,0,0,1-3.066-1.309,5.156,5.156,0,0,1-1.133-3.5,5.247,5.247,0,0,1,.635-2.539A4.763,4.763,0,0,1,78.919,5.26a4.859,4.859,0,0,1,2.534-.684A4.717,4.717,0,0,1,84,5.284a4.767,4.767,0,0,1,1.772,2,6.877,6.877,0,0,1,.654,2.983v1.26a8.548,8.548,0,0,1-.923,4.082,6.371,6.371,0,0,1-2.632,2.656,8.224,8.224,0,0,1-3.984.928H78.68V16.559l.625-.01Q82.7,16.383,83.084,13.5ZM81.59,12.086a1.6,1.6,0,0,0,1.543-.928V9.791a3.555,3.555,0,0,0-.459-2.021,1.44,1.44,0,0,0-1.24-.654,1.361,1.361,0,0,0-1.162.742,3.3,3.3,0,0,0-.469,1.8,2.956,2.956,0,0,0,.479,1.772A1.531,1.531,0,0,0,81.59,12.086ZM98.1,19H88.182V16.852l4.57-4.8q1.689-1.924,1.689-3.057a2.126,2.126,0,0,0-.4-1.4,1.43,1.43,0,0,0-1.162-.479,1.447,1.447,0,0,0-1.221.64,2.629,2.629,0,0,0-.469,1.6h-3.3a4.67,4.67,0,0,1,.654-2.417A4.588,4.588,0,0,1,90.359,5.2a5.4,5.4,0,0,1,2.6-.625,5.308,5.308,0,0,1,3.55,1.064A3.8,3.8,0,0,1,97.752,8.7a4.439,4.439,0,0,1-.312,1.636A7.174,7.174,0,0,1,96.468,12a24.476,24.476,0,0,1-2.124,2.339l-1.836,2.119h5.6Zm11.533-5.811a6.789,6.789,0,0,1-1.294,4.443,5.056,5.056,0,0,1-7.319-.01,6.779,6.779,0,0,1-1.3-4.434v-2.6a6.789,6.789,0,0,1,1.294-4.443,5.056,5.056,0,0,1,7.319.01,6.8,6.8,0,0,1,1.3,4.443Zm-3.291-3.018a5.071,5.071,0,0,0-.4-2.29,1.338,1.338,0,0,0-1.27-.757,1.307,1.307,0,0,0-1.235.7,4.777,4.777,0,0,0-.415,2.129V13.59a5.109,5.109,0,0,0,.4,2.329,1.343,1.343,0,0,0,1.27.737,1.325,1.325,0,0,0,1.24-.718,4.878,4.878,0,0,0,.41-2.251Zm21.2,3.525,1.631-8.916h3.4L129.559,19H126l-1.9-8.105L122.234,19h-3.545L115.662,4.781h3.408L120.7,13.7l1.953-8.916h2.91Zm30.527-1.748h-9.043V9.41h9.043Zm0,4.287h-9.043V13.7h9.043Zm17.139-3.047a6.789,6.789,0,0,1-1.294,4.443,5.056,5.056,0,0,1-7.319-.01,6.779,6.779,0,0,1-1.3-4.434v-2.6a6.789,6.789,0,0,1,1.294-4.443,5.056,5.056,0,0,1,7.319.01,6.8,6.8,0,0,1,1.3,4.443Zm-3.291-3.018a5.071,5.071,0,0,0-.4-2.29,1.338,1.338,0,0,0-1.27-.757,1.307,1.307,0,0,0-1.235.7,4.777,4.777,0,0,0-.415,2.129V13.59a5.11,5.11,0,0,0,.4,2.329,1.343,1.343,0,0,0,1.27.737,1.325,1.325,0,0,0,1.24-.718,4.878,4.878,0,0,0,.41-2.251Zm7.09,5.635a1.874,1.874,0,0,1,1.3.464,1.619,1.619,0,0,1,0,2.373,2.049,2.049,0,0,1-2.6,0,1.618,1.618,0,0,1,0-2.363A1.858,1.858,0,0,1,179.012,15.807ZM192.557,8.58a3.283,3.283,0,0,1-.513,1.826,3.734,3.734,0,0,1-1.411,1.27,4.109,4.109,0,0,1,1.611,1.362,3.515,3.515,0,0,1,.6,2.046,3.721,3.721,0,0,1-1.313,3.008,5.454,5.454,0,0,1-3.618,1.1,5.554,5.554,0,0,1-3.652-1.108,3.7,3.7,0,0,1-1.338-3,3.56,3.56,0,0,1,.586-2.021,3.984,3.984,0,0,1,1.66-1.387,3.755,3.755,0,0,1-1.426-1.27,3.26,3.26,0,0,1-.518-1.826,3.648,3.648,0,0,1,1.26-2.93,5.944,5.944,0,0,1,6.816,0A3.648,3.648,0,0,1,192.557,8.58Zm-3.018,6.24a1.877,1.877,0,0,0-.454-1.353,1.581,1.581,0,0,0-1.2-.474,1.6,1.6,0,0,0-1.2.474,1.865,1.865,0,0,0-.459,1.353,1.881,1.881,0,0,0,.464,1.343,1.592,1.592,0,0,0,1.216.493,1.53,1.53,0,0,0,1.182-.488A1.915,1.915,0,0,0,189.539,14.82Zm-1.66-7.705a1.216,1.216,0,0,0-1.011.435,1.886,1.886,0,0,0-.347,1.206,2,2,0,0,0,.352,1.23,1.213,1.213,0,0,0,1.035.469,1.163,1.163,0,0,0,1.011-.469,2.062,2.062,0,0,0,.337-1.23,1.89,1.89,0,0,0-.347-1.2A1.233,1.233,0,0,0,187.879,7.115Z" transform="translate(450 5141)" fill="#12263f"/>
    </g>
    <g id="Grupo_55439" data-name="Grupo 55439" transform="translate(-32 -202)">
      <path id="Trazado_704973" data-name="Trazado 704973" d="M12.313,13.219a14.924,14.924,0,0,1,.635-4.434A10.7,10.7,0,0,1,14.7,5.309a6.225,6.225,0,0,1,2.485-1.992l.625,1.621A6.367,6.367,0,0,0,15.7,8.077a15.313,15.313,0,0,0-.757,5v.43a15.612,15.612,0,0,0,.747,5.1,6.34,6.34,0,0,0,2.124,3.164l-.625,1.621a6.163,6.163,0,0,1-2.485-2,10.538,10.538,0,0,1-1.753-3.462,15,15,0,0,1-.635-4.277Zm6.953-1.164.869-7.273h8.311V7.34H22.811l-.322,2.825a3.882,3.882,0,0,1,.923-.363,4.643,4.643,0,0,1,4.375,1.1,5.055,5.055,0,0,1,1.138,3.521,5.046,5.046,0,0,1-.61,2.476A4.2,4.2,0,0,1,26.6,18.6a5.411,5.411,0,0,1-2.607.6,5.822,5.822,0,0,1-2.51-.551,4.5,4.5,0,0,1-1.836-1.512,3.675,3.675,0,0,1-.654-2.171h3.3a1.867,1.867,0,0,0,.5,1.238,1.581,1.581,0,0,0,1.182.458q1.66,0,1.66-2.456,0-2.271-2.031-2.271a2.027,2.027,0,0,0-1.719.741Zm24.648,4.289h-4.7L38.4,19H34.734L39.949,4.781h3.223L48.426,19H44.744ZM40.037,13.7h3.057L41.561,8.766ZM51.824,9.659l-3.184-.878.635-1.844,3.115,1.278-.244-3.434h2.09l-.254,3.5L57.01,7.035,57.645,8.9l-3.223.878,2.139,2.588-1.689,1.152-1.787-2.871-1.8,2.773-1.689-1.1Zm15.42,3.784h1.445v2.539H67.244V19H63.953V15.982h-5.5l-.2-2.012,5.693-9.16V4.781h3.291Zm-5.85,0h2.559V9.068l-.205.332ZM79.725,8.58a3.283,3.283,0,0,1-.513,1.826,3.734,3.734,0,0,1-1.411,1.27,4.109,4.109,0,0,1,1.611,1.362,3.515,3.515,0,0,1,.6,2.046,3.721,3.721,0,0,1-1.313,3.008,5.454,5.454,0,0,1-3.618,1.1,5.554,5.554,0,0,1-3.652-1.108,3.7,3.7,0,0,1-1.338-3,3.56,3.56,0,0,1,.586-2.021,3.984,3.984,0,0,1,1.66-1.387,3.755,3.755,0,0,1-1.426-1.27,3.26,3.26,0,0,1-.518-1.826,3.648,3.648,0,0,1,1.26-2.93,5.944,5.944,0,0,1,6.816,0A3.648,3.648,0,0,1,79.725,8.58Zm-3.018,6.24a1.877,1.877,0,0,0-.454-1.353,1.581,1.581,0,0,0-1.2-.474,1.6,1.6,0,0,0-1.2.474A1.865,1.865,0,0,0,73.4,14.82a1.881,1.881,0,0,0,.464,1.343,1.592,1.592,0,0,0,1.216.493,1.53,1.53,0,0,0,1.182-.488A1.915,1.915,0,0,0,76.707,14.82Zm-1.66-7.705a1.216,1.216,0,0,0-1.011.435,1.886,1.886,0,0,0-.347,1.206,2,2,0,0,0,.352,1.23,1.213,1.213,0,0,0,1.035.469,1.163,1.163,0,0,0,1.011-.469,2.062,2.062,0,0,0,.337-1.23,1.89,1.89,0,0,0-.347-1.2A1.233,1.233,0,0,0,75.047,7.115ZM91.59,13.189A6.789,6.789,0,0,1,90.3,17.633a5.056,5.056,0,0,1-7.319-.01,6.779,6.779,0,0,1-1.3-4.434v-2.6a6.789,6.789,0,0,1,1.294-4.443,5.056,5.056,0,0,1,7.319.01,6.8,6.8,0,0,1,1.3,4.443ZM88.3,10.172a5.071,5.071,0,0,0-.4-2.29,1.338,1.338,0,0,0-1.27-.757,1.307,1.307,0,0,0-1.235.7,4.777,4.777,0,0,0-.415,2.129V13.59a5.109,5.109,0,0,0,.4,2.329,1.343,1.343,0,0,0,1.27.737,1.325,1.325,0,0,0,1.24-.718,4.878,4.878,0,0,0,.41-2.251ZM104,15.133l2.832-10.352h3.828L105.877,19h-3.75L97.381,4.781h3.8Zm12.93-1.641a13.925,13.925,0,0,1-.674,4.355,11.12,11.12,0,0,1-1.86,3.54,6.193,6.193,0,0,1-2.563,2.007l-.625-1.621a6.43,6.43,0,0,0,2.1-3.125,15.085,15.085,0,0,0,.771-4.854v-.6a15.612,15.612,0,0,0-.747-5.1,6.34,6.34,0,0,0-2.124-3.164l.625-1.621A6.307,6.307,0,0,1,114.378,5.3a10.984,10.984,0,0,1,1.855,3.486,13.807,13.807,0,0,1,.7,4.272Z" transform="translate(795 5122)" fill="#12263f"/>
    </g>
    <path id="Trazado_107174" data-name="Trazado 107174" d="M-6341-6789h85.5" transform="translate(7124 11701)" fill="none" stroke="#12263f" stroke-linecap="round" stroke-width="2"/>
  </g>
</svg>
