<svg xmlns="http://www.w3.org/2000/svg" width="558" height="284" viewBox="0 0 558 284"><g transform="translate(-297 -3625)"><rect width="558" height="284" rx="5" transform="translate(297 3625)" fill="#fff"/><g transform="translate(3.875 20.527)"><g transform="translate(313.125 3637.473)"><g transform="translate(24.834 27.594)"><g transform="translate(2.759 2.759)"><g transform="translate(0 0)" fill="#fff"><path d="M 168.4747314453125 145.6669921875 L 2.606865882873535 145.6669921875 L 85.54080200195312 2.984930992126465 L 168.4747314453125 145.6669921875 Z" stroke="none"/><path d="M 85.54080200195312 5.969818115234375 L 5.213714599609375 144.1669616699219 L 165.8678894042969 144.1669616699219 L 85.54080200195312 5.969818115234375 M 85.54080200195312 -1.52587890625e-05 L 171.0816040039062 147.1669616699219 L 0 147.1669616699219 L 85.54080200195312 -1.52587890625e-05 Z" stroke="none" fill="#707070"/></g><g transform="translate(103.4 138.889) rotate(90)" fill="#fff" stroke="#707070" stroke-width="3"><rect width="16.556" height="35.719" rx="2" stroke="none"/><rect x="1.5" y="1.5" width="13.556" height="32.719" rx="0.5" fill="none"/></g><g transform="translate(145.327 87.388) rotate(149)" fill="#fff" stroke="#707070" stroke-width="3"><rect width="16.556" height="35.719" rx="2" stroke="none"/><rect x="1.5" y="1.5" width="13.556" height="32.719" rx="0.5" fill="none"/></g><g transform="translate(43.755 56.771) rotate(31)" fill="#fff" stroke="#707070" stroke-width="3"><rect width="16.556" height="35.719" rx="2" stroke="none"/><rect x="1.5" y="1.5" width="13.556" height="32.719" rx="0.5" fill="none"/></g></g><circle cx="5.059" cy="5.059" r="5.059" transform="translate(82.781)" fill="#707070"/><circle cx="5.059" cy="5.059" r="5.059" transform="translate(166.483 144.408)" fill="#707070"/><circle cx="5.059" cy="5.059" r="5.059" transform="translate(0 144.408)" fill="#707070"/></g><text transform="translate(105.776)" fill="#12263f" font-size="20" font-family="Roboto-Black, Roboto" font-weight="800"><tspan x="-6.523" y="21">R</tspan></text><text transform="translate(174.86 88.3)" fill="#12263f" font-size="20" font-family="Roboto-Black, Roboto" font-weight="800"><tspan x="-6.099" y="21">Z</tspan></text><text transform="translate(288.815 91.06)" fill="#12263f" font-size="20" font-family="Roboto-Black, Roboto" font-weight="800"><tspan x="-6.099" y="21">Z</tspan></text><text transform="translate(271.339 0.92)" fill="#12263f" font-size="20" font-family="Roboto-Black, Roboto" font-weight="800"><tspan x="-6.523" y="21">R</tspan></text><text transform="translate(350.441 0.92)" fill="#12263f" font-size="20" font-family="Roboto-Black, Roboto" font-weight="800"><tspan x="-6.26" y="21">S</tspan></text><text transform="translate(429.544 1.84)" fill="#12263f" font-size="20" font-family="Roboto-Black, Roboto" font-weight="800"><tspan x="-6.304" y="21">T</tspan></text><text transform="translate(368.837 91.06)" fill="#12263f" font-size="20" font-family="Roboto-Black, Roboto" font-weight="800"><tspan x="-6.099" y="21">Z</tspan></text><text transform="translate(447.939 91.06)" fill="#12263f" font-size="20" font-family="Roboto-Black, Roboto" font-weight="800"><tspan x="-6.099" y="21">Z</tspan></text><text transform="translate(210.633 177.52)" fill="#12263f" font-size="20" font-family="Roboto-Black, Roboto" font-weight="800"><tspan x="-6.26" y="21">S</tspan></text><text transform="translate(0 177.52)" fill="#12263f" font-size="20" font-family="Roboto-Black, Roboto" font-weight="800"><tspan x="-6.304" y="21">T</tspan></text><text transform="translate(38.532 88.3)" fill="#12263f" font-size="20" font-family="Roboto-Black, Roboto" font-weight="800"><tspan x="-6.099" y="21">Z</tspan></text><path d="M-4672-8040v171.542h188.1v-155.905h-28.974v137.509h-22.535l-39.551-137.509h-17.016v137.509h-22.995l-39.551-137.509h-14.41" transform="translate(4949.777 8067.594)" fill="none" stroke="#707070" stroke-width="3"/><g transform="translate(267.66 72.664)" fill="#fff" stroke="#707070" stroke-width="3"><rect width="20.235" height="60.706" rx="2" stroke="none"/><rect x="1.5" y="1.5" width="17.235" height="57.706" rx="0.5" fill="none"/></g><g transform="translate(347.682 72.664)" fill="#fff" stroke="#707070" stroke-width="3"><rect width="20.235" height="60.706" rx="2" stroke="none"/><rect x="1.5" y="1.5" width="17.235" height="57.706" rx="0.5" fill="none"/></g><g transform="translate(426.784 72.664)" fill="#fff" stroke="#707070" stroke-width="3"><rect width="20.235" height="60.706" rx="2" stroke="none"/><rect x="1.5" y="1.5" width="17.235" height="57.706" rx="0.5" fill="none"/></g><circle cx="5.059" cy="5.059" r="5.059" transform="translate(273.179 38.631)" fill="#707070"/><circle cx="5.059" cy="5.059" r="5.059" transform="translate(353.201 38.631)" fill="#707070"/><circle cx="5.059" cy="5.059" r="5.059" transform="translate(432.303 38.631)" fill="#707070"/></g><g transform="translate(331.451 3657.23)"><path d="M-4656-8033v15.537" transform="translate(5075.699 8040.768)" fill="none" stroke="#707070" stroke-width="3"/><path d="M-4656-8033v15.537" transform="translate(4995.528 8040.768)" fill="none" stroke="#707070" stroke-width="3"/><path d="M-4656-8033v15.537" transform="translate(4750.355 8033)" fill="none" stroke="#707070" stroke-width="3"/><path d="M0,0V15.537" transform="translate(178.053 156.768) rotate(-60)" fill="none" stroke="#707070" stroke-width="3"/><path d="M0,15.537V0" transform="translate(0 164.536) rotate(-120)" fill="none" stroke="#707070" stroke-width="3"/></g></g><g transform="translate(81.438 222.521)"><circle cx="14.5" cy="14.5" r="14.5" transform="translate(464 3637)" fill="#ad84ff"/><text transform="translate(471 3638)" fill="#12263f" font-size="20" font-family="Roboto-Black, Roboto" font-weight="800"><tspan x="-8.33" y="21">a.</tspan></text></g><g transform="translate(332.438 222.521)"><circle cx="14.5" cy="14.5" r="14.5" transform="translate(464 3637)" fill="#ad84ff"/><text transform="translate(469 3638)" fill="#12263f" font-size="20" font-family="Roboto-Black, Roboto" font-weight="800"><tspan x="-8.652" y="21">b.</tspan></text></g></g></svg>