<svg xmlns="http://www.w3.org/2000/svg" width="285" height="310" viewBox="0 0 285 310"><rect width="285" height="310" fill="#fff"/><g transform="translate(10.989 30.915)"><text transform="translate(122.143 98.431)" fill="#afafaf" font-size="9" font-family="Roboto-Regular, Roboto"><tspan x="0" y="0">φ</tspan></text><text transform="translate(166.008 84.707)" fill="#afafaf" font-size="9" font-family="Roboto-Regular, Roboto"><tspan x="0" y="0">φ</tspan></text><text transform="translate(144.883 165.786)" fill="#afafaf" font-size="9" font-family="Roboto-Regular, Roboto"><tspan x="0" y="0">φ</tspan></text><text transform="translate(147.883 98.53)" fill="#afafaf" font-size="9" font-family="Roboto-Regular, Roboto"><tspan x="0" y="0">30°</tspan></text><text transform="translate(103.883 67.593)" fill="#afafaf" font-size="9" font-family="Roboto-Regular, Roboto"><tspan x="0" y="0">30°</tspan></text><text transform="translate(88.407 133.852)" fill="#afafaf" font-size="9" font-family="Roboto-Regular, Roboto"><tspan x="0" y="0">φ</tspan></text><path d="M0,0A16.946,16.946,0,0,1,12.115,13.827" transform="matrix(0.588, -0.809, 0.809, 0.588, 118.985, 109.467)" fill="none" stroke="#afafaf" stroke-width="1"/><path d="M0,0A22.5,22.5,0,0,1,16.083,18.356" transform="matrix(0.946, -0.326, 0.326, 0.946, 137.292, 99.841)" fill="none" stroke="#afafaf" stroke-width="1"/><path d="M0,0A25.762,25.762,0,0,1,18.416,21.019" transform="translate(101.709 80.783) rotate(-65)" fill="none" stroke="#afafaf" stroke-width="1"/><path d="M0,0A43.193,43.193,0,0,1,30.876,35.24" transform="translate(129.468 79.713) rotate(-24)" fill="none" stroke="#afafaf" stroke-width="1"/><path d="M0,0A26.1,26.1,0,0,1,18.655,21.292" transform="matrix(-0.259, 0.966, -0.966, -0.259, 160.883, 145.031)" fill="none" stroke="#afafaf" stroke-width="1"/><path d="M0,0A24.027,24.027,0,0,1,17.175,19.6" transform="translate(105.476 147.183) rotate(-145)" fill="none" stroke="#afafaf" stroke-width="1"/><g transform="translate(60.168 16.846)"><path d="M-4829-4382l61.619,105.363h119.475" transform="translate(4839.143 4391.733)" fill="none" stroke="#36653e" stroke-width="2"/><path d="M-4829-4166.988-4766.911-4270" transform="translate(4839.143 4385.097)" fill="none" stroke="#36653e" stroke-width="2"/><path d="M14.481,6.428,16.653,10l-.169.112-8.06-3.2L0,5.056,8.424,3.2,16.484,0l.169.085-2.176,3.6Z" transform="translate(10.527 0) rotate(61)" fill="#36653e"/><path d="M14.481,6.428,16.653,10l-.169.112-8.06-3.2L0,5.056,8.424,3.2,16.484,0l.169.085-2.176,3.6Z" transform="translate(202.855 120.153) rotate(-180)" fill="#36653e"/><path d="M14.481,6.428,16.653,10l-.169.112-8.06-3.2L0,5.056,8.424,3.2,16.484,0l.169.085-2.176,3.6Z" transform="matrix(0.5, -0.866, 0.866, 0.5, 0, 225.143)" fill="#36653e"/></g><text transform="translate(36.915 21.876)" fill="#36653e" font-size="16" font-family="Roboto-Black, Roboto" font-weight="800"><tspan x="-11.25" y="17">V</tspan><tspan y="17" font-size="9.333" baseline-shift="-5.33279994943018">RS</tspan></text><text transform="translate(82.07 229.171)" fill="#36653e" font-size="16" font-family="Roboto-Black, Roboto" font-weight="800"><tspan x="-11.271" y="17">V</tspan><tspan y="17" font-size="9.333" baseline-shift="-5.33279994943018">TR</tspan></text><text transform="translate(231.649 101.23)" fill="#36653e" font-size="16" font-family="Roboto-Black, Roboto" font-weight="800"><tspan x="-11.148" y="17">V</tspan><tspan y="17" font-size="9.333" baseline-shift="-5.33279994943018">ST</tspan></text><text transform="translate(141.883 56.707)" fill="#c92296" font-size="16" font-family="Roboto-Black, Roboto" font-weight="800"><tspan x="-8.379" y="17">I</tspan><tspan y="17" font-size="9.333" baseline-shift="-5.33279994943018">RS</tspan></text><text transform="translate(53.066 131.525)" fill="#c92296" font-size="16" font-family="Roboto-Black, Roboto" font-weight="800"><tspan x="-8.4" y="17">I</tspan><tspan y="17" font-size="9.333" baseline-shift="-5.33279994943018">TR</tspan></text><text transform="translate(30.34 164.403)" fill="#0f58b9" font-size="16" font-family="Roboto-Black, Roboto" font-weight="800"><tspan x="-11.503" y="17">V</tspan><tspan y="17" font-size="9.333" baseline-shift="-5.33279994943018">TN</tspan></text><text transform="translate(116.883 18.4)" fill="#0f58b9" font-size="16" font-family="Roboto-Black, Roboto" font-weight="800"><tspan x="-11.606" y="17">V</tspan><tspan y="17" font-size="9.333" baseline-shift="-5.33279994943018">RN</tspan></text><text transform="translate(205.877 158.286)" fill="#0f58b9" font-size="16" font-family="Roboto-Black, Roboto" font-weight="800"><tspan x="-11.483" y="17">V</tspan><tspan y="17" font-size="9.333" baseline-shift="-5.33279994943018">SN</tspan></text><text transform="translate(162.935 168.273)" fill="#c92296" font-size="16" font-family="Roboto-Black, Roboto" font-weight="800"><tspan x="-8.277" y="17">I</tspan><tspan y="17" font-size="9.333" baseline-shift="-5.33279994943018">ST</tspan></text><g transform="translate(50.051 29.536)"><g transform="translate(75.442 0) rotate(40)"><path d="M13.99,0,0,74.617l49.745,42.749" transform="translate(71.508 0)" fill="none" stroke="#fe0000" stroke-width="2"/><path d="M0,23.318,72.286,0" transform="translate(0 74.617)" fill="none" stroke="#fe0000" stroke-width="2"/></g><path d="M14.481,6.428,16.653,10l-.169.112-8.06-3.2L0,5.056,8.424,3.2,16.484,0l.169.085-2.176,3.6Z" transform="translate(154.038 50.151) rotate(139)" fill="#fb0000"/><path d="M14.481,6.428,16.653,10l-.169.112-8.06-3.2L0,5.056,8.424,3.2,16.484,0l.169.085-2.176,3.6Z" transform="matrix(-0.259, -0.966, 0.966, -0.259, 90.151, 179.214)" fill="#fb0000"/><path d="M14.481,6.428,16.653,10l-.169.112-8.06-3.2L0,5.056,8.424,3.2,16.484,0l.169.085-2.176,3.6Z" transform="translate(7.756 66.306) rotate(30)" fill="#fb0000"/></g><g transform="translate(79.607 77.709)"><g transform="translate(9.519 9.078)"><path d="M-4754.533-4318l-8.467,45.156,30.1,25.871" transform="translate(4806.274 4318)" fill="none" stroke="#c82494" stroke-width="2"/><path d="M-4809-4255.889l43.745-14.111" transform="translate(4809 4315.156)" fill="none" stroke="#c82494" stroke-width="2"/></g><path d="M14.481,6.428,16.653,10l-.169.112-8.06-3.2L0,5.056,8.424,3.2,16.484,0l.169.085-2.176,3.6Z" transform="translate(67.684 1.756) rotate(100)" fill="#c82494"/><path d="M14.481,6.428,16.653,10l-.169.112-8.06-3.2L0,5.056,8.424,3.2,16.484,0l.169.085-2.176,3.6Z" transform="matrix(-0.799, -0.602, 0.602, -0.799, 88.225, 90.564)" fill="#c82494"/><path d="M14.481,6.428,16.653,10l-.169.112-8.06-3.2L0,5.056,8.424,3.2,16.484,0l.169.085-2.176,3.6Z" transform="translate(0 66.275) rotate(-19)" fill="#c82494"/></g><text transform="translate(32.887 85.67)" fill="#fb0000" font-size="16" font-family="Roboto-Black, Roboto" font-weight="800"><tspan x="-5.356" y="17">I</tspan><tspan y="17" font-size="9.333" baseline-shift="-5.33279994943018">T</tspan></text><text transform="translate(193.024 54.545)" fill="#fb0000" font-size="16" font-family="Roboto-Black, Roboto" font-weight="800"><tspan x="-5.458" y="17">I</tspan><tspan y="17" font-size="9.333" baseline-shift="-5.33279994943018">R</tspan></text><text transform="translate(114.887 204.712)" fill="#fb0000" font-size="16" font-family="Roboto-Black, Roboto" font-weight="800"><tspan x="-5.335" y="17">I</tspan><tspan y="17" font-size="9.333" baseline-shift="-5.33279994943018">S</tspan></text><g transform="translate(0 134.431) rotate(-53)"><g transform="translate(75.442 0) rotate(40)"><path d="M13.99,0,0,74.617l49.745,42.749" transform="translate(71.508 0)" fill="none" stroke="#0f58b9" stroke-width="2"/><path d="M0,23.318,72.286,0" transform="translate(0 74.617)" fill="none" stroke="#0f58b9" stroke-width="2"/></g><path d="M14.481,6.428,16.653,10l-.169.112-8.06-3.2L0,5.056,8.424,3.2,16.484,0l.169.085-2.176,3.6Z" transform="translate(154.038 50.151) rotate(139)" fill="#0f58b9"/><path d="M14.481,6.428,16.653,10l-.169.112-8.06-3.2L0,5.056,8.424,3.2,16.484,0l.169.085-2.176,3.6Z" transform="matrix(-0.259, -0.966, 0.966, -0.259, 90.151, 179.214)" fill="#0f58b9"/><path d="M14.481,6.428,16.653,10l-.169.112-8.06-3.2L0,5.056,8.424,3.2,16.484,0l.169.085-2.176,3.6Z" transform="translate(7.756 66.306) rotate(30)" fill="#0f58b9"/></g></g></svg>