<svg xmlns="http://www.w3.org/2000/svg" width="527" height="270" viewBox="0 0 527 270"><g transform="translate(-861 -4866)"><rect width="527" height="270" transform="translate(861 4866)" fill="#fff"/><g transform="translate(15.625 -91)"><text transform="translate(870.808 5038)" fill="#12263f" font-size="16" font-family="Roboto-Regular, Roboto"><tspan x="0" y="17">Neutro</tspan></text><text transform="translate(1296.942 5038)" fill="#12263f" font-size="16" font-family="Roboto-Regular, Roboto"><tspan x="0" y="17">Neutro</tspan></text><text transform="translate(1069.5 5037.5)" fill="#12263f" font-size="16" font-family="Roboto-Regular, Roboto"><tspan x="-40.938" y="17">Vivo o Fase</tspan></text><text transform="translate(1083.221 5065.747)" fill="#12263f" font-size="16" font-family="Roboto-Regular, Roboto"><tspan x="-20.563" y="17">Tierra</tspan></text><g transform="translate(931.5 4983.748)"><path d="M7.445,20.384h99.418a7.445,7.445,0,0,1,7.445,7.445v89.925a7.445,7.445,0,0,1-7.445,7.445H7.445A7.445,7.445,0,0,1,0,117.754V27.829A7.445,7.445,0,0,1,7.445,20.384Z" transform="translate(0 -0.016)" fill="#cfd8dc"/><path d="M106.853,125.168H7.455A7.455,7.455,0,0,1,0,117.713V27.808a7.455,7.455,0,0,1,7.455-7.445h99.4a7.455,7.455,0,0,1,7.455,7.455v89.905A7.455,7.455,0,0,1,106.853,125.168ZM7.455,25.333A2.485,2.485,0,0,0,4.97,27.818v89.905a2.485,2.485,0,0,0,2.485,2.485h99.4a2.485,2.485,0,0,0,2.485-2.485V27.808a2.485,2.485,0,0,0-2.485-2.485Z" transform="translate(0 0)"/><g transform="translate(18.569 37.497)"><rect width="70.861" height="63.948" transform="translate(3.485 3.132)" fill="#455a64"/><path d="M71.914,90.9H5.017A5.017,5.017,0,0,1,0,85.882V25.374a5.017,5.017,0,0,1,5.017-5.011h66.9a5.017,5.017,0,0,1,5.017,5.017V85.889A5.017,5.017,0,0,1,71.914,90.9ZM5.017,23.708A1.673,1.673,0,0,0,3.345,25.38V85.889a1.673,1.673,0,0,0,1.672,1.672h66.9a1.673,1.673,0,0,0,1.672-1.672V25.374A1.673,1.673,0,0,0,71.914,23.7Z" transform="translate(0 -20.363)" stroke="#000" stroke-width="1"/></g><g transform="translate(50.554 77.784)" fill="#474545" stroke="#000" stroke-linecap="round" stroke-linejoin="round" stroke-width="5"><rect width="12.962" height="18.147" stroke="none"/><rect x="2.5" y="2.5" width="7.962" height="13.147" fill="none"/></g><g transform="matrix(0.899, -0.438, 0.438, 0.899, 61.644, 55.446)" fill="#474545" stroke="#000" stroke-linecap="round" stroke-linejoin="round" stroke-width="5"><rect width="13.338" height="21.969" stroke="none"/><rect x="2.5" y="2.5" width="8.338" height="16.969" fill="none"/></g><g transform="matrix(-0.899, -0.438, 0.438, -0.899, 43.033, 75.191)" fill="#474545" stroke="#000" stroke-linecap="round" stroke-linejoin="round" stroke-width="5"><rect width="13.338" height="21.968" stroke="none"/><rect x="2.5" y="2.5" width="8.338" height="16.968" fill="none"/></g><ellipse cx="3" cy="3.5" rx="3" ry="3.5" transform="translate(9.5 29.752)"/><ellipse cx="3" cy="3.5" rx="3" ry="3.5" transform="translate(9.5 108.752)"/><ellipse cx="3" cy="3.5" rx="3" ry="3.5" transform="translate(98.5 29.752)"/><ellipse cx="3" cy="3.5" rx="3" ry="3.5" transform="translate(98.5 108.752)"/></g><g transform="translate(1060.5 5090.747)"><g transform="translate(1.47 1.47)"><path d="M54.245,29.7h5.892V10.446a2.946,2.946,0,0,0-5.892,0Z" transform="translate(26.646 -7.5)" fill="#b6c4cf"/><path d="M63.7,7.5a2.93,2.93,0,0,1,1.67.52A2.941,2.941,0,0,0,64.1,10.446V29.7h-3.34V10.446A2.946,2.946,0,0,1,63.7,7.5Z" transform="translate(20.134 -7.5)" fill="#9facba"/><path d="M150.848,29.7h5.892V10.446a2.946,2.946,0,0,0-5.892,0Z" transform="translate(-88.885 -7.5)" fill="#b6c4cf"/><path d="M160.3,7.5a2.93,2.93,0,0,1,1.67.52,2.941,2.941,0,0,0-1.276,2.425V29.7h-3.34V10.446A2.946,2.946,0,0,1,160.3,7.5Z" transform="translate(-95.396 -7.5)" fill="#9facba"/><g transform="translate(0 21.214)"><path d="M148.906,191.937h14.767a16.614,16.614,0,0,0,16.6-16.6v-30.51a2.848,2.848,0,1,0-5.7,0v30.51a10.912,10.912,0,0,1-10.9,10.9H148.906a10.912,10.912,0,0,1-10.9-10.9V132.366a16.614,16.614,0,0,0-16.6-16.6H105.9a2.848,2.848,0,1,0,0,5.7h15.515a10.912,10.912,0,0,1,10.9,10.9v42.976A16.614,16.614,0,0,0,148.906,191.937Z" transform="translate(-103.048 -115.771)" fill="#9facba"/></g><path d="M92.088,258.291h1.784a5.1,5.1,0,0,0,5.1-5.1V238.111H86.985v15.077A5.1,5.1,0,0,0,92.088,258.291Z" transform="translate(-18.607 -192.926)" fill="#7a8c98"/><path d="M108.942,238.111v15.077a5.1,5.1,0,0,0,3.211,4.74,5.087,5.087,0,0,1-1.892.364h-1.784a5.1,5.1,0,0,1-5.1-5.1V238.111h5.567Z" transform="translate(-34.997 -192.926)" fill="#596c76"/><path d="M49.077,155.835a16.693,16.693,0,0,0,16.693-16.693V120.783H32.384v18.359A16.693,16.693,0,0,0,49.077,155.835Z" transform="translate(25.295 -98.587)" fill="#596c76"/><g transform="translate(0 21.214)"><path d="M260.305,155.74v42.976a16.614,16.614,0,0,0,16.6,16.6h-3.34a16.614,16.614,0,0,1-16.6-16.6V155.74a10.912,10.912,0,0,0-10.9-10.9h3.34a10.912,10.912,0,0,1,10.9,10.9Z" transform="translate(-227.702 -139.145)" fill="#8d9ca8"/><path d="M468.423,115.772h3.34a2.848,2.848,0,1,0,0,5.7h-3.34a2.848,2.848,0,0,1,0-5.7Z" transform="translate(-465.575 -115.772)" fill="#8d9ca8"/></g><path d="M108.942,120.783v18.359a16.7,16.7,0,0,0,13.91,16.458,16.683,16.683,0,0,1-19.477-16.458V120.783h5.567Z" transform="translate(-45.696 -98.587)" fill="#465a61"/><path d="M19.556,106.154H50.39a4.713,4.713,0,1,0,0-9.427H19.556a4.713,4.713,0,1,0,0,9.427Z" transform="translate(39.399 -79.244)" fill="#7a8c98"/><path d="M172.566,96.727h5.567a4.713,4.713,0,1,0,0,9.427h-5.567a4.713,4.713,0,1,1,0-9.427Z" transform="translate(-113.611 -79.244)" fill="#596c76"/></g><g transform="translate(0)"><path d="M11.66,21.214H27.175A18.085,18.085,0,0,1,45.24,39.279V82.254a9.441,9.441,0,0,0,9.43,9.43H69.438a9.441,9.441,0,0,0,9.43-9.43V67.339a6.574,6.574,0,0,1-3.147-5.607v-3.15a18.189,18.189,0,0,1-10.7-16.558V29.2a6.182,6.182,0,0,1,2.746-11.721h1.538V13.466a1.47,1.47,0,0,1,2.939,0v4.017H75.2V4.415a1.476,1.476,0,0,0-2.953,0V6.608a1.47,1.47,0,0,1-2.939,0V4.415a4.415,4.415,0,0,1,8.831,0V17.483h10.1V4.415a4.415,4.415,0,1,1,8.831,0V17.483H98.6A6.182,6.182,0,0,1,101.348,29.2c0,13.925.014,13.185-.037,13.99a1.469,1.469,0,0,1-2.933-.186c.043-.676.031.1.031-13.158H67.961V42.025a15.227,15.227,0,0,0,28.765,6.964,1.47,1.47,0,0,1,2.612,1.347,18.128,18.128,0,0,1-8.69,8.256v3.14A6.574,6.574,0,0,1,87.5,67.339V82.255A18.085,18.085,0,0,1,69.438,100.32H54.67A18.085,18.085,0,0,1,36.606,82.255V39.279a9.441,9.441,0,0,0-9.43-9.43H11.66a4.317,4.317,0,0,1,0-8.635Zm82.465-16.8a1.476,1.476,0,0,0-2.953,0V17.483h2.953Zm5.081,22.436.074-.014a3.243,3.243,0,0,0-.678-6.415H67.768a3.243,3.243,0,0,0-.6,6.429C67.673,26.948,98.722,26.943,99.206,26.851Zm-11.5,32.768a18.289,18.289,0,0,1-9.051,0v2.115a3.644,3.644,0,0,0,3.633,3.633,8.326,8.326,0,0,0,2.945-.194,3.637,3.637,0,0,0,2.472-3.44V59.619ZM11.66,26.91H27.175A12.383,12.383,0,0,1,39.545,39.279V82.254A15.143,15.143,0,0,0,54.67,97.38H69.438A15.143,15.143,0,0,0,84.563,82.254V68.287c-.4.029-2.357.029-2.756,0V82.254A12.383,12.383,0,0,1,69.438,94.624H54.67A12.383,12.383,0,0,1,42.3,82.254V39.279A15.143,15.143,0,0,0,27.175,24.153H11.66a1.378,1.378,0,1,0,0,2.756Z" transform="translate(-7.343 0)"/></g></g><g transform="translate(29.5 0.11)"><circle cx="52.5" cy="52.5" r="52.5" transform="translate(1146 5004)" fill="#e8e8e8"/><path d="M11.323,2.58a2,2,0,0,1,3.354,0l9.315,14.33A2,2,0,0,1,22.315,20H3.685a2,2,0,0,1-1.677-3.09Z" transform="matrix(0.966, -0.259, 0.259, 0.966, 1146, 5089.681)" fill="#e8e8e8"/></g><g transform="translate(1191.409 5018.954)"><g transform="translate(0)"><g transform="translate(0 0)" fill="#7a8c98" stroke="#000" stroke-width="5"><rect width="73.182" height="75.092" rx="28" stroke="none"/><rect x="2.5" y="2.5" width="68.182" height="70.092" rx="25.5" fill="none"/></g></g><g transform="translate(29.31 42.729)" fill="#9facba" stroke="#000" stroke-linecap="round" stroke-linejoin="round" stroke-width="5"><rect width="13.387" height="18.742" stroke="none"/><rect x="2.5" y="2.5" width="8.387" height="13.742" fill="none"/></g><g transform="matrix(0.899, -0.438, 0.438, 0.899, 40.764, 19.66)" fill="#9facba" stroke="#000" stroke-linecap="round" stroke-linejoin="round" stroke-width="5"><rect width="13.775" height="22.688" stroke="none"/><rect x="2.5" y="2.5" width="8.775" height="17.688" fill="none"/></g><g transform="matrix(-0.899, -0.438, 0.438, -0.899, 21.544, 40.051)" fill="#9facba" stroke="#000" stroke-linecap="round" stroke-linejoin="round" stroke-width="5"><rect width="13.775" height="22.688" stroke="none"/><rect x="2.5" y="2.5" width="8.775" height="17.688" fill="none"/></g></g><g transform="translate(0 1)"><path d="M0,20.391V0" transform="translate(1178.333 5047) rotate(90)" fill="none" stroke="#ad84ff" stroke-width="3"/><path d="M14.278,3.632,16.419.111,16.253,0,8.306,3.157,0,4.985,8.306,6.812,16.253,9.97l.166-.084L14.274,6.338Z" transform="translate(1189.442 5051.985) rotate(180)" fill="#ad84ff"/></g><g transform="translate(-231 1)"><path d="M0,20.391V0" transform="translate(1178.333 5047) rotate(90)" fill="none" stroke="#ad84ff" stroke-width="3"/><path d="M14.278,3.632,16.419.111,16.253,0,8.306,3.157,0,4.985,8.306,6.812,16.253,9.97l.166-.084L14.274,6.338Z" transform="translate(1189.442 5051.985) rotate(180)" fill="#ad84ff"/></g><g transform="translate(2224 10095) rotate(180)"><path d="M0,20.391V0" transform="translate(1178.333 5047) rotate(90)" fill="none" stroke="#ad84ff" stroke-width="3"/><path d="M14.278,3.632,16.419.111,16.253,0,8.306,3.157,0,4.985,8.306,6.812,16.253,9.97l.166-.084L14.274,6.338Z" transform="translate(1189.442 5051.985) rotate(180)" fill="#ad84ff"/></g><g transform="translate(2451 10095) rotate(180)"><path d="M0,20.391V0" transform="translate(1178.333 5047) rotate(90)" fill="none" stroke="#ad84ff" stroke-width="3"/><path d="M14.278,3.632,16.419.111,16.253,0,8.306,3.157,0,4.985,8.306,6.812,16.253,9.97l.166-.084L14.274,6.338Z" transform="translate(1189.442 5051.985) rotate(180)" fill="#ad84ff"/></g><g transform="translate(2197 10122.247) rotate(180)"><path d="M0,65V0" transform="translate(1178.333 5047) rotate(90)" fill="none" stroke="#ad84ff" stroke-width="3"/><path d="M14.278,3.632,16.419.111,16.253,0,8.306,3.157,0,4.985,8.306,6.812,16.253,9.97l.166-.084L14.274,6.338Z" transform="translate(1189.442 5051.985) rotate(180)" fill="#ad84ff"/></g><g transform="translate(1135.221 5070.262)"><path d="M0,0V65" transform="translate(0 4.985) rotate(-90)" fill="none" stroke="#ad84ff" stroke-width="3"/><path d="M14.278,6.338l2.141,3.521-.166.111L8.306,6.812,0,4.985,8.306,3.157,16.253,0l.166.084L14.274,3.632Z" transform="translate(76.109 9.97) rotate(180)" fill="#ad84ff"/></g></g></g></svg>