<svg xmlns="http://www.w3.org/2000/svg" width="176.465" height="54.818" viewBox="0 0 176.465 54.818">
  <g id="Grupo_55667" data-name="Grupo 55667" transform="translate(-744.385 -4890.576)">
    <g id="Grupo_55438" data-name="Grupo 55438" transform="translate(285 -257)">
      <path id="Trazado_107342" data-name="Trazado 107342" d="M11.34,15.336H5.813V21H2.385V6.781H11.9V9.428H5.813V12.7H11.34Zm11.641.459a6.372,6.372,0,0,1-1.108,3.931,3.554,3.554,0,0,1-2.993,1.47,3.046,3.046,0,0,1-2.393-1.064v4.932H13.2V10.434h3.076l.1.977a3.046,3.046,0,0,1,2.49-1.172,3.582,3.582,0,0,1,3.037,1.44,6.45,6.45,0,0,1,1.084,3.96Zm-3.291-.205q0-2.812-1.641-2.812a1.549,1.549,0,0,0-1.562.84v4.16a1.6,1.6,0,0,0,1.582.879q1.572,0,1.621-2.715Zm19.092-1.641H29.738V11.41h9.043Zm0,4.287H29.738V15.7h9.043ZM63.3,21H60V10.492l-3.242.947v-2.5L63,6.781h.3Zm10.771-5.5a3.476,3.476,0,0,1-2.383.957,3.847,3.847,0,0,1-3.066-1.309,5.156,5.156,0,0,1-1.133-3.5,5.247,5.247,0,0,1,.635-2.539A4.763,4.763,0,0,1,69.909,7.26a4.859,4.859,0,0,1,2.534-.684,4.717,4.717,0,0,1,2.544.708,4.767,4.767,0,0,1,1.772,2,6.877,6.877,0,0,1,.654,2.983v1.26a8.548,8.548,0,0,1-.923,4.082,6.371,6.371,0,0,1-2.632,2.656,8.224,8.224,0,0,1-3.984.928H69.67V18.559l.625-.01Q73.693,18.383,74.074,15.5ZM72.58,14.086a1.6,1.6,0,0,0,1.543-.928V11.791a3.555,3.555,0,0,0-.459-2.021,1.44,1.44,0,0,0-1.24-.654,1.361,1.361,0,0,0-1.162.742,3.3,3.3,0,0,0-.469,1.8,2.956,2.956,0,0,0,.479,1.772A1.531,1.531,0,0,0,72.58,14.086ZM89.094,21H79.172V18.852l4.57-4.8q1.689-1.924,1.689-3.057a2.126,2.126,0,0,0-.4-1.4,1.43,1.43,0,0,0-1.162-.479,1.447,1.447,0,0,0-1.221.64,2.629,2.629,0,0,0-.469,1.6h-3.3a4.67,4.67,0,0,1,.654-2.417A4.588,4.588,0,0,1,81.35,7.2a5.4,5.4,0,0,1,2.6-.625A5.308,5.308,0,0,1,87.5,7.641,3.8,3.8,0,0,1,88.742,10.7a4.439,4.439,0,0,1-.312,1.636A7.174,7.174,0,0,1,87.458,14a24.476,24.476,0,0,1-2.124,2.339L83.5,18.461h5.6Zm11.533-5.811a6.789,6.789,0,0,1-1.294,4.443,5.056,5.056,0,0,1-7.319-.01,6.779,6.779,0,0,1-1.3-4.434v-2.6a6.789,6.789,0,0,1,1.294-4.443,5.056,5.056,0,0,1,7.319.01,6.8,6.8,0,0,1,1.3,4.443Zm-3.291-3.018a5.071,5.071,0,0,0-.4-2.29,1.338,1.338,0,0,0-1.27-.757,1.307,1.307,0,0,0-1.235.7,4.777,4.777,0,0,0-.415,2.129V15.59a5.109,5.109,0,0,0,.4,2.329,1.343,1.343,0,0,0,1.27.737,1.325,1.325,0,0,0,1.24-.718,4.878,4.878,0,0,0,.41-2.251ZM113.557,15.7l1.631-8.916h3.4L115.568,21h-3.555l-1.9-8.105L108.244,21H104.7L101.672,6.781h3.408l1.631,8.916,1.953-8.916h2.91Zm30.527-1.748h-9.043V11.41h9.043Zm0,4.287h-9.043V15.7h9.043Zm17.139-3.047a6.789,6.789,0,0,1-1.294,4.443,5.056,5.056,0,0,1-7.319-.01,6.779,6.779,0,0,1-1.3-4.434v-2.6A6.789,6.789,0,0,1,152.6,8.148a5.056,5.056,0,0,1,7.319.01,6.8,6.8,0,0,1,1.3,4.443Zm-3.291-3.018a5.071,5.071,0,0,0-.4-2.29,1.338,1.338,0,0,0-1.27-.757,1.307,1.307,0,0,0-1.235.7,4.777,4.777,0,0,0-.415,2.129V15.59a5.11,5.11,0,0,0,.4,2.329,1.343,1.343,0,0,0,1.27.737,1.325,1.325,0,0,0,1.24-.718,4.878,4.878,0,0,0,.41-2.251Zm7.09,5.635a1.874,1.874,0,0,1,1.3.464,1.619,1.619,0,0,1,0,2.373,2.049,2.049,0,0,1-2.6,0,1.618,1.618,0,0,1,0-2.363A1.858,1.858,0,0,1,165.021,17.807Zm13.545-7.227a3.283,3.283,0,0,1-.513,1.826,3.734,3.734,0,0,1-1.411,1.27,4.109,4.109,0,0,1,1.611,1.362,3.515,3.515,0,0,1,.6,2.046,3.721,3.721,0,0,1-1.313,3.008,5.454,5.454,0,0,1-3.618,1.1,5.554,5.554,0,0,1-3.652-1.108,3.7,3.7,0,0,1-1.338-3,3.56,3.56,0,0,1,.586-2.021,3.984,3.984,0,0,1,1.66-1.387,3.755,3.755,0,0,1-1.426-1.27,3.26,3.26,0,0,1-.518-1.826,3.648,3.648,0,0,1,1.26-2.93,5.944,5.944,0,0,1,6.816,0A3.648,3.648,0,0,1,178.566,10.58Zm-3.018,6.24a1.877,1.877,0,0,0-.454-1.353,1.581,1.581,0,0,0-1.2-.474,1.6,1.6,0,0,0-1.2.474,1.865,1.865,0,0,0-.459,1.353,1.881,1.881,0,0,0,.464,1.343,1.592,1.592,0,0,0,1.216.493,1.53,1.53,0,0,0,1.182-.488A1.915,1.915,0,0,0,175.549,16.82Zm-1.66-7.705a1.216,1.216,0,0,0-1.011.435,1.886,1.886,0,0,0-.347,1.206,2,2,0,0,0,.352,1.23,1.213,1.213,0,0,0,1.035.469,1.163,1.163,0,0,0,1.011-.469,2.062,2.062,0,0,0,.337-1.23,1.89,1.89,0,0,0-.347-1.2A1.233,1.233,0,0,0,173.889,9.115Z" transform="translate(457 5141)" fill="#12263f"/>
    </g>
    <path id="Trazado_107343" data-name="Trazado 107343" d="M8.19,15.219a14.924,14.924,0,0,1,.635-4.434,10.7,10.7,0,0,1,1.753-3.477,6.225,6.225,0,0,1,2.485-1.992l.625,1.621a6.367,6.367,0,0,0-2.114,3.14,15.313,15.313,0,0,0-.757,5v.43a15.612,15.612,0,0,0,.747,5.1,6.34,6.34,0,0,0,2.124,3.164l-.625,1.621a6.163,6.163,0,0,1-2.485-2,10.538,10.538,0,0,1-1.753-3.462,15,15,0,0,1-.635-4.277Zm6.953-1.172.869-7.266h8.311V9.34H18.688l-.322,2.822a3.892,3.892,0,0,1,.923-.361,4.228,4.228,0,0,1,1.118-.156A4.171,4.171,0,0,1,23.664,12.9,5.055,5.055,0,0,1,24.8,16.42a5.046,5.046,0,0,1-.61,2.476,4.2,4.2,0,0,1-1.714,1.7,5.411,5.411,0,0,1-2.607.6,5.818,5.818,0,0,1-2.51-.552,4.5,4.5,0,0,1-1.836-1.514,3.68,3.68,0,0,1-.654-2.173h3.3a1.873,1.873,0,0,0,.5,1.24,1.579,1.579,0,0,0,1.182.459q1.66,0,1.66-2.461,0-2.275-2.031-2.275a2.025,2.025,0,0,0-1.719.742Zm16.377.068a3.78,3.78,0,0,1-.166-.664,2.569,2.569,0,0,1-1.963.8,2.516,2.516,0,0,1-1.792-.6,2.123,2.123,0,0,1-.64-1.626,1.932,1.932,0,0,1,.82-1.665,4.312,4.312,0,0,1,2.51-.591h1v-.5q0-1.24-1.133-1.24a1.71,1.71,0,0,0-.991.249A.822.822,0,0,0,28.806,9l-1.689-.137a1.953,1.953,0,0,1,.854-1.646,3.583,3.583,0,0,1,2.183-.63,2.948,2.948,0,0,1,2.08.7,2.589,2.589,0,0,1,.762,2v3.086a5.663,5.663,0,0,0,.254,1.738Zm-1.709-1.27a1.979,1.979,0,0,0,.8-.181,2.416,2.416,0,0,0,.674-.425V10.912H30.251a2.054,2.054,0,0,0-1.162.3.9.9,0,0,0-.42.771Q28.669,12.846,29.812,12.846Zm8.115-1.182-3.184-.879.635-1.846,3.115,1.279-.244-3.437h2.09l-.254,3.506,3.027-1.25.635,1.865-3.223.879,2.139,2.588-1.689,1.152L39.187,12.65l-1.8,2.773L35.7,14.32Zm15.42,3.779h1.445v2.539H53.347V21H50.056V17.982h-5.5l-.2-2.012,5.693-9.16V6.781h3.291Zm-5.85,0h2.559V11.068l-.205.332Zm18.33-4.863a3.283,3.283,0,0,1-.513,1.826,3.734,3.734,0,0,1-1.411,1.27,4.109,4.109,0,0,1,1.611,1.362,3.515,3.515,0,0,1,.6,2.046A3.721,3.721,0,0,1,64.8,20.092a5.454,5.454,0,0,1-3.618,1.1,5.554,5.554,0,0,1-3.652-1.108,3.7,3.7,0,0,1-1.338-3,3.56,3.56,0,0,1,.586-2.021,3.984,3.984,0,0,1,1.66-1.387,3.755,3.755,0,0,1-1.426-1.27,3.26,3.26,0,0,1-.518-1.826,3.648,3.648,0,0,1,1.26-2.93,5.944,5.944,0,0,1,6.816,0A3.648,3.648,0,0,1,65.827,10.58ZM62.81,16.82a1.877,1.877,0,0,0-.454-1.353,1.581,1.581,0,0,0-1.2-.474,1.6,1.6,0,0,0-1.2.474A1.865,1.865,0,0,0,59.5,16.82a1.881,1.881,0,0,0,.464,1.343,1.592,1.592,0,0,0,1.216.493,1.53,1.53,0,0,0,1.182-.488A1.915,1.915,0,0,0,62.81,16.82Zm-1.66-7.705a1.216,1.216,0,0,0-1.011.435,1.886,1.886,0,0,0-.347,1.206,2,2,0,0,0,.352,1.23,1.213,1.213,0,0,0,1.035.469,1.163,1.163,0,0,0,1.011-.469,2.062,2.062,0,0,0,.337-1.23,1.89,1.89,0,0,0-.347-1.2A1.233,1.233,0,0,0,61.149,9.115Zm16.543,6.074A6.789,6.789,0,0,1,76.4,19.633a5.056,5.056,0,0,1-7.319-.01,6.779,6.779,0,0,1-1.3-4.434v-2.6a6.789,6.789,0,0,1,1.294-4.443,5.056,5.056,0,0,1,7.319.01,6.8,6.8,0,0,1,1.3,4.443ZM74.4,12.172a5.071,5.071,0,0,0-.4-2.29,1.338,1.338,0,0,0-1.27-.757,1.307,1.307,0,0,0-1.235.7,4.777,4.777,0,0,0-.415,2.129V15.59a5.109,5.109,0,0,0,.4,2.329,1.343,1.343,0,0,0,1.27.737,1.325,1.325,0,0,0,1.24-.718,4.878,4.878,0,0,0,.41-2.251Zm10.723,4.961L87.956,6.781h3.828L87,21h-3.75L78.5,6.781h3.8Zm12.93-1.641a13.925,13.925,0,0,1-.674,4.355,11.12,11.12,0,0,1-1.86,3.54,6.193,6.193,0,0,1-2.563,2.007l-.625-1.621a6.43,6.43,0,0,0,2.1-3.125,15.085,15.085,0,0,0,.771-4.854v-.6a15.612,15.612,0,0,0-.747-5.1,6.34,6.34,0,0,0-2.124-3.164l.625-1.621A6.307,6.307,0,0,1,95.5,7.3a10.984,10.984,0,0,1,1.855,3.486,13.807,13.807,0,0,1,.7,4.272Z" transform="translate(774 4920)" fill="#12263f"/>
    <path id="Trazado_107174" data-name="Trazado 107174" d="M-6341-6789h85.5" transform="translate(7124 11701)" fill="none" stroke="#12263f" stroke-linecap="round" stroke-width="2"/>
  </g>
</svg>
