<svg xmlns="http://www.w3.org/2000/svg" width="319" height="319" viewBox="0 0 319 319"><g transform="translate(5039 -2577)"><rect width="319" height="319" transform="translate(-5039 2577)" fill="#fff"/><g transform="translate(-5026.701 2597.611)"><g transform="translate(0 0)"><text transform="translate(155.094 99.453)" fill="#afafaf" font-size="9" font-family="Roboto-Regular, Roboto"><tspan x="0" y="0">φ</tspan></text><text transform="translate(185.812 93.739)" fill="#afafaf" font-size="9" font-family="Roboto-Regular, Roboto"><tspan x="0" y="0">φ</tspan></text><text transform="translate(170.567 175.679)" fill="#afafaf" font-size="9" font-family="Roboto-Regular, Roboto"><tspan x="0" y="0">φ</tspan></text><text transform="translate(208.776 165.171)" fill="#afafaf" font-size="9" font-family="Roboto-Regular, Roboto"><tspan x="0" y="0">30°</tspan></text><text transform="translate(96.343 158.935)" fill="#afafaf" font-size="9" font-family="Roboto-Regular, Roboto"><tspan x="0" y="0">φ</tspan></text><path d="M0,0S14.3,3.171,16.991,18.746" transform="matrix(0.559, 0.829, -0.829, 0.559, 203.97, 148.267)" fill="none" stroke="#afafaf" stroke-width="1"/><path d="M0,0S12.391,2.575,14.726,15.219" transform="matrix(0.017, 1, -1, 0.017, 173.668, 159.184)" fill="none" stroke="#afafaf" stroke-width="1"/><path d="M0,0S12.391,2.575,14.726,15.219" transform="translate(145.989 113.178) rotate(-45)" fill="none" stroke="#afafaf" stroke-width="1"/><path d="M0,0S12.391,2.575,14.726,15.219" transform="translate(113.472 166.679) rotate(-135)" fill="none" stroke="#afafaf" stroke-width="1"/><g transform="translate(67.346 18.856)"><path d="M-4829-4382l68.97,117.933H-4626.3" transform="translate(4840.353 4392.895)" fill="none" stroke="#36653e" stroke-width="2"/><path d="M-4829-4154.7l69.5-115.3" transform="translate(4840.353 4398.828)" fill="none" stroke="#36653e" stroke-width="2"/><path d="M16.209,7.195l2.431,4-.189.126L9.429,7.733,0,5.659,9.429,3.584,18.451,0l.189.1L16.2,4.123Z" transform="translate(11.783 0) rotate(61)" fill="#36653e"/><path d="M16.209,7.195l2.431,4-.189.126L9.429,7.733,0,5.659,9.429,3.584,18.451,0l.189.1L16.2,4.123Z" transform="translate(227.055 134.487) rotate(-180)" fill="#36653e"/><path d="M16.209,7.195l2.431,4-.189.126L9.429,7.733,0,5.659,9.429,3.584,18.451,0l.189.1L16.2,4.123Z" transform="matrix(0.5, -0.866, 0.866, 0.5, 0, 252.003)" fill="#36653e"/></g><text transform="translate(41.318 24.486)" fill="#36653e" font-size="16" font-family="Roboto-Black, Roboto" font-weight="800"><tspan x="-11.25" y="17">V</tspan><tspan y="17" font-size="9.333" baseline-shift="-5.33279994943018">RS</tspan></text><text transform="translate(91.861 256.511)" fill="#36653e" font-size="16" font-family="Roboto-Black, Roboto" font-weight="800"><tspan x="-11.271" y="17">V</tspan><tspan y="17" font-size="9.333" baseline-shift="-5.33279994943018">TR</tspan></text><text transform="translate(259.284 113.306)" fill="#36653e" font-size="16" font-family="Roboto-Black, Roboto" font-weight="800"><tspan x="-11.148" y="17">V</tspan><tspan y="17" font-size="9.333" baseline-shift="-5.33279994943018">ST</tspan></text><text transform="translate(59.397 147.216)" fill="#c92296" font-size="16" font-family="Roboto-Black, Roboto" font-weight="800"><tspan x="-8.4" y="17">I</tspan><tspan y="17" font-size="9.333" baseline-shift="-5.33279994943018">TR</tspan></text><text transform="translate(33.96 184.016)" fill="#0f58b9" font-size="16" font-family="Roboto-Black, Roboto" font-weight="800"><tspan x="-11.503" y="17">V</tspan><tspan y="17" font-size="9.333" baseline-shift="-5.33279994943018">TN</tspan></text><text transform="translate(130.827 20.596)" fill="#0f58b9" font-size="16" font-family="Roboto-Black, Roboto" font-weight="800"><tspan x="-11.606" y="17">V</tspan><tspan y="17" font-size="9.333" baseline-shift="-5.33279994943018">RN</tspan></text><text transform="translate(230.438 177.169)" fill="#0f58b9" font-size="16" font-family="Roboto-Black, Roboto" font-weight="800"><tspan x="-11.483" y="17">V</tspan><tspan y="17" font-size="9.333" baseline-shift="-5.33279994943018">SN</tspan></text><g transform="translate(115.342 68.148) rotate(23)"><g transform="translate(10.654 10.161)"><path d="M9.477,0,0,50.543,33.7,79.5" transform="translate(48.437)" fill="none" stroke="#fb0000" stroke-width="2"/><path d="M0,15.795,48.963,0" transform="translate(0 50.543)" fill="none" stroke="#fb0000" stroke-width="2"/></g><path d="M16.209,7.195l2.431,4-.189.126L9.429,7.733,0,5.659,9.429,3.584,18.451,0l.189.1L16.2,4.123Z" transform="translate(75.759 1.965) rotate(100)" fill="#fb0000"/><path d="M16.209,7.195l2.431,4-.189.126L9.429,7.733,0,5.659,9.429,3.584,18.451,0l.189.1L16.2,4.123Z" transform="matrix(-0.799, -0.602, 0.602, -0.799, 98.75, 101.368)" fill="#fb0000"/><path d="M16.209,7.195l2.431,4-.189.126L9.429,7.733,0,5.659,9.429,3.584,18.451,0l.189.1L16.2,4.123Z" transform="translate(0 74.182) rotate(-19)" fill="#fb0000"/></g><text transform="translate(36.811 95.89)" fill="#fb0000" font-size="16" font-family="Roboto-Black, Roboto" font-weight="800"><tspan x="-5.356" y="17">I</tspan><tspan y="17" font-size="9.333" baseline-shift="-5.33279994943018">T</tspan></text><text transform="translate(156.576 69.628)" fill="#fb0000" font-size="16" font-family="Roboto-Black, Roboto" font-weight="800"><tspan x="-5.458" y="17">I</tspan><tspan y="17" font-size="9.333" baseline-shift="-5.33279994943018">R</tspan></text><text transform="translate(172.967 187.802)" fill="#fb0000" font-size="16" font-family="Roboto-Black, Roboto" font-weight="800"><tspan x="-5.335" y="17">I</tspan><tspan y="17" font-size="9.333" baseline-shift="-5.33279994943018">S</tspan></text><g transform="translate(0 150.469) rotate(-53)"><g transform="translate(84.442 0) rotate(40)"><g transform="translate(0 0)"><path d="M15.659,0,0,83.519l55.679,47.849" transform="translate(80.038)" fill="none" stroke="#0f58b9" stroke-width="2"/><path d="M0,26.1,80.909,0" transform="translate(0 83.519)" fill="none" stroke="#0f58b9" stroke-width="2"/></g></g><path d="M16.209,7.195l2.431,4-.189.126L9.429,7.733,0,5.659,9.429,3.584,18.451,0l.189.1L16.2,4.123Z" transform="translate(172.415 56.134) rotate(139)" fill="#0f58b9"/><path d="M16.209,7.195l2.431,4-.189.126L9.429,7.733,0,5.659,9.429,3.584,18.451,0l.189.1L16.2,4.123Z" transform="matrix(-0.259, -0.966, 0.966, -0.259, 100.906, 200.594)" fill="#0f58b9"/><path d="M16.209,7.195l2.431,4-.189.126L9.429,7.733,0,5.659,9.429,3.584,18.451,0l.189.1L16.2,4.123Z" transform="translate(8.681 74.216) rotate(30)" fill="#0f58b9"/></g></g></g></g></svg>