<svg xmlns="http://www.w3.org/2000/svg" width="545" height="326" viewBox="0 0 545 326">
  <g id="Grupo_974122" data-name="Grupo 974122" transform="translate(5021 2357)">
    <rect id="Rectángulo_5381" data-name="Rectángulo 5381" width="545" height="326" transform="translate(-5021 -2357)" fill="#fff"/>
    <g id="Grupo_55619" data-name="Grupo 55619" transform="translate(-5266 -5733)">
      <path id="Trazado_705001" data-name="Trazado 705001" d="M14.5,0A14.5,14.5,0,1,1,0,14.5,14.5,14.5,0,0,1,14.5,0Z" transform="translate(464 3637)" fill="#ad84ff"/>
      <path id="Trazado_705002" data-name="Trazado 705002" d="M6.932,19a3.716,3.716,0,0,1-.312-.947A3.06,3.06,0,0,1,4.08,19.2a3.749,3.749,0,0,1-2.539-.9A2.875,2.875,0,0,1,.5,16.021a2.955,2.955,0,0,1,1.27-2.6,6.468,6.468,0,0,1,3.691-.879H6.473v-.559q0-1.462-1.26-1.462a1.03,1.03,0,0,0-1.172,1.158H.75a2.95,2.95,0,0,1,1.3-2.487,5.479,5.479,0,0,1,3.325-.956,4.8,4.8,0,0,1,3.193.986,3.429,3.429,0,0,1,1.2,2.705v4.678a4.79,4.79,0,0,0,.449,2.227V19ZM4.871,16.852a1.836,1.836,0,0,0,1.021-.264,1.653,1.653,0,0,0,.581-.6V14.3H5.516Q3.8,14.3,3.8,15.846a.942.942,0,0,0,.3.728A1.1,1.1,0,0,0,4.871,16.852Zm8.76-1.045a1.874,1.874,0,0,1,1.3.464,1.619,1.619,0,0,1,0,2.373,2.049,2.049,0,0,1-2.6,0,1.618,1.618,0,0,1,0-2.363A1.858,1.858,0,0,1,13.631,15.807Z" transform="translate(471 3638)" fill="#12263f"/>
    </g>
    <g id="Grupo_55620" data-name="Grupo 55620" transform="translate(-5015 -5733)">
      <circle id="Elipse_4109" data-name="Elipse 4109" cx="14.5" cy="14.5" r="14.5" transform="translate(464 3637)" fill="#ad84ff"/>
      <path id="Trazado_705003" data-name="Trazado 705003" d="M13.08,13.8A6.44,6.44,0,0,1,12.006,17.8a3.6,3.6,0,0,1-3.027,1.4,3.122,3.122,0,0,1-2.6-1.279L6.244,19H3.295V4H6.586V9.283A3.013,3.013,0,0,1,8.959,8.238a3.6,3.6,0,0,1,3.047,1.416,6.473,6.473,0,0,1,1.074,3.984Zm-3.3-.21a4.3,4.3,0,0,0-.405-2.169,1.366,1.366,0,0,0-1.245-.648,1.576,1.576,0,0,0-1.543.848v4.192a1.585,1.585,0,0,0,1.563.838,1.4,1.4,0,0,0,1.475-1.131A8.121,8.121,0,0,0,9.779,13.595Zm6.787,2.212a1.874,1.874,0,0,1,1.3.464,1.619,1.619,0,0,1,0,2.373,2.049,2.049,0,0,1-2.6,0,1.618,1.618,0,0,1,0-2.363A1.858,1.858,0,0,1,16.566,15.807Z" transform="translate(469 3638)" fill="#12263f"/>
    </g>
    <g id="Grupo_55615" data-name="Grupo 55615" transform="translate(-4976.755 -2320.825)">
      <path id="Trazado_705004" data-name="Trazado 705004" d="M2.725,9.075A2.539,2.539,0,0,1,.991,8.3,2.552,2.552,0,0,1,.382,6.521,2.951,2.951,0,0,1,.666,5.205a2.471,2.471,0,0,1,.842-.96l.444.584A2.255,2.255,0,0,0,1.2,6.521a1.974,1.974,0,0,0,.4,1.263A1.71,1.71,0,0,0,2.725,8.4V5.256a.944.944,0,0,1,.3-.736,1.146,1.146,0,0,1,.8-.275,1.97,1.97,0,0,1,1.066.31,2.18,2.18,0,0,1,.78.855,2.544,2.544,0,0,1,.286,1.2,2.357,2.357,0,0,1-.637,1.72,2.7,2.7,0,0,1-1.784.745V11.1H2.725ZM3.538,8.4a1.819,1.819,0,0,0,1.178-.584,1.76,1.76,0,0,0,.431-1.208,2.053,2.053,0,0,0-.385-1.217,1.124,1.124,0,0,0-.934-.475q-.29,0-.29.36Z" transform="translate(87.374 72.585)" fill="#afafaf"/>
      <path id="Trazado_705005" data-name="Trazado 705005" d="M2.725,9.075A2.539,2.539,0,0,1,.991,8.3,2.552,2.552,0,0,1,.382,6.521,2.951,2.951,0,0,1,.666,5.205a2.471,2.471,0,0,1,.842-.96l.444.584A2.255,2.255,0,0,0,1.2,6.521a1.974,1.974,0,0,0,.4,1.263A1.71,1.71,0,0,0,2.725,8.4V5.256a.944.944,0,0,1,.3-.736,1.146,1.146,0,0,1,.8-.275,1.97,1.97,0,0,1,1.066.31,2.18,2.18,0,0,1,.78.855,2.544,2.544,0,0,1,.286,1.2,2.357,2.357,0,0,1-.637,1.72,2.7,2.7,0,0,1-1.784.745V11.1H2.725ZM3.538,8.4a1.819,1.819,0,0,0,1.178-.584,1.76,1.76,0,0,0,.431-1.208,2.053,2.053,0,0,0-.385-1.217,1.124,1.124,0,0,0-.934-.475q-.29,0-.29.36Z" transform="translate(129.707 119.006)" fill="#afafaf"/>
      <path id="Trazado_705006" data-name="Trazado 705006" d="M1.714,5.405h.611a1.343,1.343,0,0,0,.905-.3,1.013,1.013,0,0,0,.33-.8A.992.992,0,0,0,2.439,3.182a1.166,1.166,0,0,0-.842.3,1.054,1.054,0,0,0-.314.8H.47a1.632,1.632,0,0,1,.556-1.263,2.025,2.025,0,0,1,1.413-.5,2,2,0,0,1,1.419.479,1.73,1.73,0,0,1,.514,1.332,1.4,1.4,0,0,1-.27.809,1.632,1.632,0,0,1-.736.584,1.572,1.572,0,0,1,.815.554,1.538,1.538,0,0,1,.288.945,1.745,1.745,0,0,1-.562,1.367,2.106,2.106,0,0,1-1.463.505A2.162,2.162,0,0,1,.978,8.6,1.618,1.618,0,0,1,.413,7.313H1.23a1.046,1.046,0,0,0,.33.809,1.254,1.254,0,0,0,.883.3,1.23,1.23,0,0,0,.9-.308,1.186,1.186,0,0,0,.312-.883,1.076,1.076,0,0,0-.343-.857,1.493,1.493,0,0,0-.989-.308H1.714ZM9.6,6.271A3.718,3.718,0,0,1,9.11,8.394a1.735,1.735,0,0,1-1.525.694,1.747,1.747,0,0,1-1.516-.679,3.529,3.529,0,0,1-.51-2.028V5.3a3.636,3.636,0,0,1,.488-2.1,1.748,1.748,0,0,1,1.529-.686A1.764,1.764,0,0,1,9.1,3.175a3.508,3.508,0,0,1,.5,2.041ZM8.785,5.159a2.979,2.979,0,0,0-.29-1.505,1,1,0,0,0-.918-.472.985.985,0,0,0-.91.47A2.909,2.909,0,0,0,6.372,5.1V6.4a3.027,3.027,0,0,0,.3,1.531,1,1,0,0,0,.912.494.983.983,0,0,0,.894-.466,2.917,2.917,0,0,0,.305-1.468Zm1.894-1.5a1.122,1.122,0,0,1,.327-.8,1.056,1.056,0,0,1,.793-.343,1.036,1.036,0,0,1,.78.341,1.127,1.127,0,0,1,.323.8,1.1,1.1,0,0,1-.323.8,1.052,1.052,0,0,1-.78.33,1.125,1.125,0,0,1-1.121-1.125Zm1.121.563a.557.557,0,0,0,.4-.155.535.535,0,0,0,.163-.4A.569.569,0,0,0,12.2,3.24a.567.567,0,0,0-.806.009.573.573,0,0,0-.165.409.537.537,0,0,0,.165.4A.557.557,0,0,0,11.8,4.219Z" transform="translate(113.114 72.684)" fill="#afafaf"/>
      <path id="Trazado_705007" data-name="Trazado 705007" d="M1.714,5.405h.611a1.343,1.343,0,0,0,.905-.3,1.013,1.013,0,0,0,.33-.8A.992.992,0,0,0,2.439,3.182a1.166,1.166,0,0,0-.842.3,1.054,1.054,0,0,0-.314.8H.47a1.632,1.632,0,0,1,.556-1.263,2.025,2.025,0,0,1,1.413-.5,2,2,0,0,1,1.419.479,1.73,1.73,0,0,1,.514,1.332,1.4,1.4,0,0,1-.27.809,1.632,1.632,0,0,1-.736.584,1.572,1.572,0,0,1,.815.554,1.538,1.538,0,0,1,.288.945,1.745,1.745,0,0,1-.562,1.367,2.106,2.106,0,0,1-1.463.505A2.162,2.162,0,0,1,.978,8.6,1.618,1.618,0,0,1,.413,7.313H1.23a1.046,1.046,0,0,0,.33.809,1.254,1.254,0,0,0,.883.3,1.23,1.23,0,0,0,.9-.308,1.186,1.186,0,0,0,.312-.883,1.076,1.076,0,0,0-.343-.857,1.493,1.493,0,0,0-.989-.308H1.714ZM9.6,6.271A3.718,3.718,0,0,1,9.11,8.394a1.735,1.735,0,0,1-1.525.694,1.747,1.747,0,0,1-1.516-.679,3.529,3.529,0,0,1-.51-2.028V5.3a3.636,3.636,0,0,1,.488-2.1,1.748,1.748,0,0,1,1.529-.686A1.764,1.764,0,0,1,9.1,3.175a3.508,3.508,0,0,1,.5,2.041ZM8.785,5.159a2.979,2.979,0,0,0-.29-1.505,1,1,0,0,0-.918-.472.985.985,0,0,0-.91.47A2.909,2.909,0,0,0,6.372,5.1V6.4a3.027,3.027,0,0,0,.3,1.531,1,1,0,0,0,.912.494.983.983,0,0,0,.894-.466,2.917,2.917,0,0,0,.305-1.468Zm1.894-1.5a1.122,1.122,0,0,1,.327-.8,1.056,1.056,0,0,1,.793-.343,1.036,1.036,0,0,1,.78.341,1.127,1.127,0,0,1,.323.8,1.1,1.1,0,0,1-.323.8,1.052,1.052,0,0,1-.78.33,1.125,1.125,0,0,1-1.121-1.125Zm1.121.563a.557.557,0,0,0,.4-.155.535.535,0,0,0,.163-.4A.569.569,0,0,0,12.2,3.24a.567.567,0,0,0-.806.009.573.573,0,0,0-.165.409.537.537,0,0,0,.165.4A.557.557,0,0,0,11.8,4.219Z" transform="translate(110.338 145.802)" fill="#afafaf"/>
      <path id="Trazado_705008" data-name="Trazado 705008" d="M1.714,5.405h.611a1.343,1.343,0,0,0,.905-.3,1.013,1.013,0,0,0,.33-.8A.992.992,0,0,0,2.439,3.182a1.166,1.166,0,0,0-.842.3,1.054,1.054,0,0,0-.314.8H.47a1.632,1.632,0,0,1,.556-1.263,2.025,2.025,0,0,1,1.413-.5,2,2,0,0,1,1.419.479,1.73,1.73,0,0,1,.514,1.332,1.4,1.4,0,0,1-.27.809,1.632,1.632,0,0,1-.736.584,1.572,1.572,0,0,1,.815.554,1.538,1.538,0,0,1,.288.945,1.745,1.745,0,0,1-.562,1.367,2.106,2.106,0,0,1-1.463.505A2.162,2.162,0,0,1,.978,8.6,1.618,1.618,0,0,1,.413,7.313H1.23a1.046,1.046,0,0,0,.33.809,1.254,1.254,0,0,0,.883.3,1.23,1.23,0,0,0,.9-.308,1.186,1.186,0,0,0,.312-.883,1.076,1.076,0,0,0-.343-.857,1.493,1.493,0,0,0-.989-.308H1.714ZM9.6,6.271A3.718,3.718,0,0,1,9.11,8.394a1.735,1.735,0,0,1-1.525.694,1.747,1.747,0,0,1-1.516-.679,3.529,3.529,0,0,1-.51-2.028V5.3a3.636,3.636,0,0,1,.488-2.1,1.748,1.748,0,0,1,1.529-.686A1.764,1.764,0,0,1,9.1,3.175a3.508,3.508,0,0,1,.5,2.041ZM8.785,5.159a2.979,2.979,0,0,0-.29-1.505,1,1,0,0,0-.918-.472.985.985,0,0,0-.91.47A2.909,2.909,0,0,0,6.372,5.1V6.4a3.027,3.027,0,0,0,.3,1.531,1,1,0,0,0,.912.494.983.983,0,0,0,.894-.466,2.917,2.917,0,0,0,.305-1.468Zm1.894-1.5a1.122,1.122,0,0,1,.327-.8,1.056,1.056,0,0,1,.793-.343,1.036,1.036,0,0,1,.78.341,1.127,1.127,0,0,1,.323.8,1.1,1.1,0,0,1-.323.8,1.052,1.052,0,0,1-.78.33,1.125,1.125,0,0,1-1.121-1.125Zm1.121.563a.557.557,0,0,0,.4-.155.535.535,0,0,0,.163-.4A.569.569,0,0,0,12.2,3.24a.567.567,0,0,0-.806.009.573.573,0,0,0-.165.409.537.537,0,0,0,.165.4A.557.557,0,0,0,11.8,4.219Z" transform="translate(50.215 106.145)" fill="#afafaf"/>
      <path id="Trazado_705009" data-name="Trazado 705009" d="M2.725,9.075A2.539,2.539,0,0,1,.991,8.3,2.552,2.552,0,0,1,.382,6.521,2.951,2.951,0,0,1,.666,5.205a2.471,2.471,0,0,1,.842-.96l.444.584A2.255,2.255,0,0,0,1.2,6.521a1.974,1.974,0,0,0,.4,1.263A1.71,1.71,0,0,0,2.725,8.4V5.256a.944.944,0,0,1,.3-.736,1.146,1.146,0,0,1,.8-.275,1.97,1.97,0,0,1,1.066.31,2.18,2.18,0,0,1,.78.855,2.544,2.544,0,0,1,.286,1.2,2.357,2.357,0,0,1-.637,1.72,2.7,2.7,0,0,1-1.784.745V11.1H2.725ZM3.538,8.4a1.819,1.819,0,0,0,1.178-.584,1.76,1.76,0,0,0,.431-1.208,2.053,2.053,0,0,0-.385-1.217,1.124,1.124,0,0,0-.934-.475q-.29,0-.29.36Z" transform="translate(60.092 135.939)" fill="#afafaf"/>
      <path id="Trazado_107252" data-name="Trazado 107252" d="M0,0A16.946,16.946,0,0,1,12.115,13.827" transform="matrix(0.588, -0.809, 0.809, 0.588, 84.217, 92.621)" fill="none" stroke="#afafaf" stroke-width="1"/>
      <path id="Trazado_107260" data-name="Trazado 107260" d="M0,0A22.5,22.5,0,0,1,16.083,18.356" transform="matrix(0.946, -0.326, 0.326, 0.946, 102.523, 82.995)" fill="none" stroke="#afafaf" stroke-width="1"/>
      <path id="Trazado_107261" data-name="Trazado 107261" d="M0,0A18.293,18.293,0,0,1,13.076,14.925" transform="matrix(-0.259, 0.966, -0.966, -0.259, 120.324, 134.926)" fill="none" stroke="#afafaf" stroke-width="1"/>
      <path id="Trazado_107262" data-name="Trazado 107262" d="M0,0A18.293,18.293,0,0,1,13.076,14.925" transform="translate(68.846 124.179) rotate(-135)" fill="none" stroke="#afafaf" stroke-width="1"/>
      <path id="Trazado_107254" data-name="Trazado 107254" d="M0,0S10.933,2.247,12.992,13.282" transform="translate(123.51 114.174) rotate(69)" fill="none" stroke="#afafaf" stroke-width="1"/>
      <path id="Trazado_107253" data-name="Trazado 107253" d="M0,0S8.311,2.132,9.876,12.6" transform="translate(85.119 135.221) rotate(-180)" fill="none" stroke="#afafaf" stroke-width="1"/>
      <g id="Grupo_55594" data-name="Grupo 55594" transform="translate(25.4 0)">
        <path id="Trazado_107241" data-name="Trazado 107241" d="M-4829-4382l61.619,105.363h119.475" transform="translate(4839.143 4391.733)" fill="none" stroke="#36653e" stroke-width="2"/>
        <path id="Trazado_107242" data-name="Trazado 107242" d="M-4829-4166.988-4766.911-4270" transform="translate(4839.143 4385.097)" fill="none" stroke="#36653e" stroke-width="2"/>
        <path id="Trazado_107243" data-name="Trazado 107243" d="M14.481,6.428,16.653,10l-.169.112-8.06-3.2L0,5.056,8.424,3.2,16.484,0l.169.085-2.176,3.6Z" transform="translate(10.527 0) rotate(61)" fill="#36653e"/>
        <path id="Trazado_107244" data-name="Trazado 107244" d="M14.481,6.428,16.653,10l-.169.112-8.06-3.2L0,5.056,8.424,3.2,16.484,0l.169.085-2.176,3.6Z" transform="translate(202.855 120.153) rotate(-180)" fill="#36653e"/>
        <path id="Trazado_107245" data-name="Trazado 107245" d="M14.481,6.428,16.653,10l-.169.112-8.06-3.2L0,5.056,8.424,3.2,16.484,0l.169.085-2.176,3.6Z" transform="matrix(0.5, -0.866, 0.866, 0.5, 0, 225.143)" fill="#36653e"/>
      </g>
      <path id="Trazado_705010" data-name="Trazado 705010" d="M6.723,11.906,8.989,3.625h3.063L8.223,15h-3L1.426,3.625H4.465Zm8.264,5.747h-.866V20h-1.6V13.365h2.611a2.914,2.914,0,0,1,1.846.523,1.774,1.774,0,0,1,.665,1.479,2.154,2.154,0,0,1-.28,1.147,1.989,1.989,0,0,1-.877.737l1.385,2.679V20H16.158Zm-.866-1.23h1.012a.908.908,0,0,0,.686-.24.927.927,0,0,0,.23-.669.938.938,0,0,0-.232-.674.9.9,0,0,0-.684-.244H14.121Zm7.911,1.814a.657.657,0,0,0-.248-.547,3.087,3.087,0,0,0-.873-.406,8.372,8.372,0,0,1-1.021-.406,1.933,1.933,0,0,1-1.29-1.741,1.561,1.561,0,0,1,.321-.973,2.078,2.078,0,0,1,.909-.656,3.538,3.538,0,0,1,1.322-.235,3.1,3.1,0,0,1,1.283.255,2.031,2.031,0,0,1,.882.727,1.9,1.9,0,0,1,.314,1.078H22.036a.8.8,0,0,0-.248-.629.968.968,0,0,0-.672-.223,1.092,1.092,0,0,0-.677.189.557.557,0,0,0,.025.943,3.448,3.448,0,0,0,.962.428,5.89,5.89,0,0,1,1.13.476,1.9,1.9,0,0,1,1.075,1.709,1.62,1.62,0,0,1-.656,1.367,2.919,2.919,0,0,1-1.8.5,3.571,3.571,0,0,1-1.461-.289,2.2,2.2,0,0,1-.984-.793,2.066,2.066,0,0,1-.33-1.16H20a1.018,1.018,0,0,0,.276.786,1.3,1.3,0,0,0,.9.253,1.029,1.029,0,0,0,.627-.171A.564.564,0,0,0,22.032,18.236Z" transform="translate(2.146 5.03)" fill="#36653e"/>
      <path id="Trazado_705011" data-name="Trazado 705011" d="M11.126,15H8.391V3.625h2.734Zm6.757-.4H15.891V20h-1.6V14.6H12.337V13.365h5.546Z" transform="translate(0 59.885)" fill="#fb0000"/>
      <path id="Trazado_705012" data-name="Trazado 705012" d="M11.023,15H8.289V3.625h2.734Zm4.014,2.653h-.866V20h-1.6V13.365h2.611a2.914,2.914,0,0,1,1.846.523,1.774,1.774,0,0,1,.665,1.479,2.154,2.154,0,0,1-.28,1.147,1.989,1.989,0,0,1-.877.737l1.385,2.679V20H16.208Zm-.866-1.23h1.012a.908.908,0,0,0,.686-.24.927.927,0,0,0,.23-.669.938.938,0,0,0-.232-.674.9.9,0,0,0-.684-.244H14.171Z" transform="translate(167.453 51.927)" fill="#fb0000"/>
      <path id="Trazado_705013" data-name="Trazado 705013" d="M11.146,15H8.412V3.625h2.734Zm4.97,3.236a.657.657,0,0,0-.248-.547A3.087,3.087,0,0,0,15,17.284a8.372,8.372,0,0,1-1.021-.406,1.933,1.933,0,0,1-1.29-1.741,1.561,1.561,0,0,1,.321-.973,2.078,2.078,0,0,1,.909-.656,3.538,3.538,0,0,1,1.322-.235,3.1,3.1,0,0,1,1.283.255,2.031,2.031,0,0,1,.882.727,1.9,1.9,0,0,1,.314,1.078H16.121a.8.8,0,0,0-.248-.629.968.968,0,0,0-.672-.223,1.092,1.092,0,0,0-.677.189.557.557,0,0,0,.025.943,3.448,3.448,0,0,0,.962.428,5.89,5.89,0,0,1,1.13.476,1.9,1.9,0,0,1,1.075,1.709,1.62,1.62,0,0,1-.656,1.367,2.919,2.919,0,0,1-1.8.5A3.571,3.571,0,0,1,13.8,19.8a2.2,2.2,0,0,1-.984-.793,2.066,2.066,0,0,1-.33-1.16h1.6a1.018,1.018,0,0,0,.276.786,1.3,1.3,0,0,0,.9.253,1.029,1.029,0,0,0,.627-.171A.564.564,0,0,0,16.117,18.236Z" transform="translate(89.823 185.094)" fill="#fb0000"/>
      <path id="Trazado_705014" data-name="Trazado 705014" d="M6.7,11.906,8.968,3.625h3.062L8.2,15h-3L1.406,3.625H4.445ZM17.71,14.6H15.718V20h-1.6V14.6H12.164V13.365H17.71Zm3.14,3.053h-.866V20h-1.6V13.365H21a2.914,2.914,0,0,1,1.846.523,1.774,1.774,0,0,1,.665,1.479,2.154,2.154,0,0,1-.28,1.147,1.989,1.989,0,0,1-.877.737l1.385,2.679V20H22.02Zm-.866-1.23H21a.908.908,0,0,0,.686-.24.927.927,0,0,0,.23-.669.938.938,0,0,0-.232-.674A.9.9,0,0,0,21,14.6H19.983Z" transform="translate(47.302 212.325)" fill="#36653e"/>
      <path id="Trazado_705015" data-name="Trazado 705015" d="M6.826,11.906,9.091,3.625h3.063L8.326,15h-3L1.529,3.625H4.568Zm9.22,6.33a.657.657,0,0,0-.248-.547,3.087,3.087,0,0,0-.873-.406,8.372,8.372,0,0,1-1.021-.406,1.933,1.933,0,0,1-1.29-1.741,1.561,1.561,0,0,1,.321-.973,2.078,2.078,0,0,1,.909-.656,3.538,3.538,0,0,1,1.322-.235,3.1,3.1,0,0,1,1.283.255,2.031,2.031,0,0,1,.882.727,1.9,1.9,0,0,1,.314,1.078H16.051A.8.8,0,0,0,15.8,14.7a.968.968,0,0,0-.672-.223,1.092,1.092,0,0,0-.677.189.557.557,0,0,0,.025.943,3.448,3.448,0,0,0,.962.428,5.89,5.89,0,0,1,1.13.476,1.9,1.9,0,0,1,1.075,1.709,1.62,1.62,0,0,1-.656,1.367,2.919,2.919,0,0,1-1.8.5,3.571,3.571,0,0,1-1.461-.289,2.2,2.2,0,0,1-.984-.793,2.066,2.066,0,0,1-.33-1.16h1.6a1.018,1.018,0,0,0,.276.786,1.3,1.3,0,0,0,.9.253,1.029,1.029,0,0,0,.627-.171A.564.564,0,0,0,16.046,18.236ZM23.675,14.6H21.683V20h-1.6V14.6H18.129V13.365h5.546Z" transform="translate(196.88 84.384)" fill="#36653e"/>
      <path id="Trazado_705016" data-name="Trazado 705016" d="M8.1,15H5.368V3.625H8.1Zm4.014,2.653H11.25V20H9.65V13.365h2.611a2.914,2.914,0,0,1,1.846.523,1.774,1.774,0,0,1,.665,1.479,2.154,2.154,0,0,1-.28,1.147,1.989,1.989,0,0,1-.877.737L15,19.932V20H13.287Zm-.866-1.23h1.012a.908.908,0,0,0,.686-.24.927.927,0,0,0,.23-.669.938.938,0,0,0-.232-.674.9.9,0,0,0-.684-.244H11.25Zm7.911,1.814a.657.657,0,0,0-.248-.547,3.087,3.087,0,0,0-.873-.406,8.372,8.372,0,0,1-1.021-.406,1.933,1.933,0,0,1-1.29-1.741,1.561,1.561,0,0,1,.321-.973,2.078,2.078,0,0,1,.909-.656,3.538,3.538,0,0,1,1.322-.235,3.1,3.1,0,0,1,1.283.255,2.031,2.031,0,0,1,.882.727,1.9,1.9,0,0,1,.314,1.078H19.165a.8.8,0,0,0-.248-.629.968.968,0,0,0-.672-.223,1.092,1.092,0,0,0-.677.189.557.557,0,0,0,.025.943,3.448,3.448,0,0,0,.962.428,5.89,5.89,0,0,1,1.13.476,1.9,1.9,0,0,1,1.075,1.709,1.62,1.62,0,0,1-.656,1.367,2.919,2.919,0,0,1-1.8.5,3.571,3.571,0,0,1-1.461-.289,2.2,2.2,0,0,1-.984-.793,2.066,2.066,0,0,1-.33-1.16h1.6a1.018,1.018,0,0,0,.276.786,1.3,1.3,0,0,0,.9.253,1.029,1.029,0,0,0,.627-.171A.564.564,0,0,0,19.161,18.236Z" transform="translate(91.994 37.346)" fill="#c92296"/>
      <path id="Trazado_705017" data-name="Trazado 705017" d="M8.082,15H5.347V3.625H8.082Zm6.757-.4H12.847V20h-1.6V14.6H9.293V13.365h5.546Zm3.14,3.053h-.866V20h-1.6V13.365h2.611a2.914,2.914,0,0,1,1.846.523,1.774,1.774,0,0,1,.665,1.479,2.154,2.154,0,0,1-.28,1.147,1.989,1.989,0,0,1-.877.737l1.385,2.679V20H19.149Zm-.866-1.23h1.012a.908.908,0,0,0,.686-.24.927.927,0,0,0,.23-.669.938.938,0,0,0-.232-.674.9.9,0,0,0-.684-.244H17.112Z" transform="translate(21.902 128.599)" fill="#c92296"/>
      <path id="Trazado_705018" data-name="Trazado 705018" d="M8.2,15H5.47V3.625H8.2Zm4.97,3.236a.657.657,0,0,0-.248-.547,3.087,3.087,0,0,0-.873-.406,8.372,8.372,0,0,1-1.021-.406,1.933,1.933,0,0,1-1.29-1.741,1.561,1.561,0,0,1,.321-.973,2.078,2.078,0,0,1,.909-.656,3.538,3.538,0,0,1,1.322-.235,3.1,3.1,0,0,1,1.283.255,2.031,2.031,0,0,1,.882.727,1.9,1.9,0,0,1,.314,1.078H13.18a.8.8,0,0,0-.248-.629.968.968,0,0,0-.672-.223,1.092,1.092,0,0,0-.677.189.557.557,0,0,0,.025.943,3.448,3.448,0,0,0,.962.428,5.89,5.89,0,0,1,1.13.476,1.9,1.9,0,0,1,1.075,1.709,1.62,1.62,0,0,1-.656,1.367,2.919,2.919,0,0,1-1.8.5,3.571,3.571,0,0,1-1.461-.289,2.2,2.2,0,0,1-.984-.793,2.066,2.066,0,0,1-.33-1.16h1.6a1.018,1.018,0,0,0,.276.786,1.3,1.3,0,0,0,.9.253,1.029,1.029,0,0,0,.627-.171A.564.564,0,0,0,13.175,18.236ZM20.8,14.6H18.812V20h-1.6V14.6H15.258V13.365H20.8Z" transform="translate(136.673 151.427)" fill="#c92296"/>
      <path id="Trazado_705019" data-name="Trazado 705019" d="M6.606,11.109h-4.7V9.078h4.7ZM11.7,15H8.965V3.625H11.7Zm4.014,2.653h-.866V20h-1.6V13.365h2.611a2.914,2.914,0,0,1,1.846.523,1.774,1.774,0,0,1,.665,1.479,2.154,2.154,0,0,1-.28,1.147,1.989,1.989,0,0,1-.877.737L18.6,19.932V20H16.884Zm-.866-1.23h1.012a.908.908,0,0,0,.686-.24.927.927,0,0,0,.23-.669.938.938,0,0,0-.232-.674.9.9,0,0,0-.684-.244H14.847Zm7.911,1.814a.657.657,0,0,0-.248-.547,3.087,3.087,0,0,0-.873-.406,8.372,8.372,0,0,1-1.021-.406,1.933,1.933,0,0,1-1.29-1.741,1.561,1.561,0,0,1,.321-.973,2.078,2.078,0,0,1,.909-.656,3.538,3.538,0,0,1,1.322-.235,3.1,3.1,0,0,1,1.283.255,2.031,2.031,0,0,1,.882.727,1.9,1.9,0,0,1,.314,1.078H22.763a.8.8,0,0,0-.248-.629.968.968,0,0,0-.672-.223,1.092,1.092,0,0,0-.677.189.557.557,0,0,0,.025.943,3.448,3.448,0,0,0,.962.428,5.89,5.89,0,0,1,1.13.476,1.9,1.9,0,0,1,1.075,1.709,1.62,1.62,0,0,1-.656,1.367,2.919,2.919,0,0,1-1.8.5,3.571,3.571,0,0,1-1.461-.289,2.2,2.2,0,0,1-.984-.793,2.066,2.066,0,0,1-.33-1.16h1.6a1.018,1.018,0,0,0,.276.786,1.3,1.3,0,0,0,.9.253,1.029,1.029,0,0,0,.627-.171A.564.564,0,0,0,22.758,18.236Z" transform="translate(117.394 188.336)" fill="#c92296"/>
      <path id="Trazado_705020" data-name="Trazado 705020" d="M6.585,11.109H1.89V9.078h4.7ZM11.679,15H8.945V3.625h2.734Zm6.757-.4H16.445V20h-1.6V14.6H12.89V13.365h5.546Zm3.14,3.053H20.71V20h-1.6V13.365h2.611a2.914,2.914,0,0,1,1.846.523,1.774,1.774,0,0,1,.665,1.479,2.154,2.154,0,0,1-.28,1.147,1.989,1.989,0,0,1-.877.737l1.385,2.679V20H22.747Zm-.866-1.23h1.012a.908.908,0,0,0,.686-.24.927.927,0,0,0,.23-.669.938.938,0,0,0-.232-.674.9.9,0,0,0-.684-.244H20.71Z" transform="translate(135.241 33.051)" fill="#c92296"/>
      <path id="Trazado_705021" data-name="Trazado 705021" d="M6.709,11.109h-4.7V9.078h4.7ZM11.8,15H9.068V3.625H11.8Zm4.97,3.236a.657.657,0,0,0-.248-.547,3.087,3.087,0,0,0-.873-.406,8.372,8.372,0,0,1-1.021-.406,1.933,1.933,0,0,1-1.29-1.741,1.561,1.561,0,0,1,.321-.973,2.078,2.078,0,0,1,.909-.656,3.538,3.538,0,0,1,1.322-.235,3.1,3.1,0,0,1,1.283.255,2.031,2.031,0,0,1,.882.727,1.9,1.9,0,0,1,.314,1.078H16.777a.8.8,0,0,0-.248-.629.968.968,0,0,0-.672-.223,1.092,1.092,0,0,0-.677.189.557.557,0,0,0,.025.943,3.448,3.448,0,0,0,.962.428,5.89,5.89,0,0,1,1.13.476,1.9,1.9,0,0,1,1.075,1.709,1.62,1.62,0,0,1-.656,1.367,2.919,2.919,0,0,1-1.8.5,3.571,3.571,0,0,1-1.461-.289,2.2,2.2,0,0,1-.984-.793,2.066,2.066,0,0,1-.33-1.16h1.6a1.018,1.018,0,0,0,.276.786,1.3,1.3,0,0,0,.9.253,1.029,1.029,0,0,0,.627-.171A.564.564,0,0,0,16.773,18.236ZM24.4,14.6H22.41V20h-1.6V14.6H18.855V13.365H24.4Z" transform="translate(0 91.562)" fill="#c92296"/>
      <g id="Grupo_55611" data-name="Grupo 55611" transform="translate(15.283 12.689)">
        <g id="Grupo_55610" data-name="Grupo 55610" transform="translate(75.442 0) rotate(40)">
          <g id="Grupo_55595" data-name="Grupo 55595" transform="translate(0)">
            <path id="Trazado_107246" data-name="Trazado 107246" d="M13.99,0,0,74.617l49.745,42.749" transform="translate(71.508)" fill="none" stroke="#fe0000" stroke-width="2"/>
            <path id="Trazado_107247" data-name="Trazado 107247" d="M0,23.318,72.286,0" transform="translate(0 74.617)" fill="none" stroke="#fe0000" stroke-width="2"/>
          </g>
        </g>
        <path id="Trazado_107255" data-name="Trazado 107255" d="M14.481,6.428,16.653,10l-.169.112-8.06-3.2L0,5.056,8.424,3.2,16.484,0l.169.085-2.176,3.6Z" transform="translate(154.039 50.151) rotate(139)" fill="#fb0000"/>
        <path id="Trazado_107256" data-name="Trazado 107256" d="M14.481,6.428,16.653,10l-.169.112-8.06-3.2L0,5.056,8.424,3.2,16.484,0l.169.085-2.176,3.6Z" transform="matrix(-0.259, -0.966, 0.966, -0.259, 90.151, 179.214)" fill="#fb0000"/>
        <path id="Trazado_107257" data-name="Trazado 107257" d="M14.481,6.428,16.653,10l-.169.112-8.06-3.2L0,5.056,8.424,3.2,16.484,0l.169.085-2.176,3.6Z" transform="translate(7.756 66.306) rotate(30)" fill="#fb0000"/>
      </g>
      <g id="Grupo_55612" data-name="Grupo 55612" transform="translate(108.961 50.925) rotate(7)">
        <path id="Trazado_107258" data-name="Trazado 107258" d="M14.481,6.428,16.653,10l-.169.112-8.06-3.2L0,5.056,8.424,3.2,16.484,0l.169.085-2.176,3.6Z" transform="translate(54.821 9.767) rotate(165)" fill="#c82494"/>
        <path id="Trazado_107259" data-name="Trazado 107259" d="M0,8.153,46.41,0" transform="translate(0 7.038)" fill="none" stroke="#c82494" stroke-width="2"/>
      </g>
      <g id="Grupo_55614" data-name="Grupo 55614" transform="translate(144.843 155.178) rotate(131)">
        <path id="Trazado_107258-2" data-name="Trazado 107258" d="M14.481,6.428,16.653,10l-.169.112-8.06-3.2L0,5.056,8.424,3.2,16.484,0l.169.085-2.176,3.6Z" transform="translate(51.48 9.767) rotate(165)" fill="#c82494"/>
        <path id="Trazado_107259-2" data-name="Trazado 107259" d="M0,8.153,43.07,0" transform="translate(0 7.038)" fill="none" stroke="#c82494" stroke-width="2"/>
      </g>
      <g id="Grupo_55613" data-name="Grupo 55613" transform="translate(36.046 135.914) rotate(-111)">
        <path id="Trazado_107258-3" data-name="Trazado 107258" d="M14.481,6.428,16.653,10l-.169.112-8.06-3.2L0,5.056,8.424,3.2,16.484,0l.169.085-2.176,3.6Z" transform="translate(54.821 9.767) rotate(165)" fill="#c82494"/>
        <path id="Trazado_107259-3" data-name="Trazado 107259" d="M0,8.153,46.41,0" transform="translate(0 7.038)" fill="none" stroke="#c82494" stroke-width="2"/>
      </g>
      <path id="Trazado_107263" data-name="Trazado 107263" d="M-5425.1-2628l33.961,12.465" transform="translate(5532.21 2694.51)" fill="none" stroke="#707070" stroke-width="1" stroke-dasharray="2"/>
      <g id="Grupo_55596" data-name="Grupo 55596" transform="translate(44.839 60.864)">
        <g id="Grupo_55595-2" data-name="Grupo 55595" transform="translate(9.519 9.078)">
          <path id="Trazado_107246-2" data-name="Trazado 107246" d="M-4754.533-4318l-8.467,45.156,30.1,25.871" transform="translate(4806.274 4318)" fill="none" stroke="#c82494" stroke-width="2"/>
          <path id="Trazado_107247-2" data-name="Trazado 107247" d="M-4809-4255.889l43.745-14.111" transform="translate(4809 4315.156)" fill="none" stroke="#c82494" stroke-width="2"/>
        </g>
        <path id="Trazado_107248" data-name="Trazado 107248" d="M14.481,6.428,16.653,10l-.169.112-8.06-3.2L0,5.056,8.424,3.2,16.484,0l.169.085-2.176,3.6Z" transform="translate(67.684 1.756) rotate(100)" fill="#c82494"/>
        <path id="Trazado_107249" data-name="Trazado 107249" d="M14.481,6.428,16.653,10l-.169.112-8.06-3.2L0,5.056,8.424,3.2,16.484,0l.169.085-2.176,3.6Z" transform="matrix(-0.799, -0.602, 0.602, -0.799, 88.225, 90.564)" fill="#c82494"/>
        <path id="Trazado_107250" data-name="Trazado 107250" d="M14.481,6.428,16.653,10l-.169.112-8.06-3.2L0,5.056,8.424,3.2,16.484,0l.169.085-2.176,3.6Z" transform="translate(0 66.275) rotate(-19)" fill="#c82494"/>
      </g>
    </g>
    <g id="Grupo_55618" data-name="Grupo 55618" transform="translate(-4725 -2320.825)">
      <g id="Grupo_55617" data-name="Grupo 55617">
        <g id="Grupo_55616" data-name="Grupo 55616" transform="translate(4.028)">
          <text id="φ" transform="translate(85.228 81.585)" fill="#afafaf" font-size="9" font-family="Roboto-Regular, Roboto"><tspan x="0" y="0">φ</tspan></text>
          <text id="φ-2" data-name="φ" transform="translate(127.561 128.006)" fill="#afafaf" font-size="9" font-family="Roboto-Regular, Roboto"><tspan x="0" y="0">φ</tspan></text>
          <text id="_30_" data-name="30°" transform="translate(110.968 81.684)" fill="#afafaf" font-size="9" font-family="Roboto-Regular, Roboto"><tspan x="0" y="0">30°</tspan></text>
          <text id="_30_2" data-name="30°" transform="translate(108.192 154.802)" fill="#afafaf" font-size="9" font-family="Roboto-Regular, Roboto"><tspan x="0" y="0">30°</tspan></text>
          <text id="_30_3" data-name="30°" transform="translate(48.068 115.145)" fill="#afafaf" font-size="9" font-family="Roboto-Regular, Roboto"><tspan x="0" y="0">30°</tspan></text>
          <text id="φ-3" data-name="φ" transform="translate(57.946 144.939)" fill="#afafaf" font-size="9" font-family="Roboto-Regular, Roboto"><tspan x="0" y="0">φ</tspan></text>
          <path id="Trazado_107252-2" data-name="Trazado 107252" d="M0,0A16.946,16.946,0,0,1,12.115,13.827" transform="matrix(0.588, -0.809, 0.809, 0.588, 82.071, 92.621)" fill="none" stroke="#afafaf" stroke-width="1"/>
          <path id="Trazado_107260-2" data-name="Trazado 107260" d="M0,0A22.5,22.5,0,0,1,16.083,18.356" transform="matrix(0.946, -0.326, 0.326, 0.946, 100.377, 82.995)" fill="none" stroke="#afafaf" stroke-width="1"/>
          <path id="Trazado_107261-2" data-name="Trazado 107261" d="M0,0A18.293,18.293,0,0,1,13.076,14.925" transform="matrix(-0.259, 0.966, -0.966, -0.259, 118.178, 134.926)" fill="none" stroke="#afafaf" stroke-width="1"/>
          <path id="Trazado_107262-2" data-name="Trazado 107262" d="M0,0A18.293,18.293,0,0,1,13.076,14.925" transform="translate(66.7 124.179) rotate(-135)" fill="none" stroke="#afafaf" stroke-width="1"/>
          <path id="Trazado_107254-2" data-name="Trazado 107254" d="M0,0S10.933,2.247,12.992,13.282" transform="translate(121.364 114.174) rotate(69)" fill="none" stroke="#afafaf" stroke-width="1"/>
          <path id="Trazado_107253-2" data-name="Trazado 107253" d="M0,0S8.311,2.132,9.876,12.6" transform="translate(82.973 135.221) rotate(-180)" fill="none" stroke="#afafaf" stroke-width="1"/>
          <g id="Grupo_55594-2" data-name="Grupo 55594" transform="translate(23.254 0)">
            <path id="Trazado_107241-2" data-name="Trazado 107241" d="M-4829-4382l61.619,105.363h119.475" transform="translate(4839.143 4391.733)" fill="none" stroke="#36653e" stroke-width="2"/>
            <path id="Trazado_107242-2" data-name="Trazado 107242" d="M-4829-4166.988-4766.911-4270" transform="translate(4839.143 4385.097)" fill="none" stroke="#36653e" stroke-width="2"/>
            <path id="Trazado_107243-2" data-name="Trazado 107243" d="M14.481,6.428,16.653,10l-.169.112-8.06-3.2L0,5.056,8.424,3.2,16.484,0l.169.085-2.176,3.6Z" transform="translate(10.527 0) rotate(61)" fill="#36653e"/>
            <path id="Trazado_107244-2" data-name="Trazado 107244" d="M14.481,6.428,16.653,10l-.169.112-8.06-3.2L0,5.056,8.424,3.2,16.484,0l.169.085-2.176,3.6Z" transform="translate(202.855 120.153) rotate(-180)" fill="#36653e"/>
            <path id="Trazado_107245-2" data-name="Trazado 107245" d="M14.481,6.428,16.653,10l-.169.112-8.06-3.2L0,5.056,8.424,3.2,16.484,0l.169.085-2.176,3.6Z" transform="matrix(0.5, -0.866, 0.866, 0.5, 0, 225.143)" fill="#36653e"/>
          </g>
          <text id="VRS" transform="translate(0 5.03)" fill="#36653e" font-size="16" font-family="Roboto-Black, Roboto" font-weight="800"><tspan x="-11.25" y="15">V</tspan><tspan y="15" font-size="9.333" baseline-shift="-5.33279994943018">RS</tspan></text>
          <text id="VTR" transform="translate(45.156 212.325)" fill="#36653e" font-size="16" font-family="Roboto-Black, Roboto" font-weight="800"><tspan x="-11.271" y="15">V</tspan><tspan y="15" font-size="9.333" baseline-shift="-5.33279994943018">TR</tspan></text>
          <text id="VST" transform="translate(194.734 84.384)" fill="#36653e" font-size="16" font-family="Roboto-Black, Roboto" font-weight="800"><tspan x="-11.148" y="15">V</tspan><tspan y="15" font-size="9.333" baseline-shift="-5.33279994943018">ST</tspan></text>
          <text id="IRS" transform="translate(89.848 37.346)" fill="#c92296" font-size="16" font-family="Roboto-Black, Roboto" font-weight="800"><tspan x="-8.379" y="15">I</tspan><tspan y="15" font-size="9.333" baseline-shift="-5.33279994943018">RS</tspan></text>
          <text id="ITR" transform="translate(19.756 128.599)" fill="#c92296" font-size="16" font-family="Roboto-Black, Roboto" font-weight="800"><tspan x="-8.4" y="15">I</tspan><tspan y="15" font-size="9.333" baseline-shift="-5.33279994943018">TR</tspan></text>
          <text id="IST" transform="translate(134.527 151.427)" fill="#c92296" font-size="16" font-family="Roboto-Black, Roboto" font-weight="800"><tspan x="-8.277" y="15">I</tspan><tspan y="15" font-size="9.333" baseline-shift="-5.33279994943018">ST</tspan></text>
          <g id="Grupo_55611-2" data-name="Grupo 55611" transform="translate(13.136 12.689)">
            <g id="Grupo_55610-2" data-name="Grupo 55610" transform="translate(75.442 0) rotate(40)">
              <g id="Grupo_55595-3" data-name="Grupo 55595" transform="translate(0)">
                <path id="Trazado_107246-3" data-name="Trazado 107246" d="M13.99,0,0,74.617l49.745,42.749" transform="translate(71.508)" fill="none" stroke="#fe0000" stroke-width="2"/>
                <path id="Trazado_107247-3" data-name="Trazado 107247" d="M0,23.318,72.286,0" transform="translate(0 74.617)" fill="none" stroke="#fe0000" stroke-width="2"/>
              </g>
            </g>
            <path id="Trazado_107255-2" data-name="Trazado 107255" d="M14.481,6.428,16.653,10l-.169.112-8.06-3.2L0,5.056,8.424,3.2,16.484,0l.169.085-2.176,3.6Z" transform="translate(154.039 50.151) rotate(139)" fill="#fb0000"/>
            <path id="Trazado_107256-2" data-name="Trazado 107256" d="M14.481,6.428,16.653,10l-.169.112-8.06-3.2L0,5.056,8.424,3.2,16.484,0l.169.085-2.176,3.6Z" transform="matrix(-0.259, -0.966, 0.966, -0.259, 90.151, 179.214)" fill="#fb0000"/>
            <path id="Trazado_107257-2" data-name="Trazado 107257" d="M14.481,6.428,16.653,10l-.169.112-8.06-3.2L0,5.056,8.424,3.2,16.484,0l.169.085-2.176,3.6Z" transform="translate(7.756 66.306) rotate(30)" fill="#fb0000"/>
          </g>
          <g id="Grupo_55596-2" data-name="Grupo 55596" transform="translate(42.693 60.864)">
            <g id="Grupo_55595-4" data-name="Grupo 55595" transform="translate(9.519 9.078)">
              <path id="Trazado_107246-4" data-name="Trazado 107246" d="M-4754.533-4318l-8.467,45.156,30.1,25.871" transform="translate(4806.274 4318)" fill="none" stroke="#c82494" stroke-width="2"/>
              <path id="Trazado_107247-4" data-name="Trazado 107247" d="M-4809-4255.889l43.745-14.111" transform="translate(4809 4315.156)" fill="none" stroke="#c82494" stroke-width="2"/>
            </g>
            <path id="Trazado_107248-2" data-name="Trazado 107248" d="M14.481,6.428,16.653,10l-.169.112-8.06-3.2L0,5.056,8.424,3.2,16.484,0l.169.085-2.176,3.6Z" transform="translate(67.684 1.756) rotate(100)" fill="#c82494"/>
            <path id="Trazado_107249-2" data-name="Trazado 107249" d="M14.481,6.428,16.653,10l-.169.112-8.06-3.2L0,5.056,8.424,3.2,16.484,0l.169.085-2.176,3.6Z" transform="matrix(-0.799, -0.602, 0.602, -0.799, 88.225, 90.564)" fill="#c82494"/>
            <path id="Trazado_107250-2" data-name="Trazado 107250" d="M14.481,6.428,16.653,10l-.169.112-8.06-3.2L0,5.056,8.424,3.2,16.484,0l.169.085-2.176,3.6Z" transform="translate(0 66.275) rotate(-19)" fill="#c82494"/>
          </g>
        </g>
        <text id="IT" transform="translate(0 68.824)" fill="#fb0000" font-size="16" font-family="Roboto-Black, Roboto" font-weight="800"><tspan x="-5.356" y="15">I</tspan><tspan y="15" font-size="9.333" baseline-shift="-5.33279994943018">T</tspan></text>
      </g>
      <path id="Trazado_705022" data-name="Trazado 705022" d="M10.823,15H8.089V3.625h2.734Zm4.014,2.653h-.866V20h-1.6V13.365h2.611a2.914,2.914,0,0,1,1.846.523,1.774,1.774,0,0,1,.665,1.479,2.154,2.154,0,0,1-.28,1.147,1.989,1.989,0,0,1-.877.737l1.385,2.679V20H16.008Zm-.866-1.23h1.012a.908.908,0,0,0,.686-.24.927.927,0,0,0,.23-.669.938.938,0,0,0-.232-.674.9.9,0,0,0-.684-.244H13.971Z" transform="translate(160.137 37.699)" fill="#fb0000"/>
      <path id="Trazado_705023" data-name="Trazado 705023" d="M11.146,15H8.412V3.625h2.734Zm4.97,3.236a.657.657,0,0,0-.248-.547A3.087,3.087,0,0,0,15,17.284a8.372,8.372,0,0,1-1.021-.406,1.933,1.933,0,0,1-1.29-1.741,1.561,1.561,0,0,1,.321-.973,2.078,2.078,0,0,1,.909-.656,3.538,3.538,0,0,1,1.322-.235,3.1,3.1,0,0,1,1.283.255,2.031,2.031,0,0,1,.882.727,1.9,1.9,0,0,1,.314,1.078H16.121a.8.8,0,0,0-.248-.629.968.968,0,0,0-.672-.223,1.092,1.092,0,0,0-.677.189.557.557,0,0,0,.025.943,3.448,3.448,0,0,0,.962.428,5.89,5.89,0,0,1,1.13.476,1.9,1.9,0,0,1,1.075,1.709,1.62,1.62,0,0,1-.656,1.367,2.919,2.919,0,0,1-1.8.5A3.571,3.571,0,0,1,13.8,19.8a2.2,2.2,0,0,1-.984-.793,2.066,2.066,0,0,1-.33-1.16h1.6a1.018,1.018,0,0,0,.276.786,1.3,1.3,0,0,0,.9.253,1.029,1.029,0,0,0,.627-.171A.564.564,0,0,0,16.117,18.236Z" transform="translate(82 187.866)" fill="#fb0000"/>
    </g>
  </g>
</svg>
