<svg id="Grupo_870254" data-name="Grupo 870254" xmlns="http://www.w3.org/2000/svg" xmlns:xlink="http://www.w3.org/1999/xlink" width="51.3" height="36.994" viewBox="0 0 51.3 36.994">
  <defs>
    <linearGradient id="linear-gradient" x1="1.015" y1="0.817" x2="-0.154" y2="0.111" gradientUnits="objectBoundingBox">
      <stop offset="0.232" stop-color="#e20a0a"/>
      <stop offset="0.566" stop-color="#f00505"/>
      <stop offset="0.984" stop-color="#fd0000"/>
    </linearGradient>
    <linearGradient id="linear-gradient-2" y1="0.5" x2="1" y2="0.5" gradientUnits="objectBoundingBox">
      <stop offset="0" stop-color="#d40a0a"/>
      <stop offset="0.55" stop-color="#bd0404"/>
      <stop offset="0.984" stop-color="#b00000"/>
    </linearGradient>
    <linearGradient id="linear-gradient-3" x1="1.073" y1="1.071" x2="0.005" y2="0.072" gradientUnits="objectBoundingBox">
      <stop offset="0" stop-color="#ef0a0a"/>
      <stop offset="0.361" stop-color="#e50606"/>
      <stop offset="0.984" stop-color="#d80000"/>
    </linearGradient>
    <radialGradient id="radial-gradient" cx="0.308" cy="0.995" r="1.03" gradientTransform="translate(0.128) scale(0.745 1)" gradientUnits="objectBoundingBox">
      <stop offset="0.016" stop-color="#fb0000"/>
      <stop offset="0.323" stop-color="#ee0202"/>
      <stop offset="0.892" stop-color="#cb0909"/>
      <stop offset="1" stop-color="#c40a0a"/>
    </radialGradient>
    <clipPath id="clip-path">
      <path id="Trazado_118523" data-name="Trazado 118523" d="M2037.785,1448.512l-3.468,2.65a4.8,4.8,0,0,1-1.965.063,5.046,5.046,0,0,1-1.811-.7,5.136,5.136,0,0,1-1.431-1.34,5.045,5.045,0,0,1-.832-1.839l2.821-3.126a5.732,5.732,0,0,0,.943,2.035,5.9,5.9,0,0,0,1.594,1.5,5.675,5.675,0,0,0,2,.8A5.223,5.223,0,0,0,2037.785,1448.512Z" transform="translate(-2028.28 -1444.22)"/>
    </clipPath>
    <radialGradient id="radial-gradient-3" cx="0.5" cy="0.5" r="0.664" gradientTransform="translate(0.185) scale(0.63 1)" xlink:href="#radial-gradient"/>
    <radialGradient id="radial-gradient-4" cx="0.186" cy="0.939" r="1.717" gradientTransform="translate(0.165) scale(0.671 1)" gradientUnits="objectBoundingBox">
      <stop offset="0" stop-color="#fff"/>
      <stop offset="0.098" stop-color="#fafafa"/>
      <stop offset="0.222" stop-color="#eaeaea"/>
      <stop offset="0.36" stop-color="#d0d0d0"/>
      <stop offset="0.508" stop-color="#acacac"/>
      <stop offset="0.664" stop-color="#7d7d7d"/>
      <stop offset="0.827" stop-color="#454545"/>
      <stop offset="0.993" stop-color="#030303"/>
      <stop offset="1"/>
    </radialGradient>
    <radialGradient id="radial-gradient-5" cx="0.5" cy="0.5" r="0.64" gradientTransform="translate(0.169) scale(0.662 1)" xlink:href="#radial-gradient"/>
    <radialGradient id="radial-gradient-6" cx="0.5" cy="0.5" r="0.485" gradientTransform="translate(-0.033) scale(1.066 1)" gradientUnits="objectBoundingBox">
      <stop offset="0" stop-color="#fff"/>
      <stop offset="1" stop-color="#efefef"/>
    </radialGradient>
    <radialGradient id="radial-gradient-7" cx="0.5" cy="0.5" r="0.485" xlink:href="#radial-gradient-6"/>
    <radialGradient id="radial-gradient-8" cx="0.786" cy="0.071" r="2.716" gradientTransform="translate(0.246) scale(0.507 1)" xlink:href="#radial-gradient-4"/>
    <linearGradient id="linear-gradient-4" x1="-0.008" y1="0.502" x2="0.983" y2="0.502" gradientUnits="objectBoundingBox">
      <stop offset="0.232" stop-color="#c20a0a"/>
      <stop offset="0.352" stop-color="#cd0808"/>
      <stop offset="0.762" stop-color="#f00202"/>
      <stop offset="0.984" stop-color="#fd0000"/>
    </linearGradient>
    <linearGradient id="linear-gradient-5" x1="0.02" y1="0.5" x2="0.981" y2="0.5" xlink:href="#linear-gradient-4"/>
  </defs>
  <path id="XMLID_319_" d="M2000.876,864.828a3.513,3.513,0,0,1,1.277.246,5.069,5.069,0,0,1,1.229.689,5.881,5.881,0,0,1,1.058,1.03,5.377,5.377,0,0,1,.762,1.279l7.491,18.061a5.264,5.264,0,0,1,.393,1.553,3.742,3.742,0,0,1-.122,1.385,2.533,2.533,0,0,1-.608,1.07,2.148,2.148,0,0,1-1.066.593l-34.236,7.9a5.22,5.22,0,0,1-2.15.039,5.674,5.674,0,0,1-2-.8,5.906,5.906,0,0,1-1.594-1.5,5.733,5.733,0,0,1-.943-2.035l-5.971-24.793a3.62,3.62,0,0,1-.012-1.727,3.235,3.235,0,0,1,.746-1.4,3.716,3.716,0,0,1,1.347-.934,4.826,4.826,0,0,1,1.8-.349Zm-4.983,13.789a.336.336,0,0,0,.1-.2.506.506,0,0,0-.03-.237.679.679,0,0,0-.136-.225.658.658,0,0,0-.225-.162l-10.981-4.735a.662.662,0,0,0-.069-.025.566.566,0,0,0-.067-.016.583.583,0,0,0-.065-.008.5.5,0,0,0-.062,0,.421.421,0,0,0-.172.048.352.352,0,0,0-.124.111.358.358,0,0,0-.06.162.472.472,0,0,0,.022.2l3.753,11.8a.682.682,0,0,0,.111.21.691.691,0,0,0,.166.153.631.631,0,0,0,.2.087.5.5,0,0,0,.2.01.418.418,0,0,0,.061-.014.408.408,0,0,0,.058-.023.346.346,0,0,0,.055-.033.435.435,0,0,0,.05-.042l7.224-7.066Z" transform="translate(-1961.802 -864.827)" fill="url(#linear-gradient)"/>
  <path id="XMLID_14_" d="M2184.868,1369.943c-.039.017-.08.033-.121.047s-.083.028-.125.04-.086.023-.129.033l-34.236,7.905-3.468,2.65,32.187-7.815c.042-.01.084-.021.125-.034s.081-.026.121-.04.078-.03.116-.046.076-.034.113-.052l5.533-2.742C2184.946,1369.909,2184.908,1369.927,2184.868,1369.943Z" transform="translate(-2135.006 -1344.158)" fill="url(#linear-gradient-2)"/>
  <path id="XMLID_39_" d="M1927.189,918.717a4.041,4.041,0,0,1-.094-.558,3.641,3.641,0,0,1-.011-.537,3.315,3.315,0,0,1,.066-.511,3.252,3.252,0,0,1,.139-.481l-2,5.337a3.173,3.173,0,0,0-.132.453,3.281,3.281,0,0,0-.066.479,3.537,3.537,0,0,0,.005.5,3.738,3.738,0,0,0,.081.518l5.167,22.719,2.821-3.126Z" transform="translate(-1924.592 -913.99)" fill="url(#linear-gradient-3)"/>
  <path id="Trazado_118522" data-name="Trazado 118522" d="M2037.785,1448.512l-3.468,2.65a4.8,4.8,0,0,1-1.965.063,5.046,5.046,0,0,1-1.811-.7,5.136,5.136,0,0,1-1.431-1.34,5.045,5.045,0,0,1-.832-1.839l2.821-3.126a5.732,5.732,0,0,0,.943,2.035,5.9,5.9,0,0,0,1.594,1.5,5.675,5.675,0,0,0,2,.8A5.223,5.223,0,0,0,2037.785,1448.512Z" transform="translate(-2022.533 -1414.701)" fill="url(#radial-gradient)"/>
  <g id="XMLID_63_" transform="translate(5.747 29.519)" clip-path="url(#clip-path)">
    <path id="XMLID_64_" d="M2037.785,1448.512l-3.468,2.65a4.8,4.8,0,0,1-1.965.063,5.046,5.046,0,0,1-1.811-.7,5.136,5.136,0,0,1-1.431-1.34,5.045,5.045,0,0,1-.832-1.839l2.821-3.126a5.732,5.732,0,0,0,.943,2.035,5.9,5.9,0,0,0,1.594,1.5,5.675,5.675,0,0,0,2,.8,5.223,5.223,0,0,0,2.15-.039" transform="translate(-2028.28 -1444.22)" fill="url(#radial-gradient)"/>
  </g>
  <path id="XMLID_314_" d="M1970.288,1045.146l-1.265.627c-.036.018-.074.036-.113.052s-.077.032-.116.046-.08.027-.121.04-.083.024-.125.034l-32.186,7.815h0a4.793,4.793,0,0,1-1.964.063,5.032,5.032,0,0,1-1.81-.7,5.145,5.145,0,0,1-1.431-1.34,5.047,5.047,0,0,1-.831-1.839l-5.167-22.719a3.756,3.756,0,0,1-.08-.518,3.43,3.43,0,0,1-.005-.5,3.294,3.294,0,0,1,.066-.479,3.127,3.127,0,0,1,.082-.309l5.413,23.8a5.3,5.3,0,0,0,.874,1.933,5.388,5.388,0,0,0,1.5,1.409,5.293,5.293,0,0,0,1.9.735,5.054,5.054,0,0,0,2.066-.066h0Z" transform="translate(-1924.578 -1017.238)" fill="url(#radial-gradient-3)"/>
  <path id="XMLID_11_" d="M2011.612,918.517l-34.236,7.9a5.209,5.209,0,0,1-2.149.039,5.673,5.673,0,0,1-2-.8,5.9,5.9,0,0,1-1.594-1.5,5.742,5.742,0,0,1-.943-2.034l-5.971-24.793a3.612,3.612,0,0,1-.012-1.727,3.221,3.221,0,0,1,.506-1.1c-.028.029-.056.059-.083.089a3.237,3.237,0,0,0-.746,1.4,3.619,3.619,0,0,0,.012,1.727l5.972,24.793a5.733,5.733,0,0,0,.942,2.034,5.907,5.907,0,0,0,1.594,1.5,5.685,5.685,0,0,0,2,.8,5.232,5.232,0,0,0,2.15-.039l34.235-7.905a2.149,2.149,0,0,0,1.066-.592,2.254,2.254,0,0,0,.27-.335A2.15,2.15,0,0,1,2011.612,918.517Z" transform="translate(-1961.802 -892.998)" opacity="0.56" fill="url(#radial-gradient-4)"/>
  <path id="XMLID_42_" d="M2000.384,939.732l-1.786.885-33.58,7.753a5.216,5.216,0,0,1-2.149.039,5.681,5.681,0,0,1-2-.8,5.9,5.9,0,0,1-1.594-1.5,5.728,5.728,0,0,1-.943-2.034l-5.972-24.793a4.089,4.089,0,0,1-.083-.456l.822-2.19a3.209,3.209,0,0,0-.139.48,3.462,3.462,0,0,0-.066.511,3.692,3.692,0,0,0,.012.537,4.181,4.181,0,0,0,.094.558l5.972,24.793a5.725,5.725,0,0,0,.943,2.034,5.9,5.9,0,0,0,1.594,1.5,5.68,5.68,0,0,0,2,.8,5.23,5.23,0,0,0,2.149-.039l34.236-7.9c.043-.01.087-.021.129-.034s.084-.026.125-.041.081-.03.12-.047S2000.346,939.751,2000.384,939.732Z" transform="translate(-1950.406 -914)" fill="url(#radial-gradient-5)"/>
  <g id="XMLID_316_" transform="translate(22.193 8.182)">
    <path id="XMLID_317_" d="M2351.444,1025.409a.442.442,0,0,1,.062,0c.021,0,.043,0,.065.008s.044.01.067.016a.644.644,0,0,1,.069.026l10.981,4.735a.65.65,0,0,1,.225.162.678.678,0,0,1,.137.225.513.513,0,0,1,.03.238.335.335,0,0,1-.1.2l-7.224,7.066a.346.346,0,0,1-.05.042.458.458,0,0,1-.054.033.4.4,0,0,1-.058.023.486.486,0,0,1-.061.014.514.514,0,0,1-.2-.01.63.63,0,0,1-.2-.087.693.693,0,0,1-.166-.153.674.674,0,0,1-.111-.21l-3.753-11.8a.468.468,0,0,1-.022-.2.351.351,0,0,1,.184-.273A.414.414,0,0,1,2351.444,1025.409Z" transform="translate(-2351.085 -1025.407)" fill="url(#radial-gradient-6)"/>
  </g>
  <g id="XMLID_44_" transform="translate(21.641 7.595)">
    <path id="XMLID_46_" d="M2340.663,1013.889a.481.481,0,0,1,.068,0,.583.583,0,0,1,.071.009.669.669,0,0,1,.073.018.758.758,0,0,1,.075.028l11.989,5.17a.713.713,0,0,1,.246.177.747.747,0,0,1,.149.245.561.561,0,0,1,.033.259.365.365,0,0,1-.1.216l-7.887,7.715a.458.458,0,0,1-.055.046.416.416,0,0,1-.06.035.439.439,0,0,1-.064.025.5.5,0,0,1-.067.015.552.552,0,0,1-.219-.011.7.7,0,0,1-.213-.094.758.758,0,0,1-.181-.167.737.737,0,0,1-.121-.23l-4.1-12.888a.524.524,0,0,1-.024-.218.391.391,0,0,1,.065-.177.383.383,0,0,1,.135-.121A.453.453,0,0,1,2340.663,1013.889Z" transform="translate(-2340.271 -1013.887)" fill="url(#radial-gradient-7)"/>
  </g>
  <path id="XMLID_244_" d="M2014.767,887.686a5.281,5.281,0,0,0-.393-1.553l-7.49-18.061a5.368,5.368,0,0,0-.762-1.279,5.869,5.869,0,0,0-1.058-1.03,5.071,5.071,0,0,0-1.229-.689,3.512,3.512,0,0,0-1.276-.247l-32.6.318a4.825,4.825,0,0,0-1.8.349,3.724,3.724,0,0,0-1.347.934,3.24,3.24,0,0,0-.745,1.4c0,.012-.006.024-.009.037a3.26,3.26,0,0,1,.516-.765,3.714,3.714,0,0,1,1.347-.933,4.826,4.826,0,0,1,1.8-.349l32.6-.318a3.51,3.51,0,0,1,1.277.247,5.075,5.075,0,0,1,1.229.689,5.857,5.857,0,0,1,1.058,1.03,5.335,5.335,0,0,1,.761,1.279l7.491,18.061a5.267,5.267,0,0,1,.393,1.553,3.868,3.868,0,0,1-.071,1.191,2.875,2.875,0,0,0,.188-.477A3.76,3.76,0,0,0,2014.767,887.686Z" transform="translate(-1963.484 -864.828)" opacity="0.7" fill="url(#radial-gradient-8)"/>
  <path id="XMLID_366_" d="M1915.5,1058.135a0,0,0,0,0,0-.005,0,0,0,1,0,0,.005Z" transform="translate(-1915.498 -1048.281)" fill="url(#linear-gradient-4)"/>
  <path id="XMLID_358_" d="M2242.569,1495.232Z" transform="translate(-2225.462 -1458.287)" fill="url(#linear-gradient-5)"/>
</svg>
