<svg xmlns="http://www.w3.org/2000/svg" width="247.451" height="44.609" viewBox="0 0 247.451 44.609">
  <g id="Grupo_55678" data-name="Grupo 55678" transform="translate(-11.919 -4.586)">
    <g id="Grupo_55665" data-name="Grupo 55665" transform="translate(0 4)">
      <path id="Trazado_704968" data-name="Trazado 704968" d="M11.919,18V3.684H14.81V18Zm16.133-7.969V7.512h10.01v2.52Zm0,4.336V11.838h10.01v2.529Zm16.221,7.588V20.178H55.679v1.777Zm11.123,0V20.178H66.8v1.777Zm11.123,0V20.178H77.925v1.777Zm11.123,0V20.178H89.048v1.777Zm17.7-11.924V7.512h10.01v2.52Zm0,4.336V11.838h10.01v2.529Zm21.777,7.588V20.178h11.406v1.777Zm11.123,0V20.178h11.406v1.777Zm11.123,0V20.178h11.406v1.777Zm11.123,0V20.178H161.89v1.777Zm11.123,0V20.178h11.406v1.777Zm11.123,0V20.178h11.406v1.777Zm23.252-11.924V7.512h10.01v2.52Zm0,4.336V11.838h10.01v2.529ZM217.876,3.625a3.912,3.912,0,0,1,3.252,1.484q1.4,1.758,1.4,5.83t-1.406,5.84a3.905,3.905,0,0,1-3.242,1.465,4.1,4.1,0,0,1-3.369-1.606q-1.279-1.606-1.279-5.728,0-4.043,1.406-5.82A3.905,3.905,0,0,1,217.876,3.625Zm0,2.275a1.371,1.371,0,0,0-.889.317,2.131,2.131,0,0,0-.605,1.138,15.692,15.692,0,0,0-.283,3.584,15.577,15.577,0,0,0,.254,3.462,2.434,2.434,0,0,0,.64,1.255,1.4,1.4,0,0,0,1.772,0,2.131,2.131,0,0,0,.605-1.138,15.554,15.554,0,0,0,.283-3.574,15.577,15.577,0,0,0-.254-3.462,2.468,2.468,0,0,0-.64-1.26A1.352,1.352,0,0,0,217.876,5.9Zm7.07,12.1V15.256h2.744V18Zm7.324-7.725a3.072,3.072,0,0,1-2.031-2.959,3.466,3.466,0,0,1,1.118-2.646,5.343,5.343,0,0,1,6.348,0,3.452,3.452,0,0,1,1.128,2.646,3.122,3.122,0,0,1-.518,1.772,3.276,3.276,0,0,1-1.455,1.187,3.835,3.835,0,0,1,1.812,1.4,3.7,3.7,0,0,1,.62,2.119,4.314,4.314,0,0,1-1.265,3.223,4.6,4.6,0,0,1-3.364,1.24,5.086,5.086,0,0,1-3.252-1.025,4,4,0,0,1-1.533-3.32,4.107,4.107,0,0,1,.576-2.134A3.711,3.711,0,0,1,232.271,10.275Zm.566-2.764a1.719,1.719,0,0,0,.464,1.279,1.68,1.68,0,0,0,1.235.459,1.7,1.7,0,0,0,1.25-.464,1.725,1.725,0,0,0,.469-1.284,1.6,1.6,0,0,0-1.689-1.7,1.7,1.7,0,0,0-1.26.469A1.677,1.677,0,0,0,232.837,7.512Zm-.254,6.133a2.521,2.521,0,0,0,.581,1.768,1.885,1.885,0,0,0,1.45.635,1.821,1.821,0,0,0,1.406-.61,2.528,2.528,0,0,0,.557-1.763,2.281,2.281,0,0,0-.566-1.616,1.874,1.874,0,0,0-1.436-.61,1.717,1.717,0,0,0-1.5.693A2.542,2.542,0,0,0,232.583,13.645ZM259.37,18h-3.145l-1.25-3.252h-5.723L248.071,18H245l5.576-14.316h3.057Zm-5.322-5.664-1.973-5.312-1.934,5.313Z" transform="translate(0 -1)" fill="#12263f"/>
    </g>
    <path id="Trazado_704970" data-name="Trazado 704970" d="M16.4,13.7l1.631-8.916h3.4L18.41,19H14.855l-1.9-8.105L11.086,19H7.541L4.514,4.781H7.922L9.553,13.7l1.953-8.916h2.91ZM12.985,45.133l2.832-10.352h3.828L14.86,49H11.11L6.364,34.781h3.8Z" transform="translate(51)" fill="#12263f"/>
    <path id="Trazado_704969" data-name="Trazado 704969" d="M13.109,19h-3.3V8.492l-3.242.947v-2.5l6.24-2.158h.3Zm14.16-5.811a6.789,6.789,0,0,1-1.294,4.443A4.471,4.471,0,0,1,22.328,19.2a4.5,4.5,0,0,1-3.672-1.572,6.779,6.779,0,0,1-1.3-4.434v-2.6a6.789,6.789,0,0,1,1.294-4.443,4.483,4.483,0,0,1,3.657-1.562,4.484,4.484,0,0,1,3.662,1.572,6.8,6.8,0,0,1,1.3,4.443Zm-3.291-3.018a5.071,5.071,0,0,0-.4-2.29,1.338,1.338,0,0,0-1.27-.757,1.307,1.307,0,0,0-1.235.7,4.777,4.777,0,0,0-.415,2.129V13.59a5.109,5.109,0,0,0,.4,2.329,1.343,1.343,0,0,0,1.27.737,1.325,1.325,0,0,0,1.24-.718,4.878,4.878,0,0,0,.41-2.251Zm14.873,3.018a6.789,6.789,0,0,1-1.294,4.443A4.471,4.471,0,0,1,33.91,19.2a4.5,4.5,0,0,1-3.672-1.572,6.779,6.779,0,0,1-1.3-4.434v-2.6a6.789,6.789,0,0,1,1.294-4.443,4.483,4.483,0,0,1,3.657-1.562,4.484,4.484,0,0,1,3.662,1.572,6.8,6.8,0,0,1,1.3,4.443Zm-3.291-3.018a5.071,5.071,0,0,0-.4-2.29,1.338,1.338,0,0,0-1.27-.757,1.307,1.307,0,0,0-1.235.7,4.777,4.777,0,0,0-.415,2.129V13.59a5.109,5.109,0,0,0,.4,2.329,1.343,1.343,0,0,0,1.27.737,1.325,1.325,0,0,0,1.24-.718,4.878,4.878,0,0,0,.41-2.251Zm21.2,3.525,1.631-8.916h3.4L58.773,19H55.219l-1.9-8.105L51.449,19H47.9L44.877,4.781h3.408L49.916,13.7l1.953-8.916h2.91ZM15.194,49h-3.3V38.492l-3.242.947v-2.5l6.24-2.158h.3ZM29.4,49H19.481V46.852l4.57-4.8q1.689-1.924,1.689-3.057a2.126,2.126,0,0,0-.4-1.4,1.43,1.43,0,0,0-1.162-.479,1.447,1.447,0,0,0-1.221.64,2.629,2.629,0,0,0-.469,1.6h-3.3a4.67,4.67,0,0,1,.654-2.417A4.588,4.588,0,0,1,21.659,35.2a5.4,5.4,0,0,1,2.6-.625,5.308,5.308,0,0,1,3.55,1.064A3.8,3.8,0,0,1,29.052,38.7a4.439,4.439,0,0,1-.312,1.636A7.173,7.173,0,0,1,27.768,42a24.476,24.476,0,0,1-2.124,2.339l-1.836,2.119h5.6Zm1.855-6.945.869-7.273h8.311V37.34H34.8l-.322,2.825A3.882,3.882,0,0,1,35.4,39.8a4.643,4.643,0,0,1,4.375,1.1,5.718,5.718,0,0,1,.527,6,4.2,4.2,0,0,1-1.714,1.7,5.411,5.411,0,0,1-2.607.6,5.822,5.822,0,0,1-2.51-.551,4.5,4.5,0,0,1-1.836-1.512,3.675,3.675,0,0,1-.654-2.171h3.3a1.867,1.867,0,0,0,.5,1.238,1.581,1.581,0,0,0,1.182.458q1.66,0,1.66-2.456,0-2.271-2.031-2.271a2.027,2.027,0,0,0-1.719.741Zm22.09,3.078,2.832-10.352h3.828L55.224,49h-3.75L46.728,34.781h3.8Z" transform="translate(115)" fill="#12263f"/>
  </g>
</svg>
