<svg xmlns="http://www.w3.org/2000/svg" width="68.221" height="46.414" viewBox="0 0 68.221 46.414">
  <g id="Grupo_55444" data-name="Grupo 55444" transform="translate(-1.279 -6.614)">
    <g id="Grupo_55443" data-name="Grupo 55443">
      <g id="Grupo_55441" data-name="Grupo 55441">
        <g id="Grupo_55438" data-name="Grupo 55438" transform="translate(0 15)">
          <path id="Trazado_107340" data-name="Trazado 107340" d="M10.029,15.336H4.5V21H1.074V6.781h9.512V9.428H4.5V12.7h5.527Zm11.641.459a6.372,6.372,0,0,1-1.108,3.931,3.554,3.554,0,0,1-2.993,1.47,3.046,3.046,0,0,1-2.393-1.064v4.932H11.885V10.434h3.076l.1.977a3.046,3.046,0,0,1,2.49-1.172,3.582,3.582,0,0,1,3.037,1.44,6.45,6.45,0,0,1,1.084,3.96Zm-3.291-.205q0-2.812-1.641-2.812a1.549,1.549,0,0,0-1.562.84v4.16a1.6,1.6,0,0,0,1.582.879q1.572,0,1.621-2.715Zm19.092-1.641H28.428V11.41h9.043Zm0,4.287H28.428V15.7h9.043Z" transform="translate(0.205 -0.167)" fill="#12263f"/>
        </g>
        <g id="Grupo_55439" data-name="Grupo 55439" transform="translate(46 32)">
          <path id="Trazado_107342" data-name="Trazado 107342" d="M12.148,17.221a1.408,1.408,0,0,0-.532-1.172,6.615,6.615,0,0,0-1.87-.869,17.942,17.942,0,0,1-2.187-.869q-2.764-1.357-2.764-3.73A3.345,3.345,0,0,1,5.483,8.5,4.453,4.453,0,0,1,7.432,7.089a7.582,7.582,0,0,1,2.832-.5,6.632,6.632,0,0,1,2.749.547A4.352,4.352,0,0,1,14.9,8.69,4.068,4.068,0,0,1,15.576,11H12.158a1.719,1.719,0,0,0-.532-1.348,2.075,2.075,0,0,0-1.44-.479,2.339,2.339,0,0,0-1.45.405A1.193,1.193,0,0,0,8.789,11.6a7.389,7.389,0,0,0,2.061.918,12.623,12.623,0,0,1,2.422,1.021,4.07,4.07,0,0,1,2.3,3.662,3.472,3.472,0,0,1-1.406,2.93A6.255,6.255,0,0,1,10.313,21.2a7.653,7.653,0,0,1-3.13-.62,4.719,4.719,0,0,1-2.109-1.7,4.428,4.428,0,0,1-.708-2.485H7.8a2.181,2.181,0,0,0,.591,1.685,2.793,2.793,0,0,0,1.919.542,2.206,2.206,0,0,0,1.343-.366A1.209,1.209,0,0,0,12.148,17.221Z" transform="translate(0.205 -0.167)" fill="#12263f"/>
        </g>
        <g id="Grupo_55442" data-name="Grupo 55442" transform="translate(46)">
          <path id="Trazado_107341" data-name="Trazado 107341" d="M7.993,16.176V21H4.565V6.781h5.674a6.608,6.608,0,0,1,2.886.6,4.526,4.526,0,0,1,1.943,1.709,4.667,4.667,0,0,1,.688,2.515,4.114,4.114,0,0,1-1.489,3.325,6.179,6.179,0,0,1-4.087,1.245Zm0-2.646h2.246a2.118,2.118,0,0,0,1.519-.5,1.85,1.85,0,0,0,.522-1.406,2.287,2.287,0,0,0-.537-1.592,1.9,1.9,0,0,0-1.465-.605H7.993Z" transform="translate(0.205 -0.167)" fill="#12263f"/>
        </g>
      </g>
    </g>
    <path id="Trazado_107175" data-name="Trazado 107175" d="M-6341-6789h24.5" transform="translate(6385 6817)" fill="none" stroke="#12263f" stroke-linecap="round" stroke-width="2"/>
  </g>
</svg>
