<svg xmlns="http://www.w3.org/2000/svg" width="560" height="235" viewBox="0 0 560 235">
  <g id="Grupo_55458" data-name="Grupo 55458" transform="translate(-790 -3619)">
    <rect id="Rectángulo_5328" data-name="Rectángulo 5328" width="560" height="235" transform="translate(790 3619)" fill="#fff"/>
    <g id="Grupo_55457" data-name="Grupo 55457" transform="translate(-13 -7.342)">
      <g id="Grupo_55455" data-name="Grupo 55455" transform="translate(19)">
        <text id="Activa_P_" data-name="Activa (P)" transform="translate(1060 3835)" fill="#12263f" font-size="16" font-family="Roboto-Regular, Roboto"><tspan x="0" y="0">Activa (P)</tspan></text>
        <rect id="Rectángulo_5330" data-name="Rectángulo 5330" width="5" height="19" transform="translate(1045 3820)" fill="#25ffff"/>
      </g>
      <g id="Grupo_55453" data-name="Grupo 55453" transform="translate(-2333 4791) rotate(-90)">
        <text id="Reactiva_Q_" data-name="Reactiva (Q)" transform="translate(1018 3654)" fill="#12263f" font-size="16" font-family="Roboto-Regular, Roboto"><tspan x="0" y="0">Reactiva (Q)</tspan></text>
        <rect id="Rectángulo_5332" data-name="Rectángulo 5332" width="5" height="19" transform="translate(1003 3639)" fill="#25ffff"/>
      </g>
      <g id="Grupo_55454" data-name="Grupo 55454" transform="translate(-3 3)">
        <text id="Aparente_S_" data-name="Aparente (S)" transform="translate(997 3707)" fill="#12263f" font-size="16" font-family="Roboto-Regular, Roboto"><tspan x="0" y="0">Aparente (S)</tspan></text>
        <rect id="Rectángulo_5331" data-name="Rectángulo 5331" width="5" height="19" transform="translate(982 3692)" fill="#25ffff"/>
      </g>
      <g id="Grupo_55456" data-name="Grupo 55456" transform="translate(16 -38)">
        <text id="φ" transform="translate(957 3830)" fill="#12263f" font-size="16" font-family="Roboto-Black, Roboto" font-weight="800"><tspan x="0" y="0">φ</tspan></text>
      </g>
      <path id="Trazado_107180" data-name="Trazado 107180" d="M-8213.833-436.93s23.11,5.225,27.463,30.882" transform="matrix(0.978, 0.208, -0.208, 0.978, 8889.998, 5912.134)" fill="none" stroke="#cb3232" stroke-width="3"/>
      <g id="Grupo_55452" data-name="Grupo 55452">
        <path id="Trazado_107176" data-name="Trazado 107176" d="M-5888-8374l-441,150h441" transform="translate(7170 12036)" fill="none" stroke="#3c4fa1" stroke-linecap="round" stroke-linejoin="round" stroke-width="5"/>
        <path id="Trazado_107177" data-name="Trazado 107177" d="M-5842-7910.5V-8026" transform="translate(7124 11713.5)" fill="none" stroke="#3c4fa1" stroke-linecap="round" stroke-width="4"/>
        <path id="Trazado_105781" data-name="Trazado 105781" d="M247.646,847.985l3.083-5.07-.24-.16L239.046,847.3q-5.981,1.315-11.96,2.632,5.981,1.315,11.96,2.632l11.444,4.546.24-.121-3.089-5.109Z" transform="translate(1861.359 4329.52) rotate(155)" fill="#3c4fa1"/>
        <path id="Trazado_107178" data-name="Trazado 107178" d="M247.646,847.985l3.083-5.07-.24-.16L239.046,847.3q-5.981,1.315-11.96,2.632,5.981,1.315,11.96,2.632l11.444,4.546.24-.121-3.089-5.109Z" transform="translate(1524.546 4662.423) rotate(180)" fill="#3c4fa1"/>
        <path id="Trazado_107179" data-name="Trazado 107179" d="M247.646,847.985l3.083-5.07-.24-.16L239.046,847.3q-5.981,1.315-11.96,2.632,5.981,1.315,11.96,2.632l11.444,4.546.24-.121-3.089-5.109Z" transform="translate(2131.933 3444.602) rotate(90)" fill="#3c4fa1"/>
      </g>
    </g>
  </g>
</svg>
