<svg xmlns="http://www.w3.org/2000/svg" width="161" height="161" viewBox="0 0 161 161">
  <g id="Grupo_55423" data-name="Grupo 55423" transform="translate(5443 6542)">
    <rect id="Rectángulo_5300" data-name="Rectángulo 5300" width="161" height="161" transform="translate(-5443 -6542)" fill="none"/>
    <g id="central-electrica" transform="translate(-5429 -6527)">
      <g id="Grupo_55393" data-name="Grupo 55393" transform="translate(3.097 120.516)">
        <rect id="Rectángulo_5302" data-name="Rectángulo 5302" width="63" height="8" transform="translate(-0.097 0.484)" fill="#b9aba5"/>
      </g>
      <g id="Grupo_55394" data-name="Grupo 55394" transform="translate(21.968 15.677)">
        <path id="Trazado_107105" data-name="Trazado 107105" d="M31.968,79.29l4.194,8.387H11l4.194-8.387V8H31.968Z" transform="translate(-11 -8)" fill="#f6e4ca"/>
      </g>
      <g id="Grupo_55395" data-name="Grupo 55395" transform="translate(17.774 3.097)">
        <path id="Trazado_107106" data-name="Trazado 107106" d="M42.548,2,38.355,14.581H13.194L9,2Z" transform="translate(-9 -2)" fill="#dbc5a7"/>
      </g>
      <g id="Grupo_55396" data-name="Grupo 55396" transform="translate(107.935 32.452)">
        <path id="Trazado_107107" data-name="Trazado 107107" d="M52,16v8.387h8.387V16" transform="translate(-52 -16)" fill="#b9aba5"/>
      </g>
      <g id="Grupo_55397" data-name="Grupo 55397" transform="translate(95.355 15.677)">
        <path id="Trazado_107108" data-name="Trazado 107108" d="M54.387,24.774H71.161a8.387,8.387,0,0,0,8.387-8.387V8H46v8.387A8.387,8.387,0,0,0,54.387,24.774Z" transform="translate(-46 -8)" fill="#9d8980"/>
      </g>
      <g id="Grupo_55398" data-name="Grupo 55398" transform="translate(99.548 3.097)">
        <path id="Trazado_107109" data-name="Trazado 107109" d="M48,14.581V6.194A4.192,4.192,0,0,1,52.194,2h0a4.192,4.192,0,0,1,4.194,4.194v8.387" transform="translate(-48 -2)" fill="#d8dce4"/>
      </g>
      <g id="Grupo_55399" data-name="Grupo 55399" transform="translate(116.323 3.097)">
        <path id="Trazado_107110" data-name="Trazado 107110" d="M56,14.581V6.194A4.192,4.192,0,0,1,60.194,2h0a4.192,4.192,0,0,1,4.194,4.194v8.387" transform="translate(-56 -2)" fill="#d8dce4"/>
      </g>
      <g id="Grupo_55400" data-name="Grupo 55400" transform="translate(1 118.419)">
        <path id="Trazado_107111" data-name="Trazado 107111" d="M66,69.581H3.1a2.1,2.1,0,0,1-2.1-2.1V59.1A2.1,2.1,0,0,1,3.1,57H66a2.1,2.1,0,0,1,2.1,2.1v8.387A2.1,2.1,0,0,1,66,69.581ZM5.194,65.387H63.9V61.194H5.194Z" transform="translate(-1 -57)"/>
      </g>
      <g id="Grupo_55401" data-name="Grupo 55401" transform="translate(5.464 15.677)">
        <path id="Trazado_107112" data-name="Trazado 107112" d="M6.782,113.866l-3.653-2.055,18.6-33.07V8h4.194V79.29a2.072,2.072,0,0,1-.27,1.027Z" transform="translate(-3.129 -8)"/>
      </g>
      <g id="Grupo_55402" data-name="Grupo 55402" transform="translate(40.839 15.677)">
        <path id="Trazado_107113" data-name="Trazado 107113" d="M39.141,113.866,20.27,80.318A2.072,2.072,0,0,1,20,79.29V8h4.194V78.741l18.6,33.068Z" transform="translate(-20 -8)"/>
      </g>
      <g id="Grupo_55403" data-name="Grupo 55403" transform="translate(21.968 93.258)">
        <rect id="Rectángulo_5303" data-name="Rectángulo 5303" width="25" height="4" transform="translate(0.032 -0.258)"/>
      </g>
      <g id="Grupo_55404" data-name="Grupo 55404" transform="translate(16.291 93.871)">
        <rect id="Rectángulo_5304" data-name="Rectángulo 5304" width="35.584" height="4.194" transform="translate(0 25.162) rotate(-45)"/>
      </g>
      <g id="Grupo_55405" data-name="Grupo 55405" transform="translate(24.678 93.872)">
        <rect id="Rectángulo_5305" data-name="Rectángulo 5305" width="4.194" height="35.584" transform="translate(0 2.965) rotate(-45)"/>
      </g>
      <g id="Grupo_55406" data-name="Grupo 55406" transform="translate(1 72.29)">
        <path id="Trazado_107114" data-name="Trazado 107114" d="M66,51.774H3.1A2.1,2.1,0,0,1,1.839,48L18.613,35.419A2.091,2.091,0,0,1,19.871,35H49.226a2.091,2.091,0,0,1,1.258.419L67.258,48A2.1,2.1,0,0,1,66,51.774ZM9.387,47.581H59.709L48.527,39.194H20.569Z" transform="translate(-1 -35)"/>
      </g>
      <g id="Grupo_55407" data-name="Grupo 55407" transform="translate(1 76.484)">
        <rect id="Rectángulo_5306" data-name="Rectángulo 5306" width="4" height="17" transform="translate(0 -0.484)"/>
      </g>
      <g id="Grupo_55408" data-name="Grupo 55408" transform="translate(63.903 76.484)">
        <rect id="Rectángulo_5307" data-name="Rectángulo 5307" width="4" height="17" transform="translate(0.097 -0.484)"/>
      </g>
      <g id="Grupo_55409" data-name="Grupo 55409" transform="translate(1 47.129)">
        <path id="Trazado_107115" data-name="Trazado 107115" d="M66,39.774H3.1A2.1,2.1,0,0,1,1.839,36L18.613,23.419A2.091,2.091,0,0,1,19.871,23H49.226a2.091,2.091,0,0,1,1.258.419L67.258,36A2.1,2.1,0,0,1,66,39.774ZM9.387,35.581H59.709L48.527,27.194H20.569Z" transform="translate(-1 -23)"/>
      </g>
      <g id="Grupo_55410" data-name="Grupo 55410" transform="translate(1 51.323)">
        <rect id="Rectángulo_5308" data-name="Rectángulo 5308" width="4" height="17" transform="translate(0 -0.323)"/>
      </g>
      <g id="Grupo_55411" data-name="Grupo 55411" transform="translate(63.903 51.323)">
        <rect id="Rectángulo_5309" data-name="Rectángulo 5309" width="4" height="17" transform="translate(0.097 -0.323)"/>
      </g>
      <g id="Grupo_55412" data-name="Grupo 55412" transform="translate(1 21.968)">
        <path id="Trazado_107116" data-name="Trazado 107116" d="M66,27.774H3.1A2.1,2.1,0,0,1,1.839,24L18.613,11.419A2.091,2.091,0,0,1,19.871,11H49.226a2.091,2.091,0,0,1,1.258.419L67.258,24A2.1,2.1,0,0,1,66,27.774ZM9.387,23.581H59.709L48.527,15.194H20.569Z" transform="translate(-1 -11)"/>
      </g>
      <g id="Grupo_55413" data-name="Grupo 55413" transform="translate(1 26.161)">
        <rect id="Rectángulo_5310" data-name="Rectángulo 5310" width="4" height="17" transform="translate(0 -0.161)"/>
      </g>
      <g id="Grupo_55414" data-name="Grupo 55414" transform="translate(63.903 26.161)">
        <rect id="Rectángulo_5311" data-name="Rectángulo 5311" width="4" height="17" transform="translate(0.097 -0.161)"/>
      </g>
      <g id="Grupo_55415" data-name="Grupo 55415" transform="translate(15.677 1)">
        <path id="Trazado_107117" data-name="Trazado 107117" d="M39.452,17.774H14.29A2.092,2.092,0,0,1,12.3,16.34L8.109,3.759A2.093,2.093,0,0,1,10.1,1H43.645a2.1,2.1,0,0,1,1.99,2.759L41.442,16.34A2.1,2.1,0,0,1,39.452,17.774ZM15.8,13.581h22.14l2.795-8.387H13.007Z" transform="translate(-8 -1)"/>
      </g>
      <g id="Grupo_55416" data-name="Grupo 55416" transform="translate(24.065 22.387)">
        <path id="Trazado_107118" data-name="Trazado 107118" d="M29.613,77.458,12.839,64.877a2.1,2.1,0,0,1,0-3.355l14.537-10.9-14.537-10.9a2.1,2.1,0,0,1,0-3.355l14.537-10.9-14.537-10.9L15.353,11.2,32.127,23.781a2.1,2.1,0,0,1,0,3.355l-14.535,10.9,14.537,10.9a2.1,2.1,0,0,1,0,3.355L17.592,63.2,32.129,74.1Z" transform="translate(-12 -11.2)"/>
      </g>
      <g id="Grupo_55417" data-name="Grupo 55417" transform="translate(93.258 13.581)">
        <path id="Trazado_107119" data-name="Trazado 107119" d="M72.258,27.968H55.484A10.5,10.5,0,0,1,45,17.484V9.1A2.1,2.1,0,0,1,47.1,7H80.645a2.1,2.1,0,0,1,2.1,2.1v8.387A10.5,10.5,0,0,1,72.258,27.968ZM49.194,11.194v6.29a6.3,6.3,0,0,0,6.29,6.29H72.258a6.3,6.3,0,0,0,6.29-6.29v-6.29Z" transform="translate(-45 -7)"/>
      </g>
      <g id="Grupo_55418" data-name="Grupo 55418" transform="translate(97.452 1)">
        <path id="Trazado_107120" data-name="Trazado 107120" d="M59.581,15.677H55.387V7.29a2.1,2.1,0,0,0-4.194,0v8.387H47V7.29a6.29,6.29,0,1,1,12.581,0Z" transform="translate(-47 -1)"/>
      </g>
      <g id="Grupo_55419" data-name="Grupo 55419" transform="translate(114.226 1)">
        <path id="Trazado_107121" data-name="Trazado 107121" d="M67.581,15.677H63.387V7.29a2.1,2.1,0,0,0-4.194,0v8.387H55V7.29a6.29,6.29,0,0,1,12.581,0Z" transform="translate(-55 -1)"/>
      </g>
      <g id="Grupo_55420" data-name="Grupo 55420" transform="translate(95.355 21.968)">
        <rect id="Rectángulo_5312" data-name="Rectángulo 5312" width="34" height="4" transform="translate(-0.355 0.032)"/>
      </g>
      <g id="Grupo_55421" data-name="Grupo 55421" transform="translate(105.839 30.355)">
        <path id="Trazado_107122" data-name="Trazado 107122" d="M61.484,27.581H53.1a2.1,2.1,0,0,1-2.1-2.1V15h4.194v8.387h4.194V17.1h4.194v8.387A2.1,2.1,0,0,1,61.484,27.581Z" transform="translate(-51 -15)"/>
      </g>
      <g id="Grupo_55422" data-name="Grupo 55422" transform="translate(66 40.839)">
        <path id="Trazado_107123" data-name="Trazado 107123" d="M71.839,110.161a8.4,8.4,0,0,1-8.387-8.387V43.065a4.194,4.194,0,1,0-8.387,0V99.677a10.5,10.5,0,0,1-10.484,10.484H32v-4.194H44.581a6.3,6.3,0,0,0,6.29-6.29V43.065a8.387,8.387,0,1,1,16.774,0v58.71a4.194,4.194,0,1,0,8.387,0V20h4.194v81.774A8.4,8.4,0,0,1,71.839,110.161Z" transform="translate(-32 -20)"/>
      </g>
    </g>
  </g>
</svg>
