<svg xmlns="http://www.w3.org/2000/svg" width="504" height="288" viewBox="0 0 504 288"><g transform="translate(4039 5771)"><rect width="504" height="288" rx="5" transform="translate(-4039 -5771)" fill="#fff"/><g transform="translate(-4016.511 -5748.027)"><g transform="translate(27.369)"><path d="M-3663.955-5301.355V-5344h-283.7v108.388l-55.675,73.443v59.821h271.266v-108.979" transform="translate(4003.333 5344)" fill="none" stroke="#707070" stroke-linecap="round" stroke-linejoin="round" stroke-width="3"/><path d="M-3587.073-5197.2v49.159H-3884.4l-56.267-74.627" transform="translate(3996.341 5330.461)" fill="none" stroke="#707070" stroke-linecap="round" stroke-linejoin="round" stroke-width="3"/><g transform="translate(269.489 39.091)" fill="#fff"><path d="M 138.2764739990234 93.5615234375 L 2.983199834823608 93.5615234375 L 70.62982940673828 2.515113353729248 L 138.2764739990234 93.5615234375 Z" stroke="none"/><path d="M 70.62982940673828 5.030242919921875 L 5.966384887695312 92.0615234375 L 135.2932586669922 92.0615234375 L 70.62982940673828 5.030242919921875 M 70.62982940673828 0 L 141.2596435546875 95.0615234375 L -1.52587890625e-05 95.0615234375 L 70.62982940673828 0 Z" stroke="none" fill="#707070"/></g><g transform="translate(40.275 55.971)" fill="#fff" stroke="#707070" stroke-width="3"><circle cx="15.547" cy="15.547" r="15.547" stroke="none"/><circle cx="15.547" cy="15.547" r="14.047" fill="none"/></g><g transform="translate(68.705 132.375)" fill="#fff" stroke="#707070" stroke-width="3"><circle cx="15.547" cy="15.547" r="15.547" stroke="none"/><circle cx="15.547" cy="15.547" r="14.047" fill="none"/></g><g transform="translate(9.18 132.375)" fill="#fff" stroke="#707070" stroke-width="3"><circle cx="15.547" cy="15.547" r="15.547" stroke="none"/><circle cx="15.547" cy="15.547" r="14.047" fill="none"/></g><g transform="translate(361.015 126.156) rotate(90)" fill="#fff" stroke="#707070" stroke-width="3"><rect width="15.208" height="43.272" rx="2" stroke="none"/><rect x="1.5" y="1.5" width="12.208" height="40.272" rx="0.5" fill="none"/></g><g transform="translate(390.94 100.1) rotate(144)" fill="#fff" stroke="#707070" stroke-width="3"><rect width="15.208" height="43.272" rx="2" stroke="none"/><rect x="1.5" y="1.5" width="12.208" height="40.272" rx="0.5" fill="none"/></g><g transform="matrix(0.809, 0.588, -0.588, 0.809, 312.469, 65.092)" fill="#fff" stroke="#707070" stroke-width="3"><rect width="15.208" height="43.272" rx="2" stroke="none"/><rect x="1.5" y="1.5" width="12.208" height="40.272" rx="0.5" fill="none"/></g><circle cx="4.494" cy="4.494" r="4.494" transform="translate(335.624 37.875)" fill="#707070"/><circle cx="4.494" cy="4.494" r="4.494" transform="translate(404.773 129.266)" fill="#707070"/><circle cx="4.494" cy="4.494" r="4.494" transform="translate(266.179 129.266)" fill="#707070"/><circle cx="4.494" cy="4.494" r="4.494" transform="translate(51.18 103.301)" fill="#707070"/></g><text transform="translate(22.26 60.107)" fill="#12263f" font-size="18" font-family="Roboto-Black, Roboto" font-weight="800" letter-spacing="-0.05em"><tspan x="-14.135" y="19">V </tspan><tspan y="19" font-size="10.499" baseline-shift="-5.999400079342301">RN</tspan></text><text transform="translate(-9.631 133.536)" fill="#12263f" font-size="18" font-family="Roboto-Black, Roboto" font-weight="800" letter-spacing="-0.05em"><tspan x="-14.02" y="19">V </tspan><tspan y="19" font-size="10.499" baseline-shift="-5.999400079342301">TN</tspan></text><text transform="translate(234.25 89.66)" fill="#636363" font-size="18" font-family="Roboto-Black, Roboto" font-weight="800"><tspan x="-14.921" y="19">V </tspan><tspan y="19" font-size="10.499" baseline-shift="-5.999400079342301">TR</tspan></text><text transform="translate(250.242 20.362)" fill="#ff3b4e" font-size="16" font-family="Roboto-Black, Roboto" font-weight="800"><tspan x="-5.458" y="17">I</tspan><tspan y="17" font-size="9.333" baseline-shift="-5.33279994943018">R</tspan></text><text transform="translate(297.706 61.568)" fill="#c82494" font-size="16" font-family="Roboto-Black, Roboto" font-weight="800"><tspan x="-5.356" y="17">I</tspan><tspan y="17" font-size="9.333" baseline-shift="-5.33279994943018">T</tspan><tspan x="-3.044" y="41" font-size="9.333" baseline-shift="-5.33279994943018">R</tspan></text><text transform="translate(421.331 61.568)" fill="#c82494" font-size="16" font-family="Roboto-Black, Roboto" font-weight="800"><tspan x="-8.379" y="17">I</tspan><tspan y="17" font-size="9.333" baseline-shift="-5.33279994943018">RS</tspan></text><text transform="translate(357.742 159.028)" fill="#c82494" font-size="16" font-family="Roboto-Black, Roboto" font-weight="800"><tspan x="-8.277" y="17">I</tspan><tspan y="17" font-size="9.333" baseline-shift="-5.33279994943018">ST</tspan></text><text transform="translate(250.242 144.192)" fill="#ff3b4e" font-size="16" font-family="Roboto-Black, Roboto" font-weight="800"><tspan x="-5.335" y="17">I</tspan><tspan y="17" font-size="9.333" baseline-shift="-5.33279994943018">S</tspan></text><text transform="translate(250.242 201.632)" fill="#ff3b4e" font-size="16" font-family="Roboto-Black, Roboto" font-weight="800"><tspan x="-5.356" y="17">I</tspan><tspan y="17" font-size="9.333" baseline-shift="-5.33279994943018">T</tspan></text><text transform="translate(179.586 89.66)" fill="#636363" font-size="18" font-family="Roboto-Black, Roboto" font-weight="800"><tspan x="-14.898" y="19">V </tspan><tspan y="19" font-size="10.499" baseline-shift="-5.999400079342301">RS</tspan></text><text transform="translate(179.586 203.717)" fill="#636363" font-size="18" font-family="Roboto-Black, Roboto" font-weight="800"><tspan x="-14.782" y="19">V </tspan><tspan y="19" font-size="10.499" baseline-shift="-5.999400079342301">ST</tspan></text><text transform="translate(153.698 185.011)" fill="#636363" font-size="13" font-family="Roboto-Black, Roboto" font-weight="800"><tspan x="-3.472" y="14">+</tspan></text><text transform="translate(153.698 7.365)" fill="#636363" font-size="13" font-family="Roboto-Black, Roboto" font-weight="800"><tspan x="-3.472" y="14">+</tspan></text><text transform="translate(211.569 221.809)" fill="#636363" font-size="13" font-family="Roboto-Black, Roboto" font-weight="800"><tspan x="-3.472" y="14">+</tspan></text><text transform="translate(128.375 129.977)" fill="#12263f" font-size="18" font-family="Roboto-Black, Roboto" font-weight="800" letter-spacing="-0.05em"><tspan x="-13.997" y="19">V </tspan><tspan y="19" font-size="10.499" baseline-shift="-5.999400079342301">SN</tspan></text><text transform="translate(89.268 6.148)" fill="#12263f" font-size="13" font-family="Roboto-Black, Roboto" font-weight="800"><tspan x="-4.24" y="14">R</tspan></text><text transform="translate(374.622 32.801)" fill="#12263f" font-size="13" font-family="Roboto-Black, Roboto" font-weight="800"><tspan x="-4.24" y="14">R</tspan></text><text transform="translate(118.161 177.614)" fill="#12263f" font-size="13" font-family="Roboto-Black, Roboto" font-weight="800"><tspan x="-4.069" y="14">S</tspan></text><text transform="translate(444.513 127.311)" fill="#12263f" font-size="13" font-family="Roboto-Black, Roboto" font-weight="800"><tspan x="-4.069" y="14">S</tspan></text><text transform="translate(374.622 82.002)" fill="#12263f" font-size="18" font-family="Roboto-Black, Roboto" font-weight="800"><tspan x="-5.489" y="19">Z</tspan></text><text transform="translate(360.407 106.611)" fill="#12263f" font-size="18" font-family="Roboto-Black, Roboto" font-weight="800"><tspan x="-5.489" y="19">Z</tspan></text><text transform="translate(346.192 82.002)" fill="#12263f" font-size="18" font-family="Roboto-Black, Roboto" font-weight="800"><tspan x="-5.489" y="19">Z</tspan></text><text transform="translate(33.76 177.614)" fill="#12263f" font-size="13" font-family="Roboto-Black, Roboto" font-weight="800"><tspan x="-4.097" y="14">T</tspan></text><text transform="translate(277.189 127.311)" fill="#12263f" font-size="13" font-family="Roboto-Black, Roboto" font-weight="800"><tspan x="-4.097" y="14">T</tspan></text><text transform="translate(56.859 100.321)" fill="#12263f" font-size="13" font-family="Roboto-Black, Roboto" font-weight="800"><tspan x="-4.564" y="14">N</tspan></text><g transform="translate(224.909 235.135) rotate(-90)"><path d="M0,0V206.244" transform="translate(10.808 4.429) rotate(-90)" fill="none" stroke="#afafaf" stroke-width="2"/><path d="M12.685,5.63l1.9,3.128-.148.1-7.06-2.8L0,4.429,7.379,2.8,14.439,0l.148.074L12.681,3.227Z" transform="translate(226.921 8.857) rotate(180)" fill="#afafaf"/><path d="M12.685,5.63l1.9,3.128-.148.1-7.06-2.8L0,4.429,7.379,2.8,14.439,0l.148.074L12.681,3.227Z" transform="translate(0 0)" fill="#afafaf"/></g><g transform="translate(170.245 175.65) rotate(-90)"><path d="M0,0V148.456" transform="translate(9.959 4.429) rotate(-90)" fill="none" stroke="#afafaf" stroke-width="2"/><path d="M12.685,5.63l1.9,3.128-.148.1-7.06-2.8L0,4.429,7.379,2.8,14.439,0l.148.074L12.681,3.227Z" transform="translate(168.285 8.857) rotate(180)" fill="#afafaf"/><path d="M12.685,5.63l1.9,3.128-.148.1-7.06-2.8L0,4.429,7.379,2.8,14.439,0l.148.074L12.681,3.227Z" transform="translate(0 0)" fill="#afafaf"/></g><g transform="translate(170.245 235.135) rotate(-90)"><path d="M0,0V31.069" transform="translate(9.186 4.429) rotate(-90)" fill="none" stroke="#afafaf" stroke-width="2"/><path d="M12.685,5.63l1.9,3.128-.148.1-7.06-2.8L0,4.429,7.379,2.8,14.439,0l.148.074L12.681,3.227Z" transform="translate(50.124 8.857) rotate(180)" fill="#afafaf"/><path d="M12.685,5.63l1.9,3.128-.148.1-7.06-2.8L0,4.429,7.379,2.8,14.439,0l.148.074L12.681,3.227Z" transform="translate(0 0)" fill="#afafaf"/></g><g transform="translate(245.764 223.262)"><path d="M0,0V31.069" transform="translate(0 4.429) rotate(-90)" fill="none" stroke="#ff3b4e" stroke-width="2"/><path d="M12.685,5.63l1.9,3.128-.148.1-7.06-2.8L0,4.429,7.379,2.8,14.439,0l.148.074L12.681,3.227Z" transform="translate(40.939 8.857) rotate(180)" fill="#ff3b4e"/></g><g transform="translate(245.764 166.793)"><path d="M0,0V31.069" transform="translate(0 4.429) rotate(-90)" fill="none" stroke="#ff3b4e" stroke-width="2"/><path d="M12.685,5.63l1.9,3.128-.148.1-7.06-2.8L0,4.429,7.379,2.8,14.439,0l.148.074L12.681,3.227Z" transform="translate(40.939 8.857) rotate(180)" fill="#ff3b4e"/></g><g transform="translate(245.764 10.617)"><path d="M0,0V31.069" transform="translate(0 4.429) rotate(-90)" fill="none" stroke="#ff3b4e" stroke-width="2"/><path d="M12.685,5.63l1.9,3.128-.148.1-7.06-2.8L0,4.429,7.379,2.8,14.439,0l.148.074L12.681,3.227Z" transform="translate(40.939 8.857) rotate(180)" fill="#ff3b4e"/></g><g transform="matrix(0.588, -0.809, 0.809, 0.588, 305.702, 90.304)"><path d="M0,0V31.069" transform="translate(0 4.429) rotate(-90)" fill="none" stroke="#c82494" stroke-width="2"/><path d="M12.685,5.63l1.9,3.128-.148.1-7.06-2.8L0,4.429,7.379,2.8,14.439,0l.148.074L12.681,3.227Z" transform="translate(40.939 8.857) rotate(180)" fill="#c82494"/></g><g transform="matrix(0.588, 0.809, -0.809, 0.588, 405.264, 61.106)"><path d="M0,31.069V0" transform="translate(31.069 4.428) rotate(90)" fill="none" stroke="#c82494" stroke-width="2"/><path d="M12.685,3.227,14.587.1,14.439,0,7.379,2.805,0,4.429,7.379,6.052l7.06,2.8.148-.074L12.681,5.63Z" transform="translate(40.939 8.857) rotate(180)" fill="#c82494"/></g><g transform="translate(387.131 153.964) rotate(-180)"><path d="M0,31.069V0" transform="translate(31.069 4.428) rotate(90)" fill="none" stroke="#c82494" stroke-width="2"/><path d="M12.685,3.227,14.587.1,14.439,0,7.379,2.805,0,4.429,7.379,6.052l7.06,2.8.148-.074L12.681,5.63Z" transform="translate(40.939 8.857) rotate(180)" fill="#c82494"/></g></g></g></svg>