<svg xmlns="http://www.w3.org/2000/svg" width="362" height="323" viewBox="0 0 362 323"><g transform="translate(-389 -2775)"><rect width="362" height="323" transform="translate(389 2775)" fill="#fff"/><g transform="translate(-11 -2.587)"><g transform="translate(1.667 -0.154)"><path d="M-4802.667-8895.333h164V-8786l94,53.333v29.334h-230.667" transform="translate(5271 11700)" fill="none" stroke="#707070" stroke-width="3"/><path d="M-4802.667-8650h81.333v-88l82.667-48h-82.667" transform="translate(5271 11700)" fill="none" stroke="#707070" stroke-width="3"/><g transform="translate(623.106 2844.262)" fill="#fff" stroke="#707070" stroke-width="3"><rect width="18.455" height="33.511" rx="2" stroke="none"/><rect x="1.5" y="1.5" width="15.455" height="30.511" rx="0.5" fill="none"/></g><g transform="translate(660.209 2940.631) rotate(-60)" fill="#fff" stroke="#707070" stroke-width="3"><rect width="18.455" height="33.511" rx="2" stroke="none"/><rect x="1.5" y="1.5" width="15.455" height="30.511" rx="0.5" fill="none"/></g><g transform="translate(575.54 2957.386) rotate(-120)" fill="#fff" stroke="#707070" stroke-width="3"><rect width="18.455" height="33.511" rx="2" stroke="none"/><rect x="1.5" y="1.5" width="15.455" height="30.511" rx="0.5" fill="none"/></g><circle cx="5.454" cy="5.454" r="5.454" transform="translate(626.879 2908.546)" fill="#707070"/><g transform="translate(499.126 2989) rotate(-90)"><path d="M0,0V156.045" transform="translate(12.086 5.375) rotate(-90)" fill="none" stroke="#18821f" stroke-width="2"/><path d="M15.393,6.833l2.309,3.8-.179.119-8.568-3.4L0,5.374,8.954,3.4,17.522,0,17.7.09,15.389,3.916Z" transform="translate(180.107 10.748) rotate(180)" fill="#18821f"/><path d="M15.393,6.833l2.309,3.8-.179.119-8.568-3.4L0,5.374,8.954,3.4,17.522,0,17.7.09,15.389,3.916Z" transform="translate(0 0)" fill="#18821f"/></g><g transform="translate(499.126 3046) rotate(-90)"><path d="M0,0V21.045" transform="translate(12.086 5.375) rotate(-90)" fill="none" stroke="#18821f" stroke-width="2"/><path d="M15.393,6.833l2.309,3.8-.179.119-8.568-3.4L0,5.374,8.954,3.4,17.522,0,17.7.09,15.389,3.916Z" transform="translate(45.107 10.748) rotate(180)" fill="#18821f"/><path d="M15.393,6.833l2.309,3.8-.179.119-8.568-3.4L0,5.374,8.954,3.4,17.522,0,17.7.09,15.389,3.916Z" transform="translate(0 0)" fill="#18821f"/></g><g transform="translate(644.585 2892) rotate(-90)"><path d="M0,0V44.5" transform="translate(13 5.375) rotate(-90)" fill="none" stroke="#0f58b9" stroke-width="2"/><path d="M15.393,6.833l2.309,3.8-.179.119-8.568-3.4L0,5.374,8.954,3.4,17.522,0,17.7.09,15.389,3.916Z" transform="translate(69 10.748) rotate(180)" fill="#0f58b9"/><path d="M15.393,6.833l2.309,3.8-.179.119-8.568-3.4L0,5.374,8.954,3.4,17.522,0,17.7.09,15.389,3.916Z" transform="translate(0 0)" fill="#0f58b9"/></g><g transform="translate(699.528 2976.13) rotate(-151)"><path d="M0,0V44.5" transform="translate(13 5.375) rotate(-90)" fill="none" stroke="#0f58b9" stroke-width="2"/><path d="M15.393,6.833l2.309,3.8-.179.119-8.568-3.4L0,5.374,8.954,3.4,17.522,0,17.7.09,15.389,3.916Z" transform="translate(69 10.748) rotate(180)" fill="#0f58b9"/><path d="M15.393,6.833l2.309,3.8-.179.119-8.568-3.4L0,5.374,8.954,3.4,17.522,0,17.7.09,15.389,3.916Z" transform="translate(0 0)" fill="#0f58b9"/></g><g transform="matrix(0.875, -0.485, 0.485, 0.875, 564.554, 2964.729)"><path d="M0,44.5V0" transform="translate(57.5 5.374) rotate(90)" fill="none" stroke="#0f58b9" stroke-width="2"/><path d="M15.393,3.916,17.7.119,17.522,0,8.954,3.4,0,5.374l8.954,1.97,8.568,3.4.179-.09L15.389,6.833Z" transform="translate(69 10.748) rotate(180)" fill="#0f58b9"/><path d="M15.393,3.916,17.7.119,17.522,0,8.954,3.4,0,5.374l8.954,1.97,8.568,3.4.179-.09L15.389,6.833Z" transform="translate(0 0)" fill="#0f58b9"/></g><g transform="translate(469.729 3046) rotate(-90)"><path d="M0,0V213.045" transform="translate(12.086 5.375) rotate(-90)" fill="none" stroke="#18821f" stroke-width="2"/><path d="M15.393,6.833l2.309,3.8-.179.119-8.568-3.4L0,5.374,8.954,3.4,17.522,0,17.7.09,15.389,3.916Z" transform="translate(237.107 10.748) rotate(180)" fill="#18821f"/><path d="M15.393,6.833l2.309,3.8-.179.119-8.568-3.4L0,5.374,8.954,3.4,17.522,0,17.7.09,15.389,3.916Z" transform="translate(0 0)" fill="#18821f"/></g><g transform="translate(556.597 3002.893)"><path d="M0,0V33.3" transform="translate(4.403 5.375) rotate(-90)" fill="none" stroke="#ff3b4e" stroke-width="2"/><path d="M15.393,6.833l2.309,3.8-.179.119-8.568-3.4L0,5.374,8.954,3.4,17.522,0,17.7.09,15.389,3.916Z" transform="translate(49.679 10.748) rotate(180)" fill="#ff3b4e"/></g><g transform="translate(556.597 2808.893)"><path d="M0,0V33.3" transform="translate(4.403 5.375) rotate(-90)" fill="none" stroke="#ff3b4e" stroke-width="2"/><path d="M15.393,6.833l2.309,3.8-.179.119-8.568-3.4L0,5.374,8.954,3.4,17.522,0,17.7.09,15.389,3.916Z" transform="translate(49.679 10.748) rotate(180)" fill="#ff3b4e"/></g><g transform="translate(609.041 2904.694) rotate(180)"><path d="M0,0V33.3" transform="translate(4.403 5.375) rotate(-90)" fill="none" stroke="#ff3b4e" stroke-width="2"/><path d="M15.393,6.833l2.309,3.8-.179.119-8.568-3.4L0,5.374,8.954,3.4,17.522,0,17.7.09,15.389,3.916Z" transform="translate(49.679 10.748) rotate(180)" fill="#ff3b4e"/></g><g transform="translate(470.7 3057.893)"><path d="M0,0V33.3" transform="translate(4.403 5.375) rotate(-90)" fill="none" stroke="#ff3b4e" stroke-width="2"/><path d="M15.393,6.833l2.309,3.8-.179.119-8.568-3.4L0,5.374,8.954,3.4,17.522,0,17.7.09,15.389,3.916Z" transform="translate(49.679 10.748) rotate(180)" fill="#ff3b4e"/></g></g><text transform="translate(434 2907)" fill="#636363" font-size="20" font-family="Roboto-Black, Roboto" font-weight="800"><tspan x="-14.089" y="21">V</tspan><tspan y="21" font-size="11.666" baseline-shift="-6.666000209254424">TR</tspan></text><text transform="translate(509 2854)" fill="#636363" font-size="20" font-family="Roboto-Black, Roboto" font-weight="800"><tspan x="-14.063" y="21">V</tspan><tspan y="21" font-size="11.666" baseline-shift="-6.666000209254424">RS</tspan></text><text transform="translate(509 3008)" fill="#636363" font-size="20" font-family="Roboto-Black, Roboto" font-weight="800"><tspan x="-13.935" y="21">V</tspan><tspan y="21" font-size="11.666" baseline-shift="-6.666000209254424">ST</tspan></text><text transform="translate(602 2970)" fill="#0f58b9" font-size="16" font-family="Roboto-Black, Roboto" font-weight="800"><tspan x="-11.503" y="17">V</tspan><tspan y="17" font-size="9.333" baseline-shift="-5.33279994943018">TN</tspan></text><text transform="translate(644 2970)" fill="#0f58b9" font-size="16" font-family="Roboto-Black, Roboto" font-weight="800"><tspan x="-11.483" y="17">V</tspan><tspan y="17" font-size="9.333" baseline-shift="-5.33279994943018">SN</tspan></text><text transform="translate(663 2852)" fill="#0f58b9" font-size="16" font-family="Roboto-Black, Roboto" font-weight="800"><tspan x="-11.606" y="17">V</tspan><tspan y="17" font-size="9.333" baseline-shift="-5.33279994943018">RN</tspan></text><text transform="translate(480 2824)" fill="#afafaf" font-size="20" font-family="Roboto-Black, Roboto" font-weight="800"><tspan x="-5.342" y="21">+</tspan></text><text transform="translate(480 3004)" fill="#afafaf" font-size="20" font-family="Roboto-Black, Roboto" font-weight="800"><tspan x="-5.342" y="21">+</tspan></text><text transform="translate(578 2967)" fill="#afafaf" font-size="20" font-family="Roboto-Black, Roboto" font-weight="800"><tspan x="-5.342" y="21">+</tspan></text><text transform="translate(676 2967)" fill="#afafaf" font-size="20" font-family="Roboto-Black, Roboto" font-weight="800"><tspan x="-5.342" y="21">+</tspan></text><text transform="translate(657 2821)" fill="#afafaf" font-size="20" font-family="Roboto-Black, Roboto" font-weight="800"><tspan x="-5.342" y="21">+</tspan></text><text transform="translate(448 3016)" fill="#afafaf" font-size="20" font-family="Roboto-Black, Roboto" font-weight="800"><tspan x="-5.342" y="21">+</tspan></text><text transform="translate(581 2866)" fill="#ff3b4e" font-size="20" font-family="Roboto-Black, Roboto" font-weight="800"><tspan x="-7.113" y="21">I</tspan><tspan y="21" font-size="11.666" baseline-shift="-6.666000209254424">N</tspan></text><text transform="translate(570 3016)" fill="#ff3b4e" font-size="20" font-family="Roboto-Black, Roboto" font-weight="800"><tspan x="-6.669" y="21">I</tspan><tspan y="21" font-size="11.666" baseline-shift="-6.666000209254424">S</tspan></text><text transform="translate(485 3068)" fill="#ff3b4e" font-size="20" font-family="Roboto-Black, Roboto" font-weight="800"><tspan x="-6.695" y="21">I</tspan><tspan y="21" font-size="11.666" baseline-shift="-6.666000209254424">T</tspan></text><text transform="translate(562 2824)" fill="#ff3b4e" font-size="20" font-family="Roboto-Black, Roboto" font-weight="800"><tspan x="-6.823" y="21">I</tspan><tspan y="21" font-size="11.666" baseline-shift="-6.666000209254424">R</tspan></text><text transform="translate(449.618 2796.5)" fill="#12263f" font-size="13" font-family="Roboto-Black, Roboto" font-weight="800"><tspan x="-4.24" y="14">R</tspan></text><text transform="translate(612.618 2808.5)" fill="#12263f" font-size="13" font-family="Roboto-Black, Roboto" font-weight="800"><tspan x="-4.24" y="14">R</tspan></text><text transform="translate(604.118 2854)" fill="#12263f" font-size="13" font-family="Roboto-Black, Roboto" font-weight="800"><tspan x="-3.964" y="14">Z</tspan></text><text transform="translate(686.118 2918)" fill="#12263f" font-size="13" font-family="Roboto-Black, Roboto" font-weight="800"><tspan x="-3.964" y="14">Z</tspan></text><text transform="translate(569.118 2918)" fill="#12263f" font-size="13" font-family="Roboto-Black, Roboto" font-weight="800"><tspan x="-3.964" y="14">Z</tspan></text><text transform="translate(449.618 3043.5)" fill="#12263f" font-size="13" font-family="Roboto-Black, Roboto" font-weight="800"><tspan x="-4.097" y="14">T</tspan></text><text transform="translate(479.618 2988.5)" fill="#12263f" font-size="13" font-family="Roboto-Black, Roboto" font-weight="800"><tspan x="-4.069" y="14">S</tspan></text><text transform="translate(707 2973.5)" fill="#12263f" font-size="13" font-family="Roboto-Black, Roboto" font-weight="800"><tspan x="-4.069" y="14">S</tspan></text><text transform="translate(556.618 2973.5)" fill="#12263f" font-size="13" font-family="Roboto-Black, Roboto" font-weight="800"><tspan x="-4.097" y="14">T</tspan></text><text transform="translate(535.5 2907)" fill="#12263f" font-size="13" font-family="Roboto-Black, Roboto" font-weight="800"><tspan x="-4.564" y="14">N</tspan></text></g></g></svg>