<svg xmlns="http://www.w3.org/2000/svg" width="78.833" height="66.873" viewBox="0 0 78.833 66.873">
  <g id="accumulator" transform="translate(0 0)">
    <g id="Grupo_54855" data-name="Grupo 54855" transform="translate(5.214 17.19)">
      <path id="Trazado_105715" data-name="Trazado 105715" d="M37.891,195.769H97.678l4.593-7.543v-34.2l-34.2-3.549-34.2,3.549v34.2Z" transform="translate(-33.866 -150.48)" fill="#f9f7f8" fill-rule="evenodd"/>
    </g>
    <g id="Grupo_54856" data-name="Grupo 54856" transform="translate(10.877 1.146)">
      <path id="Trazado_105716" data-name="Trazado 105716" d="M70.641,52.587,74.2,54.513l4.012-1.925V49.435a3.164,3.164,0,0,0-3.156-3.156H73.8a3.164,3.164,0,0,0-3.156,3.156Z" transform="translate(-70.641 -46.279)" fill="#a1d4ff" fill-rule="evenodd"/>
    </g>
    <g id="Grupo_54857" data-name="Grupo 54857" transform="translate(60.387 1.146)">
      <path id="Trazado_105717" data-name="Trazado 105717" d="M392.2,49.435v3.152l4.147,2.1,3.423-2.1V49.435a3.166,3.166,0,0,0-3.156-3.156h-1.262A3.163,3.163,0,0,0,392.2,49.435Z" transform="translate(-392.195 -46.279)" fill="#f37c7c" fill-rule="evenodd"/>
    </g>
    <g id="Grupo_54858" data-name="Grupo 54858" transform="translate(2.233 54.936)">
      <path id="Trazado_105718" data-name="Trazado 105718" d="M15.553,406.422h71.7A1.055,1.055,0,0,0,88.3,405.37v-7.326a2.422,2.422,0,0,0-2.414-2.414H83.709a2.422,2.422,0,0,0-2.414,2.414v2.227H21.508v-2.227a2.423,2.423,0,0,0-2.419-2.414H16.915a2.422,2.422,0,0,0-2.414,2.414v7.326a1.053,1.053,0,0,0,1.052,1.052Z" transform="translate(-14.501 -395.63)" fill="#375e7d" fill-rule="evenodd"/>
    </g>
    <g id="Grupo_54859" data-name="Grupo 54859" transform="translate(31.492 28.435)">
      <path id="Trazado_105719" data-name="Trazado 105719" d="M210.824,237.3c1.013,0,1.288.332,1.056,1.284l-1.807,7.435c-.349,1.454.437,1.039,1.235,0l8.465-11.063c.794-1.039.952-1.519-.445-1.519h-5.5c-.974,0-1.091-.162-.873-1.057l1.868-7.666c.506-2.082-.441-1.039-1.235,0l-8.469,11.058c-.794,1.039-.9,1.524.45,1.524Z" transform="translate(-204.53 -223.515)" fill="#ffd772" fill-rule="evenodd"/>
    </g>
    <g id="Grupo_54860" data-name="Grupo 54860" transform="translate(5.214 20.739)">
      <path id="Trazado_105720" data-name="Trazado 105720" d="M33.866,178.43h62.55v33.939h1.262v-2.227a2.422,2.422,0,0,1,2.414-2.414h2.178v-34.2h-68.4Z" transform="translate(-33.866 -173.532)" fill="#e5e4ec" fill-rule="evenodd"/>
    </g>
    <g id="Grupo_54861" data-name="Grupo 54861" transform="translate(70.829 54.935)">
      <path id="Trazado_105721" data-name="Trazado 105721" d="M461.815,401.322v4.047a1.053,1.053,0,0,1-1.052,1.052h3.405a1.055,1.055,0,0,0,1.052-1.052v-7.326a2.422,2.422,0,0,0-2.414-2.414h-2.178a2.37,2.37,0,0,0-.611.079,2.418,2.418,0,0,1,1.8,2.336v3.279Z" transform="translate(-460.017 -395.629)" fill="#2b4d66" fill-rule="evenodd"/>
    </g>
    <g id="Grupo_54862" data-name="Grupo 54862" transform="translate(6.651 7.454)">
      <path id="Trazado_105722" data-name="Trazado 105722" d="M43.195,94.385l34.641,2.6,30.891-2.6V90.819a3.579,3.579,0,0,0-3.567-3.567h-58.4A3.579,3.579,0,0,0,43.2,90.819Z" transform="translate(-43.195 -87.252)" fill="#ffd772" fill-rule="evenodd"/>
    </g>
    <g id="Grupo_54863" data-name="Grupo 54863" transform="translate(61.286 7.454)">
      <path id="Trazado_105723" data-name="Trazado 105723" d="M404.033,94.385h4.9V90.819a3.579,3.579,0,0,0-3.567-3.567h-7.33a3.579,3.579,0,0,1,3.567,3.567v3.567Z" transform="translate(-398.035 -87.252)" fill="#fbba58" fill-rule="evenodd"/>
    </g>
    <g id="Grupo_54864" data-name="Grupo 54864" transform="translate(1.146 14.588)">
      <path id="Trazado_105724" data-name="Trazado 105724" d="M11.51,139.733H80.9a3.085,3.085,0,0,0,2.794-1.786,3.064,3.064,0,0,0,0-2.576,3.089,3.089,0,0,0-2.794-1.79H10.514a3.076,3.076,0,0,0,0,6.151h1Z" transform="translate(-7.441 -133.582)" fill="#375e7d" fill-rule="evenodd"/>
    </g>
    <g id="Grupo_54865" data-name="Grupo 54865" transform="translate(67.284 14.588)">
      <path id="Trazado_105725" data-name="Trazado 105725" d="M436.993,139.733h7.325a3.085,3.085,0,0,0,2.794-1.786,3.064,3.064,0,0,0,0-2.576,3.089,3.089,0,0,0-2.794-1.79h-7.325a3.088,3.088,0,0,1,2.79,1.79,3.064,3.064,0,0,1,0,2.576A3.084,3.084,0,0,1,436.993,139.733Z" transform="translate(-436.993 -133.582)" fill="#2b4d66" fill-rule="evenodd"/>
    </g>
    <g id="Grupo_54866" data-name="Grupo 54866" transform="translate(12.994 1.146)">
      <path id="Trazado_105726" data-name="Trazado 105726" d="M86.509,52.587h3.335V49.435a3.164,3.164,0,0,0-3.156-3.156H85.431a3.165,3.165,0,0,0-1.039.175,3.167,3.167,0,0,1,2.117,2.982Z" transform="translate(-84.392 -46.279)" fill="#75cef8" fill-rule="evenodd"/>
    </g>
    <g id="Grupo_54867" data-name="Grupo 54867" transform="translate(62.504 1.146)">
      <path id="Trazado_105727" data-name="Trazado 105727" d="M408.064,52.587H411.4V49.435a3.166,3.166,0,0,0-3.156-3.156h-1.262a3.121,3.121,0,0,0-1.035.175,3.173,3.173,0,0,1,2.117,2.982Z" transform="translate(-405.947 -46.279)" fill="#e6646e" fill-rule="evenodd"/>
    </g>
    <g id="Grupo_54868" data-name="Grupo 54868" transform="translate(0 0)">
      <path id="Trazado_105728" data-name="Trazado 105728" d="M78.833,56.5a4.228,4.228,0,0,0-4.223-4.224H73.328V49.86A4.719,4.719,0,0,0,69.1,45.172V43.141a4.307,4.307,0,0,0-4.3-4.3H63.538a4.3,4.3,0,0,0-4.3,4.3v2.006h-5.7l-1.135-3.595a2.878,2.878,0,0,0-2.856-2.325H29.282a2.877,2.877,0,0,0-2.856,2.323l-1.139,3.6H19.592V43.141a4.307,4.307,0,0,0-4.3-4.3H14.033a4.307,4.307,0,0,0-4.3,4.3v2.031A4.719,4.719,0,0,0,5.5,49.86v2.421H4.219a4.221,4.221,0,0,0-.15,8.439V92.676a3.565,3.565,0,0,0-2.982,3.512v7.326a2.2,2.2,0,0,0,2.2,2.2h71.7a2.2,2.2,0,0,0,2.2-2.2V96.188a3.565,3.565,0,0,0-2.414-3.37V60.72A4.226,4.226,0,0,0,78.833,56.5Zm-17.3-13.363a2.011,2.011,0,0,1,2.006-2.011H64.8a2.013,2.013,0,0,1,2.011,2.011v2.006H61.532V43.141Zm-32.921-.9c.227-.722.433-.722.671-.722H49.551c.238,0,.444,0,.671.723l.918,2.906H27.69Zm-16.588.9a2.013,2.013,0,0,1,2.011-2.011H15.29A2.013,2.013,0,0,1,17.3,43.141v2.006H12.022ZM7.8,49.86a2.424,2.424,0,0,1,2.421-2.421h58.4a2.424,2.424,0,0,1,2.421,2.421v2.421H7.8ZM74.887,103.42H3.379V96.188A1.27,1.27,0,0,1,4.647,94.92H6.821a1.272,1.272,0,0,1,1.273,1.268v2.227A1.146,1.146,0,0,0,9.24,99.561H37.083a1.146,1.146,0,0,0,0-2.291h-26.7V96.188a3.566,3.566,0,0,0-3.564-3.56H6.36V60.723H37.083a1.146,1.146,0,0,0,0-2.291H4.219a1.93,1.93,0,0,1,0-3.86H74.61a1.93,1.93,0,1,1,0,3.86h-32.2a1.146,1.146,0,0,0,0,2.291H72.473V92.629H71.44a3.564,3.564,0,0,0-3.56,3.56v1.081H42.413a1.146,1.146,0,1,0,0,2.291H69.026a1.146,1.146,0,0,0,1.146-1.146V96.188A1.27,1.27,0,0,1,71.44,94.92h2.178a1.27,1.27,0,0,1,1.268,1.268v7.232Z" transform="translate(0 -38.839)"/>
      <path id="Trazado_105729" data-name="Trazado 105729" d="M215.057,226.878c-.454-.919-1.61-.919-2.045-.919h-5.177l1.781-7.306c.157-.645.483-1.988-.581-2.495-1.108-.528-2.017.664-2.677,1.532l-8.47,11.059c-.426.557-1.139,1.489-.669,2.44a2.119,2.119,0,0,0,2.029.926h5.172l-1.776,7.3c-.273,1.135-.048,1.884.667,2.225a1.329,1.329,0,0,0,.579.135c.94,0,1.723-1.018,2.014-1.4l8.465-11.063c.459-.6,1.152-1.506.689-2.442Zm-9.475,10.153,1.1-4.509a2.231,2.231,0,0,0-.267-1.968,2.3,2.3,0,0,0-1.9-.732h-4.557l6.723-8.778-1.153,4.732a2.082,2.082,0,0,0,.2,1.839,2.12,2.12,0,0,0,1.788.635H212.3Z" transform="translate(-166.722 -188.745)"/>
      <path id="Trazado_105730" data-name="Trazado 105730" d="M377.564,239.078h1.382v1.386a1.146,1.146,0,1,0,2.291,0v-1.386h1.386a1.146,1.146,0,0,0,0-2.291h-1.386V235.4a1.146,1.146,0,0,0-2.291,0v1.386h-1.382a1.146,1.146,0,0,0,0,2.291Z" transform="translate(-318.461 -204.167)"/>
      <path id="Trazado_105731" data-name="Trazado 105731" d="M87.731,250.7H83.37a1.146,1.146,0,1,0,0,2.291h4.361a1.146,1.146,0,0,0,0-2.291Z" transform="translate(-69.564 -218.08)"/>
    </g>
  </g>
</svg>
