<svg xmlns="http://www.w3.org/2000/svg" width="239.434" height="44.609" viewBox="0 0 239.434 44.609"><g transform="translate(-11.376 -6.586)"><g transform="translate(0 4)"><path d="M14.794,22H11.376V7.781h3.418Zm21.563-7.051H27.313V12.41h9.043Zm0,4.287H27.313V16.7h9.043ZM42.636,23.5H52.87v1H42.636Zm10,0H62.87v1H52.636Zm10,0H72.87v1H62.636Zm10,0H82.87v1H72.636Zm27.08-8.555H90.673V12.41h9.043Zm0,4.287H90.673V16.7h9.043Zm7.969,4.268h10.234v1H107.685Zm10,0h10.234v1H117.685Zm10,0h10.234v1H127.685Zm10,0h10.234v1H137.685Zm10,0h10.234v1H147.685Zm10,0h10.234v1H157.685Zm33.75-8.555h-9.043V12.41h9.043Zm0,4.287h-9.043V16.7h9.043Zm17.139-3.047a6.789,6.789,0,0,1-1.294,4.443,5.056,5.056,0,0,1-7.319-.01,6.779,6.779,0,0,1-1.3-4.434v-2.6a6.789,6.789,0,0,1,1.294-4.443,5.056,5.056,0,0,1,7.319.01,6.8,6.8,0,0,1,1.3,4.443Zm-3.291-3.018a5.071,5.071,0,0,0-.4-2.29,1.338,1.338,0,0,0-1.27-.757,1.307,1.307,0,0,0-1.235.7,4.777,4.777,0,0,0-.415,2.129V16.59a5.11,5.11,0,0,0,.4,2.329,1.343,1.343,0,0,0,1.27.737,1.325,1.325,0,0,0,1.24-.718,4.878,4.878,0,0,0,.41-2.251Zm7.09,5.635a1.874,1.874,0,0,1,1.3.464,1.619,1.619,0,0,1,0,2.373,2.049,2.049,0,0,1-2.6,0,1.618,1.618,0,0,1,0-2.363A1.858,1.858,0,0,1,212.372,18.807Zm13.545-7.227a3.283,3.283,0,0,1-.513,1.826,3.734,3.734,0,0,1-1.411,1.27,4.109,4.109,0,0,1,1.611,1.362,3.515,3.515,0,0,1,.6,2.046,3.721,3.721,0,0,1-1.313,3.008,5.454,5.454,0,0,1-3.618,1.1,5.554,5.554,0,0,1-3.652-1.108,3.7,3.7,0,0,1-1.338-3,3.56,3.56,0,0,1,.586-2.021,3.984,3.984,0,0,1,1.66-1.387,3.755,3.755,0,0,1-1.426-1.27,3.26,3.26,0,0,1-.518-1.826,3.648,3.648,0,0,1,1.26-2.93,5.944,5.944,0,0,1,6.816,0A3.648,3.648,0,0,1,225.917,11.58ZM222.9,17.82a1.877,1.877,0,0,0-.454-1.353,1.581,1.581,0,0,0-1.2-.474,1.6,1.6,0,0,0-1.2.474,1.865,1.865,0,0,0-.459,1.353,1.881,1.881,0,0,0,.464,1.343,1.592,1.592,0,0,0,1.216.493,1.53,1.53,0,0,0,1.182-.488A1.915,1.915,0,0,0,222.9,17.82Zm-1.66-7.705a1.216,1.216,0,0,0-1.011.435,1.886,1.886,0,0,0-.347,1.206,2,2,0,0,0,.352,1.23,1.213,1.213,0,0,0,1.035.469,1.163,1.163,0,0,0,1.011-.469,2.062,2.062,0,0,0,.337-1.23,1.89,1.89,0,0,0-.347-1.2A1.233,1.233,0,0,0,221.239,10.115ZM236.6,16.443h1.445v2.539H236.6V22H233.31V18.982h-5.5l-.2-2.012,5.693-9.16V7.781H236.6Zm-5.85,0h2.559V12.068l-.205.332Zm16.24,2.9H242.45L241.19,22h-3.682l7.529-14.219h3.145L250.81,22h-3.477ZM243.7,16.7h2.949l-.625-4.9Z" fill="#12263f"/></g><path d="M16.4,15.7l1.631-8.916h3.4L18.41,21H14.855l-1.9-8.105L11.086,21H7.541L4.514,6.781H7.922L9.553,15.7l1.953-8.916h2.91ZM12.985,47.133l2.832-10.352h3.828L14.86,51H11.11L6.364,36.781h3.8Z" transform="translate(44)" fill="#12263f"/><path d="M15.6,21H12.3V10.492l-3.242.947v-2.5L15.3,6.781h.3Zm14.16-5.811a6.789,6.789,0,0,1-1.294,4.443A4.471,4.471,0,0,1,24.818,21.2a4.5,4.5,0,0,1-3.672-1.572,6.779,6.779,0,0,1-1.3-4.434v-2.6a6.789,6.789,0,0,1,1.294-4.443A4.483,4.483,0,0,1,24.8,6.586a4.484,4.484,0,0,1,3.662,1.572,6.8,6.8,0,0,1,1.3,4.443Zm-3.291-3.018a5.071,5.071,0,0,0-.4-2.29,1.338,1.338,0,0,0-1.27-.757,1.307,1.307,0,0,0-1.235.7,4.777,4.777,0,0,0-.415,2.129V15.59a5.109,5.109,0,0,0,.4,2.329,1.343,1.343,0,0,0,1.27.737,1.325,1.325,0,0,0,1.24-.718,4.878,4.878,0,0,0,.41-2.251Zm14.873,3.018a6.789,6.789,0,0,1-1.294,4.443A4.471,4.471,0,0,1,36.4,21.2a4.5,4.5,0,0,1-3.672-1.572,6.779,6.779,0,0,1-1.3-4.434v-2.6a6.789,6.789,0,0,1,1.294-4.443,4.483,4.483,0,0,1,3.657-1.562,4.484,4.484,0,0,1,3.662,1.572,6.8,6.8,0,0,1,1.3,4.443Zm-3.291-3.018a5.071,5.071,0,0,0-.4-2.29,1.338,1.338,0,0,0-1.27-.757,1.307,1.307,0,0,0-1.235.7,4.777,4.777,0,0,0-.415,2.129V15.59a5.11,5.11,0,0,0,.4,2.329,1.343,1.343,0,0,0,1.27.737,1.325,1.325,0,0,0,1.24-.718,4.878,4.878,0,0,0,.41-2.251ZM54.271,15.7,55.9,6.781h3.4L56.283,21H52.729l-1.9-8.105L48.959,21H45.414L42.387,6.781h3.408L47.426,15.7l1.953-8.916h2.91ZM17.685,51h-3.3V40.492l-3.242.947v-2.5l6.24-2.158h.3Zm14.209,0H21.972V48.852l4.57-4.8q1.689-1.924,1.689-3.057a2.126,2.126,0,0,0-.4-1.4,1.43,1.43,0,0,0-1.162-.479,1.447,1.447,0,0,0-1.221.64,2.629,2.629,0,0,0-.469,1.6h-3.3a4.67,4.67,0,0,1,.654-2.417A4.588,4.588,0,0,1,24.149,37.2a5.4,5.4,0,0,1,2.6-.625,5.308,5.308,0,0,1,3.55,1.064A3.8,3.8,0,0,1,31.542,40.7a4.439,4.439,0,0,1-.312,1.636A7.173,7.173,0,0,1,30.258,44a24.476,24.476,0,0,1-2.124,2.339L26.3,48.461h5.6Zm1.855-6.953.869-7.266h8.311V39.34H37.294l-.322,2.822a3.892,3.892,0,0,1,.923-.361,4.228,4.228,0,0,1,1.118-.156A4.171,4.171,0,0,1,42.27,42.9a5.718,5.718,0,0,1,.527,6,4.2,4.2,0,0,1-1.714,1.7,5.411,5.411,0,0,1-2.607.6,5.818,5.818,0,0,1-2.51-.552A4.5,4.5,0,0,1,34.13,49.13a3.68,3.68,0,0,1-.654-2.173h3.3a1.873,1.873,0,0,0,.5,1.24,1.579,1.579,0,0,0,1.182.459q1.66,0,1.66-2.461,0-2.275-2.031-2.275a2.025,2.025,0,0,0-1.719.742Zm17.109,3.086L53.69,36.781h3.828L52.733,51h-3.75L44.237,36.781h3.8Z" transform="translate(100)" fill="#12263f"/></g></svg>