<svg xmlns="http://www.w3.org/2000/svg" width="329" height="137" viewBox="0 0 329 137">
  <g id="Grupo_55349" data-name="Grupo 55349" transform="translate(9733 4813)">
    <g id="Grupo_55337" data-name="Grupo 55337" transform="translate(-9733 -4813)">
      <rect id="Rectángulo_5237" data-name="Rectángulo 5237" width="329" height="137" rx="7" fill="#fff"/>
    </g>
    <g id="Grupo_55347" data-name="Grupo 55347" transform="translate(13 7)">
      <g id="Grupo_55345" data-name="Grupo 55345" transform="translate(0 -1)">
        <rect id="Rectángulo_5282" data-name="Rectángulo 5282" width="29" height="5" rx="2" transform="translate(-9701.734 -4789.144)" fill="#ad84ff"/>
        <rect id="Rectángulo_5283" data-name="Rectángulo 5283" width="24" height="5" rx="2" transform="translate(-9696.734 -4789.144) rotate(90)" fill="#ad84ff"/>
      </g>
      <g id="Grupo_55344" data-name="Grupo 55344">
        <rect id="Rectángulo_5289" data-name="Rectángulo 5289" width="237.734" height="5" rx="2" transform="translate(-9701.734 -4712.144)" fill="#fbdd1b"/>
        <rect id="Rectángulo_5290" data-name="Rectángulo 5290" width="15.824" height="5" rx="2" transform="translate(-9696.734 -4722.968) rotate(90)" fill="#fbdd1b"/>
        <rect id="Rectángulo_5291" data-name="Rectángulo 5291" width="15.824" height="5" rx="2" transform="translate(-9609 -4722.968) rotate(90)" fill="#fbdd1b"/>
        <rect id="Rectángulo_5292" data-name="Rectángulo 5292" width="15.824" height="5" rx="2" transform="translate(-9537 -4722.968) rotate(90)" fill="#fbdd1b"/>
        <rect id="Rectángulo_5293" data-name="Rectángulo 5293" width="15.824" height="5" rx="2" transform="translate(-9464 -4722.968) rotate(90)" fill="#fbdd1b"/>
      </g>
      <g id="Grupo_55343" data-name="Grupo 55343" transform="translate(0 -1)">
        <rect id="Rectángulo_5284" data-name="Rectángulo 5284" width="23" height="5" rx="2" transform="translate(-9623 -4789.144)" fill="#ff92c8"/>
        <rect id="Rectángulo_5285" data-name="Rectángulo 5285" width="12" height="5" rx="2" transform="translate(-9609 -4789.144) rotate(90)" fill="#ff92c8"/>
      </g>
      <g id="Grupo_55342" data-name="Grupo 55342" transform="translate(0 -1)">
        <rect id="Rectángulo_5286" data-name="Rectángulo 5286" width="84" height="5" rx="2" transform="translate(-9548 -4789.144)" fill="#42e982"/>
        <rect id="Rectángulo_5287" data-name="Rectángulo 5287" width="12" height="5" rx="2" transform="translate(-9537 -4789.144) rotate(90)" fill="#42e982"/>
        <rect id="Rectángulo_5288" data-name="Rectángulo 5288" width="12" height="5" rx="2" transform="translate(-9464 -4789.144) rotate(90)" fill="#42e982"/>
      </g>
      <g id="Grupo_55346" data-name="Grupo 55346" transform="translate(-9712.438 -4794.938)">
        <g id="Grupo_54892" data-name="Grupo 54892" transform="translate(13 6.875)">
          <path id="Trazado_105757" data-name="Trazado 105757" d="M-8289.667-4445v17.667" transform="translate(8378 4445)" fill="none" stroke="#585858" stroke-width="1"/>
          <path id="Trazado_105760" data-name="Trazado 105760" d="M-8289.667-4445v17.667" transform="translate(8450 4445)" fill="none" stroke="#585858" stroke-width="1"/>
          <path id="Trazado_105758" data-name="Trazado 105758" d="M-8289.667-4383.333v17" transform="translate(8378 4445)" fill="none" stroke="#585858" stroke-width="1"/>
          <path id="Trazado_105759" data-name="Trazado 105759" d="M-8289.667-4383.333v17" transform="translate(8450 4445)" fill="none" stroke="#585858" stroke-width="1"/>
          <path id="Trazado_105761" data-name="Trazado 105761" d="M-8145-4427.333v-17.333h-87" transform="translate(8378 4445)" fill="none" stroke="#585858" stroke-linejoin="round" stroke-width="1"/>
          <path id="Trazado_105762" data-name="Trazado 105762" d="M-8275-4444.667h-30.667" transform="translate(8378 4445)" fill="none" stroke="#585858" stroke-width="1"/>
          <path id="Trazado_105763" data-name="Trazado 105763" d="M-8145-4383.333v17h-233v-30.333" transform="translate(8378 4445)" fill="none" stroke="#585858" stroke-linejoin="round" stroke-width="1"/>
          <path id="Trazado_105764" data-name="Trazado 105764" d="M-8378-4412.333V-4445h31" transform="translate(8378 4446)" fill="none" stroke="#585858" stroke-linejoin="round" stroke-width="1"/>
        </g>
        <path id="Trazado_105765" data-name="Trazado 105765" d="M-8290.143-4428.143l7.893,4.893-15.75,7.75,15.75,7-15.75,7.25,15.75,7.25-15.75,7.5,8.857,4.214" transform="translate(8391 4451.875)" fill="none" stroke="#636363" stroke-linecap="round" stroke-linejoin="round" stroke-width="2"/>
        <path id="Trazado_105766" data-name="Trazado 105766" d="M-8290.143-4428.143l7.893,4.893-15.75,7.75,15.75,7-15.75,7.25,15.75,7.25-15.75,7.5,8.857,4.214" transform="translate(8463 4451.875)" fill="none" stroke="#636363" stroke-linecap="round" stroke-linejoin="round" stroke-width="2"/>
        <path id="Trazado_105767" data-name="Trazado 105767" d="M-8290.143-4428.143l7.893,4.893-15.75,7.75,15.75,7-15.75,7.25,15.75,7.25-15.75,7.5,8.857,4.214" transform="translate(8536.125 4451.875)" fill="none" stroke="#636363" stroke-linecap="round" stroke-linejoin="round" stroke-width="2"/>
        <path id="Trazado_105768" data-name="Trazado 105768" d="M7.857,0,15.75,4.723,0,12.2l15.75,6.756L0,25.957l15.75,7L0,40.194l8.857,4.068" transform="translate(115.667 15.75) rotate(-90)" fill="none" stroke="#636363" stroke-linecap="round" stroke-linejoin="round" stroke-width="2"/>
        <path id="Trazado_105769" data-name="Trazado 105769" d="M7.857,0,15.75,4.509,0,11.652,15.75,18.1,0,24.784l15.75,6.682L0,38.378l8.857,3.884" transform="translate(43.667 15.75) rotate(-90)" fill="none" stroke="#636363" stroke-linecap="round" stroke-linejoin="round" stroke-width="2"/>
        <circle id="Elipse_4073" data-name="Elipse 4073" cx="3" cy="3" r="3" transform="translate(98 3.875)" fill="#707070"/>
        <g id="Elipse_4077" data-name="Elipse 4077" transform="translate(0 33.875)" fill="#fff" stroke="#707070" stroke-width="2">
          <circle cx="13" cy="13" r="13" stroke="none"/>
          <circle cx="13" cy="13" r="12" fill="none"/>
        </g>
        <circle id="Elipse_4076" data-name="Elipse 4076" cx="3" cy="3" r="3" transform="translate(98 82.875)" fill="#707070"/>
        <circle id="Elipse_4074" data-name="Elipse 4074" cx="3" cy="3" r="3" transform="translate(170 3.875)" fill="#707070"/>
        <circle id="Elipse_4075" data-name="Elipse 4075" cx="3" cy="3" r="3" transform="translate(170 82.875)" fill="#707070"/>
        <g id="Grupo_55341" data-name="Grupo 55341" transform="translate(0 0.333)">
          <text id="_" data-name="+" transform="translate(4.5 33.875)" fill="#12263f" font-size="14" font-family="Roboto-Regular, Roboto"><tspan x="-3.968" y="15">+</tspan></text>
          <text id="_-" data-name="-" transform="translate(4.5 42.875)" fill="#12263f" font-size="14" font-family="Roboto-Regular, Roboto"><tspan x="-1.931" y="15">-</tspan></text>
        </g>
      </g>
      <text id="R1" transform="translate(-9657 -4813)" fill="#12263f" font-size="13" font-family="Roboto-Bold, Roboto" font-weight="700"><tspan x="0" y="14">R1</tspan></text>
      <text id="R2" transform="translate(-9583 -4813)" fill="#12263f" font-size="13" font-family="Roboto-Bold, Roboto" font-weight="700"><tspan x="0" y="14">R2</tspan></text>
      <text id="R3" transform="translate(-9595 -4758)" fill="#12263f" font-size="13" font-family="Roboto-Bold, Roboto" font-weight="700"><tspan x="0" y="14">R3</tspan></text>
      <text id="R4" transform="translate(-9526 -4758)" fill="#12263f" font-size="13" font-family="Roboto-Bold, Roboto" font-weight="700"><tspan x="0" y="14">R4</tspan></text>
      <text id="R5" transform="translate(-9449 -4758)" fill="#12263f" font-size="13" font-family="Roboto-Bold, Roboto" font-weight="700"><tspan x="0" y="14">R5</tspan></text>
      <text id="V0" transform="translate(-9733 -4758)" fill="#12263f" font-size="13" font-family="Roboto-Bold, Roboto" font-weight="700"><tspan x="0" y="14">V0</tspan></text>
      <text id="_2" data-name="2" transform="translate(-9693 -4806)" fill="#ad84ff" font-size="11" font-family="Roboto-Regular, Roboto"><tspan x="-3.088" y="12">2</tspan></text>
      <text id="_4" data-name="4" transform="translate(-9511 -4806)" fill="#3fdf8c" font-size="11" font-family="Roboto-Regular, Roboto"><tspan x="-3.088" y="12">4</tspan></text>
      <text id="_3" data-name="3" transform="translate(-9616 -4806)" fill="#ff92c8" font-size="11" font-family="Roboto-Regular, Roboto"><tspan x="-3.088" y="12">3</tspan></text>
      <text id="_1" data-name="1" transform="translate(-9585 -4703)" fill="#fbdd1b" font-size="11" font-family="Roboto-Regular, Roboto"><tspan x="-3.088" y="12">1</tspan></text>
    </g>
  </g>
</svg>
