<svg xmlns="http://www.w3.org/2000/svg" width="83" height="83" viewBox="0 0 83 83">
  <g id="Electric_Plug" data-name="Electric Plug" transform="translate(-2 -2)">
    <path id="Trazado_105733" data-name="Trazado 105733" d="M70.967,17.767V28.833A13.833,13.833,0,0,1,57.133,42.667h-8.3A13.833,13.833,0,0,1,35,28.833V17.767A2.775,2.775,0,0,1,37.767,15H68.2A2.775,2.775,0,0,1,70.967,17.767Z" transform="translate(12.65 4.983)" fill="#f39e1d"/>
    <path id="Trazado_105734" data-name="Trazado 105734" d="M70.5,17.767V28.833A13.833,13.833,0,0,1,56.666,42.667h-8.3A13.811,13.811,0,0,1,36.22,35.446a13.7,13.7,0,0,0,6.612,1.688h8.3A13.833,13.833,0,0,0,64.966,23.3V15h2.767A2.775,2.775,0,0,1,70.5,17.767Z" transform="translate(13.118 4.983)" fill="#ea5c23"/>
    <g id="Grupo_54872" data-name="Grupo 54872" transform="translate(53.183 3.383)">
      <path id="Trazado_105735" data-name="Trazado 105735" d="M59.3,19.6v4.15H51V7.15a4.15,4.15,0,1,1,8.3,0Z" transform="translate(-34.4 -3)" fill="#46f8ff"/>
      <path id="Trazado_105736" data-name="Trazado 105736" d="M53.3,36.533v4.15a4.15,4.15,0,0,1-8.3,0V35.15a4.15,4.15,0,0,1,8.3,0Z" transform="translate(-36.7 7.733)" fill="#46f8ff"/>
      <path id="Trazado_105737" data-name="Trazado 105737" d="M47.3,19.6v4.15H39V7.15a4.15,4.15,0,1,1,8.3,0Z" transform="translate(-39 -3)" fill="#46f8ff"/>
    </g>
    <rect id="Rectángulo_5206" data-name="Rectángulo 5206" width="34" height="42" rx="2" transform="translate(3 3)" fill="#57a4ff"/>
    <path id="Trazado_105738" data-name="Trazado 105738" d="M36.2,5.767V41.733A2.775,2.775,0,0,1,33.433,44.5H5.767A2.775,2.775,0,0,1,3,41.733V38.967H27.9A2.775,2.775,0,0,0,30.667,36.2V3h2.767A2.775,2.775,0,0,1,36.2,5.767Z" transform="translate(0.383 0.383)" fill="#2488ff"/>
    <path id="Trazado_105739" data-name="Trazado 105739" d="M25.6,19.067l-8.3,16.6V24.6H9L17.3,8V19.067Z" transform="translate(2.683 2.3)" fill="#ffe926"/>
    <path id="Trazado_105740" data-name="Trazado 105740" d="M53.183,72.55h9.683a4.162,4.162,0,0,0,4.15-4.15V57.14a5.533,5.533,0,0,0,4.15-5.34V48.964A15.232,15.232,0,0,0,85,33.817V22.75a4.162,4.162,0,0,0-4.15-4.15H79.467V7.533a5.533,5.533,0,1,0-11.067,0V18.6H62.867V7.533a5.533,5.533,0,1,0-11.067,0V18.6H50.417a4.162,4.162,0,0,0-4.15,4.15V33.817A15.232,15.232,0,0,0,60.1,48.964V51.8a5.533,5.533,0,0,0,4.15,5.34V68.4a1.383,1.383,0,0,1-1.383,1.383H53.183a4.143,4.143,0,0,0-4.012,5.174,4.223,4.223,0,0,0,4.164,3.126H80.85a1.383,1.383,0,0,1,1.383,1.383V80.85a1.383,1.383,0,0,1-1.383,1.383H31.05a9.694,9.694,0,0,1-9.683-9.683V46.267h12.45a4.162,4.162,0,0,0,4.15-4.15V6.15A4.162,4.162,0,0,0,33.817,2H6.15A4.162,4.162,0,0,0,2,6.15V42.117a4.162,4.162,0,0,0,4.15,4.15H18.6V72.55A12.469,12.469,0,0,0,31.05,85h49.8A4.162,4.162,0,0,0,85,80.85V79.467a4.162,4.162,0,0,0-4.15-4.15H53.335a1.522,1.522,0,0,1-1.494-1.037,1.331,1.331,0,0,1,.387-1.328,1.284,1.284,0,0,1,.954-.4ZM71.167,7.533a2.767,2.767,0,1,1,5.533,0V22.75H71.167Zm-16.6,0a2.767,2.767,0,0,1,5.533,0V22.75H54.567Zm5.547,38.65A12.45,12.45,0,0,1,49.033,33.817V22.75a1.383,1.383,0,0,1,1.383-1.383H51.8v2.767a1.383,1.383,0,0,0,1.383,1.383h8.3a1.383,1.383,0,0,0,1.383-1.383V21.367H68.4v2.767a1.383,1.383,0,0,0,1.383,1.383h8.3a1.383,1.383,0,0,0,1.383-1.383V21.367H80.85a1.383,1.383,0,0,1,1.383,1.383V33.817a12.45,12.45,0,0,1-11.08,12.367,5.52,5.52,0,0,0-11.039,0ZM62.867,51.8V46.267a2.767,2.767,0,0,1,5.533,0V51.8a2.767,2.767,0,0,1-5.533,0ZM6.15,43.5a1.383,1.383,0,0,1-1.383-1.383V6.15A1.383,1.383,0,0,1,6.15,4.767H33.817A1.383,1.383,0,0,1,35.2,6.15V42.117A1.383,1.383,0,0,1,33.817,43.5Z" transform="translate(0)"/>
    <path id="Trazado_105741" data-name="Trazado 105741" d="M47,35h2.767v2.767H47Z" transform="translate(17.25 12.65)"/>
    <path id="Trazado_105742" data-name="Trazado 105742" d="M27.158,18.717a1.383,1.383,0,0,0-1.176-.65H19.066V8.383A1.383,1.383,0,0,0,18,7.041a1.361,1.361,0,0,0-1.549.719l-8.3,16.6a1.383,1.383,0,0,0,1.231,2.006H16.3V36.05a1.383,1.383,0,0,0,1.065,1.342,1.256,1.256,0,0,0,.318.041,1.383,1.383,0,0,0,1.231-.761l8.3-16.6a1.393,1.393,0,0,0-.055-1.356ZM19.066,30.184v-5.2A1.383,1.383,0,0,0,17.682,23.6H11.623L16.3,14.248v5.2a1.383,1.383,0,0,0,1.383,1.383h6.059Z" transform="translate(2.301 1.917)"/>
  </g>
</svg>
