<?xml version="1.0" encoding="utf-8"?>
<!-- Generator: Adobe Illustrator 25.3.1, SVG Export Plug-In . SVG Version: 6.00 Build 0)  -->
<svg version="1.1" id="Capa_1" xmlns="http://www.w3.org/2000/svg" xmlns:xlink="http://www.w3.org/1999/xlink" x="0px" y="0px"
	 viewBox="0 0 295 167" style="enable-background:new 0 0 295 167;" xml:space="preserve">
<style type="text/css">
	.st0{fill:#12263F;}
	.st1{font-family:'Roboto-Bold';}
	.st2{font-size:18px;}
	.st3{fill:#3D3D3D;}
	.st4{fill:none;stroke:#3D3D3D;stroke-width:2;}
	.st5{fill:#707070;}
	.st6{fill:none;stroke:#707070;stroke-width:2;}
	.st7{font-family:'Roboto-Medium';}
	.st8{fill:none;}
	.st9{fill:none;stroke:#E9E9E9;stroke-width:3;}
</style>
<g id="Grupo_55472" transform="translate(-1020 -11123)">
	<g id="Grupo_54946" transform="translate(1070 11154)">
		<text transform="matrix(1 0 0 -1 18.229 76.9434)" class="st0 st1 st2">I</text>
		<text transform="matrix(1 0 0 1 156.999 32.944)" class="st0 st1 st2">V</text>
		<g id="Grupo_54943" transform="translate(13.89 85.944) rotate(90)">
			
				<rect id="Rectángulo_5261" x="-1" y="3.4" transform="matrix(2.535182e-06 1 -1 2.535182e-06 10.444 3.444)" class="st3" width="9" height="7"/>
			<path id="Polígono_1" class="st3" d="M16,6.9L4.6,13.9V0L16,6.9z"/>
		</g>
		<g id="Grupo_54944" transform="translate(179.945 0)">
			<rect id="Rectángulo_5261-2" x="0" y="2.4" class="st3" width="7" height="9"/>
			<path id="Polígono_1-2" class="st3" d="M16,6.9L4.6,13.9V0L16,6.9z"/>
		</g>
		<path id="Trazado_105795" class="st4" d="M6.9,93.9v-87h178"/>
		<path id="Trazado_105797" class="st5" d="M18.3,48.2l1.2,1.1l-0.1,0.1l-3.3-0.3l-3.3,0.2l2.9-1.6l2.7-2.1l0.1,0L18,47.2L18.3,48.2
			z"/>
		<path id="Trazado_105798" class="st5" d="M48.3,16.1l-1.6,0.5l0-0.1l2-2.7l1.5-3l-0.2,3.3l0.4,3.3l0,0.1l-1.1-1.2L48.3,16.1z"/>
		<path id="Trazado_105799" class="st6" d="M18.1,47.9c0,0,25.7-5.4,30.5-32.1"/>
		<text transform="matrix(1 0 0 1 46.296 50.944)" class="st0 st7 st2">90°</text>
		<ellipse id="Elipse_4082" class="st3" cx="6.9" cy="6.9" rx="3" ry="3"/>
	</g>
	<g id="Rectángulo_5263" transform="translate(1020 11123)">
		<path class="st8" d="M7,0h281c3.9,0,7,3.1,7,7v153c0,3.9-3.1,7-7,7H7c-3.9,0-7-3.1-7-7V7C0,3.1,3.1,0,7,0z"/>
		<path class="st9" d="M7,1.5h281c3,0,5.5,2.5,5.5,5.5v153c0,3-2.5,5.5-5.5,5.5H7c-3,0-5.5-2.5-5.5-5.5V7C1.5,4,4,1.5,7,1.5z"/>
	</g>
</g>
</svg>
