<svg xmlns="http://www.w3.org/2000/svg" width="363" height="260" viewBox="0 0 363 260"><g transform="translate(5127 -770)"><rect width="363" height="260" transform="translate(-5127 770)" fill="#fff"/><g transform="translate(-5087.924 1031.127)"><path d="M153.363-199.824a12.368,12.368,0,0,0,2.9-8.074,11.217,11.217,0,0,0-1.159-5.036l.051-.025c-3.531-7.062-10.369-9.871-12.9-10.7v-10.461a5.616,5.616,0,0,0,4.36-5.464,5.617,5.617,0,0,0-5.61-5.61,5.616,5.616,0,0,0-5.61,5.61,5.617,5.617,0,0,0,4.36,5.465l0,12.376.952.234a21.068,21.068,0,0,1,10.985,7.642l-.22.221A8.273,8.273,0,0,1,153.9-207.9a9.29,9.29,0,0,1-2.432,6.269c-4.181-3.35-10.332-4.92-15.283-4.92a15.866,15.866,0,0,0-6.977,1.362,5.617,5.617,0,0,0-3.451,5.144,6.3,6.3,0,0,0,3.539,5.652,15.3,15.3,0,0,0,7.261,1.555c4.79,0,10.72-1.606,14.818-5.017a1.473,1.473,0,0,0,.279.495,8.225,8.225,0,0,1,2.236,5.386,9.222,9.222,0,0,1-2.281,5.875,1.494,1.494,0,0,0-.267.505c-4.178-3.285-10.253-4.832-15.157-4.832a15.866,15.866,0,0,0-6.977,1.362,5.62,5.62,0,0,0-3.451,5.145,6.3,6.3,0,0,0,3.539,5.652,15.315,15.315,0,0,0,7.261,1.555c4.829,0,10.822-1.627,14.924-5.1a8.269,8.269,0,0,1,2.419,5.744,9.292,9.292,0,0,1-2.432,6.269c-4.181-3.35-10.332-4.921-15.283-4.921a15.866,15.866,0,0,0-6.977,1.362,5.62,5.62,0,0,0-3.451,5.145,6.3,6.3,0,0,0,3.539,5.652A15.3,15.3,0,0,0,136.557-161c4.829,0,10.822-1.628,14.924-5.1a8.273,8.273,0,0,1,2.419,5.744,9.29,9.29,0,0,1-2.432,6.269c-4.181-3.349-10.332-4.92-15.283-4.92a15.866,15.866,0,0,0-6.977,1.362,5.62,5.62,0,0,0-3.451,5.145,6.3,6.3,0,0,0,3.539,5.652,15.315,15.315,0,0,0,7.261,1.555c4.829,0,10.822-1.628,14.924-5.1a8.273,8.273,0,0,1,2.419,5.744,9.288,9.288,0,0,1-2.432,6.268c-4.181-3.349-10.332-4.92-15.283-4.92a15.866,15.866,0,0,0-6.977,1.362,5.619,5.619,0,0,0-3.451,5.144,6.3,6.3,0,0,0,3.539,5.653,15.315,15.315,0,0,0,7.261,1.555c4.829,0,10.822-1.628,14.924-5.1a8.269,8.269,0,0,1,2.419,5.744,9.012,9.012,0,0,1-1.016,4.186c-.111.219-.235.42-.353.629a10.408,10.408,0,0,1-.922,1.276,1.53,1.53,0,0,0-.286.6,21.176,21.176,0,0,1-10.6,7.093l-.956.231v13.944h2.5V-113a22.978,22.978,0,0,0,11.636-8.556A12.768,12.768,0,0,0,155-123.4c.053-.1.11-.191.161-.293l-.018-.009a12.521,12.521,0,0,0,1.126-5.227,11.342,11.342,0,0,0-2.9-7.636,12.37,12.37,0,0,0,2.9-8.074,11.34,11.34,0,0,0-2.9-7.636,12.369,12.369,0,0,0,2.9-8.075,11.342,11.342,0,0,0-2.9-7.636,12.368,12.368,0,0,0,2.9-8.074,11.34,11.34,0,0,0-2.9-7.636,12.368,12.368,0,0,0,2.9-8.074c0-.068-.008-.134-.009-.2s.009-.142.009-.214A11.342,11.342,0,0,0,153.363-199.824ZM138.4-239.58a2.613,2.613,0,0,1,2.61-2.61,2.613,2.613,0,0,1,2.61,2.61,2.613,2.613,0,0,1-2.61,2.61A2.613,2.613,0,0,1,138.4-239.58Zm-1.845,43.793a13.57,13.57,0,0,1-6.31-1.306,3.408,3.408,0,0,1-2.123-2.95c0-1.175,1.069-1.957,1.966-2.407a14.157,14.157,0,0,1,6.1-1.149,24.53,24.53,0,0,1,13.187,3.867A22.975,22.975,0,0,1,136.557-195.787Zm0,16.126a13.58,13.58,0,0,1-6.31-1.306,3.408,3.408,0,0,1-2.123-2.95c0-1.175,1.069-1.957,1.966-2.406a14.144,14.144,0,0,1,6.1-1.15,24.53,24.53,0,0,1,13.187,3.867A22.982,22.982,0,0,1,136.557-179.661Zm0,15.711a13.583,13.583,0,0,1-6.31-1.306,3.41,3.41,0,0,1-2.123-2.951c0-1.175,1.069-1.957,1.966-2.406a14.142,14.142,0,0,1,6.1-1.15,24.53,24.53,0,0,1,13.187,3.867A22.976,22.976,0,0,1,136.557-163.95Zm0,15.71a13.566,13.566,0,0,1-6.31-1.307,3.406,3.406,0,0,1-2.123-2.949c0-1.176,1.069-1.958,1.966-2.407a14.16,14.16,0,0,1,6.1-1.149,24.521,24.521,0,0,1,13.187,3.867A22.982,22.982,0,0,1,136.557-148.24Zm0,15.71a13.583,13.583,0,0,1-6.31-1.306,3.409,3.409,0,0,1-2.123-2.951c0-1.175,1.069-1.957,1.966-2.406a14.157,14.157,0,0,1,6.1-1.149,24.53,24.53,0,0,1,13.187,3.867A22.982,22.982,0,0,1,136.557-132.53Z" fill="red"/><path d="M230.915-65c-.064-.034-.13-.06-.193-.093s-.114-.071-.174-.1a12.368,12.368,0,0,0-8.49-1.245,11.34,11.34,0,0,0-5.365-6.161,12.37,12.37,0,0,0-8.49-1.245,11.336,11.336,0,0,0-5.366-6.16,12.361,12.361,0,0,0-8.489-1.246,11.34,11.34,0,0,0-5.366-6.16,12.366,12.366,0,0,0-8.489-1.245,11.342,11.342,0,0,0-5.366-6.161,12.522,12.522,0,0,0-5.141-1.47v-.021c-.113,0-.221.005-.334,0a12.921,12.921,0,0,0-2.147.1,22.98,22.98,0,0,0-13.031,6.229l-10.6-5.669-1.179,2.205,12.3,6.574.654-.735A21.167,21.167,0,0,1,166.9-93.616a1.5,1.5,0,0,0,.662.029,10.436,10.436,0,0,1,1.56-.211c.239-.006.475-.02.72-.015a9.016,9.016,0,0,1,4.171,1.077,8.275,8.275,0,0,1,3.926,4.841c-4.993,1.982-9.253,6.5-11.53,10.76A15.314,15.314,0,0,0,164.356-70a6.3,6.3,0,0,0,3.317,5.785,5.617,5.617,0,0,0,6.163-.618,15.866,15.866,0,0,0,4.49-5.511c2.334-4.367,3.849-10.532,2.865-15.8a9.284,9.284,0,0,1,6.675.81,8.272,8.272,0,0,1,3.926,4.841c-4.993,1.982-9.253,6.5-11.529,10.76a15.316,15.316,0,0,0-2.052,7.136,6.3,6.3,0,0,0,3.317,5.785,5.618,5.618,0,0,0,6.164-.617,15.881,15.881,0,0,0,4.49-5.512c2.334-4.366,3.848-10.531,2.864-15.8a9.286,9.286,0,0,1,6.676.81,8.267,8.267,0,0,1,3.925,4.841c-4.992,1.982-9.253,6.5-11.529,10.759a15.3,15.3,0,0,0-2.051,7.137,6.3,6.3,0,0,0,3.316,5.785,5.619,5.619,0,0,0,6.164-.618,15.866,15.866,0,0,0,4.49-5.511c2.334-4.366,3.848-10.531,2.865-15.8a9.294,9.294,0,0,1,6.675.81,8.275,8.275,0,0,1,3.926,4.841c-4.993,1.982-9.253,6.5-11.53,10.76a15.314,15.314,0,0,0-2.051,7.137A6.3,6.3,0,0,0,209.239-42a5.617,5.617,0,0,0,6.163-.618,15.866,15.866,0,0,0,4.49-5.511c2.312-4.326,3.812-10.413,2.885-15.646a1.483,1.483,0,0,0,.571,0,9.218,9.218,0,0,1,6.256.758,8.224,8.224,0,0,1,3.7,4.51,1.472,1.472,0,0,0,.3.48c-4.94,2.007-9.152,6.479-11.41,10.7a15.309,15.309,0,0,0-2.051,7.138,6.3,6.3,0,0,0,3.317,5.784,5.615,5.615,0,0,0,6.163-.618,15.856,15.856,0,0,0,4.49-5.511c2.334-4.366,3.849-10.531,2.865-15.8a9.284,9.284,0,0,1,6.675.81,8.27,8.27,0,0,1,3.926,4.84l.3-.089a21.068,21.068,0,0,1,1.561,13.29l-.243.95,10.914,5.836a5.617,5.617,0,0,0,2.765,6.421,5.615,5.615,0,0,0,7.591-2.3,5.616,5.616,0,0,0-2.3-7.592,5.617,5.617,0,0,0-6.874,1.269l-9.225-4.931c.463-2.618,1.209-9.973-3.354-16.416l-.047.033a11.222,11.222,0,0,0-3.894-3.4,12.369,12.369,0,0,0-8.49-1.245A11.338,11.338,0,0,0,230.915-65Zm32.3,34.563a2.613,2.613,0,0,1,3.532-1.071,2.613,2.613,0,0,1,1.072,3.532,2.613,2.613,0,0,1-3.532,1.071A2.613,2.613,0,0,1,263.218-30.441Zm-28.9-24.927a24.526,24.526,0,0,1-2.806,13.453,14.153,14.153,0,0,1-3.887,4.834,3.006,3.006,0,0,1-3.049.6,3.408,3.408,0,0,1-1.6-3.263,13.572,13.572,0,0,1,1.823-6.181A22.977,22.977,0,0,1,234.318-55.368Zm-14.222-7.6a24.528,24.528,0,0,1-2.806,13.453,14.147,14.147,0,0,1-3.887,4.833,3.006,3.006,0,0,1-3.049.6,3.408,3.408,0,0,1-1.6-3.262,13.568,13.568,0,0,1,1.823-6.181A22.971,22.971,0,0,1,220.1-62.969Zm-13.855-7.406a24.535,24.535,0,0,1-2.806,13.453,14.163,14.163,0,0,1-3.887,4.834,3.006,3.006,0,0,1-3.049.6,3.41,3.41,0,0,1-1.6-3.263,13.582,13.582,0,0,1,1.822-6.181A22.979,22.979,0,0,1,206.241-70.375Zm-13.856-7.4a24.525,24.525,0,0,1-2.806,13.452,14.162,14.162,0,0,1-3.886,4.834,3.006,3.006,0,0,1-3.049.6,3.407,3.407,0,0,1-1.6-3.262,13.55,13.55,0,0,1,1.822-6.181A22.977,22.977,0,0,1,192.385-77.78ZM178.53-85.186a24.528,24.528,0,0,1-2.806,13.453,14.147,14.147,0,0,1-3.887,4.833c-.819.579-2.012,1.154-3.048.6a3.411,3.411,0,0,1-1.6-3.263,13.578,13.578,0,0,1,1.823-6.181A22.971,22.971,0,0,1,178.53-85.186Z" fill="#00b0f1" style="isolation:isolate"/><path d="M67.087-34.682c.062-.037.118-.079.179-.117s.12-.06.179-.1a12.36,12.36,0,0,0,5.469-6.611,11.341,11.341,0,0,0,8.051-1.39,12.367,12.367,0,0,0,5.469-6.611,11.341,11.341,0,0,0,8.051-1.39,12.372,12.372,0,0,0,5.47-6.612A11.333,11.333,0,0,0,108-58.9a12.36,12.36,0,0,0,5.469-6.611,11.34,11.34,0,0,0,8.051-1.39,12.528,12.528,0,0,0,3.925-3.632l.017.011c.061-.1.111-.191.17-.287a12.8,12.8,0,0,0,1.029-1.887A22.97,22.97,0,0,0,128.1-87.065l10.349-6.125-1.273-2.152-12,7.1.289.94a21.176,21.176,0,0,1-.7,12.74,1.491,1.491,0,0,0-.369.55,10.44,10.44,0,0,1-.629,1.443c-.12.208-.229.417-.361.624a9,9,0,0,1-3.085,3.006,8.271,8.271,0,0,1-6.176.844c.9-5.3-.755-11.283-3.215-15.438a15.3,15.3,0,0,0-5.036-5.457,6.3,6.3,0,0,0-6.667-.167,5.615,5.615,0,0,0-2.669,5.589,15.848,15.848,0,0,0,2.381,6.7c2.522,4.261,7.006,8.755,12.018,10.647a9.288,9.288,0,0,1-4.156,5.286,8.278,8.278,0,0,1-6.175.844c.9-5.3-.756-11.283-3.216-15.439a15.313,15.313,0,0,0-5.036-5.457,6.3,6.3,0,0,0-6.666-.167,5.621,5.621,0,0,0-2.671,5.59,15.874,15.874,0,0,0,2.382,6.7c2.521,4.261,7.006,8.754,12.018,10.646a9.3,9.3,0,0,1-4.156,5.286,8.271,8.271,0,0,1-6.176.844c.9-5.3-.755-11.283-3.214-15.439a15.314,15.314,0,0,0-5.037-5.457,6.3,6.3,0,0,0-6.667-.166,5.617,5.617,0,0,0-2.67,5.589,15.873,15.873,0,0,0,2.382,6.7C74.419-56.6,78.9-52.11,83.916-50.218a9.287,9.287,0,0,1-4.157,5.286,8.268,8.268,0,0,1-6.175.844c.9-5.3-.755-11.283-3.215-15.439a15.33,15.33,0,0,0-5.036-5.457,6.306,6.306,0,0,0-6.667-.166A5.617,5.617,0,0,0,56-59.561a15.864,15.864,0,0,0,2.382,6.7c2.5,4.221,6.923,8.662,11.877,10.584a1.492,1.492,0,0,0-.3.487,9.226,9.226,0,0,1-3.894,4.956,8.228,8.228,0,0,1-5.774.818,1.489,1.489,0,0,0-.568.012c.848-5.264-.79-11.186-3.229-15.307a15.314,15.314,0,0,0-5.037-5.457,6.3,6.3,0,0,0-6.666-.167,5.616,5.616,0,0,0-2.67,5.589,15.87,15.87,0,0,0,2.381,6.7C47.022-40.389,51.506-35.9,56.518-34a9.288,9.288,0,0,1-4.156,5.286,8.278,8.278,0,0,1-6.175.844l-.079.3a21.079,21.079,0,0,1-12.171-5.562l-.686-.7L22.6-27.531a5.615,5.615,0,0,0-6.923-.969A5.616,5.616,0,0,0,13.7-20.816a5.617,5.617,0,0,0,7.685,1.971,5.615,5.615,0,0,0,2.482-6.535l9-5.328c2,1.755,7.9,6.209,15.773,5.651l0-.056a11.223,11.223,0,0,0,4.924-1.568,12.366,12.366,0,0,0,5.47-6.611A11.338,11.338,0,0,0,67.087-34.682ZM20.779-25a2.613,2.613,0,0,1-.917,3.575,2.612,2.612,0,0,1-3.575-.917,2.612,2.612,0,0,1,.917-3.575A2.613,2.613,0,0,1,20.779-25Zm36.3-11.771a24.535,24.535,0,0,1-10.044-9.379,14.16,14.16,0,0,1-2.115-5.831,3.006,3.006,0,0,1,1.07-2.917,3.409,3.409,0,0,1,3.62.324,13.581,13.581,0,0,1,4.338,4.765A22.971,22.971,0,0,1,57.083-36.773Zm13.878-8.213a24.529,24.529,0,0,1-10.044-9.379A14.16,14.16,0,0,1,58.8-60.2a3,3,0,0,1,1.07-2.917,3.409,3.409,0,0,1,3.62.324,13.582,13.582,0,0,1,4.338,4.765A22.981,22.981,0,0,1,70.961-44.986Zm13.52-8a24.531,24.531,0,0,1-10.044-9.38,14.152,14.152,0,0,1-2.115-5.83,3,3,0,0,1,1.07-2.917,3.407,3.407,0,0,1,3.62.324,13.572,13.572,0,0,1,4.338,4.765A22.979,22.979,0,0,1,84.481-52.987Zm13.52-8a24.529,24.529,0,0,1-10.044-9.379,14.156,14.156,0,0,1-2.115-5.83,3.006,3.006,0,0,1,1.07-2.918,3.409,3.409,0,0,1,3.62.324,13.59,13.59,0,0,1,4.338,4.765A22.981,22.981,0,0,1,98-60.989Zm13.52-8a24.535,24.535,0,0,1-10.044-9.379A14.16,14.16,0,0,1,99.362-84.2a3.006,3.006,0,0,1,1.07-2.917,3.409,3.409,0,0,1,3.62.324,13.581,13.581,0,0,1,4.338,4.765A22.979,22.979,0,0,1,111.521-68.99Z" fill="#ffef88" style="isolation:isolate"/><circle cx="6.152" cy="6.152" r="6.152" transform="translate(134.86 -102.471)" fill="#606060"/></g></g></svg>