<svg xmlns="http://www.w3.org/2000/svg" width="472.408" height="186.957" viewBox="0 0 472.408 186.957">
  <g id="Grupo_55681" data-name="Grupo 55681" transform="translate(-887.753 -5564.11)">
    <g id="Grupo_55495" data-name="Grupo 55495" transform="translate(15.625 560)">
      <path id="Trazado_107328" data-name="Trazado 107328" d="M10.063,15H8.555L2.828,6.234V15H1.32V3.625H2.828l5.742,8.8v-8.8h1.492Zm5.945.156a3.693,3.693,0,0,1-2.8-1.129,4.19,4.19,0,0,1-1.078-3.02v-.266a5.073,5.073,0,0,1,.48-2.246,3.748,3.748,0,0,1,1.344-1.547,3.378,3.378,0,0,1,1.871-.559,3.166,3.166,0,0,1,2.563,1.086,4.7,4.7,0,0,1,.914,3.109v.6H13.578a3,3,0,0,0,.73,2.02,2.3,2.3,0,0,0,1.777.77,2.517,2.517,0,0,0,1.3-.312,3.259,3.259,0,0,0,.93-.828l.883.688A3.55,3.55,0,0,1,16.008,15.156Zm-.18-7.578a1.928,1.928,0,0,0-1.469.637A3.1,3.1,0,0,0,13.625,10h4.234V9.891a2.753,2.753,0,0,0-.594-1.707A1.815,1.815,0,0,0,15.828,7.578ZM26.2,14.164a3.07,3.07,0,0,1-2.477.992,2.628,2.628,0,0,1-2.059-.785,3.4,3.4,0,0,1-.715-2.324v-5.5h1.445v5.461q0,1.922,1.563,1.922a2.163,2.163,0,0,0,2.2-1.234V6.547H27.6V15H26.227ZM31.758,4.5V6.547h1.578V7.664H31.758v5.249a1.173,1.173,0,0,0,.211.763.888.888,0,0,0,.719.254,3.5,3.5,0,0,0,.688-.094V15a4.215,4.215,0,0,1-1.109.155A1.8,1.8,0,0,1,30.8,14.57a2.517,2.517,0,0,1-.492-1.664V7.664H28.773V6.547h1.539V4.5Zm7.352,3.344a4.331,4.331,0,0,0-.711-.055A1.9,1.9,0,0,0,36.469,9v6H35.023V6.547H36.43l.023.977a2.251,2.251,0,0,1,2.016-1.133,1.477,1.477,0,0,1,.641.109ZM39.9,10.7a4.993,4.993,0,0,1,.488-2.234A3.643,3.643,0,0,1,41.746,6.93a3.7,3.7,0,0,1,1.988-.539,3.565,3.565,0,0,1,2.793,1.2,4.6,4.6,0,0,1,1.066,3.18v.1a5.036,5.036,0,0,1-.473,2.215,3.589,3.589,0,0,1-1.352,1.527,3.743,3.743,0,0,1-2.02.547,3.556,3.556,0,0,1-2.785-1.2A4.575,4.575,0,0,1,39.9,10.8Zm1.453.172A3.616,3.616,0,0,0,42,13.125a2.211,2.211,0,0,0,3.5-.012,3.955,3.955,0,0,0,.648-2.418,3.61,3.61,0,0,0-.66-2.254,2.1,2.1,0,0,0-1.754-.863,2.075,2.075,0,0,0-1.727.852A3.925,3.925,0,0,0,41.352,10.867Z" transform="translate(870.808 5038)" fill="#12263f"/>
      <path id="Trazado_107327" data-name="Trazado 107327" d="M10.063,15H8.555L2.828,6.234V15H1.32V3.625H2.828l5.742,8.8v-8.8h1.492Zm5.945.156a3.693,3.693,0,0,1-2.8-1.129,4.19,4.19,0,0,1-1.078-3.02v-.266a5.073,5.073,0,0,1,.48-2.246,3.748,3.748,0,0,1,1.344-1.547,3.378,3.378,0,0,1,1.871-.559,3.166,3.166,0,0,1,2.563,1.086,4.7,4.7,0,0,1,.914,3.109v.6H13.578a3,3,0,0,0,.73,2.02,2.3,2.3,0,0,0,1.777.77,2.517,2.517,0,0,0,1.3-.312,3.259,3.259,0,0,0,.93-.828l.883.688A3.55,3.55,0,0,1,16.008,15.156Zm-.18-7.578a1.928,1.928,0,0,0-1.469.637A3.1,3.1,0,0,0,13.625,10h4.234V9.891a2.753,2.753,0,0,0-.594-1.707A1.815,1.815,0,0,0,15.828,7.578ZM26.2,14.164a3.07,3.07,0,0,1-2.477.992,2.628,2.628,0,0,1-2.059-.785,3.4,3.4,0,0,1-.715-2.324v-5.5h1.445v5.461q0,1.922,1.563,1.922a2.163,2.163,0,0,0,2.2-1.234V6.547H27.6V15H26.227ZM31.758,4.5V6.547h1.578V7.664H31.758v5.249a1.173,1.173,0,0,0,.211.763.888.888,0,0,0,.719.254,3.5,3.5,0,0,0,.688-.094V15a4.215,4.215,0,0,1-1.109.155A1.8,1.8,0,0,1,30.8,14.57a2.517,2.517,0,0,1-.492-1.664V7.664H28.773V6.547h1.539V4.5Zm7.352,3.344a4.331,4.331,0,0,0-.711-.055A1.9,1.9,0,0,0,36.469,9v6H35.023V6.547H36.43l.023.977a2.251,2.251,0,0,1,2.016-1.133,1.477,1.477,0,0,1,.641.109ZM39.9,10.7a4.993,4.993,0,0,1,.488-2.234A3.643,3.643,0,0,1,41.746,6.93a3.7,3.7,0,0,1,1.988-.539,3.565,3.565,0,0,1,2.793,1.2,4.6,4.6,0,0,1,1.066,3.18v.1a5.036,5.036,0,0,1-.473,2.215,3.589,3.589,0,0,1-1.352,1.527,3.743,3.743,0,0,1-2.02.547,3.556,3.556,0,0,1-2.785-1.2A4.575,4.575,0,0,1,39.9,10.8Zm1.453.172A3.616,3.616,0,0,0,42,13.125a2.211,2.211,0,0,0,3.5-.012,3.955,3.955,0,0,0,.648-2.418,3.61,3.61,0,0,0-.66-2.254,2.1,2.1,0,0,0-1.754-.863,2.075,2.075,0,0,0-1.727.852A3.925,3.925,0,0,0,41.352,10.867Z" transform="translate(1296.942 5038)" fill="#12263f"/>
      <path id="Trazado_107325" data-name="Trazado 107325" d="M6.648,13.008,9.9,3.625h1.641L7.32,15H5.992L1.781,3.625H3.414ZM14.406,15H12.961V6.547h1.445ZM12.844,4.3a.863.863,0,0,1,.215-.594.807.807,0,0,1,.637-.242.819.819,0,0,1,.641.242.854.854,0,0,1,.219.594.826.826,0,0,1-.219.586.834.834,0,0,1-.641.234.821.821,0,0,1-.637-.234A.834.834,0,0,1,12.844,4.3Zm6.664,8.734L21.6,6.547h1.477L20.047,15h-1.1L15.883,6.547h1.477ZM23.969,10.7a4.993,4.993,0,0,1,.488-2.234A3.643,3.643,0,0,1,25.816,6.93,3.7,3.7,0,0,1,27.8,6.391a3.565,3.565,0,0,1,2.793,1.2,4.6,4.6,0,0,1,1.066,3.18v.1a5.036,5.036,0,0,1-.473,2.215,3.589,3.589,0,0,1-1.352,1.527,3.743,3.743,0,0,1-2.02.547,3.556,3.556,0,0,1-2.785-1.2A4.575,4.575,0,0,1,23.969,10.8Zm1.453.172a3.616,3.616,0,0,0,.652,2.258,2.211,2.211,0,0,0,3.5-.012,3.955,3.955,0,0,0,.648-2.418,3.61,3.61,0,0,0-.66-2.254A2.1,2.1,0,0,0,27.8,7.578a2.075,2.075,0,0,0-1.727.852A3.925,3.925,0,0,0,25.422,10.867ZM37.055,10.7a4.993,4.993,0,0,1,.488-2.234A3.643,3.643,0,0,1,38.9,6.93a3.7,3.7,0,0,1,1.988-.539,3.565,3.565,0,0,1,2.793,1.2,4.6,4.6,0,0,1,1.066,3.18v.1a5.036,5.036,0,0,1-.473,2.215,3.589,3.589,0,0,1-1.352,1.527,3.743,3.743,0,0,1-2.02.547,3.556,3.556,0,0,1-2.785-1.2A4.575,4.575,0,0,1,37.055,10.8Zm1.453.172a3.616,3.616,0,0,0,.652,2.258,2.211,2.211,0,0,0,3.5-.012A3.955,3.955,0,0,0,43.3,10.7a3.61,3.61,0,0,0-.66-2.254,2.1,2.1,0,0,0-1.754-.863,2.075,2.075,0,0,0-1.727.852A3.925,3.925,0,0,0,38.508,10.867Zm18.516-.891H52.25V15h-1.5V3.625H57.8V4.852H52.25v3.9h4.773ZM64.32,15a3.036,3.036,0,0,1-.2-.891,3.225,3.225,0,0,1-2.406,1.047,2.984,2.984,0,0,1-2.051-.707,2.287,2.287,0,0,1-.8-1.793,2.39,2.39,0,0,1,1-2.051,4.733,4.733,0,0,1,2.824-.73h1.406V9.211A1.623,1.623,0,0,0,63.641,8,1.821,1.821,0,0,0,62.3,7.555a2.107,2.107,0,0,0-1.3.391,1.151,1.151,0,0,0-.523.945H59.031a2,2,0,0,1,.449-1.223A3.066,3.066,0,0,1,60.7,6.734a4.1,4.1,0,0,1,1.691-.344,3.342,3.342,0,0,1,2.289.73,2.635,2.635,0,0,1,.859,2.012v3.891a4.757,4.757,0,0,0,.3,1.852V15Zm-2.4-1.1a2.54,2.54,0,0,0,1.289-.352,2.127,2.127,0,0,0,.883-.914V10.9H62.961q-2.656,0-2.656,1.555a1.316,1.316,0,0,0,.453,1.063A1.742,1.742,0,0,0,61.922,13.9Zm10.8-1.141a1.064,1.064,0,0,0-.441-.91,4.249,4.249,0,0,0-1.539-.559A7.277,7.277,0,0,1,69,10.727a2.479,2.479,0,0,1-.953-.781,1.869,1.869,0,0,1-.309-1.078,2.193,2.193,0,0,1,.879-1.758,3.432,3.432,0,0,1,2.246-.719,3.532,3.532,0,0,1,2.332.742,2.357,2.357,0,0,1,.895,1.9H72.641a1.3,1.3,0,0,0-.5-1.023,1.888,1.888,0,0,0-1.27-.43,1.976,1.976,0,0,0-1.234.344,1.082,1.082,0,0,0-.445.9.877.877,0,0,0,.414.789,5.1,5.1,0,0,0,1.5.508,7.8,7.8,0,0,1,1.754.578,2.558,2.558,0,0,1,1,.809,1.988,1.988,0,0,1,.324,1.152,2.163,2.163,0,0,1-.906,1.816,3.8,3.8,0,0,1-2.352.684,4.257,4.257,0,0,1-1.8-.359,2.922,2.922,0,0,1-1.223-1,2.42,2.42,0,0,1-.441-1.395H68.9a1.5,1.5,0,0,0,.582,1.152,2.258,2.258,0,0,0,1.434.426,2.331,2.331,0,0,0,1.316-.332A1.02,1.02,0,0,0,72.727,12.758Zm6.836,2.4a3.693,3.693,0,0,1-2.8-1.129,4.19,4.19,0,0,1-1.078-3.02v-.266a5.073,5.073,0,0,1,.48-2.246,3.748,3.748,0,0,1,1.344-1.547,3.378,3.378,0,0,1,1.871-.559,3.166,3.166,0,0,1,2.563,1.086,4.7,4.7,0,0,1,.914,3.109v.6H77.133a3,3,0,0,0,.73,2.02,2.3,2.3,0,0,0,1.777.77,2.517,2.517,0,0,0,1.3-.312,3.259,3.259,0,0,0,.93-.828l.883.688A3.55,3.55,0,0,1,79.563,15.156Zm-.18-7.578a1.928,1.928,0,0,0-1.469.637A3.1,3.1,0,0,0,77.18,10h4.234V9.891a2.753,2.753,0,0,0-.594-1.707A1.815,1.815,0,0,0,79.383,7.578Z" transform="translate(1069.5 5037.5)" fill="#12263f"/>
      <path id="Trazado_107326" data-name="Trazado 107326" d="M14.367,4.852H10.711V15H9.219V4.852H5.57V3.625h8.8ZM17.4,15H15.953V6.547H17.4ZM15.836,4.3a.863.863,0,0,1,.215-.594.807.807,0,0,1,.637-.242.819.819,0,0,1,.641.242.854.854,0,0,1,.219.594.826.826,0,0,1-.219.586.834.834,0,0,1-.641.234.821.821,0,0,1-.637-.234A.834.834,0,0,1,15.836,4.3Zm7.383,10.852a3.693,3.693,0,0,1-2.8-1.129,4.19,4.19,0,0,1-1.078-3.02v-.266a5.073,5.073,0,0,1,.48-2.246,3.748,3.748,0,0,1,1.344-1.547,3.378,3.378,0,0,1,1.871-.559A3.166,3.166,0,0,1,25.6,7.477a4.7,4.7,0,0,1,.914,3.109v.6H20.789a3,3,0,0,0,.73,2.02,2.3,2.3,0,0,0,1.777.77,2.517,2.517,0,0,0,1.3-.312,3.259,3.259,0,0,0,.93-.828l.883.688A3.55,3.55,0,0,1,23.219,15.156Zm-.18-7.578a1.928,1.928,0,0,0-1.469.637A3.1,3.1,0,0,0,20.836,10H25.07V9.891a2.753,2.753,0,0,0-.594-1.707A1.815,1.815,0,0,0,23.039,7.578Zm9.234.266a4.331,4.331,0,0,0-.711-.055A1.9,1.9,0,0,0,29.633,9v6H28.188V6.547h1.406l.023.977a2.251,2.251,0,0,1,2.016-1.133,1.477,1.477,0,0,1,.641.109Zm5.414,0a4.331,4.331,0,0,0-.711-.055A1.9,1.9,0,0,0,35.047,9v6H33.6V6.547h1.406l.023.977a2.251,2.251,0,0,1,2.016-1.133,1.477,1.477,0,0,1,.641.109ZM43.922,15a3.036,3.036,0,0,1-.2-.891,3.225,3.225,0,0,1-2.406,1.047,2.984,2.984,0,0,1-2.051-.707,2.287,2.287,0,0,1-.8-1.793,2.39,2.39,0,0,1,1-2.051,4.733,4.733,0,0,1,2.824-.73H43.7V9.211A1.623,1.623,0,0,0,43.242,8a1.821,1.821,0,0,0-1.336-.449,2.107,2.107,0,0,0-1.3.391,1.151,1.151,0,0,0-.523.945H38.633a2,2,0,0,1,.449-1.223A3.066,3.066,0,0,1,40.3,6.734a4.1,4.1,0,0,1,1.691-.344,3.342,3.342,0,0,1,2.289.73,2.635,2.635,0,0,1,.859,2.012v3.891a4.757,4.757,0,0,0,.3,1.852V15Zm-2.4-1.1a2.54,2.54,0,0,0,1.289-.352,2.127,2.127,0,0,0,.883-.914V10.9H42.563q-2.656,0-2.656,1.555a1.316,1.316,0,0,0,.453,1.063A1.742,1.742,0,0,0,41.523,13.9Z" transform="translate(1083.221 5065.747)" fill="#12263f"/>
      <g id="power-socket" transform="translate(931.5 4983.748)">
        <path id="Trazado_107184" data-name="Trazado 107184" d="M7.445,20.384h99.418a7.445,7.445,0,0,1,7.445,7.445v89.925a7.445,7.445,0,0,1-7.445,7.445H7.445A7.445,7.445,0,0,1,0,117.754V27.829A7.445,7.445,0,0,1,7.445,20.384Z" transform="translate(0 -0.016)" fill="#cfd8dc"/>
        <path id="Trazado_107186" data-name="Trazado 107186" d="M106.853,125.168H7.455A7.455,7.455,0,0,1,0,117.713V27.808a7.455,7.455,0,0,1,7.455-7.445h99.4a7.455,7.455,0,0,1,7.455,7.455v89.905A7.455,7.455,0,0,1,106.853,125.168ZM7.455,25.333A2.485,2.485,0,0,0,4.97,27.818v89.905a2.485,2.485,0,0,0,2.485,2.485h99.4a2.485,2.485,0,0,0,2.485-2.485V27.808a2.485,2.485,0,0,0-2.485-2.485Z" transform="translate(0 0)"/>
        <g id="Grupo_55484" data-name="Grupo 55484" transform="translate(18.569 37.497)">
          <rect id="Rectángulo_5348" data-name="Rectángulo 5348" width="70.861" height="63.948" transform="translate(3.485 3.132)" fill="#455a64"/>
          <path id="Trazado_107207" data-name="Trazado 107207" d="M71.914,90.9H5.017A5.017,5.017,0,0,1,0,85.882V25.374a5.017,5.017,0,0,1,5.017-5.011h66.9a5.017,5.017,0,0,1,5.017,5.017V85.889A5.017,5.017,0,0,1,71.914,90.9ZM5.017,23.708A1.673,1.673,0,0,0,3.345,25.38V85.889a1.673,1.673,0,0,0,1.672,1.672h66.9a1.673,1.673,0,0,0,1.672-1.672V25.374A1.673,1.673,0,0,0,71.914,23.7Z" transform="translate(0 -20.363)" stroke="#000" stroke-width="1"/>
        </g>
        <g id="Rectángulo_5345" data-name="Rectángulo 5345" transform="translate(50.554 77.784)" fill="#474545" stroke="#000" stroke-linecap="round" stroke-linejoin="round" stroke-width="5">
          <rect width="12.962" height="18.147" stroke="none"/>
          <rect x="2.5" y="2.5" width="7.962" height="13.147" fill="none"/>
        </g>
        <g id="Rectángulo_5346" data-name="Rectángulo 5346" transform="matrix(0.899, -0.438, 0.438, 0.899, 61.644, 55.446)" fill="#474545" stroke="#000" stroke-linecap="round" stroke-linejoin="round" stroke-width="5">
          <rect width="13.338" height="21.969" stroke="none"/>
          <rect x="2.5" y="2.5" width="8.338" height="16.969" fill="none"/>
        </g>
        <g id="Rectángulo_5347" data-name="Rectángulo 5347" transform="matrix(-0.899, -0.438, 0.438, -0.899, 43.033, 75.191)" fill="#474545" stroke="#000" stroke-linecap="round" stroke-linejoin="round" stroke-width="5">
          <rect width="13.338" height="21.968" stroke="none"/>
          <rect x="2.5" y="2.5" width="8.338" height="16.968" fill="none"/>
        </g>
        <ellipse id="Elipse_4098" data-name="Elipse 4098" cx="3" cy="3.5" rx="3" ry="3.5" transform="translate(9.5 29.752)"/>
        <ellipse id="Elipse_4101" data-name="Elipse 4101" cx="3" cy="3.5" rx="3" ry="3.5" transform="translate(9.5 108.752)"/>
        <ellipse id="Elipse_4099" data-name="Elipse 4099" cx="3" cy="3.5" rx="3" ry="3.5" transform="translate(98.5 29.752)"/>
        <ellipse id="Elipse_4100" data-name="Elipse 4100" cx="3" cy="3.5" rx="3" ry="3.5" transform="translate(98.5 108.752)"/>
      </g>
      <g id="power-plug" transform="translate(1060.5 5090.747)">
        <g id="Grupo_55482" data-name="Grupo 55482" transform="translate(1.47 1.47)">
          <path id="Trazado_107192" data-name="Trazado 107192" d="M54.245,29.7h5.892V10.446a2.946,2.946,0,0,0-5.892,0Z" transform="translate(26.646 -7.5)" fill="#b6c4cf"/>
          <path id="Trazado_107193" data-name="Trazado 107193" d="M63.7,7.5a2.93,2.93,0,0,1,1.67.52A2.941,2.941,0,0,0,64.1,10.446V29.7h-3.34V10.446A2.946,2.946,0,0,1,63.7,7.5Z" transform="translate(20.134 -7.5)" fill="#9facba"/>
          <path id="Trazado_107194" data-name="Trazado 107194" d="M150.848,29.7h5.892V10.446a2.946,2.946,0,0,0-5.892,0Z" transform="translate(-88.885 -7.5)" fill="#b6c4cf"/>
          <path id="Trazado_107195" data-name="Trazado 107195" d="M160.3,7.5a2.93,2.93,0,0,1,1.67.52,2.941,2.941,0,0,0-1.276,2.425V29.7h-3.34V10.446A2.946,2.946,0,0,1,160.3,7.5Z" transform="translate(-95.396 -7.5)" fill="#9facba"/>
          <g id="Grupo_55480" data-name="Grupo 55480" transform="translate(0 21.214)">
            <path id="Trazado_107196" data-name="Trazado 107196" d="M148.906,191.937h14.767a16.614,16.614,0,0,0,16.6-16.6v-30.51a2.848,2.848,0,1,0-5.7,0v30.51a10.912,10.912,0,0,1-10.9,10.9H148.906a10.912,10.912,0,0,1-10.9-10.9V132.366a16.614,16.614,0,0,0-16.6-16.6H105.9a2.848,2.848,0,1,0,0,5.7h15.515a10.912,10.912,0,0,1,10.9,10.9v42.976A16.614,16.614,0,0,0,148.906,191.937Z" transform="translate(-103.048 -115.771)" fill="#9facba"/>
          </g>
          <path id="Trazado_107197" data-name="Trazado 107197" d="M92.088,258.291h1.784a5.1,5.1,0,0,0,5.1-5.1V238.111H86.985v15.077A5.1,5.1,0,0,0,92.088,258.291Z" transform="translate(-18.607 -192.926)" fill="#7a8c98"/>
          <path id="Trazado_107198" data-name="Trazado 107198" d="M108.942,238.111v15.077a5.1,5.1,0,0,0,3.211,4.74,5.087,5.087,0,0,1-1.892.364h-1.784a5.1,5.1,0,0,1-5.1-5.1V238.111h5.567Z" transform="translate(-34.997 -192.926)" fill="#596c76"/>
          <path id="Trazado_107199" data-name="Trazado 107199" d="M49.077,155.835a16.693,16.693,0,0,0,16.693-16.693V120.783H32.384v18.359A16.693,16.693,0,0,0,49.077,155.835Z" transform="translate(25.295 -98.587)" fill="#596c76"/>
          <g id="Grupo_55481" data-name="Grupo 55481" transform="translate(0 21.214)">
            <path id="Trazado_107200" data-name="Trazado 107200" d="M260.305,155.74v42.976a16.614,16.614,0,0,0,16.6,16.6h-3.34a16.614,16.614,0,0,1-16.6-16.6V155.74a10.912,10.912,0,0,0-10.9-10.9h3.34a10.912,10.912,0,0,1,10.9,10.9Z" transform="translate(-227.702 -139.145)" fill="#8d9ca8"/>
            <path id="Trazado_107201" data-name="Trazado 107201" d="M468.423,115.772h3.34a2.848,2.848,0,1,0,0,5.7h-3.34a2.848,2.848,0,0,1,0-5.7Z" transform="translate(-465.575 -115.772)" fill="#8d9ca8"/>
          </g>
          <path id="Trazado_107202" data-name="Trazado 107202" d="M108.942,120.783v18.359a16.7,16.7,0,0,0,13.91,16.458,16.683,16.683,0,0,1-19.477-16.458V120.783h5.567Z" transform="translate(-45.696 -98.587)" fill="#465a61"/>
          <path id="Trazado_107203" data-name="Trazado 107203" d="M19.556,106.154H50.39a4.713,4.713,0,1,0,0-9.427H19.556a4.713,4.713,0,1,0,0,9.427Z" transform="translate(39.399 -79.244)" fill="#7a8c98"/>
          <path id="Trazado_107204" data-name="Trazado 107204" d="M172.566,96.727h5.567a4.713,4.713,0,1,0,0,9.427h-5.567a4.713,4.713,0,1,1,0-9.427Z" transform="translate(-113.611 -79.244)" fill="#596c76"/>
        </g>
        <g id="Grupo_55483" data-name="Grupo 55483" transform="translate(0)">
          <path id="Trazado_107206" data-name="Trazado 107206" d="M11.66,21.214H27.175A18.085,18.085,0,0,1,45.24,39.279V82.254a9.441,9.441,0,0,0,9.43,9.43H69.438a9.441,9.441,0,0,0,9.43-9.43V67.339a6.574,6.574,0,0,1-3.147-5.607v-3.15a18.189,18.189,0,0,1-10.7-16.558V29.2a6.182,6.182,0,0,1,2.746-11.721h1.538V13.466a1.47,1.47,0,0,1,2.939,0v4.017H75.2V4.415a1.476,1.476,0,0,0-2.953,0V6.608a1.47,1.47,0,0,1-2.939,0V4.415a4.415,4.415,0,0,1,8.831,0V17.483h10.1V4.415a4.415,4.415,0,1,1,8.831,0V17.483H98.6A6.182,6.182,0,0,1,101.348,29.2c0,13.925.014,13.185-.037,13.99a1.469,1.469,0,0,1-2.933-.186c.043-.676.031.1.031-13.158H67.961V42.025a15.227,15.227,0,0,0,28.765,6.964,1.47,1.47,0,0,1,2.612,1.347,18.128,18.128,0,0,1-8.69,8.256v3.14A6.574,6.574,0,0,1,87.5,67.339V82.255A18.085,18.085,0,0,1,69.438,100.32H54.67A18.085,18.085,0,0,1,36.606,82.255V39.279a9.441,9.441,0,0,0-9.43-9.43H11.66a4.317,4.317,0,0,1,0-8.635Zm82.465-16.8a1.476,1.476,0,0,0-2.953,0V17.483h2.953Zm5.081,22.436.074-.014a3.243,3.243,0,0,0-.678-6.415H67.768a3.243,3.243,0,0,0-.6,6.429C67.673,26.948,98.722,26.943,99.206,26.851Zm-11.5,32.768a18.289,18.289,0,0,1-9.051,0v2.115a3.644,3.644,0,0,0,3.633,3.633,8.326,8.326,0,0,0,2.945-.194,3.637,3.637,0,0,0,2.472-3.44V59.619ZM11.66,26.91H27.175A12.383,12.383,0,0,1,39.545,39.279V82.254A15.143,15.143,0,0,0,54.67,97.38H69.438A15.143,15.143,0,0,0,84.563,82.254V68.287c-.4.029-2.357.029-2.756,0V82.254A12.383,12.383,0,0,1,69.438,94.624H54.67A12.383,12.383,0,0,1,42.3,82.254V39.279A15.143,15.143,0,0,0,27.175,24.153H11.66a1.378,1.378,0,1,0,0,2.756Z" transform="translate(-7.343 0)"/>
        </g>
      </g>
      <g id="Grupo_55490" data-name="Grupo 55490">
        <g id="Grupo_55487" data-name="Grupo 55487" transform="translate(29.5 0.11)">
          <circle id="Elipse_4102" data-name="Elipse 4102" cx="52.5" cy="52.5" r="52.5" transform="translate(1146 5004)" fill="#e8e8e8"/>
          <path id="Polígono_2" data-name="Polígono 2" d="M11.323,2.58a2,2,0,0,1,3.354,0l9.315,14.33A2,2,0,0,1,22.315,20H3.685a2,2,0,0,1-1.677-3.09Z" transform="matrix(0.966, -0.259, 0.259, 0.966, 1146, 5089.681)" fill="#e8e8e8"/>
        </g>
        <g id="Grupo_55486" data-name="Grupo 55486" transform="translate(1191.409 5018.954)">
          <g id="Grupo_55485" data-name="Grupo 55485" transform="translate(0)">
            <g id="Rectángulo_5348-2" data-name="Rectángulo 5348" transform="translate(0 0)" fill="#7a8c98" stroke="#000" stroke-width="5">
              <rect width="73.182" height="75.092" rx="28" stroke="none"/>
              <rect x="2.5" y="2.5" width="68.182" height="70.092" rx="25.5" fill="none"/>
            </g>
          </g>
          <g id="Rectángulo_5349" data-name="Rectángulo 5349" transform="translate(29.31 42.729)" fill="#9facba" stroke="#000" stroke-linecap="round" stroke-linejoin="round" stroke-width="5">
            <rect width="13.387" height="18.742" stroke="none"/>
            <rect x="2.5" y="2.5" width="8.387" height="13.742" fill="none"/>
          </g>
          <g id="Rectángulo_5350" data-name="Rectángulo 5350" transform="matrix(0.899, -0.438, 0.438, 0.899, 40.764, 19.66)" fill="#9facba" stroke="#000" stroke-linecap="round" stroke-linejoin="round" stroke-width="5">
            <rect width="13.775" height="22.688" stroke="none"/>
            <rect x="2.5" y="2.5" width="8.775" height="17.688" fill="none"/>
          </g>
          <g id="Rectángulo_5351" data-name="Rectángulo 5351" transform="matrix(-0.899, -0.438, 0.438, -0.899, 21.544, 40.051)" fill="#9facba" stroke="#000" stroke-linecap="round" stroke-linejoin="round" stroke-width="5">
            <rect width="13.775" height="22.688" stroke="none"/>
            <rect x="2.5" y="2.5" width="8.775" height="17.688" fill="none"/>
          </g>
        </g>
      </g>
      <g id="Grupo_55488" data-name="Grupo 55488" transform="translate(0 1)">
        <path id="Trazado_107177" data-name="Trazado 107177" d="M0,20.391V0" transform="translate(1178.333 5047) rotate(90)" fill="none" stroke="#ad84ff" stroke-width="3"/>
        <path id="Trazado_107179" data-name="Trazado 107179" d="M14.278,3.632,16.419.111,16.253,0,8.306,3.157,0,4.985,8.306,6.812,16.253,9.97l.166-.084L14.274,6.338Z" transform="translate(1189.442 5051.985) rotate(180)" fill="#ad84ff"/>
      </g>
      <g id="Grupo_55494" data-name="Grupo 55494" transform="translate(-231 1)">
        <path id="Trazado_107177-2" data-name="Trazado 107177" d="M0,20.391V0" transform="translate(1178.333 5047) rotate(90)" fill="none" stroke="#ad84ff" stroke-width="3"/>
        <path id="Trazado_107179-2" data-name="Trazado 107179" d="M14.278,3.632,16.419.111,16.253,0,8.306,3.157,0,4.985,8.306,6.812,16.253,9.97l.166-.084L14.274,6.338Z" transform="translate(1189.442 5051.985) rotate(180)" fill="#ad84ff"/>
      </g>
      <g id="Grupo_55489" data-name="Grupo 55489" transform="translate(2224 10095) rotate(180)">
        <path id="Trazado_107177-3" data-name="Trazado 107177" d="M0,20.391V0" transform="translate(1178.333 5047) rotate(90)" fill="none" stroke="#ad84ff" stroke-width="3"/>
        <path id="Trazado_107179-3" data-name="Trazado 107179" d="M14.278,3.632,16.419.111,16.253,0,8.306,3.157,0,4.985,8.306,6.812,16.253,9.97l.166-.084L14.274,6.338Z" transform="translate(1189.442 5051.985) rotate(180)" fill="#ad84ff"/>
      </g>
      <g id="Grupo_55493" data-name="Grupo 55493" transform="translate(2451 10095) rotate(180)">
        <path id="Trazado_107177-4" data-name="Trazado 107177" d="M0,20.391V0" transform="translate(1178.333 5047) rotate(90)" fill="none" stroke="#ad84ff" stroke-width="3"/>
        <path id="Trazado_107179-4" data-name="Trazado 107179" d="M14.278,3.632,16.419.111,16.253,0,8.306,3.157,0,4.985,8.306,6.812,16.253,9.97l.166-.084L14.274,6.338Z" transform="translate(1189.442 5051.985) rotate(180)" fill="#ad84ff"/>
      </g>
      <g id="Grupo_55491" data-name="Grupo 55491" transform="translate(2197 10122.247) rotate(180)">
        <path id="Trazado_107177-5" data-name="Trazado 107177" d="M0,65V0" transform="translate(1178.333 5047) rotate(90)" fill="none" stroke="#ad84ff" stroke-width="3"/>
        <path id="Trazado_107179-5" data-name="Trazado 107179" d="M14.278,3.632,16.419.111,16.253,0,8.306,3.157,0,4.985,8.306,6.812,16.253,9.97l.166-.084L14.274,6.338Z" transform="translate(1189.442 5051.985) rotate(180)" fill="#ad84ff"/>
      </g>
      <g id="Grupo_55492" data-name="Grupo 55492" transform="translate(1135.221 5070.262)">
        <path id="Trazado_107177-6" data-name="Trazado 107177" d="M0,0V65" transform="translate(0 4.985) rotate(-90)" fill="none" stroke="#ad84ff" stroke-width="3"/>
        <path id="Trazado_107179-6" data-name="Trazado 107179" d="M14.278,6.338l2.141,3.521-.166.111L8.306,6.812,0,4.985,8.306,3.157,16.253,0l.166.084L14.274,3.632Z" transform="translate(76.109 9.97) rotate(180)" fill="#ad84ff"/>
      </g>
    </g>
  </g>
</svg>
