<svg xmlns="http://www.w3.org/2000/svg" width="658" height="375.384" viewBox="0 0 658 375.384">
  <g id="Grupo_974121" data-name="Grupo 974121" transform="translate(-285 -4236)">
    <path id="Trazado_704892" data-name="Trazado 704892" d="M5.393,0H652.607A5.393,5.393,0,0,1,658,5.393v364.6a5.393,5.393,0,0,1-5.393,5.393H5.393A5.393,5.393,0,0,1,0,369.99V5.393A5.393,5.393,0,0,1,5.393,0Z" transform="translate(285 4236)" fill="#fff"/>
    <g id="Grupo_55500" data-name="Grupo 55500" transform="translate(319.518 4323.485)">
      <g id="Grupo_55498" data-name="Grupo 55498" transform="translate(0)">
        <g id="Grupo_55497" data-name="Grupo 55497" transform="translate(28.636 31.818)">
          <g id="Grupo_55496" data-name="Grupo 55496" transform="translate(3.182 3.182)">
            <g id="Polígono_3" data-name="Polígono 3" transform="translate(0 0)" fill="#fff">
              <path d="M 194.6632995605469 168.1947479248047 L 2.606849193572998 168.1947479248047 L 98.63507080078125 2.984920978546143 L 194.6632995605469 168.1947479248047 Z" stroke="none"/>
              <path d="M 98.63507080078125 5.969833374023438 L 5.213714599609375 166.6947326660156 L 192.056396484375 166.6947326660156 L 98.63507080078125 5.969833374023438 M 98.63507080078125 -1.52587890625e-05 L 197.2701263427734 169.6947326660156 L -1.52587890625e-05 169.6947326660156 L 98.63507080078125 -1.52587890625e-05 Z" stroke="none" fill="#707070"/>
            </g>
            <g id="Rectángulo_5352" data-name="Rectángulo 5352" transform="translate(119.229 160.149) rotate(90)" fill="#fff" stroke="#707070" stroke-width="3">
              <rect width="19.091" height="41.187" rx="2" stroke="none"/>
              <rect x="1.5" y="1.5" width="16.091" height="38.187" rx="0.5" fill="none"/>
            </g>
            <g id="Rectángulo_5353" data-name="Rectángulo 5353" transform="translate(167.574 100.765) rotate(149)" fill="#fff" stroke="#707070" stroke-width="3">
              <rect width="19.091" height="41.187" rx="2" stroke="none"/>
              <rect x="1.5" y="1.5" width="16.091" height="38.187" rx="0.5" fill="none"/>
            </g>
            <g id="Rectángulo_5354" data-name="Rectángulo 5354" transform="translate(50.453 65.461) rotate(31)" fill="#fff" stroke="#707070" stroke-width="3">
              <rect width="19.091" height="41.186" rx="2" stroke="none"/>
              <rect x="1.5" y="1.5" width="16.091" height="38.186" rx="0.5" fill="none"/>
            </g>
          </g>
          <circle id="Elipse_4103" data-name="Elipse 4103" cx="5.833" cy="5.833" r="5.833" transform="translate(95.453)" fill="#707070"/>
          <circle id="Elipse_4104" data-name="Elipse 4104" cx="5.833" cy="5.833" r="5.833" transform="translate(191.967 166.513)" fill="#707070"/>
          <circle id="Elipse_4105" data-name="Elipse 4105" cx="5.833" cy="5.833" r="5.833" transform="translate(0 166.513)" fill="#707070"/>
        </g>
        <text id="R" transform="translate(121.968)" fill="#12263f" font-size="20" font-family="Roboto-Black, Roboto" font-weight="800"><tspan x="-6.523" y="19">R</tspan></text>
        <text id="Z" transform="translate(201.627 101.817)" fill="#12263f" font-size="20" font-family="Roboto-Black, Roboto" font-weight="800"><tspan x="-6.099" y="19">Z</tspan></text>
        <text id="Z-2" data-name="Z" transform="translate(333.026 104.999)" fill="#12263f" font-size="20" font-family="Roboto-Black, Roboto" font-weight="800"><tspan x="-6.099" y="19">Z</tspan></text>
        <text id="R-2" data-name="R" transform="translate(312.875 1.06)" fill="#12263f" font-size="20" font-family="Roboto-Black, Roboto" font-weight="800"><tspan x="-6.523" y="19">R</tspan></text>
        <text id="S" transform="translate(404.086 1.06)" fill="#12263f" font-size="20" font-family="Roboto-Black, Roboto" font-weight="800"><tspan x="-6.26" y="19">S</tspan></text>
        <text id="T" transform="translate(495.297 2.121)" fill="#12263f" font-size="20" font-family="Roboto-Black, Roboto" font-weight="800"><tspan x="-6.304" y="19">T</tspan></text>
        <text id="Z-3" data-name="Z" transform="translate(425.297 104.999)" fill="#12263f" font-size="20" font-family="Roboto-Black, Roboto" font-weight="800"><tspan x="-6.099" y="19">Z</tspan></text>
        <text id="Z-4" data-name="Z" transform="translate(516.508 104.999)" fill="#12263f" font-size="20" font-family="Roboto-Black, Roboto" font-weight="800"><tspan x="-6.099" y="19">Z</tspan></text>
        <text id="S-2" data-name="S" transform="translate(242.876 204.694)" fill="#12263f" font-size="20" font-family="Roboto-Black, Roboto" font-weight="800"><tspan x="-6.26" y="19">S</tspan></text>
        <text id="T-2" data-name="T" transform="translate(0 204.694)" fill="#12263f" font-size="20" font-family="Roboto-Black, Roboto" font-weight="800"><tspan x="-6.304" y="19">T</tspan></text>
        <text id="Z-5" data-name="Z" transform="translate(44.43 101.817)" fill="#12263f" font-size="20" font-family="Roboto-Black, Roboto" font-weight="800"><tspan x="-6.099" y="19">Z</tspan></text>
        <path id="Trazado_107208" data-name="Trazado 107208" d="M-4672-8040v197.8h216.891v-179.771h-33.409v158.559H-4514.5l-45.605-158.559h-19.621v158.559h-26.515l-45.605-158.559h-16.616" transform="translate(4992.298 8071.818)" fill="none" stroke="#707070" stroke-width="3"/>
        <g id="Rectángulo_5355" data-name="Rectángulo 5355" transform="translate(308.632 83.787)" fill="#fff" stroke="#707070" stroke-width="3">
          <rect width="23.333" height="69.999" rx="2" stroke="none"/>
          <rect x="1.5" y="1.5" width="20.333" height="66.999" rx="0.5" fill="none"/>
        </g>
        <g id="Rectángulo_5356" data-name="Rectángulo 5356" transform="translate(400.904 83.787)" fill="#fff" stroke="#707070" stroke-width="3">
          <rect width="23.333" height="69.999" rx="2" stroke="none"/>
          <rect x="1.5" y="1.5" width="20.333" height="66.999" rx="0.5" fill="none"/>
        </g>
        <g id="Rectángulo_5357" data-name="Rectángulo 5357" transform="translate(492.115 83.787)" fill="#fff" stroke="#707070" stroke-width="3">
          <rect width="23.333" height="69.999" rx="2" stroke="none"/>
          <rect x="1.5" y="1.5" width="20.333" height="66.999" rx="0.5" fill="none"/>
        </g>
        <circle id="Elipse_4106" data-name="Elipse 4106" cx="5.833" cy="5.833" r="5.833" transform="translate(314.996 44.545)" fill="#707070"/>
        <circle id="Elipse_4107" data-name="Elipse 4107" cx="5.833" cy="5.833" r="5.833" transform="translate(407.267 44.545)" fill="#707070"/>
        <circle id="Elipse_4108" data-name="Elipse 4108" cx="5.833" cy="5.833" r="5.833" transform="translate(498.478 44.545)" fill="#707070"/>
      </g>
      <g id="Grupo_55499" data-name="Grupo 55499" transform="translate(21.132 22.782)">
        <path id="Trazado_107209" data-name="Trazado 107209" d="M-4656-8033v17.914" transform="translate(5139.945 8041.956)" fill="none" stroke="#707070" stroke-width="3"/>
        <path id="Trazado_107210" data-name="Trazado 107210" d="M-4656-8033v17.914" transform="translate(5047.502 8041.956)" fill="none" stroke="#707070" stroke-width="3"/>
        <path id="Trazado_107211" data-name="Trazado 107211" d="M-4656-8033v17.914" transform="translate(4764.799 8032.999)" fill="none" stroke="#707070" stroke-width="3"/>
        <path id="Trazado_107212" data-name="Trazado 107212" d="M0,0V17.915" transform="translate(205.309 180.765) rotate(-60)" fill="none" stroke="#707070" stroke-width="3"/>
        <path id="Trazado_107213" data-name="Trazado 107213" d="M0,17.915V0" transform="translate(0 189.723) rotate(-120)" fill="none" stroke="#707070" stroke-width="3"/>
      </g>
    </g>
    <g id="Grupo_55501" data-name="Grupo 55501" transform="translate(582.924 4555.853)">
      <path id="Trazado_704998" data-name="Trazado 704998" d="M16.72,0A16.72,16.72,0,1,1,0,16.72,16.72,16.72,0,0,1,16.72,0Z" transform="translate(0 0)" fill="#ad84ff"/>
      <path id="Trazado_704999" data-name="Trazado 704999" d="M8.215,19a3.716,3.716,0,0,1-.312-.947A3.06,3.06,0,0,1,5.364,19.2a3.749,3.749,0,0,1-2.539-.9A2.875,2.875,0,0,1,1.78,16.021a2.955,2.955,0,0,1,1.27-2.6,6.468,6.468,0,0,1,3.691-.879H7.756v-.559q0-1.462-1.26-1.462a1.03,1.03,0,0,0-1.172,1.158H2.034a2.95,2.95,0,0,1,1.3-2.487,5.479,5.479,0,0,1,3.325-.956,4.8,4.8,0,0,1,3.193.986,3.429,3.429,0,0,1,1.2,2.705v4.678a4.79,4.79,0,0,0,.449,2.227V19ZM6.155,16.852a1.836,1.836,0,0,0,1.021-.264,1.653,1.653,0,0,0,.581-.6V14.3H6.8q-1.719,0-1.719,1.543a.942.942,0,0,0,.3.728A1.1,1.1,0,0,0,6.155,16.852Zm8.76-1.045a1.874,1.874,0,0,1,1.3.464,1.619,1.619,0,0,1,0,2.373,2.049,2.049,0,0,1-2.6,0,1.618,1.618,0,0,1,0-2.363A1.858,1.858,0,0,1,14.915,15.807Z" transform="translate(8.071 1.153)" fill="#12263f"/>
    </g>
    <g id="Grupo_55502" data-name="Grupo 55502" transform="translate(872.346 4555.853)">
      <circle id="Elipse_4109" data-name="Elipse 4109" cx="16.72" cy="16.72" r="16.72" transform="translate(0 0)" fill="#ad84ff"/>
      <path id="Trazado_705000" data-name="Trazado 705000" d="M14.764,13.8A6.44,6.44,0,0,1,13.69,17.8a3.6,3.6,0,0,1-3.027,1.4,3.122,3.122,0,0,1-2.6-1.279L7.928,19H4.979V4H8.27V9.283a3.013,3.013,0,0,1,2.373-1.045A3.6,3.6,0,0,1,13.69,9.654a6.473,6.473,0,0,1,1.074,3.984Zm-3.3-.21a4.3,4.3,0,0,0-.405-2.169,1.366,1.366,0,0,0-1.245-.648,1.576,1.576,0,0,0-1.543.848v4.192a1.585,1.585,0,0,0,1.563.838,1.4,1.4,0,0,0,1.475-1.131A8.121,8.121,0,0,0,11.463,13.595Zm6.787,2.212a1.874,1.874,0,0,1,1.3.464,1.619,1.619,0,0,1,0,2.373,2.049,2.049,0,0,1-2.6,0,1.618,1.618,0,0,1,0-2.363A1.858,1.858,0,0,1,18.25,15.807Z" transform="translate(5.766 1.153)" fill="#12263f"/>
    </g>
  </g>
</svg>
