<svg xmlns="http://www.w3.org/2000/svg" width="451.602" height="238.824" viewBox="0 0 451.602 238.824">
  <g id="Grupo_974147" data-name="Grupo 974147" transform="translate(-867 -4575.5)">
    <g id="Grupo_974133" data-name="Grupo 974133" transform="translate(2470 11480.5)">
      <g id="Trazado_705139" data-name="Trazado 705139" transform="translate(-1603 -6905)" fill="#ecebe0">
        <path d="M 363.8929138183594 238.3242492675781 L 7.000002384185791 238.3242492675781 C 3.415911436080933 238.3242492675781 0.500002384185791 235.4083404541016 0.500002384185791 231.8242492675781 L 0.500002384185791 7.00001859664917 C 0.500002384185791 3.415927648544312 3.415911436080933 0.5000184774398804 7.000002384185791 0.5000184774398804 L 363.8929138183594 0.5000184774398804 C 367.4769897460938 0.5000184774398804 370.3929138183594 3.415927648544312 370.3929138183594 7.00001859664917 L 370.3929138183594 231.8242492675781 C 370.3929138183594 235.4083404541016 367.4769897460938 238.3242492675781 363.8929138183594 238.3242492675781 Z" stroke="none"/>
        <path d="M 7 1.000015258789062 C 3.691619873046875 1.000015258789062 1 3.691604614257812 1 7.000015258789062 L 1 231.8242034912109 C 1 235.1326141357422 3.691619873046875 237.8242034912109 7 237.8242034912109 L 363.8929138183594 237.8242034912109 C 367.2012939453125 237.8242034912109 369.8929138183594 235.1326141357422 369.8929138183594 231.8242034912109 L 369.8929138183594 7.000015258789062 C 369.8929138183594 3.691604614257812 367.2012939453125 1.000015258789062 363.8929138183594 1.000015258789062 L 7 1.000015258789062 M 7 1.52587890625e-05 L 363.8929138183594 1.52587890625e-05 C 367.7589111328125 1.52587890625e-05 370.8929138183594 3.134002685546875 370.8929138183594 7.000015258789062 L 370.8929138183594 231.8242034912109 C 370.8929138183594 235.6902160644531 367.7589111328125 238.8242034912109 363.8929138183594 238.8242034912109 L 7 238.8242034912109 C 3.134002685546875 238.8242034912109 0 235.6902160644531 0 231.8242034912109 L 0 7.000015258789062 C 0 3.134002685546875 3.134002685546875 1.52587890625e-05 7 1.52587890625e-05 Z" stroke="none" fill="#707070"/>
      </g>
      <g id="Grupo_974118" data-name="Grupo 974118" transform="translate(-1589.923 -6898.321)">
        <path id="Trazado_704961" data-name="Trazado 704961" d="M410-10071.5H761.968" transform="translate(-410 10071.5)" fill="none" stroke="#b8b8b8" stroke-linecap="round" stroke-width="1" stroke-dasharray="0.1 6"/>
        <path id="Trazado_704967" data-name="Trazado 704967" d="M410-10071.5H761.968" transform="translate(-410 10115.191)" fill="none" stroke="#b8b8b8" stroke-linecap="round" stroke-width="1" stroke-dasharray="0.1 6"/>
        <path id="Trazado_704958" data-name="Trazado 704958" d="M410-10071.5H761.968" transform="translate(-410 10093.347)" fill="none" stroke="#b8b8b8" stroke-linecap="round" stroke-width="1" stroke-dasharray="0.1 6"/>
        <path id="Trazado_704964" data-name="Trazado 704964" d="M410-10071.5H761.968" transform="translate(-410 10137.039)" fill="none" stroke="#b8b8b8" stroke-linecap="round" stroke-width="1" stroke-dasharray="0.1 6"/>
        <path id="Trazado_704960" data-name="Trazado 704960" d="M410-10071.5H761.968" transform="translate(-410 10078.153)" fill="none" stroke="#b8b8b8" stroke-linecap="round" stroke-width="1" stroke-dasharray="0.1 6"/>
        <path id="Trazado_704966" data-name="Trazado 704966" d="M410-10071.5H761.968" transform="translate(-410 10121.845)" fill="none" stroke="#b8b8b8" stroke-linecap="round" stroke-width="1" stroke-dasharray="0.1 6"/>
        <path id="Trazado_704957" data-name="Trazado 704957" d="M410-10071.5H761.968" transform="translate(-410 10100)" fill="none" stroke="#b8b8b8" stroke-linecap="round" stroke-width="1" stroke-dasharray="0.1 6"/>
        <path id="Trazado_704963" data-name="Trazado 704963" d="M410-10071.5H761.968" transform="translate(-410 10143.691)" fill="none" stroke="#b8b8b8" stroke-linecap="round" stroke-width="1" stroke-dasharray="0.1 6"/>
        <path id="Trazado_704959" data-name="Trazado 704959" d="M410-10071.5H761.968" transform="translate(-410 10084.808)" fill="none" stroke="#b8b8b8" stroke-linecap="round" stroke-width="1" stroke-dasharray="0.1 6"/>
        <path id="Trazado_704965" data-name="Trazado 704965" d="M410-10071.5H761.968" transform="translate(-410 10128.5)" fill="none" stroke="#b8b8b8" stroke-linecap="round" stroke-width="1" stroke-dasharray="0.1 6"/>
        <path id="Trazado_704956" data-name="Trazado 704956" d="M410-10071.5H761.968" transform="translate(-410 10106.652)" fill="none" stroke="#b8b8b8" stroke-linecap="round" stroke-width="1" stroke-dasharray="0.1 6"/>
        <path id="Trazado_704962" data-name="Trazado 704962" d="M410-10071.5H761.968" transform="translate(-410 10150.345)" fill="none" stroke="#b8b8b8" stroke-linecap="round" stroke-width="1" stroke-dasharray="0.1 6"/>
      </g>
      <g id="Grupo_974121" data-name="Grupo 974121" transform="translate(-1589.923 -6725.332)">
        <path id="Trazado_704961-2" data-name="Trazado 704961" d="M410-10071.5H761.968" transform="translate(-410 10071.5)" fill="none" stroke="#b8b8b8" stroke-linecap="round" stroke-width="1" stroke-dasharray="0.1 6"/>
        <path id="Trazado_704967-2" data-name="Trazado 704967" d="M410-10071.5H761.968" transform="translate(-410 10115.191)" fill="none" stroke="#b8b8b8" stroke-linecap="round" stroke-width="1" stroke-dasharray="0.1 6"/>
        <path id="Trazado_704958-2" data-name="Trazado 704958" d="M410-10071.5H761.968" transform="translate(-410 10093.347)" fill="none" stroke="#b8b8b8" stroke-linecap="round" stroke-width="1" stroke-dasharray="0.1 6"/>
        <path id="Trazado_704960-2" data-name="Trazado 704960" d="M410-10071.5H761.968" transform="translate(-410 10078.153)" fill="none" stroke="#b8b8b8" stroke-linecap="round" stroke-width="1" stroke-dasharray="0.1 6"/>
        <path id="Trazado_704957-2" data-name="Trazado 704957" d="M410-10071.5H761.968" transform="translate(-410 10100)" fill="none" stroke="#b8b8b8" stroke-linecap="round" stroke-width="1" stroke-dasharray="0.1 6"/>
        <path id="Trazado_704959-2" data-name="Trazado 704959" d="M410-10071.5H761.968" transform="translate(-410 10084.808)" fill="none" stroke="#b8b8b8" stroke-linecap="round" stroke-width="1" stroke-dasharray="0.1 6"/>
        <path id="Trazado_704956-2" data-name="Trazado 704956" d="M410-10071.5H761.968" transform="translate(-410 10106.652)" fill="none" stroke="#b8b8b8" stroke-linecap="round" stroke-width="1" stroke-dasharray="0.1 6"/>
      </g>
      <g id="Grupo_974119" data-name="Grupo 974119" transform="translate(-1589.923 -6811.828)">
        <path id="Trazado_704961-3" data-name="Trazado 704961" d="M410-10071.5H761.968" transform="translate(-410 10071.5)" fill="none" stroke="#b8b8b8" stroke-linecap="round" stroke-width="1" stroke-dasharray="0.1 6"/>
        <path id="Trazado_704967-3" data-name="Trazado 704967" d="M410-10071.5H761.968" transform="translate(-410 10115.191)" fill="none" stroke="#b8b8b8" stroke-linecap="round" stroke-width="1" stroke-dasharray="0.1 6"/>
        <path id="Trazado_704958-3" data-name="Trazado 704958" d="M410-10071.5H761.968" transform="translate(-410 10093.347)" fill="none" stroke="#b8b8b8" stroke-linecap="round" stroke-width="1" stroke-dasharray="0.1 6"/>
        <path id="Trazado_704964-2" data-name="Trazado 704964" d="M410-10071.5H761.968" transform="translate(-410 10137.039)" fill="none" stroke="#b8b8b8" stroke-linecap="round" stroke-width="1" stroke-dasharray="0.1 6"/>
        <path id="Trazado_704960-3" data-name="Trazado 704960" d="M410-10071.5H761.968" transform="translate(-410 10078.153)" fill="none" stroke="#b8b8b8" stroke-linecap="round" stroke-width="1" stroke-dasharray="0.1 6"/>
        <path id="Trazado_704966-2" data-name="Trazado 704966" d="M410-10071.5H761.968" transform="translate(-410 10121.845)" fill="none" stroke="#b8b8b8" stroke-linecap="round" stroke-width="1" stroke-dasharray="0.1 6"/>
        <path id="Trazado_704957-3" data-name="Trazado 704957" d="M410-10071.5H761.968" transform="translate(-410 10100)" fill="none" stroke="#b8b8b8" stroke-linecap="round" stroke-width="1" stroke-dasharray="0.1 6"/>
        <path id="Trazado_704963-2" data-name="Trazado 704963" d="M410-10071.5H761.968" transform="translate(-410 10143.691)" fill="none" stroke="#b8b8b8" stroke-linecap="round" stroke-width="1" stroke-dasharray="0.1 6"/>
        <path id="Trazado_704959-3" data-name="Trazado 704959" d="M410-10071.5H761.968" transform="translate(-410 10084.808)" fill="none" stroke="#b8b8b8" stroke-linecap="round" stroke-width="1" stroke-dasharray="0.1 6"/>
        <path id="Trazado_704965-2" data-name="Trazado 704965" d="M410-10071.5H761.968" transform="translate(-410 10128.5)" fill="none" stroke="#b8b8b8" stroke-linecap="round" stroke-width="1" stroke-dasharray="0.1 6"/>
        <path id="Trazado_704956-3" data-name="Trazado 704956" d="M410-10071.5H761.968" transform="translate(-410 10106.652)" fill="none" stroke="#b8b8b8" stroke-linecap="round" stroke-width="1" stroke-dasharray="0.1 6"/>
        <path id="Trazado_704962-2" data-name="Trazado 704962" d="M410-10071.5H761.968" transform="translate(-410 10150.345)" fill="none" stroke="#b8b8b8" stroke-linecap="round" stroke-width="1" stroke-dasharray="0.1 6"/>
      </g>
      <g id="Grupo_974122" data-name="Grupo 974122" transform="translate(-1569.183 -6871.604)">
        <g id="Grupo_974117" data-name="Grupo 974117" transform="translate(0 39.513)">
          <g id="Elipse_4232" data-name="Elipse 4232" transform="translate(0 10.433)" fill="#fff" stroke="red" stroke-width="1">
            <circle cx="19.56" cy="19.56" r="19.56" stroke="none"/>
            <circle cx="19.56" cy="19.56" r="19.06" fill="none"/>
          </g>
          <path id="Trazado_704944" data-name="Trazado 704944" d="M453-9891v10.433" transform="translate(-433.44 9939.249)" fill="none" stroke="red" stroke-width="1"/>
          <path id="Trazado_704945" data-name="Trazado 704945" d="M453-9891v10.433" transform="translate(-433.44 9890.999)" fill="none" stroke="red" stroke-width="1"/>
          <path id="Trazado_704946" data-name="Trazado 704946" d="M436.333-9985.462a5.028,5.028,0,0,1,5.607-4.518c5.216.248,4.39,4.518,4.39,4.518s-1.521,5.88,4.477,5.387,5.086-5.387,5.086-5.387" transform="translate(-426.553 10014.247)" fill="none" stroke="red" stroke-width="1"/>
        </g>
        <g id="Trazado_705124" data-name="Trazado 705124" transform="translate(84.008 109.932)" fill="#272121">
          <path d="M 32.10074234008789 8.628204345703125 L 0.5000030994415283 8.628204345703125 L 0.5000030994415283 0.5000045299530029 L 32.10074234008789 0.5000045299530029 L 32.10074234008789 8.628204345703125 Z" stroke="none"/>
          <path d="M 1.000003814697266 1.000004768371582 L 1.000003814697266 8.128204345703125 L 31.60074234008789 8.128204345703125 L 31.60074234008789 1.000004768371582 L 1.000003814697266 1.000004768371582 M 3.814697265625e-06 4.76837158203125e-06 L 32.60074234008789 4.76837158203125e-06 L 32.60074234008789 9.128204345703125 L 3.814697265625e-06 9.128204345703125 L 3.814697265625e-06 4.76837158203125e-06 Z" stroke="none" fill="red"/>
        </g>
        <g id="Trazado_705125" data-name="Trazado 705125" transform="translate(116.609 135.687) rotate(180)" fill="#272121">
          <path d="M 32.10074234008789 8.628204345703125 L 0.5000030994415283 8.628204345703125 L 0.5000030994415283 0.5000045299530029 L 32.10074234008789 0.5000045299530029 L 32.10074234008789 8.628204345703125 Z" stroke="none"/>
          <path d="M 1.000003814697266 1.000004768371582 L 1.000003814697266 8.128204345703125 L 31.60074234008789 8.128204345703125 L 31.60074234008789 1.000004768371582 L 1.000003814697266 1.000004768371582 M 3.814697265625e-06 4.76837158203125e-06 L 32.60074234008789 4.76837158203125e-06 L 32.60074234008789 9.128204345703125 L 3.814697265625e-06 9.128204345703125 L 3.814697265625e-06 4.76837158203125e-06 Z" stroke="none" fill="red"/>
        </g>
        <path id="Trazado_705126" data-name="Trazado 705126" d="M0,0V16.952" transform="translate(100.309 93.631)" fill="none" stroke="red" stroke-width="1"/>
        <path id="Trazado_705127" data-name="Trazado 705127" d="M0,0V16.952" transform="translate(100.309 151.987) rotate(180)" fill="none" stroke="red" stroke-width="1"/>
        <path id="Trazado_704947" data-name="Trazado 704947" d="M505.564-10038.666v7.823l5.433,3.912-10,3.479,10,4.78-10,3.477,10,4.348-10,3.913,4.564,3.042v10" transform="translate(-405.255 10039.493)" fill="none" stroke="#c82525" stroke-width="1"/>
        <path id="Trazado_704948" data-name="Trazado 704948" d="M506.145-10039.295v8.693l4.852,3.87-10,3.479,10,4.781-10,3.478,10,4.347-10,3.912,6.2,3.219v10" transform="translate(-292.702 10039.295)" fill="none" stroke="#c82525" stroke-width="1"/>
        <path id="Trazado_705128" data-name="Trazado 705128" d="M4.247,8.617H2.729V12H.825V2.758H4.259a3.882,3.882,0,0,1,2.526.73,2.519,2.519,0,0,1,.889,2.063,2.843,2.843,0,0,1-.409,1.577A2.792,2.792,0,0,1,6.024,8.134l2,3.777V12H5.979ZM2.729,7.074H4.266a1.573,1.573,0,0,0,1.111-.365A1.3,1.3,0,0,0,5.77,5.7,1.4,1.4,0,0,0,5.4,4.675,1.543,1.543,0,0,0,4.259,4.3H2.729ZM13.381,12H11.546V4.929l-2.19.679V4.116l3.828-1.371h.2Z" transform="translate(111.513 9.99)" fill="#12263f"/>
        <path id="Trazado_705129" data-name="Trazado 705129" d="M6.386,8.223H2.729V12H.825V2.758H6.843V4.3H2.729V6.687H6.386Zm4.977,1.485,2.095-6.951h2.12L12.359,12H10.372L7.167,2.758H9.28Zm9.826.387H17.85L17.215,12H15.19l3.44-9.242H20.4L23.854,12H21.83ZM18.364,8.553h2.311L19.513,5.094Zm13.476.368a3.27,3.27,0,0,1-1.1,2.349,3.868,3.868,0,0,1-2.618.857,3.478,3.478,0,0,1-2.8-1.2,4.906,4.906,0,0,1-1.019-3.285V7.081a5.54,5.54,0,0,1,.47-2.349,3.52,3.52,0,0,1,1.343-1.558,4.2,4.2,0,0,1,4.605.314,3.515,3.515,0,0,1,1.13,2.406h-1.9a1.93,1.93,0,0,0-.5-1.3,1.845,1.845,0,0,0-1.3-.4,1.618,1.618,0,0,0-1.425.682,3.824,3.824,0,0,0-.486,2.117v.7a4.093,4.093,0,0,0,.454,2.19,1.588,1.588,0,0,0,1.431.692,1.88,1.88,0,0,0,1.317-.4,1.821,1.821,0,0,0,.5-1.247Z" transform="translate(48.781 56.729)" fill="#12263f"/>
        <path id="Trazado_705130" data-name="Trazado 705130" d="M3.911,10H2.5V4.561L.815,5.083V3.936L3.76,2.881h.151Zm7.095-2.939a3.6,3.6,0,0,1-.61,2.256,2.13,2.13,0,0,1-1.787.781,2.145,2.145,0,0,1-1.777-.767,3.5,3.5,0,0,1-.63-2.2V5.825a3.554,3.554,0,0,1,.618-2.261A2.146,2.146,0,0,1,8.6,2.793a2.148,2.148,0,0,1,1.777.764,3.485,3.485,0,0,1,.63,2.195ZM9.595,5.622a2.6,2.6,0,0,0-.242-1.288.817.817,0,0,0-.754-.4.8.8,0,0,0-.735.384,2.436,2.436,0,0,0-.251,1.2v1.73a2.733,2.733,0,0,0,.237,1.293.806.806,0,0,0,.759.423.792.792,0,0,0,.747-.406,2.667,2.667,0,0,0,.239-1.241Zm7.148,1.439a3.6,3.6,0,0,1-.61,2.256,2.13,2.13,0,0,1-1.787.781,2.145,2.145,0,0,1-1.777-.767,3.5,3.5,0,0,1-.63-2.2V5.825a3.554,3.554,0,0,1,.618-2.261,2.146,2.146,0,0,1,1.78-.771,2.148,2.148,0,0,1,1.777.764,3.485,3.485,0,0,1,.63,2.195ZM15.332,5.622a2.6,2.6,0,0,0-.242-1.288.817.817,0,0,0-.754-.4.8.8,0,0,0-.735.384,2.436,2.436,0,0,0-.251,1.2v1.73a2.733,2.733,0,0,0,.237,1.293.806.806,0,0,0,.759.423.792.792,0,0,0,.747-.406,2.667,2.667,0,0,0,.239-1.241Z" transform="translate(111.513 26.498)" fill="#12263f"/>
        <path id="Trazado_705131" data-name="Trazado 705131" d="M3.911,10H2.5V4.561L.815,5.083V3.936L3.76,2.881h.151Zm7.183,0H6.221V9.033l2.3-2.451a5.674,5.674,0,0,0,.7-.9,1.451,1.451,0,0,0,.227-.732A1.086,1.086,0,0,0,9.209,4.2a.864.864,0,0,0-.684-.271.931.931,0,0,0-.754.33,1.306,1.306,0,0,0-.276.867H6.079a2.331,2.331,0,0,1,.31-1.187A2.185,2.185,0,0,1,7.266,3.1,2.664,2.664,0,0,1,8.55,2.793a2.522,2.522,0,0,1,1.707.527,1.866,1.866,0,0,1,.608,1.489,2.39,2.39,0,0,1-.273,1.074,5.97,5.97,0,0,1-.937,1.274l-1.616,1.7h3.057Zm5.649-2.939a3.6,3.6,0,0,1-.61,2.256,2.13,2.13,0,0,1-1.787.781,2.145,2.145,0,0,1-1.777-.767,3.5,3.5,0,0,1-.63-2.2V5.825a3.554,3.554,0,0,1,.618-2.261,2.146,2.146,0,0,1,1.78-.771,2.148,2.148,0,0,1,1.777.764,3.485,3.485,0,0,1,.63,2.195ZM15.332,5.622a2.6,2.6,0,0,0-.242-1.288.817.817,0,0,0-.754-.4.8.8,0,0,0-.735.384,2.436,2.436,0,0,0-.251,1.2v1.73a2.733,2.733,0,0,0,.237,1.293.806.806,0,0,0,.759.423.792.792,0,0,0,.747-.406,2.667,2.667,0,0,0,.239-1.241Zm7.632,2.616,1.611-5.347h1.631L23.73,10H22.2L19.736,2.891h1.626Zm7.559.3H27.954L27.466,10H25.908l2.646-7.109h1.357L32.573,10H31.016ZM28.35,7.349h1.777l-.894-2.661Zm10.366.283a2.516,2.516,0,0,1-.847,1.807,2.975,2.975,0,0,1-2.014.659,2.675,2.675,0,0,1-2.151-.92A3.774,3.774,0,0,1,32.92,6.65V6.216a4.262,4.262,0,0,1,.361-1.807,2.708,2.708,0,0,1,1.033-1.2,3.227,3.227,0,0,1,3.542.242A2.7,2.7,0,0,1,38.726,5.3H37.261a1.485,1.485,0,0,0-.383-1,1.419,1.419,0,0,0-1-.31,1.245,1.245,0,0,0-1.1.525A2.942,2.942,0,0,0,34.4,6.147v.537a3.149,3.149,0,0,0,.349,1.685,1.222,1.222,0,0,0,1.1.532,1.446,1.446,0,0,0,1.013-.31,1.4,1.4,0,0,0,.383-.959Z" transform="translate(48.781 71.073)" fill="#12263f"/>
        <path id="Trazado_705132" data-name="Trazado 705132" d="M3.911,10H2.5V4.561L.815,5.083V3.936L3.76,2.881h.151Zm7.095-2.939a3.6,3.6,0,0,1-.61,2.256,2.13,2.13,0,0,1-1.787.781,2.145,2.145,0,0,1-1.777-.767,3.5,3.5,0,0,1-.63-2.2V5.825a3.554,3.554,0,0,1,.618-2.261A2.146,2.146,0,0,1,8.6,2.793a2.148,2.148,0,0,1,1.777.764,3.485,3.485,0,0,1,.63,2.195ZM9.595,5.622a2.6,2.6,0,0,0-.242-1.288.817.817,0,0,0-.754-.4.8.8,0,0,0-.735.384,2.436,2.436,0,0,0-.251,1.2v1.73a2.733,2.733,0,0,0,.237,1.293.806.806,0,0,0,.759.423.792.792,0,0,0,.747-.406,2.667,2.667,0,0,0,.239-1.241Zm3.721-.9.044.61a1.845,1.845,0,0,1,1.519-.708,1.533,1.533,0,0,1,1.25.493,2.3,2.3,0,0,1,.42,1.475V10H15.137V6.621a.915.915,0,0,0-.2-.652.874.874,0,0,0-.649-.2.971.971,0,0,0-.894.508V10H11.987V4.717Z" transform="translate(120.318 122.945)" fill="#12263f"/>
        <path id="Trazado_705133" data-name="Trazado 705133" d="M5.356,10H.483V9.033l2.3-2.451a5.674,5.674,0,0,0,.7-.9,1.451,1.451,0,0,0,.227-.732A1.086,1.086,0,0,0,3.472,4.2a.864.864,0,0,0-.684-.271.931.931,0,0,0-.754.33,1.306,1.306,0,0,0-.276.867H.342A2.331,2.331,0,0,1,.652,3.94,2.185,2.185,0,0,1,1.528,3.1a2.664,2.664,0,0,1,1.284-.305,2.522,2.522,0,0,1,1.707.527A1.866,1.866,0,0,1,5.127,4.81a2.39,2.39,0,0,1-.273,1.074,5.97,5.97,0,0,1-.937,1.274L2.3,8.862H5.356Zm5.649-2.939a3.6,3.6,0,0,1-.61,2.256,2.13,2.13,0,0,1-1.787.781,2.145,2.145,0,0,1-1.777-.767,3.5,3.5,0,0,1-.63-2.2V5.825a3.554,3.554,0,0,1,.618-2.261A2.146,2.146,0,0,1,8.6,2.793a2.148,2.148,0,0,1,1.777.764,3.485,3.485,0,0,1,.63,2.195ZM9.595,5.622a2.6,2.6,0,0,0-.242-1.288.817.817,0,0,0-.754-.4.8.8,0,0,0-.735.384,2.436,2.436,0,0,0-.251,1.2v1.73a2.733,2.733,0,0,0,.237,1.293.806.806,0,0,0,.759.423.792.792,0,0,0,.747-.406,2.667,2.667,0,0,0,.239-1.241Zm7.148,1.439a3.6,3.6,0,0,1-.61,2.256,2.13,2.13,0,0,1-1.787.781,2.145,2.145,0,0,1-1.777-.767,3.5,3.5,0,0,1-.63-2.2V5.825a3.554,3.554,0,0,1,.618-2.261,2.146,2.146,0,0,1,1.78-.771,2.148,2.148,0,0,1,1.777.764,3.485,3.485,0,0,1,.63,2.195ZM15.332,5.622a2.6,2.6,0,0,0-.242-1.288.817.817,0,0,0-.754-.4.8.8,0,0,0-.735.384,2.436,2.436,0,0,0-.251,1.2v1.73a2.733,2.733,0,0,0,.237,1.293.806.806,0,0,0,.759.423.792.792,0,0,0,.747-.406,2.667,2.667,0,0,0,.239-1.241Z" transform="translate(224.64 24.334)" fill="#12263f"/>
        <path id="Trazado_705134" data-name="Trazado 705134" d="M3.911,10H2.5V4.561L.815,5.083V3.936L3.76,2.881h.151ZM7.6,4.717l.044.591a1.857,1.857,0,0,1,1.519-.688,1.409,1.409,0,0,1,1.4.806,1.814,1.814,0,0,1,1.587-.806,1.576,1.576,0,0,1,1.279.5,2.3,2.3,0,0,1,.42,1.506V10H12.437V6.631a1.006,1.006,0,0,0-.176-.657.779.779,0,0,0-.62-.208.881.881,0,0,0-.879.605l0,3.628H9.355V6.636a.994.994,0,0,0-.181-.664.787.787,0,0,0-.615-.205.914.914,0,0,0-.869.5V10H6.279V4.717ZM20.815,10H19.351V6.953H16.494V10H15.029V2.891h1.465V5.771h2.856V2.891h1.465Z" transform="translate(222.439 124.25)" fill="#12263f"/>
        <path id="Trazado_705135" data-name="Trazado 705135" d="M8.081,8.921a3.27,3.27,0,0,1-1.1,2.349,3.868,3.868,0,0,1-2.618.857,3.478,3.478,0,0,1-2.8-1.2A4.906,4.906,0,0,1,.546,7.646V7.081a5.54,5.54,0,0,1,.47-2.349A3.52,3.52,0,0,1,2.358,3.174a3.761,3.761,0,0,1,2.028-.543,3.768,3.768,0,0,1,2.577.857,3.515,3.515,0,0,1,1.13,2.406h-1.9a1.93,1.93,0,0,0-.5-1.3,1.845,1.845,0,0,0-1.3-.4,1.618,1.618,0,0,0-1.425.682,3.824,3.824,0,0,0-.486,2.117v.7a4.093,4.093,0,0,0,.454,2.19,1.588,1.588,0,0,0,1.431.692,1.88,1.88,0,0,0,1.317-.4,1.821,1.821,0,0,0,.5-1.247ZM13.59,12H11.756V4.929l-2.19.679V4.116l3.828-1.371h.2Z" transform="translate(120.318 109.932)" fill="#12263f"/>
        <path id="Trazado_705136" data-name="Trazado 705136" d="M2.729,10.47H6.773V12H.825V2.758h1.9ZM12.124,12H10.29V4.929L8.1,5.608V4.116l3.828-1.371h.2Z" transform="translate(222.439 109.932)" fill="#12263f"/>
        <path id="Trazado_705137" data-name="Trazado 705137" d="M3.593,7.137H2.31V10H.7V2.18H3.6A3.285,3.285,0,0,1,5.742,2.8a2.132,2.132,0,0,1,.752,1.746,2.406,2.406,0,0,1-.346,1.335,2.363,2.363,0,0,1-1.05.851l1.692,3.2V10H5.06ZM2.31,5.832h1.3a1.331,1.331,0,0,0,.94-.309,1.1,1.1,0,0,0,.333-.851,1.182,1.182,0,0,0-.314-.87A1.306,1.306,0,0,0,3.6,3.485H2.31ZM12.912,10H7.552V8.937l2.53-2.7a6.241,6.241,0,0,0,.771-.994,1.6,1.6,0,0,0,.25-.806,1.2,1.2,0,0,0-.263-.819.95.95,0,0,0-.752-.3,1.025,1.025,0,0,0-.83.363,1.436,1.436,0,0,0-.3.953H7.4a2.564,2.564,0,0,1,.341-1.305A2.4,2.4,0,0,1,8.7,2.408a2.93,2.93,0,0,1,1.413-.336,2.775,2.775,0,0,1,1.877.58,2.052,2.052,0,0,1,.669,1.638,2.629,2.629,0,0,1-.3,1.182,6.567,6.567,0,0,1-1.031,1.4L9.55,8.749h3.362Z" transform="translate(224.64 11.321)" fill="#12263f"/>
        <path id="Trazado_704949" data-name="Trazado 704949" d="M593.95-9965.891v9.909s-7.483-.683-7.5,4.055,7.194,4.174,7.194,4.174-7.53-.033-7.642,4.379,6.113,4.226,7.642,4.226-7.753-.443-7.642,4.424,7.642,4.705,7.642,4.705-7.921.3-7.642,4.542,7.642,4.587,7.642,4.587v8.869" transform="translate(-379.415 10060.497)" fill="none" stroke="#c82525" stroke-width="1"/>
      </g>
      <g id="Grupo_974130" data-name="Grupo 974130" transform="translate(-1549.606 -6885.189)">
        <path id="Trazado_704970" data-name="Trazado 704970" d="M-1473.609-8818.692V-8833l-80.876.138v53.928" transform="translate(1554.485 8833)" fill="none" stroke="#029e1c" stroke-width="1"/>
        <path id="Trazado_704971" data-name="Trazado 704971" d="M0,0V48.608" transform="translate(80.876 58.881)" fill="none" stroke="#029e1c" stroke-width="1"/>
        <path id="Trazado_704975" data-name="Trazado 704975" d="M0,0V37.419" transform="translate(80.876 165.453)" fill="none" stroke="#029e1c" stroke-width="1"/>
      </g>
      <path id="Trazado_704972" data-name="Trazado 704972" d="M-1554.667-7530.5v55.029" transform="translate(5.06 757.019)" fill="#3cb14d" stroke="#3cb14d" stroke-width="1"/>
      <path id="Trazado_704973" data-name="Trazado 704973" d="M-1367.922-6859.355v-13.207l-113.411-.1" transform="translate(12.236 -12.156)" fill="none" stroke="#029e1c" stroke-width="1"/>
      <path id="Trazado_704974" data-name="Trazado 704974" d="M-1377.333-6819.334v50.626" transform="translate(22.696 -7.892)" fill="none" stroke="#029e1c" stroke-width="1"/>
      <path id="Trazado_704976" data-name="Trazado 704976" d="M-1556-6736.264v27.88h194.969v-32.283" transform="translate(6.394 16.527)" fill="none" stroke="#029e1c" stroke-width="1"/>
      <path id="Trazado_705140" data-name="Trazado 705140" d="M2.751,0A2.751,2.751,0,1,1,0,2.751,2.751,2.751,0,0,1,2.751,0Z" transform="translate(-1562.279 -6804.848)" fill="red"/>
      <path id="Trazado_704977" data-name="Trazado 704977" d="M-1377.333-6820.342h26.964" transform="translate(22.696 8.514)" fill="none" stroke="#029e1c" stroke-width="1"/>
      <g id="Trazado_705141" data-name="Trazado 705141" transform="translate(-1315.751 -6819.155)" fill="#c8c8aa">
        <path d="M 68.83606719970703 58.93091583251953 L 0.5000035762786865 58.93091583251953 L 0.5000035762786865 0.5000060200691223 L 68.83606719970703 0.5000060200691223 L 68.83606719970703 58.93091583251953 Z" stroke="none"/>
        <path d="M 1 0.9999961853027344 L 1 58.43090438842773 L 68.33606719970703 58.43090438842773 L 68.33606719970703 0.9999961853027344 L 1 0.9999961853027344 M 0 -3.814697265625e-06 L 69.33606719970703 -3.814697265625e-06 L 69.33606719970703 59.43090438842773 L 0 59.43090438842773 L 0 -3.814697265625e-06 Z" stroke="none" fill="red"/>
      </g>
      <g id="Trazado_705142" data-name="Trazado 705142" transform="translate(-1298.141 -6878.586)" fill="#272121">
        <path d="M 145.8761291503906 172.2898712158203 L 0.4999993443489075 172.2898712158203 L 0.4999993443489075 0.5000008344650269 L 145.8761291503906 0.5000008344650269 L 145.8761291503906 172.2898712158203 Z" stroke="none"/>
        <path d="M 1 1 L 1 171.7898712158203 L 145.3761291503906 171.7898712158203 L 145.3761291503906 1 L 1 1 M 0 0 L 146.3761291503906 0 L 146.3761291503906 172.7898712158203 L 0 172.7898712158203 L 0 0 Z" stroke="none" fill="red"/>
      </g>
      <path id="Trazado_704978" data-name="Trazado 704978" d="M-1340.877-6820.342h-12.29" transform="translate(25.126 8.514)" fill="none" stroke="red" stroke-width="1"/>
      <path id="Trazado_704979" data-name="Trazado 704979" d="M-1340.877-6820.342h-12.29" transform="translate(25.126 21.547)" fill="none" stroke="red" stroke-width="1"/>
      <path id="Trazado_704980" data-name="Trazado 704980" d="M-1340.877-6820.342h-12.29" transform="translate(25.126 36.955)" fill="none" stroke="red" stroke-width="1"/>
      <path id="Trazado_704981" data-name="Trazado 704981" d="M-1340.877-6820.342h-12.29" transform="translate(25.126 52.363)" fill="none" stroke="red" stroke-width="1"/>
      <path id="Trazado_704982" data-name="Trazado 704982" d="M0,3.7,3.4,0l3.4,3.7" transform="matrix(-0.07, -0.998, 0.998, -0.07, -1508.695, -6688.34)" fill="none" stroke="#029e1c" stroke-width="1"/>
      <path id="Trazado_704986" data-name="Trazado 704986" d="M0,3.7,3.4,0l3.4,3.7" transform="matrix(-0.07, -0.998, 0.998, -0.07, -1411.844, -6881.793)" fill="none" stroke="#029e1c" stroke-width="1"/>
      <path id="Trazado_704983" data-name="Trazado 704983" d="M0,3.7,3.4,0l3.4,3.7" transform="translate(-1553.002 -6734.835)" fill="none" stroke="#029e1c" stroke-width="1"/>
      <path id="Trazado_704988" data-name="Trazado 704988" d="M0,3.7,3.4,0l3.4,3.7" transform="translate(-1358.033 -6707.998)" fill="none" stroke="#029e1c" stroke-width="1"/>
      <path id="Trazado_704989" data-name="Trazado 704989" d="M0,3.7,3.4,0l3.4,3.7" transform="translate(-1358.033 -6803.949)" fill="none" stroke="#029e1c" stroke-width="1"/>
      <path id="Trazado_704990" data-name="Trazado 704990" d="M0,3.7,3.4,0l3.4,3.7" transform="translate(-1358.033 -6820.577)" fill="none" stroke="#029e1c" stroke-width="1"/>
      <path id="Trazado_704984" data-name="Trazado 704984" d="M0,3.7,3.4,0l3.4,3.7" transform="translate(-1553.002 -6858.899)" fill="none" stroke="#029e1c" stroke-width="1"/>
      <path id="Trazado_704985" data-name="Trazado 704985" d="M0,3.7,3.4,0l3.4,3.7" transform="translate(-1508.627 -6888.585) rotate(90)" fill="none" stroke="#029e1c" stroke-width="1"/>
      <path id="Trazado_704987" data-name="Trazado 704987" d="M0,3.7,3.4,0l3.4,3.7" transform="translate(-1408.614 -6695.373) rotate(90)" fill="none" stroke="#029e1c" stroke-width="1"/>
      <path id="Trazado_705143" data-name="Trazado 705143" d="M3.3,0A3.3,3.3,0,1,1,0,3.3,3.3,3.3,0,0,1,3.3,0Z" transform="translate(-1472.032 -6694.791)" fill="#029e1c"/>
      <path id="Trazado_705144" data-name="Trazado 705144" d="M3.3,0A3.3,3.3,0,1,1,0,3.3,3.3,3.3,0,0,1,3.3,0Z" transform="translate(-1472.032 -6888.491)" fill="#029e1c"/>
      <path id="Trazado_705145" data-name="Trazado 705145" d="M3.3,0A3.3,3.3,0,1,1,0,3.3,3.3,3.3,0,0,1,3.3,0Z" transform="translate(-1357.572 -6814.753)" fill="#029e1c"/>
      <path id="Trazado_705138" data-name="Trazado 705138" d="M3.254,5.975h-1.8L1.114,7H.024L1.876,2.023h.95L4.689,7H3.6ZM1.733,5.144H2.977L2.352,3.281Z" transform="translate(-1312.449 -6816.873)" fill="#12263f"/>
      <path id="Trazado_705146" data-name="Trazado 705146" d="M.444,7V2.023H2.188a2.289,2.289,0,0,1,1.374.347A1.186,1.186,0,0,1,4.03,3.387a1.124,1.124,0,0,1-.188.644,1.086,1.086,0,0,1-.523.408,1.051,1.051,0,0,1,.6.386,1.142,1.142,0,0,1,.22.711,1.313,1.313,0,0,1-.458,1.087A2.062,2.062,0,0,1,2.379,7ZM1.47,4.833V6.176h.878A.848.848,0,0,0,2.914,6a.592.592,0,0,0,.2-.477.625.625,0,0,0-.708-.694Zm0-.725h.759Q3,4.095,3,3.49A.572.572,0,0,0,2.808,3a1.034,1.034,0,0,0-.62-.149H1.47Z" transform="translate(-1312.449 -6804.298)" fill="#12263f"/>
      <path id="Trazado_705147" data-name="Trazado 705147" d="M4.351,5.342a1.761,1.761,0,0,1-.593,1.265,2.083,2.083,0,0,1-1.41.461A1.873,1.873,0,0,1,.843,6.424,2.642,2.642,0,0,1,.294,4.655v-.3A2.983,2.983,0,0,1,.547,3.086a1.9,1.9,0,0,1,.723-.839,2.025,2.025,0,0,1,1.092-.292,2.029,2.029,0,0,1,1.388.461,1.892,1.892,0,0,1,.608,1.3H3.333a1.039,1.039,0,0,0-.268-.7.994.994,0,0,0-.7-.217.871.871,0,0,0-.767.367A2.059,2.059,0,0,0,1.333,4.3v.376a2.2,2.2,0,0,0,.244,1.179.855.855,0,0,0,.771.373,1.012,1.012,0,0,0,.709-.217.98.98,0,0,0,.268-.672Z" transform="translate(-1312.449 -6789.44)" fill="#12263f"/>
      <path id="Trazado_705148" data-name="Trazado 705148" d="M.444,7V2.023H1.976a2.325,2.325,0,0,1,1.174.3,2.062,2.062,0,0,1,.808.841A2.593,2.593,0,0,1,4.249,4.4v.229a2.6,2.6,0,0,1-.285,1.234,2.044,2.044,0,0,1-.8.837A2.343,2.343,0,0,1,1.986,7ZM1.47,2.854V6.176h.5a1.114,1.114,0,0,0,.919-.393,1.776,1.776,0,0,0,.325-1.125V4.4A1.8,1.8,0,0,0,2.9,3.245a1.11,1.11,0,0,0-.919-.391Z" transform="translate(-1312.449 -6774.032)" fill="#12263f"/>
      <path id="Trazado_704995" data-name="Trazado 704995" d="M-1326-6763h146.743" transform="translate(27.859 14.281)" fill="none" stroke="#00b41e" stroke-width="1"/>
      <path id="Trazado_704996" data-name="Trazado 704996" d="M-1326-6763h146.743" transform="translate(27.859 -13.6)" fill="none" stroke="red" stroke-width="1"/>
      <path id="Trazado_704997" data-name="Trazado 704997" d="M-1326-6763h146.743" transform="translate(27.859 -43.774)" fill="none" stroke="#25a1ff" stroke-width="1"/>
      <path id="Trazado_704998" data-name="Trazado 704998" d="M-1255.333-7154.581s1.468-26.414,9.538-26.414,10.272,52.094,19.077,52.094,11.006-52.094,19.81-52.094,13.207,52.828,20.544,52.094,7.337-49.893,18.343-52.094,10.272,52.094,19.81,52.094,10.272-52.828,18.343-52.094,19.077,52.094,19.077,52.094" transform="translate(-41.707 334.17)" fill="none" stroke="#ef0" stroke-width="1"/>
    </g>
    <g id="Grupo_974146" data-name="Grupo 974146" transform="translate(34 10.324)">
      <g id="Rectángulo_339710" data-name="Rectángulo 339710" transform="translate(1137 4581.5)" fill="#e8e8e8" stroke="#707070" stroke-width="1">
        <rect width="147.602" height="13" stroke="none"/>
        <rect x="0.5" y="0.5" width="146.602" height="12" fill="none"/>
      </g>
      <path id="Trazado_705123" data-name="Trazado 705123" d="M3.125,10V2.891H5.313a3.322,3.322,0,0,1,1.677.422,2.945,2.945,0,0,1,1.155,1.2,3.7,3.7,0,0,1,.415,1.77v.327a3.715,3.715,0,0,1-.408,1.763A2.92,2.92,0,0,1,7,9.57,3.347,3.347,0,0,1,5.327,10ZM4.59,4.077V8.823H5.3a1.591,1.591,0,0,0,1.313-.562,2.537,2.537,0,0,0,.464-1.606V6.279a2.578,2.578,0,0,0-.449-1.643,1.585,1.585,0,0,0-1.313-.559ZM11.021,10H9.6V4.717h1.416Zm-1.5-6.65a.7.7,0,0,1,.212-.522.915.915,0,0,1,1.155,0,.691.691,0,0,1,.215.522.693.693,0,0,1-.217.527.905.905,0,0,1-1.147,0A.693.693,0,0,1,9.521,3.35Zm2.456,3.97a3.1,3.1,0,0,1,.579-1.958,1.875,1.875,0,0,1,1.56-.742,1.644,1.644,0,0,1,1.353.6l.059-.5h1.279V9.824a2.258,2.258,0,0,1-.315,1.206,2.023,2.023,0,0,1-.886.781,3.116,3.116,0,0,1-1.338.269,2.9,2.9,0,0,1-1.133-.232,2.011,2.011,0,0,1-.835-.6l.625-.859a1.653,1.653,0,0,0,1.279.591,1.21,1.21,0,0,0,.874-.3,1.126,1.126,0,0,0,.313-.852V9.546a1.632,1.632,0,0,1-1.284.552,1.87,1.87,0,0,1-1.541-.745,3.1,3.1,0,0,1-.588-1.975Zm1.411.105a1.928,1.928,0,0,0,.288,1.127.916.916,0,0,0,.791.408.98.98,0,0,0,.923-.484V6.251a.978.978,0,0,0-.913-.484.922.922,0,0,0-.8.416A2.173,2.173,0,0,0,13.389,7.424ZM19.38,10H17.964V4.717H19.38Zm-1.5-6.65a.7.7,0,0,1,.212-.522.915.915,0,0,1,1.155,0,.691.691,0,0,1,.215.522.693.693,0,0,1-.217.527.905.905,0,0,1-1.147,0A.693.693,0,0,1,17.881,3.35Zm4.351.068v1.3h.9V5.752h-.9V8.389a.63.63,0,0,0,.112.42.564.564,0,0,0,.43.127,2.25,2.25,0,0,0,.415-.034V9.971a2.905,2.905,0,0,1-.854.127A1.347,1.347,0,0,1,20.82,8.6V5.752h-.771V4.717h.771v-1.3ZM26.982,10a1.567,1.567,0,0,1-.142-.474,1.707,1.707,0,0,1-1.333.571,1.876,1.876,0,0,1-1.287-.449,1.445,1.445,0,0,1-.51-1.133,1.493,1.493,0,0,1,.623-1.289,3.072,3.072,0,0,1,1.8-.454h.649v-.3a.871.871,0,0,0-.188-.586A.74.74,0,0,0,26,5.664a.841.841,0,0,0-.559.171.581.581,0,0,0-.2.469H23.828a1.417,1.417,0,0,1,.283-.85,1.872,1.872,0,0,1,.8-.613,2.918,2.918,0,0,1,1.162-.222,2.306,2.306,0,0,1,1.55.491A1.717,1.717,0,0,1,28.2,6.489v2.29a2.526,2.526,0,0,0,.21,1.138V10Zm-1.167-.981a1.215,1.215,0,0,0,.576-.139.914.914,0,0,0,.391-.374V7.6h-.527q-1.06,0-1.128.732l0,.083a.565.565,0,0,0,.186.435A.721.721,0,0,0,25.815,9.019ZM30.771,10H29.355V2.5h1.416Zm9.585-3.394a4.292,4.292,0,0,1-.371,1.841,2.8,2.8,0,0,1-1.062,1.221,3.138,3.138,0,0,1-3.162,0,2.822,2.822,0,0,1-1.074-1.213A4.169,4.169,0,0,1,34.3,6.646V6.294a4.269,4.269,0,0,1,.378-1.848A2.818,2.818,0,0,1,35.75,3.22a3.134,3.134,0,0,1,3.159,0,2.818,2.818,0,0,1,1.069,1.226,4.257,4.257,0,0,1,.378,1.843Zm-1.484-.322a2.992,2.992,0,0,0-.4-1.7,1.414,1.414,0,0,0-2.28-.007,2.958,2.958,0,0,0-.405,1.682v.347a3.029,3.029,0,0,0,.4,1.689,1.4,1.4,0,0,0,2.285.022,3.012,3.012,0,0,0,.4-1.687ZM44.189,8.54a.455.455,0,0,0-.256-.408,2.912,2.912,0,0,0-.823-.266q-1.885-.4-1.885-1.6a1.452,1.452,0,0,1,.583-1.174,2.354,2.354,0,0,1,1.526-.471,2.533,2.533,0,0,1,1.609.474,1.493,1.493,0,0,1,.6,1.23H44.136a.683.683,0,0,0-.2-.5.827.827,0,0,0-.61-.2.845.845,0,0,0-.552.161.509.509,0,0,0-.2.41.435.435,0,0,0,.222.378,2.286,2.286,0,0,0,.75.249,6.122,6.122,0,0,1,.889.237,1.46,1.46,0,0,1,1.118,1.421,1.378,1.378,0,0,1-.62,1.169,2.675,2.675,0,0,1-1.6.447,2.794,2.794,0,0,1-1.179-.237,1.978,1.978,0,0,1-.808-.649,1.509,1.509,0,0,1-.293-.891H42.4a.737.737,0,0,0,.278.576,1.1,1.1,0,0,0,.693.2,1.022,1.022,0,0,0,.613-.154A.479.479,0,0,0,44.189,8.54Zm4.478.42a.926.926,0,0,0,.635-.215.753.753,0,0,0,.254-.571h1.323a1.81,1.81,0,0,1-.293.984,1.933,1.933,0,0,1-.789.693,2.468,2.468,0,0,1-1.106.247,2.294,2.294,0,0,1-1.787-.72,2.85,2.85,0,0,1-.654-1.99V7.295A2.817,2.817,0,0,1,46.9,5.347a2.267,2.267,0,0,1,1.782-.728,2.222,2.222,0,0,1,1.589.564,2,2,0,0,1,.608,1.5H49.556a.97.97,0,0,0-.254-.67.944.944,0,0,0-1.389.1,2.083,2.083,0,0,0-.251,1.166v.147A2.109,2.109,0,0,0,47.91,8.6.861.861,0,0,0,48.667,8.96ZM53.174,10H51.758V4.717h1.416Zm-1.5-6.65a.7.7,0,0,1,.212-.522.915.915,0,0,1,1.155,0,.691.691,0,0,1,.215.522.693.693,0,0,1-.217.527.905.905,0,0,1-1.147,0A.693.693,0,0,1,51.675,3.35ZM55.825,10H54.409V2.5h1.416Zm2.651,0H57.061V2.5h1.416Zm.942-2.69a3.133,3.133,0,0,1,.3-1.4,2.216,2.216,0,0,1,.872-.952,2.543,2.543,0,0,1,1.321-.337,2.406,2.406,0,0,1,1.746.654,2.626,2.626,0,0,1,.754,1.777l.01.361a2.761,2.761,0,0,1-.679,1.951,2.631,2.631,0,0,1-3.645,0,2.81,2.81,0,0,1-.681-1.992Zm1.411.1a1.975,1.975,0,0,0,.283,1.152,1.017,1.017,0,0,0,1.611,0,2.161,2.161,0,0,0,.288-1.259,1.955,1.955,0,0,0-.288-1.144.936.936,0,0,0-.811-.406.921.921,0,0,0-.8.4A2.2,2.2,0,0,0,60.83,7.41Zm7.324,1.13a.455.455,0,0,0-.256-.408,2.912,2.912,0,0,0-.823-.266q-1.885-.4-1.885-1.6a1.452,1.452,0,0,1,.583-1.174A2.354,2.354,0,0,1,67.3,4.619a2.533,2.533,0,0,1,1.609.474,1.493,1.493,0,0,1,.6,1.23H68.1a.683.683,0,0,0-.2-.5.827.827,0,0,0-.61-.2.845.845,0,0,0-.552.161.509.509,0,0,0-.2.41.435.435,0,0,0,.222.378,2.285,2.285,0,0,0,.75.249,6.122,6.122,0,0,1,.889.237,1.46,1.46,0,0,1,1.118,1.421,1.378,1.378,0,0,1-.62,1.169,2.675,2.675,0,0,1-1.6.447,2.794,2.794,0,0,1-1.179-.237,1.979,1.979,0,0,1-.808-.649,1.509,1.509,0,0,1-.293-.891h1.338a.737.737,0,0,0,.278.576,1.1,1.1,0,0,0,.693.2,1.022,1.022,0,0,0,.613-.154A.479.479,0,0,0,68.154,8.54Zm4.478.42a.926.926,0,0,0,.635-.215.753.753,0,0,0,.254-.571h1.323a1.81,1.81,0,0,1-.293.984,1.933,1.933,0,0,1-.789.693,2.468,2.468,0,0,1-1.106.247,2.294,2.294,0,0,1-1.787-.72,2.85,2.85,0,0,1-.654-1.99V7.295a2.817,2.817,0,0,1,.649-1.948,2.267,2.267,0,0,1,1.782-.728,2.222,2.222,0,0,1,1.589.564,2,2,0,0,1,.608,1.5H73.521a.97.97,0,0,0-.254-.67.944.944,0,0,0-1.389.1,2.083,2.083,0,0,0-.251,1.166v.147A2.109,2.109,0,0,0,71.875,8.6.861.861,0,0,0,72.632,8.96Zm2.8-1.65a3.133,3.133,0,0,1,.3-1.4,2.216,2.216,0,0,1,.872-.952,2.543,2.543,0,0,1,1.321-.337,2.406,2.406,0,0,1,1.746.654,2.626,2.626,0,0,1,.754,1.777l.01.361a2.761,2.761,0,0,1-.679,1.951,2.631,2.631,0,0,1-3.645,0,2.81,2.81,0,0,1-.681-1.992Zm1.411.1a1.975,1.975,0,0,0,.283,1.152,1.017,1.017,0,0,0,1.611,0,2.161,2.161,0,0,0,.288-1.259,1.955,1.955,0,0,0-.288-1.144.936.936,0,0,0-.811-.406.921.921,0,0,0-.8.4A2.2,2.2,0,0,0,76.841,7.41Zm9.219,0a3.169,3.169,0,0,1-.554,1.956,1.777,1.777,0,0,1-1.5.735,1.646,1.646,0,0,1-1.294-.557v2.49H81.3V4.717h1.309l.049.518A1.658,1.658,0,0,1,84,4.619a1.789,1.789,0,0,1,1.519.723,3.254,3.254,0,0,1,.542,1.992Zm-1.411-.1a2.079,2.079,0,0,0-.261-1.138.851.851,0,0,0-.759-.4.924.924,0,0,0-.913.508V8.438a.94.94,0,0,0,.923.522Q84.648,8.96,84.648,7.3ZM89.365,10.1a2.594,2.594,0,0,1-1.892-.713,2.534,2.534,0,0,1-.73-1.9V7.349a3.192,3.192,0,0,1,.308-1.423,2.258,2.258,0,0,1,.872-.967,2.446,2.446,0,0,1,1.287-.339,2.193,2.193,0,0,1,1.707.684,2.778,2.778,0,0,1,.623,1.938v.576H88.174a1.311,1.311,0,0,0,.413.83,1.247,1.247,0,0,0,.872.313,1.523,1.523,0,0,0,1.274-.591l.693.776a2.118,2.118,0,0,1-.859.7A2.819,2.819,0,0,1,89.365,10.1ZM89.2,5.757a.882.882,0,0,0-.681.284,1.473,1.473,0,0,0-.334.814h1.963V6.743a1.051,1.051,0,0,0-.254-.728A.91.91,0,0,0,89.2,5.757Z" transform="translate(1142.839 4580.5)" fill="#12263f"/>
    </g>
  </g>
</svg>
