<svg xmlns="http://www.w3.org/2000/svg" width="367" height="288" viewBox="0 0 367 288">
  <g id="Grupo_55459" data-name="Grupo 55459" transform="translate(-354 -1343)">
    <rect id="Rectángulo_5199" data-name="Rectángulo 5199" width="367" height="288" transform="translate(354 1343)" fill="#fff"/>
    <g id="Grupo_54826" data-name="Grupo 54826" transform="translate(79 600)">
      <text id="Batería" transform="translate(293 942)" fill="#12263f" font-size="14" font-family="Roboto-Regular, Roboto"><tspan x="0" y="15">Batería</tspan></text>
      <text id="Interruptor" transform="translate(419 766)" fill="#12263f" font-size="14" font-family="Roboto-Regular, Roboto"><tspan x="0" y="15">Interruptor</tspan></text>
      <text id="Bombilla" transform="translate(567 841)" fill="#12263f" font-size="14" font-family="Roboto-Regular, Roboto"><tspan x="0" y="15">Bombilla</tspan></text>
      <text id="Cable" transform="translate(433 987)" fill="#12263f" font-size="14" font-family="Roboto-Regular, Roboto"><tspan x="0" y="15">Cable</tspan></text>
      <line id="Línea_169" data-name="Línea 169" y2="18" transform="translate(453.5 785.5)" fill="none" stroke="#afafaf" stroke-width="1"/>
      <line id="Línea_170" data-name="Línea 170" y2="18" transform="translate(453.5 966)" fill="none" stroke="#afafaf" stroke-width="1"/>
      <g id="Trazado_105743" data-name="Trazado 105743" transform="translate(346 801)" fill="none">
        <path d="M9,0H205a9,9,0,0,1,9,9V159a9,9,0,0,1-9,9H9a9,9,0,0,1-9-9V9A9,9,0,0,1,9,0Z" stroke="none"/>
        <path d="M 9 5 C 6.794403076171875 5 5 6.794403076171875 5 9 L 5 159 C 5 161.2055969238281 6.794403076171875 163 9 163 L 205 163 C 207.2055969238281 163 209 161.2055969238281 209 159 L 209 9 C 209 6.794403076171875 207.2055969238281 5 205 5 L 9 5 M 9 0 L 205 0 C 209.9705657958984 0 214 4.029434204101562 214 9 L 214 159 C 214 163.9705657958984 209.9705657958984 168 205 168 L 9 168 C 4.029434204101562 168 0 163.9705657958984 0 159 L 0 9 C 0 4.029434204101562 4.029434204101562 0 9 0 Z" stroke="none" fill="#727997"/>
      </g>
      <g id="Grupo_54823" data-name="Grupo 54823" transform="translate(-181 -1)">
        <circle id="Elipse_4060" data-name="Elipse 4060" cx="5" cy="5" r="5" transform="translate(613 799)" fill="#12263f"/>
        <circle id="Elipse_4061" data-name="Elipse 4061" cx="5" cy="5" r="5" transform="translate(645 799)" fill="#12263f"/>
      </g>
      <g id="idea" transform="translate(632.874 823.151) rotate(90)">
        <path id="Trazado_105693" data-name="Trazado 105693" d="M220.293,426.021h0a16.113,16.113,0,0,1-11.986,0h0a4.322,4.322,0,0,1-2.714-4.012V410.126h17.415v11.883A4.322,4.322,0,0,1,220.293,426.021Z" transform="translate(-150.36 -334.297)" fill="#afafaf"/>
        <path id="Trazado_105694" data-name="Trazado 105694" d="M249.935,410.127V422.01a4.322,4.322,0,0,1-2.714,4.012h0a16.1,16.1,0,0,1-3.817,1.006,16.111,16.111,0,0,0,8.169-1.006h0a4.322,4.322,0,0,0,2.714-4.012V410.127Z" transform="translate(-181.64 -334.298)" fill="#8a8a8a"/>
        <path id="Trazado_105695" data-name="Trazado 105695" d="M137.93,144.574h20.344a.92.92,0,0,0,.934-.862,32.965,32.965,0,0,1,6.9-18.843,21.192,21.192,0,0,0,4.529-13.091c0-12.074-10.176-21.853-22.695-21.768-12.357.084-22.408,9.9-22.369,21.836a21.183,21.183,0,0,0,4.378,12.826A33.857,33.857,0,0,1,137,143.708.921.921,0,0,0,137.93,144.574Z" transform="translate(-84.159 -69.478)" fill="#ffe926"/>
        <path id="Trazado_105696" data-name="Trazado 105696" d="M245.485,90.011c-.674,0-1.341.04-2,.1,11.417,1.063,20.343,10.358,20.343,21.667A21.192,21.192,0,0,1,259.3,124.87a32.964,32.964,0,0,0-6.9,18.843.92.92,0,0,1-.934.862h4.352a.92.92,0,0,0,.934-.862,32.966,32.966,0,0,1,6.9-18.843,21.193,21.193,0,0,0,4.529-13.091C268.179,99.7,258,89.926,245.485,90.011Z" transform="translate(-181.706 -69.479)" fill="#e5d017"/>
        <path id="Trazado_105697" data-name="Trazado 105697" d="M231.77,379.806H220.288a.519.519,0,0,0-.519.519v4.327h12.52v-4.327A.519.519,0,0,0,231.77,379.806Z" transform="translate(-162.087 -309.215)" fill="#ea5c23"/>
        <path id="Trazado_105698" data-name="Trazado 105698" d="M270.886,379.806h-3.833v4.846H271.4v-4.327A.519.519,0,0,0,270.886,379.806Z" transform="translate(-201.204 -309.215)" fill="#cf460f"/>
        <g id="Grupo_54822" data-name="Grupo 54822" transform="translate(40.13 19.253)">
          <path id="Trazado_105699" data-name="Trazado 105699" d="M165.257,100.808a1.279,1.279,0,1,0-2.5.552,19.919,19.919,0,0,1-3.791,16.6,34.067,34.067,0,0,0-7.148,19.213h-2.308v-2.706a1.8,1.8,0,0,0-1.135-1.67L150.769,115a1.536,1.536,0,0,0-2.138-1.612l-2.983,1.3-3.074-1.309a1.553,1.553,0,0,0-1.3.048l-2.549,1.313-3.45-1.373A1.536,1.536,0,0,0,133.177,115l.962,7.154a1.279,1.279,0,0,0,2.536-.341l-.729-5.422,2.37.943a1.28,1.28,0,0,0,1.059-.051l2.64-1.36,3.139,1.337a1.28,1.28,0,0,0,1.013,0l1.824-.8-2.179,16.206h-7.679l-.643-4.785a1.279,1.279,0,0,0-2.536.341l.615,4.573a1.8,1.8,0,0,0-1.135,1.67v2.706h-2.3a35.069,35.069,0,0,0-7.293-19.4,19.844,19.844,0,0,1-4.116-12.054c-.036-11.253,9.429-20.474,21.1-20.553h.152a21.358,21.358,0,0,1,18.716,10.769,1.279,1.279,0,0,0,2.232-1.25A23.915,23.915,0,0,0,141.971,82.6h-.17c-13.076.089-23.681,10.461-23.64,23.12a22.384,22.384,0,0,0,4.64,13.6,32.49,32.49,0,0,1,6.789,18.315,2.2,2.2,0,0,0,2.212,2.089h.184v10.6a5.575,5.575,0,0,0,3.518,5.2,17.391,17.391,0,0,0,12.938,0,5.575,5.575,0,0,0,3.518-5.2v-10.6h.187a2.195,2.195,0,0,0,2.212-2.084,31.546,31.546,0,0,1,6.626-18.113,22.479,22.479,0,0,0,4.273-18.723Zm-30.712,44.116H149.4v1.734H134.545v-1.734Zm2.447-9.7h9.961v1.946h-9.961v-1.946Zm12.409,4.5v2.638H134.545v-2.638Zm-1.911,13.428a14.833,14.833,0,0,1-11.034,0,3.028,3.028,0,0,1-1.911-2.824v-1.115H149.4v1.115A3.029,3.029,0,0,1,147.49,153.156Z" transform="translate(-118.161 -82.605)" fill="#1a1a1a"/>
        </g>
      </g>
      <g id="Grupo_54825" data-name="Grupo 54825" transform="translate(-473.133 -25.26)">
        <g id="battery" transform="translate(688.133 864.186)">
          <path id="Trazado_105683" data-name="Trazado 105683" d="M159.945,152.281h-42.37A5.575,5.575,0,0,1,112,146.706V77.575A5.575,5.575,0,0,1,117.575,72h42.37a5.575,5.575,0,0,1,5.575,5.575v69.131A5.575,5.575,0,0,1,159.945,152.281Z" transform="translate(-6.513 -58.62)" fill="#afafaf"/>
          <path id="Trazado_105684" data-name="Trazado 105684" d="M343.008,77.575v69.131a5.575,5.575,0,0,1-5.575,5.575H330a5.575,5.575,0,0,0,5.575-5.575V77.575A5.575,5.575,0,0,0,330,72h7.433A5.575,5.575,0,0,1,343.008,77.575Z" transform="translate(-184.001 -58.62)" fill="#8a8a8a"/>
          <path id="Trazado_105685" data-name="Trazado 105685" d="M0,0H65.414V38.654H0Z" transform="translate(151.574 20.814) rotate(90)" fill="#f39e1d"/>
          <path id="Trazado_105686" data-name="Trazado 105686" d="M320,112h7.433v65.414H320Z" transform="translate(-175.86 -91.186)" fill="#ea5c23"/>
          <path id="Trazado_105687" data-name="Trazado 105687" d="M205.734,19.893H176V11.717A3.717,3.717,0,0,1,179.717,8h22.3a3.717,3.717,0,0,1,3.717,3.717Z" transform="translate(-58.62 -6.513)" fill="#afafaf"/>
          <path id="Trazado_105688" data-name="Trazado 105688" d="M287.15,11.717v8.177h-7.433V11.717A3.716,3.716,0,0,0,276,8h7.433A3.716,3.716,0,0,1,287.15,11.717Z" transform="translate(-140.036 -6.513)" fill="#8a8a8a"/>
          <path id="Trazado_105689" data-name="Trazado 105689" d="M219.433,242.76l8.92-16.353H220.92V216L212,232.353h7.433Z" transform="translate(-87.93 -175.86)" fill="#ffe926"/>
          <path id="Trazado_105690" data-name="Trazado 105690" d="M153.432,11.893H148.6V5.2A5.209,5.209,0,0,0,143.4,0H121.1a5.209,5.209,0,0,0-5.2,5.2v6.69h-4.832A7.07,7.07,0,0,0,104,18.955V88.086a7.07,7.07,0,0,0,7.062,7.062h42.37a7.07,7.07,0,0,0,7.062-7.062V18.955A7.07,7.07,0,0,0,153.432,11.893ZM118.867,5.2a2.233,2.233,0,0,1,2.23-2.23h22.3a2.233,2.233,0,0,1,2.23,2.23v6.69h-26.76ZM157.52,88.086a4.093,4.093,0,0,1-4.088,4.088h-42.37a4.093,4.093,0,0,1-4.088-4.088V18.955a4.093,4.093,0,0,1,4.088-4.088h42.37a4.093,4.093,0,0,1,4.088,4.088Z" transform="translate(0)"/>
          <path id="Trazado_105691" data-name="Trazado 105691" d="M184.14,104H145.487A1.487,1.487,0,0,0,144,105.487V170.9a1.487,1.487,0,0,0,1.487,1.487H184.14a1.487,1.487,0,0,0,1.487-1.487V105.487A1.487,1.487,0,0,0,184.14,104Zm-1.487,65.414h-35.68V106.973h35.68Z" transform="translate(-32.567 -84.673)"/>
          <path id="Trazado_105692" data-name="Trazado 105692" d="M205.48,227.332h5.947v8.92a1.488,1.488,0,0,0,2.792.712l8.92-16.353a1.488,1.488,0,0,0-1.305-2.2h-5.947v-8.92a1.488,1.488,0,0,0-2.792-.712l-8.92,16.353A1.488,1.488,0,0,0,205.48,227.332Zm7.433-12.01V219.9a1.487,1.487,0,0,0,1.487,1.487h4.929l-4.929,9.037v-4.577a1.487,1.487,0,0,0-1.487-1.487h-4.929Z" transform="translate(-81.41 -169.352)"/>
        </g>
        <text id="_" data-name="+" transform="translate(815 885)" font-size="13" font-family="Roboto-Black, Roboto" font-weight="800"><tspan x="-3.472" y="14">+</tspan></text>
        <text id="_-" data-name="-" transform="translate(815 937)" font-size="13" font-family="Roboto-Black, Roboto" font-weight="800"><tspan x="-2.923" y="14">-</tspan></text>
      </g>
    </g>
  </g>
</svg>
