<svg xmlns="http://www.w3.org/2000/svg" width="170" height="172.712" viewBox="0 0 170 172.712"><g transform="translate(-0.501 -0.001)"><path d="M159.295,132.216A75.417,75.417,0,1,1,83.876,56.777a75.429,75.429,0,0,1,75.419,75.439Zm0,0" transform="translate(-5.275 -37.624)" fill="#937de2"/><path d="M209.053,56.777a76.086,76.086,0,0,0-11.725.908,75.446,75.446,0,0,1,.007,149.057A75.44,75.44,0,1,0,209.053,56.777Zm0,0" transform="translate(-130.472 -37.624)" fill="#7570d6"/><path d="M283.279,94.978,240.2,123.5a14.669,14.669,0,0,1-10.42,2.259,14.718,14.718,0,0,0-10.445,2.253l-5.765,3.82L181.286,84.247l7.921-34.219a35.7,35.7,0,0,0-5.016-27.773,8.539,8.539,0,0,1,13.062-10.846l5.131,4.97a54.858,54.858,0,0,1,13.239,20.292l2.783,7.491,28.653-18.931a9.771,9.771,0,0,1,13.689,2.982,9.9,9.9,0,0,1-3.069,13.422.107.107,0,0,0-.04.136.109.109,0,0,0,.14.054,9.679,9.679,0,0,1,3.492-.648,9.766,9.766,0,0,1,9.593,11.665,9.986,9.986,0,0,1-4.1,6.188.21.21,0,0,0-.054.29.007.007,0,0,0,.008.007.205.205,0,0,0,.275.054,10.016,10.016,0,0,1,2.371-.279,10.3,10.3,0,0,1,5.511,1.6,9.6,9.6,0,0,1,2.85,2.8,9.768,9.768,0,0,1-2.754,13.539c-.111.075-.221.15-.332.221a.153.153,0,0,0-.05.191.092.092,0,0,0,.036.036.157.157,0,0,0,.194-.008,9.567,9.567,0,0,1,8.29,1.067,9.92,9.92,0,0,1,2.917,2.894,9.773,9.773,0,0,1-2.749,13.543Zm0,0" transform="translate(-119.841 -5.964)" fill="#fdd7bd"/><path d="M100.849,275.854,82.677,287.888,56.44,305.263a75.518,75.518,0,0,1-45.878-59.352L41.01,225.748l18.535-12.274a4.635,4.635,0,0,1,6.426,1.31l36.187,54.639a4.641,4.641,0,0,1-1.31,6.432Zm0,0" transform="translate(-6.668 -140.951)" fill="#87dbff"/><path d="M160.663,275.854l-18.172,12.034-41.667-62.141,18.535-12.274a4.635,4.635,0,0,1,6.426,1.31l36.187,54.639a4.641,4.641,0,0,1-1.31,6.432Zm0,0" transform="translate(-66.494 -140.951)" fill="#6fc7ff"/><g transform="translate(126.497 35.213)"><path d="M394.39,105.955l-14.334,7.67a4.644,4.644,0,0,1-5.923-1.332l11.3-7.312a.108.108,0,0,0,.14.054,9.68,9.68,0,0,1,3.492-.648,9.84,9.84,0,0,1,5.325,1.568Zm0,0" transform="translate(-374.133 -104.387)" fill="#fac5aa"/><path d="M419.554,159.125l-14.022,7.5a4.64,4.64,0,0,1-5.923-1.328l11.3-7.312.488-.229a.205.205,0,0,0,.275.054,10.032,10.032,0,0,1,2.371-.279,10.281,10.281,0,0,1,5.511,1.6Zm0,0" transform="translate(-391.015 -139.602)" fill="#fac5aa"/><path d="M447.245,212.075l-12.351,6.607a4.646,4.646,0,0,1-5.922-1.332l9.789-6.334a.157.157,0,0,0,.194-.008,9.567,9.567,0,0,1,8.29,1.067Zm0,0" transform="translate(-410.474 -174.71)" fill="#fac5aa"/></g><path d="M168.426,73.99a12.368,12.368,0,0,0-7.659-5.273,12.442,12.442,0,0,0-8.3-17.935,12.474,12.474,0,0,0-.644-12.674,12.357,12.357,0,0,0-7.659-5.273,12.453,12.453,0,0,0-17.9-16.176l-12.4,8.212a77.453,77.453,0,0,0-20.93-7.085A57.565,57.565,0,0,0,84.955,8.12L79.826,3.148A11.223,11.223,0,0,0,62.66,17.4q.2.306.4.615a78.126,78.126,0,1,0,89.028,103.106,2.684,2.684,0,1,0-5.049-1.824,72.824,72.824,0,0,1-91.4,44.338l21.845-14.469,0,0s0,0,0,0L95.643,137.14h0a7.326,7.326,0,0,0,2.063-10.15l-.24-.364,3.527-2.336a11.957,11.957,0,0,1,8.522-1.842,17.308,17.308,0,0,0,12.337-2.668L151.1,100.4a72.925,72.925,0,0,1-.989,7.542,2.684,2.684,0,0,0,2.15,3.131,2.618,2.618,0,0,0,.493.046,2.686,2.686,0,0,0,2.636-2.2,78.557,78.557,0,0,0,1.283-12.214l8.243-5.46a12.459,12.459,0,0,0,3.507-17.263ZM108.66,28.323l-8.2,5.434L98.841,29.4a57.475,57.475,0,0,0-2.3-5.338,72.058,72.058,0,0,1,12.122,4.256ZM23.64,46.94A72.737,72.737,0,0,1,65.625,23,33.184,33.184,0,0,1,67.3,43.09L60.752,71.377a7.307,7.307,0,0,0-9.371-1.092L32.839,82.565h0a0,0,0,0,0,0,0L6.093,100.282c-.146-1.887-.223-3.788-.223-5.688A72.741,72.741,0,0,1,23.64,46.94Zm69.875,84.481a1.945,1.945,0,0,1-.838,1.241h0L76.733,143.223,47.138,99.077a2.685,2.685,0,1,0-4.459,2.991L72.255,146.19,49.492,161.268a72.973,72.973,0,0,1-42.7-55.112L33.569,88.479l3.081,4.6a2.685,2.685,0,1,0,4.461-2.991l-3.06-4.566,16.3-10.759a1.953,1.953,0,0,1,2.706.552L93.23,129.956a1.937,1.937,0,0,1,.285,1.465Zm71.47-49.143a7.037,7.037,0,0,1-3.031,4.5l-9.423,6.242-.009.005L118.888,115.3a11.951,11.951,0,0,1-8.522,1.842,17.317,17.317,0,0,0-12.337,2.668L94.5,122.148,64.871,77.4,72.53,44.3a38.593,38.593,0,0,0-2.824-25.329,2.634,2.634,0,0,0-.113-.239,37.988,37.988,0,0,0-2.457-4.3A5.853,5.853,0,0,1,76.089,7l5.129,4.973a52.471,52.471,0,0,1,12.589,19.3L96.6,38.8c.005.014.011.026.016.04l.021.053c.02.046.038.088.058.124a2.65,2.65,0,0,0,.184.332,2.683,2.683,0,0,0,3.72.756l28.636-18.967a7.085,7.085,0,0,1,7.823,11.814L134.571,34.6h0l-5.545,3.674a.2.2,0,0,1-.021.014c-.032.022-.062.043-.087.065a2.684,2.684,0,0,0,3.073,4.4l5.549-3.676a7.085,7.085,0,0,1,7.819,11.818l-8.033,5.322a2.685,2.685,0,1,0,2.964,4.478l1.244-.824,4.3-2.85a7.085,7.085,0,0,1,7.823,11.816l-4.013,2.658-.063.042-3.957,2.621a2.685,2.685,0,1,0,2.964,4.479l1.244-.824a0,0,0,0,1,0,0l4.3-2.849a7.082,7.082,0,0,1,10.851,7.317Zm0,0" transform="translate(0 0)"/></g></svg>