<svg xmlns="http://www.w3.org/2000/svg" width="148" height="125" viewBox="0 0 148 125">
  <g id="Grupo_55336" data-name="Grupo 55336" transform="translate(0 0.265)">
    <rect id="Rectángulo_5279" data-name="Rectángulo 5279" width="148" height="125" rx="7" transform="translate(0 -0.265)" fill="#fff"/>
    <g id="Grupo_55333" data-name="Grupo 55333" transform="translate(14.321 9.566)">
      <circle id="Elipse_4084" data-name="Elipse 4084" cx="7.679" cy="7.679" r="7.679" transform="translate(60.68 44.766)" fill="#8af481"/>
      <g id="Grupo_55322" data-name="Grupo 55322" transform="translate(0 45.123)">
        <path id="Trazado_107044" data-name="Trazado 107044" d="M0,0V68.358" transform="translate(68.358 7.666) rotate(90)" fill="none" stroke="#3c4fa1" stroke-linecap="round" stroke-width="1"/>
        <rect id="Rectángulo_5271" data-name="Rectángulo 5271" width="15" height="33" rx="1" transform="translate(47.501) rotate(90)" fill="#ffc421"/>
      </g>
      <g id="Grupo_55321" data-name="Grupo 55321" transform="translate(16.113 95.262) rotate(-45)">
        <path id="Trazado_107045" data-name="Trazado 107045" d="M0,0V66.841" transform="translate(66.841 7.666) rotate(90)" fill="none" stroke="#3c4fa1" stroke-linecap="round" stroke-width="1"/>
        <rect id="Rectángulo_5272" data-name="Rectángulo 5272" width="15" height="33" rx="1" transform="translate(47.5) rotate(90)" fill="#ffc421"/>
      </g>
      <g id="Grupo_55325" data-name="Grupo 55325" transform="translate(26.72 0) rotate(45)">
        <path id="Trazado_107045-2" data-name="Trazado 107045" d="M0,0V67.9" transform="translate(67.896 7.666) rotate(90)" fill="none" stroke="#3c4fa1" stroke-linecap="round" stroke-width="1"/>
        <rect id="Rectángulo_5272-2" data-name="Rectángulo 5272" width="15" height="33" rx="1" transform="translate(47.5) rotate(90)" fill="#ffc421"/>
      </g>
      <g id="Grupo_55323" data-name="Grupo 55323" transform="translate(63.976 47.399) rotate(-45)">
        <path id="Trazado_107045-3" data-name="Trazado 107045" d="M0,0V63.322" transform="translate(63.322 7.666) rotate(90)" fill="none" stroke="#3c4fa1" stroke-linecap="round" stroke-width="1"/>
        <rect id="Rectángulo_5272-3" data-name="Rectángulo 5272" width="15" height="33" rx="1" transform="translate(49.107) rotate(90)" fill="#ffc421"/>
      </g>
      <g id="Grupo_55324" data-name="Grupo 55324" transform="translate(74.728 48.009) rotate(45)">
        <path id="Trazado_107045-4" data-name="Trazado 107045" d="M0,0V63.117" transform="translate(63.117 7.666) rotate(90)" fill="none" stroke="#3c4fa1" stroke-linecap="round" stroke-width="1"/>
        <rect id="Rectángulo_5272-4" data-name="Rectángulo 5272" width="15" height="33" rx="1" transform="translate(48.902) rotate(90)" fill="#ffc421"/>
      </g>
      <text id="A" transform="translate(28.358 55.98)" fill="#12263f" font-size="9" font-family="Roboto-Medium, Roboto" font-weight="500"><tspan x="0" y="0">A</tspan></text>
      <text id="B" transform="translate(40.358 29.98)" fill="#12263f" font-size="9" font-family="Roboto-Medium, Roboto" font-weight="500"><tspan x="0" y="0">B</tspan></text>
      <text id="C" transform="translate(92.358 32.98)" fill="#12263f" font-size="9" font-family="Roboto-Medium, Roboto" font-weight="500"><tspan x="-2.938" y="0">C</tspan></text>
      <text id="D" transform="translate(92.358 78.98)" fill="#12263f" font-size="9" font-family="Roboto-Medium, Roboto" font-weight="500"><tspan x="-2.94" y="0">D</tspan></text>
      <text id="E" transform="translate(43.358 81.98)" fill="#12263f" font-size="9" font-family="Roboto-Medium, Roboto" font-weight="500"><tspan x="-2.544" y="0">E</tspan></text>
      <circle id="Elipse_4083" data-name="Elipse 4083" cx="2" cy="2" r="2" transform="translate(66.358 50.623)" fill="#3d3d3d"/>
    </g>
  </g>
</svg>
