<svg xmlns="http://www.w3.org/2000/svg" xmlns:xlink="http://www.w3.org/1999/xlink" width="603.382" height="255.694" viewBox="0 0 603.382 255.694">
  <defs>
    <linearGradient id="linear-gradient" x1="0.5" x2="0.5" y2="1" gradientUnits="objectBoundingBox">
      <stop offset="0" stop-color="#8e8e8e"/>
      <stop offset="0.498" stop-color="#f1f1f1"/>
      <stop offset="1" stop-color="#919090"/>
    </linearGradient>
    <linearGradient id="linear-gradient-4" x1="-1.002" y1="1.574" x2="-0.967" y2="1.541" gradientUnits="objectBoundingBox">
      <stop offset="0" stop-opacity="0.102"/>
      <stop offset="1" stop-opacity="0"/>
    </linearGradient>
    <linearGradient id="linear-gradient-5" x1="-0.287" y1="1.25" x2="-0.227" y2="1.229" gradientUnits="objectBoundingBox">
      <stop offset="0" stop-color="#fff" stop-opacity="0.2"/>
      <stop offset="1" stop-color="#fff" stop-opacity="0"/>
    </linearGradient>
  </defs>
  <g id="Grupo_54891" data-name="Grupo 54891" transform="translate(-523.617 -4166.771)">
    <path id="Trazado_704944" data-name="Trazado 704944" d="M6.531,15H3.891V6.594L1.3,7.352v-2L6.289,3.625h.242Zm11.328-4.648a5.431,5.431,0,0,1-1.035,3.555,3.577,3.577,0,0,1-2.918,1.25A3.6,3.6,0,0,1,10.969,13.9,5.423,5.423,0,0,1,9.93,10.352V8.273a5.431,5.431,0,0,1,1.035-3.555,3.586,3.586,0,0,1,2.926-1.25,3.587,3.587,0,0,1,2.93,1.258,5.436,5.436,0,0,1,1.039,3.555ZM15.227,7.938a4.057,4.057,0,0,0-.32-1.832A1.071,1.071,0,0,0,13.891,5.5a1.045,1.045,0,0,0-.988.563,3.822,3.822,0,0,0-.332,1.7v2.906a4.088,4.088,0,0,0,.32,1.863,1.075,1.075,0,0,0,1.016.59,1.06,1.06,0,0,0,.992-.574,3.9,3.9,0,0,0,.328-1.8Zm11.9,2.414a5.431,5.431,0,0,1-1.035,3.555,3.577,3.577,0,0,1-2.918,1.25A3.6,3.6,0,0,1,20.234,13.9,5.423,5.423,0,0,1,19.2,10.352V8.273A5.431,5.431,0,0,1,20.23,4.719a3.586,3.586,0,0,1,2.926-1.25,3.587,3.587,0,0,1,2.93,1.258,5.436,5.436,0,0,1,1.039,3.555ZM24.492,7.938a4.057,4.057,0,0,0-.32-1.832A1.071,1.071,0,0,0,23.156,5.5a1.045,1.045,0,0,0-.988.563,3.822,3.822,0,0,0-.332,1.7v2.906a4.088,4.088,0,0,0,.32,1.863,1.075,1.075,0,0,0,1.016.59,1.06,1.06,0,0,0,.992-.574,3.9,3.9,0,0,0,.328-1.8Zm13.031,4.891a2.282,2.282,0,0,0,.773-1.367,10.8,10.8,0,0,0,.266-2.641V8.2a3.9,3.9,0,0,0-.379-1.934,1.2,1.2,0,0,0-2.125,0A3.9,3.9,0,0,0,35.68,8.2v.6a10.8,10.8,0,0,0,.266,2.664,2.208,2.208,0,0,0,.828,1.367V15H32.719V12.859h1.727a5.591,5.591,0,0,1-1.387-1.809,5.09,5.09,0,0,1-.512-2.207V8.211a5.115,5.115,0,0,1,.578-2.449,4.171,4.171,0,0,1,1.621-1.684,4.97,4.97,0,0,1,4.719-.012A4.19,4.19,0,0,1,41.1,5.727,5.027,5.027,0,0,1,41.7,8.133V8.8a5.205,5.205,0,0,1-.789,2.766,5.6,5.6,0,0,1-1.1,1.3h1.711V15h-4Z" transform="translate(775.503 4172.271)" fill="#12263f"/>
    <path id="Trazado_704945" data-name="Trazado 704945" d="M3.1,8.211H4.344A1.291,1.291,0,0,0,5.82,6.766a1.25,1.25,0,0,0-.352-.918,1.333,1.333,0,0,0-.992-.355,1.427,1.427,0,0,0-.91.3.93.93,0,0,0-.387.758H.547a2.7,2.7,0,0,1,.5-1.6,3.3,3.3,0,0,1,1.387-1.1,4.741,4.741,0,0,1,1.949-.395,4.658,4.658,0,0,1,2.984.867A2.883,2.883,0,0,1,8.453,6.711,2.4,2.4,0,0,1,8,8.1,3.2,3.2,0,0,1,6.7,9.156a3.058,3.058,0,0,1,1.422,1A2.623,2.623,0,0,1,8.633,11.8a2.935,2.935,0,0,1-1.172,2.438,4.864,4.864,0,0,1-3.078.914,5.045,5.045,0,0,1-2.074-.426,3.25,3.25,0,0,1-1.449-1.18,3.067,3.067,0,0,1-.492-1.715H3.016a1.185,1.185,0,0,0,.422.906,1.489,1.489,0,0,0,1.039.383,1.56,1.56,0,0,0,1.109-.387A1.293,1.293,0,0,0,6,11.75a1.511,1.511,0,0,0-.43-1.219,1.8,1.8,0,0,0-1.187-.359H3.1Zm14.758,2.141a5.431,5.431,0,0,1-1.035,3.555,3.577,3.577,0,0,1-2.918,1.25A3.6,3.6,0,0,1,10.969,13.9,5.423,5.423,0,0,1,9.93,10.352V8.273a5.431,5.431,0,0,1,1.035-3.555,3.586,3.586,0,0,1,2.926-1.25,3.587,3.587,0,0,1,2.93,1.258,5.436,5.436,0,0,1,1.039,3.555ZM15.227,7.938a4.057,4.057,0,0,0-.32-1.832A1.071,1.071,0,0,0,13.891,5.5a1.045,1.045,0,0,0-.988.563,3.822,3.822,0,0,0-.332,1.7v2.906a4.088,4.088,0,0,0,.32,1.863,1.075,1.075,0,0,0,1.016.59,1.06,1.06,0,0,0,.992-.574,3.9,3.9,0,0,0,.328-1.8Zm11.9,2.414a5.431,5.431,0,0,1-1.035,3.555,3.577,3.577,0,0,1-2.918,1.25A3.6,3.6,0,0,1,20.234,13.9,5.423,5.423,0,0,1,19.2,10.352V8.273A5.431,5.431,0,0,1,20.23,4.719a3.586,3.586,0,0,1,2.926-1.25,3.587,3.587,0,0,1,2.93,1.258,5.436,5.436,0,0,1,1.039,3.555ZM24.492,7.938a4.057,4.057,0,0,0-.32-1.832A1.071,1.071,0,0,0,23.156,5.5a1.045,1.045,0,0,0-.988.563,3.822,3.822,0,0,0-.332,1.7v2.906a4.088,4.088,0,0,0,.32,1.863,1.075,1.075,0,0,0,1.016.59,1.06,1.06,0,0,0,.992-.574,3.9,3.9,0,0,0,.328-1.8Zm13.031,4.891a2.282,2.282,0,0,0,.773-1.367,10.8,10.8,0,0,0,.266-2.641V8.2a3.9,3.9,0,0,0-.379-1.934,1.2,1.2,0,0,0-2.125,0A3.9,3.9,0,0,0,35.68,8.2v.6a10.8,10.8,0,0,0,.266,2.664,2.208,2.208,0,0,0,.828,1.367V15H32.719V12.859h1.727a5.591,5.591,0,0,1-1.387-1.809,5.09,5.09,0,0,1-.512-2.207V8.211a5.115,5.115,0,0,1,.578-2.449,4.171,4.171,0,0,1,1.621-1.684,4.97,4.97,0,0,1,4.719-.012A4.19,4.19,0,0,1,41.1,5.727,5.027,5.027,0,0,1,41.7,8.133V8.8a5.205,5.205,0,0,1-.789,2.766,5.6,5.6,0,0,1-1.1,1.3h1.711V15h-4Z" transform="translate(895.003 4172.271)" fill="#12263f"/>
    <path id="Trazado_704946" data-name="Trazado 704946" d="M8.633,15H.7V13.281L4.352,9.438A4.364,4.364,0,0,0,5.7,6.992a1.7,1.7,0,0,0-.32-1.117,1.144,1.144,0,0,0-.93-.383A1.158,1.158,0,0,0,3.477,6,2.1,2.1,0,0,0,3.1,7.281H.461A3.736,3.736,0,0,1,.984,5.348,3.671,3.671,0,0,1,2.438,3.961a4.317,4.317,0,0,1,2.078-.5,4.246,4.246,0,0,1,2.84.852,3.04,3.04,0,0,1,1,2.445A3.551,3.551,0,0,1,8.1,8.066,5.739,5.739,0,0,1,7.324,9.4a19.581,19.581,0,0,1-1.7,1.871l-1.469,1.7H8.633Zm9.227-4.648a5.431,5.431,0,0,1-1.035,3.555,3.577,3.577,0,0,1-2.918,1.25A3.6,3.6,0,0,1,10.969,13.9,5.423,5.423,0,0,1,9.93,10.352V8.273a5.431,5.431,0,0,1,1.035-3.555,3.586,3.586,0,0,1,2.926-1.25,3.587,3.587,0,0,1,2.93,1.258,5.436,5.436,0,0,1,1.039,3.555ZM15.227,7.938a4.057,4.057,0,0,0-.32-1.832A1.071,1.071,0,0,0,13.891,5.5a1.045,1.045,0,0,0-.988.563,3.822,3.822,0,0,0-.332,1.7v2.906a4.088,4.088,0,0,0,.32,1.863,1.075,1.075,0,0,0,1.016.59,1.06,1.06,0,0,0,.992-.574,3.9,3.9,0,0,0,.328-1.8Zm11.9,2.414a5.431,5.431,0,0,1-1.035,3.555,3.577,3.577,0,0,1-2.918,1.25A3.6,3.6,0,0,1,20.234,13.9,5.423,5.423,0,0,1,19.2,10.352V8.273A5.431,5.431,0,0,1,20.23,4.719a3.586,3.586,0,0,1,2.926-1.25,3.587,3.587,0,0,1,2.93,1.258,5.436,5.436,0,0,1,1.039,3.555ZM24.492,7.938a4.057,4.057,0,0,0-.32-1.832A1.071,1.071,0,0,0,23.156,5.5a1.045,1.045,0,0,0-.988.563,3.822,3.822,0,0,0-.332,1.7v2.906a4.088,4.088,0,0,0,.32,1.863,1.075,1.075,0,0,0,1.016.59,1.06,1.06,0,0,0,.992-.574,3.9,3.9,0,0,0,.328-1.8Zm13.031,4.891a2.282,2.282,0,0,0,.773-1.367,10.8,10.8,0,0,0,.266-2.641V8.2a3.9,3.9,0,0,0-.379-1.934,1.2,1.2,0,0,0-2.125,0A3.9,3.9,0,0,0,35.68,8.2v.6a10.8,10.8,0,0,0,.266,2.664,2.208,2.208,0,0,0,.828,1.367V15H32.719V12.859h1.727a5.591,5.591,0,0,1-1.387-1.809,5.09,5.09,0,0,1-.512-2.207V8.211a5.115,5.115,0,0,1,.578-2.449,4.171,4.171,0,0,1,1.621-1.684,4.97,4.97,0,0,1,4.719-.012A4.19,4.19,0,0,1,41.1,5.727,5.027,5.027,0,0,1,41.7,8.133V8.8a5.205,5.205,0,0,1-.789,2.766,5.6,5.6,0,0,1-1.1,1.3h1.711V15h-4Z" transform="translate(1014.503 4172.271)" fill="#12263f"/>
    <g id="Grupo_54889" data-name="Grupo 54889" transform="translate(5 -1)">
      <g id="Grupo_54883" data-name="Grupo 54883" transform="translate(169.798 5.03)">
        <g id="Grupo_54846" data-name="Grupo 54846" transform="translate(598.365 4213.757) rotate(-90)">
          <path id="Trazado_105709" data-name="Trazado 105709" d="M328.951,146.641v-.118a5.118,5.118,0,0,0-.66-2.515l-.261-.135-1.456-.337-.155-1.393.849-.7V138.27l-.817-.626V136.37l.817-.663v-5.564l-.451-.389v-1.808l.451-.367v-2.826l-.464-.4-.351-.683.456-.987,1.172-.493a5.112,5.112,0,0,0,.864-2.632l-.736-.542.1-1.457.62-.564a5.114,5.114,0,0,0-2.956-4.183l-3.117-1.435V108.56a.817.817,0,0,0-.817-.817H318.22a.815.815,0,0,0-.815.817v2.818l-2.156.992-.6,5.261,1.98,7.124L314.567,141.8l.652,11.671,2.185,1.006V157.3a.815.815,0,0,0,.815.817h3.821a.817.817,0,0,0,.817-.817V154.48l3.117-1.435a5.115,5.115,0,0,0,2.911-3.841l-.244-.2-.345-.409.079-1.257Z" transform="translate(-311.31 -107.743)" fill="#f4cd8a"/>
          <path id="Trazado_105710" data-name="Trazado 105710" d="M302.471,148.951v-1.936a5.323,5.323,0,0,1,1.364-3.565l.141-.155a.833.833,0,0,0,.213-.554V123.208a.832.832,0,0,0-.213-.554l-.141-.155a5.323,5.323,0,0,1-1.364-3.565V117a5.289,5.289,0,0,1,3.035-4.8l1.653-.771-.1-.048v-2.818a.817.817,0,0,0-.817-.817h-3.821a.815.815,0,0,0-.815.817v2.818l-3.118,1.435A5.115,5.115,0,0,0,295.529,117l.438.2-.027,1.78-.427.58a5.116,5.116,0,0,0,.867,2.633l1.411.445c.021.007.4,1.456.4,1.456l-.7.483-.294.18v2.826l.325.384s-.036,1.825,0,1.789-.325.39-.325.39v5.564l.36.335v1.987l-.36.241v3.175l.667.364s-.084,1.739-.092,1.716-1.3.328-1.3.328l-.3.155a5.118,5.118,0,0,0-.66,2.515v.118s.529.474.511.463,0,1.718,0,1.718l-.446.383a5.114,5.114,0,0,0,2.911,3.841l3.118,1.435V157.3a.815.815,0,0,0,.815.817h3.821a.817.817,0,0,0,.817-.817v-2.818l.009,0-1.557-.726A5.288,5.288,0,0,1,302.471,148.951Z" transform="translate(-295.508 -107.744)" fill="#eeb865"/>
        </g>
        <g id="Grupo_54882" data-name="Grupo 54882" transform="translate(0 25.04)">
          <rect id="Rectángulo_5229" data-name="Rectángulo 5229" width="5" height="18" rx="2.5" transform="translate(609 4171)" fill="#ffa200"/>
          <rect id="Rectángulo_5230" data-name="Rectángulo 5230" width="5" height="14" rx="1" transform="translate(615 4173)" fill="#fff"/>
          <rect id="Rectángulo_5231" data-name="Rectángulo 5231" width="5" height="14" rx="1" transform="translate(628 4173)" fill="#fe0"/>
          <rect id="Rectángulo_5232" data-name="Rectángulo 5232" width="5" height="18" rx="2.5" transform="translate(634 4171)" fill="url(#linear-gradient)"/>
          <path id="Trazado_105714" data-name="Trazado 105714" d="M305.479,42.28A1.281,1.281,0,0,0,306.761,41V34.462l.01-.011a6.385,6.385,0,0,0,1.674-4.315V28.261a6.418,6.418,0,0,0-3.722-5.812l-2.372-1.092v-2a2.1,2.1,0,0,0-2.1-2.1h-.629V1.282a1.282,1.282,0,0,0-2.563,0V17.263h-.629a2.1,2.1,0,0,0-2.1,2.1v2l-2.372,1.092a6.418,6.418,0,0,0-3.723,5.812v1.874a6.385,6.385,0,0,0,1.674,4.315l.01.011V53l-.01.011a6.385,6.385,0,0,0-1.674,4.315V59.2a6.418,6.418,0,0,0,3.722,5.812l2.372,1.092v2a2.1,2.1,0,0,0,2.1,2.1h.629V86.218a1.282,1.282,0,0,0,2.563,0V70.2h.629a2.1,2.1,0,0,0,2.1-2.1v-2l2.372-1.092a6.418,6.418,0,0,0,3.722-5.812V57.323a6.385,6.385,0,0,0-1.674-4.315l-.01-.011V46.46a1.282,1.282,0,1,0-2.563,0v.048h-11.71V40.944H304.2V41a1.281,1.281,0,0,0,1.281,1.281Zm-12.444-17.5,3.117-1.435a1.282,1.282,0,0,0,.745-1.164V19.826h2.89v2.352a1.281,1.281,0,0,0,.745,1.164l3.117,1.436a3.847,3.847,0,0,1,2.2,3.019h-4.818a1.282,1.282,0,0,0,0,2.563h4.838a3.822,3.822,0,0,1-.993,2.363l-.138.151c-.035.038-.067.078-.1.119h-12.6c-.032-.04-.064-.081-.1-.119l-.138-.15a3.825,3.825,0,0,1-.993-2.363h4.758a1.282,1.282,0,1,0,0-2.563h-4.737a3.848,3.848,0,0,1,2.2-3.019Zm11.9,30.032a3.824,3.824,0,0,1,.943,2.514v.118H290.8v-.118a3.824,3.824,0,0,1,.943-2.514Zm-1.288,7.873-3.117,1.435a1.282,1.282,0,0,0-.745,1.164v2.352H296.9V65.281a1.281,1.281,0,0,0-.745-1.164l-3.117-1.435A3.849,3.849,0,0,1,290.891,60h14.9A3.85,3.85,0,0,1,303.65,62.682Zm.548-13.611v3.175h-11.71V49.071Zm-11.71-10.69V35.555H304.2v2.826Z" transform="translate(579.955 4478.24) rotate(-90)"/>
        </g>
      </g>
    </g>
    <g id="Grupo_54888" data-name="Grupo 54888" transform="translate(0 -1)">
      <g id="Grupo_54885" data-name="Grupo 54885" transform="translate(414.298 5.03)">
        <g id="Grupo_54846-2" data-name="Grupo 54846" transform="translate(598.365 4213.757) rotate(-90)">
          <path id="Trazado_105709-2" data-name="Trazado 105709" d="M328.951,146.641v-.118a5.118,5.118,0,0,0-.66-2.515l-.261-.135-1.456-.337-.155-1.393.849-.7V138.27l-.817-.626V136.37l.817-.663v-5.564l-.451-.389v-1.808l.451-.367v-2.826l-.464-.4-.351-.683.456-.987,1.172-.493a5.112,5.112,0,0,0,.864-2.632l-.736-.542.1-1.457.62-.564a5.114,5.114,0,0,0-2.956-4.183l-3.117-1.435V108.56a.817.817,0,0,0-.817-.817H318.22a.815.815,0,0,0-.815.817v2.818l-2.156.992-.6,5.261,1.98,7.124L314.567,141.8l.652,11.671,2.185,1.006V157.3a.815.815,0,0,0,.815.817h3.821a.817.817,0,0,0,.817-.817V154.48l3.117-1.435a5.115,5.115,0,0,0,2.911-3.841l-.244-.2-.345-.409.079-1.257Z" transform="translate(-311.31 -107.743)" fill="#f4cd8a"/>
          <path id="Trazado_105710-2" data-name="Trazado 105710" d="M302.471,148.951v-1.936a5.323,5.323,0,0,1,1.364-3.565l.141-.155a.833.833,0,0,0,.213-.554V123.208a.832.832,0,0,0-.213-.554l-.141-.155a5.323,5.323,0,0,1-1.364-3.565V117a5.289,5.289,0,0,1,3.035-4.8l1.653-.771-.1-.048v-2.818a.817.817,0,0,0-.817-.817h-3.821a.815.815,0,0,0-.815.817v2.818l-3.118,1.435A5.115,5.115,0,0,0,295.529,117l.438.2-.027,1.78-.427.58a5.116,5.116,0,0,0,.867,2.633l1.411.445c.021.007.4,1.456.4,1.456l-.7.483-.294.18v2.826l.325.384s-.036,1.825,0,1.789-.325.39-.325.39v5.564l.36.335v1.987l-.36.241v3.175l.667.364s-.084,1.739-.092,1.716-1.3.328-1.3.328l-.3.155a5.118,5.118,0,0,0-.66,2.515v.118s.529.474.511.463,0,1.718,0,1.718l-.446.383a5.114,5.114,0,0,0,2.911,3.841l3.118,1.435V157.3a.815.815,0,0,0,.815.817h3.821a.817.817,0,0,0,.817-.817v-2.818l.009,0-1.557-.726A5.288,5.288,0,0,1,302.471,148.951Z" transform="translate(-295.508 -107.744)" fill="#eeb865"/>
        </g>
        <g id="Grupo_54882-2" data-name="Grupo 54882" transform="translate(0 25.04)">
          <rect id="Rectángulo_5229-2" data-name="Rectángulo 5229" width="5" height="18" rx="2.5" transform="translate(609 4171)" fill="#ffa200"/>
          <rect id="Rectángulo_5230-2" data-name="Rectángulo 5230" width="5" height="14" rx="1" transform="translate(615 4173)" fill="#fff"/>
          <rect id="Rectángulo_5231-2" data-name="Rectángulo 5231" width="5" height="14" rx="1" transform="translate(628 4173)" fill="#b4100a"/>
          <rect id="Rectángulo_5232-2" data-name="Rectángulo 5232" width="5" height="18" rx="2.5" transform="translate(634 4171)" fill="url(#linear-gradient)"/>
          <path id="Trazado_105714-2" data-name="Trazado 105714" d="M305.479,42.28A1.281,1.281,0,0,0,306.761,41V34.462l.01-.011a6.385,6.385,0,0,0,1.674-4.315V28.261a6.418,6.418,0,0,0-3.722-5.812l-2.372-1.092v-2a2.1,2.1,0,0,0-2.1-2.1h-.629V1.282a1.282,1.282,0,0,0-2.563,0V17.263h-.629a2.1,2.1,0,0,0-2.1,2.1v2l-2.372,1.092a6.418,6.418,0,0,0-3.723,5.812v1.874a6.385,6.385,0,0,0,1.674,4.315l.01.011V53l-.01.011a6.385,6.385,0,0,0-1.674,4.315V59.2a6.418,6.418,0,0,0,3.722,5.812l2.372,1.092v2a2.1,2.1,0,0,0,2.1,2.1h.629V86.218a1.282,1.282,0,0,0,2.563,0V70.2h.629a2.1,2.1,0,0,0,2.1-2.1v-2l2.372-1.092a6.418,6.418,0,0,0,3.722-5.812V57.323a6.385,6.385,0,0,0-1.674-4.315l-.01-.011V46.46a1.282,1.282,0,1,0-2.563,0v.048h-11.71V40.944H304.2V41a1.281,1.281,0,0,0,1.281,1.281Zm-12.444-17.5,3.117-1.435a1.282,1.282,0,0,0,.745-1.164V19.826h2.89v2.352a1.281,1.281,0,0,0,.745,1.164l3.117,1.436a3.847,3.847,0,0,1,2.2,3.019h-4.818a1.282,1.282,0,0,0,0,2.563h4.838a3.822,3.822,0,0,1-.993,2.363l-.138.151c-.035.038-.067.078-.1.119h-12.6c-.032-.04-.064-.081-.1-.119l-.138-.15a3.825,3.825,0,0,1-.993-2.363h4.758a1.282,1.282,0,1,0,0-2.563h-4.737a3.848,3.848,0,0,1,2.2-3.019Zm11.9,30.032a3.824,3.824,0,0,1,.943,2.514v.118H290.8v-.118a3.824,3.824,0,0,1,.943-2.514Zm-1.288,7.873-3.117,1.435a1.282,1.282,0,0,0-.745,1.164v2.352H296.9V65.281a1.281,1.281,0,0,0-.745-1.164l-3.117-1.435A3.849,3.849,0,0,1,290.891,60h14.9A3.85,3.85,0,0,1,303.65,62.682Zm.548-13.611v3.175h-11.71V49.071Zm-11.71-10.69V35.555H304.2v2.826Z" transform="translate(579.955 4478.24) rotate(-90)"/>
        </g>
      </g>
    </g>
    <g id="Grupo_54890" data-name="Grupo 54890" transform="translate(0 -1)">
      <g id="Grupo_54886" data-name="Grupo 54886" transform="translate(162.253 5.03)">
        <g id="Grupo_54884" data-name="Grupo 54884" transform="translate(132.545)">
          <g id="Grupo_54846-3" data-name="Grupo 54846" transform="translate(598.365 4213.757) rotate(-90)">
            <path id="Trazado_105709-3" data-name="Trazado 105709" d="M328.951,146.641v-.118a5.118,5.118,0,0,0-.66-2.515l-.261-.135-1.456-.337-.155-1.393.849-.7V138.27l-.817-.626V136.37l.817-.663v-5.564l-.451-.389v-1.808l.451-.367v-2.826l-.464-.4-.351-.683.456-.987,1.172-.493a5.112,5.112,0,0,0,.864-2.632l-.736-.542.1-1.457.62-.564a5.114,5.114,0,0,0-2.956-4.183l-3.117-1.435V108.56a.817.817,0,0,0-.817-.817H318.22a.815.815,0,0,0-.815.817v2.818l-2.156.992-.6,5.261,1.98,7.124L314.567,141.8l.652,11.671,2.185,1.006V157.3a.815.815,0,0,0,.815.817h3.821a.817.817,0,0,0,.817-.817V154.48l3.117-1.435a5.115,5.115,0,0,0,2.911-3.841l-.244-.2-.345-.409.079-1.257Z" transform="translate(-311.31 -107.743)" fill="#f4cd8a"/>
            <path id="Trazado_105710-3" data-name="Trazado 105710" d="M302.471,148.951v-1.936a5.323,5.323,0,0,1,1.364-3.565l.141-.155a.833.833,0,0,0,.213-.554V123.208a.832.832,0,0,0-.213-.554l-.141-.155a5.323,5.323,0,0,1-1.364-3.565V117a5.289,5.289,0,0,1,3.035-4.8l1.653-.771-.1-.048v-2.818a.817.817,0,0,0-.817-.817h-3.821a.815.815,0,0,0-.815.817v2.818l-3.118,1.435A5.115,5.115,0,0,0,295.529,117l.438.2-.027,1.78-.427.58a5.116,5.116,0,0,0,.867,2.633l1.411.445c.021.007.4,1.456.4,1.456l-.7.483-.294.18v2.826l.325.384s-.036,1.825,0,1.789-.325.39-.325.39v5.564l.36.335v1.987l-.36.241v3.175l.667.364s-.084,1.739-.092,1.716-1.3.328-1.3.328l-.3.155a5.118,5.118,0,0,0-.66,2.515v.118s.529.474.511.463,0,1.718,0,1.718l-.446.383a5.114,5.114,0,0,0,2.911,3.841l3.118,1.435V157.3a.815.815,0,0,0,.815.817h3.821a.817.817,0,0,0,.817-.817v-2.818l.009,0-1.557-.726A5.288,5.288,0,0,1,302.471,148.951Z" transform="translate(-295.508 -107.744)" fill="#eeb865"/>
          </g>
          <g id="Grupo_54882-3" data-name="Grupo 54882" transform="translate(0 25.04)">
            <rect id="Rectángulo_5229-3" data-name="Rectángulo 5229" width="5" height="18" rx="2.5" transform="translate(609 4171)" fill="#ffa200"/>
            <rect id="Rectángulo_5230-3" data-name="Rectángulo 5230" width="5" height="14" rx="1" transform="translate(615 4173)" fill="#fff"/>
            <rect id="Rectángulo_5231-3" data-name="Rectángulo 5231" width="5" height="14" rx="1" transform="translate(628 4173)" fill="#fcb89d"/>
            <rect id="Rectángulo_5232-3" data-name="Rectángulo 5232" width="5" height="18" rx="2.5" transform="translate(634 4171)" fill="url(#linear-gradient)"/>
            <path id="Trazado_105714-3" data-name="Trazado 105714" d="M305.479,42.28A1.281,1.281,0,0,0,306.761,41V34.462l.01-.011a6.385,6.385,0,0,0,1.674-4.315V28.261a6.418,6.418,0,0,0-3.722-5.812l-2.372-1.092v-2a2.1,2.1,0,0,0-2.1-2.1h-.629V1.282a1.282,1.282,0,0,0-2.563,0V17.263h-.629a2.1,2.1,0,0,0-2.1,2.1v2l-2.372,1.092a6.418,6.418,0,0,0-3.723,5.812v1.874a6.385,6.385,0,0,0,1.674,4.315l.01.011V53l-.01.011a6.385,6.385,0,0,0-1.674,4.315V59.2a6.418,6.418,0,0,0,3.722,5.812l2.372,1.092v2a2.1,2.1,0,0,0,2.1,2.1h.629V86.218a1.282,1.282,0,0,0,2.563,0V70.2h.629a2.1,2.1,0,0,0,2.1-2.1v-2l2.372-1.092a6.418,6.418,0,0,0,3.722-5.812V57.323a6.385,6.385,0,0,0-1.674-4.315l-.01-.011V46.46a1.282,1.282,0,1,0-2.563,0v.048h-11.71V40.944H304.2V41a1.281,1.281,0,0,0,1.281,1.281Zm-12.444-17.5,3.117-1.435a1.282,1.282,0,0,0,.745-1.164V19.826h2.89v2.352a1.281,1.281,0,0,0,.745,1.164l3.117,1.436a3.847,3.847,0,0,1,2.2,3.019h-4.818a1.282,1.282,0,0,0,0,2.563h4.838a3.822,3.822,0,0,1-.993,2.363l-.138.151c-.035.038-.067.078-.1.119h-12.6c-.032-.04-.064-.081-.1-.119l-.138-.15a3.825,3.825,0,0,1-.993-2.363h4.758a1.282,1.282,0,1,0,0-2.563h-4.737a3.848,3.848,0,0,1,2.2-3.019Zm11.9,30.032a3.824,3.824,0,0,1,.943,2.514v.118H290.8v-.118a3.824,3.824,0,0,1,.943-2.514Zm-1.288,7.873-3.117,1.435a1.282,1.282,0,0,0-.745,1.164v2.352H296.9V65.281a1.281,1.281,0,0,0-.745-1.164l-3.117-1.435A3.849,3.849,0,0,1,290.891,60h14.9A3.85,3.85,0,0,1,303.65,62.682Zm.548-13.611v3.175h-11.71V49.071Zm-11.71-10.69V35.555H304.2v2.826Z" transform="translate(579.955 4478.24) rotate(-90)"/>
          </g>
        </g>
      </g>
    </g>
    <path id="Trazado_704947" data-name="Trazado 704947" d="M5.883,10.6a2.781,2.781,0,0,1-1.906.766A3.078,3.078,0,0,1,1.523,10.32a4.124,4.124,0,0,1-.906-2.8,4.2,4.2,0,0,1,.508-2.031A3.81,3.81,0,0,1,2.551,4.008a3.887,3.887,0,0,1,2.027-.547,3.774,3.774,0,0,1,2.035.566,3.814,3.814,0,0,1,1.418,1.6,5.5,5.5,0,0,1,.523,2.387V9.023a6.838,6.838,0,0,1-.738,3.266,5.1,5.1,0,0,1-2.105,2.125,6.579,6.579,0,0,1-3.187.742H2.359V13.047l.5-.008Q5.578,12.906,5.883,10.6Zm-1.2-1.133a1.282,1.282,0,0,0,1.234-.742V7.633a2.844,2.844,0,0,0-.367-1.617,1.152,1.152,0,0,0-.992-.523,1.088,1.088,0,0,0-.93.594,2.638,2.638,0,0,0-.375,1.438,2.365,2.365,0,0,0,.383,1.418A1.224,1.224,0,0,0,4.688,9.469Zm13.836,2.438,2.266-8.281h3.063L20.023,15h-3l-3.8-11.375h3.039Z" transform="translate(523 4342.24)" fill="#12263f"/>
    <path id="Trazado_105756" data-name="Trazado 105756" d="M-8236.471-7697.776v-65.637H-8411v210.878h537v-210.878h-48.912v65.637h-75.728v-65.637h-45.79v65.637h-73.646v-65.637h-45.791v65.637Z" transform="translate(8999 11973)" fill="none" stroke="#3c4fa1" stroke-linejoin="bevel" stroke-width="4"/>
    <g id="switch" transform="translate(586.025 4167.271)">
      <path id="Trazado_105746" data-name="Trazado 105746" d="M110.646,0H69.831A5.837,5.837,0,0,0,64,5.831V64.139a5.837,5.837,0,0,0,5.831,5.831h40.816a5.837,5.837,0,0,0,5.831-5.831V5.831A5.837,5.837,0,0,0,110.646,0Z" fill="#303c42"/>
      <path id="Trazado_105747" data-name="Trazado 105747" d="M131.98,82.557a2.918,2.918,0,0,1-2.915,2.915H88.249a2.918,2.918,0,0,1-2.915-2.915V24.249a2.918,2.918,0,0,1,2.915-2.915h40.816a2.918,2.918,0,0,1,2.915,2.915Z" transform="translate(-18.419 -18.419)" fill="#f2f2f2"/>
      <path id="Trazado_105748" data-name="Trazado 105748" d="M209.492,143.8V129.458A1.457,1.457,0,0,0,208.035,128H193.458A1.457,1.457,0,0,0,192,129.458v29.154a1.457,1.457,0,0,0,1.458,1.458h13.119a1.462,1.462,0,0,0,1.167-.584l4.373-5.831a1.464,1.464,0,0,0,.216-1.335Z" transform="translate(-110.508 -110.508)" fill="#303c42"/>
      <path id="Trazado_105749" data-name="Trazado 105749" d="M233.028,261.831H222.834L219.917,256h11.168Z" transform="translate(-134.609 -221.015)" fill="#e6e6e6"/>
      <path id="Trazado_105750" data-name="Trazado 105750" d="M213.333,294.539v-4.032l1.21,2.419Z" transform="translate(-128.925 -250.806)" fill="#f2f2f2"/>
      <path id="Trazado_105751" data-name="Trazado 105751" d="M213.333,294.539v-4.032l1.21,2.419Z" transform="translate(-128.925 -250.806)" fill="#fff" opacity="0.7"/>
      <g id="Grupo_54887" data-name="Grupo 54887" transform="translate(84.408 20.408)">
        <rect id="Rectángulo_5233" data-name="Rectángulo 5233" width="11.662" height="11.662" fill="#e6e6e6"/>
        <path id="Trazado_105752" data-name="Trazado 105752" d="M233.479,322.915h-9.474L226.192,320h9.474Z" transform="translate(-222.547 -296.677)" fill="#e6e6e6"/>
      </g>
      <path id="Trazado_105753" data-name="Trazado 105753" d="M233.479,322.915h-9.474L226.192,320h9.474Z" transform="translate(-138.139 -276.269)" opacity="0.2"/>
      <circle id="Elipse_4071" data-name="Elipse 4071" cx="2.915" cy="2.915" r="2.915" transform="translate(87.323 5.831)" fill="#303c42"/>
      <path id="Trazado_105754" data-name="Trazado 105754" d="M213.157,243.6,216,252.125a1.464,1.464,0,0,1-.216,1.335l-4.373,5.831a1.462,1.462,0,0,1-1.167.584H197.123a1.428,1.428,0,0,1-.878-.323l17.816,17.816h10.758a2.918,2.918,0,0,0,2.915-2.915V258.181Z" transform="translate(-114.172 -210.313)" fill="url(#linear-gradient-4)"/>
      <circle id="Elipse_4072" data-name="Elipse 4072" cx="2.915" cy="2.915" r="2.915" transform="translate(87.323 58.308)" fill="#303c42"/>
      <path id="Trazado_105755" data-name="Trazado 105755" d="M110.646,0H69.831A5.837,5.837,0,0,0,64,5.831V64.139a5.837,5.837,0,0,0,5.831,5.831h40.816a5.837,5.837,0,0,0,5.831-5.831V5.831A5.837,5.837,0,0,0,110.646,0Z" stroke="#000" stroke-width="1" fill="url(#linear-gradient-5)"/>
    </g>
    <g id="Grupo_54881" data-name="Grupo 54881" transform="translate(-110 53)">
      <g id="Grupo_54880" data-name="Grupo 54880" transform="translate(-122.627 3382.74)">
        <g id="battery" transform="translate(688.133 864.186)">
          <path id="Trazado_105683" data-name="Trazado 105683" d="M159.945,152.281h-42.37A5.575,5.575,0,0,1,112,146.706V77.575A5.575,5.575,0,0,1,117.575,72h42.37a5.575,5.575,0,0,1,5.575,5.575v69.131A5.575,5.575,0,0,1,159.945,152.281Z" transform="translate(-6.513 -58.62)" fill="#afafaf"/>
          <path id="Trazado_105684" data-name="Trazado 105684" d="M343.008,77.575v69.131a5.575,5.575,0,0,1-5.575,5.575H330a5.575,5.575,0,0,0,5.575-5.575V77.575A5.575,5.575,0,0,0,330,72h7.433A5.575,5.575,0,0,1,343.008,77.575Z" transform="translate(-184.001 -58.62)" fill="#8a8a8a"/>
          <path id="Trazado_105685" data-name="Trazado 105685" d="M0,0H32.707V38.653H0Z" transform="translate(151.573 53.52) rotate(90)" fill="#4a4a4a"/>
          <path id="Trazado_105744" data-name="Trazado 105744" d="M0,0H32.707V38.653H0Z" transform="translate(151.573 20.813) rotate(90)" fill="#f39e1d"/>
          <path id="Trazado_105686" data-name="Trazado 105686" d="M320,112h7.433v32.707H320Z" transform="translate(-175.86 -58.48)" fill="#3d3d3d"/>
          <path id="Trazado_105745" data-name="Trazado 105745" d="M320,112h7.433v32.707H320Z" transform="translate(-175.86 -91.187)" fill="#ea5c23"/>
          <path id="Trazado_105687" data-name="Trazado 105687" d="M205.734,19.893H176V11.717A3.717,3.717,0,0,1,179.717,8h22.3a3.717,3.717,0,0,1,3.717,3.717Z" transform="translate(-58.62 -6.513)" fill="#afafaf"/>
          <path id="Trazado_105688" data-name="Trazado 105688" d="M287.15,11.717v8.177h-7.433V11.717A3.716,3.716,0,0,0,276,8h7.433A3.716,3.716,0,0,1,287.15,11.717Z" transform="translate(-140.036 -6.513)" fill="#8a8a8a"/>
          <path id="Trazado_105690" data-name="Trazado 105690" d="M153.432,11.893H148.6V5.2A5.209,5.209,0,0,0,143.4,0H121.1a5.209,5.209,0,0,0-5.2,5.2v6.69h-4.832A7.07,7.07,0,0,0,104,18.955V88.086a7.07,7.07,0,0,0,7.062,7.062h42.37a7.07,7.07,0,0,0,7.062-7.062V18.955A7.07,7.07,0,0,0,153.432,11.893ZM118.867,5.2a2.233,2.233,0,0,1,2.23-2.23h22.3a2.233,2.233,0,0,1,2.23,2.23v6.69h-26.76ZM157.52,88.086a4.093,4.093,0,0,1-4.088,4.088h-42.37a4.093,4.093,0,0,1-4.088-4.088V18.955a4.093,4.093,0,0,1,4.088-4.088h42.37a4.093,4.093,0,0,1,4.088,4.088Z" transform="translate(0)"/>
          <path id="Trazado_105691" data-name="Trazado 105691" d="M184.14,104H145.487A1.487,1.487,0,0,0,144,105.487V170.9a1.487,1.487,0,0,0,1.487,1.487H184.14a1.487,1.487,0,0,0,1.487-1.487V105.487A1.487,1.487,0,0,0,184.14,104Zm-1.487,65.414h-35.68V106.973h35.68Z" transform="translate(-32.567 -84.673)"/>
        </g>
        <text id="_" data-name="+" transform="translate(815 890.759)" font-size="20" font-family="Roboto-Black, Roboto" font-weight="800"><tspan x="-5.342" y="19">+</tspan></text>
        <text id="_-" data-name="-" transform="translate(815 920)" font-size="20" font-family="Roboto-Black, Roboto" font-weight="800"><tspan x="-4.497" y="19">-</tspan></text>
      </g>
    </g>
    <g id="Trazado_704948" data-name="Trazado 704948" transform="translate(769 4263)" fill="#ffd500">
      <path d="M 48.5 23.5 L 12.5 23.5 C 9.561790466308594 23.5 6.799449920654297 22.35580062866211 4.721829891204834 20.27816963195801 C 2.644200086593628 18.2005500793457 1.5 15.43820953369141 1.5 12.5 C 1.5 9.561790466308594 2.644200086593628 6.799449920654297 4.721829891204834 4.721829891204834 C 6.799449920654297 2.644200086593628 9.561790466308594 1.5 12.5 1.5 L 48.5 1.5 C 51.43820953369141 1.5 54.2005500793457 2.644200086593628 56.27817153930664 4.721829891204834 C 58.35580062866211 6.799449920654297 59.5 9.561790466308594 59.5 12.5 C 59.5 15.43820953369141 58.35580062866211 18.2005500793457 56.27817153930664 20.27816963195801 C 54.2005500793457 22.35580062866211 51.43820953369141 23.5 48.5 23.5 Z" stroke="none"/>
      <path d="M 12.5 3 C 7.261676788330078 3 3 7.261678695678711 3 12.5 C 3 17.73832321166992 7.261676788330078 22 12.5 22 L 48.5 22 C 53.73832321166992 22 58 17.73832321166992 58 12.5 C 58 7.261678695678711 53.73832321166992 3 48.5 3 L 12.5 3 M 12.5 0 L 48.5 0 C 55.40355682373047 0 61 5.596445083618164 61 12.5 C 61 19.40355491638184 55.40355682373047 25 48.5 25 L 12.5 25 C 5.596431732177734 25 0 19.40355491638184 0 12.5 C 0 5.596445083618164 5.596431732177734 0 12.5 0 Z" stroke="none" fill="#2a2a2a"/>
    </g>
    <g id="Trazado_704949" data-name="Trazado 704949" transform="translate(888 4263)" fill="#ffd500">
      <path d="M 48.5 23.5 L 12.5 23.5 C 9.561790466308594 23.5 6.799449920654297 22.35580062866211 4.721829891204834 20.27816963195801 C 2.644200086593628 18.2005500793457 1.5 15.43820953369141 1.5 12.5 C 1.5 9.561790466308594 2.644200086593628 6.799449920654297 4.721829891204834 4.721829891204834 C 6.799449920654297 2.644200086593628 9.561790466308594 1.5 12.5 1.5 L 48.5 1.5 C 51.43820953369141 1.5 54.2005500793457 2.644200086593628 56.27817153930664 4.721829891204834 C 58.35580062866211 6.799449920654297 59.5 9.561790466308594 59.5 12.5 C 59.5 15.43820953369141 58.35580062866211 18.2005500793457 56.27817153930664 20.27816963195801 C 54.2005500793457 22.35580062866211 51.43820953369141 23.5 48.5 23.5 Z" stroke="none"/>
      <path d="M 12.5 3 C 7.261676788330078 3 3 7.261678695678711 3 12.5 C 3 17.73832321166992 7.261676788330078 22 12.5 22 L 48.5 22 C 53.73832321166992 22 58 17.73832321166992 58 12.5 C 58 7.261678695678711 53.73832321166992 3 48.5 3 L 12.5 3 M 12.5 0 L 48.5 0 C 55.40355682373047 0 61 5.596445083618164 61 12.5 C 61 19.40355491638184 55.40355682373047 25 48.5 25 L 12.5 25 C 5.596431732177734 25 0 19.40355491638184 0 12.5 C 0 5.596445083618164 5.596431732177734 0 12.5 0 Z" stroke="none" fill="#2a2a2a"/>
    </g>
    <g id="Trazado_704950" data-name="Trazado 704950" transform="translate(1008 4263)" fill="#ffd500">
      <path d="M 48.5 23.5 L 12.5 23.5 C 9.561790466308594 23.5 6.799449920654297 22.35580062866211 4.721829891204834 20.27816963195801 C 2.644200086593628 18.2005500793457 1.5 15.43820953369141 1.5 12.5 C 1.5 9.561790466308594 2.644200086593628 6.799449920654297 4.721829891204834 4.721829891204834 C 6.799449920654297 2.644200086593628 9.561790466308594 1.5 12.5 1.5 L 48.5 1.5 C 51.43820953369141 1.5 54.2005500793457 2.644200086593628 56.27817153930664 4.721829891204834 C 58.35580062866211 6.799449920654297 59.5 9.561790466308594 59.5 12.5 C 59.5 15.43820953369141 58.35580062866211 18.2005500793457 56.27817153930664 20.27816963195801 C 54.2005500793457 22.35580062866211 51.43820953369141 23.5 48.5 23.5 Z" stroke="none"/>
      <path d="M 12.5 3 C 7.261676788330078 3 3 7.261678695678711 3 12.5 C 3 17.73832321166992 7.261676788330078 22 12.5 22 L 48.5 22 C 53.73832321166992 22 58 17.73832321166992 58 12.5 C 58 7.261678695678711 53.73832321166992 3 48.5 3 L 12.5 3 M 12.5 0 L 48.5 0 C 55.40355682373047 0 61 5.596445083618164 61 12.5 C 61 19.40355491638184 55.40355682373047 25 48.5 25 L 12.5 25 C 5.596431732177734 25 0 19.40355491638184 0 12.5 C 0 5.596445083618164 5.596431732177734 0 12.5 0 Z" stroke="none" fill="#2a2a2a"/>
    </g>
    <path id="Trazado_704951" data-name="Trazado 704951" d="M10.4,12H8.255V5.17l-2.107.616V4.161l4.056-1.4h.2Zm4.145-2.076a1.218,1.218,0,0,1,.844.3,1.052,1.052,0,0,1,0,1.542,1.332,1.332,0,0,1-1.692,0,1.052,1.052,0,0,1,0-1.536A1.207,1.207,0,0,1,14.546,9.924Zm2.7-2.439.565-4.728h5.4V4.421H19.548l-.209,1.836a2.523,2.523,0,0,1,.6-.236,3.018,3.018,0,0,1,2.844.714,3.286,3.286,0,0,1,.74,2.288,3.28,3.28,0,0,1-.4,1.609,2.727,2.727,0,0,1-1.114,1.108,3.517,3.517,0,0,1-1.695.387,3.784,3.784,0,0,1-1.631-.358,2.927,2.927,0,0,1-1.193-.983,2.389,2.389,0,0,1-.425-1.411h2.146a1.213,1.213,0,0,0,.324.8,1.028,1.028,0,0,0,.768.3q1.079,0,1.079-1.6,0-1.476-1.32-1.476a1.317,1.317,0,0,0-1.117.481Zm14.358,2,1.841-6.729h2.488L32.821,12H30.383L27.3,2.758h2.469Z" transform="translate(778.503 4268)" fill="#12263f"/>
    <path id="Trazado_704952" data-name="Trazado 704952" d="M11.309,8.388h.939v1.65h-.939V12H9.169V10.039H5.6L5.469,8.731l3.7-5.954V2.758h2.139Zm-3.8,0H9.169V5.544l-.133.216Zm7.04,1.536a1.218,1.218,0,0,1,.844.3,1.052,1.052,0,0,1,0,1.542,1.332,1.332,0,0,1-1.692,0,1.052,1.052,0,0,1,0-1.536A1.207,1.207,0,0,1,14.546,9.924Zm2.7-2.439.565-4.728h5.4V4.421H19.548l-.209,1.836a2.523,2.523,0,0,1,.6-.236,3.018,3.018,0,0,1,2.844.714,3.286,3.286,0,0,1,.74,2.288,3.28,3.28,0,0,1-.4,1.609,2.727,2.727,0,0,1-1.114,1.108,3.517,3.517,0,0,1-1.695.387,3.784,3.784,0,0,1-1.631-.358,2.927,2.927,0,0,1-1.193-.983,2.389,2.389,0,0,1-.425-1.411h2.146a1.213,1.213,0,0,0,.324.8,1.028,1.028,0,0,0,.768.3q1.079,0,1.079-1.6,0-1.476-1.32-1.476a1.317,1.317,0,0,0-1.117.481Zm14.358,2,1.841-6.729h2.488L32.821,12H30.383L27.3,2.758h2.469Z" transform="translate(898 4268)" fill="#12263f"/>
    <path id="Trazado_704953" data-name="Trazado 704953" d="M8.843,6.484H9.852a1.049,1.049,0,0,0,1.2-1.174,1.015,1.015,0,0,0-.286-.746,1.083,1.083,0,0,0-.806-.289,1.16,1.16,0,0,0-.74.248.755.755,0,0,0-.314.616H6.767a2.19,2.19,0,0,1,.406-1.3A2.683,2.683,0,0,1,8.3,2.945a3.852,3.852,0,0,1,1.584-.321,3.785,3.785,0,0,1,2.425.7,2.342,2.342,0,0,1,.882,1.936,1.952,1.952,0,0,1-.365,1.127,2.6,2.6,0,0,1-1.063.86,2.485,2.485,0,0,1,1.155.809A2.131,2.131,0,0,1,13.337,9.4a2.385,2.385,0,0,1-.952,1.98,3.952,3.952,0,0,1-2.5.743A4.1,4.1,0,0,1,8.2,11.781a2.64,2.64,0,0,1-1.177-.958,2.492,2.492,0,0,1-.4-1.393H8.773a.963.963,0,0,0,.343.736,1.21,1.21,0,0,0,.844.311,1.268,1.268,0,0,0,.9-.314,1.05,1.05,0,0,0,.336-.8,1.228,1.228,0,0,0-.349-.99,1.459,1.459,0,0,0-.965-.292H8.843Zm12.53,3,1.841-6.729H25.7L22.592,12H20.155L17.07,2.758h2.469Z" transform="translate(1022.5 4268)" fill="#12263f"/>
  </g>
</svg>
