<svg xmlns="http://www.w3.org/2000/svg" width="161" height="161" viewBox="0 0 161 161">
  <g id="Grupo_55435" data-name="Grupo 55435" transform="translate(5448 6348)">
    <rect id="Rectángulo_5301" data-name="Rectángulo 5301" width="161" height="161" transform="translate(-5448 -6348)" fill="none"/>
    <g id="recargable" transform="translate(-5436.167 -6328.154)">
      <g id="Grupo_55425" data-name="Grupo 55425" transform="translate(12.869 12.873)">
        <path id="Trazado_107124" data-name="Trazado 107124" d="M20.5,58.463V135.7a4.142,4.142,0,0,0,4.126,4.13h47.1a4.142,4.142,0,0,0,4.126-4.13V58.463a4.142,4.142,0,0,0-4.126-4.13h-47.1a4.142,4.142,0,0,0-4.126,4.13Zm9.943,71.418v-65.6h35.47v65.6H30.443Z" transform="translate(-20.5 -54.333)" fill="#fff" fill-rule="evenodd"/>
      </g>
      <g id="Grupo_55426" data-name="Grupo 55426" transform="translate(23.838 2.369)">
        <path id="Trazado_107125" data-name="Trazado 107125" d="M72.042,10A5.265,5.265,0,0,0,66.8,15.252V20.5h33.41V15.252A5.265,5.265,0,0,0,94.96,10Z" transform="translate(-66.796 -10)" fill="#a6afc6" fill-rule="evenodd"/>
      </g>
      <g id="Grupo_55427" data-name="Grupo 55427" transform="translate(89.88 19.905)">
        <path id="Trazado_107126" data-name="Trazado 107126" d="M345.534,85.529v9.215a1.521,1.521,0,0,0,1.523,1.518h28.814a1.52,1.52,0,0,0,1.516-1.518V85.529a1.524,1.524,0,0,0-1.516-1.518H347.057A1.525,1.525,0,0,0,345.534,85.529Z" transform="translate(-345.534 -84.011)" fill="#ff7d95" fill-rule="evenodd"/>
      </g>
      <g id="Grupo_55428" data-name="Grupo 55428" transform="translate(93.744 32.155)">
        <path id="Trazado_107127" data-name="Trazado 107127" d="M361.843,135.714v10.04a10.068,10.068,0,0,0,10.03,10.047h4.066a10.064,10.064,0,0,0,10.03-10.047v-10.04Z" transform="translate(-361.843 -135.714)" fill="#a6afc6" fill-rule="evenodd"/>
      </g>
      <g id="Grupo_55429" data-name="Grupo 55429" transform="translate(87.156 65.997)">
        <path id="Trazado_107128" data-name="Trazado 107128" d="M352.689,278.549a18.674,18.674,0,1,0,18.657,18.671A18.664,18.664,0,0,0,352.689,278.549Z" transform="translate(-334.038 -278.549)" fill="#ffda8f" fill-rule="evenodd"/>
      </g>
      <g id="Grupo_55430" data-name="Grupo 55430" transform="translate(22.812 22.826)">
        <path id="Trazado_107129" data-name="Trazado 107129" d="M62.464,96.342h35.47v17.5H62.464Z" transform="translate(-62.464 -96.342)" fill="#ff7d95" fill-rule="evenodd"/>
      </g>
      <g id="Grupo_55431" data-name="Grupo 55431" transform="translate(22.812 40.322)">
        <path id="Trazado_107130" data-name="Trazado 107130" d="M62.464,170.183h35.47v16.7H62.464Z" transform="translate(-62.464 -170.183)" fill="#ff7d95" fill-rule="evenodd"/>
      </g>
      <g id="Grupo_55432" data-name="Grupo 55432" transform="translate(22.812 57.018)">
        <path id="Trazado_107131" data-name="Trazado 107131" d="M62.464,240.651h35.47v15.3H62.464Z" transform="translate(-62.464 -240.651)" fill="#ff7d95" fill-rule="evenodd"/>
      </g>
      <g id="Grupo_55433" data-name="Grupo 55433" transform="translate(22.812 72.317)">
        <path id="Trazado_107132" data-name="Trazado 107132" d="M62.464,305.223h35.47v16.105H62.464Z" transform="translate(-62.464 -305.223)" fill="#ff7d95" fill-rule="evenodd"/>
      </g>
      <g id="Grupo_55434" data-name="Grupo 55434" transform="translate(10.5 0)">
        <path id="Trazado_107133" data-name="Trazado 107133" d="M108.176,63.762V54.6A12.421,12.421,0,0,0,120.239,42.2V34.523a3.89,3.89,0,0,0,3.864-3.886V21.423a3.89,3.89,0,0,0-3.885-3.887h-3.675V2.369a2.369,2.369,0,1,0-4.739,0V17.536H99.81V2.369a2.369,2.369,0,1,0-4.739,0V17.536H91.4a3.894,3.894,0,0,0-3.892,3.887v9.215a3.893,3.893,0,0,0,3.865,3.886V42.2A12.42,12.42,0,0,0,103.438,54.6v9.159a21.045,21.045,0,0,0,0,41.817v1.869a9.126,9.126,0,0,1-9.11,9.122H52.022a9.126,9.126,0,0,1-9.11-9.122v-6.7H64.1a6.505,6.505,0,0,0,6.5-6.5V66.265a2.369,2.369,0,0,0-4.739,0V94.245A1.782,1.782,0,0,1,64.1,96.006H17a1.782,1.782,0,0,1-1.757-1.761V17A1.782,1.782,0,0,1,17,15.242H64.1A1.782,1.782,0,0,1,65.855,17V44.989a2.369,2.369,0,0,0,4.739,0V17a6.505,6.505,0,0,0-6.5-6.5h-4.48V7.621A7.627,7.627,0,0,0,52,0H29.084a7.627,7.627,0,0,0-7.615,7.621V10.5H17A6.5,6.5,0,0,0,10.5,17V94.245a6.5,6.5,0,0,0,6.5,6.5H38.174v6.7a13.87,13.87,0,0,0,13.848,13.861H94.328a13.87,13.87,0,0,0,13.848-13.861V105.58a21.045,21.045,0,0,0,0-41.818ZM26.208,7.621a2.883,2.883,0,0,1,2.877-2.883H52a2.883,2.883,0,0,1,2.877,2.883V10.5H26.208ZM92.249,22.274h27.115v7.511H92.249ZM96.114,42.2V34.524H115.5V42.2a7.678,7.678,0,0,1-7.66,7.678h-4.066A7.678,7.678,0,0,1,96.114,42.2Zm9.693,58.78a16.3,16.3,0,1,1,16.288-16.308,16.313,16.313,0,0,1-16.288,16.308Z" transform="translate(-10.5 0)"/>
        <path id="Trazado_107134" data-name="Trazado 107134" d="M396.462,315.857h-4l3.16-6.354a2.369,2.369,0,1,0-4.242-2.11l-4.864,9.778a2.4,2.4,0,0,0,2.126,3.424h4l-3.158,6.363a2.369,2.369,0,1,0,4.244,2.107l4.857-9.785a2.379,2.379,0,0,0-2.122-3.423Z" transform="translate(-297.244 -233.558)"/>
        <path id="Trazado_107135" data-name="Trazado 107135" d="M54.832,86.342a2.369,2.369,0,0,0-2.369,2.369v65.6a2.369,2.369,0,0,0,2.369,2.369H90.3a2.369,2.369,0,0,0,2.369-2.369v-65.6A2.369,2.369,0,0,0,90.3,86.342Zm33.1,65.6H57.2V140.571H87.933Zm0-16.1H57.2V125.272H87.933Zm0-15.3H57.2V108.576H87.933Zm0-16.7H57.2V91.081H87.933Z" transform="translate(-42.521 -65.885)"/>
        <path id="Trazado_107136" data-name="Trazado 107136" d="M246.5,224.783a2.369,2.369,0,0,0-2.369,2.369v.007a2.369,2.369,0,1,0,2.369-2.376Z" transform="translate(-188.776 -171.525)"/>
      </g>
    </g>
  </g>
</svg>
