<svg xmlns="http://www.w3.org/2000/svg" width="78.5" height="78.501" viewBox="0 0 78.5 78.501">
  <g id="battery-eco-ecology-save-world" transform="translate(-2 -1.999)">
    <rect id="Rectángulo_5316" data-name="Rectángulo 5316" width="76" height="46" rx="4" transform="translate(3 26.999)" fill="#e0e0e2"/>
    <path id="Trazado_107138" data-name="Trazado 107138" d="M78.883,26.233V61.558a5.233,5.233,0,0,1-5.233,5.233H8.233A5.233,5.233,0,0,1,3,61.558H52.717A20.933,20.933,0,0,0,73.65,40.625V21A5.233,5.233,0,0,1,78.883,26.233Z" transform="translate(0.308 5.859)" fill="#acabb1"/>
    <path id="Trazado_107139" data-name="Trazado 107139" d="M69.217,27v5.233H36.5a1.2,1.2,0,0,0,.013-.222A8.126,8.126,0,0,0,34.35,27Z" transform="translate(9.975 7.709)" fill="#57a4ff"/>
    <rect id="Rectángulo_5317" data-name="Rectángulo 5317" width="15" height="15" rx="2" transform="translate(60 47.999)" fill="#ffde55"/>
    <path id="Trazado_107140" data-name="Trazado 107140" d="M61.7,39.617V50.083A2.625,2.625,0,0,1,59.083,52.7H48.617A2.625,2.625,0,0,1,46,50.083V47.467h7.85a2.625,2.625,0,0,0,2.617-2.617V37h2.617A2.625,2.625,0,0,1,61.7,39.617Z" transform="translate(13.567 10.792)" fill="#ebbf00"/>
    <path id="Trazado_107141" data-name="Trazado 107141" d="M46,17H59.083v5.233H46Z" transform="translate(13.567 4.625)" fill="#57a4ff"/>
    <path id="Trazado_107142" data-name="Trazado 107142" d="M48,13h7.85v5.233H48Z" transform="translate(14.183 3.392)" fill="#afafaf"/>
    <path id="Trazado_107143" data-name="Trazado 107143" d="M47.233,56.617v2.617H42V54h5.233Z" transform="translate(12.333 16.034)" fill="#ffeb99"/>
    <rect id="Rectángulo_5318" data-name="Rectángulo 5318" width="31" height="13" rx="2" transform="translate(23 65.999)" fill="#25ffff"/>
    <path id="Trazado_107144" data-name="Trazado 107144" d="M49.4,53.617v7.85a2.625,2.625,0,0,1-2.617,2.617H20.617A2.625,2.625,0,0,1,18,61.467V60.158H42.858a2.625,2.625,0,0,0,2.617-2.617V51h1.308A2.625,2.625,0,0,1,49.4,53.617Z" transform="translate(4.933 15.109)" fill="#0bd9d9"/>
    <path id="Trazado_107145" data-name="Trazado 107145" d="M38.467,9.542,33.233,21.317v-7.85H28L33.233,3V9.542Z" transform="translate(8.017 0.309)" fill="#ffde55"/>
    <path id="Trazado_107146" data-name="Trazado 107146" d="M3,27H37.867a8.126,8.126,0,0,0-2.159,5.011,1.2,1.2,0,0,0,.013.222H3Z" transform="translate(0.308 7.709)" fill="#57a4ff"/>
    <rect id="Rectángulo_5319" data-name="Rectángulo 5319" width="16" height="15" rx="2" transform="translate(7 47.999)" fill="#ffde55"/>
    <path id="Trazado_107147" data-name="Trazado 107147" d="M8,17H21.083v5.233H8Z" transform="translate(1.85 4.625)" fill="#57a4ff"/>
    <path id="Trazado_107148" data-name="Trazado 107148" d="M15,17h3.925v5.233H15Z" transform="translate(4.008 4.625)" fill="#006df0"/>
    <path id="Trazado_107149" data-name="Trazado 107149" d="M53,17h3.925v5.233H53Z" transform="translate(15.725 4.625)" fill="#006df0"/>
    <path id="Trazado_107150" data-name="Trazado 107150" d="M51,13h3.925v5.233H51Z" transform="translate(15.108 3.392)" fill="#898890"/>
    <path id="Trazado_107151" data-name="Trazado 107151" d="M10,13h7.85v5.233H10Z" transform="translate(2.467 3.392)" fill="#afafaf"/>
    <path id="Trazado_107152" data-name="Trazado 107152" d="M45.688,35.5s.118,6.306-3.428,8.792-7.785,2.59-9.433.222-.131-6.306,3.428-8.792S45.688,35.5,45.688,35.5Z" transform="translate(9.3 10.039)" fill="#d7fc7e"/>
    <path id="Trazado_107153" data-name="Trazado 107153" d="M42.029,44.279c-3.349,2.342-7.287,2.564-9.119.615A10.3,10.3,0,0,0,38.1,42.97c2.983-2.093,3.376-6.882,3.415-8.36a16.3,16.3,0,0,1,3.938.877S45.575,41.793,42.029,44.279Z" transform="translate(9.531 10.055)" fill="#7ed63e"/>
    <path id="Trazado_107154" data-name="Trazado 107154" d="M38.467,32.68c0,4.344-2.342,7.85-5.233,7.85S28,37.024,28,32.68s5.233-7.85,5.233-7.85,5.233,3.519,5.233,7.85Z" transform="translate(8.017 7.04)" fill="#d7fc7e"/>
    <path id="Trazado_107155" data-name="Trazado 107155" d="M38.2,32.547c0,4.344-2.342,7.85-5.233,7.85a4.853,4.853,0,0,1-4.082-2.931,3.556,3.556,0,0,0,1.465.314c2.891,0,5.233-3.506,5.233-7.85a7.892,7.892,0,0,0-1.858-4.671C35.173,26.438,38.2,29.264,38.2,32.547Z" transform="translate(8.288 7.172)" fill="#7ed63e"/>
    <path id="Trazado_107156" data-name="Trazado 107156" d="M30.933,35.725c3.559,2.486,5.089,6.424,3.428,8.792s-5.874,2.263-9.433-.222S21.5,35.5,21.5,35.5,27.388,33.239,30.933,35.725Z" transform="translate(6.012 10.039)" fill="#d7fc7e"/>
    <path id="Trazado_107157" data-name="Trazado 107157" d="M33.855,44.452c-1.649,2.368-5.874,2.263-9.433-.222a6.085,6.085,0,0,1-1.282-1.243c2.8,1.02,5.534.641,6.79-1.151,1.308-1.871.628-4.723-1.478-7.065a6.12,6.12,0,0,1,1.976.89c3.559,2.486,5.089,6.424,3.428,8.792Z" transform="translate(6.518 10.104)" fill="#7ed63e"/>
    <path id="Trazado_107158" data-name="Trazado 107158" d="M21.7,39.617V50.083A2.625,2.625,0,0,1,19.083,52.7H8.617A2.625,2.625,0,0,1,6,50.083V47.467h7.85a2.625,2.625,0,0,0,2.617-2.617V37h2.617A2.625,2.625,0,0,1,21.7,39.617Z" transform="translate(1.233 10.792)" fill="#ebbf00"/>
    <path id="Trazado_107159" data-name="Trazado 107159" d="M13,13h3.925v5.233H13Z" transform="translate(3.392 3.392)" fill="#898890"/>
    <path id="Trazado_107160" data-name="Trazado 107160" d="M73.958,22.467V18.542a1.308,1.308,0,0,0-1.308-1.308H71.342V13.308A1.308,1.308,0,0,0,70.033,12h-7.85a1.308,1.308,0,0,0-1.308,1.308v3.925H59.567a1.308,1.308,0,0,0-1.308,1.308v3.925H24.242V18.542a1.308,1.308,0,0,0-1.308-1.308H21.625V13.308A1.308,1.308,0,0,0,20.317,12h-7.85a1.308,1.308,0,0,0-1.308,1.308v3.925H9.85a1.308,1.308,0,0,0-1.308,1.308v3.925A6.542,6.542,0,0,0,2,29.008V64.333a6.542,6.542,0,0,0,6.542,6.542H21.625v2.617a3.937,3.937,0,0,0,3.925,3.925H51.717a3.937,3.937,0,0,0,3.925-3.925h3.925a1.308,1.308,0,0,0,1.308-1.308V70.875H73.958A6.542,6.542,0,0,0,80.5,64.333V29.008a6.542,6.542,0,0,0-6.542-6.542Zm-10.467-7.85h5.233v2.617H63.492ZM60.875,19.85H71.342v2.617H60.875Zm-47.1-5.233h5.233v2.617H13.775ZM11.158,19.85H21.625v2.617H11.158ZM4.617,32.933h31.1A8.647,8.647,0,0,0,34.8,35.55H4.617ZM41.25,43.178c-2.133,0-3.925-3-3.925-6.542,0-2.7,2.617-5.155,3.925-6.215,1.531,1.23,3.925,3.7,3.925,6.215C45.175,40.181,43.383,43.178,41.25,43.178Zm5.05.576a6.092,6.092,0,0,1,3.519-.942,14.654,14.654,0,0,1,3.82.589c-.118,1.688-.628,5.233-2.839,6.777-2.9,2.041-6.385,2.277-7.6.536a3.369,3.369,0,0,1-.092-3.114A8.758,8.758,0,0,1,46.3,43.753ZM39.392,47.6a3.369,3.369,0,0,1-.092,3.114c-1.217,1.753-4.7,1.5-7.6-.536-2.211-1.544-2.721-5.089-2.839-6.777,1.622-.458,5.129-1.191,7.34.353A8.758,8.758,0,0,1,39.392,47.6ZM21.625,65.642v2.617H8.542a3.937,3.937,0,0,1-3.925-3.925V38.167H34.8a13.313,13.313,0,0,0,.51,2.368,15.58,15.58,0,0,0-8.269.706,1.319,1.319,0,0,0-.837,1.191c0,.288-.078,7.039,3.99,9.891a11.314,11.314,0,0,0,6.332,2.185,6.5,6.5,0,0,0,3.415-.929v8.138H25.55A3.937,3.937,0,0,0,21.625,65.642Zm31.4,7.85A1.308,1.308,0,0,1,51.717,74.8H25.55a1.308,1.308,0,0,1-1.308-1.308v-7.85a1.308,1.308,0,0,1,1.308-1.308H51.717a1.308,1.308,0,0,1,1.308,1.308Zm5.233-2.617H55.642V68.258h2.617Zm19.625-6.542a3.937,3.937,0,0,1-3.925,3.925H60.875V66.95a1.308,1.308,0,0,0-1.308-1.308H55.642a3.937,3.937,0,0,0-3.925-3.925H42.558V53.579a6.5,6.5,0,0,0,3.415.929,11.315,11.315,0,0,0,6.332-2.185c4.069-2.852,3.99-9.6,3.99-9.891a1.319,1.319,0,0,0-.837-1.191,15.58,15.58,0,0,0-8.269-.706,13.313,13.313,0,0,0,.51-2.368H77.883Zm0-28.783H47.7a8.647,8.647,0,0,0-.916-2.617h31.1Zm0-5.233H44.926A18.294,18.294,0,0,0,41.983,27.7a1.351,1.351,0,0,0-1.465,0,18.294,18.294,0,0,0-2.944,2.617H4.617V29.008a3.937,3.937,0,0,1,3.925-3.925H73.958a3.937,3.937,0,0,1,3.925,3.925Z" transform="translate(0 3.084)"/>
    <path id="Trazado_107161" data-name="Trazado 107161" d="M10,6h7.85V8.617H10Z" transform="translate(2.467 1.234)"/>
    <path id="Trazado_107162" data-name="Trazado 107162" d="M50.617,11.85h2.617V9.233H55.85V6.617H53.233V4H50.617V6.617H48V9.233h2.617Z" transform="translate(14.183 0.617)"/>
    <path id="Trazado_107163" data-name="Trazado 107163" d="M28.308,15.084h3.925v6.542a1.308,1.308,0,0,0,2.5.531l5.233-11.775a1.308,1.308,0,0,0-1.2-1.84H34.85V3.309a1.308,1.308,0,0,0-2.479-.585L27.138,13.19a1.308,1.308,0,0,0,1.171,1.893Zm3.925-6.233v1a1.308,1.308,0,0,0,1.308,1.308h3.22l-1.911,4.3V13.775a1.308,1.308,0,0,0-1.308-1.308H30.425Z" transform="translate(7.708)"/>
    <path id="Trazado_107164" data-name="Trazado 107164" d="M59.392,36H48.925A3.925,3.925,0,0,0,45,39.925V50.392a3.925,3.925,0,0,0,3.925,3.925H59.392a3.925,3.925,0,0,0,3.925-3.925V39.925A3.925,3.925,0,0,0,59.392,36ZM60.7,50.392A1.308,1.308,0,0,1,59.392,51.7H48.925a1.308,1.308,0,0,1-1.308-1.308V39.925a1.308,1.308,0,0,1,1.308-1.308H59.392A1.308,1.308,0,0,1,60.7,39.925Z" transform="translate(13.258 10.484)"/>
    <path id="Trazado_107165" data-name="Trazado 107165" d="M49,40h2.617v2.617H49Z" transform="translate(14.492 11.717)"/>
    <path id="Trazado_107166" data-name="Trazado 107166" d="M53,40h2.617v2.617H53Z" transform="translate(15.725 11.717)"/>
    <path id="Trazado_107167" data-name="Trazado 107167" d="M49,44h2.617v2.617H49Z" transform="translate(14.492 12.95)"/>
    <path id="Trazado_107168" data-name="Trazado 107168" d="M53,44h2.617v2.617H53Z" transform="translate(15.725 12.95)"/>
    <path id="Trazado_107169" data-name="Trazado 107169" d="M23.317,50.392V39.925A3.925,3.925,0,0,0,19.392,36H8.925A3.925,3.925,0,0,0,5,39.925V50.392a3.925,3.925,0,0,0,3.925,3.925H19.392A3.925,3.925,0,0,0,23.317,50.392Zm-2.617,0A1.308,1.308,0,0,1,19.392,51.7H8.925a1.308,1.308,0,0,1-1.308-1.308V39.925a1.308,1.308,0,0,1,1.308-1.308H19.392A1.308,1.308,0,0,1,20.7,39.925Z" transform="translate(0.925 10.484)"/>
    <path id="Trazado_107170" data-name="Trazado 107170" d="M13,40h2.617v2.617H13Z" transform="translate(3.392 11.717)"/>
    <path id="Trazado_107171" data-name="Trazado 107171" d="M9,40h2.617v2.617H9Z" transform="translate(2.158 11.717)"/>
    <path id="Trazado_107172" data-name="Trazado 107172" d="M13,44h2.617v2.617H13Z" transform="translate(3.392 12.95)"/>
    <path id="Trazado_107173" data-name="Trazado 107173" d="M9,44h2.617v2.617H9Z" transform="translate(2.158 12.95)"/>
  </g>
</svg>
