<svg xmlns="http://www.w3.org/2000/svg" width="51.41" height="87.5" viewBox="0 0 51.41 87.5">
  <g id="resistor" transform="translate(-105.606)">
    <g id="Grupo_54848" data-name="Grupo 54848" transform="translate(106.888 18.41)">
      <g id="Grupo_54846" data-name="Grupo 54846" transform="translate(31.167)">
        <path id="Trazado_105709" data-name="Trazado 105709" d="M328.951,146.641v-.118a5.118,5.118,0,0,0-.66-2.515l-.261-.135-1.456-.337-.155-1.393.849-.7V138.27l-.817-.626V136.37l.817-.663v-5.564l-.451-.389v-1.808l.451-.367v-2.826l-.464-.4-.351-.683.456-.987,1.172-.493a5.112,5.112,0,0,0,.864-2.632l-.736-.542.1-1.457.62-.564a5.114,5.114,0,0,0-2.956-4.183l-3.117-1.435V108.56a.817.817,0,0,0-.817-.817H318.22a.815.815,0,0,0-.815.817v2.818l-2.156.992-.6,5.261,1.98,7.124L314.567,141.8l.652,11.671,2.185,1.006V157.3a.815.815,0,0,0,.815.817h3.821a.817.817,0,0,0,.817-.817V154.48l3.117-1.435a5.115,5.115,0,0,0,2.911-3.841l-.244-.2-.345-.409.079-1.257Z" transform="translate(-311.31 -107.743)" fill="#f4cd8a"/>
        <path id="Trazado_105710" data-name="Trazado 105710" d="M302.471,148.951v-1.936a5.323,5.323,0,0,1,1.364-3.565l.141-.155a.833.833,0,0,0,.213-.554V123.208a.832.832,0,0,0-.213-.554l-.141-.155a5.323,5.323,0,0,1-1.364-3.565V117a5.289,5.289,0,0,1,3.035-4.8l1.653-.771-.1-.048v-2.818a.817.817,0,0,0-.817-.817h-3.821a.815.815,0,0,0-.815.817v2.818l-3.118,1.435A5.115,5.115,0,0,0,295.529,117l.438.2-.027,1.78-.427.58a5.116,5.116,0,0,0,.867,2.633l1.411.445c.021.007.4,1.456.4,1.456l-.7.483-.294.18v2.826l.325.384s-.036,1.825,0,1.789-.325.39-.325.39v5.564l.36.335v1.987l-.36.241v3.175l.667.364s-.084,1.739-.092,1.716-1.3.328-1.3.328l-.3.155a5.118,5.118,0,0,0-.66,2.515v.118s.529.474.511.463,0,1.718,0,1.718l-.446.383a5.114,5.114,0,0,0,2.911,3.841l3.118,1.435V157.3a.815.815,0,0,0,.815.817h3.821a.817.817,0,0,0,.817-.817v-2.818l.009,0-1.557-.726A5.288,5.288,0,0,1,302.471,148.951Z" transform="translate(-295.508 -107.744)" fill="#eeb865"/>
      </g>
      <g id="Grupo_54847" data-name="Grupo 54847" transform="translate(0 0.133)">
        <path id="Trazado_105711" data-name="Trazado 105711" d="M146.549,147.422V147.3a5.118,5.118,0,0,0-.66-2.515l-.261-.135-1.456-.337-.155-1.393.849-.7v-3.175l-.817-.626v-1.275l.817-.663v-5.564l-.451-.389v-1.808l.451-.367v-2.826l-.464-.4-.351-.683.456-.987,1.172-.493a5.112,5.112,0,0,0,.864-2.632l-.736-.542.1-1.457.62-.564a5.114,5.114,0,0,0-2.955-4.183l-3.117-1.435v-2.818a.817.817,0,0,0-.817-.817h-3.821a.815.815,0,0,0-.815.817v2.818l-2.156.992-.6,5.261,1.98,7.124-2.063,17.049.652,11.671L135,155.261v2.818a.815.815,0,0,0,.815.817h3.821a.817.817,0,0,0,.817-.817v-2.818l3.117-1.435a5.115,5.115,0,0,0,2.911-3.841l-.244-.2-.345-.409.079-1.257Z" transform="translate(-128.908 -108.524)" fill="#feca70"/>
        <path id="Trazado_105712" data-name="Trazado 105712" d="M120.069,149.732V147.8a5.323,5.323,0,0,1,1.364-3.565l.141-.155a.833.833,0,0,0,.213-.554V123.989a.832.832,0,0,0-.213-.554l-.141-.155a5.323,5.323,0,0,1-1.364-3.565v-1.936a5.289,5.289,0,0,1,3.035-4.8l1.653-.771-.1-.048v-2.818a.817.817,0,0,0-.817-.817h-3.821a.815.815,0,0,0-.815.817v2.818l-3.118,1.435a5.115,5.115,0,0,0-2.955,4.182l.438.2-.027,1.78-.427.58a5.116,5.116,0,0,0,.867,2.633l1.411.445c.021.007.4,1.456.4,1.456l-.7.483-.294.18v2.826l.325.384s-.036,1.825,0,1.789-.325.39-.325.39v5.564l.36.335v1.987l-.36.241v3.175l.667.364s-.084,1.739-.092,1.716-1.3.328-1.3.328l-.3.155a5.118,5.118,0,0,0-.66,2.515v.118s.529.474.511.463,0,1.718,0,1.718l-.446.383a5.114,5.114,0,0,0,2.911,3.841l3.118,1.435v2.818a.815.815,0,0,0,.815.817h3.821a.817.817,0,0,0,.817-.817v-2.818l.009,0-1.557-.726A5.288,5.288,0,0,1,120.069,149.732Z" transform="translate(-113.106 -108.525)" fill="#f6ad3f"/>
      </g>
    </g>
    <g id="Grupo_54849" data-name="Grupo 54849" transform="translate(105.606 0)">
      <path id="Trazado_105713" data-name="Trazado 105713" d="M122.088,22.449l-2.372-1.092v-2a2.1,2.1,0,0,0-2.1-2.1h-.629V1.282a1.282,1.282,0,0,0-2.563,0V17.263H113.8a2.1,2.1,0,0,0-2.1,2.1v2l-2.372,1.092a6.417,6.417,0,0,0-3.722,5.812v1.874a6.385,6.385,0,0,0,1.674,4.315l.01.011V53l-.01.011a6.385,6.385,0,0,0-1.673,4.315V59.2a6.418,6.418,0,0,0,3.722,5.812L111.7,66.1v2a2.1,2.1,0,0,0,2.1,2.1h.629V86.218a1.282,1.282,0,0,0,2.563,0V70.2h.629a2.1,2.1,0,0,0,2.1-2.1v-2l2.372-1.092A6.417,6.417,0,0,0,125.81,59.2V57.323a6.385,6.385,0,0,0-1.674-4.315l-.01-.011V34.462l.01-.011a6.385,6.385,0,0,0,1.673-4.315V28.261a6.417,6.417,0,0,0-3.722-5.812Zm-12.235,29.8V49.071h11.71v3.175Zm11.71-16.691v2.826h-11.71V35.555Zm-11.71,5.389h11.71v5.564h-11.71Zm12.391-8.222-.138.151c-.035.038-.067.078-.1.119h-12.6c-.032-.04-.064-.081-.1-.119l-.138-.15a3.824,3.824,0,0,1-.993-2.363h15.057A3.822,3.822,0,0,1,122.244,32.722ZM110.4,24.777l3.117-1.435a1.282,1.282,0,0,0,.745-1.164V19.826h2.89v2.352a1.281,1.281,0,0,0,.745,1.164l3.117,1.435a3.847,3.847,0,0,1,2.2,3.019H108.2A3.848,3.848,0,0,1,110.4,24.777Zm10.615,37.9L117.9,64.117a1.282,1.282,0,0,0-.745,1.164v2.352h-2.89V65.281a1.281,1.281,0,0,0-.745-1.164L110.4,62.682A3.85,3.85,0,0,1,108.256,60h4.681a1.282,1.282,0,1,0,0-2.563h-4.768v-.118a3.824,3.824,0,0,1,.943-2.514H122.3a3.825,3.825,0,0,1,.943,2.514v.118H118.4a1.282,1.282,0,1,0,0,2.563h4.762A3.849,3.849,0,0,1,121.015,62.682Z" transform="translate(-105.606 0)"/>
      <path id="Trazado_105714" data-name="Trazado 105714" d="M305.479,42.28A1.281,1.281,0,0,0,306.761,41V34.462l.01-.011a6.385,6.385,0,0,0,1.674-4.315V28.261a6.418,6.418,0,0,0-3.722-5.812l-2.372-1.092v-2a2.1,2.1,0,0,0-2.1-2.1h-.629V1.282a1.282,1.282,0,0,0-2.563,0V17.263h-.629a2.1,2.1,0,0,0-2.1,2.1v2l-2.372,1.092a6.418,6.418,0,0,0-3.723,5.812v1.874a6.385,6.385,0,0,0,1.674,4.315l.01.011V53l-.01.011a6.385,6.385,0,0,0-1.674,4.315V59.2a6.418,6.418,0,0,0,3.722,5.812l2.372,1.092v2a2.1,2.1,0,0,0,2.1,2.1h.629V86.218a1.282,1.282,0,0,0,2.563,0V70.2h.629a2.1,2.1,0,0,0,2.1-2.1v-2l2.372-1.092a6.418,6.418,0,0,0,3.722-5.812V57.323a6.385,6.385,0,0,0-1.674-4.315l-.01-.011V46.46a1.282,1.282,0,1,0-2.563,0v.048h-11.71V40.944H304.2V41a1.281,1.281,0,0,0,1.281,1.281Zm-12.444-17.5,3.117-1.435a1.282,1.282,0,0,0,.745-1.164V19.826h2.89v2.352a1.281,1.281,0,0,0,.745,1.164l3.117,1.436a3.847,3.847,0,0,1,2.2,3.019h-4.818a1.282,1.282,0,0,0,0,2.563h4.838a3.822,3.822,0,0,1-.993,2.363l-.138.151c-.035.038-.067.078-.1.119h-12.6c-.032-.04-.064-.081-.1-.119l-.138-.15a3.825,3.825,0,0,1-.993-2.363h4.758a1.282,1.282,0,1,0,0-2.563h-4.737a3.848,3.848,0,0,1,2.2-3.019Zm11.9,30.032a3.824,3.824,0,0,1,.943,2.514v.118H290.8v-.118a3.824,3.824,0,0,1,.943-2.514Zm-1.288,7.873-3.117,1.435a1.282,1.282,0,0,0-.745,1.164v2.352H296.9V65.281a1.281,1.281,0,0,0-.745-1.164l-3.117-1.435A3.849,3.849,0,0,1,290.891,60h14.9A3.85,3.85,0,0,1,303.65,62.682Zm.548-13.611v3.175h-11.71V49.071Zm-11.71-10.69V35.555H304.2v2.826Z" transform="translate(-257.035 0)"/>
    </g>
  </g>
</svg>
