<svg xmlns="http://www.w3.org/2000/svg" xmlns:xlink="http://www.w3.org/1999/xlink" width="627.688" height="325.838" viewBox="0 0 627.688 325.838">
  <defs>
    <linearGradient id="linear-gradient" x1="-1.002" y1="1.574" x2="-0.967" y2="1.541" gradientUnits="objectBoundingBox">
      <stop offset="0" stop-opacity="0.102"/>
      <stop offset="1" stop-opacity="0"/>
    </linearGradient>
    <linearGradient id="linear-gradient-2" x1="-0.287" y1="1.25" x2="-0.227" y2="1.229" gradientUnits="objectBoundingBox">
      <stop offset="0" stop-color="#fff" stop-opacity="0.2"/>
      <stop offset="1" stop-color="#fff" stop-opacity="0"/>
    </linearGradient>
  </defs>
  <g id="Grupo_55662" data-name="Grupo 55662" transform="translate(10340.045 8362)">
    <path id="Trazado_107293" data-name="Trazado 107293" d="M265.192,845.722H235.9l1.322-2.876-.1-.091-4.908,2.579-5.129,1.493,5.129,1.493,4.908,2.579.1-.069-1.325-2.9h29.292Z" transform="translate(-10325.192 -8927.014)" fill="#b90f3d"/>
    <path id="Trazado_107317" data-name="Trazado 107317" d="M255.353,845.722H235.9l1.322-2.876-.1-.091-4.908,2.579-5.129,1.493,5.129,1.493,4.908,2.579.1-.069-1.325-2.9h19.452Z" transform="translate(-10890.88 -7995.048) rotate(-90)" fill="#b90f3d"/>
    <path id="Trazado_107323" data-name="Trazado 107323" d="M255.353,845.722H235.9l1.322-2.876-.1-.091-4.908,2.579-5.129,1.493,5.129,1.493,4.908,2.579.1-.069-1.325-2.9h19.452Z" transform="translate(-11176.434 -7960.048) rotate(-90)" fill="#b90f3d"/>
    <path id="Trazado_107320" data-name="Trazado 107320" d="M28.267,5.177H8.817l1.322,2.876-.1.091L5.129,5.565,0,4.072,5.129,2.579,10.037,0l.1.069-1.325,2.9H28.267Z" transform="translate(-10039.981 -8195.523) rotate(90)" fill="#b90f3d"/>
    <path id="Trazado_107324" data-name="Trazado 107324" d="M28.267,5.177H8.817l1.322,2.876-.1.091L5.129,5.565,0,4.072,5.129,2.579,10.037,0l.1.069-1.325,2.9H28.267Z" transform="translate(-10325.535 -8160.523) rotate(90)" fill="#b90f3d"/>
    <path id="Trazado_107318" data-name="Trazado 107318" d="M255.353,845.722H235.9l1.322-2.876-.1-.091-4.908,2.579-5.129,1.493,5.129,1.493,4.908,2.579.1-.069-1.325-2.9h19.452Z" transform="translate(-9784.834 -7371.235) rotate(180)" fill="#b90f3d"/>
    <path id="Trazado_107321" data-name="Trazado 107321" d="M255.353,845.722H235.9l1.322-2.876-.1-.091-4.908,2.579-5.129,1.493,5.129,1.493,4.908,2.579.1-.069-1.325-2.9h19.452Z" transform="translate(-10074.254 -7336.235) rotate(180)" fill="#b90f3d"/>
    <path id="Trazado_107319" data-name="Trazado 107319" d="M28.267,5.177H8.817l1.322,2.876-.1.091L5.129,5.565,0,4.072,5.129,2.579,10.037,0l.1.069-1.325,2.9H28.267Z" transform="translate(-10011.92 -8195.523) rotate(180)" fill="#b90f3d"/>
    <path id="Trazado_107322" data-name="Trazado 107322" d="M28.267,5.177H8.817l1.322,2.876-.1.091L5.129,5.565,0,4.072,5.129,2.579,10.037,0l.1.069-1.325,2.9H28.267Z" transform="translate(-10301.34 -8160.523) rotate(180)" fill="#b90f3d"/>
    <path id="Trazado_107303" data-name="Trazado 107303" d="M256.586,845.722H233.912l1.024-2.876-.08-.091-3.8,2.579-3.971,1.493,3.971,1.493,3.8,2.579.08-.069-1.026-2.9h22.676Z" transform="translate(-9523.914 -7230.432) rotate(180)" fill="#b90f3d"/>
    <path id="Trazado_107305" data-name="Trazado 107305" d="M256.586,845.722H233.912l1.024-2.876-.08-.091-3.8,2.579-3.971,1.493,3.971,1.493,3.8,2.579.08-.069-1.026-2.9h22.676Z" transform="translate(-8904.174 -8345.095) rotate(90)" fill="#b90f3d"/>
    <path id="Trazado_107306" data-name="Trazado 107306" d="M256.586,845.722H233.912l1.024-2.876-.08-.091-3.8,2.579-3.971,1.493,3.971,1.493,3.8,2.579.08-.069-1.026-2.9h22.676Z" transform="translate(-8904.174 -8455.667) rotate(90)" fill="#b90f3d"/>
    <path id="Trazado_107311" data-name="Trazado 107311" d="M256.586,845.722H233.912l1.024-2.876-.08-.091-3.8,2.579-3.971,1.493,3.971,1.493,3.8,2.579.08-.069-1.026-2.9h22.676Z" transform="translate(-9996.908 -9115.658)" fill="#b90f3d"/>
    <path id="Trazado_107312" data-name="Trazado 107312" d="M256.586,845.722H233.912l1.024-2.876-.08-.091-3.8,2.579-3.971,1.493,3.971,1.493,3.8,2.579.08-.069-1.026-2.9h22.676Z" transform="translate(-9290.48 -9021.873) rotate(50)" fill="#b90f3d"/>
    <path id="Trazado_107315" data-name="Trazado 107315" d="M256.586,845.722H233.912l1.024-2.876-.08-.091-3.8,2.579-3.971,1.493,3.971,1.493,3.8,2.579.08-.069-1.026-2.9h22.676Z" transform="translate(-9394.48 -8932.873) rotate(50)" fill="#b90f3d"/>
    <path id="Trazado_107313" data-name="Trazado 107313" d="M29.5,5.177H6.826L7.85,8.053l-.08.091-3.8-2.579L0,4.072,3.971,2.579,7.77,0l.08.069-1.026,2.9H29.5Z" transform="translate(-9897.027 -8283.604) rotate(-50)" fill="#b90f3d"/>
    <path id="Trazado_107314" data-name="Trazado 107314" d="M29.5,5.177H6.826L7.85,8.053l-.08.091-3.8-2.579L0,4.072,3.971,2.579,7.77,0l.08.069-1.026,2.9H29.5Z" transform="translate(-9795.022 -8194.604) rotate(-50)" fill="#b90f3d"/>
    <path id="Trazado_107307" data-name="Trazado 107307" d="M256.586,845.722H233.912l1.024-2.876-.08-.091-3.8,2.579-3.971,1.493,3.971,1.493,3.8,2.579.08-.069-1.026-2.9h22.676Z" transform="translate(-10078.086 -9015.384)" fill="#b90f3d"/>
    <path id="Trazado_107304" data-name="Trazado 107304" d="M256.586,845.722H233.912l1.024-2.876-.08-.091-3.8,2.579-3.971,1.493,3.971,1.493,3.8,2.579.08-.069-1.026-2.9h22.676Z" transform="translate(-9663.914 -7230.432) rotate(180)" fill="#b90f3d"/>
    <path id="Trazado_107308" data-name="Trazado 107308" d="M256.586,845.722H233.912l1.024-2.876-.08-.091-3.8,2.579-3.971,1.493,3.971,1.493,3.8,2.579.08-.069-1.026-2.9h22.676Z" transform="translate(-10763.255 -7861.423) rotate(-90)" fill="#b90f3d"/>
    <path id="Trazado_107309" data-name="Trazado 107309" d="M256.586,845.722H233.912l1.024-2.876-.08-.091-3.8,2.579-3.971,1.493,3.971,1.493,3.8,2.579.08-.069-1.026-2.9h22.676Z" transform="translate(-10763.255 -7907.899) rotate(-90)" fill="#b90f3d"/>
    <path id="Trazado_107310" data-name="Trazado 107310" d="M256.586,845.722H233.912l1.024-2.876-.08-.091-3.8,2.579-3.971,1.493,3.971,1.493,3.8,2.579.08-.069-1.026-2.9h22.676Z" transform="translate(-10763.255 -7954.376) rotate(-90)" fill="#b90f3d"/>
    <path id="Trazado_107302" data-name="Trazado 107302" d="M265.192,845.722H235.9l1.322-2.876-.1-.091-4.908,2.579-5.129,1.493,5.129,1.493,4.908,2.579.1-.069-1.325-2.9h29.292Z" transform="translate(-10539.192 -8927.014)" fill="#b90f3d"/>
    <g id="Grupo_55661" data-name="Grupo 55661" transform="translate(-376.143 230)">
      <g id="Trazado_107299" data-name="Trazado 107299" transform="translate(-9562 -8485)" fill="none">
        <path d="M8.6,0h187.23c4.748,0,8.6,4.659,8.6,10.407V183.86c0,5.748-3.849,10.407-8.6,10.407H8.6c-4.748,0-8.6-4.659-8.6-10.407V10.407C0,4.659,3.849,0,8.6,0Z" stroke="none"/>
        <path d="M 8.5972900390625 5 C 7.547821044921875 5 6.753173828125 5.77227783203125 6.372894287109375 6.232620239257812 C 5.500396728515625 7.288772583007812 4.999984741210938 8.81036376953125 4.999984741210938 10.40718078613281 L 4.999984741210938 183.8602752685547 C 4.999984741210938 185.4571228027344 5.500396728515625 186.9787139892578 6.372894287109375 188.0348663330078 C 6.753173828125 188.4952087402344 7.547821044921875 189.2674865722656 8.5972900390625 189.2674865722656 L 195.8271789550781 189.2674865722656 C 196.8766021728516 189.2674865722656 197.6712646484375 188.4952087402344 198.0515747070312 188.0348663330078 C 198.9240417480469 186.9787139892578 199.4244537353516 185.4571228027344 199.4244537353516 183.8602752685547 L 199.4244537353516 10.40718078613281 C 199.4244537353516 8.810333251953125 198.9240417480469 7.288772583007812 198.0515747070312 6.232620239257812 C 197.6712951660156 5.77227783203125 196.8766021728516 5 195.8271789550781 5 L 8.5972900390625 5 M 8.5972900390625 0 L 195.8271789550781 0 C 200.5753326416016 0 204.4244537353516 4.659469604492188 204.4244537353516 10.40718078613281 L 204.4244537353516 183.8602752685547 C 204.4244537353516 189.6080322265625 200.5753326416016 194.2674865722656 195.8271789550781 194.2674865722656 L 8.5972900390625 194.2674865722656 C 3.849136352539062 194.2674865722656 -1.52587890625e-05 189.6080322265625 -1.52587890625e-05 183.8602752685547 L -1.52587890625e-05 10.40718078613281 C -1.52587890625e-05 4.659469604492188 3.849136352539062 0 8.5972900390625 0 Z" stroke="none" fill="#727997"/>
      </g>
      <g id="Grupo_55656" data-name="Grupo 55656" transform="translate(-9411.506 -8319.838) rotate(90)">
        <g id="battery">
          <path id="Trazado_105683" data-name="Trazado 105683" d="M45.554,76.277H5.3A5.3,5.3,0,0,1,0,70.98V5.3A5.3,5.3,0,0,1,5.3,0H45.554a5.3,5.3,0,0,1,5.3,5.3V70.98A5.3,5.3,0,0,1,45.554,76.277Z" transform="translate(1.413 12.713)" fill="#afafaf"/>
          <path id="Trazado_105684" data-name="Trazado 105684" d="M12.36,5.3V70.98a5.3,5.3,0,0,1-5.3,5.3H0a5.3,5.3,0,0,0,5.3-5.3V5.3A5.3,5.3,0,0,0,0,0H7.063A5.3,5.3,0,0,1,12.36,5.3Z" transform="translate(39.904 12.713)" fill="#8a8a8a"/>
          <path id="Trazado_105685" data-name="Trazado 105685" d="M0,0H62.151V36.726H0Z" transform="translate(45.201 19.775) rotate(90)" fill="#f39e1d"/>
          <path id="Trazado_105686" data-name="Trazado 105686" d="M0,0H7.063V62.151H0Z" transform="translate(38.138 19.775)" fill="#ea5c23"/>
          <path id="Trazado_105687" data-name="Trazado 105687" d="M28.251,11.3H0V3.531A3.531,3.531,0,0,1,3.531,0H24.719a3.531,3.531,0,0,1,3.531,3.531Z" transform="translate(12.713 1.413)" fill="#afafaf"/>
          <path id="Trazado_105688" data-name="Trazado 105688" d="M10.594,3.531V11.3H3.531V3.531A3.53,3.53,0,0,0,0,0H7.063A3.53,3.53,0,0,1,10.594,3.531Z" transform="translate(30.369 1.413)" fill="#8a8a8a"/>
          <path id="Trazado_105689" data-name="Trazado 105689" d="M7.063,25.426,15.538,9.888H8.475V0L0,15.538H7.063Z" transform="translate(19.069 38.138)" fill="#ffe926"/>
          <path id="Trazado_105690" data-name="Trazado 105690" d="M46.967,11.3H42.376V4.944A4.95,4.95,0,0,0,37.432,0H16.244A4.95,4.95,0,0,0,11.3,4.944V11.3H6.71A6.717,6.717,0,0,0,0,18.01V83.693A6.717,6.717,0,0,0,6.71,90.4H46.967a6.717,6.717,0,0,0,6.71-6.71V18.01A6.717,6.717,0,0,0,46.967,11.3ZM14.125,4.944a2.121,2.121,0,0,1,2.119-2.119H37.432a2.121,2.121,0,0,1,2.119,2.119V11.3H14.125ZM50.851,83.693a3.889,3.889,0,0,1-3.884,3.884H6.71a3.889,3.889,0,0,1-3.884-3.884V18.01A3.889,3.889,0,0,1,6.71,14.125H46.967a3.889,3.889,0,0,1,3.884,3.884Z"/>
          <path id="Trazado_105691" data-name="Trazado 105691" d="M38.138,0H1.413A1.413,1.413,0,0,0,0,1.413V63.564a1.413,1.413,0,0,0,1.413,1.413H38.138a1.413,1.413,0,0,0,1.413-1.413V1.413A1.413,1.413,0,0,0,38.138,0ZM36.726,62.151H2.825V2.825h33.9Z" transform="translate(7.063 18.363)"/>
          <path id="Trazado_105692" data-name="Trazado 105692" d="M1.414,18.362h5.65v8.475a1.414,1.414,0,0,0,2.653.676l8.475-15.538a1.413,1.413,0,0,0-1.24-2.089H11.3V1.411A1.414,1.414,0,0,0,8.649.735L.174,16.273A1.413,1.413,0,0,0,1.414,18.362ZM8.477,6.951V11.3a1.413,1.413,0,0,0,1.413,1.413h4.683L9.889,21.3V16.949a1.413,1.413,0,0,0-1.413-1.413H3.794Z" transform="translate(17.655 36.727)"/>
        </g>
        <text id="_" data-name="+" transform="translate(21.727 19.776)" font-size="13" font-family="Roboto-Black, Roboto" font-weight="800"><tspan x="-3.472" y="14">+</tspan></text>
        <text id="_-" data-name="-" transform="translate(21.727 69.183)" font-size="13" font-family="Roboto-Black, Roboto" font-weight="800"><tspan x="-2.923" y="14">-</tspan></text>
      </g>
      <g id="switch" transform="translate(-9382.316 -8418.268)">
        <path id="Trazado_105746" data-name="Trazado 105746" d="M104.535,0H69.067A5.073,5.073,0,0,0,64,5.067V55.735A5.073,5.073,0,0,0,69.067,60.8h35.468a5.073,5.073,0,0,0,5.067-5.067V5.067A5.073,5.073,0,0,0,104.535,0Z" transform="translate(-64)" fill="#303c42"/>
        <path id="Trazado_105747" data-name="Trazado 105747" d="M125.869,74.536a2.536,2.536,0,0,1-2.533,2.533H87.867a2.536,2.536,0,0,1-2.533-2.533V23.867a2.536,2.536,0,0,1,2.533-2.533h35.468a2.536,2.536,0,0,1,2.533,2.533Z" transform="translate(-82.8 -18.8)" fill="#f2f2f2"/>
        <path id="Trazado_105748" data-name="Trazado 105748" d="M207.2,141.728V129.267A1.266,1.266,0,0,0,205.934,128H193.267A1.266,1.266,0,0,0,192,129.267V154.6a1.266,1.266,0,0,0,1.267,1.267h11.4a1.27,1.27,0,0,0,1.014-.507l3.8-5.067a1.272,1.272,0,0,0,.188-1.16Z" transform="translate(-176.799 -112.799)" fill="#303c42"/>
        <path id="Trazado_105749" data-name="Trazado 105749" d="M231.31,261.067h-8.859L219.917,256h9.7Z" transform="translate(-201.401 -225.599)" fill="#e6e6e6"/>
        <path id="Trazado_105750" data-name="Trazado 105750" d="M213.333,294.01v-3.5l1.052,2.1Z" transform="translate(-195.599 -256.008)" fill="#f2f2f2"/>
        <path id="Trazado_105751" data-name="Trazado 105751" d="M213.333,294.01v-3.5l1.052,2.1Z" transform="translate(-195.599 -256.008)" fill="#fff" opacity="0.7"/>
        <g id="Grupo_54887" data-name="Grupo 54887" transform="translate(17.734 17.734)">
          <rect id="Rect치ngulo_5233" data-name="Rect치ngulo 5233" width="10.134" height="10.134" fill="#e6e6e6"/>
          <path id="Trazado_105752" data-name="Trazado 105752" d="M232.238,322.533h-8.233l1.9-2.533h8.232Z" transform="translate(-222.738 -299.733)" fill="#e6e6e6"/>
        </g>
        <path id="Trazado_105753" data-name="Trazado 105753" d="M232.238,322.533h-8.233l1.9-2.533h8.232Z" transform="translate(-205.004 -281.999)" opacity="0.2"/>
        <circle id="Elipse_4071" data-name="Elipse 4071" cx="2.533" cy="2.533" r="2.533" transform="translate(20.267 5.067)" fill="#303c42"/>
        <path id="Trazado_105754" data-name="Trazado 105754" d="M210.941,243.6l2.469,7.4a1.272,1.272,0,0,1-.188,1.16l-3.8,5.067a1.27,1.27,0,0,1-1.014.507h-11.4a1.24,1.24,0,0,1-.763-.281l15.482,15.482h9.349a2.536,2.536,0,0,0,2.533-2.533V256.271Z" transform="translate(-180.54 -214.675)" fill="url(#linear-gradient)"/>
        <circle id="Elipse_4072" data-name="Elipse 4072" cx="2.533" cy="2.533" r="2.533" transform="translate(20.267 50.668)" fill="#303c42"/>
        <path id="Trazado_105755" data-name="Trazado 105755" d="M104.535,0H69.067A5.073,5.073,0,0,0,64,5.067V55.735A5.073,5.073,0,0,0,69.067,60.8h35.468a5.073,5.073,0,0,0,5.067-5.067V5.067A5.073,5.073,0,0,0,104.535,0Z" transform="translate(-64)" stroke="#000" stroke-width="1" fill="url(#linear-gradient-2)"/>
      </g>
      <g id="Grupo_55657" data-name="Grupo 55657" transform="translate(-0.068)">
        <g id="Elipse_4221" data-name="Elipse 4221" transform="translate(-9516 -8535)" fill="#fff" stroke="#727997" stroke-width="5">
          <circle cx="57" cy="57" r="57" stroke="none"/>
          <circle cx="57" cy="57" r="54.5" fill="none"/>
        </g>
        <g id="idea" transform="translate(-9483 -8592)">
          <path id="Trazado_105693" data-name="Trazado 105693" d="M220.3,426.033h0a16.125,16.125,0,0,1-12,0h0a4.325,4.325,0,0,1-2.716-4.015V410.126h17.428v11.893A4.325,4.325,0,0,1,220.3,426.033Z" transform="translate(-190.479 -353.507)" fill="#afafaf"/>
          <path id="Trazado_105694" data-name="Trazado 105694" d="M249.94,410.127V422.02a4.325,4.325,0,0,1-2.716,4.015h0a16.12,16.12,0,0,1-3.82,1.007,16.124,16.124,0,0,0,8.175-1.007h0a4.325,4.325,0,0,0,2.716-4.015V410.127Z" transform="translate(-221.753 -353.508)" fill="#8a8a8a"/>
          <path id="Trazado_105695" data-name="Trazado 105695" d="M137.939,144.616H158.3a.921.921,0,0,0,.934-.863,32.99,32.99,0,0,1,6.9-18.857,21.208,21.208,0,0,0,4.533-13.1c0-12.084-10.184-21.87-22.712-21.784-12.366.084-22.425,9.906-22.386,21.853A21.2,21.2,0,0,0,129.95,124.7,33.882,33.882,0,0,1,137,143.749.921.921,0,0,0,137.939,144.616Z" transform="translate(-124.288 -88.73)" fill="#ffe926"/>
          <path id="Trazado_105696" data-name="Trazado 105696" d="M245.486,90.011c-.675,0-1.342.04-2,.1,11.426,1.064,20.359,10.366,20.359,21.683a21.208,21.208,0,0,1-4.533,13.1,32.99,32.99,0,0,0-6.9,18.857.921.921,0,0,1-.934.863h4.355a.921.921,0,0,0,.934-.863,32.991,32.991,0,0,1,6.9-18.857,21.209,21.209,0,0,0,4.533-13.1C268.2,99.712,258.015,89.926,245.486,90.011Z" transform="translate(-221.819 -88.731)" fill="#e5d017"/>
          <path id="Trazado_105697" data-name="Trazado 105697" d="M231.779,379.806H220.288a.519.519,0,0,0-.519.519v4.331H232.3v-4.331A.519.519,0,0,0,231.779,379.806Z" transform="translate(-202.204 -328.428)" fill="#ea5c23"/>
          <path id="Trazado_105698" data-name="Trazado 105698" d="M270.889,379.806h-3.836v4.85h4.355v-4.331A.519.519,0,0,0,270.889,379.806Z" transform="translate(-241.314 -328.428)" fill="#cf460f"/>
          <g id="Grupo_54822" data-name="Grupo 54822" transform="translate(0 0)">
            <path id="Trazado_105699" data-name="Trazado 105699" d="M165.293,100.822a1.28,1.28,0,1,0-2.5.553A19.934,19.934,0,0,1,159,117.983a34.093,34.093,0,0,0-7.153,19.227h-2.31V134.5a1.8,1.8,0,0,0-1.136-1.671l2.394-17.808a1.537,1.537,0,0,0-2.139-1.613l-2.985,1.3-3.077-1.31a1.554,1.554,0,0,0-1.306.048l-2.551,1.314-3.453-1.374a1.537,1.537,0,0,0-2.1,1.632l.963,7.16a1.28,1.28,0,0,0,2.538-.341l-.73-5.426,2.372.944a1.281,1.281,0,0,0,1.06-.051l2.642-1.361,3.142,1.338a1.281,1.281,0,0,0,1.014,0l1.825-.8L145.833,132.7h-7.685l-.644-4.789a1.28,1.28,0,0,0-2.538.341l.615,4.576a1.8,1.8,0,0,0-1.136,1.671v2.709H132.14a35.1,35.1,0,0,0-7.3-19.412,19.859,19.859,0,0,1-4.119-12.064c-.036-11.262,9.436-20.489,21.115-20.569h.152a21.374,21.374,0,0,1,18.73,10.778,1.28,1.28,0,0,0,2.234-1.251A23.934,23.934,0,0,0,141.989,82.6h-.17c-13.086.089-23.7,10.469-23.658,23.138a22.4,22.4,0,0,0,4.644,13.608A32.515,32.515,0,0,1,129.6,137.68a2.2,2.2,0,0,0,2.214,2.091H132v10.612a5.579,5.579,0,0,0,3.52,5.2,17.4,17.4,0,0,0,12.948,0,5.579,5.579,0,0,0,3.52-5.2V139.771h.187a2.2,2.2,0,0,0,2.213-2.086,31.57,31.57,0,0,1,6.632-18.127,22.5,22.5,0,0,0,4.276-18.737Zm-30.736,44.15h14.867v1.735H134.557v-1.735Zm2.449-9.709h9.969v1.948h-9.969v-1.948Zm12.418,4.508v2.64H134.557v-2.64Zm-1.912,13.439a14.844,14.844,0,0,1-11.043,0,3.031,3.031,0,0,1-1.912-2.826v-1.116h14.867v1.116A3.031,3.031,0,0,1,147.512,153.21Z" transform="translate(-118.161 -82.605)" fill="#1a1a1a"/>
          </g>
        </g>
        <g id="idea-2" data-name="idea" transform="translate(-9483 -8484)">
          <path id="Trazado_105693-2" data-name="Trazado 105693" d="M220.3,426.033h0a16.125,16.125,0,0,1-12,0h0a4.325,4.325,0,0,1-2.716-4.015V410.126h17.428v11.893A4.325,4.325,0,0,1,220.3,426.033Z" transform="translate(-190.479 -353.507)" fill="#afafaf"/>
          <path id="Trazado_105694-2" data-name="Trazado 105694" d="M249.94,410.127V422.02a4.325,4.325,0,0,1-2.716,4.015h0a16.12,16.12,0,0,1-3.82,1.007,16.124,16.124,0,0,0,8.175-1.007h0a4.325,4.325,0,0,0,2.716-4.015V410.127Z" transform="translate(-221.753 -353.508)" fill="#8a8a8a"/>
          <path id="Trazado_105695-2" data-name="Trazado 105695" d="M137.939,144.616H158.3a.921.921,0,0,0,.934-.863,32.99,32.99,0,0,1,6.9-18.857,21.208,21.208,0,0,0,4.533-13.1c0-12.084-10.184-21.87-22.712-21.784-12.366.084-22.425,9.906-22.386,21.853A21.2,21.2,0,0,0,129.95,124.7,33.882,33.882,0,0,1,137,143.749.921.921,0,0,0,137.939,144.616Z" transform="translate(-124.288 -88.73)" fill="#ffe926"/>
          <path id="Trazado_105696-2" data-name="Trazado 105696" d="M245.486,90.011c-.675,0-1.342.04-2,.1,11.426,1.064,20.359,10.366,20.359,21.683a21.208,21.208,0,0,1-4.533,13.1,32.99,32.99,0,0,0-6.9,18.857.921.921,0,0,1-.934.863h4.355a.921.921,0,0,0,.934-.863,32.991,32.991,0,0,1,6.9-18.857,21.209,21.209,0,0,0,4.533-13.1C268.2,99.712,258.015,89.926,245.486,90.011Z" transform="translate(-221.819 -88.731)" fill="#e5d017"/>
          <path id="Trazado_105697-2" data-name="Trazado 105697" d="M231.779,379.806H220.288a.519.519,0,0,0-.519.519v4.331H232.3v-4.331A.519.519,0,0,0,231.779,379.806Z" transform="translate(-202.204 -328.428)" fill="#ea5c23"/>
          <path id="Trazado_105698-2" data-name="Trazado 105698" d="M270.889,379.806h-3.836v4.85h4.355v-4.331A.519.519,0,0,0,270.889,379.806Z" transform="translate(-241.314 -328.428)" fill="#cf460f"/>
          <g id="Grupo_54822-2" data-name="Grupo 54822" transform="translate(0 0)">
            <path id="Trazado_105699-2" data-name="Trazado 105699" d="M165.293,100.822a1.28,1.28,0,1,0-2.5.553A19.934,19.934,0,0,1,159,117.983a34.093,34.093,0,0,0-7.153,19.227h-2.31V134.5a1.8,1.8,0,0,0-1.136-1.671l2.394-17.808a1.537,1.537,0,0,0-2.139-1.613l-2.985,1.3-3.077-1.31a1.554,1.554,0,0,0-1.306.048l-2.551,1.314-3.453-1.374a1.537,1.537,0,0,0-2.1,1.632l.963,7.16a1.28,1.28,0,0,0,2.538-.341l-.73-5.426,2.372.944a1.281,1.281,0,0,0,1.06-.051l2.642-1.361,3.142,1.338a1.281,1.281,0,0,0,1.014,0l1.825-.8L145.833,132.7h-7.685l-.644-4.789a1.28,1.28,0,0,0-2.538.341l.615,4.576a1.8,1.8,0,0,0-1.136,1.671v2.709H132.14a35.1,35.1,0,0,0-7.3-19.412,19.859,19.859,0,0,1-4.119-12.064c-.036-11.262,9.436-20.489,21.115-20.569h.152a21.374,21.374,0,0,1,18.73,10.778,1.28,1.28,0,0,0,2.234-1.251A23.934,23.934,0,0,0,141.989,82.6h-.17c-13.086.089-23.7,10.469-23.658,23.138a22.4,22.4,0,0,0,4.644,13.608A32.515,32.515,0,0,1,129.6,137.68a2.2,2.2,0,0,0,2.214,2.091H132v10.612a5.579,5.579,0,0,0,3.52,5.2,17.4,17.4,0,0,0,12.948,0,5.579,5.579,0,0,0,3.52-5.2V139.771h.187a2.2,2.2,0,0,0,2.213-2.086,31.57,31.57,0,0,1,6.632-18.127,22.5,22.5,0,0,0,4.276-18.737Zm-30.736,44.15h14.867v1.735H134.557v-1.735Zm2.449-9.709h9.969v1.948h-9.969v-1.948Zm12.418,4.508v2.64H134.557v-2.64Zm-1.912,13.439a14.844,14.844,0,0,1-11.043,0,3.031,3.031,0,0,1-1.912-2.826v-1.116h14.867v1.116A3.031,3.031,0,0,1,147.512,153.21Z" transform="translate(-118.161 -82.605)" fill="#1a1a1a"/>
          </g>
        </g>
      </g>
    </g>
    <g id="Grupo_55660" data-name="Grupo 55660" transform="translate(122 115.885)">
      <g id="Grupo_55658" data-name="Grupo 55658">
        <path id="Trazado_107300" data-name="Trazado 107300" d="M-9928.191-8645v21.831h-103.5v52.558h-38.812v111.583h329.09v-145.543h-45.28V-8645Z" transform="translate(-389.045 280.144)" fill="none" stroke="#727997" stroke-linejoin="round" stroke-width="5"/>
        <path id="Trazado_107301" data-name="Trazado 107301" d="M-10046-8587.157v38h103.964v-19.405H-9801v-50.94" transform="translate(-374.667 295.881)" fill="none" stroke="#727997" stroke-linejoin="round" stroke-width="5"/>
      </g>
      <g id="switch-2" data-name="switch" transform="translate(-10153.256 -8276.802)">
        <path id="Trazado_105746-2" data-name="Trazado 105746" d="M104.535,0H69.067A5.073,5.073,0,0,0,64,5.067V55.735A5.073,5.073,0,0,0,69.067,60.8h35.468a5.073,5.073,0,0,0,5.067-5.067V5.067A5.073,5.073,0,0,0,104.535,0Z" transform="translate(-64)" fill="#303c42"/>
        <path id="Trazado_105747-2" data-name="Trazado 105747" d="M125.869,74.536a2.536,2.536,0,0,1-2.533,2.533H87.867a2.536,2.536,0,0,1-2.533-2.533V23.867a2.536,2.536,0,0,1,2.533-2.533h35.468a2.536,2.536,0,0,1,2.533,2.533Z" transform="translate(-82.8 -18.8)" fill="#f2f2f2"/>
        <path id="Trazado_105748-2" data-name="Trazado 105748" d="M207.2,141.728V129.267A1.266,1.266,0,0,0,205.934,128H193.267A1.266,1.266,0,0,0,192,129.267V154.6a1.266,1.266,0,0,0,1.267,1.267h11.4a1.27,1.27,0,0,0,1.014-.507l3.8-5.067a1.272,1.272,0,0,0,.188-1.16Z" transform="translate(-176.799 -112.799)" fill="#303c42"/>
        <path id="Trazado_105749-2" data-name="Trazado 105749" d="M231.31,261.067h-8.859L219.917,256h9.7Z" transform="translate(-201.401 -225.599)" fill="#e6e6e6"/>
        <path id="Trazado_105750-2" data-name="Trazado 105750" d="M213.333,294.01v-3.5l1.052,2.1Z" transform="translate(-195.599 -256.008)" fill="#f2f2f2"/>
        <path id="Trazado_105751-2" data-name="Trazado 105751" d="M213.333,294.01v-3.5l1.052,2.1Z" transform="translate(-195.599 -256.008)" fill="#fff" opacity="0.7"/>
        <g id="Grupo_54887-2" data-name="Grupo 54887" transform="translate(17.734 17.734)">
          <rect id="Rect치ngulo_5233-2" data-name="Rect치ngulo 5233" width="10.134" height="10.134" fill="#e6e6e6"/>
          <path id="Trazado_105752-2" data-name="Trazado 105752" d="M232.238,322.533h-8.233l1.9-2.533h8.232Z" transform="translate(-222.738 -299.733)" fill="#e6e6e6"/>
        </g>
        <path id="Trazado_105753-2" data-name="Trazado 105753" d="M232.238,322.533h-8.233l1.9-2.533h8.232Z" transform="translate(-205.004 -281.999)" opacity="0.2"/>
        <circle id="Elipse_4071-2" data-name="Elipse 4071" cx="2.533" cy="2.533" r="2.533" transform="translate(20.267 5.067)" fill="#303c42"/>
        <path id="Trazado_105754-2" data-name="Trazado 105754" d="M210.941,243.6l2.469,7.4a1.272,1.272,0,0,1-.188,1.16l-3.8,5.067a1.27,1.27,0,0,1-1.014.507h-11.4a1.24,1.24,0,0,1-.763-.281l15.482,15.482h9.349a2.536,2.536,0,0,0,2.533-2.533V256.271Z" transform="translate(-180.54 -214.675)" fill="url(#linear-gradient)"/>
        <circle id="Elipse_4072-2" data-name="Elipse 4072" cx="2.533" cy="2.533" r="2.533" transform="translate(20.267 50.668)" fill="#303c42"/>
        <path id="Trazado_105755-2" data-name="Trazado 105755" d="M104.535,0H69.067A5.073,5.073,0,0,0,64,5.067V55.735A5.073,5.073,0,0,0,69.067,60.8h35.468a5.073,5.073,0,0,0,5.067-5.067V5.067A5.073,5.073,0,0,0,104.535,0Z" transform="translate(-64)" stroke="#000" stroke-width="1" fill="url(#linear-gradient-2)"/>
      </g>
      <g id="idea-3" data-name="idea" transform="translate(-10342.659 -8424.981)">
        <path id="Trazado_105693-3" data-name="Trazado 105693" d="M220.3,426.033h0a16.125,16.125,0,0,1-12,0h0a4.325,4.325,0,0,1-2.716-4.015V410.126h17.428v11.893A4.325,4.325,0,0,1,220.3,426.033Z" transform="translate(-190.479 -353.507)" fill="#afafaf"/>
        <path id="Trazado_105694-3" data-name="Trazado 105694" d="M249.94,410.127V422.02a4.325,4.325,0,0,1-2.716,4.015h0a16.12,16.12,0,0,1-3.82,1.007,16.124,16.124,0,0,0,8.175-1.007h0a4.325,4.325,0,0,0,2.716-4.015V410.127Z" transform="translate(-221.753 -353.508)" fill="#8a8a8a"/>
        <path id="Trazado_105695-3" data-name="Trazado 105695" d="M137.939,144.616H158.3a.921.921,0,0,0,.934-.863,32.99,32.99,0,0,1,6.9-18.857,21.208,21.208,0,0,0,4.533-13.1c0-12.084-10.184-21.87-22.712-21.784-12.366.084-22.425,9.906-22.386,21.853A21.2,21.2,0,0,0,129.95,124.7,33.882,33.882,0,0,1,137,143.749.921.921,0,0,0,137.939,144.616Z" transform="translate(-124.288 -88.73)" fill="#ffe926"/>
        <path id="Trazado_105696-3" data-name="Trazado 105696" d="M245.486,90.011c-.675,0-1.342.04-2,.1,11.426,1.064,20.359,10.366,20.359,21.683a21.208,21.208,0,0,1-4.533,13.1,32.99,32.99,0,0,0-6.9,18.857.921.921,0,0,1-.934.863h4.355a.921.921,0,0,0,.934-.863,32.991,32.991,0,0,1,6.9-18.857,21.209,21.209,0,0,0,4.533-13.1C268.2,99.712,258.015,89.926,245.486,90.011Z" transform="translate(-221.819 -88.731)" fill="#e5d017"/>
        <path id="Trazado_105697-3" data-name="Trazado 105697" d="M231.779,379.806H220.288a.519.519,0,0,0-.519.519v4.331H232.3v-4.331A.519.519,0,0,0,231.779,379.806Z" transform="translate(-202.204 -328.428)" fill="#ea5c23"/>
        <path id="Trazado_105698-3" data-name="Trazado 105698" d="M270.889,379.806h-3.836v4.85h4.355v-4.331A.519.519,0,0,0,270.889,379.806Z" transform="translate(-241.314 -328.428)" fill="#cf460f"/>
        <g id="Grupo_54822-3" data-name="Grupo 54822" transform="translate(0 0)">
          <path id="Trazado_105699-3" data-name="Trazado 105699" d="M165.293,100.822a1.28,1.28,0,1,0-2.5.553A19.934,19.934,0,0,1,159,117.983a34.093,34.093,0,0,0-7.153,19.227h-2.31V134.5a1.8,1.8,0,0,0-1.136-1.671l2.394-17.808a1.537,1.537,0,0,0-2.139-1.613l-2.985,1.3-3.077-1.31a1.554,1.554,0,0,0-1.306.048l-2.551,1.314-3.453-1.374a1.537,1.537,0,0,0-2.1,1.632l.963,7.16a1.28,1.28,0,0,0,2.538-.341l-.73-5.426,2.372.944a1.281,1.281,0,0,0,1.06-.051l2.642-1.361,3.142,1.338a1.281,1.281,0,0,0,1.014,0l1.825-.8L145.833,132.7h-7.685l-.644-4.789a1.28,1.28,0,0,0-2.538.341l.615,4.576a1.8,1.8,0,0,0-1.136,1.671v2.709H132.14a35.1,35.1,0,0,0-7.3-19.412,19.859,19.859,0,0,1-4.119-12.064c-.036-11.262,9.436-20.489,21.115-20.569h.152a21.374,21.374,0,0,1,18.73,10.778,1.28,1.28,0,0,0,2.234-1.251A23.934,23.934,0,0,0,141.989,82.6h-.17c-13.086.089-23.7,10.469-23.658,23.138a22.4,22.4,0,0,0,4.644,13.608A32.515,32.515,0,0,1,129.6,137.68a2.2,2.2,0,0,0,2.214,2.091H132v10.612a5.579,5.579,0,0,0,3.52,5.2,17.4,17.4,0,0,0,12.948,0,5.579,5.579,0,0,0,3.52-5.2V139.771h.187a2.2,2.2,0,0,0,2.213-2.086,31.57,31.57,0,0,1,6.632-18.127,22.5,22.5,0,0,0,4.276-18.737Zm-30.736,44.15h14.867v1.735H134.557v-1.735Zm2.449-9.709h9.969v1.948h-9.969v-1.948Zm12.418,4.508v2.64H134.557v-2.64Zm-1.912,13.439a14.844,14.844,0,0,1-11.043,0,3.031,3.031,0,0,1-1.912-2.826v-1.116h14.867v1.116A3.031,3.031,0,0,1,147.512,153.21Z" transform="translate(-118.161 -82.605)" fill="#1a1a1a"/>
        </g>
      </g>
      <g id="idea-4" data-name="idea" transform="translate(-10342.659 -8336.115)">
        <path id="Trazado_105693-4" data-name="Trazado 105693" d="M220.3,426.033h0a16.125,16.125,0,0,1-12,0h0a4.325,4.325,0,0,1-2.716-4.015V410.126h17.428v11.893A4.325,4.325,0,0,1,220.3,426.033Z" transform="translate(-190.479 -353.507)" fill="#afafaf"/>
        <path id="Trazado_105694-4" data-name="Trazado 105694" d="M249.94,410.127V422.02a4.325,4.325,0,0,1-2.716,4.015h0a16.12,16.12,0,0,1-3.82,1.007,16.124,16.124,0,0,0,8.175-1.007h0a4.325,4.325,0,0,0,2.716-4.015V410.127Z" transform="translate(-221.753 -353.508)" fill="#8a8a8a"/>
        <path id="Trazado_105695-4" data-name="Trazado 105695" d="M137.939,144.616H158.3a.921.921,0,0,0,.934-.863,32.99,32.99,0,0,1,6.9-18.857,21.208,21.208,0,0,0,4.533-13.1c0-12.084-10.184-21.87-22.712-21.784-12.366.084-22.425,9.906-22.386,21.853A21.2,21.2,0,0,0,129.95,124.7,33.882,33.882,0,0,1,137,143.749.921.921,0,0,0,137.939,144.616Z" transform="translate(-124.288 -88.73)" fill="#ffe926"/>
        <path id="Trazado_105696-4" data-name="Trazado 105696" d="M245.486,90.011c-.675,0-1.342.04-2,.1,11.426,1.064,20.359,10.366,20.359,21.683a21.208,21.208,0,0,1-4.533,13.1,32.99,32.99,0,0,0-6.9,18.857.921.921,0,0,1-.934.863h4.355a.921.921,0,0,0,.934-.863,32.991,32.991,0,0,1,6.9-18.857,21.209,21.209,0,0,0,4.533-13.1C268.2,99.712,258.015,89.926,245.486,90.011Z" transform="translate(-221.819 -88.731)" fill="#e5d017"/>
        <path id="Trazado_105697-4" data-name="Trazado 105697" d="M231.779,379.806H220.288a.519.519,0,0,0-.519.519v4.331H232.3v-4.331A.519.519,0,0,0,231.779,379.806Z" transform="translate(-202.204 -328.428)" fill="#ea5c23"/>
        <path id="Trazado_105698-4" data-name="Trazado 105698" d="M270.889,379.806h-3.836v4.85h4.355v-4.331A.519.519,0,0,0,270.889,379.806Z" transform="translate(-241.314 -328.428)" fill="#cf460f"/>
        <g id="Grupo_54822-4" data-name="Grupo 54822" transform="translate(0 0)">
          <path id="Trazado_105699-4" data-name="Trazado 105699" d="M165.293,100.822a1.28,1.28,0,1,0-2.5.553A19.934,19.934,0,0,1,159,117.983a34.093,34.093,0,0,0-7.153,19.227h-2.31V134.5a1.8,1.8,0,0,0-1.136-1.671l2.394-17.808a1.537,1.537,0,0,0-2.139-1.613l-2.985,1.3-3.077-1.31a1.554,1.554,0,0,0-1.306.048l-2.551,1.314-3.453-1.374a1.537,1.537,0,0,0-2.1,1.632l.963,7.16a1.28,1.28,0,0,0,2.538-.341l-.73-5.426,2.372.944a1.281,1.281,0,0,0,1.06-.051l2.642-1.361,3.142,1.338a1.281,1.281,0,0,0,1.014,0l1.825-.8L145.833,132.7h-7.685l-.644-4.789a1.28,1.28,0,0,0-2.538.341l.615,4.576a1.8,1.8,0,0,0-1.136,1.671v2.709H132.14a35.1,35.1,0,0,0-7.3-19.412,19.859,19.859,0,0,1-4.119-12.064c-.036-11.262,9.436-20.489,21.115-20.569h.152a21.374,21.374,0,0,1,18.73,10.778,1.28,1.28,0,0,0,2.234-1.251A23.934,23.934,0,0,0,141.989,82.6h-.17c-13.086.089-23.7,10.469-23.658,23.138a22.4,22.4,0,0,0,4.644,13.608A32.515,32.515,0,0,1,129.6,137.68a2.2,2.2,0,0,0,2.214,2.091H132v10.612a5.579,5.579,0,0,0,3.52,5.2,17.4,17.4,0,0,0,12.948,0,5.579,5.579,0,0,0,3.52-5.2V139.771h.187a2.2,2.2,0,0,0,2.213-2.086,31.57,31.57,0,0,1,6.632-18.127,22.5,22.5,0,0,0,4.276-18.737Zm-30.736,44.15h14.867v1.735H134.557v-1.735Zm2.449-9.709h9.969v1.948h-9.969v-1.948Zm12.418,4.508v2.64H134.557v-2.64Zm-1.912,13.439a14.844,14.844,0,0,1-11.043,0,3.031,3.031,0,0,1-1.912-2.826v-1.116h14.867v1.116A3.031,3.031,0,0,1,147.512,153.21Z" transform="translate(-118.161 -82.605)" fill="#1a1a1a"/>
        </g>
      </g>
      <g id="Grupo_55659" data-name="Grupo 55659" transform="translate(-10249.799 -8205.723) rotate(90)">
        <g id="battery-2" data-name="battery" transform="translate(0 0)">
          <path id="Trazado_105683-2" data-name="Trazado 105683" d="M45.553,0H5.3A5.3,5.3,0,0,0,0,5.3V70.98a5.3,5.3,0,0,0,5.3,5.3H45.553a5.3,5.3,0,0,0,5.3-5.3V5.3A5.3,5.3,0,0,0,45.553,0Z" transform="translate(1.413 1.413)" fill="#afafaf"/>
          <path id="Trazado_105684-2" data-name="Trazado 105684" d="M12.359,70.98V5.3A5.3,5.3,0,0,0,7.063,0H0A5.3,5.3,0,0,1,5.3,5.3V70.98a5.3,5.3,0,0,1-5.3,5.3H7.063A5.3,5.3,0,0,0,12.359,70.98Z" transform="translate(39.903 1.413)" fill="#8a8a8a"/>
          <path id="Trazado_105685-2" data-name="Trazado 105685" d="M0,36.725H62.151V0H0Z" transform="translate(8.475 70.627) rotate(-90)" fill="#f39e1d"/>
          <path id="Trazado_105686-2" data-name="Trazado 105686" d="M0,62.151H7.062V0H0Z" transform="translate(38.138 8.475)" fill="#ea5c23"/>
          <path id="Trazado_105687-2" data-name="Trazado 105687" d="M28.25,0H0V7.769A3.531,3.531,0,0,0,3.531,11.3H24.719A3.531,3.531,0,0,0,28.25,7.769Z" transform="translate(12.713 77.689)" fill="#afafaf"/>
          <path id="Trazado_105688-2" data-name="Trazado 105688" d="M10.594,7.769V0H3.531V7.769A3.53,3.53,0,0,1,0,11.3H7.063A3.53,3.53,0,0,0,10.594,7.769Z" transform="translate(30.369 77.689)" fill="#8a8a8a"/>
          <path id="Trazado_105689-2" data-name="Trazado 105689" d="M7.063,0l8.475,15.538H8.475v9.888L0,9.888H7.063Z" transform="translate(19.069 26.838)" fill="#ffe926"/>
          <path id="Trazado_105690-2" data-name="Trazado 105690" d="M46.966,79.1H42.375v6.356A4.949,4.949,0,0,1,37.431,90.4H16.244A4.949,4.949,0,0,1,11.3,85.458V79.1H6.709A6.717,6.717,0,0,1,0,72.392V6.71A6.717,6.717,0,0,1,6.709,0H46.966a6.717,6.717,0,0,1,6.709,6.71V72.392A6.717,6.717,0,0,1,46.966,79.1ZM14.125,85.458a2.121,2.121,0,0,0,2.119,2.119H37.431a2.121,2.121,0,0,0,2.119-2.119V79.1H14.125ZM50.85,6.71a3.889,3.889,0,0,0-3.884-3.884H6.709A3.889,3.889,0,0,0,2.825,6.71V72.392a3.889,3.889,0,0,0,3.884,3.884H46.966a3.889,3.889,0,0,0,3.884-3.884Z"/>
          <path id="Trazado_105691-2" data-name="Trazado 105691" d="M38.138,64.977H1.413A1.413,1.413,0,0,1,0,63.564V1.413A1.413,1.413,0,0,1,1.413,0H38.138A1.413,1.413,0,0,1,39.55,1.413V63.564A1.413,1.413,0,0,1,38.138,64.977ZM36.725,2.825H2.825V62.151h33.9Z" transform="translate(7.063 7.063)"/>
          <path id="Trazado_105692-2" data-name="Trazado 105692" d="M1.414,9.887h5.65V1.412A1.414,1.414,0,0,1,9.717.736l8.475,15.538a1.413,1.413,0,0,1-1.24,2.089H11.3v8.475a1.414,1.414,0,0,1-2.652.676L.174,11.976A1.413,1.413,0,0,1,1.414,9.887ZM8.477,21.3V16.95a1.413,1.413,0,0,1,1.413-1.413h4.683L9.889,6.952V11.3a1.413,1.413,0,0,1-1.413,1.413H3.794Z" transform="translate(17.655 25.426)"/>
        </g>
        <text id="_2" data-name="+" transform="matrix(1, 0, 0, -1, 21.726, 72.051)" font-size="13" font-family="Roboto-Black, Roboto" font-weight="800"><tspan x="-3.472" y="14">+</tspan></text>
        <text id="_--2" data-name="-" transform="matrix(1, 0, 0, -1, 21.726, 22.645)" font-size="13" font-family="Roboto-Black, Roboto" font-weight="800"><tspan x="-2.923" y="14">-</tspan></text>
      </g>
    </g>
  </g>
</svg>
