<svg xmlns="http://www.w3.org/2000/svg" width="453" height="274" viewBox="0 0 453 274">
  <g id="Grupo_974142" data-name="Grupo 974142" transform="translate(570 7816)">
    <g id="Grupo_974139" data-name="Grupo 974139" transform="translate(-804 -13275)">
      <g id="Grupo_974134" data-name="Grupo 974134" transform="translate(234 5459)">
        <g id="Rectángulo_339706" data-name="Rectángulo 339706" transform="translate(0 0)" fill="#ecebe0" stroke="#707070" stroke-width="1">
          <rect width="424" height="274" rx="7" stroke="none"/>
          <rect x="0.5" y="0.5" width="423" height="273" rx="6.5" fill="none"/>
        </g>
        <g id="Grupo_974118" data-name="Grupo 974118" transform="translate(14.959 7.981)">
          <path id="Trazado_704961" data-name="Trazado 704961" d="M410-10071.5H812.64" transform="translate(-410 10071.5)" fill="none" stroke="#b8b8b8" stroke-linecap="round" stroke-width="1" stroke-dasharray="0.1 6"/>
          <path id="Trazado_704967" data-name="Trazado 704967" d="M410-10071.5H812.64" transform="translate(-410 10121.482)" fill="none" stroke="#b8b8b8" stroke-linecap="round" stroke-width="1" stroke-dasharray="0.1 6"/>
          <path id="Trazado_704958" data-name="Trazado 704958" d="M410-10071.5H812.64" transform="translate(-410 10096.493)" fill="none" stroke="#b8b8b8" stroke-linecap="round" stroke-width="1" stroke-dasharray="0.1 6"/>
          <path id="Trazado_704964" data-name="Trazado 704964" d="M410-10071.5H812.64" transform="translate(-410 10146.474)" fill="none" stroke="#b8b8b8" stroke-linecap="round" stroke-width="1" stroke-dasharray="0.1 6"/>
          <path id="Trazado_704960" data-name="Trazado 704960" d="M410-10071.5H812.64" transform="translate(-410 10079.11)" fill="none" stroke="#b8b8b8" stroke-linecap="round" stroke-width="1" stroke-dasharray="0.1 6"/>
          <path id="Trazado_704966" data-name="Trazado 704966" d="M410-10071.5H812.64" transform="translate(-410 10129.093)" fill="none" stroke="#b8b8b8" stroke-linecap="round" stroke-width="1" stroke-dasharray="0.1 6"/>
          <path id="Trazado_704957" data-name="Trazado 704957" d="M410-10071.5H812.64" transform="translate(-410 10104.104)" fill="none" stroke="#b8b8b8" stroke-linecap="round" stroke-width="1" stroke-dasharray="0.1 6"/>
          <path id="Trazado_704963" data-name="Trazado 704963" d="M410-10071.5H812.64" transform="translate(-410 10154.085)" fill="none" stroke="#b8b8b8" stroke-linecap="round" stroke-width="1" stroke-dasharray="0.1 6"/>
          <path id="Trazado_704959" data-name="Trazado 704959" d="M410-10071.5H812.64" transform="translate(-410 10086.724)" fill="none" stroke="#b8b8b8" stroke-linecap="round" stroke-width="1" stroke-dasharray="0.1 6"/>
          <path id="Trazado_704965" data-name="Trazado 704965" d="M410-10071.5H812.64" transform="translate(-410 10136.706)" fill="none" stroke="#b8b8b8" stroke-linecap="round" stroke-width="1" stroke-dasharray="0.1 6"/>
          <path id="Trazado_704956" data-name="Trazado 704956" d="M410-10071.5H812.64" transform="translate(-410 10111.714)" fill="none" stroke="#b8b8b8" stroke-linecap="round" stroke-width="1" stroke-dasharray="0.1 6"/>
          <path id="Trazado_704962" data-name="Trazado 704962" d="M410-10071.5H812.64" transform="translate(-410 10161.695)" fill="none" stroke="#b8b8b8" stroke-linecap="round" stroke-width="1" stroke-dasharray="0.1 6"/>
        </g>
        <g id="Grupo_974121" data-name="Grupo 974121" transform="translate(14.959 205.876)">
          <path id="Trazado_704961-2" data-name="Trazado 704961" d="M410-10071.5H812.64" transform="translate(-410 10071.5)" fill="none" stroke="#b8b8b8" stroke-linecap="round" stroke-width="1" stroke-dasharray="0.1 6"/>
          <path id="Trazado_704967-2" data-name="Trazado 704967" d="M410-10071.5H812.64" transform="translate(-410 10121.482)" fill="none" stroke="#b8b8b8" stroke-linecap="round" stroke-width="1" stroke-dasharray="0.1 6"/>
          <path id="Trazado_704958-2" data-name="Trazado 704958" d="M410-10071.5H812.64" transform="translate(-410 10096.493)" fill="none" stroke="#b8b8b8" stroke-linecap="round" stroke-width="1" stroke-dasharray="0.1 6"/>
          <path id="Trazado_704960-2" data-name="Trazado 704960" d="M410-10071.5H812.64" transform="translate(-410 10079.11)" fill="none" stroke="#b8b8b8" stroke-linecap="round" stroke-width="1" stroke-dasharray="0.1 6"/>
          <path id="Trazado_704957-2" data-name="Trazado 704957" d="M410-10071.5H812.64" transform="translate(-410 10104.104)" fill="none" stroke="#b8b8b8" stroke-linecap="round" stroke-width="1" stroke-dasharray="0.1 6"/>
          <path id="Trazado_704959-2" data-name="Trazado 704959" d="M410-10071.5H812.64" transform="translate(-410 10086.724)" fill="none" stroke="#b8b8b8" stroke-linecap="round" stroke-width="1" stroke-dasharray="0.1 6"/>
          <path id="Trazado_704956-2" data-name="Trazado 704956" d="M410-10071.5H812.64" transform="translate(-410 10111.714)" fill="none" stroke="#b8b8b8" stroke-linecap="round" stroke-width="1" stroke-dasharray="0.1 6"/>
        </g>
        <g id="Grupo_974119" data-name="Grupo 974119" transform="translate(14.959 106.928)">
          <path id="Trazado_704961-3" data-name="Trazado 704961" d="M410-10071.5H812.64" transform="translate(-410 10071.5)" fill="none" stroke="#b8b8b8" stroke-linecap="round" stroke-width="1" stroke-dasharray="0.1 6"/>
          <path id="Trazado_704967-3" data-name="Trazado 704967" d="M410-10071.5H812.64" transform="translate(-410 10121.482)" fill="none" stroke="#b8b8b8" stroke-linecap="round" stroke-width="1" stroke-dasharray="0.1 6"/>
          <path id="Trazado_704958-3" data-name="Trazado 704958" d="M410-10071.5H812.64" transform="translate(-410 10096.493)" fill="none" stroke="#b8b8b8" stroke-linecap="round" stroke-width="1" stroke-dasharray="0.1 6"/>
          <path id="Trazado_704964-2" data-name="Trazado 704964" d="M410-10071.5H812.64" transform="translate(-410 10146.474)" fill="none" stroke="#b8b8b8" stroke-linecap="round" stroke-width="1" stroke-dasharray="0.1 6"/>
          <path id="Trazado_704960-3" data-name="Trazado 704960" d="M410-10071.5H812.64" transform="translate(-410 10079.11)" fill="none" stroke="#b8b8b8" stroke-linecap="round" stroke-width="1" stroke-dasharray="0.1 6"/>
          <path id="Trazado_704966-2" data-name="Trazado 704966" d="M410-10071.5H812.64" transform="translate(-410 10129.093)" fill="none" stroke="#b8b8b8" stroke-linecap="round" stroke-width="1" stroke-dasharray="0.1 6"/>
          <path id="Trazado_704957-3" data-name="Trazado 704957" d="M410-10071.5H812.64" transform="translate(-410 10104.104)" fill="none" stroke="#b8b8b8" stroke-linecap="round" stroke-width="1" stroke-dasharray="0.1 6"/>
          <path id="Trazado_704963-2" data-name="Trazado 704963" d="M410-10071.5H812.64" transform="translate(-410 10154.085)" fill="none" stroke="#b8b8b8" stroke-linecap="round" stroke-width="1" stroke-dasharray="0.1 6"/>
          <path id="Trazado_704959-3" data-name="Trazado 704959" d="M410-10071.5H812.64" transform="translate(-410 10086.724)" fill="none" stroke="#b8b8b8" stroke-linecap="round" stroke-width="1" stroke-dasharray="0.1 6"/>
          <path id="Trazado_704965-2" data-name="Trazado 704965" d="M410-10071.5H812.64" transform="translate(-410 10136.706)" fill="none" stroke="#b8b8b8" stroke-linecap="round" stroke-width="1" stroke-dasharray="0.1 6"/>
          <path id="Trazado_704956-3" data-name="Trazado 704956" d="M410-10071.5H812.64" transform="translate(-410 10111.714)" fill="none" stroke="#b8b8b8" stroke-linecap="round" stroke-width="1" stroke-dasharray="0.1 6"/>
          <path id="Trazado_704962-2" data-name="Trazado 704962" d="M410-10071.5H812.64" transform="translate(-410 10161.695)" fill="none" stroke="#b8b8b8" stroke-linecap="round" stroke-width="1" stroke-dasharray="0.1 6"/>
        </g>
        <g id="Grupo_974122" data-name="Grupo 974122" transform="translate(38.686 38.545)">
          <g id="Grupo_974117" data-name="Grupo 974117" transform="translate(0 45.201)">
            <g id="Elipse_4232" data-name="Elipse 4232" transform="translate(0 11.936)" fill="#fff" stroke="red" stroke-width="1">
              <circle cx="22.377" cy="22.377" r="22.377" stroke="none"/>
              <circle cx="22.377" cy="22.377" r="21.877" fill="none"/>
            </g>
            <path id="Trazado_704944" data-name="Trazado 704944" d="M453-9891v11.935" transform="translate(-430.623 9946.194)" fill="none" stroke="red" stroke-width="1"/>
            <path id="Trazado_704945" data-name="Trazado 704945" d="M453-9891v11.935" transform="translate(-430.623 9890.998)" fill="none" stroke="red" stroke-width="1"/>
            <path id="Trazado_704946" data-name="Trazado 704946" d="M436.333-9984.81a5.753,5.753,0,0,1,6.415-5.168c5.967.285,5.022,5.168,5.022,5.168s-1.74,6.728,5.122,6.163,5.818-6.163,5.818-6.163" transform="translate(-425.145 10017.738)" fill="none" stroke="red" stroke-width="1"/>
          </g>
          <g id="Trazado_705109" data-name="Trazado 705109" transform="translate(96.103 125.759)" fill="#272121">
            <path d="M 36.79420471191406 9.942379951477051 L 0.5000042915344238 9.942379951477051 L 0.5000042915344238 0.4999999701976776 L 36.79420471191406 0.4999999701976776 L 36.79420471191406 9.942379951477051 Z" stroke="none"/>
            <path d="M 1.000003814697266 1 L 1.000003814697266 9.442379951477051 L 36.29420471191406 9.442379951477051 L 36.29420471191406 1 L 1.000003814697266 1 M 3.814697265625e-06 0 L 37.29420471191406 0 L 37.29420471191406 10.44237995147705 L 3.814697265625e-06 10.44237995147705 L 3.814697265625e-06 0 Z" stroke="none" fill="red"/>
          </g>
          <g id="Trazado_705110" data-name="Trazado 705110" transform="translate(133.397 155.222) rotate(180)" fill="#272121">
            <path d="M 36.79420471191406 9.942379951477051 L 0.5000042915344238 9.942379951477051 L 0.5000042915344238 0.4999999701976776 L 36.79420471191406 0.4999999701976776 L 36.79420471191406 9.942379951477051 Z" stroke="none"/>
            <path d="M 1.000003814697266 1 L 1.000003814697266 9.442379951477051 L 36.29420471191406 9.442379951477051 L 36.29420471191406 1 L 1.000003814697266 1 M 3.814697265625e-06 0 L 37.29420471191406 0 L 37.29420471191406 10.44237995147705 L 3.814697265625e-06 10.44237995147705 L 3.814697265625e-06 0 Z" stroke="none" fill="red"/>
          </g>
          <path id="Trazado_705111" data-name="Trazado 705111" d="M0,0V19.393" transform="translate(114.75 107.111)" fill="none" stroke="red" stroke-width="1"/>
          <path id="Trazado_705112" data-name="Trazado 705112" d="M0,49.48V0" transform="translate(114.75 154.475)" fill="none" stroke="red" stroke-width="1"/>
          <path id="Trazado_704947" data-name="Trazado 704947" d="M506.221-10038.666v8.949l6.216,4.476-11.437,3.98,11.437,5.471L501-10011.814l11.437,4.973L501-10002.364l5.221,3.479v11.438" transform="translate(-391.471 10039.612)" fill="none" stroke="#c82525" stroke-width="1"/>
          <path id="Trazado_704948" data-name="Trazado 704948" d="M506.886-10039.294v9.944l5.551,4.428-11.437,3.98,11.437,5.468L501-10011.494l11.437,4.972L501-10002.047l7.094,3.683v11.438" transform="translate(-262.714 10039.294)" fill="none" stroke="#c82525" stroke-width="1"/>
          <path id="Trazado_705113" data-name="Trazado 705113" d="M4.247,8.617H2.729V12H.825V2.758H4.259a3.882,3.882,0,0,1,2.526.73,2.519,2.519,0,0,1,.889,2.063,2.843,2.843,0,0,1-.409,1.577A2.792,2.792,0,0,1,6.024,8.134l2,3.777V12H5.979ZM2.729,7.074H4.266a1.573,1.573,0,0,0,1.111-.365A1.3,1.3,0,0,0,5.77,5.7,1.4,1.4,0,0,0,5.4,4.675,1.543,1.543,0,0,0,4.259,4.3H2.729ZM13.381,12H11.546V4.929l-2.19.679V4.116l3.828-1.371h.2Z" transform="translate(127.568 11.428)" fill="#12263f"/>
          <path id="Trazado_705114" data-name="Trazado 705114" d="M6.386,8.223H2.729V12H.825V2.758H6.843V4.3H2.729V6.687H6.386Zm4.977,1.485,2.095-6.951h2.12L12.359,12H10.372L7.167,2.758H9.28Zm9.826.387H17.85L17.215,12H15.19l3.44-9.242H20.4L23.854,12H21.83ZM18.364,8.553h2.311L19.513,5.094Zm13.476.368a3.27,3.27,0,0,1-1.1,2.349,3.868,3.868,0,0,1-2.618.857,3.478,3.478,0,0,1-2.8-1.2,4.906,4.906,0,0,1-1.019-3.285V7.081a5.54,5.54,0,0,1,.47-2.349,3.52,3.52,0,0,1,1.343-1.558,4.2,4.2,0,0,1,4.605.314,3.515,3.515,0,0,1,1.13,2.406h-1.9a1.93,1.93,0,0,0-.5-1.3,1.845,1.845,0,0,0-1.3-.4,1.618,1.618,0,0,0-1.425.682,3.824,3.824,0,0,0-.486,2.117v.7a4.093,4.093,0,0,0,.454,2.19,1.588,1.588,0,0,0,1.431.692,1.88,1.88,0,0,0,1.317-.4,1.821,1.821,0,0,0,.5-1.247Z" transform="translate(55.804 64.897)" fill="#12263f"/>
          <path id="Trazado_705115" data-name="Trazado 705115" d="M2.738,7H1.75V3.192L.571,3.558v-.8l2.061-.738h.106ZM7.7,4.942a2.521,2.521,0,0,1-.427,1.579,1.491,1.491,0,0,1-1.251.547,1.5,1.5,0,0,1-1.244-.537,2.447,2.447,0,0,1-.441-1.538V4.078A2.488,2.488,0,0,1,4.773,2.5a1.5,1.5,0,0,1,1.246-.54,1.5,1.5,0,0,1,1.244.535A2.44,2.44,0,0,1,7.7,4.026ZM6.716,3.935a1.822,1.822,0,0,0-.169-.9.572.572,0,0,0-.528-.282A.562.562,0,0,0,5.5,3.02a1.705,1.705,0,0,0-.176.84V5.071a1.913,1.913,0,0,0,.166.9.564.564,0,0,0,.531.3.555.555,0,0,0,.523-.284,1.867,1.867,0,0,0,.167-.869Zm5,1.007a2.521,2.521,0,0,1-.427,1.579,1.491,1.491,0,0,1-1.251.547A1.5,1.5,0,0,1,8.8,6.532a2.447,2.447,0,0,1-.441-1.538V4.078A2.488,2.488,0,0,1,8.789,2.5a1.5,1.5,0,0,1,1.246-.54,1.5,1.5,0,0,1,1.244.535,2.44,2.44,0,0,1,.441,1.536Zm-.988-1.007a1.822,1.822,0,0,0-.169-.9.572.572,0,0,0-.528-.282.562.562,0,0,0-.514.269,1.705,1.705,0,0,0-.176.84V5.071a1.913,1.913,0,0,0,.166.9.564.564,0,0,0,.531.3.555.555,0,0,0,.523-.284,1.867,1.867,0,0,0,.167-.869Z" transform="translate(127.568 27.837)" fill="#12263f"/>
          <path id="Trazado_705116" data-name="Trazado 705116" d="M2.738,7H1.75V3.192L.571,3.558v-.8l2.061-.738h.106ZM7.766,7H4.354V6.323l1.61-1.716a3.972,3.972,0,0,0,.49-.632,1.016,1.016,0,0,0,.159-.513.76.76,0,0,0-.167-.521.6.6,0,0,0-.479-.19.652.652,0,0,0-.528.231.914.914,0,0,0-.193.607H4.255a1.631,1.631,0,0,1,.217-.831,1.53,1.53,0,0,1,.614-.59,1.865,1.865,0,0,1,.9-.214,1.766,1.766,0,0,1,1.195.369A1.306,1.306,0,0,1,7.6,3.367a1.673,1.673,0,0,1-.191.752,4.179,4.179,0,0,1-.656.892L5.626,6.2h2.14ZM11.72,4.942a2.521,2.521,0,0,1-.427,1.579,1.491,1.491,0,0,1-1.251.547A1.5,1.5,0,0,1,8.8,6.532a2.447,2.447,0,0,1-.441-1.538V4.078A2.488,2.488,0,0,1,8.789,2.5a1.5,1.5,0,0,1,1.246-.54,1.5,1.5,0,0,1,1.244.535,2.44,2.44,0,0,1,.441,1.536Zm-.988-1.007a1.822,1.822,0,0,0-.169-.9.572.572,0,0,0-.528-.282.562.562,0,0,0-.514.269,1.705,1.705,0,0,0-.176.84V5.071a1.913,1.913,0,0,0,.166.9.564.564,0,0,0,.531.3.555.555,0,0,0,.523-.284,1.867,1.867,0,0,0,.167-.869Zm5.342,1.831L17.2,2.023h1.142L16.611,7h-1.07L13.815,2.023h1.138Zm5.291.208h-1.8L19.226,7h-1.09l1.853-4.977h.95L22.8,7h-1.09Zm-1.521-.831h1.244l-.625-1.863Zm7.256.2a1.761,1.761,0,0,1-.593,1.265,2.083,2.083,0,0,1-1.41.461,1.873,1.873,0,0,1-1.506-.644,2.642,2.642,0,0,1-.549-1.769v-.3A2.983,2.983,0,0,1,23.3,3.086a1.9,1.9,0,0,1,.723-.839,2.259,2.259,0,0,1,2.48.169,1.892,1.892,0,0,1,.608,1.3H26.083a1.039,1.039,0,0,0-.268-.7.994.994,0,0,0-.7-.217.871.871,0,0,0-.767.367,2.059,2.059,0,0,0-.261,1.14v.376a2.2,2.2,0,0,0,.244,1.179.855.855,0,0,0,.771.373,1.012,1.012,0,0,0,.709-.217.98.98,0,0,0,.268-.672Z" transform="translate(55.804 81.306)" fill="#12263f"/>
          <path id="Trazado_705117" data-name="Trazado 705117" d="M2.738,7H1.75V3.192L.571,3.558v-.8l2.061-.738h.106ZM7.7,4.942a2.521,2.521,0,0,1-.427,1.579,1.491,1.491,0,0,1-1.251.547,1.5,1.5,0,0,1-1.244-.537,2.447,2.447,0,0,1-.441-1.538V4.078A2.488,2.488,0,0,1,4.773,2.5a1.5,1.5,0,0,1,1.246-.54,1.5,1.5,0,0,1,1.244.535A2.44,2.44,0,0,1,7.7,4.026ZM6.716,3.935a1.822,1.822,0,0,0-.169-.9.572.572,0,0,0-.528-.282A.562.562,0,0,0,5.5,3.02a1.705,1.705,0,0,0-.176.84V5.071a1.913,1.913,0,0,0,.166.9.564.564,0,0,0,.531.3.555.555,0,0,0,.523-.284,1.867,1.867,0,0,0,.167-.869Zm2.6-.633.031.427a1.291,1.291,0,0,1,1.063-.5,1.073,1.073,0,0,1,.875.345,1.611,1.611,0,0,1,.294,1.032V7H10.6V4.635a.641.641,0,0,0-.137-.456A.612.612,0,0,0,10,4.037a.68.68,0,0,0-.625.355V7H8.391V3.3Z" transform="translate(137.64 140.646)" fill="#12263f"/>
          <path id="Trazado_705118" data-name="Trazado 705118" d="M3.75,7H.338V6.323l1.61-1.716a3.972,3.972,0,0,0,.49-.632A1.016,1.016,0,0,0,2.6,3.462a.76.76,0,0,0-.167-.521.6.6,0,0,0-.479-.19.652.652,0,0,0-.528.231.914.914,0,0,0-.193.607H.239a1.631,1.631,0,0,1,.217-.831,1.53,1.53,0,0,1,.614-.59,1.865,1.865,0,0,1,.9-.214,1.766,1.766,0,0,1,1.195.369,1.306,1.306,0,0,1,.426,1.042,1.673,1.673,0,0,1-.191.752,4.179,4.179,0,0,1-.656.892L1.61,6.2H3.75ZM7.7,4.942a2.521,2.521,0,0,1-.427,1.579,1.491,1.491,0,0,1-1.251.547,1.5,1.5,0,0,1-1.244-.537,2.447,2.447,0,0,1-.441-1.538V4.078A2.488,2.488,0,0,1,4.773,2.5a1.5,1.5,0,0,1,1.246-.54,1.5,1.5,0,0,1,1.244.535A2.44,2.44,0,0,1,7.7,4.026ZM6.716,3.935a1.822,1.822,0,0,0-.169-.9.572.572,0,0,0-.528-.282A.562.562,0,0,0,5.5,3.02a1.705,1.705,0,0,0-.176.84V5.071a1.913,1.913,0,0,0,.166.9.564.564,0,0,0,.531.3.555.555,0,0,0,.523-.284,1.867,1.867,0,0,0,.167-.869Zm5,1.007a2.521,2.521,0,0,1-.427,1.579,1.491,1.491,0,0,1-1.251.547A1.5,1.5,0,0,1,8.8,6.532a2.447,2.447,0,0,1-.441-1.538V4.078A2.488,2.488,0,0,1,8.789,2.5a1.5,1.5,0,0,1,1.246-.54,1.5,1.5,0,0,1,1.244.535,2.44,2.44,0,0,1,.441,1.536Zm-.988-1.007a1.822,1.822,0,0,0-.169-.9.572.572,0,0,0-.528-.282.562.562,0,0,0-.514.269,1.705,1.705,0,0,0-.176.84V5.071a1.913,1.913,0,0,0,.166.9.564.564,0,0,0,.531.3.555.555,0,0,0,.523-.284,1.867,1.867,0,0,0,.167-.869Z" transform="translate(256.981 27.837)" fill="#12263f"/>
          <path id="Trazado_705119" data-name="Trazado 705119" d="M2.738,7H1.75V3.192L.571,3.558v-.8l2.061-.738h.106ZM5.322,3.3l.031.414a1.3,1.3,0,0,1,1.063-.482A.986.986,0,0,1,7.4,3.8a1.27,1.27,0,0,1,1.111-.564,1.1,1.1,0,0,1,.9.35A1.61,1.61,0,0,1,9.7,4.638V7H8.706V4.642a.7.7,0,0,0-.123-.46.545.545,0,0,0-.434-.145.617.617,0,0,0-.615.424l0,2.54H6.549V4.645a.7.7,0,0,0-.126-.465.551.551,0,0,0-.431-.144.64.64,0,0,0-.608.349V7H4.4V3.3ZM14.571,7H13.545V4.867h-2V7H10.521V2.023h1.025V4.04h2V2.023h1.025Z" transform="translate(254.463 142.138)" fill="#12263f"/>
          <path id="Trazado_705120" data-name="Trazado 705120" d="M8.081,8.921a3.27,3.27,0,0,1-1.1,2.349,3.868,3.868,0,0,1-2.618.857,3.478,3.478,0,0,1-2.8-1.2A4.906,4.906,0,0,1,.546,7.646V7.081a5.54,5.54,0,0,1,.47-2.349A3.52,3.52,0,0,1,2.358,3.174a3.761,3.761,0,0,1,2.028-.543,3.768,3.768,0,0,1,2.577.857,3.515,3.515,0,0,1,1.13,2.406h-1.9a1.93,1.93,0,0,0-.5-1.3,1.845,1.845,0,0,0-1.3-.4,1.618,1.618,0,0,0-1.425.682,3.824,3.824,0,0,0-.486,2.117v.7a4.093,4.093,0,0,0,.454,2.19,1.588,1.588,0,0,0,1.431.692,1.88,1.88,0,0,0,1.317-.4,1.821,1.821,0,0,0,.5-1.247ZM13.59,12H11.756V4.929l-2.19.679V4.116l3.828-1.371h.2Z" transform="translate(137.64 125.759)" fill="#12263f"/>
          <path id="Trazado_705121" data-name="Trazado 705121" d="M2.729,10.47H6.773V12H.825V2.758h1.9ZM12.124,12H10.29V4.929L8.1,5.608V4.116l3.828-1.371h.2Z" transform="translate(254.463 125.759)" fill="#12263f"/>
          <path id="Trazado_705122" data-name="Trazado 705122" d="M3.593,7.137H2.31V10H.7V2.18H3.6A3.285,3.285,0,0,1,5.742,2.8a2.132,2.132,0,0,1,.752,1.746,2.406,2.406,0,0,1-.346,1.335,2.363,2.363,0,0,1-1.05.851l1.692,3.2V10H5.06ZM2.31,5.832h1.3a1.331,1.331,0,0,0,.94-.309,1.1,1.1,0,0,0,.333-.851,1.182,1.182,0,0,0-.314-.87A1.306,1.306,0,0,0,3.6,3.485H2.31ZM12.912,10H7.552V8.937l2.53-2.7a6.241,6.241,0,0,0,.771-.994,1.6,1.6,0,0,0,.25-.806,1.2,1.2,0,0,0-.263-.819.95.95,0,0,0-.752-.3,1.025,1.025,0,0,0-.83.363,1.436,1.436,0,0,0-.3.953H7.4a2.564,2.564,0,0,1,.341-1.305A2.4,2.4,0,0,1,8.7,2.408a2.93,2.93,0,0,1,1.413-.336,2.775,2.775,0,0,1,1.877.58,2.052,2.052,0,0,1,.669,1.638,2.629,2.629,0,0,1-.3,1.182,6.567,6.567,0,0,1-1.031,1.4L9.55,8.749h3.362Z" transform="translate(256.981 12.95)" fill="#12263f"/>
          <path id="Trazado_704949" data-name="Trazado 704949" d="M595.1-9965.889v11.336s-8.561-.781-8.582,4.639,8.23,4.773,8.23,4.773-8.614-.038-8.742,5.01,6.993,4.834,8.742,4.834-8.87-.507-8.742,5.061,8.742,5.383,8.742,5.383-9.061.349-8.742,5.2,8.742,5.248,8.742,5.248v10.145" transform="translate(-349.674 10074.115)" fill="none" stroke="#c82525" stroke-width="1"/>
        </g>
        <g id="Grupo_974130" data-name="Grupo 974130" transform="translate(61.081 23.004)">
          <path id="Trazado_704970" data-name="Trazado 704970" d="M-1461.966-8816.632V-8833l-92.52.158v61.692" transform="translate(1554.485 8833)" fill="none" stroke="#029e1c" stroke-width="1"/>
          <path id="Trazado_704971" data-name="Trazado 704971" d="M0,0V55.606" transform="translate(92.52 67.358)" fill="none" stroke="#029e1c" stroke-width="1"/>
        </g>
        <path id="Trazado_704972" data-name="Trazado 704972" d="M-1554.667-7530.5v62.952" transform="translate(1615.747 7681.293)" fill="#3cb14d" stroke="#3cb14d" stroke-width="1"/>
        <path id="Trazado_704973" data-name="Trazado 704973" d="M-1351.594-6857.438v-15.107l-129.739-.12" transform="translate(1634.514 6896.089)" fill="none" stroke="#029e1c" stroke-width="1"/>
        <path id="Trazado_704974" data-name="Trazado 704974" d="M-1377.333-6819.333v57.915" transform="translate(1661.452 6908.645)" fill="none" stroke="#029e1c" stroke-width="1"/>
        <path id="Trazado_704976" data-name="Trazado 704976" d="M-1556-6735.63v31.9h223.038v-36.931" transform="translate(1617.081 6947.906)" fill="none" stroke="#029e1c" stroke-width="1"/>
        <circle id="Elipse_4237" data-name="Elipse 4237" cx="4.5" cy="4.5" r="4.5" transform="translate(149 240)" fill="#029e1c"/>
        <ellipse id="Elipse_4238" data-name="Elipse 4238" cx="4.5" cy="4" rx="4.5" ry="4" transform="translate(149 19)" fill="#029e1c"/>
      </g>
    </g>
    <g id="Grupo_974141" data-name="Grupo 974141" transform="translate(-239 261)">
      <g id="Grupo_974140" data-name="Grupo 974140" transform="translate(-196.66 -8062.583)">
        <g id="Trazado_705092" data-name="Trazado 705092" transform="translate(-0.34 -0.417)" fill="#fff">
          <path d="M 317 191.5 L 2 191.5 C 1.172916650772095 191.5 0.5 190.8270874023438 0.5 190 L 0.5 2 C 0.5 1.172916650772095 1.172916650772095 0.5 2 0.5 L 317 0.5 C 317.8270874023438 0.5 318.5 1.172916650772095 318.5 2 L 318.5 190 C 318.5 190.8270874023438 317.8270874023438 191.5 317 191.5 Z" stroke="none"/>
          <path d="M 2 1 C 1.448577880859375 1 1 1.448577880859375 1 2 L 1 190 C 1 190.5514221191406 1.448577880859375 191 2 191 L 317 191 C 317.5514221191406 191 318 190.5514221191406 318 190 L 318 2 C 318 1.448577880859375 317.5514221191406 1 317 1 L 2 1 M 2 0 L 317 0 C 318.1045837402344 0 319 0.895416259765625 319 2 L 319 190 C 319 191.1045837402344 318.1045837402344 192 317 192 L 2 192 C 0.895416259765625 192 0 191.1045837402344 0 190 L 0 2 C 0 0.895416259765625 0.895416259765625 0 2 0 Z" stroke="none" fill="#707070"/>
        </g>
        <path id="Trazado_705093" data-name="Trazado 705093" d="M1.47,5.247V7H.444V2.023H2.386a2.246,2.246,0,0,1,.986.205,1.511,1.511,0,0,1,.655.583,1.625,1.625,0,0,1,.229.86,1.429,1.429,0,0,1-.5,1.154,2.086,2.086,0,0,1-1.386.422Zm0-.831h.916a.9.9,0,0,0,.62-.191.7.7,0,0,0,.214-.547A.821.821,0,0,0,3,3.086a.8.8,0,0,0-.595-.232H1.47ZM7,7a1.1,1.1,0,0,1-.1-.332,1.2,1.2,0,0,1-.933.4,1.313,1.313,0,0,1-.9-.314,1.011,1.011,0,0,1-.357-.793,1.045,1.045,0,0,1,.436-.9,2.15,2.15,0,0,1,1.26-.318H6.86V4.529a.609.609,0,0,0-.132-.41.518.518,0,0,0-.415-.154.589.589,0,0,0-.391.12.406.406,0,0,0-.142.328H4.792a.992.992,0,0,1,.2-.595,1.31,1.31,0,0,1,.561-.429,2.043,2.043,0,0,1,.813-.156,1.614,1.614,0,0,1,1.085.344,1.2,1.2,0,0,1,.4.966v1.6a1.768,1.768,0,0,0,.147.8V7Zm-.817-.687a.851.851,0,0,0,.4-.1.64.64,0,0,0,.273-.261V5.318H6.491q-.742,0-.79.513l0,.058a.4.4,0,0,0,.13.3A.5.5,0,0,0,6.183,6.313Zm3.609-3.92V3.3h.632v.725H9.792V5.872a.441.441,0,0,0,.079.294.4.4,0,0,0,.3.089,1.575,1.575,0,0,0,.291-.024v.749a2.034,2.034,0,0,1-.6.089A.943.943,0,0,1,8.8,6.019V4.026h-.54V3.3H8.8V2.393Zm4.833,2.786h-.817V7H12.783V2.023h1.849a2.09,2.09,0,0,1,1.36.393,1.357,1.357,0,0,1,.479,1.111,1.531,1.531,0,0,1-.22.849,1.5,1.5,0,0,1-.668.542l1.077,2.034V7h-1.1Zm-.817-.831h.827a.847.847,0,0,0,.6-.2.7.7,0,0,0,.212-.542.752.752,0,0,0-.2-.554.831.831,0,0,0-.614-.2h-.824Zm5.079,2.721a1.816,1.816,0,0,1-1.324-.5,1.774,1.774,0,0,1-.511-1.33v-.1a2.234,2.234,0,0,1,.215-1,1.58,1.58,0,0,1,.61-.677,1.712,1.712,0,0,1,.9-.238,1.535,1.535,0,0,1,1.195.479,1.944,1.944,0,0,1,.436,1.357v.4H18.054a.918.918,0,0,0,.289.581.873.873,0,0,0,.61.219,1.066,1.066,0,0,0,.892-.414l.485.543a1.483,1.483,0,0,1-.6.49A1.974,1.974,0,0,1,18.888,7.068ZM18.775,4.03a.617.617,0,0,0-.477.2,1.031,1.031,0,0,0-.234.57h1.374V4.72a.735.735,0,0,0-.178-.51A.637.637,0,0,0,18.775,4.03ZM21.239,7V4.026h-.55V3.3h.55V2.987a1.277,1.277,0,0,1,.357-.966,1.383,1.383,0,0,1,1-.344,2.309,2.309,0,0,1,.5.068l-.01.766a1.259,1.259,0,0,0-.3-.031q-.557,0-.557.523v.3h.735v.725H22.23V7Zm3.859.068a1.816,1.816,0,0,1-1.324-.5,1.774,1.774,0,0,1-.511-1.33v-.1a2.234,2.234,0,0,1,.215-1,1.58,1.58,0,0,1,.61-.677,1.712,1.712,0,0,1,.9-.238,1.535,1.535,0,0,1,1.195.479,1.944,1.944,0,0,1,.436,1.357v.4H24.264a.918.918,0,0,0,.289.581.873.873,0,0,0,.61.219,1.066,1.066,0,0,0,.892-.414l.485.543a1.483,1.483,0,0,1-.6.49A1.974,1.974,0,0,1,25.1,7.068ZM24.985,4.03a.617.617,0,0,0-.477.2,1.031,1.031,0,0,0-.234.57h1.374V4.72a.735.735,0,0,0-.178-.51A.637.637,0,0,0,24.985,4.03Zm4.272.2A2.684,2.684,0,0,0,28.9,4.2a.724.724,0,0,0-.735.379V7H27.18V3.3h.933l.027.441a.915.915,0,0,1,.824-.509,1.035,1.035,0,0,1,.308.044Zm2.112,2.84a1.816,1.816,0,0,1-1.324-.5,1.774,1.774,0,0,1-.511-1.33v-.1a2.234,2.234,0,0,1,.215-1,1.58,1.58,0,0,1,.61-.677,1.712,1.712,0,0,1,.9-.238,1.535,1.535,0,0,1,1.195.479,1.944,1.944,0,0,1,.436,1.357v.4H30.536a.918.918,0,0,0,.289.581.873.873,0,0,0,.61.219,1.066,1.066,0,0,0,.892-.414l.485.543a1.483,1.483,0,0,1-.6.49A1.974,1.974,0,0,1,31.37,7.068ZM31.257,4.03a.617.617,0,0,0-.477.2,1.031,1.031,0,0,0-.234.57H31.92V4.72a.735.735,0,0,0-.178-.51A.637.637,0,0,0,31.257,4.03Zm3.1-.728.031.427a1.291,1.291,0,0,1,1.063-.5,1.073,1.073,0,0,1,.875.345,1.611,1.611,0,0,1,.294,1.032V7h-.988V4.635a.641.641,0,0,0-.137-.456.612.612,0,0,0-.455-.142.68.68,0,0,0-.625.355V7h-.988V3.3Zm4.549,2.97a.648.648,0,0,0,.444-.15.527.527,0,0,0,.178-.4h.926a1.267,1.267,0,0,1-.205.689A1.353,1.353,0,0,1,39.7,6.9a1.728,1.728,0,0,1-.774.173,1.606,1.606,0,0,1-1.251-.5,2,2,0,0,1-.458-1.393V5.106a1.972,1.972,0,0,1,.455-1.364,1.587,1.587,0,0,1,1.248-.509,1.556,1.556,0,0,1,1.113.395,1.4,1.4,0,0,1,.426,1.051h-.926a.679.679,0,0,0-.178-.469.661.661,0,0,0-.972.071,1.458,1.458,0,0,0-.176.816v.1a1.477,1.477,0,0,0,.174.822A.6.6,0,0,0,38.91,6.272Zm3.814.8a1.816,1.816,0,0,1-1.324-.5,1.774,1.774,0,0,1-.511-1.33v-.1a2.234,2.234,0,0,1,.215-1,1.58,1.58,0,0,1,.61-.677,1.712,1.712,0,0,1,.9-.238,1.535,1.535,0,0,1,1.195.479,1.944,1.944,0,0,1,.436,1.357v.4H41.891a.918.918,0,0,0,.289.581.873.873,0,0,0,.61.219,1.066,1.066,0,0,0,.892-.414l.485.543a1.483,1.483,0,0,1-.6.49A1.974,1.974,0,0,1,42.725,7.068ZM42.612,4.03a.617.617,0,0,0-.477.2,1.031,1.031,0,0,0-.234.57h1.374V4.72a.735.735,0,0,0-.178-.51A.637.637,0,0,0,42.612,4.03Zm2.242,2.485a.5.5,0,0,1,.159-.383.618.618,0,0,1,.8,0,.5.5,0,0,1,.159.383.491.491,0,0,1-.157.378.628.628,0,0,1-.8,0A.491.491,0,0,1,44.854,6.515Zm0-2.8a.5.5,0,0,1,.159-.383.618.618,0,0,1,.8,0,.5.5,0,0,1,.159.383.491.491,0,0,1-.157.378.628.628,0,0,1-.8,0A.491.491,0,0,1,44.854,3.715Z" transform="translate(6.66 17.583)" fill="#12263f"/>
        <path id="Trazado_705094" data-name="Trazado 705094" d="M4.351,5.342a1.761,1.761,0,0,1-.593,1.265,2.083,2.083,0,0,1-1.41.461A1.873,1.873,0,0,1,.843,6.424,2.642,2.642,0,0,1,.294,4.655v-.3A2.983,2.983,0,0,1,.547,3.086a1.9,1.9,0,0,1,.723-.839,2.025,2.025,0,0,1,1.092-.292,2.029,2.029,0,0,1,1.388.461,1.892,1.892,0,0,1,.608,1.3H3.333a1.039,1.039,0,0,0-.268-.7.994.994,0,0,0-.7-.217.871.871,0,0,0-.767.367A2.059,2.059,0,0,0,1.333,4.3v.376a2.2,2.2,0,0,0,.244,1.179.855.855,0,0,0,.771.373,1.012,1.012,0,0,0,.709-.217.98.98,0,0,0,.268-.672ZM7.1,7A1.1,1.1,0,0,1,7,6.668a1.2,1.2,0,0,1-.933.4,1.313,1.313,0,0,1-.9-.314,1.011,1.011,0,0,1-.357-.793,1.045,1.045,0,0,1,.436-.9,2.15,2.15,0,0,1,1.26-.318h.455V4.529a.609.609,0,0,0-.132-.41.518.518,0,0,0-.415-.154.589.589,0,0,0-.391.12.406.406,0,0,0-.142.328H4.895a.992.992,0,0,1,.2-.595,1.31,1.31,0,0,1,.561-.429,2.043,2.043,0,0,1,.813-.156,1.614,1.614,0,0,1,1.085.344,1.2,1.2,0,0,1,.4.966v1.6a1.768,1.768,0,0,0,.147.8V7Zm-.817-.687a.851.851,0,0,0,.4-.1.64.64,0,0,0,.273-.261V5.318H6.593q-.742,0-.79.513l0,.058a.4.4,0,0,0,.13.3A.5.5,0,0,0,6.286,6.313Zm5.756-1.128a2.218,2.218,0,0,1-.388,1.369,1.244,1.244,0,0,1-1.048.514,1.152,1.152,0,0,1-.906-.39V8.422H8.712V3.3h.916l.034.362a1.161,1.161,0,0,1,.937-.431,1.252,1.252,0,0,1,1.063.506,2.278,2.278,0,0,1,.379,1.395Zm-.988-.072a1.455,1.455,0,0,0-.183-.8.6.6,0,0,0-.531-.28.647.647,0,0,0-.639.355V5.906a.658.658,0,0,0,.646.366Q11.054,6.272,11.054,5.113ZM14.8,7a1.1,1.1,0,0,1-.1-.332,1.2,1.2,0,0,1-.933.4,1.313,1.313,0,0,1-.9-.314,1.011,1.011,0,0,1-.357-.793,1.045,1.045,0,0,1,.436-.9,2.15,2.15,0,0,1,1.26-.318h.455V4.529a.609.609,0,0,0-.132-.41.518.518,0,0,0-.415-.154.589.589,0,0,0-.391.12.406.406,0,0,0-.142.328h-.988a.992.992,0,0,1,.2-.595,1.31,1.31,0,0,1,.561-.429,2.043,2.043,0,0,1,.813-.156,1.614,1.614,0,0,1,1.085.344,1.2,1.2,0,0,1,.4.966v1.6a1.768,1.768,0,0,0,.147.8V7Zm-.817-.687a.851.851,0,0,0,.4-.1.64.64,0,0,0,.273-.261V5.318h-.369q-.742,0-.79.513l0,.058a.4.4,0,0,0,.13.3A.5.5,0,0,0,13.979,6.313Zm3.965-.041a.648.648,0,0,0,.444-.15.527.527,0,0,0,.178-.4h.926a1.267,1.267,0,0,1-.205.689,1.353,1.353,0,0,1-.552.485,1.728,1.728,0,0,1-.774.173,1.606,1.606,0,0,1-1.251-.5,2,2,0,0,1-.458-1.393V5.106a1.972,1.972,0,0,1,.455-1.364,1.587,1.587,0,0,1,1.248-.509,1.556,1.556,0,0,1,1.113.395,1.4,1.4,0,0,1,.426,1.051h-.926a.679.679,0,0,0-.178-.469.661.661,0,0,0-.972.071,1.458,1.458,0,0,0-.176.816v.1a1.477,1.477,0,0,0,.174.822A.6.6,0,0,0,17.944,6.272Zm3.295-3.879V3.3h.632v.725h-.632V5.872a.441.441,0,0,0,.079.294.4.4,0,0,0,.3.089,1.575,1.575,0,0,0,.291-.024v.749a2.034,2.034,0,0,1-.6.089.943.943,0,0,1-1.06-1.049V4.026h-.54V3.3h.54V2.393ZM24.565,7a1.1,1.1,0,0,1-.1-.332,1.2,1.2,0,0,1-.933.4,1.313,1.313,0,0,1-.9-.314,1.011,1.011,0,0,1-.357-.793,1.045,1.045,0,0,1,.436-.9,2.15,2.15,0,0,1,1.26-.318h.455V4.529a.609.609,0,0,0-.132-.41.518.518,0,0,0-.415-.154.589.589,0,0,0-.391.12.406.406,0,0,0-.142.328h-.988a.992.992,0,0,1,.2-.595,1.31,1.31,0,0,1,.561-.429,2.043,2.043,0,0,1,.813-.156,1.614,1.614,0,0,1,1.085.344,1.2,1.2,0,0,1,.4.966v1.6a1.768,1.768,0,0,0,.147.8V7Zm-.817-.687a.851.851,0,0,0,.4-.1.64.64,0,0,0,.273-.261V5.318h-.369q-.742,0-.79.513l0,.058a.4.4,0,0,0,.13.3A.5.5,0,0,0,23.748,6.313ZM27.084,3.3l.031.427a1.291,1.291,0,0,1,1.063-.5,1.073,1.073,0,0,1,.875.345,1.611,1.611,0,0,1,.294,1.032V7h-.988V4.635a.641.641,0,0,0-.137-.456.612.612,0,0,0-.455-.142.68.68,0,0,0-.625.355V7h-.988V3.3Zm4.549,2.97a.648.648,0,0,0,.444-.15.527.527,0,0,0,.178-.4h.926a1.267,1.267,0,0,1-.205.689,1.353,1.353,0,0,1-.552.485,1.728,1.728,0,0,1-.774.173,1.606,1.606,0,0,1-1.251-.5,2,2,0,0,1-.458-1.393V5.106A1.972,1.972,0,0,1,30.4,3.743a1.587,1.587,0,0,1,1.248-.509,1.556,1.556,0,0,1,1.113.395,1.4,1.4,0,0,1,.426,1.051h-.926a.679.679,0,0,0-.178-.469.661.661,0,0,0-.972.071,1.458,1.458,0,0,0-.176.816v.1a1.477,1.477,0,0,0,.174.822A.6.6,0,0,0,31.633,6.272Zm3.814.8a1.816,1.816,0,0,1-1.324-.5,1.774,1.774,0,0,1-.511-1.33v-.1a2.234,2.234,0,0,1,.215-1,1.58,1.58,0,0,1,.61-.677,1.712,1.712,0,0,1,.9-.238,1.535,1.535,0,0,1,1.195.479,1.944,1.944,0,0,1,.436,1.357v.4H34.614a.918.918,0,0,0,.289.581.873.873,0,0,0,.61.219,1.066,1.066,0,0,0,.892-.414l.485.543a1.483,1.483,0,0,1-.6.49A1.974,1.974,0,0,1,35.448,7.068ZM35.335,4.03a.617.617,0,0,0-.477.2,1.031,1.031,0,0,0-.234.57H36V4.72a.735.735,0,0,0-.178-.51A.637.637,0,0,0,35.335,4.03Zm2.242,2.485a.5.5,0,0,1,.159-.383.618.618,0,0,1,.8,0,.5.5,0,0,1,.159.383.491.491,0,0,1-.157.378.628.628,0,0,1-.8,0A.491.491,0,0,1,37.577,6.515Zm0-2.8a.5.5,0,0,1,.159-.383.618.618,0,0,1,.8,0,.5.5,0,0,1,.159.383.491.491,0,0,1-.157.378.628.628,0,0,1-.8,0A.491.491,0,0,1,37.577,3.715Z" transform="translate(6.66 32.583)" fill="#12263f"/>
        <path id="Trazado_705095" data-name="Trazado 705095" d="M3.438,4.843H1.47V6.176H3.78V7H.444V2.023H3.773v.831H1.47V4.04H3.438ZM5.359,7H4.368V1.75h.991Zm2.516.068a1.816,1.816,0,0,1-1.324-.5A1.774,1.774,0,0,1,6.04,5.24v-.1a2.234,2.234,0,0,1,.215-1,1.58,1.58,0,0,1,.61-.677,1.712,1.712,0,0,1,.9-.238,1.535,1.535,0,0,1,1.195.479A1.944,1.944,0,0,1,9.4,5.069v.4H7.041a.918.918,0,0,0,.289.581.873.873,0,0,0,.61.219,1.066,1.066,0,0,0,.892-.414l.485.543a1.483,1.483,0,0,1-.6.49A1.974,1.974,0,0,1,7.875,7.068ZM7.762,4.03a.617.617,0,0,0-.477.2,1.031,1.031,0,0,0-.234.57H8.425V4.72a.735.735,0,0,0-.178-.51A.637.637,0,0,0,7.762,4.03ZM10.883,3.3l.031.414a1.3,1.3,0,0,1,1.063-.482.986.986,0,0,1,.981.564,1.27,1.27,0,0,1,1.111-.564,1.1,1.1,0,0,1,.9.35,1.61,1.61,0,0,1,.294,1.054V7h-.991V4.642a.7.7,0,0,0-.123-.46.545.545,0,0,0-.434-.145.617.617,0,0,0-.615.424L13.1,7H12.11V4.645a.7.7,0,0,0-.126-.465.551.551,0,0,0-.431-.144.64.64,0,0,0-.608.349V7H9.957V3.3Zm6.836,3.767a1.816,1.816,0,0,1-1.324-.5,1.774,1.774,0,0,1-.511-1.33v-.1a2.234,2.234,0,0,1,.215-1,1.58,1.58,0,0,1,.61-.677,1.712,1.712,0,0,1,.9-.238,1.535,1.535,0,0,1,1.195.479,1.944,1.944,0,0,1,.436,1.357v.4H16.885a.918.918,0,0,0,.289.581.873.873,0,0,0,.61.219,1.066,1.066,0,0,0,.892-.414l.485.543a1.483,1.483,0,0,1-.6.49A1.974,1.974,0,0,1,17.719,7.068ZM17.606,4.03a.617.617,0,0,0-.477.2,1.031,1.031,0,0,0-.234.57h1.374V4.72a.735.735,0,0,0-.178-.51A.637.637,0,0,0,17.606,4.03Zm3.1-.728.031.427a1.291,1.291,0,0,1,1.063-.5,1.073,1.073,0,0,1,.875.345,1.611,1.611,0,0,1,.294,1.032V7h-.988V4.635a.641.641,0,0,0-.137-.456.612.612,0,0,0-.455-.142.68.68,0,0,0-.625.355V7H19.78V3.3ZM24.9,2.393V3.3h.632v.725H24.9V5.872a.441.441,0,0,0,.079.294.4.4,0,0,0,.3.089,1.575,1.575,0,0,0,.291-.024v.749a2.034,2.034,0,0,1-.6.089.943.943,0,0,1-1.06-1.049V4.026h-.54V3.3h.54V2.393Zm1.23,4.122a.5.5,0,0,1,.159-.383.618.618,0,0,1,.8,0,.5.5,0,0,1,.159.383.49.49,0,0,1-.157.378.628.628,0,0,1-.8,0A.49.49,0,0,1,26.134,6.515Zm0-2.8a.5.5,0,0,1,.159-.383.618.618,0,0,1,.8,0,.5.5,0,0,1,.159.383.49.49,0,0,1-.157.378.628.628,0,0,1-.8,0A.49.49,0,0,1,26.134,3.715Z" transform="translate(6.66 50.583)" fill="#12263f"/>
        <path id="Trazado_705096" data-name="Trazado 705096" d="M4.32,5.564l.67-3.541H6.012L4.908,7H3.876l-.81-3.329L2.256,7H1.224L.12,2.023H1.142l.673,3.534.82-3.534H3.5Zm1.921-.448a2.193,2.193,0,0,1,.212-.981,1.551,1.551,0,0,1,.61-.667,1.78,1.78,0,0,1,.925-.236,1.684,1.684,0,0,1,1.222.458,1.838,1.838,0,0,1,.528,1.244l.007.253A1.933,1.933,0,0,1,9.27,6.554a1.651,1.651,0,0,1-1.275.514,1.66,1.66,0,0,1-1.277-.513,1.967,1.967,0,0,1-.477-1.395Zm.988.07a1.382,1.382,0,0,0,.2.806A.712.712,0,0,0,8.555,6a1.513,1.513,0,0,0,.2-.881,1.369,1.369,0,0,0-.2-.8.656.656,0,0,0-.567-.284.645.645,0,0,0-.561.282A1.538,1.538,0,0,0,7.229,5.187Zm5.2-.959a2.684,2.684,0,0,0-.355-.027.724.724,0,0,0-.735.379V7h-.988V3.3h.933l.027.441a.915.915,0,0,1,.824-.509,1.035,1.035,0,0,1,.308.044ZM14.25,5.517l-.355.355V7h-.988V1.75h.988V4.659l.191-.246L15.032,3.3h1.186L14.882,4.843,16.334,7H15.2ZM17.688,7H16.7V3.3h.991ZM16.639,2.345a.486.486,0,0,1,.149-.366.641.641,0,0,1,.808,0,.484.484,0,0,1,.15.366.485.485,0,0,1-.152.369.634.634,0,0,1-.8,0A.485.485,0,0,1,16.639,2.345Zm2.772.957.031.427a1.291,1.291,0,0,1,1.063-.5,1.073,1.073,0,0,1,.875.345,1.611,1.611,0,0,1,.294,1.032V7h-.988V4.635a.641.641,0,0,0-.137-.456.612.612,0,0,0-.455-.142.68.68,0,0,0-.625.355V7h-.988V3.3Zm2.868,1.822a2.167,2.167,0,0,1,.405-1.371,1.312,1.312,0,0,1,1.092-.52,1.151,1.151,0,0,1,.947.417l.041-.349h.9V6.877a1.581,1.581,0,0,1-.22.844,1.416,1.416,0,0,1-.62.547,2.181,2.181,0,0,1-.937.188,2.028,2.028,0,0,1-.793-.162,1.407,1.407,0,0,1-.584-.419l.438-.6a1.157,1.157,0,0,0,.9.414.847.847,0,0,0,.612-.21.788.788,0,0,0,.219-.6v-.2a1.143,1.143,0,0,1-.9.386,1.309,1.309,0,0,1-1.078-.521,2.167,2.167,0,0,1-.412-1.383Zm.988.074a1.35,1.35,0,0,0,.2.789.641.641,0,0,0,.554.286.686.686,0,0,0,.646-.339V4.376a.684.684,0,0,0-.639-.339.646.646,0,0,0-.559.291A1.521,1.521,0,0,0,23.266,5.2Zm6.8.569,1.128-3.743h1.142L30.6,7h-1.07L27.805,2.023h1.138Zm2.362-.649a2.193,2.193,0,0,1,.212-.981,1.551,1.551,0,0,1,.61-.667,1.78,1.78,0,0,1,.925-.236,1.684,1.684,0,0,1,1.222.458,1.838,1.838,0,0,1,.528,1.244l.007.253a1.933,1.933,0,0,1-.475,1.365,1.841,1.841,0,0,1-2.552,0,1.967,1.967,0,0,1-.477-1.395Zm.988.07a1.382,1.382,0,0,0,.2.806A.712.712,0,0,0,34.74,6a1.513,1.513,0,0,0,.2-.881,1.369,1.369,0,0,0-.2-.8.656.656,0,0,0-.567-.284.645.645,0,0,0-.561.282A1.538,1.538,0,0,0,33.414,5.187ZM37.581,7h-.991V1.75h.991Zm2-4.607V3.3h.632v.725h-.632V5.872a.441.441,0,0,0,.079.294.4.4,0,0,0,.3.089,1.575,1.575,0,0,0,.291-.024v.749a2.034,2.034,0,0,1-.6.089.943.943,0,0,1-1.06-1.049V4.026h-.54V3.3h.54V2.393ZM42.9,7a1.1,1.1,0,0,1-.1-.332,1.2,1.2,0,0,1-.933.4,1.313,1.313,0,0,1-.9-.314,1.011,1.011,0,0,1-.357-.793,1.045,1.045,0,0,1,.436-.9,2.15,2.15,0,0,1,1.26-.318h.455V4.529a.609.609,0,0,0-.132-.41.518.518,0,0,0-.415-.154.589.589,0,0,0-.391.12.406.406,0,0,0-.142.328h-.988a.992.992,0,0,1,.2-.595,1.31,1.31,0,0,1,.561-.429,2.043,2.043,0,0,1,.813-.156,1.614,1.614,0,0,1,1.085.344,1.2,1.2,0,0,1,.4.966v1.6a1.768,1.768,0,0,0,.147.8V7Zm-.817-.687a.851.851,0,0,0,.4-.1.64.64,0,0,0,.273-.261V5.318h-.369q-.742,0-.79.513l0,.058a.4.4,0,0,0,.13.3A.5.5,0,0,0,42.085,6.313Zm2.283-1.189a2.167,2.167,0,0,1,.405-1.371,1.312,1.312,0,0,1,1.092-.52,1.151,1.151,0,0,1,.947.417l.041-.349h.9V6.877a1.581,1.581,0,0,1-.22.844,1.416,1.416,0,0,1-.62.547,2.181,2.181,0,0,1-.937.188,2.028,2.028,0,0,1-.793-.162,1.407,1.407,0,0,1-.584-.419l.438-.6a1.157,1.157,0,0,0,.9.414.847.847,0,0,0,.612-.21.788.788,0,0,0,.219-.6v-.2a1.143,1.143,0,0,1-.9.386,1.309,1.309,0,0,1-1.078-.521,2.167,2.167,0,0,1-.412-1.383Zm.988.074a1.35,1.35,0,0,0,.2.789.642.642,0,0,0,.554.286.686.686,0,0,0,.646-.339V4.376a.684.684,0,0,0-.639-.339.646.646,0,0,0-.559.291A1.521,1.521,0,0,0,45.356,5.2ZM50.21,7.068a1.816,1.816,0,0,1-1.324-.5,1.774,1.774,0,0,1-.511-1.33v-.1a2.234,2.234,0,0,1,.215-1,1.58,1.58,0,0,1,.61-.677,1.712,1.712,0,0,1,.9-.238,1.535,1.535,0,0,1,1.195.479,1.944,1.944,0,0,1,.436,1.357v.4H49.376a.918.918,0,0,0,.289.581.873.873,0,0,0,.61.219,1.066,1.066,0,0,0,.892-.414l.485.543a1.483,1.483,0,0,1-.6.49A1.974,1.974,0,0,1,50.21,7.068ZM50.1,4.03a.617.617,0,0,0-.477.2,1.031,1.031,0,0,0-.234.57H50.76V4.72a.735.735,0,0,0-.178-.51A.637.637,0,0,0,50.1,4.03Z" transform="translate(6.66 82.583)" fill="#12263f"/>
        <path id="Trazado_705097" data-name="Trazado 705097" d="M4.532,4.625a3,3,0,0,1-.26,1.289,1.956,1.956,0,0,1-.743.854,2.056,2.056,0,0,1-1.109.3,2.07,2.07,0,0,1-1.1-.3,1.975,1.975,0,0,1-.752-.849,2.918,2.918,0,0,1-.27-1.27V4.406A2.988,2.988,0,0,1,.559,3.112a1.972,1.972,0,0,1,.749-.858,2.059,2.059,0,0,1,1.106-.3,2.059,2.059,0,0,1,1.106.3,1.972,1.972,0,0,1,.749.858A2.98,2.98,0,0,1,4.532,4.4ZM3.493,4.4a2.094,2.094,0,0,0-.28-1.189.913.913,0,0,0-.8-.407.914.914,0,0,0-.8.4,2.07,2.07,0,0,0-.284,1.177v.243a2.12,2.12,0,0,0,.28,1.183.911.911,0,0,0,.807.42.9.9,0,0,0,.793-.405,2.108,2.108,0,0,0,.28-1.181ZM6.4,2.393V3.3h.632v.725H6.4V5.872a.441.441,0,0,0,.079.294.4.4,0,0,0,.3.089,1.575,1.575,0,0,0,.291-.024v.749a2.034,2.034,0,0,1-.6.089.943.943,0,0,1-1.06-1.049V4.026h-.54V3.3h.54V2.393ZM8.542,3.705a1.233,1.233,0,0,1,.988-.472q1.2,0,1.22,1.4V7H9.762V4.659a.687.687,0,0,0-.137-.47.586.586,0,0,0-.455-.152.672.672,0,0,0-.629.335V7H7.554V1.75h.988ZM13.2,7.068a1.816,1.816,0,0,1-1.324-.5,1.774,1.774,0,0,1-.511-1.33v-.1a2.234,2.234,0,0,1,.215-1,1.58,1.58,0,0,1,.61-.677,1.712,1.712,0,0,1,.9-.238,1.535,1.535,0,0,1,1.195.479,1.944,1.944,0,0,1,.436,1.357v.4H12.363a.918.918,0,0,0,.289.581.873.873,0,0,0,.61.219,1.066,1.066,0,0,0,.892-.414l.485.543a1.483,1.483,0,0,1-.6.49A1.974,1.974,0,0,1,13.2,7.068ZM13.084,4.03a.617.617,0,0,0-.477.2,1.031,1.031,0,0,0-.234.57h1.374V4.72a.735.735,0,0,0-.178-.51A.637.637,0,0,0,13.084,4.03Zm4.272.2A2.684,2.684,0,0,0,17,4.2a.724.724,0,0,0-.735.379V7h-.988V3.3h.933l.027.441a.915.915,0,0,1,.824-.509,1.035,1.035,0,0,1,.308.044Zm5.547.957a2.218,2.218,0,0,1-.388,1.369,1.244,1.244,0,0,1-1.048.514,1.152,1.152,0,0,1-.906-.39V8.422h-.988V3.3h.916l.034.362a1.161,1.161,0,0,1,.937-.431,1.252,1.252,0,0,1,1.063.506A2.278,2.278,0,0,1,22.9,5.134Zm-.988-.072a1.455,1.455,0,0,0-.183-.8.6.6,0,0,0-.531-.28.647.647,0,0,0-.639.355V5.906a.658.658,0,0,0,.646.366Q21.916,6.272,21.916,5.113Zm3.678-.885a2.684,2.684,0,0,0-.355-.027.724.724,0,0,0-.735.379V7h-.988V3.3h.933l.027.441a.915.915,0,0,1,.824-.509,1.035,1.035,0,0,1,.308.044Zm.2.889A2.193,2.193,0,0,1,26,4.136a1.551,1.551,0,0,1,.61-.667,1.78,1.78,0,0,1,.925-.236,1.684,1.684,0,0,1,1.222.458,1.838,1.838,0,0,1,.528,1.244l.007.253a1.933,1.933,0,0,1-.475,1.365,1.841,1.841,0,0,1-2.552,0,1.967,1.967,0,0,1-.477-1.395Zm.988.07a1.382,1.382,0,0,0,.2.806.712.712,0,0,0,1.128,0,1.513,1.513,0,0,0,.2-.881,1.369,1.369,0,0,0-.2-.8.656.656,0,0,0-.567-.284.645.645,0,0,0-.561.282A1.538,1.538,0,0,0,26.78,5.187Zm6.453,0a2.218,2.218,0,0,1-.388,1.369,1.244,1.244,0,0,1-1.048.514,1.152,1.152,0,0,1-.906-.39V8.422H29.9V3.3h.916l.034.362a1.161,1.161,0,0,1,.937-.431,1.252,1.252,0,0,1,1.063.506,2.278,2.278,0,0,1,.379,1.395Zm-.988-.072a1.455,1.455,0,0,0-.183-.8.6.6,0,0,0-.531-.28.647.647,0,0,0-.639.355V5.906a.658.658,0,0,0,.646.366Q32.245,6.272,32.245,5.113Zm3.3,1.955a1.816,1.816,0,0,1-1.324-.5,1.774,1.774,0,0,1-.511-1.33v-.1a2.234,2.234,0,0,1,.215-1,1.58,1.58,0,0,1,.61-.677,1.712,1.712,0,0,1,.9-.238,1.535,1.535,0,0,1,1.195.479,1.944,1.944,0,0,1,.436,1.357v.4H34.713A.918.918,0,0,0,35,6.053a.873.873,0,0,0,.61.219,1.066,1.066,0,0,0,.892-.414l.485.543a1.483,1.483,0,0,1-.6.49A1.974,1.974,0,0,1,35.547,7.068ZM35.434,4.03a.617.617,0,0,0-.477.2,1.031,1.031,0,0,0-.234.57H36.1V4.72a.735.735,0,0,0-.178-.51A.637.637,0,0,0,35.434,4.03Zm4.272.2a2.684,2.684,0,0,0-.355-.027.724.724,0,0,0-.735.379V7h-.988V3.3h.933l.027.441a.915.915,0,0,1,.824-.509,1.035,1.035,0,0,1,.308.044Zm1.829-1.835V3.3h.632v.725h-.632V5.872a.441.441,0,0,0,.079.294.4.4,0,0,0,.3.089,1.575,1.575,0,0,0,.291-.024v.749a2.034,2.034,0,0,1-.6.089.943.943,0,0,1-1.06-1.049V4.026h-.54V3.3h.54V2.393ZM43.76,7h-.991V3.3h.991ZM42.711,2.345a.486.486,0,0,1,.149-.366.641.641,0,0,1,.808,0,.484.484,0,0,1,.15.366.485.485,0,0,1-.152.369.634.634,0,0,1-.8,0A.485.485,0,0,1,42.711,2.345Zm3.565,4.724a1.816,1.816,0,0,1-1.324-.5,1.774,1.774,0,0,1-.511-1.33v-.1a2.234,2.234,0,0,1,.215-1,1.58,1.58,0,0,1,.61-.677,1.712,1.712,0,0,1,.9-.238,1.535,1.535,0,0,1,1.195.479A1.944,1.944,0,0,1,47.8,5.069v.4H45.442a.918.918,0,0,0,.289.581.873.873,0,0,0,.61.219,1.066,1.066,0,0,0,.892-.414l.485.543a1.483,1.483,0,0,1-.6.49A1.974,1.974,0,0,1,46.276,7.068ZM46.163,4.03a.617.617,0,0,0-.477.2,1.031,1.031,0,0,0-.234.57h1.374V4.72a.735.735,0,0,0-.178-.51A.637.637,0,0,0,46.163,4.03Zm4.2,1.948a.318.318,0,0,0-.179-.285,2.038,2.038,0,0,0-.576-.186q-1.319-.277-1.319-1.121a1.016,1.016,0,0,1,.408-.822,1.648,1.648,0,0,1,1.068-.33,1.773,1.773,0,0,1,1.126.332,1.045,1.045,0,0,1,.422.861h-.988a.478.478,0,0,0-.137-.35.579.579,0,0,0-.427-.138.591.591,0,0,0-.386.113.356.356,0,0,0-.137.287.3.3,0,0,0,.156.265,1.6,1.6,0,0,0,.525.174,4.285,4.285,0,0,1,.622.166,1.022,1.022,0,0,1,.783.995.965.965,0,0,1-.434.819,1.873,1.873,0,0,1-1.121.313A1.956,1.956,0,0,1,48.94,6.9a1.385,1.385,0,0,1-.566-.455,1.056,1.056,0,0,1-.205-.624h.937a.516.516,0,0,0,.195.4.773.773,0,0,0,.485.14.715.715,0,0,0,.429-.108A.335.335,0,0,0,50.36,5.978Z" transform="translate(9.66 102.583)" fill="#12263f"/>
        <g id="Trazado_704999" data-name="Trazado 704999" transform="translate(68.66 14.583)" fill="#fff">
          <path d="M 119.5 14.5 L 25.78124618530273 14.5 L 0.5 14.5 L 0.5 0.5 L 119.5 0.5 L 119.5 14.5 Z" stroke="none"/>
          <path d="M 1 1 L 1 14 L 119 14 L 119 1 L 1 1 M 0 0 L 120 0 L 120 15 L 0 15 L 0 0 Z" stroke="none" fill="#707070"/>
        </g>
        <g id="Trazado_705000" data-name="Trazado 705000" transform="translate(68.66 30.583)" fill="#fff">
          <path d="M 119.5 14.5 L 25.78124618530273 14.5 L 0.5 14.5 L 0.5 0.5 L 119.5 0.5 L 119.5 14.5 Z" stroke="none"/>
          <path d="M 1 1 L 1 14 L 119 14 L 119 1 L 1 1 M 0 0 L 120 0 L 120 15 L 0 15 L 0 0 Z" stroke="none" fill="#707070"/>
        </g>
        <g id="Trazado_705003" data-name="Trazado 705003" transform="translate(68.66 80.583)" fill="#fff">
          <path d="M 119.5 14.5 L 25.78124618530273 14.5 L 0.5 14.5 L 0.5 0.5 L 119.5 0.5 L 119.5 14.5 Z" stroke="none"/>
          <path d="M 1 1 L 1 14 L 119 14 L 119 1 L 1 1 M 0 0 L 120 0 L 120 15 L 0 15 L 0 0 Z" stroke="none" fill="#707070"/>
        </g>
        <g id="Trazado_705004" data-name="Trazado 705004" transform="translate(191.66 80.583)" fill="#fff">
          <path d="M 54.5 14.5 L 11.81640148162842 14.5 L 0.5000019073486328 14.5 L 0.5000019073486328 0.5 L 54.5 0.5 L 54.5 14.5 Z" stroke="none"/>
          <path d="M 1.000003814697266 1 L 1.000003814697266 14 L 54 14 L 54 1 L 1.000003814697266 1 M 3.814697265625e-06 0 L 55 0 L 55 15 L 3.814697265625e-06 15 L 3.814697265625e-06 0 Z" stroke="none" fill="#707070"/>
        </g>
        <g id="Trazado_705001" data-name="Trazado 705001" transform="translate(68.66 46.583)" fill="#e8e8e8">
          <path d="M 75.16667938232422 14.5 L 16.25651550292969 14.5 L 0.5000059008598328 14.5 L 0.5000059008598328 0.5 L 75.16667938232422 0.5 L 75.16667938232422 14.5 Z" stroke="none"/>
          <path d="M 1 1 L 1 14 L 74.66667175292969 14 L 74.66667175292969 1 L 1 1 M 0 0 L 75.66667175292969 0 L 75.66667175292969 15 L 0 15 L 0 0 Z" stroke="none" fill="#707070"/>
        </g>
        <g id="Trazado_705002" data-name="Trazado 705002" transform="translate(150.327 46.583)" fill="#e8e8e8">
          <path d="M 37.83332443237305 14.5 L 8.235673904418945 14.5 L 0.5000041127204895 14.5 L 0.5000041127204895 0.5 L 37.83332443237305 0.5 L 37.83332443237305 14.5 Z" stroke="none"/>
          <path d="M 1.000003814697266 1 L 1.000003814697266 14 L 37.33332443237305 14 L 37.33332443237305 1 L 1.000003814697266 1 M 3.814697265625e-06 0 L 38.33332443237305 0 L 38.33332443237305 15 L 3.814697265625e-06 15 L 3.814697265625e-06 0 Z" stroke="none" fill="#707070"/>
        </g>
        <path id="Trazado_705098" data-name="Trazado 705098" d="M4.491,7H3.466l-2-3.274V7H.444V2.023H1.47l2,3.281V2.023H4.491Zm2.533.068a1.816,1.816,0,0,1-1.324-.5,1.774,1.774,0,0,1-.511-1.33v-.1a2.234,2.234,0,0,1,.215-1,1.58,1.58,0,0,1,.61-.677,1.712,1.712,0,0,1,.9-.238,1.535,1.535,0,0,1,1.195.479,1.944,1.944,0,0,1,.436,1.357v.4H6.19a.918.918,0,0,0,.289.581.873.873,0,0,0,.61.219,1.066,1.066,0,0,0,.892-.414l.485.543a1.483,1.483,0,0,1-.6.49A1.974,1.974,0,0,1,7.024,7.068ZM6.911,4.03a.617.617,0,0,0-.477.2A1.031,1.031,0,0,0,6.2,4.8H7.574V4.72A.735.735,0,0,0,7.4,4.21.637.637,0,0,0,6.911,4.03Zm3.6.376.622-1.1h1.056L11.139,5.113,12.236,7h-1.06l-.66-1.162L9.861,7H8.8L9.9,5.113,8.846,3.3h1.06ZM13.85,2.393V3.3h.632v.725H13.85V5.872a.441.441,0,0,0,.079.294.4.4,0,0,0,.3.089,1.575,1.575,0,0,0,.291-.024v.749a2.034,2.034,0,0,1-.6.089.943.943,0,0,1-1.06-1.049V4.026h-.54V3.3h.54V2.393Z" transform="translate(160.66 50.583)" fill="#12263f"/>
        <path id="Trazado_705099" data-name="Trazado 705099" d="M4.495,7H3.469V4.867h-2V7H.444V2.023H1.47V4.04h2V2.023H4.495ZM6.368,7H5.376V3.3h.991ZM5.318,2.345a.486.486,0,0,1,.149-.366.641.641,0,0,1,.808,0,.484.484,0,0,1,.15.366.485.485,0,0,1-.152.369.634.634,0,0,1-.8,0A.485.485,0,0,1,5.318,2.345ZM7.027,5.124a2.229,2.229,0,0,1,.388-1.377,1.259,1.259,0,0,1,1.061-.513,1.133,1.133,0,0,1,.892.4V1.75h.991V7H9.468L9.42,6.607a1.162,1.162,0,0,1-.95.461,1.255,1.255,0,0,1-1.048-.514A2.3,2.3,0,0,1,7.027,5.124Zm.988.074a1.46,1.46,0,0,0,.181.8.59.59,0,0,0,.526.277.661.661,0,0,0,.646-.387V4.423a.651.651,0,0,0-.639-.387Q8.015,4.037,8.015,5.2Zm4.813,1.871a1.816,1.816,0,0,1-1.324-.5,1.774,1.774,0,0,1-.511-1.33v-.1a2.234,2.234,0,0,1,.215-1,1.58,1.58,0,0,1,.61-.677,1.712,1.712,0,0,1,.9-.238,1.535,1.535,0,0,1,1.195.479,1.944,1.944,0,0,1,.436,1.357v.4H11.994a.918.918,0,0,0,.289.581.873.873,0,0,0,.61.219,1.066,1.066,0,0,0,.892-.414l.485.543a1.483,1.483,0,0,1-.6.49A1.974,1.974,0,0,1,12.828,7.068ZM12.715,4.03a.617.617,0,0,0-.477.2A1.031,1.031,0,0,0,12,4.8h1.374V4.72a.735.735,0,0,0-.178-.51A.637.637,0,0,0,12.715,4.03Zm6.812,1.945h-1.8L17.387,7H16.3l1.853-4.977h.95L20.962,7h-1.09Zm-1.521-.831H19.25l-.625-1.863ZM22.4,7h-.991V1.75H22.4Zm1.856,0H23.27V1.75h.991Z" transform="translate(195.66 83.583)" fill="#12263f"/>
        <path id="Trazado_705100" data-name="Trazado 705100" d="M4.495,7H3.469V4.867h-2V7H.444V2.023H1.47V4.04h2V2.023H4.495ZM6.368,7H5.376V3.3h.991ZM5.318,2.345a.486.486,0,0,1,.149-.366.641.641,0,0,1,.808,0,.484.484,0,0,1,.15.366.485.485,0,0,1-.152.369.634.634,0,0,1-.8,0A.485.485,0,0,1,5.318,2.345ZM7.027,5.124a2.229,2.229,0,0,1,.388-1.377,1.259,1.259,0,0,1,1.061-.513,1.133,1.133,0,0,1,.892.4V1.75h.991V7H9.468L9.42,6.607a1.162,1.162,0,0,1-.95.461,1.255,1.255,0,0,1-1.048-.514A2.3,2.3,0,0,1,7.027,5.124Zm.988.074a1.46,1.46,0,0,0,.181.8.59.59,0,0,0,.526.277.661.661,0,0,0,.646-.387V4.423a.651.651,0,0,0-.639-.387Q8.015,4.037,8.015,5.2Zm2.957-.074a2.229,2.229,0,0,1,.388-1.377,1.259,1.259,0,0,1,1.061-.513,1.133,1.133,0,0,1,.892.4V1.75H14.3V7h-.892l-.048-.393a1.162,1.162,0,0,1-.95.461,1.255,1.255,0,0,1-1.048-.514A2.3,2.3,0,0,1,10.972,5.124Zm.988.074a1.46,1.46,0,0,0,.181.8.59.59,0,0,0,.526.277.661.661,0,0,0,.646-.387V4.423a.651.651,0,0,0-.639-.387Q11.959,4.037,11.959,5.2Zm4.813,1.871a1.815,1.815,0,0,1-1.324-.5,1.774,1.774,0,0,1-.511-1.33v-.1a2.234,2.234,0,0,1,.215-1,1.58,1.58,0,0,1,.61-.677,1.712,1.712,0,0,1,.9-.238,1.535,1.535,0,0,1,1.195.479,1.944,1.944,0,0,1,.436,1.357v.4H15.938a.918.918,0,0,0,.289.581.873.873,0,0,0,.61.219,1.066,1.066,0,0,0,.892-.414l.485.543a1.483,1.483,0,0,1-.6.49A1.974,1.974,0,0,1,16.772,7.068ZM16.659,4.03a.617.617,0,0,0-.477.2,1.031,1.031,0,0,0-.234.57h1.374V4.72a.735.735,0,0,0-.178-.51A.637.637,0,0,0,16.659,4.03Zm3.1-.728.031.427a1.291,1.291,0,0,1,1.063-.5,1.073,1.073,0,0,1,.875.345,1.611,1.611,0,0,1,.294,1.032V7h-.988V4.635a.641.641,0,0,0-.137-.456.612.612,0,0,0-.455-.142.68.68,0,0,0-.625.355V7h-.988V3.3Z" transform="translate(201.66 14.583)" fill="#12263f"/>
        <path id="Trazado_705101" data-name="Trazado 705101" d="M4.495,7H3.469V4.867h-2V7H.444V2.023H1.47V4.04h2V2.023H4.495ZM6.368,7H5.376V3.3h.991ZM5.318,2.345a.486.486,0,0,1,.149-.366.641.641,0,0,1,.808,0,.484.484,0,0,1,.15.366.485.485,0,0,1-.152.369.634.634,0,0,1-.8,0A.485.485,0,0,1,5.318,2.345ZM7.027,5.124a2.229,2.229,0,0,1,.388-1.377,1.259,1.259,0,0,1,1.061-.513,1.133,1.133,0,0,1,.892.4V1.75h.991V7H9.468L9.42,6.607a1.162,1.162,0,0,1-.95.461,1.255,1.255,0,0,1-1.048-.514A2.3,2.3,0,0,1,7.027,5.124Zm.988.074a1.46,1.46,0,0,0,.181.8.59.59,0,0,0,.526.277.661.661,0,0,0,.646-.387V4.423a.651.651,0,0,0-.639-.387Q8.015,4.037,8.015,5.2Zm2.957-.074a2.229,2.229,0,0,1,.388-1.377,1.259,1.259,0,0,1,1.061-.513,1.133,1.133,0,0,1,.892.4V1.75H14.3V7h-.892l-.048-.393a1.162,1.162,0,0,1-.95.461,1.255,1.255,0,0,1-1.048-.514A2.3,2.3,0,0,1,10.972,5.124Zm.988.074a1.46,1.46,0,0,0,.181.8.59.59,0,0,0,.526.277.661.661,0,0,0,.646-.387V4.423a.651.651,0,0,0-.639-.387Q11.959,4.037,11.959,5.2Zm4.813,1.871a1.815,1.815,0,0,1-1.324-.5,1.774,1.774,0,0,1-.511-1.33v-.1a2.234,2.234,0,0,1,.215-1,1.58,1.58,0,0,1,.61-.677,1.712,1.712,0,0,1,.9-.238,1.535,1.535,0,0,1,1.195.479,1.944,1.944,0,0,1,.436,1.357v.4H15.938a.918.918,0,0,0,.289.581.873.873,0,0,0,.61.219,1.066,1.066,0,0,0,.892-.414l.485.543a1.483,1.483,0,0,1-.6.49A1.974,1.974,0,0,1,16.772,7.068ZM16.659,4.03a.617.617,0,0,0-.477.2,1.031,1.031,0,0,0-.234.57h1.374V4.72a.735.735,0,0,0-.178-.51A.637.637,0,0,0,16.659,4.03Zm3.1-.728.031.427a1.291,1.291,0,0,1,1.063-.5,1.073,1.073,0,0,1,.875.345,1.611,1.611,0,0,1,.294,1.032V7h-.988V4.635a.641.641,0,0,0-.137-.456.612.612,0,0,0-.455-.142.68.68,0,0,0-.625.355V7h-.988V3.3Z" transform="translate(201.66 27.583)" fill="#12263f"/>
        <path id="Trazado_705005" data-name="Trazado 705005" d="M227.41,84.833l4.25,3.25,4.25-3.25" transform="translate(0 2)" fill="none" stroke="#707070" stroke-width="1"/>
        <g id="Trazado_705102" data-name="Trazado 705102" transform="translate(231.66 14.583)" fill="#fff">
          <path d="M 8.5 8.5 L 0.5 8.5 L 0.5 0.5 L 8.5 0.5 L 8.5 8.5 Z" stroke="none"/>
          <path d="M 1 1 L 1 8 L 8 8 L 8 1 L 1 1 M 0 0 L 9 0 L 9 9 L 0 9 L 0 0 Z" stroke="none" fill="#707070"/>
        </g>
        <g id="Trazado_705103" data-name="Trazado 705103" transform="translate(231.66 27.583)" fill="#fff">
          <path d="M 8.5 8.5 L 0.5 8.5 L 0.5 0.5 L 8.5 0.5 L 8.5 8.5 Z" stroke="none"/>
          <path d="M 1 1 L 1 8 L 8 8 L 8 1 L 1 1 M 0 0 L 9 0 L 9 9 L 0 9 L 0 0 Z" stroke="none" fill="#707070"/>
        </g>
        <path id="Trazado_705104" data-name="Trazado 705104" d="M0,0V162" transform="translate(253.16 15.083)" fill="none" stroke="#707070" stroke-width="1"/>
        <g id="Trazado_705105" data-name="Trazado 705105" transform="translate(262.66 16.583)" fill="#fff">
          <path d="M 44.5 15.5 L 0.5 15.5 L 0.5 0.5 L 44.5 0.5 L 44.5 15.5 Z" stroke="none"/>
          <path d="M 1 1 L 1 15 L 44 15 L 44 1 L 1 1 M 0 0 L 45 0 L 45 16 L 0 16 L 0 0 Z" stroke="none" fill="#707070"/>
        </g>
        <g id="Trazado_705106" data-name="Trazado 705106" transform="translate(262.66 33.583)" fill="#fff">
          <path d="M 44.5 15.5 L 0.5 15.5 L 0.5 0.5 L 44.5 0.5 L 44.5 15.5 Z" stroke="none"/>
          <path d="M 1 1 L 1 15 L 44 15 L 44 1 L 1 1 M 0 0 L 45 0 L 45 16 L 0 16 L 0 0 Z" stroke="none" fill="#707070"/>
        </g>
        <path id="Trazado_705107" data-name="Trazado 705107" d="M4.532,4.625a3,3,0,0,1-.26,1.289,1.956,1.956,0,0,1-.743.854,2.056,2.056,0,0,1-1.109.3,2.07,2.07,0,0,1-1.1-.3,1.975,1.975,0,0,1-.752-.849,2.918,2.918,0,0,1-.27-1.27V4.406A2.988,2.988,0,0,1,.559,3.112a1.972,1.972,0,0,1,.749-.858,2.059,2.059,0,0,1,1.106-.3,2.059,2.059,0,0,1,1.106.3,1.972,1.972,0,0,1,.749.858A2.98,2.98,0,0,1,4.532,4.4ZM3.493,4.4a2.094,2.094,0,0,0-.28-1.189.913.913,0,0,0-.8-.407.914.914,0,0,0-.8.4,2.07,2.07,0,0,0-.284,1.177v.243a2.12,2.12,0,0,0,.28,1.183.911.911,0,0,0,.807.42.9.9,0,0,0,.793-.405,2.108,2.108,0,0,0,.28-1.181ZM6.836,5,6.3,5.578V7H5.277V2.023H6.3V4.279l.451-.619L8.022,2.023H9.283L7.516,4.235,9.334,7H8.114Z" transform="translate(279.66 20.583)" fill="#12263f"/>
        <path id="Trazado_705108" data-name="Trazado 705108" d="M4.351,5.342a1.761,1.761,0,0,1-.593,1.265,2.083,2.083,0,0,1-1.41.461A1.873,1.873,0,0,1,.843,6.424,2.642,2.642,0,0,1,.294,4.655v-.3A2.983,2.983,0,0,1,.547,3.086a1.9,1.9,0,0,1,.723-.839,2.025,2.025,0,0,1,1.092-.292,2.029,2.029,0,0,1,1.388.461,1.892,1.892,0,0,1,.608,1.3H3.333a1.039,1.039,0,0,0-.268-.7.994.994,0,0,0-.7-.217.871.871,0,0,0-.767.367A2.059,2.059,0,0,0,1.333,4.3v.376a2.2,2.2,0,0,0,.244,1.179.855.855,0,0,0,.771.373,1.012,1.012,0,0,0,.709-.217.98.98,0,0,0,.268-.672ZM7.1,7A1.1,1.1,0,0,1,7,6.668a1.2,1.2,0,0,1-.933.4,1.313,1.313,0,0,1-.9-.314,1.011,1.011,0,0,1-.357-.793,1.045,1.045,0,0,1,.436-.9,2.15,2.15,0,0,1,1.26-.318h.455V4.529a.609.609,0,0,0-.132-.41.518.518,0,0,0-.415-.154.589.589,0,0,0-.391.12.406.406,0,0,0-.142.328H4.895a.992.992,0,0,1,.2-.595,1.31,1.31,0,0,1,.561-.429,2.043,2.043,0,0,1,.813-.156,1.614,1.614,0,0,1,1.085.344,1.2,1.2,0,0,1,.4.966v1.6a1.768,1.768,0,0,0,.147.8V7Zm-.817-.687a.851.851,0,0,0,.4-.1.64.64,0,0,0,.273-.261V5.318H6.593q-.742,0-.79.513l0,.058a.4.4,0,0,0,.13.3A.5.5,0,0,0,6.286,6.313ZM9.622,3.3l.031.427a1.291,1.291,0,0,1,1.063-.5,1.073,1.073,0,0,1,.875.345,1.611,1.611,0,0,1,.294,1.032V7H10.9V4.635a.641.641,0,0,0-.137-.456.612.612,0,0,0-.455-.142.68.68,0,0,0-.625.355V7H8.692V3.3Zm4.549,2.97a.648.648,0,0,0,.444-.15.527.527,0,0,0,.178-.4h.926a1.267,1.267,0,0,1-.205.689,1.353,1.353,0,0,1-.552.485,1.728,1.728,0,0,1-.774.173,1.606,1.606,0,0,1-1.251-.5,2,2,0,0,1-.458-1.393V5.106a1.972,1.972,0,0,1,.455-1.364,1.587,1.587,0,0,1,1.248-.509,1.556,1.556,0,0,1,1.113.395,1.4,1.4,0,0,1,.426,1.051h-.926a.679.679,0,0,0-.178-.469.661.661,0,0,0-.972.071,1.458,1.458,0,0,0-.176.816v.1a1.477,1.477,0,0,0,.174.822A.6.6,0,0,0,14.171,6.272Zm3.814.8a1.816,1.816,0,0,1-1.324-.5,1.774,1.774,0,0,1-.511-1.33v-.1a2.234,2.234,0,0,1,.215-1,1.58,1.58,0,0,1,.61-.677,1.712,1.712,0,0,1,.9-.238,1.535,1.535,0,0,1,1.195.479,1.944,1.944,0,0,1,.436,1.357v.4H17.151a.918.918,0,0,0,.289.581.873.873,0,0,0,.61.219,1.066,1.066,0,0,0,.892-.414l.485.543a1.483,1.483,0,0,1-.6.49A1.974,1.974,0,0,1,17.985,7.068ZM17.873,4.03a.617.617,0,0,0-.477.2,1.031,1.031,0,0,0-.234.57h1.374V4.72a.735.735,0,0,0-.178-.51A.637.637,0,0,0,17.873,4.03ZM21.109,7h-.991V1.75h.991Z" transform="translate(273.66 37.583)" fill="#12263f"/>
      </g>
      <g id="Rectángulo_339716" data-name="Rectángulo 339716" transform="translate(-187 -7951)" fill="#fff" stroke="#707070" stroke-width="1">
        <rect width="236" height="69" stroke="none"/>
        <rect x="0.5" y="0.5" width="235" height="68" fill="none"/>
      </g>
    </g>
  </g>
</svg>
