<svg xmlns="http://www.w3.org/2000/svg" width="650" height="506" viewBox="0 0 650 506">
  <g id="Grupo_55468" data-name="Grupo 55468" transform="translate(-475 -9016)">
    <rect id="Rectángulo_5245" data-name="Rectángulo 5245" width="650" height="506" transform="translate(475 9016)" fill="#fff"/>
    <g id="Grupo_54911" data-name="Grupo 54911" transform="translate(53 372)">
      <text id="v_t_o_i_t_Ae_-" data-name="v(t) o i(t) = Ae -" transform="translate(721 8850)" fill="#12263f" font-size="18" font-family="Roboto-Regular, Roboto"><tspan x="0" y="0">v(t) o i(t) = A</tspan><tspan y="0" font-family="Roboto-Italic, Roboto" font-style="italic">e</tspan><tspan y="0" xml:space="preserve"> -</tspan></text>
      <g id="Grupo_54910" data-name="Grupo 54910" transform="translate(-280 497)">
        <text id="t" transform="translate(1130 8343)" fill="#12263f" font-size="16" font-family="TimesNewRomanPS-ItalicMT, Times New Roman" font-style="italic"><tspan x="0" y="0">t</tspan></text>
        <text id="τ" transform="translate(1129 8361)" fill="#12263f" font-size="16" font-family="TimesNewRomanPS-ItalicMT, Times New Roman" font-style="italic"><tspan x="0" y="0">τ</tspan></text>
        <line id="Línea_177" data-name="Línea 177" x2="13.5" transform="translate(1125 8347.5)" fill="none" stroke="#12263f" stroke-width="1"/>
      </g>
    </g>
    <g id="Grupo_54915" data-name="Grupo 54915" transform="translate(9.417 192.334)">
      <g id="Grupo_54912" data-name="Grupo 54912" transform="translate(-235.167 18)">
        <text id="v_t_o_i_t_" data-name="v(t) o i(t)" transform="translate(721 8850)" fill="#12263f" font-size="18" font-family="Roboto-Bold, Roboto" font-weight="700"><tspan x="0" y="0">v(t) o i(t)</tspan></text>
      </g>
      <g id="Grupo_54913" data-name="Grupo 54913" transform="translate(-146.167 119.5)">
        <text id="A" transform="translate(641 8837)" fill="#12263f" font-size="18" font-family="Roboto-Bold, Roboto" font-weight="700"><tspan x="0" y="0">A</tspan></text>
      </g>
      <g id="Grupo_54914" data-name="Grupo 54914" transform="translate(-67.167 467.332)">
        <text id="_0" data-name="0" transform="translate(580 8830)" fill="#12263f" font-size="24" font-family="TimesNewRomanPS-BoldMT, Times New Roman" font-weight="700"><tspan x="0" y="0">0</tspan></text>
      </g>
      <text id="t-2" data-name="t" transform="translate(1088.333 9280.333)" fill="#12263f" font-size="24" font-family="TimesNewRomanPS-ItalicMT, Times New Roman" font-style="italic"><tspan x="0" y="0">t</tspan></text>
      <text id="τ-2" data-name="τ" transform="translate(674.25 9293.333)" fill="#12263f" font-size="24" font-family="TimesNewRomanPS-ItalicMT, Times New Roman" font-style="italic"><tspan x="0" y="0">τ</tspan></text>
      <path id="Trazado_105779" data-name="Trazado 105779" d="M-8475.167-2732l139.834,279" transform="translate(9000 11700)" fill="none" stroke="#ababab" stroke-linecap="round" stroke-width="2" stroke-dasharray="8"/>
      <path id="Trazado_105778" data-name="Trazado 105778" d="M-8478.667-2745.333s72,282.667,486.667,304" transform="translate(9000 11697.833)" fill="none" stroke="#ff43ad" stroke-linecap="round" stroke-width="4"/>
      <path id="Trazado_105780" data-name="Trazado 105780" d="M-8478.667-2753H-8450" transform="translate(9000 11700)" fill="none" stroke="#9b9b9b" stroke-linecap="round" stroke-width="3"/>
      <path id="Trazado_105777" data-name="Trazado 105777" d="M-8478.667-2805.333v374.667h544" transform="translate(9000 11700)" fill="none" stroke="#707070" stroke-width="4"/>
      <path id="Trazado_105781" data-name="Trazado 105781" d="M242.589,846.7l2.325-3.823-.181-.12-8.629,3.428-9.018,1.984,9.018,1.984,8.629,3.428.181-.091-2.329-3.853Z" transform="translate(1369.5 8654.681) rotate(90)" fill="#707070"/>
      <path id="Trazado_105782" data-name="Trazado 105782" d="M242.589,846.7l2.325-3.823-.181-.12-8.629,3.428-9.018,1.984,9.018,1.984,8.629,3.428.181-.091-2.329-3.853Z" transform="translate(1305.333 10117.501) rotate(-180)" fill="#707070"/>
      <path id="Trazado_105783" data-name="Trazado 105783" d="M242.589,846.7l2.325-3.823-.181-.12-8.629,3.428-9.018,1.984,9.018,1.984,8.629,3.428.181-.091-2.329-3.853Z" transform="matrix(-0.454, -0.891, 0.891, -0.454, 21.3, 9851.838)" fill="#ababab"/>
    </g>
  </g>
</svg>
