<svg xmlns="http://www.w3.org/2000/svg" width="367" height="305" viewBox="0 0 367 305">
  <g id="Grupo_55461" data-name="Grupo 55461" transform="translate(-354 -2057)">
    <rect id="Rectángulo_5193" data-name="Rectángulo 5193" width="367" height="305" transform="translate(354 2057)" fill="#fff"/>
    <g id="Grupo_54842" data-name="Grupo 54842" transform="translate(77 691.994)">
      <g id="Grupo_54839" data-name="Grupo 54839">
        <g id="Grupo_54835" data-name="Grupo 54835" transform="translate(-322 3)">
          <g id="Grupo_54833" data-name="Grupo 54833" transform="translate(657 1458)">
            <path id="Trazado_105706" data-name="Trazado 105706" d="M512.659,81H400.576a4.856,4.856,0,0,0-4.856,4.856v54.3" transform="translate(-395.72 -81)" fill="none" stroke="#ff2449" stroke-miterlimit="10" stroke-width="4"/>
            <path id="Trazado_105707" data-name="Trazado 105707" d="M512.659,189.769H400.576a4.718,4.718,0,0,1-4.856-4.568V131" transform="translate(-395.72 -45.269)" fill="none" stroke="#ff2449" stroke-miterlimit="10" stroke-width="4"/>
            <path id="Trazado_105708" data-name="Trazado 105708" d="M473.5,83.5v2.33a4.855,4.855,0,0,0,4.856,4.856H596.968a4.856,4.856,0,0,1,4.856,4.856v123.5a4.856,4.856,0,0,1-4.856,4.856h-86.49" transform="translate(-345.898 -79.399)" fill="none" stroke="#4a4a4a" stroke-miterlimit="10" stroke-width="4"/>
          </g>
        </g>
        <g id="Grupo_54836" data-name="Grupo 54836" transform="translate(-939.587 2129.127) rotate(-90)">
          <g id="battery" transform="translate(391.379 1351.926)">
            <path id="Trazado_105683" data-name="Trazado 105683" d="M159.945,152.281h-42.37A5.575,5.575,0,0,1,112,146.706V77.575A5.575,5.575,0,0,1,117.575,72h42.37a5.575,5.575,0,0,1,5.575,5.575v69.131A5.575,5.575,0,0,1,159.945,152.281Z" transform="translate(-6.513 -58.62)" fill="#afafaf"/>
            <path id="Trazado_105684" data-name="Trazado 105684" d="M343.008,77.575v69.131a5.575,5.575,0,0,1-5.575,5.575H330a5.575,5.575,0,0,0,5.575-5.575V77.575A5.575,5.575,0,0,0,330,72h7.433A5.575,5.575,0,0,1,343.008,77.575Z" transform="translate(-184.001 -58.62)" fill="#8a8a8a"/>
            <path id="Trazado_105685" data-name="Trazado 105685" d="M0,0H21.3V38.654H0Z" transform="translate(151.574 64.932) rotate(90)" fill="#4a4a4a"/>
            <path id="Trazado_105702" data-name="Trazado 105702" d="M0,0H22.857V38.654H0Z" transform="translate(151.574 42.074) rotate(90)" fill="#8a8a8a"/>
            <path id="Trazado_105704" data-name="Trazado 105704" d="M0,0H20.5V38.654H0Z" transform="translate(151.574 21.574) rotate(90)" fill="#ff2449"/>
            <path id="Trazado_105686" data-name="Trazado 105686" d="M320,112h7.433v21.3H320Z" transform="translate(-175.859 -47.068)" fill="#3b3b3b"/>
            <path id="Trazado_105703" data-name="Trazado 105703" d="M320,112h7.433v22.857H320Z" transform="translate(-175.859 -69.926)" fill="#686868"/>
            <path id="Trazado_105705" data-name="Trazado 105705" d="M320,112h7.433v20.5H320Z" transform="translate(-175.859 -90.426)" fill="#d91334"/>
            <path id="Trazado_105687" data-name="Trazado 105687" d="M205.734,19.893H176V11.717A3.717,3.717,0,0,1,179.717,8h22.3a3.717,3.717,0,0,1,3.717,3.717Z" transform="translate(-58.62 -6.513)" fill="#afafaf"/>
            <path id="Trazado_105688" data-name="Trazado 105688" d="M287.15,11.717v8.177h-7.433V11.717A3.716,3.716,0,0,0,276,8h7.433A3.716,3.716,0,0,1,287.15,11.717Z" transform="translate(-140.036 -6.513)" fill="#8a8a8a"/>
            <path id="Trazado_105689" data-name="Trazado 105689" d="M216.575,232.469l5.49-10.064H217.49V216L212,226.064h4.575Z" transform="translate(-84.786 -170.431)" fill="#ffe926"/>
            <path id="Trazado_105690" data-name="Trazado 105690" d="M153.432,11.893H148.6V5.2A5.209,5.209,0,0,0,143.4,0H121.1a5.209,5.209,0,0,0-5.2,5.2v6.69h-4.832A7.07,7.07,0,0,0,104,18.955V88.086a7.07,7.07,0,0,0,7.062,7.062h42.37a7.07,7.07,0,0,0,7.062-7.062V18.955A7.07,7.07,0,0,0,153.432,11.893ZM118.867,5.2a2.233,2.233,0,0,1,2.23-2.23h22.3a2.233,2.233,0,0,1,2.23,2.23v6.69h-26.76ZM157.52,88.086a4.093,4.093,0,0,1-4.088,4.088h-42.37a4.093,4.093,0,0,1-4.088-4.088V18.955a4.093,4.093,0,0,1,4.088-4.088h42.37a4.093,4.093,0,0,1,4.088,4.088Z" transform="translate(0)"/>
            <path id="Trazado_105691" data-name="Trazado 105691" d="M184.14,104H145.487A1.487,1.487,0,0,0,144,105.487V170.9a1.487,1.487,0,0,0,1.487,1.487H184.14a1.487,1.487,0,0,0,1.487-1.487V105.487A1.487,1.487,0,0,0,184.14,104Zm-1.487,65.414h-35.68V106.973h35.68Z" transform="translate(-32.567 -84.673)"/>
            <path id="Trazado_105692" data-name="Trazado 105692" d="M204.907,219.9h3.66v5.49a.916.916,0,0,0,1.718.438l5.49-10.064a.915.915,0,0,0-.8-1.353h-3.66v-5.49a.916.916,0,0,0-1.718-.438l-5.49,10.064A.915.915,0,0,0,204.907,219.9Zm4.575-7.391v2.817a.915.915,0,0,0,.915.915h3.033L210.4,221.8v-2.817a.915.915,0,0,0-.915-.915h-3.033Z" transform="translate(-77.693 -163.352)"/>
          </g>
          <text id="_" data-name="+" transform="translate(518.626 1375.74)" fill="#fff" font-size="14" font-family="Roboto-Black, Roboto" font-weight="800"><tspan x="-3.739" y="15">+</tspan></text>
          <text id="_-" data-name="-" transform="translate(518.626 1418.74)" fill="#fff" font-size="14" font-family="Roboto-Black, Roboto" font-weight="800"><tspan x="-3.148" y="15">-</tspan></text>
        </g>
        <line id="Línea_172" data-name="Línea 172" y2="28" transform="translate(335 1519.25)" fill="none" stroke="#4a4a4a" stroke-width="4"/>
        <circle id="Elipse_4066" data-name="Elipse 4066" cx="3.5" cy="3.5" r="3.5" transform="translate(331 1544)" fill="#4a4a4a"/>
        <circle id="Elipse_4067" data-name="Elipse 4067" cx="3.5" cy="3.5" r="3.5" transform="translate(331 1516)" fill="#4a4a4a"/>
        <g id="Grupo_54837" data-name="Grupo 54837" transform="translate(-940.18 2185.006) rotate(-90)">
          <path id="Trazado_105693" data-name="Trazado 105693" d="M220.293,426.021h0a16.113,16.113,0,0,1-11.986,0h0a4.322,4.322,0,0,1-2.714-4.012V410.126h17.415v11.883A4.322,4.322,0,0,1,220.293,426.021Z" transform="translate(1143.55 1185.791) rotate(90)" fill="#afafaf"/>
          <path id="Trazado_105694" data-name="Trazado 105694" d="M249.935,410.127V422.01a4.322,4.322,0,0,1-2.714,4.012h0a16.1,16.1,0,0,1-3.817,1.006,16.111,16.111,0,0,0,8.169-1.006h0a4.322,4.322,0,0,0,2.714-4.012V410.127Z" transform="translate(1143.551 1154.512) rotate(90)" fill="#8a8a8a"/>
          <path id="Trazado_105695" data-name="Trazado 105695" d="M137.93,144.574h20.344a.92.92,0,0,0,.934-.862,32.965,32.965,0,0,1,6.9-18.843,21.192,21.192,0,0,0,4.529-13.091c0-12.074-10.176-21.853-22.695-21.768-12.357.084-22.408,9.9-22.369,21.836a21.183,21.183,0,0,0,4.378,12.826A33.857,33.857,0,0,1,137,143.708.921.921,0,0,0,137.93,144.574Z" transform="translate(878.73 1251.992) rotate(90)" fill="#ffe926"/>
          <path id="Trazado_105696" data-name="Trazado 105696" d="M245.485,90.011c-.674,0-1.341.04-2,.1,11.417,1.063,20.343,10.358,20.343,21.667A21.192,21.192,0,0,1,259.3,124.87a32.964,32.964,0,0,0-6.9,18.843.92.92,0,0,1-.934.862h4.352a.92.92,0,0,0,.934-.862,32.966,32.966,0,0,1,6.9-18.843,21.193,21.193,0,0,0,4.529-13.091C268.179,99.7,258,89.926,245.485,90.011Z" transform="translate(878.731 1154.445) rotate(90)" fill="#e5d017"/>
          <path id="Trazado_105697" data-name="Trazado 105697" d="M231.77,379.806H220.288a.519.519,0,0,0-.519.519v4.327h12.52v-4.327A.519.519,0,0,0,231.77,379.806Z" transform="translate(1118.468 1174.064) rotate(90)" fill="#ea5c23"/>
          <path id="Trazado_105698" data-name="Trazado 105698" d="M270.886,379.806h-3.833v4.846H271.4v-4.327A.519.519,0,0,0,270.886,379.806Z" transform="translate(1118.468 1134.947) rotate(90)" fill="#cf460f"/>
          <g id="Grupo_54822" data-name="Grupo 54822" transform="translate(790 1376.281) rotate(90)">
            <path id="Trazado_105699" data-name="Trazado 105699" d="M165.257,100.808a1.279,1.279,0,1,0-2.5.552,19.919,19.919,0,0,1-3.791,16.6,34.067,34.067,0,0,0-7.148,19.213h-2.308v-2.706a1.8,1.8,0,0,0-1.135-1.67L150.769,115a1.536,1.536,0,0,0-2.138-1.612l-2.983,1.3-3.074-1.309a1.553,1.553,0,0,0-1.3.048l-2.549,1.313-3.45-1.373A1.536,1.536,0,0,0,133.177,115l.962,7.154a1.279,1.279,0,0,0,2.536-.341l-.729-5.422,2.37.943a1.28,1.28,0,0,0,1.059-.051l2.64-1.36,3.139,1.337a1.28,1.28,0,0,0,1.013,0l1.824-.8-2.179,16.206h-7.679l-.643-4.785a1.279,1.279,0,0,0-2.536.341l.615,4.573a1.8,1.8,0,0,0-1.135,1.67v2.706h-2.3a35.069,35.069,0,0,0-7.293-19.4,19.844,19.844,0,0,1-4.116-12.054c-.036-11.253,9.429-20.474,21.1-20.553h.152a21.358,21.358,0,0,1,18.716,10.769,1.279,1.279,0,0,0,2.232-1.25A23.915,23.915,0,0,0,141.971,82.6h-.17c-13.076.089-23.681,10.461-23.64,23.12a22.384,22.384,0,0,0,4.64,13.6,32.49,32.49,0,0,1,6.789,18.315,2.2,2.2,0,0,0,2.212,2.089h.184v10.6a5.575,5.575,0,0,0,3.518,5.2,17.391,17.391,0,0,0,12.938,0,5.575,5.575,0,0,0,3.518-5.2v-10.6h.187a2.195,2.195,0,0,0,2.212-2.084,31.546,31.546,0,0,1,6.626-18.113,22.479,22.479,0,0,0,4.273-18.723Zm-30.712,44.116H149.4v1.734H134.545v-1.734Zm2.447-9.7h9.961v1.946h-9.961v-1.946Zm12.409,4.5v2.638H134.545v-2.638Zm-1.911,13.428a14.833,14.833,0,0,1-11.034,0,3.028,3.028,0,0,1-1.911-2.824v-1.115H149.4v1.115A3.029,3.029,0,0,1,147.49,153.156Z" transform="translate(-118.161 -82.605)" fill="#1a1a1a"/>
          </g>
        </g>
      </g>
      <text id="Interruptor_Encendido" data-name="InterruptorEncendido" transform="translate(352 1514)" fill="#12263f" font-size="14" font-family="Roboto-Regular, Roboto"><tspan x="0" y="15">Interruptor</tspan><tspan font-size="13" font-family="Roboto-Italic, Roboto" font-style="italic"><tspan x="0" y="35">Encendido</tspan></tspan></text>
      <text id="Bombilla" transform="translate(494.963 1408)" fill="#12263f" font-size="14" font-family="Roboto-Regular, Roboto"><tspan x="0" y="15">Bombilla</tspan></text>
      <text id="Batería" transform="translate(335.963 1616.748)" fill="#12263f" font-size="14" font-family="Roboto-Regular, Roboto"><tspan x="-22.066" y="15">Batería</tspan></text>
    </g>
  </g>
</svg>
