<svg xmlns="http://www.w3.org/2000/svg" width="262" height="204" viewBox="0 0 262 204">
  <g id="Grupo_55465" data-name="Grupo 55465" transform="translate(10089 2662)">
    <g id="Grupo_55359" data-name="Grupo 55359" transform="translate(-25 653)">
      <g id="Grupo_55356" data-name="Grupo 55356" transform="translate(-10064 -3315)">
        <rect id="Rectángulo_5237" data-name="Rectángulo 5237" width="262" height="204" rx="7" fill="#fff"/>
      </g>
    </g>
    <g id="Grupo_55387" data-name="Grupo 55387" transform="translate(-10107.295 -2708.931)">
      <g id="layer1" transform="translate(33.295 53.431)">
        <g id="path3841" transform="translate(28.948)">
          <path id="Trazado_107047" data-name="Trazado 107047" d="M127.357,81.6h-1.565v-3.13h1.565Zm0-6.259h-1.565v-3.13h1.565Zm0-6.259h-1.565v-3.13h1.565Zm0-6.259h-1.565V59.69h1.565Zm0-6.259h-1.565v-3.13h1.565Z" transform="translate(-125.792 -53.431)" fill="#a0a0a0"/>
        </g>
        <g id="path4015" transform="translate(187.046)">
          <path id="Trazado_107048" data-name="Trazado 107048" d="M632.523,81.6h-1.565v-3.13h1.565Zm0-6.259h-1.565v-3.13h1.565Zm0-6.259h-1.565v-3.13h1.565Zm0-6.259h-1.565V59.69h1.565Zm0-6.259h-1.565v-3.13h1.565Z" transform="translate(-630.958 -53.431)" fill="#a0a0a0"/>
        </g>
        <g id="path4013" transform="translate(28.897 23.766)">
          <path id="Trazado_107049" data-name="Trazado 107049" d="M190.908,245.953l-5.629-13.014-2.186,5.277-57.389-.107-.076-101.022,56.42.033,3.2-7.725,5.618,12.989,5.309-13.014,5.548,13.014L207.1,129.4l5.624,13,2.188-5.288,70.293.006.014,31.393,7.725,3.2-12.989,5.618,13.014,5.309-13.014,5.548,12.989,5.38-13,5.623,5.288,2.188.01,36.823-69.283,0-3.2,7.738-5.624-13-5.39,13.014-5.537-12.988Zm16.2-17.027,5.624,13,2.188-5.288,68.763,0-.009-34.213-7.738-3.2,13-5.624-13.014-5.39,12.989-5.537-12.989-5.3,13.014-5.629-5.276-2.185-.014-30.874-67.683-.006-3.2,7.738-5.624-13-5.39,13.014-5.537-12.988-5.3,12.989-5.629-13.014-2.186,5.277-55.9-.033.073,97.895,54.781.1,3.2-7.724,5.618,12.988,5.309-13.014,5.548,13.014Z" transform="translate(-125.628 -129.37)" fill="#a0a0a0"/>
        </g>
        <g id="path4011" transform="translate(0 131.085)">
          <path id="Trazado_107050" data-name="Trazado 107050" d="M173.823,516.441,172.9,514.3l.3-.129-.118-.048,1.006-2.465,1.449.591Zm21.851-.011-.951-2.2.231-.1-.019-.008.988-2.386,1.446.6Zm-11.931-2.139-1.227-2.879,1.439-.614,1.227,2.879Zm2.645-2.021-1.446-.6,1.2-2.891,1.446.6Zm-14.732-.839-1.242-2.872,1.437-.621,1.242,2.873Zm21.824-.073-1.242-2.872,1.437-.621,1.242,2.872Zm5.085-1.915-1.446-.6.711-1.718h2.317v1.565h-1.271Zm-21.851-.088-1.449-.591,1.182-2.9,1.449.591Zm-12.4-.652h-3.13v-1.565h3.13Zm-6.259,0h-3.13v-1.565h3.13Zm-6.259,0h-3.13v-1.565h3.13Zm-6.259,0H142.4v-1.565h3.13Zm-6.259,0h-3.13v-1.565h3.13Zm-6.259,0h-3.13v-1.565h3.13Zm-6.259,0h-3.13v-1.565h3.13Zm-6.259,0h-3.13v-1.565h3.13Zm-6.259,0h-3.13v-1.565h3.13Zm-6.259,0h-3.13v-1.565h3.13Zm-6.259,0H98.59v-1.565h3.13Zm-6.259,0H92.33v-1.565h3.13Zm-6.259,0h-3.13v-1.565H89.2Zm-6.259,0h-3.13v-1.565h3.13Zm-6.259,0h-3.13v-1.565h3.13Zm-6.259,0h-3.13v-1.565h3.13Zm-6.259,0H61.976V506.2h1.565v.942h.622Zm154.76-.012h-3.13v-1.565h3.13Zm-6.259,0h-3.13v-1.565h3.13Zm-6.259,0h-3.13v-1.565h3.13Zm-25.118-.158-1.227-2.879,1.44-.614,1.227,2.879Zm41.07-1.1h-1.565V504.3h1.565Zm-33.575-.944-1.446-.6,1.2-2.891,1.446.6Zm-21.826-.073-1.446-.6,1.2-2.891,1.446.6Zm2.214-.728-1.243-2.873,1.437-.621,1.243,2.872ZM191,505.613l-1.242-2.872,1.437-.621,1.242,2.872Zm-11.917-2.053-1.449-.591,1.461-3.58,1.182,2.773-.755.322Zm-115.537-.493H61.976v-3.13h1.565Zm158.816-1.9h-1.565v-3.13h1.565ZM63.541,496.807H61.976v-3.13h1.565Zm158.816-1.9h-1.565v-3.13h1.565ZM63.541,490.548H61.976v-3.13h1.565Zm158.816-1.9h-1.565v-3.13h1.565ZM63.541,484.289H61.976v-3.13h1.565Zm158.816-1.9h-1.565v-3.13h1.565ZM63.541,478.03H61.976V474.9h1.565Zm158.816-1.9h-1.565v-3.849h.846v.782h.719Zm41.976-2.284h-2.01v-1.565h2.01Zm-5.14,0h-3.13v-1.565h3.13Zm-6.259,0h-3.13v-1.565h3.13Zm-6.259,0h-3.13v-1.565h3.13Zm-6.259,0h-3.13v-1.565h3.13Zm-6.259,0h-3.13v-1.565h3.13Zm-6.259,0h-3.13v-1.565h3.13Zm-166.436,0h-3.13v-1.565h3.13Zm-6.259,0h-3.13v-1.565H55.2Zm-6.259,0h-3.13v-1.565h3.13Zm-6.259,0h-3.13v-1.565h3.13Zm-6.259,0h-3.13v-1.565h3.13Z" transform="translate(-33.295 -472.285)" fill="#a0a0a0"/>
        </g>
        <g id="path3057" transform="translate(22.996 25.87)" opacity="0.987">
          <path id="Trazado_107051" data-name="Trazado 107051" d="M119.709,142.562a6.468,6.468,0,1,1-6.468-6.468,6.468,6.468,0,0,1,6.468,6.468Z" transform="translate(-106.774 -136.094)"/>
        </g>
        <g id="path3831" transform="translate(22.996 125.76)" opacity="0.987">
          <path id="Trazado_107052" data-name="Trazado 107052" d="M119.709,461.735a6.468,6.468,0,1,1-6.468-6.467,6.468,6.468,0,0,1,6.468,6.467Z" transform="translate(-106.774 -455.268)"/>
        </g>
        <g id="path3835" transform="translate(181.453 25.87)" opacity="0.987">
          <path id="Trazado_107053" data-name="Trazado 107053" d="M626.023,142.562a6.468,6.468,0,1,1-6.468-6.468,6.467,6.467,0,0,1,6.468,6.468Z" transform="translate(-613.088 -136.094)"/>
        </g>
        <g id="path3837" transform="translate(181.453 125.76)" opacity="0.987">
          <path id="Trazado_107054" data-name="Trazado 107054" d="M626.023,461.735a6.468,6.468,0,1,1-6.468-6.467,6.467,6.467,0,0,1,6.468,6.467Z" transform="translate(-613.088 -455.268)"/>
        </g>
        <g id="path3839" transform="translate(10.808 62.222)">
          <g id="Grupo_55361" data-name="Grupo 55361" transform="translate(0.782 0.782)" opacity="0.987">
            <path id="Trazado_107055" data-name="Trazado 107055" d="M105.9,272.535a17.786,17.786,0,1,1-35.572.006v-.006a17.786,17.786,0,1,1,35.572-.006Z" transform="translate(-70.331 -254.746)" fill="#fff"/>
          </g>
          <g id="Grupo_55362" data-name="Grupo 55362">
            <path id="Trazado_107056" data-name="Trazado 107056" d="M86.4,289.389a18.571,18.571,0,0,1,0-37.143h0a18.588,18.588,0,0,1,18.568,18.565v.006A18.59,18.59,0,0,1,86.4,289.389Zm0-35.578h0a17.007,17.007,0,0,0,0,34.013h0a17.023,17.023,0,0,0,17-17.007v-.006A17.023,17.023,0,0,0,86.4,253.811Z" transform="translate(-67.831 -252.246)"/>
          </g>
        </g>
        <g id="text3851" transform="translate(24.953 67.935)" style="isolation: isolate">
          <g id="Grupo_55363" data-name="Grupo 55363" style="isolation: isolate">
            <path id="Trazado_107057" data-name="Trazado 107057" d="M115.373,276.767v-2.329h-2.347v-1.608h2.347V270.5h1.565v2.329h2.353v1.608h-2.353v2.329Z" transform="translate(-113.026 -270.502)"/>
          </g>
        </g>
        <g id="text3855" transform="translate(26.287 92.257)" style="isolation: isolate">
          <g id="Grupo_55364" data-name="Grupo 55364" style="isolation: isolate">
            <path id="Trazado_107058" data-name="Trazado 107058" d="M117.288,349.5v-1.283h6.962V349.5Z" transform="translate(-117.288 -348.219)"/>
          </g>
        </g>
        <g id="text3859" transform="translate(36.701 15.499)" style="isolation: isolate">
          <g id="Grupo_55365" data-name="Grupo 55365" style="isolation: isolate">
            <path id="Trazado_107059" data-name="Trazado 107059" d="M156.505,111.119a6.167,6.167,0,0,1-1.549,1.014,3.982,3.982,0,0,1-1.592.321,2.8,2.8,0,0,1-2.028-.74,2.514,2.514,0,0,1-.77-1.9,2.6,2.6,0,0,1,.347-1.348,2.72,2.72,0,0,1,.92-.941,4.051,4.051,0,0,1,1.4-.509,15.659,15.659,0,0,1,1.981-.163,7.071,7.071,0,0,0,2.092-.308,4,4,0,0,0,.18-1.052,1.017,1.017,0,0,0-.393-.847,2.492,2.492,0,0,0-1.575-.428,2.732,2.732,0,0,0-1.6.432,2.442,2.442,0,0,0-.9,1.228l-1.566-.137a4.091,4.091,0,0,1,1.519-2.071,4.508,4.508,0,0,1,2.623-.719,4.1,4.1,0,0,1,2.67.8,1.9,1.9,0,0,1,.753,1.557,7.856,7.856,0,0,1-.214,1.686l-.5,2.259a8.451,8.451,0,0,0-.239,1.754,5.867,5.867,0,0,0,.188,1.232h-1.566A5.706,5.706,0,0,1,156.505,111.119Zm.573-3.475a3.752,3.752,0,0,1-.7.2q-.372.069-1.245.146a9.579,9.579,0,0,0-1.908.3,1.6,1.6,0,0,0-.838.586,1.515,1.515,0,0,0-.283.89,1.4,1.4,0,0,0,.449,1.07,1.8,1.8,0,0,0,1.279.419,3.026,3.026,0,0,0,2.6-1.54A6.58,6.58,0,0,0,157.078,107.644Z" transform="translate(-150.566 -102.955)"/>
          </g>
        </g>
        <g id="text3863" transform="translate(197.486 12.247)" style="isolation: isolate">
          <g id="Grupo_55366" data-name="Grupo 55366" style="isolation: isolate">
            <path id="Trazado_107060" data-name="Trazado 107060" d="M664.316,105.109l2.619-12.545h1.549l-.933,4.484a5.5,5.5,0,0,1,1.335-.954,2.934,2.934,0,0,1,1.249-.278,2.737,2.737,0,0,1,2.127.95,4.013,4.013,0,0,1,.852,2.764,6.789,6.789,0,0,1-.342,2.208,6.144,6.144,0,0,1-.847,1.682,5.305,5.305,0,0,1-1.044,1.087,4.142,4.142,0,0,1-1.1.608,3.247,3.247,0,0,1-1.087.2,2.711,2.711,0,0,1-1.583-.475,3.074,3.074,0,0,1-1.07-1.451l-.359,1.72Zm2.294-3.731-.009.291a2.535,2.535,0,0,0,.556,1.771,1.8,1.8,0,0,0,1.386.607,2.276,2.276,0,0,0,1.493-.569,4.063,4.063,0,0,0,1.117-1.776,6.578,6.578,0,0,0,.437-2.225,2.623,2.623,0,0,0-.552-1.78,1.741,1.741,0,0,0-1.365-.633,2.228,2.228,0,0,0-1.54.646,4.838,4.838,0,0,0-1.172,1.99A5.263,5.263,0,0,0,666.61,101.378Z" transform="translate(-664.316 -92.564)"/>
          </g>
        </g>
        <g id="text3867" transform="translate(36.856 110.34)" style="isolation: isolate">
          <g id="Grupo_55367" data-name="Grupo 55367" transform="translate(0)" style="isolation: isolate">
            <path id="Trazado_107061" data-name="Trazado 107061" d="M156.844,417.225a3.735,3.735,0,0,1-2.773,1.523,2.775,2.775,0,0,1-2.152-.954,4,4,0,0,1-.86-2.768,6.742,6.742,0,0,1,.68-3.034,5.151,5.151,0,0,1,1.7-2.058,3.661,3.661,0,0,1,2.05-.684,2.753,2.753,0,0,1,2.558,1.634L159.077,406h1.54L158,418.542H156.57Zm-4.245-2.49a4.762,4.762,0,0,0,.188,1.5,1.963,1.963,0,0,0,.642.911,1.68,1.68,0,0,0,1.087.364,2.425,2.425,0,0,0,1.908-1.1,5.625,5.625,0,0,0,1.147-3.594,2.38,2.38,0,0,0-.565-1.686,1.857,1.857,0,0,0-1.421-.607,2.1,2.1,0,0,0-1.014.248,2.965,2.965,0,0,0-.907.843,5.3,5.3,0,0,0-.757,1.51A5.147,5.147,0,0,0,152.6,414.734Z" transform="translate(-151.059 -405.997)"/>
          </g>
        </g>
        <g id="text3871" transform="translate(197.888 113.592)" style="isolation: isolate">
          <g id="Grupo_55368" data-name="Grupo 55368" style="isolation: isolate">
            <path id="Trazado_107062" data-name="Trazado 107062" d="M671.472,422.37l1.549.163a5.208,5.208,0,0,1-1.656,2.529,3.9,3.9,0,0,1-2.443.826,3.176,3.176,0,0,1-2.4-.958,3.71,3.71,0,0,1-.92-2.679,7.638,7.638,0,0,1,.59-2.926,4.729,4.729,0,0,1,1.69-2.187,4.358,4.358,0,0,1,2.512-.749,3.2,3.2,0,0,1,2.319.826,2.9,2.9,0,0,1,.856,2.187l-1.523.1a1.845,1.845,0,0,0-.5-1.352,1.761,1.761,0,0,0-1.3-.488,2.4,2.4,0,0,0-1.617.591,3.885,3.885,0,0,0-1.074,1.793,7.5,7.5,0,0,0-.39,2.315,2.572,2.572,0,0,0,.514,1.746,1.623,1.623,0,0,0,1.267.582,2.227,2.227,0,0,0,1.442-.573A3.766,3.766,0,0,0,671.472,422.37Z" transform="translate(-665.602 -416.388)"/>
          </g>
        </g>
        <g id="text3875" transform="translate(54.205 76.556)" style="isolation: isolate">
          <g id="Grupo_55369" data-name="Grupo 55369" style="isolation: isolate">
            <path id="Trazado_107063" data-name="Trazado 107063" d="M207.985,307.135l-1.489-9.088H208l.779,5.006q.128.822.317,2.679.445-.967,1.138-2.216l3.038-5.468h1.635l-5.2,9.088Z" transform="translate(-206.496 -298.047)"/>
          </g>
        </g>
        <g id="text3879" transform="translate(60.457 81.605)" style="isolation: isolate">
          <g id="Grupo_55370" data-name="Grupo 55370" style="isolation: isolate">
            <path id="Trazado_107064" data-name="Trazado 107064" d="M229.583,321.349v-1.716h-3.11v-.807l3.271-4.645h.719v4.645h.968v.807h-.968v1.716Zm0-2.523v-3.232l-2.245,3.232Z" transform="translate(-226.473 -314.18)"/>
          </g>
        </g>
        <g id="text3883" transform="translate(201.165 76.556)" style="isolation: isolate">
          <g id="Grupo_55371" data-name="Grupo 55371" style="isolation: isolate">
            <path id="Trazado_107065" data-name="Trazado 107065" d="M677.56,307.135l-1.489-9.088h1.506l.779,5.006q.129.822.317,2.679.445-.967,1.138-2.216l3.038-5.468h1.634l-5.2,9.088Z" transform="translate(-676.071 -298.047)"/>
          </g>
        </g>
        <g id="text3887" transform="translate(207.592 81.575)" style="isolation: isolate">
          <g id="Grupo_55372" data-name="Grupo 55372" style="isolation: isolate">
            <path id="Trazado_107066" data-name="Trazado 107066" d="M701.347,320.438v.846h-4.739a1.565,1.565,0,0,1,.1-.611,3.239,3.239,0,0,1,.58-.954,9.074,9.074,0,0,1,1.152-1.086,9.756,9.756,0,0,0,1.58-1.518,1.818,1.818,0,0,0,.411-1.059,1.176,1.176,0,0,0-.374-.883,1.349,1.349,0,0,0-.976-.36,1.373,1.373,0,0,0-1.017.382,1.442,1.442,0,0,0-.386,1.056l-.9-.093a2.227,2.227,0,0,1,.7-1.543,2.386,2.386,0,0,1,1.628-.53,2.272,2.272,0,0,1,1.633.572,1.879,1.879,0,0,1,.6,1.418,2.149,2.149,0,0,1-.176.846,3.272,3.272,0,0,1-.584.875,14.189,14.189,0,0,1-1.357,1.262q-.792.665-1.017.9a2.9,2.9,0,0,0-.372.477Z" transform="translate(-696.608 -314.086)"/>
          </g>
        </g>
        <g id="text3891" transform="translate(159.754 73.098)" style="isolation: isolate">
          <g id="Grupo_55373" data-name="Grupo 55373" style="isolation: isolate">
            <path id="Trazado_107067" data-name="Trazado 107067" d="M543.752,299.545,546.379,287h5.263a8.106,8.106,0,0,1,2.362.261,2.3,2.3,0,0,1,1.262.98,3.317,3.317,0,0,1,.458,1.814,3.463,3.463,0,0,1-1,2.542,5.49,5.49,0,0,1-3.235,1.309,4.7,4.7,0,0,1,1.035.993,11.133,11.133,0,0,1,1.267,2.285l.959,2.362h-1.874l-.9-2.336a10.9,10.9,0,0,0-1.112-2.191,2.247,2.247,0,0,0-.873-.843,3.78,3.78,0,0,0-1.446-.2h-1.951l-1.164,5.571Zm3.123-6.931h2.319q1.609,0,2.1-.043a4.064,4.064,0,0,0,1.557-.428,2.419,2.419,0,0,0,.941-.9,2.349,2.349,0,0,0,.334-1.215,1.794,1.794,0,0,0-.248-.954,1.257,1.257,0,0,0-.651-.552,4.492,4.492,0,0,0-1.369-.146h-4.09Z" transform="translate(-543.752 -287)"/>
          </g>
        </g>
        <g id="text3895" transform="translate(169.875 81.575)" style="isolation: isolate">
          <g id="Grupo_55374" data-name="Grupo 55374" style="isolation: isolate">
            <path id="Trazado_107068" data-name="Trazado 107068" d="M580.833,320.438v.846h-4.738a1.557,1.557,0,0,1,.1-.611,3.245,3.245,0,0,1,.579-.954,9.147,9.147,0,0,1,1.152-1.086,9.742,9.742,0,0,0,1.58-1.518,1.818,1.818,0,0,0,.411-1.059,1.175,1.175,0,0,0-.374-.883,1.349,1.349,0,0,0-.975-.36,1.374,1.374,0,0,0-1.017.382,1.442,1.442,0,0,0-.386,1.056l-.9-.093a2.229,2.229,0,0,1,.7-1.543,2.386,2.386,0,0,1,1.628-.53,2.271,2.271,0,0,1,1.633.572,1.879,1.879,0,0,1,.6,1.418,2.149,2.149,0,0,1-.176.846,3.267,3.267,0,0,1-.585.875,14.108,14.108,0,0,1-1.357,1.262q-.792.665-1.017.9a2.923,2.923,0,0,0-.371.477Z" transform="translate(-576.094 -314.086)"/>
          </g>
        </g>
        <g id="text3907" transform="translate(97.593 104.359)" style="isolation: isolate">
          <g id="Grupo_55375" data-name="Grupo 55375" style="isolation: isolate">
            <path id="Trazado_107069" data-name="Trazado 107069" d="M345.13,399.431l2.627-12.545h5.263a8.108,8.108,0,0,1,2.362.261,2.293,2.293,0,0,1,1.262.98,3.318,3.318,0,0,1,.458,1.814,3.462,3.462,0,0,1-1,2.542,5.492,5.492,0,0,1-3.235,1.309,4.709,4.709,0,0,1,1.036.993,11.178,11.178,0,0,1,1.267,2.285l.958,2.362h-1.874l-.9-2.336a10.907,10.907,0,0,0-1.113-2.191,2.251,2.251,0,0,0-.873-.843,3.786,3.786,0,0,0-1.446-.2h-1.951l-1.164,5.571Zm3.124-6.932h2.319q1.609,0,2.1-.043a4.071,4.071,0,0,0,1.558-.428,2.422,2.422,0,0,0,.941-.9,2.347,2.347,0,0,0,.334-1.215,1.8,1.8,0,0,0-.248-.954,1.256,1.256,0,0,0-.65-.552,4.483,4.483,0,0,0-1.369-.146h-4.09Z" transform="translate(-345.13 -386.886)"/>
          </g>
        </g>
        <g id="text3911" transform="translate(107.832 112.836)" style="isolation: isolate">
          <g id="Grupo_55376" data-name="Grupo 55376" style="isolation: isolate">
            <path id="Trazado_107070" data-name="Trazado 107070" d="M377.849,419.278l.88-.117a1.937,1.937,0,0,0,.516,1.078,1.274,1.274,0,0,0,.888.33,1.421,1.421,0,0,0,1.049-.43,1.452,1.452,0,0,0,.428-1.066,1.352,1.352,0,0,0-.4-1,1.37,1.37,0,0,0-1.007-.394,2.529,2.529,0,0,0-.621.1l.1-.773a1.259,1.259,0,0,0,.142.01,1.813,1.813,0,0,0,1.012-.293,1,1,0,0,0,.45-.9,1.07,1.07,0,0,0-.328-.8,1.164,1.164,0,0,0-.846-.318,1.2,1.2,0,0,0-.856.323,1.619,1.619,0,0,0-.44.968l-.88-.156a2.263,2.263,0,0,1,.734-1.372,2.12,2.12,0,0,1,1.423-.486,2.345,2.345,0,0,1,1.081.252,1.827,1.827,0,0,1,.755.687,1.766,1.766,0,0,1,.262.924,1.514,1.514,0,0,1-.249.846,1.7,1.7,0,0,1-.739.606,1.664,1.664,0,0,1,.988.609,1.853,1.853,0,0,1,.352,1.156,2.117,2.117,0,0,1-.685,1.592,2.407,2.407,0,0,1-1.731.653,2.252,2.252,0,0,1-1.567-.562A2.173,2.173,0,0,1,377.849,419.278Z" transform="translate(-377.849 -413.972)"/>
          </g>
        </g>
        <g id="text3915" transform="translate(99.549 141.951)" style="isolation: isolate">
          <g id="Grupo_55377" data-name="Grupo 55377" style="isolation: isolate">
            <path id="Trazado_107071" data-name="Trazado 107071" d="M352.869,516.09,351.38,507h1.506l.779,5.006q.129.822.317,2.679.445-.967,1.138-2.216L358.158,507h1.634l-5.2,9.088Z" transform="translate(-351.38 -507.002)"/>
          </g>
        </g>
        <g id="text3919" transform="translate(106.094 146.97)" style="isolation: isolate">
          <g id="Grupo_55378" data-name="Grupo 55378" style="isolation: isolate">
            <path id="Trazado_107072" data-name="Trazado 107072" d="M372.294,528.347l.88-.117a1.938,1.938,0,0,0,.516,1.078,1.273,1.273,0,0,0,.888.33,1.422,1.422,0,0,0,1.049-.43,1.452,1.452,0,0,0,.428-1.066,1.35,1.35,0,0,0-.4-1,1.37,1.37,0,0,0-1.007-.394,2.53,2.53,0,0,0-.621.1l.1-.772a1.318,1.318,0,0,0,.142.01,1.812,1.812,0,0,0,1.012-.294,1,1,0,0,0,.45-.9,1.071,1.071,0,0,0-.328-.8,1.164,1.164,0,0,0-.846-.318,1.2,1.2,0,0,0-.856.323,1.62,1.62,0,0,0-.44.968l-.88-.156a2.263,2.263,0,0,1,.733-1.372,2.122,2.122,0,0,1,1.423-.487,2.346,2.346,0,0,1,1.081.252,1.822,1.822,0,0,1,.755.687,1.764,1.764,0,0,1,.262.924,1.513,1.513,0,0,1-.249.846,1.7,1.7,0,0,1-.739.607,1.663,1.663,0,0,1,.988.609,1.853,1.853,0,0,1,.352,1.156,2.116,2.116,0,0,1-.684,1.592,2.407,2.407,0,0,1-1.731.653,2.25,2.25,0,0,1-1.567-.562A2.175,2.175,0,0,1,372.294,528.347Z" transform="translate(-372.294 -523.041)"/>
          </g>
        </g>
        <g id="text3941" transform="translate(97.593 5.988)" style="isolation: isolate">
          <g id="Grupo_55379" data-name="Grupo 55379" style="isolation: isolate">
            <path id="Trazado_107073" data-name="Trazado 107073" d="M345.13,85.109l2.627-12.545h5.263a8.108,8.108,0,0,1,2.362.261,2.3,2.3,0,0,1,1.262.98,3.319,3.319,0,0,1,.458,1.814,3.461,3.461,0,0,1-1,2.542,5.49,5.49,0,0,1-3.235,1.309,4.718,4.718,0,0,1,1.036.993,11.178,11.178,0,0,1,1.267,2.285l.958,2.362h-1.874l-.9-2.336a10.906,10.906,0,0,0-1.113-2.191,2.248,2.248,0,0,0-.873-.843,3.78,3.78,0,0,0-1.446-.2h-1.951l-1.164,5.571Zm3.124-6.932h2.319q1.609,0,2.1-.043a4.071,4.071,0,0,0,1.558-.428,2.421,2.421,0,0,0,.941-.9,2.347,2.347,0,0,0,.334-1.215,1.8,1.8,0,0,0-.248-.954,1.259,1.259,0,0,0-.65-.552,4.494,4.494,0,0,0-1.369-.146h-4.09Z" transform="translate(-345.13 -72.564)"/>
          </g>
        </g>
        <g id="text3945" transform="translate(108.502 14.465)" style="isolation: isolate">
          <g id="Grupo_55380" data-name="Grupo 55380" style="isolation: isolate">
            <path id="Trazado_107074" data-name="Trazado 107074" d="M382.63,106.848h-.88v-5.609a4.531,4.531,0,0,1-.834.607,5.9,5.9,0,0,1-.927.455v-.851a5.3,5.3,0,0,0,1.291-.841,3.3,3.3,0,0,0,.782-.958h.567Z" transform="translate(-379.989 -99.65)"/>
          </g>
        </g>
        <g id="text3949" transform="translate(99.549 43.58)" style="isolation: isolate">
          <g id="Grupo_55381" data-name="Grupo 55381" style="isolation: isolate">
            <path id="Trazado_107075" data-name="Trazado 107075" d="M352.869,201.769l-1.489-9.088h1.506l.779,5.006q.129.822.317,2.678.445-.967,1.138-2.216l3.038-5.468h1.634l-5.2,9.088Z" transform="translate(-351.38 -192.681)"/>
          </g>
        </g>
        <g id="text3953" transform="translate(106.764 48.6)" style="isolation: isolate">
          <g id="Grupo_55382" data-name="Grupo 55382" style="isolation: isolate">
            <path id="Trazado_107076" data-name="Trazado 107076" d="M377.076,215.918h-.88v-5.609a4.534,4.534,0,0,1-.834.606,5.853,5.853,0,0,1-.927.455v-.851a5.311,5.311,0,0,0,1.291-.841,3.308,3.308,0,0,0,.782-.958h.567Z" transform="translate(-374.435 -208.72)"/>
          </g>
        </g>
        <g id="text3957" transform="translate(143.585 140.568)" style="isolation: isolate">
          <g id="Grupo_55383" data-name="Grupo 55383" style="isolation: isolate">
            <path id="Trazado_107077" data-name="Trazado 107077" d="M492.088,515.13l2.627-12.545h5.263a8.107,8.107,0,0,1,2.362.261,2.3,2.3,0,0,1,1.262.98,3.319,3.319,0,0,1,.458,1.814,3.463,3.463,0,0,1-1,2.542,5.491,5.491,0,0,1-3.235,1.309,4.715,4.715,0,0,1,1.035.993,11.162,11.162,0,0,1,1.267,2.285l.959,2.362H501.21l-.9-2.336A10.926,10.926,0,0,0,499.2,510.6a2.251,2.251,0,0,0-.873-.843,3.779,3.779,0,0,0-1.446-.2h-1.951l-1.164,5.571Zm3.123-6.932h2.319q1.608,0,2.1-.043a4.071,4.071,0,0,0,1.557-.428,2.421,2.421,0,0,0,.941-.9,2.347,2.347,0,0,0,.334-1.215,1.8,1.8,0,0,0-.248-.954,1.259,1.259,0,0,0-.651-.552,4.494,4.494,0,0,0-1.369-.146H496.1Z" transform="translate(-492.088 -502.585)"/>
          </g>
        </g>
        <g id="text3961" transform="translate(153.82 149.172)" style="isolation: isolate">
          <g id="Grupo_55384" data-name="Grupo 55384" style="isolation: isolate">
            <path id="Trazado_107078" data-name="Trazado 107078" d="M524.791,535.27l.924-.078a1.657,1.657,0,0,0,.477,1.015,1.292,1.292,0,0,0,.9.34,1.406,1.406,0,0,0,1.076-.479,1.807,1.807,0,0,0,.44-1.272,1.634,1.634,0,0,0-.423-1.188,1.477,1.477,0,0,0-1.108-.435,1.535,1.535,0,0,0-.768.193,1.487,1.487,0,0,0-.538.5l-.827-.108.694-3.682h3.565v.841h-2.861l-.386,1.927a2.335,2.335,0,0,1,1.355-.45,2.146,2.146,0,0,1,1.584.651,2.273,2.273,0,0,1,.646,1.672,2.61,2.61,0,0,1-.567,1.682,2.273,2.273,0,0,1-1.883.871,2.317,2.317,0,0,1-1.6-.548A2.135,2.135,0,0,1,524.791,535.27Z" transform="translate(-524.791 -530.077)"/>
          </g>
        </g>
        <g id="text3965" transform="translate(145.541 178.16)" style="isolation: isolate">
          <g id="Grupo_55385" data-name="Grupo 55385" style="isolation: isolate">
            <path id="Trazado_107079" data-name="Trazado 107079" d="M499.827,631.789l-1.489-9.088h1.506l.779,5.006q.128.822.316,2.679.445-.967,1.138-2.216l3.038-5.468h1.635l-5.2,9.088Z" transform="translate(-498.338 -622.701)"/>
          </g>
        </g>
        <g id="text3969" transform="translate(152.081 183.307)" style="isolation: isolate">
          <g id="Grupo_55386" data-name="Grupo 55386" style="isolation: isolate">
            <path id="Trazado_107080" data-name="Trazado 107080" d="M519.236,644.339l.924-.078a1.657,1.657,0,0,0,.477,1.015,1.293,1.293,0,0,0,.9.34,1.4,1.4,0,0,0,1.076-.479,1.8,1.8,0,0,0,.44-1.271,1.634,1.634,0,0,0-.423-1.188,1.475,1.475,0,0,0-1.108-.435,1.535,1.535,0,0,0-.768.193,1.489,1.489,0,0,0-.538.5l-.827-.108.695-3.682h3.565v.841h-2.861l-.386,1.927a2.333,2.333,0,0,1,1.354-.45,2.146,2.146,0,0,1,1.584.65,2.274,2.274,0,0,1,.646,1.672,2.611,2.611,0,0,1-.567,1.682,2.272,2.272,0,0,1-1.882.87,2.318,2.318,0,0,1-1.6-.548A2.136,2.136,0,0,1,519.236,644.339Z" transform="translate(-519.236 -639.146)"/>
          </g>
        </g>
      </g>
    </g>
  </g>
</svg>
