<svg xmlns="http://www.w3.org/2000/svg" width="363" height="260" viewBox="0 0 363 260"><g transform="translate(5106 5789)"><rect width="363" height="260" transform="translate(-5106 -5789)" fill="#fff"/><g transform="translate(-5033.572 -5769.017)"><path d="M-278.211-136.135a18.65,18.65,0,0,1-2.357,12.724,16.913,16.913,0,0,1-5.339,5.677l.047.071c-9.969,6.512-21.009,4.971-24.929,4.125l-7.954,13.623a8.473,8.473,0,0,1,1.523,10.433,8.471,8.471,0,0,1-11.572,3.04,8.468,8.468,0,0,1-3.04-11.572,8.467,8.467,0,0,1,9.833-3.8l9.414-16.119,1.418.421c.113.035,10.321,2.941,20.118-1.6l-.119-.455a12.468,12.468,0,0,0,7.518-5.642,14.007,14.007,0,0,0,1.6-10.012c-7.993,1.182-17.2-1.449-23.646-5.213a23.971,23.971,0,0,1-8.052-7.079c-2.766-4.241-1.552-7.661-.582-9.323a9.5,9.5,0,0,1,8.907-4.671,23.066,23.066,0,0,1,10.64,3.5c6.238,3.642,12.739,10.242,15.484,17.8a2.24,2.24,0,0,1,.74-.431,12.413,12.413,0,0,0,7.007-5.313,13.9,13.9,0,0,0,1.5-9.386,2.245,2.245,0,0,1,.038-.861c-7.94,1.1-17.028-1.505-23.415-5.233a23.941,23.941,0,0,1-8.052-7.079c-2.766-4.241-1.552-7.663-.582-9.325a9.508,9.508,0,0,1,8.907-4.671,23.1,23.1,0,0,1,10.638,3.5c6.29,3.672,12.858,10.35,15.562,17.986a12.474,12.474,0,0,0,7.518-5.642,14.01,14.01,0,0,0,1.6-10.014c-7.993,1.184-17.2-1.448-23.645-5.212a23.94,23.94,0,0,1-8.052-7.079c-2.766-4.241-1.552-7.663-.581-9.325a9.5,9.5,0,0,1,8.905-4.671,23.1,23.1,0,0,1,10.64,3.5c6.289,3.672,12.857,10.349,15.561,17.986a12.474,12.474,0,0,0,7.518-5.642,14.011,14.011,0,0,0,1.6-10.014c-7.991,1.184-17.2-1.448-23.646-5.212a23.956,23.956,0,0,1-8.052-7.081c-2.766-4.241-1.552-7.661-.581-9.323a9.5,9.5,0,0,1,8.905-4.671,23.106,23.106,0,0,1,10.64,3.5c6.289,3.672,12.857,10.349,15.562,17.986a12.484,12.484,0,0,0,7.518-5.642,14,14,0,0,0,1.6-10.014c-7.991,1.184-17.2-1.448-23.646-5.214a23.917,23.917,0,0,1-8.05-7.079c-2.767-4.241-1.553-7.661-.582-9.323a9.5,9.5,0,0,1,8.905-4.671,23.083,23.083,0,0,1,10.64,3.5c6.29,3.672,12.858,10.349,15.562,17.986a12.479,12.479,0,0,0,7.518-5.642,13.58,13.58,0,0,0,1.859-6.225c.023-.368.014-.724.02-1.086a16.028,16.028,0,0,0-.231-2.363,2.286,2.286,0,0,1,.081-1c-1.223-10.228-8.338-17.226-8.418-17.3l-1.069-1.029,10.6-18.161,3.256,1.9-9.145,15.662c2.377,2.672,8,10.011,8.649,19.991a19.408,19.408,0,0,1,.029,3.241c-.007.17,0,.333-.014.5l-.032,0a18.859,18.859,0,0,1-2.508,7.664,17.1,17.1,0,0,1-9.587,7.738,18.647,18.647,0,0,1-2.359,12.722,17.1,17.1,0,0,1-9.587,7.737,18.658,18.658,0,0,1-2.359,12.724A17.1,17.1,0,0,1-254-177.6a18.649,18.649,0,0,1-2.357,12.724,17.1,17.1,0,0,1-9.589,7.737,18.65,18.65,0,0,1-2.357,12.724c-.053.087-.113.167-.166.255s-.1.193-.151.287A17.1,17.1,0,0,1-278.211-136.135Zm-49.715,40.4a3.942,3.942,0,0,0,1.415,5.384,3.94,3.94,0,0,0,5.384-1.415,3.94,3.94,0,0,0-1.415-5.384A3.943,3.943,0,0,0-327.926-95.735Zm30.9-58.437a20.479,20.479,0,0,0-9.212-3.1c-2.42-.066-4.105.683-5.008,2.229-.893,1.531-.1,3.362.73,4.628a21.374,21.374,0,0,0,7.064,6.132c5.582,3.257,13.407,5.521,20.115,4.99C-286.046-145.528-291.777-151.106-297.028-154.172Zm12.262-21a20.472,20.472,0,0,0-9.211-3.1c-2.421-.066-4.105.683-5.008,2.229-.893,1.531-.1,3.362.73,4.628a21.374,21.374,0,0,0,7.064,6.132c5.582,3.258,13.406,5.521,20.115,4.99C-273.785-166.53-279.514-172.108-284.766-175.174Zm11.946-20.46a20.461,20.461,0,0,0-9.211-3.1c-2.42-.068-4.105.682-5.008,2.227s-.1,3.363.73,4.63a21.355,21.355,0,0,0,7.064,6.13c5.581,3.259,13.407,5.523,20.115,4.992C-261.84-186.99-267.569-192.57-272.82-195.635Zm11.946-20.462a20.476,20.476,0,0,0-9.212-3.1c-2.419-.068-4.105.682-5.007,2.227-.894,1.531-.1,3.363.73,4.63a21.339,21.339,0,0,0,7.064,6.13c5.58,3.259,13.406,5.523,20.115,4.992C-249.892-207.45-255.623-213.03-260.874-216.1Zm11.947-20.46a20.487,20.487,0,0,0-9.211-3.1c-2.421-.068-4.107.682-5.008,2.227-.894,1.531-.1,3.362.73,4.63a21.339,21.339,0,0,0,7.064,6.13c5.582,3.259,13.406,5.521,20.115,4.992C-237.947-227.912-243.677-233.491-248.927-236.557Z" transform="translate(332.985 283.112)" fill="red"/><path d="M-343.9-221.751c.056.094.1.192.151.285s.113.169.164.256a18.649,18.649,0,0,1,2.33,12.728,17.1,17.1,0,0,1,9.572,7.758,18.651,18.651,0,0,1,2.33,12.73,17.1,17.1,0,0,1,9.572,7.758,18.647,18.647,0,0,1,2.33,12.728,17.1,17.1,0,0,1,9.572,7.758,18.649,18.649,0,0,1,2.33,12.728,17.1,17.1,0,0,1,9.572,7.758,18.888,18.888,0,0,1,2.491,7.67h.03c.011.17.006.333.014.5a19.409,19.409,0,0,1-.036,3.241c-.67,9.979-6.31,17.305-8.691,19.972l9.11,15.681-3.26,1.894-10.564-18.185,1.072-1.025c.08-.077,7.21-7.059,8.456-17.283a2.269,2.269,0,0,1-.08-1,15.812,15.812,0,0,0,.235-2.362c0-.362,0-.718-.017-1.087a13.585,13.585,0,0,0-1.846-6.228,12.477,12.477,0,0,0-7.506-5.658c-2.721,7.631-9.3,14.294-15.6,17.952a23.111,23.111,0,0,1-10.647,3.473,9.507,9.507,0,0,1-8.9-4.69c-.967-1.665-2.175-5.088.6-9.322a23.913,23.913,0,0,1,8.067-7.062c6.456-3.751,15.666-6.363,23.656-5.162a14.011,14.011,0,0,0-1.577-10.017,12.478,12.478,0,0,0-7.506-5.658c-2.721,7.631-9.3,14.294-15.6,17.952a23.1,23.1,0,0,1-10.646,3.473,9.507,9.507,0,0,1-8.9-4.69c-.967-1.663-2.173-5.088.6-9.323a23.926,23.926,0,0,1,8.067-7.061c6.456-3.751,15.666-6.363,23.656-5.162a14.011,14.011,0,0,0-1.577-10.017,12.473,12.473,0,0,0-7.506-5.658c-2.721,7.631-9.3,14.294-15.6,17.952a23.089,23.089,0,0,1-10.647,3.472,9.5,9.5,0,0,1-8.9-4.689c-.967-1.665-2.173-5.088.6-9.323a23.945,23.945,0,0,1,8.067-7.062c6.456-3.751,15.666-6.361,23.656-5.161a14.014,14.014,0,0,0-1.577-10.018,12.477,12.477,0,0,0-7.506-5.657c-2.721,7.629-9.3,14.292-15.6,17.951a23.082,23.082,0,0,1-10.646,3.473,9.5,9.5,0,0,1-8.9-4.69c-.967-1.663-2.173-5.087.6-9.322a23.927,23.927,0,0,1,8.067-7.061c6.394-3.716,15.49-6.3,23.425-5.183a2.247,2.247,0,0,1-.035-.861,13.91,13.91,0,0,0-1.476-9.389,12.407,12.407,0,0,0-7-5.33,2.228,2.228,0,0,1-.739-.433c-2.76,7.553-9.275,14.14-15.521,17.768a23.089,23.089,0,0,1-10.647,3.472,9.5,9.5,0,0,1-8.9-4.689c-.967-1.665-2.173-5.088.6-9.322a23.926,23.926,0,0,1,8.067-7.062c6.456-3.751,15.666-6.363,23.656-5.162a14,14,0,0,0-1.577-10.017,12.473,12.473,0,0,0-7.506-5.658l.119-.455c-9.786-4.561-20-1.677-20.114-1.642l-1.419.416-9.377-16.138a8.471,8.471,0,0,1-9.827-3.822,8.471,8.471,0,0,1,3.066-11.566,8.471,8.471,0,0,1,11.566,3.064,8.471,8.471,0,0,1-1.546,10.43L-386-252.175c3.921-.837,14.965-2.354,24.92,4.179l-.047.071a16.925,16.925,0,0,1,5.327,5.689,18.654,18.654,0,0,1,2.33,12.728A17.1,17.1,0,0,1-343.9-221.751Zm-53.818-46.84a3.94,3.94,0,0,0,1.427-5.379,3.94,3.94,0,0,0-5.381-1.427,3.943,3.943,0,0,0-1.427,5.381A3.941,3.941,0,0,0-397.718-268.591Zm39.113,42.225c-6.708-.544-14.538,1.7-20.126,4.948a21.347,21.347,0,0,0-7.078,6.117c-.828,1.265-1.63,3.095-.739,4.627.9,1.547,2.582,2.3,5,2.24a20.487,20.487,0,0,0,9.219-3.078C-367.069-214.566-361.326-220.132-358.606-226.365Zm12.217,21.029c-6.708-.544-14.538,1.7-20.126,4.948a21.345,21.345,0,0,0-7.078,6.115c-.828,1.265-1.63,3.095-.74,4.628s2.583,2.3,5,2.238a20.477,20.477,0,0,0,9.217-3.076C-354.852-193.539-349.111-199.1-346.389-205.336Zm11.9,20.486c-6.708-.544-14.538,1.7-20.126,4.948a21.332,21.332,0,0,0-7.078,6.117c-.829,1.264-1.63,3.093-.74,4.627s2.583,2.3,5,2.238A20.459,20.459,0,0,0-348.209-170C-342.95-173.051-337.209-178.619-334.487-184.85Zm11.9,20.486c-6.708-.544-14.538,1.7-20.126,4.948a21.332,21.332,0,0,0-7.078,6.117c-.829,1.264-1.63,3.095-.74,4.627.9,1.549,2.583,2.3,5,2.24a20.463,20.463,0,0,0,9.217-3.078C-331.05-152.565-325.307-158.131-322.585-164.364Zm11.9,20.488c-6.708-.546-14.538,1.7-20.126,4.947a21.348,21.348,0,0,0-7.077,6.117c-.829,1.265-1.63,3.095-.74,4.627.9,1.549,2.583,2.3,5,2.24a20.469,20.469,0,0,0,9.218-3.078C-319.148-132.079-313.4-137.645-310.683-143.877Z" transform="translate(521.904 280.452)" fill="#00b0f1" style="isolation:isolate"/><path d="M-268.839-119.411c-.113,0-.222-.011-.333-.012s-.208.015-.314.017a19.663,19.663,0,0,1-12.6-4.306,17.943,17.943,0,0,1-11.851,4.45,19.666,19.666,0,0,1-12.6-4.306,17.937,17.937,0,0,1-11.851,4.449,19.654,19.654,0,0,1-12.6-4.3,17.948,17.948,0,0,1-11.852,4.449,19.645,19.645,0,0,1-12.6-4.306,17.938,17.938,0,0,1-11.851,4.45,20.051,20.051,0,0,1-8.15-1.651l-.014.027c-.158-.075-.3-.161-.458-.238a20.31,20.31,0,0,1-2.887-1.642,34.768,34.768,0,0,1-13.454-17.47l-18.717.11-.03-3.77,21.7-.128.371,1.442a31.876,31.876,0,0,0,11.165,15.929,2.358,2.358,0,0,1,.933.425,16.448,16.448,0,0,0,2,1.378c.327.175.641.36.982.525a14.408,14.408,0,0,0,6.529,1.495,13.054,13.054,0,0,0,8.913-3.7c-5.447-6.153-8.052-15.176-8.108-22.459a22.456,22.456,0,0,1,2.336-10.965,9.822,9.822,0,0,1,8.755-5.388,8.793,8.793,0,0,1,8.047,5.156,23.3,23.3,0,0,1,2.2,10.51c.059,7.467-2.313,16.757-7.479,23.092a14.738,14.738,0,0,0,9.786,3.61,13.049,13.049,0,0,0,8.911-3.7c-5.447-6.155-8.05-15.178-8.106-22.462a22.473,22.473,0,0,1,2.335-10.964,9.826,9.826,0,0,1,8.756-5.388,8.793,8.793,0,0,1,8.047,5.156,23.3,23.3,0,0,1,2.2,10.51c.059,7.467-2.313,16.757-7.479,23.094a14.746,14.746,0,0,0,9.786,3.61,13.061,13.061,0,0,0,8.911-3.7c-5.446-6.155-8.05-15.178-8.106-22.46a22.458,22.458,0,0,1,2.335-10.965,9.822,9.822,0,0,1,8.756-5.387,8.794,8.794,0,0,1,8.047,5.155,23.3,23.3,0,0,1,2.2,10.51c.059,7.467-2.313,16.758-7.479,23.094a14.749,14.749,0,0,0,9.786,3.61,13.067,13.067,0,0,0,8.913-3.7c-5.447-6.153-8.052-15.178-8.108-22.46a22.479,22.479,0,0,1,2.335-10.965,9.822,9.822,0,0,1,8.756-5.387,8.793,8.793,0,0,1,8.047,5.156,23.332,23.332,0,0,1,2.2,10.508c.057,7.4-2.279,16.574-7.341,22.9a2.372,2.372,0,0,1,.789.4,14.647,14.647,0,0,0,9.171,3.387,13,13,0,0,0,8.356-3.422,2.346,2.346,0,0,1,.768-.427c-5.357-6.149-7.927-15.076-7.982-22.3a22.459,22.459,0,0,1,2.335-10.965,9.822,9.822,0,0,1,8.756-5.387,8.794,8.794,0,0,1,8.047,5.155,23.34,23.34,0,0,1,2.2,10.51c.059,7.467-2.313,16.758-7.479,23.094a14.743,14.743,0,0,0,9.786,3.61,13.064,13.064,0,0,0,8.911-3.7l.347.33c9.1-6.225,11.738-16.521,11.766-16.636l.351-1.439,19.265-.118a8.664,8.664,0,0,1,8.453-6.625,8.628,8.628,0,0,1,8.8,8.409,8.59,8.59,0,0,1-8.666,8.512,8.708,8.708,0,0,1-8.557-6.526l-16.28.1c-1.256,3.819-5.548,14.157-16.5,19.548l-.041-.077a17.927,17.927,0,0,1-7.824,1.795,19.662,19.662,0,0,1-12.6-4.306A17.937,17.937,0,0,1-268.839-119.411Zm69.522-23.416a4.014,4.014,0,0,0,4.091,3.912,4,4,0,0,0,4.033-3.96,4.014,4.014,0,0,0-4.093-3.912A4,4,0,0,0-199.317-142.828Zm-57.861,12.95c3.921-5.55,5.913-13.461,5.863-19.924a20.789,20.789,0,0,0-1.861-9.181c-.709-1.348-1.939-2.953-3.767-2.942-1.849.011-3.386,1.1-4.568,3.229a19.92,19.92,0,0,0-1.959,9.528C-263.424-143.087-261.373-135.337-257.179-129.878Zm-25.1.148c3.921-5.55,5.913-13.46,5.863-19.924a20.79,20.79,0,0,0-1.861-9.181c-.709-1.348-1.939-2.953-3.769-2.942-1.847.012-3.384,1.1-4.567,3.229a19.922,19.922,0,0,0-1.959,9.528C-288.523-142.939-286.471-135.189-282.278-129.73Zm-24.452.145c3.921-5.55,5.913-13.461,5.864-19.924a20.789,20.789,0,0,0-1.861-9.181c-.709-1.348-1.938-2.953-3.769-2.942-1.847.011-3.384,1.1-4.566,3.229a19.921,19.921,0,0,0-1.959,9.528C-312.976-142.795-310.923-135.044-306.73-129.585Zm-24.452.143c3.921-5.55,5.913-13.46,5.863-19.922a20.784,20.784,0,0,0-1.861-9.181c-.709-1.348-1.938-2.953-3.769-2.942-1.847.011-3.384,1.1-4.567,3.227a19.908,19.908,0,0,0-1.959,9.528C-337.428-142.651-335.375-134.9-331.183-129.442Zm-24.452.145c3.921-5.55,5.915-13.46,5.864-19.922a20.8,20.8,0,0,0-1.859-9.181c-.71-1.348-1.941-2.954-3.769-2.942-1.849.011-3.384,1.1-4.568,3.227a19.941,19.941,0,0,0-1.959,9.53C-361.879-142.506-359.829-134.756-355.635-129.3Z" transform="translate(419.668 338.863)" fill="#ffef88" style="isolation:isolate"/></g></g></svg>