<svg xmlns="http://www.w3.org/2000/svg" width="202.931" height="44.219" viewBox="0 0 202.931 44.219"><g transform="translate(-576.529 -7328.781)"><g transform="translate(71 -111)"><g transform="translate(40 2296)"><path d="M15.15,18.133,17.982,7.781h3.828L17.025,22h-3.75L8.529,7.781h3.8Zm21.895-3.184H28V12.41h9.043Zm0,4.287H28V16.7h9.043ZM43.324,23.5H53.559v1H43.324Zm10,0H63.559v1H53.324Zm10,0H73.559v1H63.324Zm10,0H83.559v1H73.324Z" transform="translate(457 5141)" fill="#12263f"/></g><path d="M16.4,15.7l1.631-8.916h3.4L18.41,21H14.855l-1.9-8.105L11.086,21H7.541L4.514,6.781H7.922L9.553,15.7l1.953-8.916h2.91ZM14.709,51H11.291V36.781h3.418Z" transform="translate(548 7433)" fill="#12263f"/></g><g transform="translate(71 -111)"><g transform="translate(169 2296)"><path d="M14.384,22H10.966V7.781h3.418Zm21.563-7.051H26.9V12.41h9.043Zm0,4.287H26.9V16.7h9.043ZM42.226,23.5H52.46v1H42.226Zm10,0H62.46v1H52.226Zm10,0H72.46v1H62.226Zm10,0H82.46v1H72.226Z" transform="translate(457 5141)" fill="#12263f"/></g><path d="M16.4,15.7l1.631-8.916h3.4L18.41,21H14.855l-1.9-8.105L11.086,21H7.541L4.514,6.781H7.922L9.553,15.7l1.953-8.916h2.91ZM12.985,47.133l2.832-10.352h3.828L14.86,51H11.11L6.364,36.781h3.8Z" transform="translate(677 7433)" fill="#12263f"/></g></g></svg>