<svg xmlns="http://www.w3.org/2000/svg" width="295" height="137" viewBox="0 0 295 137">
  <g id="Grupo_55348" data-name="Grupo 55348" transform="translate(10064 4813)">
    <rect id="Rectángulo_5237" data-name="Rectángulo 5237" width="295" height="137" rx="7" transform="translate(-10064 -4813)" fill="#fff"/>
    <g id="Grupo_54893" data-name="Grupo 54893" transform="translate(-10043.438 -4788.938)">
      <g id="Grupo_54892" data-name="Grupo 54892" transform="translate(13 6.875)">
        <path id="Trazado_105757" data-name="Trazado 105757" d="M-8289.667-4445v17.667" transform="translate(8378 4445)" fill="none" stroke="#afafaf" stroke-width="2"/>
        <path id="Trazado_105760" data-name="Trazado 105760" d="M-8289.667-4445v17.667" transform="translate(8450 4445)" fill="none" stroke="#afafaf" stroke-width="2"/>
        <path id="Trazado_105758" data-name="Trazado 105758" d="M-8289.667-4383.333v17" transform="translate(8378 4445)" fill="none" stroke="#afafaf" stroke-width="2"/>
        <path id="Trazado_105759" data-name="Trazado 105759" d="M-8289.667-4383.333v17" transform="translate(8450 4445)" fill="none" stroke="#afafaf" stroke-width="2"/>
        <path id="Trazado_105761" data-name="Trazado 105761" d="M-8145-4427.333v-17.333h-87" transform="translate(8378 4445)" fill="none" stroke="#afafaf" stroke-linejoin="round" stroke-width="2"/>
        <path id="Trazado_105762" data-name="Trazado 105762" d="M-8275-4444.667h-30.667" transform="translate(8378 4445)" fill="none" stroke="#afafaf" stroke-width="2"/>
        <path id="Trazado_105763" data-name="Trazado 105763" d="M-8145-4383.333v17h-233v-30.333" transform="translate(8378 4445)" fill="none" stroke="#afafaf" stroke-linejoin="round" stroke-width="2"/>
        <path id="Trazado_105764" data-name="Trazado 105764" d="M-8378-4412.333V-4445h31" transform="translate(8378 4446)" fill="none" stroke="#afafaf" stroke-linejoin="round" stroke-width="2"/>
      </g>
      <path id="Trazado_105765" data-name="Trazado 105765" d="M-8290.143-4428.143l7.893,4.893-15.75,7.75,15.75,7-15.75,7.25,15.75,7.25-15.75,7.5,8.857,4.214" transform="translate(8391 4451.875)" fill="none" stroke="#636363" stroke-linecap="round" stroke-linejoin="round" stroke-width="2.5"/>
      <path id="Trazado_105766" data-name="Trazado 105766" d="M-8290.143-4428.143l7.893,4.893-15.75,7.75,15.75,7-15.75,7.25,15.75,7.25-15.75,7.5,8.857,4.214" transform="translate(8463 4451.875)" fill="none" stroke="#636363" stroke-linecap="round" stroke-linejoin="round" stroke-width="2.5"/>
      <path id="Trazado_105767" data-name="Trazado 105767" d="M-8290.143-4428.143l7.893,4.893-15.75,7.75,15.75,7-15.75,7.25,15.75,7.25-15.75,7.5,8.857,4.214" transform="translate(8536.125 4451.875)" fill="none" stroke="#636363" stroke-linecap="round" stroke-linejoin="round" stroke-width="2.5"/>
      <path id="Trazado_105768" data-name="Trazado 105768" d="M7.857,0,15.75,4.723,0,12.2l15.75,6.756L0,25.957l15.75,7L0,40.194l8.857,4.068" transform="translate(115.667 15.75) rotate(-90)" fill="none" stroke="#636363" stroke-linecap="round" stroke-linejoin="round" stroke-width="2.5"/>
      <path id="Trazado_105769" data-name="Trazado 105769" d="M7.857,0,15.75,4.509,0,11.652,15.75,18.1,0,24.784l15.75,6.682L0,38.378l8.857,3.884" transform="translate(43.667 15.75) rotate(-90)" fill="none" stroke="#636363" stroke-linecap="round" stroke-linejoin="round" stroke-width="2.5"/>
      <circle id="Elipse_4073" data-name="Elipse 4073" cx="3" cy="3" r="3" transform="translate(98 3.875)" fill="#707070"/>
      <g id="Elipse_4077" data-name="Elipse 4077" transform="translate(0 33.875)" fill="#fff" stroke="#707070" stroke-width="2">
        <circle cx="13" cy="13" r="13" stroke="none"/>
        <circle cx="13" cy="13" r="12" fill="none"/>
      </g>
      <circle id="Elipse_4076" data-name="Elipse 4076" cx="3" cy="3" r="3" transform="translate(98 82.875)" fill="#707070"/>
      <circle id="Elipse_4074" data-name="Elipse 4074" cx="3" cy="3" r="3" transform="translate(170 3.875)" fill="#707070"/>
      <circle id="Elipse_4075" data-name="Elipse 4075" cx="3" cy="3" r="3" transform="translate(170 82.875)" fill="#707070"/>
      <g id="Grupo_55340" data-name="Grupo 55340">
        <text id="_" data-name="+" transform="translate(4.5 33.875)" fill="#12263f" font-size="14" font-family="Roboto-Regular, Roboto"><tspan x="-3.968" y="15">+</tspan></text>
        <text id="_-" data-name="-" transform="translate(4.5 42.875)" fill="#12263f" font-size="14" font-family="Roboto-Regular, Roboto"><tspan x="-1.931" y="15">-</tspan></text>
      </g>
    </g>
  </g>
</svg>
