<svg xmlns="http://www.w3.org/2000/svg" xmlns:xlink="http://www.w3.org/1999/xlink" width="704.317" height="250.038" viewBox="0 0 704.317 250.038">
  <defs>
    <linearGradient id="linear-gradient" x1="-1.002" y1="1.574" x2="-0.967" y2="1.541" gradientUnits="objectBoundingBox">
      <stop offset="0" stop-opacity="0.102"/>
      <stop offset="1" stop-opacity="0"/>
    </linearGradient>
    <linearGradient id="linear-gradient-2" x1="-0.287" y1="1.25" x2="-0.227" y2="1.229" gradientUnits="objectBoundingBox">
      <stop offset="0" stop-color="#fff" stop-opacity="0.2"/>
      <stop offset="1" stop-color="#fff" stop-opacity="0"/>
    </linearGradient>
  </defs>
  <g id="Grupo_55654" data-name="Grupo 55654" transform="translate(-481.517 -2978.5)">
    <g id="Grupo_55652" data-name="Grupo 55652" transform="translate(481.517 2978.5)">
      <g id="Trazado_105743" data-name="Trazado 105743" transform="translate(0 56.353)" fill="none">
        <path d="M9.945,0h216.57c5.492,0,9.945,4.108,9.945,9.175V162.092c0,5.067-4.452,9.175-9.945,9.175H9.945C4.452,171.267,0,167.16,0,162.092V9.175C0,4.108,4.452,0,9.945,0Z" stroke="none"/>
        <path d="M 9.944549560546875 5.000015258789062 C 8.548446655273438 5.000015258789062 7.2552490234375 5.483779907226562 6.303176879882812 6.3621826171875 C 5.462783813476562 7.13751220703125 4.999984741210938 8.136474609375 4.999984741210938 9.175048828125 L 4.999984741210938 162.0924377441406 C 4.999984741210938 163.1310119628906 5.462783813476562 164.1299743652344 6.303176879882812 164.9053039550781 C 7.2552490234375 165.7837066650391 8.548446655273438 166.2674713134766 9.944549560546875 166.2674713134766 L 226.5150451660156 166.2674713134766 C 227.9111480712891 166.2674713134766 229.204345703125 165.7837066650391 230.1564178466797 164.9053039550781 C 230.9968109130859 164.1299743652344 231.4596099853516 163.1310119628906 231.4596099853516 162.0924377441406 L 231.4596099853516 9.175048828125 C 231.4596099853516 8.136474609375 230.9968109130859 7.13751220703125 230.1564178466797 6.3621826171875 C 229.204345703125 5.483779907226562 227.9111480712891 5.000015258789062 226.5150451660156 5.000015258789062 L 9.944549560546875 5.000015258789062 M 9.944549560546875 1.52587890625e-05 L 226.5150451660156 1.52587890625e-05 C 232.0072784423828 1.52587890625e-05 236.4596099853516 4.107803344726562 236.4596099853516 9.175048828125 L 236.4596099853516 162.0924377441406 C 236.4596099853516 167.1596832275391 232.0072784423828 171.2674713134766 226.5150451660156 171.2674713134766 L 9.944549560546875 171.2674713134766 C 4.452316284179688 171.2674713134766 -1.52587890625e-05 167.1596832275391 -1.52587890625e-05 162.0924377441406 L -1.52587890625e-05 9.175048828125 C -1.52587890625e-05 4.107803344726562 4.452316284179688 1.52587890625e-05 9.944549560546875 1.52587890625e-05 Z" stroke="none" fill="#727997"/>
      </g>
      <g id="idea" transform="translate(54.68)">
        <path id="Trazado_105693" data-name="Trazado 105693" d="M220.3,426.033h0a16.125,16.125,0,0,1-12,0h0a4.325,4.325,0,0,1-2.716-4.015V410.126h17.428v11.893A4.325,4.325,0,0,1,220.3,426.033Z" transform="translate(-190.479 -353.507)" fill="#afafaf"/>
        <path id="Trazado_105694" data-name="Trazado 105694" d="M249.94,410.127V422.02a4.325,4.325,0,0,1-2.716,4.015h0a16.12,16.12,0,0,1-3.82,1.007,16.124,16.124,0,0,0,8.175-1.007h0a4.325,4.325,0,0,0,2.716-4.015V410.127Z" transform="translate(-221.753 -353.508)" fill="#8a8a8a"/>
        <path id="Trazado_105695" data-name="Trazado 105695" d="M137.939,144.616H158.3a.921.921,0,0,0,.934-.863,32.99,32.99,0,0,1,6.9-18.857,21.208,21.208,0,0,0,4.533-13.1c0-12.084-10.184-21.87-22.712-21.784-12.366.084-22.425,9.906-22.386,21.853A21.2,21.2,0,0,0,129.95,124.7,33.882,33.882,0,0,1,137,143.749.921.921,0,0,0,137.939,144.616Z" transform="translate(-124.288 -88.73)" fill="#ffe926"/>
        <path id="Trazado_105696" data-name="Trazado 105696" d="M245.486,90.011c-.675,0-1.342.04-2,.1,11.426,1.064,20.359,10.366,20.359,21.683a21.208,21.208,0,0,1-4.533,13.1,32.99,32.99,0,0,0-6.9,18.857.921.921,0,0,1-.934.863h4.355a.921.921,0,0,0,.934-.863,32.991,32.991,0,0,1,6.9-18.857,21.209,21.209,0,0,0,4.533-13.1C268.2,99.712,258.015,89.926,245.486,90.011Z" transform="translate(-221.819 -88.731)" fill="#e5d017"/>
        <path id="Trazado_105697" data-name="Trazado 105697" d="M231.779,379.806H220.288a.519.519,0,0,0-.519.519v4.331H232.3v-4.331A.519.519,0,0,0,231.779,379.806Z" transform="translate(-202.204 -328.428)" fill="#ea5c23"/>
        <path id="Trazado_105698" data-name="Trazado 105698" d="M270.889,379.806h-3.836v4.85h4.355v-4.331A.519.519,0,0,0,270.889,379.806Z" transform="translate(-241.314 -328.428)" fill="#cf460f"/>
        <g id="Grupo_54822" data-name="Grupo 54822" transform="translate(0 0)">
          <path id="Trazado_105699" data-name="Trazado 105699" d="M165.293,100.822a1.28,1.28,0,1,0-2.5.553A19.934,19.934,0,0,1,159,117.983a34.093,34.093,0,0,0-7.153,19.227h-2.31V134.5a1.8,1.8,0,0,0-1.136-1.671l2.394-17.808a1.537,1.537,0,0,0-2.139-1.613l-2.985,1.3-3.077-1.31a1.554,1.554,0,0,0-1.306.048l-2.551,1.314-3.453-1.374a1.537,1.537,0,0,0-2.1,1.632l.963,7.16a1.28,1.28,0,0,0,2.538-.341l-.73-5.426,2.372.944a1.281,1.281,0,0,0,1.06-.051l2.642-1.361,3.142,1.338a1.281,1.281,0,0,0,1.014,0l1.825-.8L145.833,132.7h-7.685l-.644-4.789a1.28,1.28,0,0,0-2.538.341l.615,4.576a1.8,1.8,0,0,0-1.136,1.671v2.709H132.14a35.1,35.1,0,0,0-7.3-19.412,19.859,19.859,0,0,1-4.119-12.064c-.036-11.262,9.436-20.489,21.115-20.569h.152a21.374,21.374,0,0,1,18.73,10.778,1.28,1.28,0,0,0,2.234-1.251A23.934,23.934,0,0,0,141.989,82.6h-.17c-13.086.089-23.7,10.469-23.658,23.138a22.4,22.4,0,0,0,4.644,13.608A32.515,32.515,0,0,1,129.6,137.68a2.2,2.2,0,0,0,2.214,2.091H132v10.612a5.579,5.579,0,0,0,3.52,5.2,17.4,17.4,0,0,0,12.948,0,5.579,5.579,0,0,0,3.52-5.2V139.771h.187a2.2,2.2,0,0,0,2.213-2.086,31.57,31.57,0,0,1,6.632-18.127,22.5,22.5,0,0,0,4.276-18.737Zm-30.736,44.15h14.867v1.735H134.557v-1.735Zm2.449-9.709h9.969v1.948h-9.969v-1.948Zm12.418,4.508v2.64H134.557v-2.64Zm-1.912,13.439a14.844,14.844,0,0,1-11.043,0,3.031,3.031,0,0,1-1.912-2.826v-1.116h14.867v1.116A3.031,3.031,0,0,1,147.512,153.21Z" transform="translate(-118.161 -82.605)" fill="#1a1a1a"/>
        </g>
      </g>
      <g id="idea-2" data-name="idea" transform="translate(150.397)">
        <path id="Trazado_105693-2" data-name="Trazado 105693" d="M220.3,426.033h0a16.125,16.125,0,0,1-12,0h0a4.325,4.325,0,0,1-2.716-4.015V410.126h17.428v11.893A4.325,4.325,0,0,1,220.3,426.033Z" transform="translate(-190.479 -353.507)" fill="#afafaf"/>
        <path id="Trazado_105694-2" data-name="Trazado 105694" d="M249.94,410.127V422.02a4.325,4.325,0,0,1-2.716,4.015h0a16.12,16.12,0,0,1-3.82,1.007,16.124,16.124,0,0,0,8.175-1.007h0a4.325,4.325,0,0,0,2.716-4.015V410.127Z" transform="translate(-221.753 -353.508)" fill="#8a8a8a"/>
        <path id="Trazado_105695-2" data-name="Trazado 105695" d="M137.939,144.616H158.3a.921.921,0,0,0,.934-.863,32.99,32.99,0,0,1,6.9-18.857,21.208,21.208,0,0,0,4.533-13.1c0-12.084-10.184-21.87-22.712-21.784-12.366.084-22.425,9.906-22.386,21.853A21.2,21.2,0,0,0,129.95,124.7,33.882,33.882,0,0,1,137,143.749.921.921,0,0,0,137.939,144.616Z" transform="translate(-124.288 -88.73)" fill="#ffe926"/>
        <path id="Trazado_105696-2" data-name="Trazado 105696" d="M245.486,90.011c-.675,0-1.342.04-2,.1,11.426,1.064,20.359,10.366,20.359,21.683a21.208,21.208,0,0,1-4.533,13.1,32.99,32.99,0,0,0-6.9,18.857.921.921,0,0,1-.934.863h4.355a.921.921,0,0,0,.934-.863,32.991,32.991,0,0,1,6.9-18.857,21.209,21.209,0,0,0,4.533-13.1C268.2,99.712,258.015,89.926,245.486,90.011Z" transform="translate(-221.819 -88.731)" fill="#e5d017"/>
        <path id="Trazado_105697-2" data-name="Trazado 105697" d="M231.779,379.806H220.288a.519.519,0,0,0-.519.519v4.331H232.3v-4.331A.519.519,0,0,0,231.779,379.806Z" transform="translate(-202.204 -328.428)" fill="#ea5c23"/>
        <path id="Trazado_105698-2" data-name="Trazado 105698" d="M270.889,379.806h-3.836v4.85h4.355v-4.331A.519.519,0,0,0,270.889,379.806Z" transform="translate(-241.314 -328.428)" fill="#cf460f"/>
        <g id="Grupo_54822-2" data-name="Grupo 54822" transform="translate(0 0)">
          <path id="Trazado_105699-2" data-name="Trazado 105699" d="M165.293,100.822a1.28,1.28,0,1,0-2.5.553A19.934,19.934,0,0,1,159,117.983a34.093,34.093,0,0,0-7.153,19.227h-2.31V134.5a1.8,1.8,0,0,0-1.136-1.671l2.394-17.808a1.537,1.537,0,0,0-2.139-1.613l-2.985,1.3-3.077-1.31a1.554,1.554,0,0,0-1.306.048l-2.551,1.314-3.453-1.374a1.537,1.537,0,0,0-2.1,1.632l.963,7.16a1.28,1.28,0,0,0,2.538-.341l-.73-5.426,2.372.944a1.281,1.281,0,0,0,1.06-.051l2.642-1.361,3.142,1.338a1.281,1.281,0,0,0,1.014,0l1.825-.8L145.833,132.7h-7.685l-.644-4.789a1.28,1.28,0,0,0-2.538.341l.615,4.576a1.8,1.8,0,0,0-1.136,1.671v2.709H132.14a35.1,35.1,0,0,0-7.3-19.412,19.859,19.859,0,0,1-4.119-12.064c-.036-11.262,9.436-20.489,21.115-20.569h.152a21.374,21.374,0,0,1,18.73,10.778,1.28,1.28,0,0,0,2.234-1.251A23.934,23.934,0,0,0,141.989,82.6h-.17c-13.086.089-23.7,10.469-23.658,23.138a22.4,22.4,0,0,0,4.644,13.608A32.515,32.515,0,0,1,129.6,137.68a2.2,2.2,0,0,0,2.214,2.091H132v10.612a5.579,5.579,0,0,0,3.52,5.2,17.4,17.4,0,0,0,12.948,0,5.579,5.579,0,0,0,3.52-5.2V139.771h.187a2.2,2.2,0,0,0,2.213-2.086,31.57,31.57,0,0,1,6.632-18.127,22.5,22.5,0,0,0,4.276-18.737Zm-30.736,44.15h14.867v1.735H134.557v-1.735Zm2.449-9.709h9.969v1.948h-9.969v-1.948Zm12.418,4.508v2.64H134.557v-2.64Zm-1.912,13.439a14.844,14.844,0,0,1-11.043,0,3.031,3.031,0,0,1-1.912-2.826v-1.116h14.867v1.116A3.031,3.031,0,0,1,147.512,153.21Z" transform="translate(-118.161 -82.605)" fill="#1a1a1a"/>
        </g>
      </g>
      <g id="Grupo_54825" data-name="Grupo 54825" transform="translate(163.431 196.362) rotate(90)">
        <g id="battery">
          <path id="Trazado_105683" data-name="Trazado 105683" d="M45.554,76.277H5.3A5.3,5.3,0,0,1,0,70.98V5.3A5.3,5.3,0,0,1,5.3,0H45.554a5.3,5.3,0,0,1,5.3,5.3V70.98A5.3,5.3,0,0,1,45.554,76.277Z" transform="translate(1.413 12.713)" fill="#afafaf"/>
          <path id="Trazado_105684" data-name="Trazado 105684" d="M12.36,5.3V70.98a5.3,5.3,0,0,1-5.3,5.3H0a5.3,5.3,0,0,0,5.3-5.3V5.3A5.3,5.3,0,0,0,0,0H7.063A5.3,5.3,0,0,1,12.36,5.3Z" transform="translate(39.904 12.713)" fill="#8a8a8a"/>
          <path id="Trazado_105685" data-name="Trazado 105685" d="M0,0H62.151V36.726H0Z" transform="translate(45.201 19.775) rotate(90)" fill="#f39e1d"/>
          <path id="Trazado_105686" data-name="Trazado 105686" d="M0,0H7.063V62.151H0Z" transform="translate(38.138 19.775)" fill="#ea5c23"/>
          <path id="Trazado_105687" data-name="Trazado 105687" d="M28.251,11.3H0V3.531A3.531,3.531,0,0,1,3.531,0H24.719a3.531,3.531,0,0,1,3.531,3.531Z" transform="translate(12.713 1.413)" fill="#afafaf"/>
          <path id="Trazado_105688" data-name="Trazado 105688" d="M10.594,3.531V11.3H3.531V3.531A3.53,3.53,0,0,0,0,0H7.063A3.53,3.53,0,0,1,10.594,3.531Z" transform="translate(30.369 1.413)" fill="#8a8a8a"/>
          <path id="Trazado_105689" data-name="Trazado 105689" d="M7.063,25.426,15.538,9.888H8.475V0L0,15.538H7.063Z" transform="translate(19.069 38.138)" fill="#ffe926"/>
          <path id="Trazado_105690" data-name="Trazado 105690" d="M46.967,11.3H42.376V4.944A4.95,4.95,0,0,0,37.432,0H16.244A4.95,4.95,0,0,0,11.3,4.944V11.3H6.71A6.717,6.717,0,0,0,0,18.01V83.693A6.717,6.717,0,0,0,6.71,90.4H46.967a6.717,6.717,0,0,0,6.71-6.71V18.01A6.717,6.717,0,0,0,46.967,11.3ZM14.125,4.944a2.121,2.121,0,0,1,2.119-2.119H37.432a2.121,2.121,0,0,1,2.119,2.119V11.3H14.125ZM50.851,83.693a3.889,3.889,0,0,1-3.884,3.884H6.71a3.889,3.889,0,0,1-3.884-3.884V18.01A3.889,3.889,0,0,1,6.71,14.125H46.967a3.889,3.889,0,0,1,3.884,3.884Z"/>
          <path id="Trazado_105691" data-name="Trazado 105691" d="M38.138,0H1.413A1.413,1.413,0,0,0,0,1.413V63.564a1.413,1.413,0,0,0,1.413,1.413H38.138a1.413,1.413,0,0,0,1.413-1.413V1.413A1.413,1.413,0,0,0,38.138,0ZM36.726,62.151H2.825V2.825h33.9Z" transform="translate(7.063 18.363)"/>
          <path id="Trazado_105692" data-name="Trazado 105692" d="M1.414,18.362h5.65v8.475a1.414,1.414,0,0,0,2.653.676l8.475-15.538a1.413,1.413,0,0,0-1.24-2.089H11.3V1.411A1.414,1.414,0,0,0,8.649.735L.174,16.273A1.413,1.413,0,0,0,1.414,18.362ZM8.477,6.951V11.3a1.413,1.413,0,0,0,1.413,1.413h4.683L9.889,21.3V16.949a1.413,1.413,0,0,0-1.413-1.413H3.794Z" transform="translate(17.655 36.727)"/>
        </g>
        <text id="_" data-name="+" transform="translate(21.727 19.776)" font-size="13" font-family="Roboto-Black, Roboto" font-weight="800"><tspan x="-3.472" y="14">+</tspan></text>
        <text id="_-" data-name="-" transform="translate(21.727 69.183)" font-size="13" font-family="Roboto-Black, Roboto" font-weight="800"><tspan x="-2.923" y="14">-</tspan></text>
      </g>
      <g id="switch" transform="translate(220.373 120.538)">
        <path id="Trazado_105746" data-name="Trazado 105746" d="M92.6,0H67.575A3.579,3.579,0,0,0,64,3.575V39.321A3.579,3.579,0,0,0,67.575,42.9H92.6a3.579,3.579,0,0,0,3.575-3.575V3.575A3.579,3.579,0,0,0,92.6,0Z" transform="translate(-64)" fill="#303c42"/>
        <path id="Trazado_105747" data-name="Trazado 105747" d="M113.931,58.868a1.789,1.789,0,0,1-1.787,1.787H87.121a1.789,1.789,0,0,1-1.787-1.787V23.121a1.789,1.789,0,0,1,1.787-1.787h25.023a1.789,1.789,0,0,1,1.787,1.787Z" transform="translate(-83.547 -19.547)" fill="#f2f2f2"/>
        <path id="Trazado_105748" data-name="Trazado 105748" d="M202.724,137.685v-8.792a.893.893,0,0,0-.894-.894h-8.937a.893.893,0,0,0-.894.894v17.873a.893.893,0,0,0,.894.894h8.043a.9.9,0,0,0,.716-.358l2.681-3.575a.9.9,0,0,0,.133-.819Z" transform="translate(-181.276 -117.276)" fill="#303c42"/>
        <path id="Trazado_105749" data-name="Trazado 105749" d="M227.955,259.575h-6.25L219.917,256h6.847Z" transform="translate(-206.854 -234.552)" fill="#e6e6e6"/>
        <path id="Trazado_105750" data-name="Trazado 105750" d="M213.333,292.979v-2.472l.742,1.483Z" transform="translate(-200.822 -266.168)" fill="#f2f2f2"/>
        <path id="Trazado_105751" data-name="Trazado 105751" d="M213.333,292.979v-2.472l.742,1.483Z" transform="translate(-200.822 -266.168)" fill="#fff" opacity="0.7"/>
        <g id="Grupo_54887" data-name="Grupo 54887" transform="translate(12.511 12.511)">
          <rect id="Rect치ngulo_5233" data-name="Rect치ngulo 5233" width="7.149" height="7.149" fill="#e6e6e6"/>
          <path id="Trazado_105752" data-name="Trazado 105752" d="M229.813,321.787h-5.808l1.34-1.787h5.808Z" transform="translate(-223.111 -305.701)" fill="#e6e6e6"/>
        </g>
        <path id="Trazado_105753" data-name="Trazado 105753" d="M229.813,321.787h-5.808l1.34-1.787h5.808Z" transform="translate(-210.6 -293.19)" opacity="0.2"/>
        <circle id="Elipse_4071" data-name="Elipse 4071" cx="1.787" cy="1.787" r="1.787" transform="translate(14.299 3.575)" fill="#303c42"/>
        <path id="Trazado_105754" data-name="Trazado 105754" d="M206.613,243.6l1.742,5.224a.9.9,0,0,1-.133.819l-2.681,3.575a.9.9,0,0,1-.716.358h-8.043a.875.875,0,0,1-.538-.2L207.167,264.3h6.6a1.789,1.789,0,0,0,1.787-1.787v-9.975Z" transform="translate(-185.165 -223.195)" fill="url(#linear-gradient)"/>
        <circle id="Elipse_4072" data-name="Elipse 4072" cx="1.787" cy="1.787" r="1.787" transform="translate(14.299 35.747)" fill="#303c42"/>
        <path id="Trazado_105755" data-name="Trazado 105755" d="M92.6,0H67.575A3.579,3.579,0,0,0,64,3.575V39.321A3.579,3.579,0,0,0,67.575,42.9H92.6a3.579,3.579,0,0,0,3.575-3.575V3.575A3.579,3.579,0,0,0,92.6,0Z" transform="translate(-64)" stroke="#000" stroke-width="1" fill="url(#linear-gradient-2)"/>
      </g>
      <path id="Trazado_107290" data-name="Trazado 107290" d="M38.106,2.967H8.817L10.139.091,10.037,0,5.129,2.579,0,4.072,5.129,5.565l4.908,2.579.1-.069-1.325-2.9H38.106Z" transform="translate(220.513 167.988) rotate(90)" fill="#0f58b9"/>
      <path id="Trazado_107291" data-name="Trazado 107291" d="M38.106,2.967H8.817L10.139.091,10.037,0,5.129,2.579,0,4.072,5.129,5.565l4.908,2.579.1-.069-1.325-2.9H38.106Z" transform="translate(220.513 72.629) rotate(90)" fill="#0f58b9"/>
      <path id="Trazado_107292" data-name="Trazado 107292" d="M265.192,845.722H235.9l1.322-2.876-.1-.091-4.908,2.579-5.129,1.493,5.129,1.493,4.908,2.579.1-.069-1.325-2.9h29.292Z" transform="translate(-117.848 -774.197)" fill="#0f58b9"/>
      <path id="Trazado_107293" data-name="Trazado 107293" d="M265.192,845.722H235.9l1.322-2.876-.1-.091-4.908,2.579-5.129,1.493,5.129,1.493,4.908,2.579.1-.069-1.325-2.9h29.292Z" transform="translate(-210.512 -774.197)" fill="#0f58b9"/>
      <path id="Trazado_107294" data-name="Trazado 107294" d="M38.106,2.967H8.817L10.139.091,10.037,0,5.129,2.579,0,4.072,5.129,5.565l4.908,2.579.1-.069-1.325-2.9H38.106Z" transform="translate(12.502 134.351) rotate(-90)" fill="#0f58b9"/>
      <path id="Trazado_107295" data-name="Trazado 107295" d="M38.106,2.967H8.817L10.139.091,10.037,0,5.129,2.579,0,4.072,5.129,5.565l4.908,2.579.1-.069-1.325-2.9H38.106Z" transform="translate(12.502 192) rotate(-90)" fill="#0f58b9"/>
      <path id="Trazado_107296" data-name="Trazado 107296" d="M38.106,2.967H8.817L10.139.091,10.037,0,5.129,2.579,0,4.072,5.129,5.565l4.908,2.579.1-.069-1.325-2.9H38.106Z" transform="translate(61.578 210.167) rotate(180)" fill="#0f58b9"/>
      <path id="Trazado_107297" data-name="Trazado 107297" d="M38.106,2.967H8.817L10.139.091,10.037,0,5.129,2.579,0,4.072,5.129,5.565l4.908,2.579.1-.069-1.325-2.9H38.106Z" transform="translate(204.953 210.167) rotate(180)" fill="#0f58b9"/>
    </g>
    <g id="Grupo_55653" data-name="Grupo 55653" transform="translate(831.786 2978.5)">
      <path id="Trazado_107280" data-name="Trazado 107280" d="M-8180-8605.46v137.729h339.68V-8639H-7954.5v33.539h-94.2V-8639h-47.1v33.539Z" transform="translate(8180 8695.353)" fill="none" stroke="#727997" stroke-linecap="round" stroke-linejoin="round" stroke-width="5"/>
      <g id="idea-3" data-name="idea" transform="translate(57.036)">
        <path id="Trazado_105693-3" data-name="Trazado 105693" d="M220.3,426.033h0a16.125,16.125,0,0,1-12,0h0a4.325,4.325,0,0,1-2.716-4.015V410.126h17.428v11.893A4.325,4.325,0,0,1,220.3,426.033Z" transform="translate(-190.479 -353.507)" fill="#afafaf"/>
        <path id="Trazado_105694-3" data-name="Trazado 105694" d="M249.94,410.127V422.02a4.325,4.325,0,0,1-2.716,4.015h0a16.12,16.12,0,0,1-3.82,1.007,16.124,16.124,0,0,0,8.175-1.007h0a4.325,4.325,0,0,0,2.716-4.015V410.127Z" transform="translate(-221.753 -353.508)" fill="#8a8a8a"/>
        <path id="Trazado_105695-3" data-name="Trazado 105695" d="M137.939,144.616H158.3a.921.921,0,0,0,.934-.863,32.99,32.99,0,0,1,6.9-18.857,21.208,21.208,0,0,0,4.533-13.1c0-12.084-10.184-21.87-22.712-21.784-12.366.084-22.425,9.906-22.386,21.853A21.2,21.2,0,0,0,129.95,124.7,33.882,33.882,0,0,1,137,143.749.921.921,0,0,0,137.939,144.616Z" transform="translate(-124.288 -88.73)" fill="#ffe926"/>
        <path id="Trazado_105696-3" data-name="Trazado 105696" d="M245.486,90.011c-.675,0-1.342.04-2,.1,11.426,1.064,20.359,10.366,20.359,21.683a21.208,21.208,0,0,1-4.533,13.1,32.99,32.99,0,0,0-6.9,18.857.921.921,0,0,1-.934.863h4.355a.921.921,0,0,0,.934-.863,32.991,32.991,0,0,1,6.9-18.857,21.209,21.209,0,0,0,4.533-13.1C268.2,99.712,258.015,89.926,245.486,90.011Z" transform="translate(-221.819 -88.731)" fill="#e5d017"/>
        <path id="Trazado_105697-3" data-name="Trazado 105697" d="M231.779,379.806H220.288a.519.519,0,0,0-.519.519v4.331H232.3v-4.331A.519.519,0,0,0,231.779,379.806Z" transform="translate(-202.204 -328.428)" fill="#ea5c23"/>
        <path id="Trazado_105698-3" data-name="Trazado 105698" d="M270.889,379.806h-3.836v4.85h4.355v-4.331A.519.519,0,0,0,270.889,379.806Z" transform="translate(-241.314 -328.428)" fill="#cf460f"/>
        <g id="Grupo_54822-3" data-name="Grupo 54822" transform="translate(0 0)">
          <path id="Trazado_105699-3" data-name="Trazado 105699" d="M165.293,100.822a1.28,1.28,0,1,0-2.5.553A19.934,19.934,0,0,1,159,117.983a34.093,34.093,0,0,0-7.153,19.227h-2.31V134.5a1.8,1.8,0,0,0-1.136-1.671l2.394-17.808a1.537,1.537,0,0,0-2.139-1.613l-2.985,1.3-3.077-1.31a1.554,1.554,0,0,0-1.306.048l-2.551,1.314-3.453-1.374a1.537,1.537,0,0,0-2.1,1.632l.963,7.16a1.28,1.28,0,0,0,2.538-.341l-.73-5.426,2.372.944a1.281,1.281,0,0,0,1.06-.051l2.642-1.361,3.142,1.338a1.281,1.281,0,0,0,1.014,0l1.825-.8L145.833,132.7h-7.685l-.644-4.789a1.28,1.28,0,0,0-2.538.341l.615,4.576a1.8,1.8,0,0,0-1.136,1.671v2.709H132.14a35.1,35.1,0,0,0-7.3-19.412,19.859,19.859,0,0,1-4.119-12.064c-.036-11.262,9.436-20.489,21.115-20.569h.152a21.374,21.374,0,0,1,18.73,10.778,1.28,1.28,0,0,0,2.234-1.251A23.934,23.934,0,0,0,141.989,82.6h-.17c-13.086.089-23.7,10.469-23.658,23.138a22.4,22.4,0,0,0,4.644,13.608A32.515,32.515,0,0,1,129.6,137.68a2.2,2.2,0,0,0,2.214,2.091H132v10.612a5.579,5.579,0,0,0,3.52,5.2,17.4,17.4,0,0,0,12.948,0,5.579,5.579,0,0,0,3.52-5.2V139.771h.187a2.2,2.2,0,0,0,2.213-2.086,31.57,31.57,0,0,1,6.632-18.127,22.5,22.5,0,0,0,4.276-18.737Zm-30.736,44.15h14.867v1.735H134.557v-1.735Zm2.449-9.709h9.969v1.948h-9.969v-1.948Zm12.418,4.508v2.64H134.557v-2.64Zm-1.912,13.439a14.844,14.844,0,0,1-11.043,0,3.031,3.031,0,0,1-1.912-2.826v-1.116h14.867v1.116A3.031,3.031,0,0,1,147.512,153.21Z" transform="translate(-118.161 -82.605)" fill="#1a1a1a"/>
        </g>
      </g>
      <g id="idea-4" data-name="idea" transform="translate(198.265)">
        <path id="Trazado_105693-4" data-name="Trazado 105693" d="M220.3,426.033h0a16.125,16.125,0,0,1-12,0h0a4.325,4.325,0,0,1-2.716-4.015V410.126h17.428v11.893A4.325,4.325,0,0,1,220.3,426.033Z" transform="translate(-190.479 -353.507)" fill="#afafaf"/>
        <path id="Trazado_105694-4" data-name="Trazado 105694" d="M249.94,410.127V422.02a4.325,4.325,0,0,1-2.716,4.015h0a16.12,16.12,0,0,1-3.82,1.007,16.124,16.124,0,0,0,8.175-1.007h0a4.325,4.325,0,0,0,2.716-4.015V410.127Z" transform="translate(-221.753 -353.508)" fill="#8a8a8a"/>
        <path id="Trazado_105695-4" data-name="Trazado 105695" d="M137.939,144.616H158.3a.921.921,0,0,0,.934-.863,32.99,32.99,0,0,1,6.9-18.857,21.208,21.208,0,0,0,4.533-13.1c0-12.084-10.184-21.87-22.712-21.784-12.366.084-22.425,9.906-22.386,21.853A21.2,21.2,0,0,0,129.95,124.7,33.882,33.882,0,0,1,137,143.749.921.921,0,0,0,137.939,144.616Z" transform="translate(-124.288 -88.73)" fill="#ffe926"/>
        <path id="Trazado_105696-4" data-name="Trazado 105696" d="M245.486,90.011c-.675,0-1.342.04-2,.1,11.426,1.064,20.359,10.366,20.359,21.683a21.208,21.208,0,0,1-4.533,13.1,32.99,32.99,0,0,0-6.9,18.857.921.921,0,0,1-.934.863h4.355a.921.921,0,0,0,.934-.863,32.991,32.991,0,0,1,6.9-18.857,21.209,21.209,0,0,0,4.533-13.1C268.2,99.712,258.015,89.926,245.486,90.011Z" transform="translate(-221.819 -88.731)" fill="#e5d017"/>
        <path id="Trazado_105697-4" data-name="Trazado 105697" d="M231.779,379.806H220.288a.519.519,0,0,0-.519.519v4.331H232.3v-4.331A.519.519,0,0,0,231.779,379.806Z" transform="translate(-202.204 -328.428)" fill="#ea5c23"/>
        <path id="Trazado_105698-4" data-name="Trazado 105698" d="M270.889,379.806h-3.836v4.85h4.355v-4.331A.519.519,0,0,0,270.889,379.806Z" transform="translate(-241.314 -328.428)" fill="#cf460f"/>
        <g id="Grupo_54822-4" data-name="Grupo 54822" transform="translate(0 0)">
          <path id="Trazado_105699-4" data-name="Trazado 105699" d="M165.293,100.822a1.28,1.28,0,1,0-2.5.553A19.934,19.934,0,0,1,159,117.983a34.093,34.093,0,0,0-7.153,19.227h-2.31V134.5a1.8,1.8,0,0,0-1.136-1.671l2.394-17.808a1.537,1.537,0,0,0-2.139-1.613l-2.985,1.3-3.077-1.31a1.554,1.554,0,0,0-1.306.048l-2.551,1.314-3.453-1.374a1.537,1.537,0,0,0-2.1,1.632l.963,7.16a1.28,1.28,0,0,0,2.538-.341l-.73-5.426,2.372.944a1.281,1.281,0,0,0,1.06-.051l2.642-1.361,3.142,1.338a1.281,1.281,0,0,0,1.014,0l1.825-.8L145.833,132.7h-7.685l-.644-4.789a1.28,1.28,0,0,0-2.538.341l.615,4.576a1.8,1.8,0,0,0-1.136,1.671v2.709H132.14a35.1,35.1,0,0,0-7.3-19.412,19.859,19.859,0,0,1-4.119-12.064c-.036-11.262,9.436-20.489,21.115-20.569h.152a21.374,21.374,0,0,1,18.73,10.778,1.28,1.28,0,0,0,2.234-1.251A23.934,23.934,0,0,0,141.989,82.6h-.17c-13.086.089-23.7,10.469-23.658,23.138a22.4,22.4,0,0,0,4.644,13.608A32.515,32.515,0,0,1,129.6,137.68a2.2,2.2,0,0,0,2.214,2.091H132v10.612a5.579,5.579,0,0,0,3.52,5.2,17.4,17.4,0,0,0,12.948,0,5.579,5.579,0,0,0,3.52-5.2V139.771h.187a2.2,2.2,0,0,0,2.213-2.086,31.57,31.57,0,0,1,6.632-18.127,22.5,22.5,0,0,0,4.276-18.737Zm-30.736,44.15h14.867v1.735H134.557v-1.735Zm2.449-9.709h9.969v1.948h-9.969v-1.948Zm12.418,4.508v2.64H134.557v-2.64Zm-1.912,13.439a14.844,14.844,0,0,1-11.043,0,3.031,3.031,0,0,1-1.912-2.826v-1.116h14.867v1.116A3.031,3.031,0,0,1,147.512,153.21Z" transform="translate(-118.161 -82.605)" fill="#1a1a1a"/>
        </g>
      </g>
      <g id="Grupo_55651" data-name="Grupo 55651" transform="translate(169.84 196.363) rotate(90)">
        <g id="battery-2" data-name="battery" transform="translate(0 0)">
          <path id="Trazado_105683-2" data-name="Trazado 105683" d="M45.553,0H5.3A5.3,5.3,0,0,0,0,5.3V70.98a5.3,5.3,0,0,0,5.3,5.3H45.553a5.3,5.3,0,0,0,5.3-5.3V5.3A5.3,5.3,0,0,0,45.553,0Z" transform="translate(1.413 1.413)" fill="#afafaf"/>
          <path id="Trazado_105684-2" data-name="Trazado 105684" d="M12.359,70.98V5.3A5.3,5.3,0,0,0,7.063,0H0A5.3,5.3,0,0,1,5.3,5.3V70.98a5.3,5.3,0,0,1-5.3,5.3H7.063A5.3,5.3,0,0,0,12.359,70.98Z" transform="translate(39.903 1.413)" fill="#8a8a8a"/>
          <path id="Trazado_105685-2" data-name="Trazado 105685" d="M0,36.725H62.151V0H0Z" transform="translate(8.475 70.627) rotate(-90)" fill="#f39e1d"/>
          <path id="Trazado_105686-2" data-name="Trazado 105686" d="M0,62.151H7.062V0H0Z" transform="translate(38.138 8.475)" fill="#ea5c23"/>
          <path id="Trazado_105687-2" data-name="Trazado 105687" d="M28.25,0H0V7.769A3.531,3.531,0,0,0,3.531,11.3H24.719A3.531,3.531,0,0,0,28.25,7.769Z" transform="translate(12.713 77.689)" fill="#afafaf"/>
          <path id="Trazado_105688-2" data-name="Trazado 105688" d="M10.594,7.769V0H3.531V7.769A3.53,3.53,0,0,1,0,11.3H7.063A3.53,3.53,0,0,0,10.594,7.769Z" transform="translate(30.369 77.689)" fill="#8a8a8a"/>
          <path id="Trazado_105689-2" data-name="Trazado 105689" d="M7.063,0l8.475,15.538H8.475v9.888L0,9.888H7.063Z" transform="translate(19.069 26.838)" fill="#ffe926"/>
          <path id="Trazado_105690-2" data-name="Trazado 105690" d="M46.966,79.1H42.375v6.356A4.949,4.949,0,0,1,37.431,90.4H16.244A4.949,4.949,0,0,1,11.3,85.458V79.1H6.709A6.717,6.717,0,0,1,0,72.392V6.71A6.717,6.717,0,0,1,6.709,0H46.966a6.717,6.717,0,0,1,6.709,6.71V72.392A6.717,6.717,0,0,1,46.966,79.1ZM14.125,85.458a2.121,2.121,0,0,0,2.119,2.119H37.431a2.121,2.121,0,0,0,2.119-2.119V79.1H14.125ZM50.85,6.71a3.889,3.889,0,0,0-3.884-3.884H6.709A3.889,3.889,0,0,0,2.825,6.71V72.392a3.889,3.889,0,0,0,3.884,3.884H46.966a3.889,3.889,0,0,0,3.884-3.884Z"/>
          <path id="Trazado_105691-2" data-name="Trazado 105691" d="M38.138,64.977H1.413A1.413,1.413,0,0,1,0,63.564V1.413A1.413,1.413,0,0,1,1.413,0H38.138A1.413,1.413,0,0,1,39.55,1.413V63.564A1.413,1.413,0,0,1,38.138,64.977ZM36.725,2.825H2.825V62.151h33.9Z" transform="translate(7.063 7.063)"/>
          <path id="Trazado_105692-2" data-name="Trazado 105692" d="M1.414,9.887h5.65V1.412A1.414,1.414,0,0,1,9.717.736l8.475,15.538a1.413,1.413,0,0,1-1.24,2.089H11.3v8.475a1.414,1.414,0,0,1-2.652.676L.174,11.976A1.413,1.413,0,0,1,1.414,9.887ZM8.477,21.3V16.95a1.413,1.413,0,0,1,1.413-1.413h4.683L9.889,6.952V11.3a1.413,1.413,0,0,1-1.413,1.413H3.794Z" transform="translate(17.655 25.426)"/>
        </g>
        <text id="_2" data-name="+" transform="matrix(1, 0, 0, -1, 21.726, 72.051)" font-size="13" font-family="Roboto-Black, Roboto" font-weight="800"><tspan x="-3.472" y="14">+</tspan></text>
        <text id="_--2" data-name="-" transform="matrix(1, 0, 0, -1, 21.726, 22.645)" font-size="13" font-family="Roboto-Black, Roboto" font-weight="800"><tspan x="-2.923" y="14">-</tspan></text>
      </g>
      <g id="switch-2" data-name="switch" transform="translate(321.376 120.538)">
        <path id="Trazado_105746-2" data-name="Trazado 105746" d="M92.6,0H67.575A3.579,3.579,0,0,0,64,3.575V39.321A3.579,3.579,0,0,0,67.575,42.9H92.6a3.579,3.579,0,0,0,3.575-3.575V3.575A3.579,3.579,0,0,0,92.6,0Z" transform="translate(-64)" fill="#303c42"/>
        <path id="Trazado_105747-2" data-name="Trazado 105747" d="M113.931,58.868a1.789,1.789,0,0,1-1.787,1.787H87.121a1.789,1.789,0,0,1-1.787-1.787V23.121a1.789,1.789,0,0,1,1.787-1.787h25.023a1.789,1.789,0,0,1,1.787,1.787Z" transform="translate(-83.547 -19.547)" fill="#f2f2f2"/>
        <path id="Trazado_105748-2" data-name="Trazado 105748" d="M202.724,137.685v-8.792a.893.893,0,0,0-.894-.894h-8.937a.893.893,0,0,0-.894.894v17.873a.893.893,0,0,0,.894.894h8.043a.9.9,0,0,0,.716-.358l2.681-3.575a.9.9,0,0,0,.133-.819Z" transform="translate(-181.276 -117.276)" fill="#303c42"/>
        <path id="Trazado_105749-2" data-name="Trazado 105749" d="M227.955,259.575h-6.25L219.917,256h6.847Z" transform="translate(-206.854 -234.552)" fill="#e6e6e6"/>
        <path id="Trazado_105750-2" data-name="Trazado 105750" d="M213.333,292.979v-2.472l.742,1.483Z" transform="translate(-200.822 -266.168)" fill="#f2f2f2"/>
        <path id="Trazado_105751-2" data-name="Trazado 105751" d="M213.333,292.979v-2.472l.742,1.483Z" transform="translate(-200.822 -266.168)" fill="#fff" opacity="0.7"/>
        <g id="Grupo_54887-2" data-name="Grupo 54887" transform="translate(12.511 12.511)">
          <rect id="Rect치ngulo_5233-2" data-name="Rect치ngulo 5233" width="7.149" height="7.149" fill="#e6e6e6"/>
          <path id="Trazado_105752-2" data-name="Trazado 105752" d="M229.813,321.787h-5.808l1.34-1.787h5.808Z" transform="translate(-223.111 -305.701)" fill="#e6e6e6"/>
        </g>
        <path id="Trazado_105753-2" data-name="Trazado 105753" d="M229.813,321.787h-5.808l1.34-1.787h5.808Z" transform="translate(-210.6 -293.19)" opacity="0.2"/>
        <circle id="Elipse_4071-2" data-name="Elipse 4071" cx="1.787" cy="1.787" r="1.787" transform="translate(14.299 3.575)" fill="#303c42"/>
        <path id="Trazado_105754-2" data-name="Trazado 105754" d="M206.613,243.6l1.742,5.224a.9.9,0,0,1-.133.819l-2.681,3.575a.9.9,0,0,1-.716.358h-8.043a.875.875,0,0,1-.538-.2L207.167,264.3h6.6a1.789,1.789,0,0,0,1.787-1.787v-9.975Z" transform="translate(-185.165 -223.195)" fill="url(#linear-gradient)"/>
        <circle id="Elipse_4072-2" data-name="Elipse 4072" cx="1.787" cy="1.787" r="1.787" transform="translate(14.299 35.747)" fill="#303c42"/>
        <path id="Trazado_105755-2" data-name="Trazado 105755" d="M92.6,0H67.575A3.579,3.579,0,0,0,64,3.575V39.321A3.579,3.579,0,0,0,67.575,42.9H92.6a3.579,3.579,0,0,0,3.575-3.575V3.575A3.579,3.579,0,0,0,92.6,0Z" transform="translate(-64)" stroke="#000" stroke-width="1" fill="url(#linear-gradient-2)"/>
      </g>
      <path id="Trazado_107282" data-name="Trazado 107282" d="M38.106,2.967H8.817L10.139.091,10.037,0,5.129,2.579,0,4.072,5.129,5.565l4.908,2.579.1-.069-1.325-2.9H38.106Z" transform="translate(319.662 215.416) rotate(-90)" fill="#0f58b9"/>
      <path id="Trazado_107298" data-name="Trazado 107298" d="M38.106,2.967H8.817L10.139.091,10.037,0,5.129,2.579,0,4.072,5.129,5.565l4.908,2.579.1-.069-1.325-2.9H38.106Z" transform="translate(319.662 110.127) rotate(-90)" fill="#0f58b9"/>
      <path id="Trazado_107288" data-name="Trazado 107288" d="M265.192,845.722H235.9l1.322-2.876-.1-.091-4.908,2.579-5.129,1.493,5.129,1.493,4.908,2.579.1-.069-1.325-2.9h29.292Z" transform="translate(36.713 -635.483)" fill="#0f58b9"/>
      <path id="Trazado_107289" data-name="Trazado 107289" d="M265.192,845.722H235.9l1.322-2.876-.1-.091-4.908,2.579-5.129,1.493,5.129,1.493,4.908,2.579.1-.069-1.325-2.9h29.292Z" transform="translate(-33.467 -635.483)" fill="#0f58b9"/>
      <path id="Trazado_107283" data-name="Trazado 107283" d="M38.106,2.967H8.817L10.139.091,10.037,0,5.129,2.579,0,4.072,5.129,5.565l4.908,2.579.1-.069-1.325-2.9H38.106Z" transform="translate(301.905 74.139) rotate(180)" fill="#0f58b9"/>
      <path id="Trazado_107284" data-name="Trazado 107284" d="M38.106,2.967H8.817L10.139.091,10.037,0,5.129,2.579,0,4.072,5.129,5.565l4.908,2.579.1-.069-1.325-2.9H38.106Z" transform="translate(193.619 107.288) rotate(180)" fill="#0f58b9"/>
      <path id="Trazado_107285" data-name="Trazado 107285" d="M38.106,2.967H8.817L10.139.091,10.037,0,5.129,2.579,0,4.072,5.129,5.565l4.908,2.579.1-.069-1.325-2.9H38.106Z" transform="translate(54.484 107.288) rotate(180)" fill="#0f58b9"/>
      <path id="Trazado_107286" data-name="Trazado 107286" d="M38.106,2.967H8.817L10.139.091,10.037,0,5.129,2.579,0,4.072,5.129,5.565l4.908,2.579.1-.069-1.325-2.9H38.106Z" transform="translate(20.449 128.36) rotate(90)" fill="#0f58b9"/>
      <path id="Trazado_107287" data-name="Trazado 107287" d="M265.192,845.722H235.9l1.322-2.876-.1-.091-4.908,2.579-5.129,1.493,5.129,1.493,4.908,2.579.1-.069-1.325-2.9h29.292Z" transform="translate(-210.708 -636.431)" fill="#0f58b9"/>
    </g>
  </g>
</svg>
