<svg xmlns="http://www.w3.org/2000/svg" width="545" height="340" viewBox="0 0 545 340"><g transform="translate(5161 2900)"><rect width="545" height="340" transform="translate(-5161 -2900)" fill="#fff"/><g transform="translate(-5406 -6261.5)"><circle cx="14.5" cy="14.5" r="14.5" transform="translate(464 3637)" fill="#ad84ff"/><text transform="translate(471 3638)" fill="#12263f" font-size="20" font-family="Roboto-Black, Roboto" font-weight="800"><tspan x="-8.33" y="21">a.</tspan></text></g><g transform="translate(-5155 -6261.5)"><circle cx="14.5" cy="14.5" r="14.5" transform="translate(464 3637)" fill="#ad84ff"/><text transform="translate(469 3638)" fill="#12263f" font-size="20" font-family="Roboto-Black, Roboto" font-weight="800"><tspan x="-8.652" y="21">b.</tspan></text></g><g transform="translate(-5116.755 -2859.699)"><text transform="translate(87.374 81.585)" fill="#afafaf" font-size="9" font-family="Roboto-Regular, Roboto"><tspan x="0" y="0">φ</tspan></text><text transform="translate(129.707 128.006)" fill="#afafaf" font-size="9" font-family="Roboto-Regular, Roboto"><tspan x="0" y="0">φ</tspan></text><text transform="translate(113.114 81.684)" fill="#afafaf" font-size="9" font-family="Roboto-Regular, Roboto"><tspan x="0" y="0">30°</tspan></text><text transform="translate(110.338 154.802)" fill="#afafaf" font-size="9" font-family="Roboto-Regular, Roboto"><tspan x="0" y="0">30°</tspan></text><text transform="translate(50.215 115.145)" fill="#afafaf" font-size="9" font-family="Roboto-Regular, Roboto"><tspan x="0" y="0">30°</tspan></text><text transform="translate(60.092 144.939)" fill="#afafaf" font-size="9" font-family="Roboto-Regular, Roboto"><tspan x="0" y="0">φ</tspan></text><path d="M0,0A16.946,16.946,0,0,1,12.115,13.827" transform="matrix(0.588, -0.809, 0.809, 0.588, 84.217, 92.621)" fill="none" stroke="#afafaf" stroke-width="1"/><path d="M0,0A22.5,22.5,0,0,1,16.083,18.356" transform="matrix(0.946, -0.326, 0.326, 0.946, 102.523, 82.995)" fill="none" stroke="#afafaf" stroke-width="1"/><path d="M0,0A18.293,18.293,0,0,1,13.076,14.925" transform="matrix(-0.259, 0.966, -0.966, -0.259, 120.324, 134.926)" fill="none" stroke="#afafaf" stroke-width="1"/><path d="M0,0A18.293,18.293,0,0,1,13.076,14.925" transform="translate(68.846 124.179) rotate(-135)" fill="none" stroke="#afafaf" stroke-width="1"/><path d="M0,0S10.933,2.247,12.992,13.282" transform="translate(123.51 114.174) rotate(69)" fill="none" stroke="#afafaf" stroke-width="1"/><path d="M0,0S8.311,2.132,9.876,12.6" transform="translate(85.119 135.221) rotate(-180)" fill="none" stroke="#afafaf" stroke-width="1"/><g transform="translate(25.4 0)"><path d="M-4829-4382l61.619,105.363h119.475" transform="translate(4839.143 4391.733)" fill="none" stroke="#36653e" stroke-width="2"/><path d="M-4829-4166.988-4766.911-4270" transform="translate(4839.143 4385.097)" fill="none" stroke="#36653e" stroke-width="2"/><path d="M14.481,6.428,16.653,10l-.169.112-8.06-3.2L0,5.056,8.424,3.2,16.484,0l.169.085-2.176,3.6Z" transform="translate(10.527 0) rotate(61)" fill="#36653e"/><path d="M14.481,6.428,16.653,10l-.169.112-8.06-3.2L0,5.056,8.424,3.2,16.484,0l.169.085-2.176,3.6Z" transform="translate(202.855 120.153) rotate(-180)" fill="#36653e"/><path d="M14.481,6.428,16.653,10l-.169.112-8.06-3.2L0,5.056,8.424,3.2,16.484,0l.169.085-2.176,3.6Z" transform="matrix(0.5, -0.866, 0.866, 0.5, 0, 225.143)" fill="#36653e"/></g><text transform="translate(2.146 5.03)" fill="#36653e" font-size="16" font-family="Roboto-Black, Roboto" font-weight="800"><tspan x="-11.25" y="17">V</tspan><tspan y="17" font-size="9.333" baseline-shift="-5.33279994943018">RS</tspan></text><text transform="translate(0 59.885)" fill="#fb0000" font-size="16" font-family="Roboto-Black, Roboto" font-weight="800"><tspan x="-5.356" y="17">I</tspan><tspan y="17" font-size="9.333" baseline-shift="-5.33279994943018">T</tspan></text><text transform="translate(167.453 51.927)" fill="#fb0000" font-size="16" font-family="Roboto-Black, Roboto" font-weight="800"><tspan x="-5.458" y="17">I</tspan><tspan y="17" font-size="9.333" baseline-shift="-5.33279994943018">R</tspan></text><text transform="translate(89.823 185.094)" fill="#fb0000" font-size="16" font-family="Roboto-Black, Roboto" font-weight="800"><tspan x="-5.335" y="17">I</tspan><tspan y="17" font-size="9.333" baseline-shift="-5.33279994943018">S</tspan></text><text transform="translate(47.302 212.325)" fill="#36653e" font-size="16" font-family="Roboto-Black, Roboto" font-weight="800"><tspan x="-11.271" y="17">V</tspan><tspan y="17" font-size="9.333" baseline-shift="-5.33279994943018">TR</tspan></text><text transform="translate(196.88 84.384)" fill="#36653e" font-size="16" font-family="Roboto-Black, Roboto" font-weight="800"><tspan x="-11.148" y="17">V</tspan><tspan y="17" font-size="9.333" baseline-shift="-5.33279994943018">ST</tspan></text><text transform="translate(91.994 37.346)" fill="#c92296" font-size="16" font-family="Roboto-Black, Roboto" font-weight="800"><tspan x="-8.379" y="17">I</tspan><tspan y="17" font-size="9.333" baseline-shift="-5.33279994943018">RS</tspan></text><text transform="translate(21.902 128.599)" fill="#c92296" font-size="16" font-family="Roboto-Black, Roboto" font-weight="800"><tspan x="-8.4" y="17">I</tspan><tspan y="17" font-size="9.333" baseline-shift="-5.33279994943018">TR</tspan></text><text transform="translate(136.673 151.427)" fill="#c92296" font-size="16" font-family="Roboto-Black, Roboto" font-weight="800"><tspan x="-8.277" y="17">I</tspan><tspan y="17" font-size="9.333" baseline-shift="-5.33279994943018">ST</tspan></text><text transform="translate(117.394 188.336)" fill="#c92296" font-size="16" font-family="Roboto-Black, Roboto" font-weight="800"><tspan x="-11.977" y="17">-I</tspan><tspan y="17" font-size="9.333" baseline-shift="-5.33279994943018">RS</tspan></text><text transform="translate(135.241 33.051)" fill="#c92296" font-size="16" font-family="Roboto-Black, Roboto" font-weight="800"><tspan x="-11.997" y="17">-I</tspan><tspan y="17" font-size="9.333" baseline-shift="-5.33279994943018">TR</tspan></text><text transform="translate(0 91.562)" fill="#c92296" font-size="16" font-family="Roboto-Black, Roboto" font-weight="800"><tspan x="-11.874" y="17">-I</tspan><tspan y="17" font-size="9.333" baseline-shift="-5.33279994943018">ST</tspan></text><g transform="translate(15.283 12.689)"><g transform="translate(75.442 0) rotate(40)"><g transform="translate(0)"><path d="M13.99,0,0,74.617l49.745,42.749" transform="translate(71.508)" fill="none" stroke="#fe0000" stroke-width="2"/><path d="M0,23.318,72.286,0" transform="translate(0 74.617)" fill="none" stroke="#fe0000" stroke-width="2"/></g></g><path d="M14.481,6.428,16.653,10l-.169.112-8.06-3.2L0,5.056,8.424,3.2,16.484,0l.169.085-2.176,3.6Z" transform="translate(154.039 50.151) rotate(139)" fill="#fb0000"/><path d="M14.481,6.428,16.653,10l-.169.112-8.06-3.2L0,5.056,8.424,3.2,16.484,0l.169.085-2.176,3.6Z" transform="matrix(-0.259, -0.966, 0.966, -0.259, 90.151, 179.214)" fill="#fb0000"/><path d="M14.481,6.428,16.653,10l-.169.112-8.06-3.2L0,5.056,8.424,3.2,16.484,0l.169.085-2.176,3.6Z" transform="translate(7.756 66.306) rotate(30)" fill="#fb0000"/></g><g transform="translate(108.961 50.925) rotate(7)"><path d="M14.481,6.428,16.653,10l-.169.112-8.06-3.2L0,5.056,8.424,3.2,16.484,0l.169.085-2.176,3.6Z" transform="translate(54.821 9.767) rotate(165)" fill="#c82494"/><path d="M0,8.153,46.41,0" transform="translate(0 7.038)" fill="none" stroke="#c82494" stroke-width="2"/></g><g transform="translate(144.843 155.178) rotate(131)"><path d="M14.481,6.428,16.653,10l-.169.112-8.06-3.2L0,5.056,8.424,3.2,16.484,0l.169.085-2.176,3.6Z" transform="translate(51.48 9.767) rotate(165)" fill="#c82494"/><path d="M0,8.153,43.07,0" transform="translate(0 7.038)" fill="none" stroke="#c82494" stroke-width="2"/></g><g transform="translate(36.046 135.914) rotate(-111)"><path d="M14.481,6.428,16.653,10l-.169.112-8.06-3.2L0,5.056,8.424,3.2,16.484,0l.169.085-2.176,3.6Z" transform="translate(54.821 9.767) rotate(165)" fill="#c82494"/><path d="M0,8.153,46.41,0" transform="translate(0 7.038)" fill="none" stroke="#c82494" stroke-width="2"/></g><path d="M-5425.1-2628l33.961,12.465" transform="translate(5532.21 2694.51)" fill="none" stroke="#707070" stroke-width="1" stroke-dasharray="2"/><g transform="translate(44.839 60.864)"><g transform="translate(9.519 9.078)"><path d="M-4754.533-4318l-8.467,45.156,30.1,25.871" transform="translate(4806.274 4318)" fill="none" stroke="#c82494" stroke-width="2"/><path d="M-4809-4255.889l43.745-14.111" transform="translate(4809 4315.156)" fill="none" stroke="#c82494" stroke-width="2"/></g><path d="M14.481,6.428,16.653,10l-.169.112-8.06-3.2L0,5.056,8.424,3.2,16.484,0l.169.085-2.176,3.6Z" transform="translate(67.684 1.756) rotate(100)" fill="#c82494"/><path d="M14.481,6.428,16.653,10l-.169.112-8.06-3.2L0,5.056,8.424,3.2,16.484,0l.169.085-2.176,3.6Z" transform="matrix(-0.799, -0.602, 0.602, -0.799, 88.225, 90.564)" fill="#c82494"/><path d="M14.481,6.428,16.653,10l-.169.112-8.06-3.2L0,5.056,8.424,3.2,16.484,0l.169.085-2.176,3.6Z" transform="translate(0 66.275) rotate(-19)" fill="#c82494"/></g></g><g transform="translate(-4865 -2859.699)"><g transform="translate(4.028)"><text transform="translate(85.228 81.585)" fill="#afafaf" font-size="9" font-family="Roboto-Regular, Roboto"><tspan x="0" y="0">φ</tspan></text><text transform="translate(127.561 128.006)" fill="#afafaf" font-size="9" font-family="Roboto-Regular, Roboto"><tspan x="0" y="0">φ</tspan></text><text transform="translate(110.968 81.684)" fill="#afafaf" font-size="9" font-family="Roboto-Regular, Roboto"><tspan x="0" y="0">30°</tspan></text><text transform="translate(108.192 154.802)" fill="#afafaf" font-size="9" font-family="Roboto-Regular, Roboto"><tspan x="0" y="0">30°</tspan></text><text transform="translate(48.068 115.145)" fill="#afafaf" font-size="9" font-family="Roboto-Regular, Roboto"><tspan x="0" y="0">30°</tspan></text><text transform="translate(57.946 144.939)" fill="#afafaf" font-size="9" font-family="Roboto-Regular, Roboto"><tspan x="0" y="0">φ</tspan></text><path d="M0,0A16.946,16.946,0,0,1,12.115,13.827" transform="matrix(0.588, -0.809, 0.809, 0.588, 82.071, 92.621)" fill="none" stroke="#afafaf" stroke-width="1"/><path d="M0,0A22.5,22.5,0,0,1,16.083,18.356" transform="matrix(0.946, -0.326, 0.326, 0.946, 100.377, 82.995)" fill="none" stroke="#afafaf" stroke-width="1"/><path d="M0,0A18.293,18.293,0,0,1,13.076,14.925" transform="matrix(-0.259, 0.966, -0.966, -0.259, 118.178, 134.926)" fill="none" stroke="#afafaf" stroke-width="1"/><path d="M0,0A18.293,18.293,0,0,1,13.076,14.925" transform="translate(66.7 124.179) rotate(-135)" fill="none" stroke="#afafaf" stroke-width="1"/><path d="M0,0S10.933,2.247,12.992,13.282" transform="translate(121.364 114.174) rotate(69)" fill="none" stroke="#afafaf" stroke-width="1"/><path d="M0,0S8.311,2.132,9.876,12.6" transform="translate(82.973 135.221) rotate(-180)" fill="none" stroke="#afafaf" stroke-width="1"/><g transform="translate(23.254 0)"><path d="M-4829-4382l61.619,105.363h119.475" transform="translate(4839.143 4391.733)" fill="none" stroke="#36653e" stroke-width="2"/><path d="M-4829-4166.988-4766.911-4270" transform="translate(4839.143 4385.097)" fill="none" stroke="#36653e" stroke-width="2"/><path d="M14.481,6.428,16.653,10l-.169.112-8.06-3.2L0,5.056,8.424,3.2,16.484,0l.169.085-2.176,3.6Z" transform="translate(10.527 0) rotate(61)" fill="#36653e"/><path d="M14.481,6.428,16.653,10l-.169.112-8.06-3.2L0,5.056,8.424,3.2,16.484,0l.169.085-2.176,3.6Z" transform="translate(202.855 120.153) rotate(-180)" fill="#36653e"/><path d="M14.481,6.428,16.653,10l-.169.112-8.06-3.2L0,5.056,8.424,3.2,16.484,0l.169.085-2.176,3.6Z" transform="matrix(0.5, -0.866, 0.866, 0.5, 0, 225.143)" fill="#36653e"/></g><text transform="translate(0 5.03)" fill="#36653e" font-size="16" font-family="Roboto-Black, Roboto" font-weight="800"><tspan x="-11.25" y="17">V</tspan><tspan y="17" font-size="9.333" baseline-shift="-5.33279994943018">RS</tspan></text><text transform="translate(45.156 212.325)" fill="#36653e" font-size="16" font-family="Roboto-Black, Roboto" font-weight="800"><tspan x="-11.271" y="17">V</tspan><tspan y="17" font-size="9.333" baseline-shift="-5.33279994943018">TR</tspan></text><text transform="translate(194.734 84.384)" fill="#36653e" font-size="16" font-family="Roboto-Black, Roboto" font-weight="800"><tspan x="-11.148" y="17">V</tspan><tspan y="17" font-size="9.333" baseline-shift="-5.33279994943018">ST</tspan></text><text transform="translate(89.848 37.346)" fill="#c92296" font-size="16" font-family="Roboto-Black, Roboto" font-weight="800"><tspan x="-8.379" y="17">I</tspan><tspan y="17" font-size="9.333" baseline-shift="-5.33279994943018">RS</tspan></text><text transform="translate(19.756 128.599)" fill="#c92296" font-size="16" font-family="Roboto-Black, Roboto" font-weight="800"><tspan x="-8.4" y="17">I</tspan><tspan y="17" font-size="9.333" baseline-shift="-5.33279994943018">TR</tspan></text><text transform="translate(134.527 151.427)" fill="#c92296" font-size="16" font-family="Roboto-Black, Roboto" font-weight="800"><tspan x="-8.277" y="17">I</tspan><tspan y="17" font-size="9.333" baseline-shift="-5.33279994943018">ST</tspan></text><g transform="translate(13.136 12.689)"><g transform="translate(75.442 0) rotate(40)"><g transform="translate(0)"><path d="M13.99,0,0,74.617l49.745,42.749" transform="translate(71.508)" fill="none" stroke="#fe0000" stroke-width="2"/><path d="M0,23.318,72.286,0" transform="translate(0 74.617)" fill="none" stroke="#fe0000" stroke-width="2"/></g></g><path d="M14.481,6.428,16.653,10l-.169.112-8.06-3.2L0,5.056,8.424,3.2,16.484,0l.169.085-2.176,3.6Z" transform="translate(154.039 50.151) rotate(139)" fill="#fb0000"/><path d="M14.481,6.428,16.653,10l-.169.112-8.06-3.2L0,5.056,8.424,3.2,16.484,0l.169.085-2.176,3.6Z" transform="matrix(-0.259, -0.966, 0.966, -0.259, 90.151, 179.214)" fill="#fb0000"/><path d="M14.481,6.428,16.653,10l-.169.112-8.06-3.2L0,5.056,8.424,3.2,16.484,0l.169.085-2.176,3.6Z" transform="translate(7.756 66.306) rotate(30)" fill="#fb0000"/></g><g transform="translate(42.693 60.864)"><g transform="translate(9.519 9.078)"><path d="M-4754.533-4318l-8.467,45.156,30.1,25.871" transform="translate(4806.274 4318)" fill="none" stroke="#c82494" stroke-width="2"/><path d="M-4809-4255.889l43.745-14.111" transform="translate(4809 4315.156)" fill="none" stroke="#c82494" stroke-width="2"/></g><path d="M14.481,6.428,16.653,10l-.169.112-8.06-3.2L0,5.056,8.424,3.2,16.484,0l.169.085-2.176,3.6Z" transform="translate(67.684 1.756) rotate(100)" fill="#c82494"/><path d="M14.481,6.428,16.653,10l-.169.112-8.06-3.2L0,5.056,8.424,3.2,16.484,0l.169.085-2.176,3.6Z" transform="matrix(-0.799, -0.602, 0.602, -0.799, 88.225, 90.564)" fill="#c82494"/><path d="M14.481,6.428,16.653,10l-.169.112-8.06-3.2L0,5.056,8.424,3.2,16.484,0l.169.085-2.176,3.6Z" transform="translate(0 66.275) rotate(-19)" fill="#c82494"/></g></g><text transform="translate(0 68.824)" fill="#fb0000" font-size="16" font-family="Roboto-Black, Roboto" font-weight="800"><tspan x="-5.356" y="17">I</tspan><tspan y="17" font-size="9.333" baseline-shift="-5.33279994943018">T</tspan></text><text transform="translate(160.137 37.699)" fill="#fb0000" font-size="16" font-family="Roboto-Black, Roboto" font-weight="800"><tspan x="-5.458" y="17">I</tspan><tspan y="17" font-size="9.333" baseline-shift="-5.33279994943018">R</tspan></text><text transform="translate(82 187.866)" fill="#fb0000" font-size="16" font-family="Roboto-Black, Roboto" font-weight="800"><tspan x="-5.335" y="17">I</tspan><tspan y="17" font-size="9.333" baseline-shift="-5.33279994943018">S</tspan></text></g></g></svg>