<svg xmlns="http://www.w3.org/2000/svg" width="161" height="161" viewBox="0 0 161 161">
  <g id="Grupo_55447" data-name="Grupo 55447" transform="translate(5448 6742)">
    <g id="luz-de-la-calle" transform="translate(-5429 -6723)">
      <g id="Grupo_55390" data-name="Grupo 55390" transform="translate(49.2 2.05)">
        <g id="Grupo_55389" data-name="Grupo 55389" transform="translate(0 28.7)">
          <path id="Trazado_107081" data-name="Trazado 107081" d="M219.034,127a4.1,4.1,0,0,1,4.1,4.1v32.8h-8.2V131.1A4.1,4.1,0,0,1,219.034,127Z" transform="translate(-206.734 -127)" fill="#3f51b5"/>
          <rect id="Rect치ngulo_5297" data-name="Rect치ngulo 5297" width="12.3" height="43.05" transform="translate(6.15 41)" fill="#3f51b5"/>
          <path id="Trazado_107082" data-name="Trazado 107082" d="M184.9,468.333h16.4a4.1,4.1,0,0,1,4.1,4.1v4.1H180.8v-4.1A4.1,4.1,0,0,1,184.9,468.333Z" transform="translate(-180.8 -386.333)" fill="#3f51b5"/>
        </g>
        <path id="Trazado_107083" data-name="Trazado 107083" d="M208.449,263.533h8.2a2.05,2.05,0,0,1,2.05,2.05v8.2H206.4v-8.2A2.051,2.051,0,0,1,208.449,263.533Z" transform="translate(-200.249 -202.033)" fill="#2296f3"/>
        <path id="Trazado_107084" data-name="Trazado 107084" d="M354.9,41.667v4.1a4.112,4.112,0,0,1-4.1,4.1H338.5a4.112,4.112,0,0,1-4.1-4.1v-4.1Z" transform="translate(-297.499 -33.467)" fill="#ff5722"/>
        <path id="Trazado_107085" data-name="Trazado 107085" d="M354.9,11.633v4.1H334.4v-8.2h16.4A4.112,4.112,0,0,1,354.9,11.633Z" transform="translate(-297.5 -7.533)" fill="#bdc3c7"/>
      </g>
      <g id="Grupo_55391" data-name="Grupo 55391">
        <path id="Trazado_107086" data-name="Trazado 107086" d="M484.017,494.933h-4.1a2.05,2.05,0,0,0,0,4.1h4.1a2.05,2.05,0,0,0,0-4.1Z" transform="translate(-363.067 -376.033)"/>
        <path id="Trazado_107087" data-name="Trazado 107087" d="M102.5,0H71.75a12.314,12.314,0,0,0-12.3,12.3V29.078a6.14,6.14,0,0,0-4.1,5.772V62.07A4.086,4.086,0,0,0,53.3,65.6v45.1a6.157,6.157,0,0,0-6.15,6.15v2.05H2.05a2.05,2.05,0,0,0,0,4.1h106.6a2.05,2.05,0,1,0,0-4.1H75.85v-2.05a6.157,6.157,0,0,0-6.15-6.15V65.6a4.086,4.086,0,0,0-2.05-3.53V34.85a6.14,6.14,0,0,0-4.1-5.772V12.3a8.209,8.209,0,0,1,8.2-8.2h12.3V14.35A6.157,6.157,0,0,0,90.2,20.5h12.3a6.157,6.157,0,0,0,6.15-6.15V6.15A6.156,6.156,0,0,0,102.5,0ZM59.45,34.85a2.05,2.05,0,1,1,4.1,0V61.5h-4.1V34.85Zm6.15,36.9H57.4V65.6h8.2Zm6.15,45.1v2.05H51.25v-2.05a2.053,2.053,0,0,1,2.05-2.05H69.7A2.053,2.053,0,0,1,71.75,116.85ZM57.4,110.7V75.85h8.2V110.7ZM104.55,6.15V8.2H88.15V4.1H102.5A2.053,2.053,0,0,1,104.55,6.15ZM102.5,16.4H90.2a2.053,2.053,0,0,1-2.05-2.05V12.3h16.4v2.05A2.053,2.053,0,0,1,102.5,16.4Z"/>
        <path id="Trazado_107088" data-name="Trazado 107088" d="M316.821,85.935a2.049,2.049,0,0,0-2.9,0l-6.15,6.15a2.05,2.05,0,1,0,2.9,2.9l6.15-6.15a2.049,2.049,0,0,0,0-2.9Z" transform="translate(-233.372 -64.834)"/>
        <path id="Trazado_107089" data-name="Trazado 107089" d="M460.509,95.626a2.05,2.05,0,0,0,1.449-3.5l-6.15-6.15a2.05,2.05,0,0,0-2.9,2.9l6.15,6.15A2.042,2.042,0,0,0,460.509,95.626Z" transform="translate(-343.659 -64.876)"/>
        <path id="Trazado_107090" data-name="Trazado 107090" d="M342.465,114.469a2.051,2.051,0,0,0,2.751-.917l4.1-8.2a2.05,2.05,0,1,0-3.668-1.834l-4.1,8.2a2.05,2.05,0,0,0,.917,2.751Z" transform="translate(-259.332 -77.785)"/>
        <path id="Trazado_107091" data-name="Trazado 107091" d="M392.533,104.45v8.2a2.05,2.05,0,1,0,4.1,0v-8.2a2.05,2.05,0,1,0-4.1,0Z" transform="translate(-298.233 -77.8)"/>
        <path id="Trazado_107092" data-name="Trazado 107092" d="M427.8,102.615a2.05,2.05,0,0,0-.917,2.751l4.1,8.2a2.05,2.05,0,0,0,3.668-1.834l-4.1-8.2a2.05,2.05,0,0,0-2.751-.917Z" transform="translate(-324.165 -77.799)"/>
      </g>
    </g>
    <rect id="Rect치ngulo_5299" data-name="Rect치ngulo 5299" width="161" height="161" transform="translate(-5448 -6742)" fill="none"/>
  </g>
</svg>
