<svg xmlns="http://www.w3.org/2000/svg" width="170" height="174.324" viewBox="0 0 170 174.324"><g transform="translate(-0.499)"><path d="M199.137,83.466a75.506,75.506,0,1,1-46.667-69.84c.158.065.315.129.469.2a75.639,75.639,0,0,1,45.488,59.257c0,.011,0,.021,0,.032a75.951,75.951,0,0,1,.706,10.353Zm0,0" transform="translate(-31.328 -5.212)" fill="#f8a28b"/><path d="M320.142,73.114c0-.011,0-.021,0-.032A75.641,75.641,0,0,0,274.65,13.825c-.154-.069-.311-.133-.469-.2a75.871,75.871,0,0,0-41.628-4.651,74.846,74.846,0,0,1,16.16,4.651c.158.065.317.129.471.2a75.64,75.64,0,0,1,45.486,59.257c0,.011,0,.021,0,.032a75.629,75.629,0,0,1-62.127,84.85,75.612,75.612,0,0,0,87.6-84.85Zm0,0" transform="translate(-153.04 -5.212)" fill="#f58c79"/><path d="M12.757,177.235l42.93-28.784a14.475,14.475,0,0,1,10.385-2.28,14.518,14.518,0,0,0,10.41-2.273l5.744-3.856L114.4,188.065l-7.895,34.53a36.439,36.439,0,0,0,5,28.026,8.693,8.693,0,0,1-2.4,11.942,8.423,8.423,0,0,1-10.62-1l-5.114-5.015a55.411,55.411,0,0,1-13.194-20.477l-2.773-7.56-28.555,19.1a9.666,9.666,0,0,1-13.643-3.01,10.065,10.065,0,0,1,3.059-13.542.11.11,0,0,0,.039-.138.106.106,0,0,0-.138-.053,9.564,9.564,0,0,1-3.479.653,9.689,9.689,0,0,1-8.129-4.414,9.918,9.918,0,0,1-1.431-7.358,10.07,10.07,0,0,1,4.082-6.244.212.212,0,0,0,.053-.293.006.006,0,0,0-.007-.007.2.2,0,0,0-.274-.055,9.876,9.876,0,0,1-2.363.282,10.164,10.164,0,0,1-5.492-1.611,9.621,9.621,0,0,1-2.841-2.822,9.933,9.933,0,0,1,2.744-13.662c.112-.077.222-.153.333-.225a.154.154,0,0,0,.049-.192.076.076,0,0,0-.035-.036.156.156,0,0,0-.193.007,9.433,9.433,0,0,1-8.261-1.076,9.978,9.978,0,0,1-.169-16.588Zm0,0" transform="translate(-5.209 -92.361)" fill="#fdd7bd"/><path d="M310.51,84.583l-30.86,21.228L261.178,118.2a4.584,4.584,0,0,1-6.4-1.321L218.71,61.742a4.723,4.723,0,0,1,1.306-6.493l18.111-12.142,26.891-17.814a75.643,75.643,0,0,1,45.488,59.258c0,.011,0,.021,0,.032Zm0,0" transform="translate(-143.408 -16.681)" fill="#87dbff"/><path d="M220.013,89.753l18.111-12.144,41.524,62.707L261.176,152.7a4.587,4.587,0,0,1-6.407-1.322L218.707,96.244a4.72,4.72,0,0,1,1.306-6.49Zm0,0" transform="translate(-143.405 -51.185)" fill="#6fc7ff"/><g transform="translate(7.716 94.24)"><path d="M70.035,388.021l14.284-7.739a4.592,4.592,0,0,1,5.9,1.343L78.959,389a.107.107,0,0,0-.138-.055,9.538,9.538,0,0,1-3.479.654,9.7,9.7,0,0,1-5.307-1.583Zm0,0" transform="translate(-53.576 -344.678)" fill="#fac5aa"/><path d="M45.793,335.141l13.974-7.566a4.587,4.587,0,0,1,5.9,1.341l-11.262,7.378-.485.231a.2.2,0,0,0-.274-.055,9.808,9.808,0,0,1-2.363.282,10.161,10.161,0,0,1-5.492-1.611Zm0,0" transform="translate(-37.588 -309.915)" fill="#fac5aa"/><path d="M21.7,284.005,34,277.338a4.594,4.594,0,0,1,5.9,1.345l-9.756,6.392a.156.156,0,0,0-.193.007,9.436,9.436,0,0,1-8.262-1.076Zm0,0" transform="translate(-21.695 -276.785)" fill="#fac5aa"/></g><path d="M170.039,69.806A2.7,2.7,0,0,0,170.1,68.8a77.747,77.747,0,0,0-1.837-9.2c-.007-.032-.015-.064-.023-.1,0-.007,0-.013-.005-.02l0-.016,0-.015v0a78.658,78.658,0,0,0-27.356-42.513A78.254,78.254,0,0,0,13.989,77.663l-7.9,5.232a12.465,12.465,0,0,0,4.16,22.568,12.458,12.458,0,0,0,8.317,17.97A12.453,12.453,0,0,0,26.878,141.4a12.483,12.483,0,0,0,8.563,18.04,12.66,12.66,0,0,0,2.51.253,12.392,12.392,0,0,0,6.863-2.077l13.4-8.872c1.347.653,2.721,1.27,4.1,1.839a77.651,77.651,0,0,0,15,4.5,57.565,57.565,0,0,0,8.906,11.091l5.138,4.981a11.242,11.242,0,0,0,17.2-14.278c-.4-.6-.769-1.22-1.125-1.845a78.1,78.1,0,0,0,55.545-43.242,2.69,2.69,0,1,0-4.86-2.309A72.727,72.727,0,0,1,105.083,150a33.3,33.3,0,0,1-1.181-18.862L110.46,102.8a7.273,7.273,0,0,0,3.878,2.169,7.465,7.465,0,0,0,1.48.15,7.278,7.278,0,0,0,4.033-1.222L164.994,74q.124,2.123.125,4.255a73.053,73.053,0,0,1-2.721,19.8,2.69,2.69,0,0,0,5.179,1.459,78.512,78.512,0,0,0,2.462-29.708ZM137.677,85.643,98.934,27.862l22.819-15.11a73.315,73.315,0,0,1,41.253,48.015c0,.007,0,.015.005.021s.007.033.011.049a71.5,71.5,0,0,1,1.366,7.116ZM63.5,145.245l7.179-4.755,1.619,4.361q.746,2.009,1.645,3.963a72.19,72.19,0,0,1-9.573-3.2c-.29-.12-.58-.246-.87-.37Zm35.16-15.318a38.7,38.7,0,0,0,2.264,24.164s0,0,0,.005.012.027.019.04a38.994,38.994,0,0,0,3.12,5.712,5.862,5.862,0,0,1-8.972,7.441l-5.135-4.978A52.226,52.226,0,0,1,81.3,151.3c-.021-.036-.044-.072-.065-.106a52.679,52.679,0,0,1-3.893-8.215l-2.8-7.54a2.691,2.691,0,0,0-3.458-1.587c-.029.011-.056.025-.084.036a1.546,1.546,0,0,0-.378.189l-.055.033-.035.021-28.692,19A7.1,7.1,0,1,1,34,141.3l2.45-1.62s0,0,0,0l.041-.028,5.557-3.68a2.69,2.69,0,0,0-2.971-4.486l-5.594,3.705a7.1,7.1,0,0,1-7.8-11.858L33.739,118a2.69,2.69,0,0,0-2.967-4.489l-5.591,3.7a7.1,7.1,0,0,1-7.806-11.857l8.049-5.332a2.69,2.69,0,1,0-2.967-4.487l-5.562,3.68A7.1,7.1,0,1,1,9.058,87.381L28.593,74.445a2.69,2.69,0,1,0-2.97-4.486L19.489,74.02A72.989,72.989,0,0,1,116.782,9.59L75.5,36.93A7.353,7.353,0,0,0,73.433,47.1l.239.362L70.142,49.8A12,12,0,0,1,61.6,51.648a17.353,17.353,0,0,0-12.361,2.673L35.224,63.6A2.69,2.69,0,0,0,38.2,68.088L52.21,58.807a11.992,11.992,0,0,1,8.533-1.847,17.391,17.391,0,0,0,12.369-2.673l3.531-2.339,29.69,44.828Zm18.22-30.51a1.957,1.957,0,0,1-2.709-.556L79.651,46.741a.074.074,0,0,0-.007-.011l-.008-.011-1.717-2.592a1.966,1.966,0,0,1,.551-2.715l15.979-10.58,38.743,57.781Zm0,0"/></g></svg>