<svg xmlns="http://www.w3.org/2000/svg" width="611" height="349" viewBox="0 0 611 349"><g transform="translate(4039 5771)"><rect width="611" height="349" rx="5" transform="translate(-4039 -5771)" fill="#fff"/><g transform="translate(22.43 -724.123)"><g transform="translate(-4000.927 -5019)"><path d="M-3591.5-5292.25V-5344h-344.276v131.529l-67.562,89.124v72.593h329.183V-5183" transform="translate(4003.333 5344)" fill="none" stroke="#707070" stroke-linecap="round" stroke-linejoin="round" stroke-width="3"/><path d="M-3511.579-5191.761v59.656h-360.807l-68.28-90.561" transform="translate(4008.228 5353.477)" fill="none" stroke="#707070" stroke-linecap="round" stroke-linejoin="round" stroke-width="3"/><g transform="translate(327.026 47.437)" fill="#fff"><path d="M 168.4361572265625 113.8576812744141 L 2.983208656311035 113.8576812744141 L 85.70968627929688 2.515129804611206 L 168.4361572265625 113.8576812744141 Z" stroke="none"/><path d="M 85.70968627929688 5.030250549316406 L 5.966384887695312 112.3576736450195 L 165.4529876708984 112.3576736450195 L 85.70968627929688 5.030250549316406 M 85.70968627929688 7.62939453125e-06 L 171.4193725585938 115.3576736450195 L 0 115.3576736450195 L 85.70968627929688 7.62939453125e-06 Z" stroke="none" fill="#707070"/></g><g transform="translate(48.874 67.921)" fill="#fff" stroke="#707070" stroke-width="3"><circle cx="18.867" cy="18.867" r="18.867" stroke="none"/><circle cx="18.867" cy="18.867" r="17.367" fill="none"/></g><g transform="translate(83.374 160.638)" fill="#fff" stroke="#707070" stroke-width="3"><circle cx="18.867" cy="18.867" r="18.867" stroke="none"/><circle cx="18.867" cy="18.867" r="17.367" fill="none"/></g><g transform="translate(11.14 160.638)" fill="#fff" stroke="#707070" stroke-width="3"><circle cx="18.867" cy="18.867" r="18.867" stroke="none"/><circle cx="18.867" cy="18.867" r="17.367" fill="none"/></g><g transform="translate(438.093 153.092) rotate(90)" fill="#fff" stroke="#707070" stroke-width="3"><rect width="18.455" height="52.511" rx="2" stroke="none"/><rect x="1.5" y="1.5" width="15.455" height="49.511" rx="0.5" fill="none"/></g><g transform="translate(474.408 121.472) rotate(144)" fill="#fff" stroke="#707070" stroke-width="3"><rect width="18.455" height="52.511" rx="2" stroke="none"/><rect x="1.5" y="1.5" width="15.455" height="49.511" rx="0.5" fill="none"/></g><g transform="matrix(0.809, 0.588, -0.588, 0.809, 379.183, 78.99)" fill="#fff" stroke="#707070" stroke-width="3"><rect width="18.455" height="52.511" rx="2" stroke="none"/><rect x="1.5" y="1.5" width="15.455" height="49.511" rx="0.5" fill="none"/></g><circle cx="5.454" cy="5.454" r="5.454" transform="translate(407.282 45.961)" fill="#707070"/><circle cx="5.454" cy="5.454" r="5.454" transform="translate(491.195 156.865)" fill="#707070"/><circle cx="5.454" cy="5.454" r="5.454" transform="translate(323.01 156.865)" fill="#707070"/><circle cx="5.454" cy="5.454" r="5.454" transform="translate(62.107 125.357)" fill="#707070"/></g><text transform="translate(-3995.328 -4949.677)" fill="#12263f" font-size="20" font-family="Roboto-Black, Roboto" font-weight="800"><tspan x="-16.997" y="21">V </tspan><tspan y="21" font-size="11.666" baseline-shift="-6.666000209254424">RN</tspan></text><text transform="translate(-4034.14 -4861.272)" fill="#12263f" font-size="20" font-family="Roboto-Black, Roboto" font-weight="800"><tspan x="-16.869" y="21">V </tspan><tspan y="21" font-size="11.666" baseline-shift="-6.666000209254424">TN</tspan></text><text transform="translate(-3749.876 -4910.197)" fill="#636363" font-size="18" font-family="Roboto-Black, Roboto" font-weight="800"><tspan x="-14.921" y="19">V </tspan><tspan y="19" font-size="10.499" baseline-shift="-5.999400079342301">TR</tspan></text><text transform="translate(-3730.47 -4994.29)" fill="#ff3b4e" font-size="16" font-family="Roboto-Black, Roboto" font-weight="800"><tspan x="-5.458" y="17">I</tspan><tspan y="17" font-size="9.333" baseline-shift="-5.33279994943018">R</tspan></text><text transform="translate(-3672.872 -4944.287)" fill="#c82494" font-size="16" font-family="Roboto-Black, Roboto" font-weight="800"><tspan x="-8.4" y="17">I</tspan><tspan y="17" font-size="9.333" baseline-shift="-5.33279994943018">TR</tspan></text><text transform="translate(-3522.852 -4944.287)" fill="#c82494" font-size="16" font-family="Roboto-Black, Roboto" font-weight="800"><tspan x="-8.379" y="17">I</tspan><tspan y="17" font-size="9.333" baseline-shift="-5.33279994943018">RS</tspan></text><text transform="translate(-3600.019 -4826.019)" fill="#c82494" font-size="16" font-family="Roboto-Black, Roboto" font-weight="800"><tspan x="-8.277" y="17">I</tspan><tspan y="17" font-size="9.333" baseline-shift="-5.33279994943018">ST</tspan></text><text transform="translate(-3730.47 -4844.022)" fill="#ff3b4e" font-size="16" font-family="Roboto-Black, Roboto" font-weight="800"><tspan x="-5.335" y="17">I</tspan><tspan y="17" font-size="9.333" baseline-shift="-5.33279994943018">S</tspan></text><text transform="translate(-3730.47 -4774.318)" fill="#ff3b4e" font-size="16" font-family="Roboto-Black, Roboto" font-weight="800"><tspan x="-5.356" y="17">I</tspan><tspan y="17" font-size="9.333" baseline-shift="-5.33279994943018">T</tspan></text><text transform="translate(-3816.211 -4910.197)" fill="#636363" font-size="18" font-family="Roboto-Black, Roboto" font-weight="800"><tspan x="-14.898" y="19">V </tspan><tspan y="19" font-size="10.499" baseline-shift="-5.999400079342301">RS</tspan></text><text transform="translate(-3816.211 -4771.789)" fill="#636363" font-size="18" font-family="Roboto-Black, Roboto" font-weight="800"><tspan x="-14.782" y="19">V </tspan><tspan y="19" font-size="10.499" baseline-shift="-5.999400079342301">ST</tspan></text><text transform="translate(-3847.627 -4794.488)" fill="#636363" font-size="13" font-family="Roboto-Black, Roboto" font-weight="800"><tspan x="-3.472" y="14">+</tspan></text><text transform="translate(-3847.627 -5010.062)" fill="#636363" font-size="13" font-family="Roboto-Black, Roboto" font-weight="800"><tspan x="-3.472" y="14">+</tspan></text><text transform="translate(-3777.399 -4749.834)" fill="#636363" font-size="13" font-family="Roboto-Black, Roboto" font-weight="800"><tspan x="-3.472" y="14">+</tspan></text><text transform="translate(-3873.502 -4861.272)" fill="#12263f" font-size="20" font-family="Roboto-Black, Roboto" font-weight="800"><tspan x="-16.844" y="21">V </tspan><tspan y="21" font-size="11.666" baseline-shift="-6.666000209254424">SN</tspan></text><text transform="translate(-3925.813 -5011.54)" fill="#12263f" font-size="13" font-family="Roboto-Black, Roboto" font-weight="800"><tspan x="-4.24" y="14">R</tspan></text><text transform="translate(-3579.534 -4979.196)" fill="#12263f" font-size="13" font-family="Roboto-Black, Roboto" font-weight="800"><tspan x="-4.24" y="14">R</tspan></text><text transform="translate(-3890.751 -4803.464)" fill="#12263f" font-size="13" font-family="Roboto-Black, Roboto" font-weight="800"><tspan x="-4.069" y="14">S</tspan></text><text transform="translate(-3494.72 -4864.507)" fill="#12263f" font-size="13" font-family="Roboto-Black, Roboto" font-weight="800"><tspan x="-4.069" y="14">S</tspan></text><text transform="translate(-3579.534 -4919.49)" fill="#12263f" font-size="18" font-family="Roboto-Black, Roboto" font-weight="800"><tspan x="-5.489" y="19">Z</tspan></text><text transform="translate(-3596.784 -4889.627)" fill="#12263f" font-size="18" font-family="Roboto-Black, Roboto" font-weight="800"><tspan x="-5.489" y="19">Z</tspan></text><text transform="translate(-3614.034 -4919.49)" fill="#12263f" font-size="18" font-family="Roboto-Black, Roboto" font-weight="800"><tspan x="-5.489" y="19">Z</tspan></text><text transform="translate(-3993.172 -4803.464)" fill="#12263f" font-size="13" font-family="Roboto-Black, Roboto" font-weight="800"><tspan x="-4.097" y="14">T</tspan></text><text transform="translate(-3697.77 -4864.507)" fill="#12263f" font-size="13" font-family="Roboto-Black, Roboto" font-weight="800"><tspan x="-4.097" y="14">T</tspan></text><text transform="translate(-3965.141 -4897.26)" fill="#12263f" font-size="13" font-family="Roboto-Black, Roboto" font-weight="800"><tspan x="-4.564" y="14">N</tspan></text><g transform="translate(-3761.211 -4733.662) rotate(-90)"><path d="M0,0V250.278" transform="translate(13.115 5.375) rotate(-90)" fill="none" stroke="#afafaf" stroke-width="2"/><path d="M15.393,6.833l2.309,3.8-.179.119-8.568-3.4L0,5.374,8.954,3.4,17.522,0,17.7.09,15.389,3.916Z" transform="translate(275.37 10.748) rotate(180)" fill="#afafaf"/><path d="M15.393,6.833l2.309,3.8-.179.119-8.568-3.4L0,5.374,8.954,3.4,17.522,0,17.7.09,15.389,3.916Z" transform="translate(0 0)" fill="#afafaf"/></g><g transform="translate(-3827.546 -4805.847) rotate(-90)"><path d="M0,0V180.152" transform="translate(12.086 5.375) rotate(-90)" fill="none" stroke="#afafaf" stroke-width="2"/><path d="M15.393,6.833l2.309,3.8-.179.119-8.568-3.4L0,5.374,8.954,3.4,17.522,0,17.7.09,15.389,3.916Z" transform="translate(204.215 10.748) rotate(180)" fill="#afafaf"/><path d="M15.393,6.833l2.309,3.8-.179.119-8.568-3.4L0,5.374,8.954,3.4,17.522,0,17.7.09,15.389,3.916Z" transform="translate(0 0)" fill="#afafaf"/></g><g transform="translate(-3827.546 -4733.662) rotate(-90)"><path d="M0,0V37.7" transform="translate(11.147 5.375) rotate(-90)" fill="none" stroke="#afafaf" stroke-width="2"/><path d="M15.393,6.833l2.309,3.8-.179.119-8.568-3.4L0,5.374,8.954,3.4,17.522,0,17.7.09,15.389,3.916Z" transform="translate(60.826 10.748) rotate(180)" fill="#afafaf"/><path d="M15.393,6.833l2.309,3.8-.179.119-8.568-3.4L0,5.374,8.954,3.4,17.522,0,17.7.09,15.389,3.916Z" transform="translate(0 0)" fill="#afafaf"/></g><g transform="translate(-3735.904 -4748.07)"><path d="M0,0V37.7" transform="translate(0 5.375) rotate(-90)" fill="none" stroke="#ff3b4e" stroke-width="2"/><path d="M15.393,6.833l2.309,3.8-.179.119-8.568-3.4L0,5.374,8.954,3.4,17.522,0,17.7.09,15.389,3.916Z" transform="translate(49.679 10.748) rotate(180)" fill="#ff3b4e"/></g><g transform="translate(-3735.904 -4816.596)"><path d="M0,0V37.7" transform="translate(0 5.375) rotate(-90)" fill="none" stroke="#ff3b4e" stroke-width="2"/><path d="M15.393,6.833l2.309,3.8-.179.119-8.568-3.4L0,5.374,8.954,3.4,17.522,0,17.7.09,15.389,3.916Z" transform="translate(49.679 10.748) rotate(180)" fill="#ff3b4e"/></g><g transform="translate(-3735.904 -5006.116)"><path d="M0,0V37.7" transform="translate(0 5.375) rotate(-90)" fill="none" stroke="#ff3b4e" stroke-width="2"/><path d="M15.393,6.833l2.309,3.8-.179.119-8.568-3.4L0,5.374,8.954,3.4,17.522,0,17.7.09,15.389,3.916Z" transform="translate(49.679 10.748) rotate(180)" fill="#ff3b4e"/></g><g transform="matrix(0.588, -0.809, 0.809, 0.588, -3663.169, -4909.416)"><path d="M0,0V37.7" transform="translate(0 5.375) rotate(-90)" fill="none" stroke="#c82494" stroke-width="2"/><path d="M15.393,6.833l2.309,3.8-.179.119-8.568-3.4L0,5.374,8.954,3.4,17.522,0,17.7.09,15.389,3.916Z" transform="translate(49.679 10.748) rotate(180)" fill="#c82494"/></g><g transform="matrix(0.588, 0.809, -0.809, 0.588, -3542.35, -4944.847)"><path d="M0,37.7V0" transform="translate(37.703 5.374) rotate(90)" fill="none" stroke="#c82494" stroke-width="2"/><path d="M15.393,3.916,17.7.119,17.522,0,8.954,3.4,0,5.374l8.954,1.97,8.568,3.4.179-.09L15.389,6.833Z" transform="translate(49.68 10.748) rotate(180)" fill="#c82494"/></g><g transform="translate(-3564.354 -4832.164) rotate(-180)"><path d="M0,37.7V0" transform="translate(37.703 5.374) rotate(90)" fill="none" stroke="#c82494" stroke-width="2"/><path d="M15.393,3.916,17.7.119,17.522,0,8.954,3.4,0,5.374l8.954,1.97,8.568,3.4.179-.09L15.389,6.833Z" transform="translate(49.68 10.748) rotate(180)" fill="#c82494"/></g></g></g></svg>