<svg xmlns="http://www.w3.org/2000/svg" width="230" height="91" viewBox="0 0 230 91">
  <g id="Grupo_55653" data-name="Grupo 55653" transform="translate(-685 -1117)">
    <path id="Trazado_107280" data-name="Trazado 107280" d="M15,0H215a15,15,0,0,1,15,15V76a15,15,0,0,1-15,15H15A15,15,0,0,1,0,76V15A15,15,0,0,1,15,0Z" transform="translate(685 1117)" fill="#f3f9ff"/>
    <path id="Trazado_107281" data-name="Trazado 107281" d="M13.938,13.949H4.9V11.41h9.043Zm0,4.287H4.9V15.7h9.043Z" transform="translate(764 1150)" fill="#12263f"/>
    <path id="Trazado_107282" data-name="Trazado 107282" d="M8.289,11.664l-3.184-.879L5.74,8.939l3.115,1.279L8.611,6.781H10.7l-.254,3.506,3.027-1.25.635,1.865-3.223.879,2.139,2.588-1.689,1.152L9.549,12.65l-1.8,2.773-1.689-1.1Z" transform="translate(818 1150)" fill="#12263f"/>
    <g id="Trazado_107283" data-name="Trazado 107283" transform="translate(731 1147)" fill="#fff">
      <path d="M 16 30.5 C 12.12691020965576 30.5 8.485639572143555 28.99173927307129 5.746950149536133 26.25304985046387 C 3.008260011672974 23.51436042785645 1.5 19.87309074401855 1.5 16 C 1.5 12.12691020965576 3.008260011672974 8.485639572143555 5.746950149536133 5.746950149536133 C 8.485639572143555 3.008260011672974 12.12691020965576 1.5 16 1.5 C 19.87309074401855 1.5 23.51436042785645 3.008260011672974 26.25304985046387 5.746950149536133 C 28.99173927307129 8.485639572143555 30.5 12.12691020965576 30.5 16 C 30.5 19.87309074401855 28.99173927307129 23.51436042785645 26.25304985046387 26.25304985046387 C 23.51436042785645 28.99173927307129 19.87309074401855 30.5 16 30.5 Z" stroke="none"/>
      <path d="M 16 3 C 12.5275707244873 3 9.262990951538086 4.352239608764648 6.807609558105469 6.807609558105469 C 4.352239608764648 9.262990951538086 3 12.5275707244873 3 16 C 3 19.47243118286133 4.352239608764648 22.73701095581055 6.807609558105469 25.19239044189453 C 9.262990951538086 27.64776039123535 12.5275707244873 29 16 29 C 19.47243118286133 29 22.73701095581055 27.64776039123535 25.19239044189453 25.19239044189453 C 27.64776039123535 22.73701095581055 29 19.47243118286133 29 16 C 29 12.5275707244873 27.64776039123535 9.262990951538086 25.19239044189453 6.807609558105469 C 22.73701095581055 4.352239608764648 19.47243118286133 3 16 3 M 16 0 C 24.8365592956543 0 32 7.163440704345703 32 16 C 32 24.8365592956543 24.8365592956543 32 16 32 C 7.163440704345703 32 0 24.8365592956543 0 16 C 0 7.163440704345703 7.163440704345703 0 16 0 Z" stroke="none" fill="#ad84ff"/>
    </g>
    <path id="Trazado_107284" data-name="Trazado 107284" d="M7.194,14.658V19H4.109V6.2H9.215a5.948,5.948,0,0,1,2.6.541,4.074,4.074,0,0,1,1.749,1.538,4.2,4.2,0,0,1,.62,2.263,3.7,3.7,0,0,1-1.34,2.993,5.561,5.561,0,0,1-3.678,1.121Zm0-2.382H9.215a1.906,1.906,0,0,0,1.367-.448,1.665,1.665,0,0,0,.47-1.266,2.059,2.059,0,0,0-.483-1.433A1.712,1.712,0,0,0,9.25,8.585H7.194Z" transform="translate(738 1152)" fill="#12263f"/>
    <g id="Trazado_107285" data-name="Trazado 107285" transform="translate(784 1147)" fill="#fff">
      <path d="M 16 30.5 C 12.12691020965576 30.5 8.485639572143555 28.99173927307129 5.746950149536133 26.25304985046387 C 3.008260011672974 23.51436042785645 1.5 19.87309074401855 1.5 16 C 1.5 12.12691020965576 3.008260011672974 8.485639572143555 5.746950149536133 5.746950149536133 C 8.485639572143555 3.008260011672974 12.12691020965576 1.5 16 1.5 C 19.87309074401855 1.5 23.51436042785645 3.008260011672974 26.25304985046387 5.746950149536133 C 28.99173927307129 8.485639572143555 30.5 12.12691020965576 30.5 16 C 30.5 19.87309074401855 28.99173927307129 23.51436042785645 26.25304985046387 26.25304985046387 C 23.51436042785645 28.99173927307129 19.87309074401855 30.5 16 30.5 Z" stroke="none"/>
      <path d="M 16 3 C 12.5275707244873 3 9.262990951538086 4.352239608764648 6.807609558105469 6.807609558105469 C 4.352239608764648 9.262990951538086 3 12.5275707244873 3 16 C 3 19.47243118286133 4.352239608764648 22.73701095581055 6.807609558105469 25.19239044189453 C 9.262990951538086 27.64776039123535 12.5275707244873 29 16 29 C 19.47243118286133 29 22.73701095581055 27.64776039123535 25.19239044189453 25.19239044189453 C 27.64776039123535 22.73701095581055 29 19.47243118286133 29 16 C 29 12.5275707244873 27.64776039123535 9.262990951538086 25.19239044189453 6.807609558105469 C 22.73701095581055 4.352239608764648 19.47243118286133 3 16 3 M 16 0 C 24.8365592956543 0 32 7.163440704345703 32 16 C 32 24.8365592956543 24.8365592956543 32 16 32 C 7.163440704345703 32 0 24.8365592956543 0 16 C 0 7.163440704345703 7.163440704345703 0 16 0 Z" stroke="none" fill="#ad84ff"/>
    </g>
    <path id="Trazado_107286" data-name="Trazado 107286" d="M10.538,19H7.462V6.2h3.076Z" transform="translate(791 1152)" fill="#12263f"/>
    <g id="Trazado_107287" data-name="Trazado 107287" transform="translate(837 1147)" fill="#fff">
      <path d="M 16 30.5 C 12.12691020965576 30.5 8.485639572143555 28.99173927307129 5.746950149536133 26.25304985046387 C 3.008260011672974 23.51436042785645 1.5 19.87309074401855 1.5 16 C 1.5 12.12691020965576 3.008260011672974 8.485639572143555 5.746950149536133 5.746950149536133 C 8.485639572143555 3.008260011672974 12.12691020965576 1.5 16 1.5 C 19.87309074401855 1.5 23.51436042785645 3.008260011672974 26.25304985046387 5.746950149536133 C 28.99173927307129 8.485639572143555 30.5 12.12691020965576 30.5 16 C 30.5 19.87309074401855 28.99173927307129 23.51436042785645 26.25304985046387 26.25304985046387 C 23.51436042785645 28.99173927307129 19.87309074401855 30.5 16 30.5 Z" stroke="none"/>
      <path d="M 16 3 C 12.5275707244873 3 9.262990951538086 4.352239608764648 6.807609558105469 6.807609558105469 C 4.352239608764648 9.262990951538086 3 12.5275707244873 3 16 C 3 19.47243118286133 4.352239608764648 22.73701095581055 6.807609558105469 25.19239044189453 C 9.262990951538086 27.64776039123535 12.5275707244873 29 16 29 C 19.47243118286133 29 22.73701095581055 27.64776039123535 25.19239044189453 25.19239044189453 C 27.64776039123535 22.73701095581055 29 19.47243118286133 29 16 C 29 12.5275707244873 27.64776039123535 9.262990951538086 25.19239044189453 6.807609558105469 C 22.73701095581055 4.352239608764648 19.47243118286133 3 16 3 M 16 0 C 24.8365592956543 0 32 7.163440704345703 32 16 C 32 24.8365592956543 24.8365592956543 32 16 32 C 7.163440704345703 32 0 24.8365592956543 0 16 C 0 7.163440704345703 7.163440704345703 0 16 0 Z" stroke="none" fill="#ad84ff"/>
    </g>
    <path id="Trazado_107288" data-name="Trazado 107288" d="M8.987,15.52,11.536,6.2h3.445L10.674,19H7.3L3.028,6.2H6.447Z" transform="translate(844 1152)" fill="#12263f"/>
  </g>
</svg>
